%TF.GenerationSoftware,KiCad,Pcbnew,5.1.10*%
%TF.CreationDate,2021-06-15T19:04:48-05:00*%
%TF.ProjectId,olkbd_ble,6f6c6b62-645f-4626-9c65-2e6b69636164,rev?*%
%TF.SameCoordinates,Original*%
%TF.FileFunction,Soldermask,Bot*%
%TF.FilePolarity,Negative*%
%FSLAX46Y46*%
G04 Gerber Fmt 4.6, Leading zero omitted, Abs format (unit mm)*
G04 Created by KiCad (PCBNEW 5.1.10) date 2021-06-15 19:04:48*
%MOMM*%
%LPD*%
G01*
G04 APERTURE LIST*
%ADD10C,0.500000*%
%ADD11R,1.400000X1.200000*%
%ADD12R,2.550000X2.500000*%
%ADD13C,1.701800*%
%ADD14C,3.987800*%
%ADD15C,3.000000*%
%ADD16O,2.268000X1.524000*%
G04 APERTURE END LIST*
D10*
%TO.C,mouse-bite-2mm-slot*%
X300750000Y-251750000D03*
X299250000Y-251750000D03*
X299250000Y-250250000D03*
X300750000Y-250250000D03*
X300000000Y-251750000D03*
X300000000Y-250250000D03*
%TD*%
%TO.C,mouse-bite-2mm-slot*%
X224750000Y-251750000D03*
X223250000Y-251750000D03*
X223250000Y-250250000D03*
X224750000Y-250250000D03*
X224000000Y-251750000D03*
X224000000Y-250250000D03*
%TD*%
%TO.C,mouse-bite-2mm-slot*%
X147750000Y-251750000D03*
X146250000Y-251750000D03*
X146250000Y-250250000D03*
X147750000Y-250250000D03*
X147000000Y-251750000D03*
X147000000Y-250250000D03*
%TD*%
D11*
%TO.C,D58*%
X319362500Y-207287500D03*
X319362500Y-203887500D03*
%TD*%
D10*
%TO.C,mouse-bite-2mm-slot*%
X147000000Y-153000000D03*
X147000000Y-154500000D03*
X147750000Y-153000000D03*
X146250000Y-153000000D03*
X146250000Y-154500000D03*
X147750000Y-154500000D03*
%TD*%
D12*
%TO.C,K32*%
X225664500Y-180785500D03*
D13*
X228144500Y-183325500D03*
X238304500Y-183325500D03*
D14*
X233224500Y-183325500D03*
D15*
X229414500Y-180785500D03*
X235764500Y-178245500D03*
D12*
X239514500Y-178245500D03*
%TD*%
%TO.C,K33*%
X225664500Y-199835500D03*
D13*
X228144500Y-202375500D03*
X238304500Y-202375500D03*
D14*
X233224500Y-202375500D03*
D15*
X229414500Y-199835500D03*
X235764500Y-197295500D03*
D12*
X239514500Y-197295500D03*
%TD*%
%TO.C,K42*%
X263764500Y-180785500D03*
D13*
X266244500Y-183325500D03*
X276404500Y-183325500D03*
D14*
X271324500Y-183325500D03*
D15*
X267514500Y-180785500D03*
X273864500Y-178245500D03*
D12*
X277614500Y-178245500D03*
%TD*%
%TO.C,K31*%
X225664500Y-161735500D03*
D13*
X228144500Y-164275500D03*
X238304500Y-164275500D03*
D14*
X233224500Y-164275500D03*
D15*
X229414500Y-161735500D03*
X235764500Y-159195500D03*
D12*
X239514500Y-159195500D03*
%TD*%
%TO.C,K24*%
X187564500Y-218885500D03*
D13*
X190044500Y-221425500D03*
X200204500Y-221425500D03*
D14*
X195124500Y-221425500D03*
D15*
X191314500Y-218885500D03*
X197664500Y-216345500D03*
D12*
X201414500Y-216345500D03*
%TD*%
%TO.C,K41*%
X263764500Y-161735500D03*
D13*
X266244500Y-164275500D03*
X276404500Y-164275500D03*
D14*
X271324500Y-164275500D03*
D15*
X267514500Y-161735500D03*
X273864500Y-159195500D03*
D12*
X277614500Y-159195500D03*
%TD*%
%TO.C,K34*%
X225664500Y-218885500D03*
D13*
X228144500Y-221425500D03*
X238304500Y-221425500D03*
D14*
X233224500Y-221425500D03*
D15*
X229414500Y-218885500D03*
X235764500Y-216345500D03*
D12*
X239514500Y-216345500D03*
%TD*%
%TO.C,K23*%
X187564500Y-199835500D03*
D13*
X190044500Y-202375500D03*
X200204500Y-202375500D03*
D14*
X195124500Y-202375500D03*
D15*
X191314500Y-199835500D03*
X197664500Y-197295500D03*
D12*
X201414500Y-197295500D03*
%TD*%
D11*
%TO.C,D59*%
X319362500Y-226287500D03*
X319362500Y-222887500D03*
%TD*%
%TO.C,D54*%
X300362500Y-226287500D03*
X300362500Y-222887500D03*
%TD*%
%TO.C,D15*%
X147862500Y-245287500D03*
X147862500Y-241887500D03*
%TD*%
%TO.C,D4*%
X109862500Y-226287500D03*
X109862500Y-222887500D03*
%TD*%
%TO.C,D50*%
X281362500Y-245287500D03*
X281362500Y-241887500D03*
%TD*%
%TO.C,D11*%
X147862500Y-169287500D03*
X147862500Y-165887500D03*
%TD*%
D12*
%TO.C,K19*%
X168514500Y-218885500D03*
D13*
X170994500Y-221425500D03*
X181154500Y-221425500D03*
D14*
X176074500Y-221425500D03*
D15*
X172264500Y-218885500D03*
X178614500Y-216345500D03*
D12*
X182364500Y-216345500D03*
%TD*%
D11*
%TO.C,D57*%
X319362500Y-188287500D03*
X319362500Y-184887500D03*
%TD*%
D12*
%TO.C,K22*%
X187564500Y-180785500D03*
D13*
X190044500Y-183325500D03*
X200204500Y-183325500D03*
D14*
X195124500Y-183325500D03*
D15*
X191314500Y-180785500D03*
X197664500Y-178245500D03*
D12*
X201414500Y-178245500D03*
%TD*%
D11*
%TO.C,D10*%
X128862500Y-245287500D03*
X128862500Y-241887500D03*
%TD*%
D12*
%TO.C,K45*%
X263764500Y-237935500D03*
D13*
X266244500Y-240475500D03*
X276404500Y-240475500D03*
D14*
X271324500Y-240475500D03*
D15*
X267514500Y-237935500D03*
X273864500Y-235395500D03*
D12*
X277614500Y-235395500D03*
%TD*%
%TO.C,K20*%
X168514500Y-237935500D03*
D13*
X170994500Y-240475500D03*
X181154500Y-240475500D03*
D14*
X176074500Y-240475500D03*
D15*
X172264500Y-237935500D03*
X178614500Y-235395500D03*
D12*
X182364500Y-235395500D03*
%TD*%
D11*
%TO.C,D1*%
X109862500Y-169287500D03*
X109862500Y-165887500D03*
%TD*%
D12*
%TO.C,K30*%
X206614500Y-237935500D03*
D13*
X209094500Y-240475500D03*
X219254500Y-240475500D03*
D14*
X214174500Y-240475500D03*
D15*
X210364500Y-237935500D03*
X216714500Y-235395500D03*
D12*
X220464500Y-235395500D03*
%TD*%
%TO.C,K28*%
X206614500Y-199835500D03*
D13*
X209094500Y-202375500D03*
X219254500Y-202375500D03*
D14*
X214174500Y-202375500D03*
D15*
X210364500Y-199835500D03*
X216714500Y-197295500D03*
D12*
X220464500Y-197295500D03*
%TD*%
%TO.C,K25*%
X187564500Y-237935500D03*
D13*
X190044500Y-240475500D03*
X200204500Y-240475500D03*
D14*
X195124500Y-240475500D03*
D15*
X191314500Y-237935500D03*
X197664500Y-235395500D03*
D12*
X201414500Y-235395500D03*
%TD*%
D11*
%TO.C,D60*%
X319362500Y-245287500D03*
X319362500Y-241887500D03*
%TD*%
D12*
%TO.C,K51*%
X301864500Y-161735500D03*
D13*
X304344500Y-164275500D03*
X314504500Y-164275500D03*
D14*
X309424500Y-164275500D03*
D15*
X305614500Y-161735500D03*
X311964500Y-159195500D03*
D12*
X315714500Y-159195500D03*
%TD*%
%TO.C,K10*%
X130414500Y-237935500D03*
D13*
X132894500Y-240475500D03*
X143054500Y-240475500D03*
D14*
X137974500Y-240475500D03*
D15*
X134164500Y-237935500D03*
X140514500Y-235395500D03*
D12*
X144264500Y-235395500D03*
%TD*%
%TO.C,K57*%
X320914500Y-180785500D03*
D13*
X323394500Y-183325500D03*
X333554500Y-183325500D03*
D14*
X328474500Y-183325500D03*
D15*
X324664500Y-180785500D03*
X331014500Y-178245500D03*
D12*
X334764500Y-178245500D03*
%TD*%
D11*
%TO.C,D9*%
X128862500Y-226287500D03*
X128862500Y-222887500D03*
%TD*%
D12*
%TO.C,K58*%
X320914500Y-199835500D03*
D13*
X323394500Y-202375500D03*
X333554500Y-202375500D03*
D14*
X328474500Y-202375500D03*
D15*
X324664500Y-199835500D03*
X331014500Y-197295500D03*
D12*
X334764500Y-197295500D03*
%TD*%
D11*
%TO.C,D28*%
X205362500Y-207287500D03*
X205362500Y-203887500D03*
%TD*%
%TO.C,D25*%
X186362500Y-245287500D03*
X186362500Y-241887500D03*
%TD*%
%TO.C,D20*%
X166862500Y-245287500D03*
X166862500Y-241887500D03*
%TD*%
%TO.C,D21*%
X186362500Y-169287500D03*
X186362500Y-165887500D03*
%TD*%
D12*
%TO.C,K56*%
X320914500Y-161735500D03*
D13*
X323394500Y-164275500D03*
X333554500Y-164275500D03*
D14*
X328474500Y-164275500D03*
D15*
X324664500Y-161735500D03*
X331014500Y-159195500D03*
D12*
X334764500Y-159195500D03*
%TD*%
D11*
%TO.C,D39*%
X243362500Y-226287500D03*
X243362500Y-222887500D03*
%TD*%
%TO.C,D45*%
X262362500Y-245287500D03*
X262362500Y-241887500D03*
%TD*%
D12*
%TO.C,K17*%
X168514500Y-180785500D03*
D13*
X170994500Y-183325500D03*
X181154500Y-183325500D03*
D14*
X176074500Y-183325500D03*
D15*
X172264500Y-180785500D03*
X178614500Y-178245500D03*
D12*
X182364500Y-178245500D03*
%TD*%
D11*
%TO.C,D6*%
X128862500Y-169287500D03*
X128862500Y-165887500D03*
%TD*%
D12*
%TO.C,K43*%
X263764500Y-199835500D03*
D13*
X266244500Y-202375500D03*
X276404500Y-202375500D03*
D14*
X271324500Y-202375500D03*
D15*
X267514500Y-199835500D03*
X273864500Y-197295500D03*
D12*
X277614500Y-197295500D03*
%TD*%
D11*
%TO.C,D36*%
X243362500Y-169287500D03*
X243362500Y-165887500D03*
%TD*%
D12*
%TO.C,K39*%
X244714500Y-218885500D03*
D13*
X247194500Y-221425500D03*
X257354500Y-221425500D03*
D14*
X252274500Y-221425500D03*
D15*
X248464500Y-218885500D03*
X254814500Y-216345500D03*
D12*
X258564500Y-216345500D03*
%TD*%
D11*
%TO.C,D33*%
X224362500Y-207287500D03*
X224362500Y-203887500D03*
%TD*%
D12*
%TO.C,K18*%
X168514500Y-199835500D03*
D13*
X170994500Y-202375500D03*
X181154500Y-202375500D03*
D14*
X176074500Y-202375500D03*
D15*
X172264500Y-199835500D03*
X178614500Y-197295500D03*
D12*
X182364500Y-197295500D03*
%TD*%
D11*
%TO.C,D53*%
X300362500Y-207287500D03*
X300362500Y-203887500D03*
%TD*%
D12*
%TO.C,K3*%
X111364500Y-199835500D03*
D13*
X113844500Y-202375500D03*
X124004500Y-202375500D03*
D14*
X118924500Y-202375500D03*
D15*
X115114500Y-199835500D03*
X121464500Y-197295500D03*
D12*
X125214500Y-197295500D03*
%TD*%
%TO.C,K48*%
X282814500Y-199835500D03*
D13*
X285294500Y-202375500D03*
X295454500Y-202375500D03*
D14*
X290374500Y-202375500D03*
D15*
X286564500Y-199835500D03*
X292914500Y-197295500D03*
D12*
X296664500Y-197295500D03*
%TD*%
%TO.C,K6*%
X130414500Y-161735500D03*
D13*
X132894500Y-164275500D03*
X143054500Y-164275500D03*
D14*
X137974500Y-164275500D03*
D15*
X134164500Y-161735500D03*
X140514500Y-159195500D03*
D12*
X144264500Y-159195500D03*
%TD*%
D11*
%TO.C,D22*%
X186362500Y-188287500D03*
X186362500Y-184887500D03*
%TD*%
%TO.C,D49*%
X281362500Y-226287500D03*
X281362500Y-222887500D03*
%TD*%
D12*
%TO.C,K7*%
X130414500Y-180785500D03*
D13*
X132894500Y-183325500D03*
X143054500Y-183325500D03*
D14*
X137974500Y-183325500D03*
D15*
X134164500Y-180785500D03*
X140514500Y-178245500D03*
D12*
X144264500Y-178245500D03*
%TD*%
%TO.C,K53*%
X301864500Y-199835500D03*
D13*
X304344500Y-202375500D03*
X314504500Y-202375500D03*
D14*
X309424500Y-202375500D03*
D15*
X305614500Y-199835500D03*
X311964500Y-197295500D03*
D12*
X315714500Y-197295500D03*
%TD*%
D11*
%TO.C,D40*%
X243362500Y-245287500D03*
X243362500Y-241887500D03*
%TD*%
%TO.C,D19*%
X166862500Y-226287500D03*
X166862500Y-222887500D03*
%TD*%
D12*
%TO.C,K16*%
X168514500Y-161735500D03*
D13*
X170994500Y-164275500D03*
X181154500Y-164275500D03*
D14*
X176074500Y-164275500D03*
D15*
X172264500Y-161735500D03*
X178614500Y-159195500D03*
D12*
X182364500Y-159195500D03*
%TD*%
D11*
%TO.C,D3*%
X109862500Y-207287500D03*
X109862500Y-203887500D03*
%TD*%
D12*
%TO.C,K54*%
X301864500Y-218885500D03*
D13*
X304344500Y-221425500D03*
X314504500Y-221425500D03*
D14*
X309424500Y-221425500D03*
D15*
X305614500Y-218885500D03*
X311964500Y-216345500D03*
D12*
X315714500Y-216345500D03*
%TD*%
%TO.C,K36*%
X244714500Y-161735500D03*
D13*
X247194500Y-164275500D03*
X257354500Y-164275500D03*
D14*
X252274500Y-164275500D03*
D15*
X248464500Y-161735500D03*
X254814500Y-159195500D03*
D12*
X258564500Y-159195500D03*
%TD*%
%TO.C,K27*%
X206614500Y-180785500D03*
D13*
X209094500Y-183325500D03*
X219254500Y-183325500D03*
D14*
X214174500Y-183325500D03*
D15*
X210364500Y-180785500D03*
X216714500Y-178245500D03*
D12*
X220464500Y-178245500D03*
%TD*%
%TO.C,K26*%
X206614500Y-161735500D03*
D13*
X209094500Y-164275500D03*
X219254500Y-164275500D03*
D14*
X214174500Y-164275500D03*
D15*
X210364500Y-161735500D03*
X216714500Y-159195500D03*
D12*
X220464500Y-159195500D03*
%TD*%
D11*
%TO.C,D5*%
X109862500Y-245287500D03*
X109862500Y-241887500D03*
%TD*%
D12*
%TO.C,K37*%
X244714500Y-180785500D03*
D13*
X247194500Y-183325500D03*
X257354500Y-183325500D03*
D14*
X252274500Y-183325500D03*
D15*
X248464500Y-180785500D03*
X254814500Y-178245500D03*
D12*
X258564500Y-178245500D03*
%TD*%
%TO.C,K44*%
X263764500Y-218885500D03*
D13*
X266244500Y-221425500D03*
X276404500Y-221425500D03*
D14*
X271324500Y-221425500D03*
D15*
X267514500Y-218885500D03*
X273864500Y-216345500D03*
D12*
X277614500Y-216345500D03*
%TD*%
D11*
%TO.C,D35*%
X224362500Y-245287500D03*
X224362500Y-241887500D03*
%TD*%
%TO.C,D27*%
X205362500Y-188287500D03*
X205362500Y-184887500D03*
%TD*%
%TO.C,D44*%
X262362500Y-226287500D03*
X262362500Y-222887500D03*
%TD*%
%TO.C,D47*%
X281362500Y-188287500D03*
X281362500Y-184887500D03*
%TD*%
%TO.C,D2*%
X109862500Y-188287500D03*
X109862500Y-184887500D03*
%TD*%
%TO.C,D26*%
X205362500Y-169287500D03*
X205362500Y-165887500D03*
%TD*%
%TO.C,D30*%
X205362500Y-245287500D03*
X205362500Y-241887500D03*
%TD*%
%TO.C,D31*%
X224362500Y-169287500D03*
X224362500Y-165887500D03*
%TD*%
%TO.C,D51*%
X300362500Y-169287500D03*
X300362500Y-165887500D03*
%TD*%
D12*
%TO.C,K59*%
X320914500Y-218885500D03*
D13*
X323394500Y-221425500D03*
X333554500Y-221425500D03*
D14*
X328474500Y-221425500D03*
D15*
X324664500Y-218885500D03*
X331014500Y-216345500D03*
D12*
X334764500Y-216345500D03*
%TD*%
D11*
%TO.C,D8*%
X128862500Y-207287500D03*
X128862500Y-203887500D03*
%TD*%
D12*
%TO.C,K11*%
X149464500Y-161735500D03*
D13*
X151944500Y-164275500D03*
X162104500Y-164275500D03*
D14*
X157024500Y-164275500D03*
D15*
X153214500Y-161735500D03*
X159564500Y-159195500D03*
D12*
X163314500Y-159195500D03*
%TD*%
%TO.C,K13*%
X149464500Y-199835500D03*
D13*
X151944500Y-202375500D03*
X162104500Y-202375500D03*
D14*
X157024500Y-202375500D03*
D15*
X153214500Y-199835500D03*
X159564500Y-197295500D03*
D12*
X163314500Y-197295500D03*
%TD*%
%TO.C,K38*%
X244714500Y-199835500D03*
D13*
X247194500Y-202375500D03*
X257354500Y-202375500D03*
D14*
X252274500Y-202375500D03*
D15*
X248464500Y-199835500D03*
X254814500Y-197295500D03*
D12*
X258564500Y-197295500D03*
%TD*%
%TO.C,K49*%
X282814500Y-218885500D03*
D13*
X285294500Y-221425500D03*
X295454500Y-221425500D03*
D14*
X290374500Y-221425500D03*
D15*
X286564500Y-218885500D03*
X292914500Y-216345500D03*
D12*
X296664500Y-216345500D03*
%TD*%
%TO.C,K50*%
X282814500Y-237935500D03*
D13*
X285294500Y-240475500D03*
X295454500Y-240475500D03*
D14*
X290374500Y-240475500D03*
D15*
X286564500Y-237935500D03*
X292914500Y-235395500D03*
D12*
X296664500Y-235395500D03*
%TD*%
D11*
%TO.C,D13*%
X147862500Y-207287500D03*
X147862500Y-203887500D03*
%TD*%
%TO.C,D56*%
X319362500Y-169287500D03*
X319362500Y-165887500D03*
%TD*%
D12*
%TO.C,K40*%
X244714500Y-237935500D03*
D13*
X247194500Y-240475500D03*
X257354500Y-240475500D03*
D14*
X252274500Y-240475500D03*
D15*
X248464500Y-237935500D03*
X254814500Y-235395500D03*
D12*
X258564500Y-235395500D03*
%TD*%
D11*
%TO.C,D23*%
X186362500Y-207287500D03*
X186362500Y-203887500D03*
%TD*%
%TO.C,D52*%
X300362500Y-188287500D03*
X300362500Y-184887500D03*
%TD*%
D16*
%TO.C,U1*%
X81142500Y-159512500D03*
X81142500Y-162052500D03*
X81142500Y-164592500D03*
X81142500Y-167132500D03*
X81142500Y-169672500D03*
X81142500Y-172212500D03*
X81142500Y-174752500D03*
X81142500Y-177292500D03*
X81142500Y-179832500D03*
X81142500Y-182372500D03*
X81142500Y-184912500D03*
X81142500Y-187452500D03*
X81142500Y-189992500D03*
X81142500Y-192532500D03*
X81142500Y-195072500D03*
X81142500Y-197612500D03*
X81142500Y-200152500D03*
X81142500Y-202692500D03*
X81142500Y-205232500D03*
X81142500Y-207772500D03*
X104002500Y-169672500D03*
X104002500Y-172212500D03*
X104002500Y-174752500D03*
X104002500Y-177292500D03*
X104002500Y-179832500D03*
X104002500Y-182372500D03*
X104002500Y-184912500D03*
X104002500Y-187452500D03*
X104002500Y-189992500D03*
X104002500Y-192532500D03*
X104002500Y-195072500D03*
X104002500Y-197612500D03*
X104002500Y-200152500D03*
X104002500Y-202692500D03*
X104002500Y-205232500D03*
X104002500Y-207772500D03*
%TD*%
D12*
%TO.C,K29*%
X206614500Y-218885500D03*
D13*
X209094500Y-221425500D03*
X219254500Y-221425500D03*
D14*
X214174500Y-221425500D03*
D15*
X210364500Y-218885500D03*
X216714500Y-216345500D03*
D12*
X220464500Y-216345500D03*
%TD*%
D11*
%TO.C,D38*%
X243362500Y-207287500D03*
X243362500Y-203887500D03*
%TD*%
%TO.C,D43*%
X262362500Y-207287500D03*
X262362500Y-203887500D03*
%TD*%
D12*
%TO.C,K21*%
X187564500Y-161735500D03*
D13*
X190044500Y-164275500D03*
X200204500Y-164275500D03*
D14*
X195124500Y-164275500D03*
D15*
X191314500Y-161735500D03*
X197664500Y-159195500D03*
D12*
X201414500Y-159195500D03*
%TD*%
%TO.C,K5*%
X111364500Y-237935500D03*
D13*
X113844500Y-240475500D03*
X124004500Y-240475500D03*
D14*
X118924500Y-240475500D03*
D15*
X115114500Y-237935500D03*
X121464500Y-235395500D03*
D12*
X125214500Y-235395500D03*
%TD*%
D11*
%TO.C,D29*%
X205362500Y-226287500D03*
X205362500Y-222887500D03*
%TD*%
%TO.C,D41*%
X262362500Y-169287500D03*
X262362500Y-165887500D03*
%TD*%
%TO.C,D32*%
X224362500Y-188287500D03*
X224362500Y-184887500D03*
%TD*%
%TO.C,D48*%
X281362500Y-207287500D03*
X281362500Y-203887500D03*
%TD*%
D12*
%TO.C,K4*%
X111364500Y-218885500D03*
D13*
X113844500Y-221425500D03*
X124004500Y-221425500D03*
D14*
X118924500Y-221425500D03*
D15*
X115114500Y-218885500D03*
X121464500Y-216345500D03*
D12*
X125214500Y-216345500D03*
%TD*%
%TO.C,K8*%
X130414500Y-199835500D03*
D13*
X132894500Y-202375500D03*
X143054500Y-202375500D03*
D14*
X137974500Y-202375500D03*
D15*
X134164500Y-199835500D03*
X140514500Y-197295500D03*
D12*
X144264500Y-197295500D03*
%TD*%
%TO.C,K35*%
X225664500Y-237935500D03*
D13*
X228144500Y-240475500D03*
X238304500Y-240475500D03*
D14*
X233224500Y-240475500D03*
D15*
X229414500Y-237935500D03*
X235764500Y-235395500D03*
D12*
X239514500Y-235395500D03*
%TD*%
%TO.C,K52*%
X301864500Y-180785500D03*
D13*
X304344500Y-183325500D03*
X314504500Y-183325500D03*
D14*
X309424500Y-183325500D03*
D15*
X305614500Y-180785500D03*
X311964500Y-178245500D03*
D12*
X315714500Y-178245500D03*
%TD*%
%TO.C,K60*%
X320914500Y-237935500D03*
D13*
X323394500Y-240475500D03*
X333554500Y-240475500D03*
D14*
X328474500Y-240475500D03*
D15*
X324664500Y-237935500D03*
X331014500Y-235395500D03*
D12*
X334764500Y-235395500D03*
%TD*%
D11*
%TO.C,D17*%
X166862500Y-188287500D03*
X166862500Y-184887500D03*
%TD*%
%TO.C,D34*%
X224362500Y-226287500D03*
X224362500Y-222887500D03*
%TD*%
%TO.C,D12*%
X147862500Y-188287500D03*
X147862500Y-184887500D03*
%TD*%
%TO.C,D16*%
X166862500Y-169287500D03*
X166862500Y-165887500D03*
%TD*%
%TO.C,D46*%
X281362500Y-169287500D03*
X281362500Y-165887500D03*
%TD*%
D12*
%TO.C,K55*%
X301864500Y-237935500D03*
D13*
X304344500Y-240475500D03*
X314504500Y-240475500D03*
D14*
X309424500Y-240475500D03*
D15*
X305614500Y-237935500D03*
X311964500Y-235395500D03*
D12*
X315714500Y-235395500D03*
%TD*%
D11*
%TO.C,D37*%
X243362500Y-188287500D03*
X243362500Y-184887500D03*
%TD*%
D10*
%TO.C,mouse-bite-2mm-slot*%
X224000000Y-153000000D03*
X224000000Y-154500000D03*
X224750000Y-153000000D03*
X223250000Y-153000000D03*
X223250000Y-154500000D03*
X224750000Y-154500000D03*
%TD*%
%TO.C,mouse-bite-2mm-slot*%
X300000000Y-153000000D03*
X300000000Y-154500000D03*
X300750000Y-153000000D03*
X299250000Y-153000000D03*
X299250000Y-154500000D03*
X300750000Y-154500000D03*
%TD*%
D11*
%TO.C,D24*%
X186362500Y-226287500D03*
X186362500Y-222887500D03*
%TD*%
%TO.C,D14*%
X147862500Y-226287500D03*
X147862500Y-222887500D03*
%TD*%
D12*
%TO.C,K12*%
X149464500Y-180785500D03*
D13*
X151944500Y-183325500D03*
X162104500Y-183325500D03*
D14*
X157024500Y-183325500D03*
D15*
X153214500Y-180785500D03*
X159564500Y-178245500D03*
D12*
X163314500Y-178245500D03*
%TD*%
%TO.C,K1*%
X111364500Y-161735500D03*
D13*
X113844500Y-164275500D03*
X124004500Y-164275500D03*
D14*
X118924500Y-164275500D03*
D15*
X115114500Y-161735500D03*
X121464500Y-159195500D03*
D12*
X125214500Y-159195500D03*
%TD*%
D11*
%TO.C,D42*%
X262362500Y-188287500D03*
X262362500Y-184887500D03*
%TD*%
D12*
%TO.C,K14*%
X149464500Y-218885500D03*
D13*
X151944500Y-221425500D03*
X162104500Y-221425500D03*
D14*
X157024500Y-221425500D03*
D15*
X153214500Y-218885500D03*
X159564500Y-216345500D03*
D12*
X163314500Y-216345500D03*
%TD*%
D11*
%TO.C,D55*%
X300362500Y-245287500D03*
X300362500Y-241887500D03*
%TD*%
%TO.C,D18*%
X166862500Y-207287500D03*
X166862500Y-203887500D03*
%TD*%
D12*
%TO.C,K47*%
X282814500Y-180785500D03*
D13*
X285294500Y-183325500D03*
X295454500Y-183325500D03*
D14*
X290374500Y-183325500D03*
D15*
X286564500Y-180785500D03*
X292914500Y-178245500D03*
D12*
X296664500Y-178245500D03*
%TD*%
%TO.C,K46*%
X282814500Y-161735500D03*
D13*
X285294500Y-164275500D03*
X295454500Y-164275500D03*
D14*
X290374500Y-164275500D03*
D15*
X286564500Y-161735500D03*
X292914500Y-159195500D03*
D12*
X296664500Y-159195500D03*
%TD*%
%TO.C,K9*%
X130414500Y-218885500D03*
D13*
X132894500Y-221425500D03*
X143054500Y-221425500D03*
D14*
X137974500Y-221425500D03*
D15*
X134164500Y-218885500D03*
X140514500Y-216345500D03*
D12*
X144264500Y-216345500D03*
%TD*%
%TO.C,K15*%
X149464500Y-237935500D03*
D13*
X151944500Y-240475500D03*
X162104500Y-240475500D03*
D14*
X157024500Y-240475500D03*
D15*
X153214500Y-237935500D03*
X159564500Y-235395500D03*
D12*
X163314500Y-235395500D03*
%TD*%
%TO.C,K2*%
X111364500Y-180785500D03*
D13*
X113844500Y-183325500D03*
X124004500Y-183325500D03*
D14*
X118924500Y-183325500D03*
D15*
X115114500Y-180785500D03*
X121464500Y-178245500D03*
D12*
X125214500Y-178245500D03*
%TD*%
D11*
%TO.C,D7*%
X128862500Y-188287500D03*
X128862500Y-184887500D03*
%TD*%
M02*
