M48
INCH,TZ
T1C0.0670
T2C0.1181
T3C0.1570
%
G90
G05
T1
X44875Y-65625
X44875Y-73125
X44875Y-80625
X44875Y-88125
X44875Y-95625
X48875Y-65625
X48875Y-73125
X48875Y-80625
X48875Y-88125
X48875Y-95625
X52375Y-65625
X52375Y-73125
X52375Y-80625
X52375Y-88125
X52375Y-95625
X56375Y-65625
X56375Y-73125
X56375Y-80625
X56375Y-88125
X56375Y-95625
X59875Y-65625
X59875Y-73125
X59875Y-80625
X59875Y-88125
X59875Y-95625
X63875Y-65625
X63875Y-73125
X63875Y-80625
X63875Y-88125
X63875Y-95625
X67375Y-65625
X67375Y-73125
X67375Y-80625
X67375Y-88125
X67375Y-95625
X71375Y-65625
X71375Y-73125
X71375Y-80625
X71375Y-88125
X71375Y-95625
X74875Y-65625
X74875Y-73125
X74875Y-80625
X74875Y-88125
X74875Y-95625
X78875Y-65625
X78875Y-73125
X78875Y-80625
X78875Y-88125
X78875Y-95625
X82375Y-65625
X82375Y-73125
X82375Y-80625
X82375Y-88125
X82375Y-95625
X86375Y-65625
X86375Y-73125
X86375Y-80625
X86375Y-88125
X86375Y-95625
X89875Y-65625
X89875Y-73125
X89875Y-80625
X89875Y-88125
X89875Y-95625
X93875Y-65625
X93875Y-73125
X93875Y-80625
X93875Y-88125
X93875Y-95625
X97375Y-65625
X97375Y-73125
X97375Y-80625
X97375Y-88125
X97375Y-95625
X101375Y-65625
X101375Y-73125
X101375Y-80625
X101375Y-88125
X101375Y-95625
X104875Y-65625
X104875Y-73125
X104875Y-80625
X104875Y-88125
X104875Y-95625
X108875Y-65625
X108875Y-73125
X108875Y-80625
X108875Y-88125
X108875Y-95625
X112375Y-65625
X112375Y-73125
X112375Y-80625
X112375Y-88125
X112375Y-95625
X116375Y-65625
X116375Y-73125
X116375Y-80625
X116375Y-88125
X116375Y-95625
X119875Y-65625
X119875Y-73125
X119875Y-80625
X119875Y-88125
X119875Y-95625
X123875Y-65625
X123875Y-73125
X123875Y-80625
X123875Y-88125
X123875Y-95625
X127375Y-65625
X127375Y-73125
X127375Y-80625
X127375Y-88125
X127375Y-95625
X131375Y-65625
X131375Y-73125
X131375Y-80625
X131375Y-88125
X131375Y-95625
T2
X45375Y-64625
X45375Y-72125
X45375Y-79625
X45375Y-87125
X45375Y-94625
X47875Y-63625
X47875Y-71125
X47875Y-78625
X47875Y-86125
X47875Y-93625
X52875Y-64625
X52875Y-72125
X52875Y-79625
X52875Y-87125
X52875Y-94625
X55375Y-63625
X55375Y-71125
X55375Y-78625
X55375Y-86125
X55375Y-93625
X60375Y-64625
X60375Y-72125
X60375Y-79625
X60375Y-87125
X60375Y-94625
X62875Y-63625
X62875Y-71125
X62875Y-78625
X62875Y-86125
X62875Y-93625
X67875Y-64625
X67875Y-72125
X67875Y-79625
X67875Y-87125
X67875Y-94625
X70375Y-63625
X70375Y-71125
X70375Y-78625
X70375Y-86125
X70375Y-93625
X75375Y-64625
X75375Y-72125
X75375Y-79625
X75375Y-87125
X75375Y-94625
X77875Y-63625
X77875Y-71125
X77875Y-78625
X77875Y-86125
X77875Y-93625
X82875Y-64625
X82875Y-72125
X82875Y-79625
X82875Y-87125
X82875Y-94625
X85375Y-63625
X85375Y-71125
X85375Y-78625
X85375Y-86125
X85375Y-93625
X90375Y-64625
X90375Y-72125
X90375Y-79625
X90375Y-87125
X90375Y-94625
X92875Y-63625
X92875Y-71125
X92875Y-78625
X92875Y-86125
X92875Y-93625
X97875Y-64625
X97875Y-72125
X97875Y-79625
X97875Y-87125
X97875Y-94625
X100375Y-63625
X100375Y-71125
X100375Y-78625
X100375Y-86125
X100375Y-93625
X105375Y-64625
X105375Y-72125
X105375Y-79625
X105375Y-87125
X105375Y-94625
X107875Y-63625
X107875Y-71125
X107875Y-78625
X107875Y-86125
X107875Y-93625
X112875Y-64625
X112875Y-72125
X112875Y-79625
X112875Y-87125
X112875Y-94625
X115375Y-63625
X115375Y-71125
X115375Y-78625
X115375Y-86125
X115375Y-93625
X120375Y-64625
X120375Y-72125
X120375Y-79625
X120375Y-87125
X120375Y-94625
X122875Y-63625
X122875Y-71125
X122875Y-78625
X122875Y-86125
X122875Y-93625
X127875Y-64625
X127875Y-72125
X127875Y-79625
X127875Y-87125
X127875Y-94625
X130375Y-63625
X130375Y-71125
X130375Y-78625
X130375Y-86125
X130375Y-93625
T3
X46875Y-65625
X46875Y-73125
X46875Y-80625
X46875Y-88125
X46875Y-95625
X54375Y-65625
X54375Y-73125
X54375Y-80625
X54375Y-88125
X54375Y-95625
X61875Y-65625
X61875Y-73125
X61875Y-80625
X61875Y-88125
X61875Y-95625
X69375Y-65625
X69375Y-73125
X69375Y-80625
X69375Y-88125
X69375Y-95625
X76875Y-65625
X76875Y-73125
X76875Y-80625
X76875Y-88125
X76875Y-95625
X84375Y-65625
X84375Y-73125
X84375Y-80625
X84375Y-88125
X84375Y-95625
X91875Y-65625
X91875Y-73125
X91875Y-80625
X91875Y-88125
X91875Y-95625
X99375Y-65625
X99375Y-73125
X99375Y-80625
X99375Y-88125
X99375Y-95625
X106875Y-65625
X106875Y-73125
X106875Y-80625
X106875Y-88125
X106875Y-95625
X114375Y-65625
X114375Y-73125
X114375Y-80625
X114375Y-88125
X114375Y-95625
X121875Y-65625
X121875Y-73125
X121875Y-80625
X121875Y-88125
X121875Y-95625
X129375Y-65625
X129375Y-73125
X129375Y-80625
X129375Y-88125
X129375Y-95625
T0
M30
