M48
INCH,TZ
T1C0.0197
T2C0.0670
T3C0.1181
T4C0.1570
%
G90
G05
T1
X57579Y-60236
X57579Y-60827
X57579Y-98524
X57579Y-99114
X57874Y-60236
X57874Y-60827
X57874Y-98524
X57874Y-99114
X58169Y-60236
X58169Y-60827
X58169Y-98524
X58169Y-99114
X87894Y-60236
X87894Y-60827
X87894Y-98524
X87894Y-99114
X88189Y-60236
X88189Y-60827
X88189Y-98524
X88189Y-99114
X88484Y-60236
X88484Y-60827
X88484Y-98524
X88484Y-99114
X117815Y-60236
X117815Y-60827
X117815Y-98524
X117815Y-99114
X118110Y-60236
X118110Y-60827
X118110Y-98524
X118110Y-99114
X118406Y-60236
X118406Y-60827
X118406Y-98524
X118406Y-99114
T2
X44821Y-64675
X44821Y-72175
X44821Y-79675
X44821Y-87175
X44821Y-94675
X48821Y-64675
X48821Y-72175
X48821Y-79675
X48821Y-87175
X48821Y-94675
X52321Y-64675
X52321Y-72175
X52321Y-79675
X52321Y-87175
X52321Y-94675
X56321Y-64675
X56321Y-72175
X56321Y-79675
X56321Y-87175
X56321Y-94675
X59821Y-64675
X59821Y-72175
X59821Y-79675
X59821Y-87175
X59821Y-94675
X63821Y-64675
X63821Y-72175
X63821Y-79675
X63821Y-87175
X63821Y-94675
X67321Y-64675
X67321Y-72175
X67321Y-79675
X67321Y-87175
X67321Y-94675
X71321Y-64675
X71321Y-72175
X71321Y-79675
X71321Y-87175
X71321Y-94675
X74821Y-64675
X74821Y-72175
X74821Y-79675
X74821Y-87175
X74821Y-94675
X78821Y-64675
X78821Y-72175
X78821Y-79675
X78821Y-87175
X78821Y-94675
X82321Y-64675
X82321Y-72175
X82321Y-79675
X82321Y-87175
X82321Y-94675
X86321Y-64675
X86321Y-72175
X86321Y-79675
X86321Y-87175
X86321Y-94675
X89821Y-64675
X89821Y-72175
X89821Y-79675
X89821Y-87175
X89821Y-94675
X93821Y-64675
X93821Y-72175
X93821Y-79675
X93821Y-87175
X93821Y-94675
X97321Y-64675
X97321Y-72175
X97321Y-79675
X97321Y-87175
X97321Y-94675
X101321Y-64675
X101321Y-72175
X101321Y-79675
X101321Y-87175
X101321Y-94675
X104821Y-64675
X104821Y-72175
X104821Y-79675
X104821Y-87175
X104821Y-94675
X108821Y-64675
X108821Y-72175
X108821Y-79675
X108821Y-87175
X108821Y-94675
X112321Y-64675
X112321Y-72175
X112321Y-79675
X112321Y-87175
X112321Y-94675
X116321Y-64675
X116321Y-72175
X116321Y-79675
X116321Y-87175
X116321Y-94675
X119821Y-64675
X119821Y-72175
X119821Y-79675
X119821Y-87175
X119821Y-94675
X123821Y-64675
X123821Y-72175
X123821Y-79675
X123821Y-87175
X123821Y-94675
X127321Y-64675
X127321Y-72175
X127321Y-79675
X127321Y-87175
X127321Y-94675
X131321Y-64675
X131321Y-72175
X131321Y-79675
X131321Y-87175
X131321Y-94675
T3
X45321Y-63675
X45321Y-71175
X45321Y-78675
X45321Y-86175
X45321Y-93675
X47821Y-62675
X47821Y-70175
X47821Y-77675
X47821Y-85175
X47821Y-92675
X52821Y-63675
X52821Y-71175
X52821Y-78675
X52821Y-86175
X52821Y-93675
X55321Y-62675
X55321Y-70175
X55321Y-77675
X55321Y-85175
X55321Y-92675
X60321Y-63675
X60321Y-71175
X60321Y-78675
X60321Y-86175
X60321Y-93675
X62821Y-62675
X62821Y-70175
X62821Y-77675
X62821Y-85175
X62821Y-92675
X67821Y-63675
X67821Y-71175
X67821Y-78675
X67821Y-86175
X67821Y-93675
X70321Y-62675
X70321Y-70175
X70321Y-77675
X70321Y-85175
X70321Y-92675
X75321Y-63675
X75321Y-71175
X75321Y-78675
X75321Y-86175
X75321Y-93675
X77821Y-62675
X77821Y-70175
X77821Y-77675
X77821Y-85175
X77821Y-92675
X82821Y-63675
X82821Y-71175
X82821Y-78675
X82821Y-86175
X82821Y-93675
X85321Y-62675
X85321Y-70175
X85321Y-77675
X85321Y-85175
X85321Y-92675
X90321Y-63675
X90321Y-71175
X90321Y-78675
X90321Y-86175
X90321Y-93675
X92821Y-62675
X92821Y-70175
X92821Y-77675
X92821Y-85175
X92821Y-92675
X97821Y-63675
X97821Y-71175
X97821Y-78675
X97821Y-86175
X97821Y-93675
X100321Y-62675
X100321Y-70175
X100321Y-77675
X100321Y-85175
X100321Y-92675
X105321Y-63675
X105321Y-71175
X105321Y-78675
X105321Y-86175
X105321Y-93675
X107821Y-62675
X107821Y-70175
X107821Y-77675
X107821Y-85175
X107821Y-92675
X112821Y-63675
X112821Y-71175
X112821Y-78675
X112821Y-86175
X112821Y-93675
X115321Y-62675
X115321Y-70175
X115321Y-77675
X115321Y-85175
X115321Y-92675
X120321Y-63675
X120321Y-71175
X120321Y-78675
X120321Y-86175
X120321Y-93675
X122821Y-62675
X122821Y-70175
X122821Y-77675
X122821Y-85175
X122821Y-92675
X127821Y-63675
X127821Y-71175
X127821Y-78675
X127821Y-86175
X127821Y-93675
X130321Y-62675
X130321Y-70175
X130321Y-77675
X130321Y-85175
X130321Y-92675
T4
X46821Y-64675
X46821Y-72175
X46821Y-79675
X46821Y-87175
X46821Y-94675
X54321Y-64675
X54321Y-72175
X54321Y-79675
X54321Y-87175
X54321Y-94675
X61821Y-64675
X61821Y-72175
X61821Y-79675
X61821Y-87175
X61821Y-94675
X69321Y-64675
X69321Y-72175
X69321Y-79675
X69321Y-87175
X69321Y-94675
X76821Y-64675
X76821Y-72175
X76821Y-79675
X76821Y-87175
X76821Y-94675
X84321Y-64675
X84321Y-72175
X84321Y-79675
X84321Y-87175
X84321Y-94675
X91821Y-64675
X91821Y-72175
X91821Y-79675
X91821Y-87175
X91821Y-94675
X99321Y-64675
X99321Y-72175
X99321Y-79675
X99321Y-87175
X99321Y-94675
X106821Y-64675
X106821Y-72175
X106821Y-79675
X106821Y-87175
X106821Y-94675
X114321Y-64675
X114321Y-72175
X114321Y-79675
X114321Y-87175
X114321Y-94675
X121821Y-64675
X121821Y-72175
X121821Y-79675
X121821Y-87175
X121821Y-94675
X129321Y-64675
X129321Y-72175
X129321Y-79675
X129321Y-87175
X129321Y-94675
T0
M30
