%TF.GenerationSoftware,KiCad,Pcbnew,5.1.10*%
%TF.CreationDate,2021-06-15T15:09:17-05:00*%
%TF.ProjectId,olkbd_ble,6f6c6b62-645f-4626-9c65-2e6b69636164,rev?*%
%TF.SameCoordinates,Original*%
%TF.FileFunction,Profile,NP*%
%FSLAX46Y46*%
G04 Gerber Fmt 4.6, Leading zero omitted, Abs format (unit mm)*
G04 Created by KiCad (PCBNEW 5.1.10) date 2021-06-15 15:09:17*
%MOMM*%
%LPD*%
G01*
G04 APERTURE LIST*
%TA.AperFunction,Profile*%
%ADD10C,0.050000*%
%TD*%
G04 APERTURE END LIST*
D10*
X259410200Y-152247600D02*
X259410200Y-138252200D01*
X316560200Y-133197600D02*
X316560200Y-119202200D01*
X126060200Y-133197600D02*
X126060200Y-119202200D01*
X240360200Y-119202200D02*
X226364800Y-119202200D01*
X297510200Y-100152200D02*
X283514800Y-100152200D01*
X183210200Y-100152200D02*
X169214800Y-100152200D01*
X321614800Y-114147600D02*
X335610200Y-114147600D01*
X188264800Y-95097600D02*
X202260200Y-95097600D01*
X221310200Y-76047600D02*
X221310200Y-62052200D01*
X316560200Y-81102200D02*
X302564800Y-81102200D01*
X207314800Y-95097600D02*
X221310200Y-95097600D01*
X188264800Y-138252200D02*
X188264800Y-152247600D01*
X221310200Y-138252200D02*
X207314800Y-138252200D01*
X335610200Y-62052200D02*
X321614800Y-62052200D01*
X126060200Y-100152200D02*
X112064800Y-100152200D01*
X283514800Y-133197600D02*
X297510200Y-133197600D01*
X302564800Y-119202200D02*
X302564800Y-133197600D01*
X188264800Y-81102200D02*
X188264800Y-95097600D01*
X221310200Y-114147600D02*
X221310200Y-100152200D01*
X335610200Y-76047600D02*
X335610200Y-62052200D01*
X112064800Y-76047600D02*
X126060200Y-76047600D01*
X78581250Y-154781250D02*
X78581250Y-123825000D01*
X202260200Y-114147600D02*
X202260200Y-100152200D01*
X335610200Y-100152200D02*
X321614800Y-100152200D01*
X321614800Y-119202200D02*
X321614800Y-133197600D01*
X316560200Y-119202200D02*
X302564800Y-119202200D01*
X226364800Y-114147600D02*
X240360200Y-114147600D01*
X188264800Y-133197600D02*
X202260200Y-133197600D01*
X202260200Y-119202200D02*
X188264800Y-119202200D01*
X240360200Y-76047600D02*
X240360200Y-62052200D01*
X264464800Y-133197600D02*
X278460200Y-133197600D01*
X283514800Y-95097600D02*
X297510200Y-95097600D01*
X245414800Y-76047600D02*
X259410200Y-76047600D01*
X297510200Y-81102200D02*
X283514800Y-81102200D01*
X278460200Y-81102200D02*
X264464800Y-81102200D01*
X164160200Y-81102200D02*
X150164800Y-81102200D01*
X164160200Y-114147600D02*
X164160200Y-100152200D01*
X145110200Y-119202200D02*
X131114800Y-119202200D01*
X126060200Y-119202200D02*
X112064800Y-119202200D01*
X145110200Y-76047600D02*
X145110200Y-62052200D01*
X297510200Y-114147600D02*
X297510200Y-100152200D01*
X150164800Y-100152200D02*
X150164800Y-114147600D01*
X259410200Y-95097600D02*
X259410200Y-81102200D01*
X207314800Y-114147600D02*
X221310200Y-114147600D01*
X221310200Y-62052200D02*
X207314800Y-62052200D01*
X321614800Y-133197600D02*
X335610200Y-133197600D01*
X207314800Y-133197600D02*
X221310200Y-133197600D01*
X112064800Y-114147600D02*
X126060200Y-114147600D01*
X131114800Y-76047600D02*
X145110200Y-76047600D01*
X316560200Y-95097600D02*
X316560200Y-81102200D01*
X335610200Y-114147600D02*
X335610200Y-100152200D01*
X126060200Y-76047600D02*
X126060200Y-62052200D01*
X131114800Y-62052200D02*
X131114800Y-76047600D01*
X302564800Y-133197600D02*
X316560200Y-133197600D01*
X259410200Y-119202200D02*
X245414800Y-119202200D01*
X207314800Y-100152200D02*
X207314800Y-114147600D01*
X321614800Y-62052200D02*
X321614800Y-76047600D01*
X226364800Y-81102200D02*
X226364800Y-95097600D01*
X150164800Y-95097600D02*
X164160200Y-95097600D01*
X164160200Y-95097600D02*
X164160200Y-81102200D01*
X302564800Y-62052200D02*
X302564800Y-76047600D01*
X335610200Y-138252200D02*
X321614800Y-138252200D01*
X335610200Y-152247600D02*
X335610200Y-138252200D01*
X145110200Y-100152200D02*
X131114800Y-100152200D01*
X259410200Y-76047600D02*
X259410200Y-62052200D01*
X131114800Y-138252200D02*
X131114800Y-152247600D01*
X145110200Y-138252200D02*
X131114800Y-138252200D01*
X202260200Y-133197600D02*
X202260200Y-119202200D01*
X335610200Y-119202200D02*
X321614800Y-119202200D01*
X150164800Y-133197600D02*
X164160200Y-133197600D01*
X131114800Y-119202200D02*
X131114800Y-133197600D01*
X240360200Y-95097600D02*
X240360200Y-81102200D01*
X183210200Y-81102200D02*
X169214800Y-81102200D01*
X126060200Y-152247600D02*
X126060200Y-138252200D01*
X278460200Y-76047600D02*
X278460200Y-62052200D01*
X316560200Y-152247600D02*
X316560200Y-138252200D01*
X283514800Y-152247600D02*
X297510200Y-152247600D01*
X283514800Y-81102200D02*
X283514800Y-95097600D01*
X321614800Y-100152200D02*
X321614800Y-114147600D01*
X109537500Y-123825000D02*
X107156250Y-123825000D01*
X169214800Y-95097600D02*
X183210200Y-95097600D01*
X259410200Y-81102200D02*
X245414800Y-81102200D01*
X264464800Y-138252200D02*
X264464800Y-152247600D01*
X297510200Y-138252200D02*
X283514800Y-138252200D01*
X183210200Y-76047600D02*
X183210200Y-62052200D01*
X202260200Y-62052200D02*
X188264800Y-62052200D01*
X131114800Y-152247600D02*
X145110200Y-152247600D01*
X169214800Y-152247600D02*
X183210200Y-152247600D01*
X259410200Y-62052200D02*
X245414800Y-62052200D01*
X112064800Y-62052200D02*
X112064800Y-76047600D01*
X264464800Y-76047600D02*
X278460200Y-76047600D01*
X169214800Y-133197600D02*
X183210200Y-133197600D01*
X221310200Y-119202200D02*
X207314800Y-119202200D01*
X283514800Y-76047600D02*
X297510200Y-76047600D01*
X240360200Y-114147600D02*
X240360200Y-100152200D01*
X278460200Y-100152200D02*
X264464800Y-100152200D01*
X150164800Y-76047600D02*
X164160200Y-76047600D01*
X316560200Y-114147600D02*
X316560200Y-100152200D01*
X126060200Y-81102200D02*
X112064800Y-81102200D01*
X188264800Y-100152200D02*
X188264800Y-114147600D01*
X335610200Y-95097600D02*
X335610200Y-81102200D01*
X226364800Y-100152200D02*
X226364800Y-114147600D01*
X221310200Y-95097600D02*
X221310200Y-81102200D01*
X202260200Y-138252200D02*
X188264800Y-138252200D01*
X188264800Y-152247600D02*
X202260200Y-152247600D01*
X302564800Y-76047600D02*
X316560200Y-76047600D01*
X240360200Y-100152200D02*
X226364800Y-100152200D01*
X183210200Y-95097600D02*
X183210200Y-81102200D01*
X226364800Y-62052200D02*
X226364800Y-76047600D01*
X278460200Y-133197600D02*
X278460200Y-119202200D01*
X131114800Y-133197600D02*
X145110200Y-133197600D01*
X226364800Y-133197600D02*
X240360200Y-133197600D01*
X183210200Y-133197600D02*
X183210200Y-119202200D01*
X240360200Y-81102200D02*
X226364800Y-81102200D01*
X245414800Y-95097600D02*
X259410200Y-95097600D01*
X145110200Y-95097600D02*
X145110200Y-81102200D01*
X202260200Y-81102200D02*
X188264800Y-81102200D01*
X259410200Y-100152200D02*
X245414800Y-100152200D01*
X183210200Y-152247600D02*
X183210200Y-138252200D01*
X207314800Y-152247600D02*
X221310200Y-152247600D01*
X226364800Y-76047600D02*
X240360200Y-76047600D01*
X278460200Y-95097600D02*
X278460200Y-81102200D01*
X145110200Y-62052200D02*
X131114800Y-62052200D01*
X221310200Y-100152200D02*
X207314800Y-100152200D01*
X150164800Y-81102200D02*
X150164800Y-95097600D01*
X226364800Y-119202200D02*
X226364800Y-133197600D01*
X112064800Y-119202200D02*
X112064800Y-133197600D01*
X297510200Y-152247600D02*
X297510200Y-138252200D01*
X302564800Y-152247600D02*
X316560200Y-152247600D01*
X283514800Y-62052200D02*
X283514800Y-76047600D01*
X264464800Y-81102200D02*
X264464800Y-95097600D01*
X169214800Y-114147600D02*
X183210200Y-114147600D01*
X164160200Y-62052200D02*
X150164800Y-62052200D01*
X297510200Y-119202200D02*
X283514800Y-119202200D01*
X183210200Y-119202200D02*
X169214800Y-119202200D01*
X302564800Y-81102200D02*
X302564800Y-95097600D01*
X278460200Y-152247600D02*
X278460200Y-138252200D01*
X321614800Y-138252200D02*
X321614800Y-152247600D01*
X264464800Y-119202200D02*
X264464800Y-133197600D01*
X283514800Y-119202200D02*
X283514800Y-133197600D01*
X188264800Y-119202200D02*
X188264800Y-133197600D01*
X245414800Y-133197600D02*
X259410200Y-133197600D01*
X150164800Y-62052200D02*
X150164800Y-76047600D01*
X126060200Y-62052200D02*
X112064800Y-62052200D01*
X259410200Y-133197600D02*
X259410200Y-119202200D01*
X207314800Y-119202200D02*
X207314800Y-133197600D01*
X283514800Y-100152200D02*
X283514800Y-114147600D01*
X150164800Y-114147600D02*
X164160200Y-114147600D01*
X278460200Y-62052200D02*
X264464800Y-62052200D01*
X131114800Y-100152200D02*
X131114800Y-114147600D01*
X126060200Y-114147600D02*
X126060200Y-100152200D01*
X245414800Y-81102200D02*
X245414800Y-95097600D01*
X126060200Y-95097600D02*
X126060200Y-81102200D01*
X145110200Y-114147600D02*
X145110200Y-100152200D01*
X207314800Y-76047600D02*
X221310200Y-76047600D01*
X240360200Y-138252200D02*
X226364800Y-138252200D01*
X226364800Y-152247600D02*
X240360200Y-152247600D01*
X109537500Y-59531250D02*
X338137500Y-59531250D01*
X207314800Y-62052200D02*
X207314800Y-76047600D01*
X316560200Y-138252200D02*
X302564800Y-138252200D01*
X259410200Y-138252200D02*
X245414800Y-138252200D01*
X259410200Y-114147600D02*
X259410200Y-100152200D01*
X183210200Y-114147600D02*
X183210200Y-100152200D01*
X278460200Y-114147600D02*
X278460200Y-100152200D01*
X131114800Y-114147600D02*
X145110200Y-114147600D01*
X316560200Y-62052200D02*
X302564800Y-62052200D01*
X302564800Y-95097600D02*
X316560200Y-95097600D01*
X112064800Y-152247600D02*
X126060200Y-152247600D01*
X145110200Y-152247600D02*
X145110200Y-138252200D01*
X297510200Y-133197600D02*
X297510200Y-119202200D01*
X150164800Y-119202200D02*
X150164800Y-133197600D01*
X207314800Y-138252200D02*
X207314800Y-152247600D01*
X202260200Y-152247600D02*
X202260200Y-138252200D01*
X164160200Y-76047600D02*
X164160200Y-62052200D01*
X245414800Y-119202200D02*
X245414800Y-133197600D01*
X164160200Y-119202200D02*
X150164800Y-119202200D01*
X221310200Y-152247600D02*
X221310200Y-138252200D01*
X245414800Y-152247600D02*
X259410200Y-152247600D01*
X207314800Y-81102200D02*
X207314800Y-95097600D01*
X131114800Y-95097600D02*
X145110200Y-95097600D01*
X240360200Y-62052200D02*
X226364800Y-62052200D01*
X188264800Y-62052200D02*
X188264800Y-76047600D01*
X316560200Y-76047600D02*
X316560200Y-62052200D01*
X302564800Y-114147600D02*
X316560200Y-114147600D01*
X264464800Y-95097600D02*
X278460200Y-95097600D01*
X188264800Y-114147600D02*
X202260200Y-114147600D01*
X112064800Y-100152200D02*
X112064800Y-114147600D01*
X245414800Y-100152200D02*
X245414800Y-114147600D01*
X240360200Y-133197600D02*
X240360200Y-119202200D01*
X278460200Y-119202200D02*
X264464800Y-119202200D01*
X338137500Y-59531250D02*
X338137500Y-154781250D01*
X321614800Y-152247600D02*
X335610200Y-152247600D01*
X226364800Y-138252200D02*
X226364800Y-152247600D01*
X169214800Y-138252200D02*
X169214800Y-152247600D01*
X164160200Y-152247600D02*
X164160200Y-138252200D01*
X335610200Y-81102200D02*
X321614800Y-81102200D01*
X264464800Y-100152200D02*
X264464800Y-114147600D01*
X297510200Y-95097600D02*
X297510200Y-81102200D01*
X283514800Y-114147600D02*
X297510200Y-114147600D01*
X302564800Y-100152200D02*
X302564800Y-114147600D01*
X202260200Y-76047600D02*
X202260200Y-62052200D01*
X302564800Y-138252200D02*
X302564800Y-152247600D01*
X264464800Y-152247600D02*
X278460200Y-152247600D01*
X112064800Y-95097600D02*
X126060200Y-95097600D01*
X78581250Y-123825000D02*
X107156250Y-123825000D01*
X183210200Y-62052200D02*
X169214800Y-62052200D01*
X202260200Y-100152200D02*
X188264800Y-100152200D01*
X112064800Y-133197600D02*
X126060200Y-133197600D01*
X164160200Y-133197600D02*
X164160200Y-119202200D01*
X264464800Y-114147600D02*
X278460200Y-114147600D01*
X150164800Y-138252200D02*
X150164800Y-152247600D01*
X183210200Y-138252200D02*
X169214800Y-138252200D01*
X169214800Y-119202200D02*
X169214800Y-133197600D01*
X145110200Y-133197600D02*
X145110200Y-119202200D01*
X169214800Y-76047600D02*
X183210200Y-76047600D01*
X278460200Y-138252200D02*
X264464800Y-138252200D01*
X283514800Y-138252200D02*
X283514800Y-152247600D01*
X109537500Y-123825000D02*
X109537500Y-59531250D01*
X145110200Y-81102200D02*
X131114800Y-81102200D01*
X226364800Y-95097600D02*
X240360200Y-95097600D01*
X202260200Y-95097600D02*
X202260200Y-81102200D01*
X164160200Y-138252200D02*
X150164800Y-138252200D01*
X150164800Y-152247600D02*
X164160200Y-152247600D01*
X297510200Y-76047600D02*
X297510200Y-62052200D01*
X245414800Y-138252200D02*
X245414800Y-152247600D01*
X240360200Y-152247600D02*
X240360200Y-138252200D01*
X338137500Y-154781250D02*
X78581250Y-154781250D01*
X169214800Y-100152200D02*
X169214800Y-114147600D01*
X126060200Y-138252200D02*
X112064800Y-138252200D01*
X112064800Y-138252200D02*
X112064800Y-152247600D01*
X335610200Y-133197600D02*
X335610200Y-119202200D01*
X221310200Y-133197600D02*
X221310200Y-119202200D01*
X131114800Y-81102200D02*
X131114800Y-95097600D01*
X169214800Y-81102200D02*
X169214800Y-95097600D01*
X316560200Y-100152200D02*
X302564800Y-100152200D01*
X321614800Y-81102200D02*
X321614800Y-95097600D01*
X321614800Y-95097600D02*
X335610200Y-95097600D01*
X245414800Y-62052200D02*
X245414800Y-76047600D01*
X169214800Y-62052200D02*
X169214800Y-76047600D01*
X297510200Y-62052200D02*
X283514800Y-62052200D01*
X264464800Y-62052200D02*
X264464800Y-76047600D01*
X321614800Y-76047600D02*
X335610200Y-76047600D01*
X221310200Y-81102200D02*
X207314800Y-81102200D01*
X245414800Y-114147600D02*
X259410200Y-114147600D01*
X164160200Y-100152200D02*
X150164800Y-100152200D01*
X188264800Y-76047600D02*
X202260200Y-76047600D01*
X112064800Y-81102200D02*
X112064800Y-95097600D01*
X338137500Y-350043750D02*
X78581250Y-350043750D01*
X78581250Y-254793750D02*
X338137500Y-254793750D01*
X78581250Y-350043750D02*
X78581250Y-254793750D01*
X338137500Y-254793750D02*
X338137500Y-350043750D01*
X78581250Y-157162500D02*
X338137500Y-157162500D01*
X78581250Y-252412500D02*
X78581250Y-157162500D01*
X338137500Y-252412500D02*
X78581250Y-252412500D01*
X338137500Y-157162500D02*
X338137500Y-252412500D01*
X97790000Y-161290000D02*
X106680000Y-161290000D01*
X97790000Y-168910000D02*
X97790000Y-161290000D01*
X106680000Y-168910000D02*
X97790000Y-168910000D01*
X106680000Y-161290000D02*
X106680000Y-168910000D01*
M02*
