M48
INCH,TZ
T1C0.0197
T2C0.0670
T3C0.1181
T4C0.1570
%
G90
G05
T1
X57633Y-60098
X57633Y-60689
X57633Y-98386
X57633Y-98976
X57928Y-60098
X57928Y-60689
X57928Y-98386
X57928Y-98976
X58224Y-60098
X58224Y-60689
X58224Y-98386
X58224Y-98976
X87948Y-60098
X87948Y-60689
X87948Y-98386
X87948Y-98976
X88243Y-60098
X88243Y-60689
X88243Y-98386
X88243Y-98976
X88539Y-60098
X88539Y-60689
X88539Y-98386
X88539Y-98976
X117869Y-60098
X117869Y-60689
X117869Y-98386
X117869Y-98976
X118165Y-60098
X118165Y-60689
X118165Y-98386
X118165Y-98976
X118460Y-60098
X118460Y-60689
X118460Y-98386
X118460Y-98976
T2
X44875Y-64538
X44875Y-72038
X44875Y-79538
X44875Y-87038
X44875Y-94538
X48875Y-64538
X48875Y-72038
X48875Y-79538
X48875Y-87038
X48875Y-94538
X52375Y-64538
X52375Y-72038
X52375Y-79538
X52375Y-87038
X52375Y-94538
X56375Y-64538
X56375Y-72038
X56375Y-79538
X56375Y-87038
X56375Y-94538
X59875Y-64538
X59875Y-72038
X59875Y-79538
X59875Y-87038
X59875Y-94538
X63875Y-64538
X63875Y-72038
X63875Y-79538
X63875Y-87038
X63875Y-94538
X67375Y-64538
X67375Y-72038
X67375Y-79538
X67375Y-87038
X67375Y-94538
X71375Y-64538
X71375Y-72038
X71375Y-79538
X71375Y-87038
X71375Y-94538
X74875Y-64538
X74875Y-72038
X74875Y-79538
X74875Y-87038
X74875Y-94538
X78875Y-64538
X78875Y-72038
X78875Y-79538
X78875Y-87038
X78875Y-94538
X82375Y-64538
X82375Y-72038
X82375Y-79538
X82375Y-87038
X82375Y-94538
X86375Y-64538
X86375Y-72038
X86375Y-79538
X86375Y-87038
X86375Y-94538
X89875Y-64538
X89875Y-72038
X89875Y-79538
X89875Y-87038
X89875Y-94538
X93875Y-64538
X93875Y-72038
X93875Y-79538
X93875Y-87038
X93875Y-94538
X97375Y-64538
X97375Y-72038
X97375Y-79538
X97375Y-87038
X97375Y-94538
X101375Y-64538
X101375Y-72038
X101375Y-79538
X101375Y-87038
X101375Y-94538
X104875Y-64538
X104875Y-72038
X104875Y-79538
X104875Y-87038
X104875Y-94538
X108875Y-64538
X108875Y-72038
X108875Y-79538
X108875Y-87038
X108875Y-94538
X112375Y-64538
X112375Y-72038
X112375Y-79538
X112375Y-87038
X112375Y-94538
X116375Y-64538
X116375Y-72038
X116375Y-79538
X116375Y-87038
X116375Y-94538
X119875Y-64538
X119875Y-72038
X119875Y-79538
X119875Y-87038
X119875Y-94538
X123875Y-64538
X123875Y-72038
X123875Y-79538
X123875Y-87038
X123875Y-94538
X127375Y-64538
X127375Y-72038
X127375Y-79538
X127375Y-87038
X127375Y-94538
X131375Y-64538
X131375Y-72038
X131375Y-79538
X131375Y-87038
X131375Y-94538
T3
X45375Y-63538
X45375Y-71038
X45375Y-78538
X45375Y-86038
X45375Y-93538
X47875Y-62538
X47875Y-70038
X47875Y-77538
X47875Y-85038
X47875Y-92538
X52875Y-63538
X52875Y-71038
X52875Y-78538
X52875Y-86038
X52875Y-93538
X55375Y-62538
X55375Y-70038
X55375Y-77538
X55375Y-85038
X55375Y-92538
X60375Y-63538
X60375Y-71038
X60375Y-78538
X60375Y-86038
X60375Y-93538
X62875Y-62538
X62875Y-70038
X62875Y-77538
X62875Y-85038
X62875Y-92538
X67875Y-63538
X67875Y-71038
X67875Y-78538
X67875Y-86038
X67875Y-93538
X70375Y-62538
X70375Y-70038
X70375Y-77538
X70375Y-85038
X70375Y-92538
X75375Y-63538
X75375Y-71038
X75375Y-78538
X75375Y-86038
X75375Y-93538
X77875Y-62538
X77875Y-70038
X77875Y-77538
X77875Y-85038
X77875Y-92538
X82875Y-63538
X82875Y-71038
X82875Y-78538
X82875Y-86038
X82875Y-93538
X85375Y-62538
X85375Y-70038
X85375Y-77538
X85375Y-85038
X85375Y-92538
X90375Y-63538
X90375Y-71038
X90375Y-78538
X90375Y-86038
X90375Y-93538
X92875Y-62538
X92875Y-70038
X92875Y-77538
X92875Y-85038
X92875Y-92538
X97875Y-63538
X97875Y-71038
X97875Y-78538
X97875Y-86038
X97875Y-93538
X100375Y-62538
X100375Y-70038
X100375Y-77538
X100375Y-85038
X100375Y-92538
X105375Y-63538
X105375Y-71038
X105375Y-78538
X105375Y-86038
X105375Y-93538
X107875Y-62538
X107875Y-70038
X107875Y-77538
X107875Y-85038
X107875Y-92538
X112875Y-63538
X112875Y-71038
X112875Y-78538
X112875Y-86038
X112875Y-93538
X115375Y-62538
X115375Y-70038
X115375Y-77538
X115375Y-85038
X115375Y-92538
X120375Y-63538
X120375Y-71038
X120375Y-78538
X120375Y-86038
X120375Y-93538
X122875Y-62538
X122875Y-70038
X122875Y-77538
X122875Y-85038
X122875Y-92538
X127875Y-63538
X127875Y-71038
X127875Y-78538
X127875Y-86038
X127875Y-93538
X130375Y-62538
X130375Y-70038
X130375Y-77538
X130375Y-85038
X130375Y-92538
T4
X46875Y-64538
X46875Y-72038
X46875Y-79538
X46875Y-87038
X46875Y-94538
X54375Y-64538
X54375Y-72038
X54375Y-79538
X54375Y-87038
X54375Y-94538
X61875Y-64538
X61875Y-72038
X61875Y-79538
X61875Y-87038
X61875Y-94538
X69375Y-64538
X69375Y-72038
X69375Y-79538
X69375Y-87038
X69375Y-94538
X76875Y-64538
X76875Y-72038
X76875Y-79538
X76875Y-87038
X76875Y-94538
X84375Y-64538
X84375Y-72038
X84375Y-79538
X84375Y-87038
X84375Y-94538
X91875Y-64538
X91875Y-72038
X91875Y-79538
X91875Y-87038
X91875Y-94538
X99375Y-64538
X99375Y-72038
X99375Y-79538
X99375Y-87038
X99375Y-94538
X106875Y-64538
X106875Y-72038
X106875Y-79538
X106875Y-87038
X106875Y-94538
X114375Y-64538
X114375Y-72038
X114375Y-79538
X114375Y-87038
X114375Y-94538
X121875Y-64538
X121875Y-72038
X121875Y-79538
X121875Y-87038
X121875Y-94538
X129375Y-64538
X129375Y-72038
X129375Y-79538
X129375Y-87038
X129375Y-94538
T0
M30
