%TF.GenerationSoftware,KiCad,Pcbnew,5.1.10*%
%TF.CreationDate,2021-06-15T19:04:48-05:00*%
%TF.ProjectId,olkbd_ble,6f6c6b62-645f-4626-9c65-2e6b69636164,rev?*%
%TF.SameCoordinates,Original*%
%TF.FileFunction,Soldermask,Top*%
%TF.FilePolarity,Negative*%
%FSLAX46Y46*%
G04 Gerber Fmt 4.6, Leading zero omitted, Abs format (unit mm)*
G04 Created by KiCad (PCBNEW 5.1.10) date 2021-06-15 19:04:48*
%MOMM*%
%LPD*%
G01*
G04 APERTURE LIST*
%ADD10C,0.500000*%
%ADD11C,1.701800*%
%ADD12C,3.987800*%
%ADD13C,3.000000*%
%ADD14O,2.268000X1.524000*%
G04 APERTURE END LIST*
D10*
%TO.C,mouse-bite-2mm-slot*%
X300750000Y-251750000D03*
X299250000Y-251750000D03*
X299250000Y-250250000D03*
X300750000Y-250250000D03*
X300000000Y-251750000D03*
X300000000Y-250250000D03*
%TD*%
%TO.C,mouse-bite-2mm-slot*%
X224750000Y-251750000D03*
X223250000Y-251750000D03*
X223250000Y-250250000D03*
X224750000Y-250250000D03*
X224000000Y-251750000D03*
X224000000Y-250250000D03*
%TD*%
%TO.C,mouse-bite-2mm-slot*%
X147750000Y-251750000D03*
X146250000Y-251750000D03*
X146250000Y-250250000D03*
X147750000Y-250250000D03*
X147000000Y-251750000D03*
X147000000Y-250250000D03*
%TD*%
%TO.C,mouse-bite-2mm-slot*%
X147000000Y-153000000D03*
X147000000Y-154500000D03*
X147750000Y-153000000D03*
X146250000Y-153000000D03*
X146250000Y-154500000D03*
X147750000Y-154500000D03*
%TD*%
D11*
%TO.C,K32*%
X228144500Y-183325500D03*
X238304500Y-183325500D03*
D12*
X233224500Y-183325500D03*
D13*
X229414500Y-180785500D03*
X235764500Y-178245500D03*
%TD*%
D11*
%TO.C,K33*%
X228144500Y-202375500D03*
X238304500Y-202375500D03*
D12*
X233224500Y-202375500D03*
D13*
X229414500Y-199835500D03*
X235764500Y-197295500D03*
%TD*%
D11*
%TO.C,K42*%
X266244500Y-183325500D03*
X276404500Y-183325500D03*
D12*
X271324500Y-183325500D03*
D13*
X267514500Y-180785500D03*
X273864500Y-178245500D03*
%TD*%
D11*
%TO.C,K31*%
X228144500Y-164275500D03*
X238304500Y-164275500D03*
D12*
X233224500Y-164275500D03*
D13*
X229414500Y-161735500D03*
X235764500Y-159195500D03*
%TD*%
D11*
%TO.C,K24*%
X190044500Y-221425500D03*
X200204500Y-221425500D03*
D12*
X195124500Y-221425500D03*
D13*
X191314500Y-218885500D03*
X197664500Y-216345500D03*
%TD*%
D11*
%TO.C,K41*%
X266244500Y-164275500D03*
X276404500Y-164275500D03*
D12*
X271324500Y-164275500D03*
D13*
X267514500Y-161735500D03*
X273864500Y-159195500D03*
%TD*%
D11*
%TO.C,K34*%
X228144500Y-221425500D03*
X238304500Y-221425500D03*
D12*
X233224500Y-221425500D03*
D13*
X229414500Y-218885500D03*
X235764500Y-216345500D03*
%TD*%
D11*
%TO.C,K23*%
X190044500Y-202375500D03*
X200204500Y-202375500D03*
D12*
X195124500Y-202375500D03*
D13*
X191314500Y-199835500D03*
X197664500Y-197295500D03*
%TD*%
D11*
%TO.C,K19*%
X170994500Y-221425500D03*
X181154500Y-221425500D03*
D12*
X176074500Y-221425500D03*
D13*
X172264500Y-218885500D03*
X178614500Y-216345500D03*
%TD*%
D11*
%TO.C,K22*%
X190044500Y-183325500D03*
X200204500Y-183325500D03*
D12*
X195124500Y-183325500D03*
D13*
X191314500Y-180785500D03*
X197664500Y-178245500D03*
%TD*%
D11*
%TO.C,K45*%
X266244500Y-240475500D03*
X276404500Y-240475500D03*
D12*
X271324500Y-240475500D03*
D13*
X267514500Y-237935500D03*
X273864500Y-235395500D03*
%TD*%
D11*
%TO.C,K20*%
X170994500Y-240475500D03*
X181154500Y-240475500D03*
D12*
X176074500Y-240475500D03*
D13*
X172264500Y-237935500D03*
X178614500Y-235395500D03*
%TD*%
D11*
%TO.C,K30*%
X209094500Y-240475500D03*
X219254500Y-240475500D03*
D12*
X214174500Y-240475500D03*
D13*
X210364500Y-237935500D03*
X216714500Y-235395500D03*
%TD*%
D11*
%TO.C,K28*%
X209094500Y-202375500D03*
X219254500Y-202375500D03*
D12*
X214174500Y-202375500D03*
D13*
X210364500Y-199835500D03*
X216714500Y-197295500D03*
%TD*%
D11*
%TO.C,K25*%
X190044500Y-240475500D03*
X200204500Y-240475500D03*
D12*
X195124500Y-240475500D03*
D13*
X191314500Y-237935500D03*
X197664500Y-235395500D03*
%TD*%
D11*
%TO.C,K51*%
X304344500Y-164275500D03*
X314504500Y-164275500D03*
D12*
X309424500Y-164275500D03*
D13*
X305614500Y-161735500D03*
X311964500Y-159195500D03*
%TD*%
D11*
%TO.C,K10*%
X132894500Y-240475500D03*
X143054500Y-240475500D03*
D12*
X137974500Y-240475500D03*
D13*
X134164500Y-237935500D03*
X140514500Y-235395500D03*
%TD*%
D11*
%TO.C,K57*%
X323394500Y-183325500D03*
X333554500Y-183325500D03*
D12*
X328474500Y-183325500D03*
D13*
X324664500Y-180785500D03*
X331014500Y-178245500D03*
%TD*%
D11*
%TO.C,K58*%
X323394500Y-202375500D03*
X333554500Y-202375500D03*
D12*
X328474500Y-202375500D03*
D13*
X324664500Y-199835500D03*
X331014500Y-197295500D03*
%TD*%
D11*
%TO.C,K56*%
X323394500Y-164275500D03*
X333554500Y-164275500D03*
D12*
X328474500Y-164275500D03*
D13*
X324664500Y-161735500D03*
X331014500Y-159195500D03*
%TD*%
D11*
%TO.C,K17*%
X170994500Y-183325500D03*
X181154500Y-183325500D03*
D12*
X176074500Y-183325500D03*
D13*
X172264500Y-180785500D03*
X178614500Y-178245500D03*
%TD*%
D11*
%TO.C,K43*%
X266244500Y-202375500D03*
X276404500Y-202375500D03*
D12*
X271324500Y-202375500D03*
D13*
X267514500Y-199835500D03*
X273864500Y-197295500D03*
%TD*%
D11*
%TO.C,K39*%
X247194500Y-221425500D03*
X257354500Y-221425500D03*
D12*
X252274500Y-221425500D03*
D13*
X248464500Y-218885500D03*
X254814500Y-216345500D03*
%TD*%
D11*
%TO.C,K18*%
X170994500Y-202375500D03*
X181154500Y-202375500D03*
D12*
X176074500Y-202375500D03*
D13*
X172264500Y-199835500D03*
X178614500Y-197295500D03*
%TD*%
D11*
%TO.C,K3*%
X113844500Y-202375500D03*
X124004500Y-202375500D03*
D12*
X118924500Y-202375500D03*
D13*
X115114500Y-199835500D03*
X121464500Y-197295500D03*
%TD*%
D11*
%TO.C,K48*%
X285294500Y-202375500D03*
X295454500Y-202375500D03*
D12*
X290374500Y-202375500D03*
D13*
X286564500Y-199835500D03*
X292914500Y-197295500D03*
%TD*%
D11*
%TO.C,K6*%
X132894500Y-164275500D03*
X143054500Y-164275500D03*
D12*
X137974500Y-164275500D03*
D13*
X134164500Y-161735500D03*
X140514500Y-159195500D03*
%TD*%
D11*
%TO.C,K7*%
X132894500Y-183325500D03*
X143054500Y-183325500D03*
D12*
X137974500Y-183325500D03*
D13*
X134164500Y-180785500D03*
X140514500Y-178245500D03*
%TD*%
D11*
%TO.C,K53*%
X304344500Y-202375500D03*
X314504500Y-202375500D03*
D12*
X309424500Y-202375500D03*
D13*
X305614500Y-199835500D03*
X311964500Y-197295500D03*
%TD*%
D11*
%TO.C,K16*%
X170994500Y-164275500D03*
X181154500Y-164275500D03*
D12*
X176074500Y-164275500D03*
D13*
X172264500Y-161735500D03*
X178614500Y-159195500D03*
%TD*%
D11*
%TO.C,K54*%
X304344500Y-221425500D03*
X314504500Y-221425500D03*
D12*
X309424500Y-221425500D03*
D13*
X305614500Y-218885500D03*
X311964500Y-216345500D03*
%TD*%
D11*
%TO.C,K36*%
X247194500Y-164275500D03*
X257354500Y-164275500D03*
D12*
X252274500Y-164275500D03*
D13*
X248464500Y-161735500D03*
X254814500Y-159195500D03*
%TD*%
D11*
%TO.C,K27*%
X209094500Y-183325500D03*
X219254500Y-183325500D03*
D12*
X214174500Y-183325500D03*
D13*
X210364500Y-180785500D03*
X216714500Y-178245500D03*
%TD*%
D11*
%TO.C,K26*%
X209094500Y-164275500D03*
X219254500Y-164275500D03*
D12*
X214174500Y-164275500D03*
D13*
X210364500Y-161735500D03*
X216714500Y-159195500D03*
%TD*%
D11*
%TO.C,K37*%
X247194500Y-183325500D03*
X257354500Y-183325500D03*
D12*
X252274500Y-183325500D03*
D13*
X248464500Y-180785500D03*
X254814500Y-178245500D03*
%TD*%
D11*
%TO.C,K44*%
X266244500Y-221425500D03*
X276404500Y-221425500D03*
D12*
X271324500Y-221425500D03*
D13*
X267514500Y-218885500D03*
X273864500Y-216345500D03*
%TD*%
D11*
%TO.C,K59*%
X323394500Y-221425500D03*
X333554500Y-221425500D03*
D12*
X328474500Y-221425500D03*
D13*
X324664500Y-218885500D03*
X331014500Y-216345500D03*
%TD*%
D11*
%TO.C,K11*%
X151944500Y-164275500D03*
X162104500Y-164275500D03*
D12*
X157024500Y-164275500D03*
D13*
X153214500Y-161735500D03*
X159564500Y-159195500D03*
%TD*%
D11*
%TO.C,K13*%
X151944500Y-202375500D03*
X162104500Y-202375500D03*
D12*
X157024500Y-202375500D03*
D13*
X153214500Y-199835500D03*
X159564500Y-197295500D03*
%TD*%
D11*
%TO.C,K38*%
X247194500Y-202375500D03*
X257354500Y-202375500D03*
D12*
X252274500Y-202375500D03*
D13*
X248464500Y-199835500D03*
X254814500Y-197295500D03*
%TD*%
D11*
%TO.C,K49*%
X285294500Y-221425500D03*
X295454500Y-221425500D03*
D12*
X290374500Y-221425500D03*
D13*
X286564500Y-218885500D03*
X292914500Y-216345500D03*
%TD*%
D11*
%TO.C,K50*%
X285294500Y-240475500D03*
X295454500Y-240475500D03*
D12*
X290374500Y-240475500D03*
D13*
X286564500Y-237935500D03*
X292914500Y-235395500D03*
%TD*%
D11*
%TO.C,K40*%
X247194500Y-240475500D03*
X257354500Y-240475500D03*
D12*
X252274500Y-240475500D03*
D13*
X248464500Y-237935500D03*
X254814500Y-235395500D03*
%TD*%
D14*
%TO.C,U1*%
X81142500Y-159512500D03*
X81142500Y-162052500D03*
X81142500Y-164592500D03*
X81142500Y-167132500D03*
X81142500Y-169672500D03*
X81142500Y-172212500D03*
X81142500Y-174752500D03*
X81142500Y-177292500D03*
X81142500Y-179832500D03*
X81142500Y-182372500D03*
X81142500Y-184912500D03*
X81142500Y-187452500D03*
X81142500Y-189992500D03*
X81142500Y-192532500D03*
X81142500Y-195072500D03*
X81142500Y-197612500D03*
X81142500Y-200152500D03*
X81142500Y-202692500D03*
X81142500Y-205232500D03*
X81142500Y-207772500D03*
X104002500Y-169672500D03*
X104002500Y-172212500D03*
X104002500Y-174752500D03*
X104002500Y-177292500D03*
X104002500Y-179832500D03*
X104002500Y-182372500D03*
X104002500Y-184912500D03*
X104002500Y-187452500D03*
X104002500Y-189992500D03*
X104002500Y-192532500D03*
X104002500Y-195072500D03*
X104002500Y-197612500D03*
X104002500Y-200152500D03*
X104002500Y-202692500D03*
X104002500Y-205232500D03*
X104002500Y-207772500D03*
%TD*%
D11*
%TO.C,K29*%
X209094500Y-221425500D03*
X219254500Y-221425500D03*
D12*
X214174500Y-221425500D03*
D13*
X210364500Y-218885500D03*
X216714500Y-216345500D03*
%TD*%
D11*
%TO.C,K21*%
X190044500Y-164275500D03*
X200204500Y-164275500D03*
D12*
X195124500Y-164275500D03*
D13*
X191314500Y-161735500D03*
X197664500Y-159195500D03*
%TD*%
D11*
%TO.C,K5*%
X113844500Y-240475500D03*
X124004500Y-240475500D03*
D12*
X118924500Y-240475500D03*
D13*
X115114500Y-237935500D03*
X121464500Y-235395500D03*
%TD*%
D11*
%TO.C,K4*%
X113844500Y-221425500D03*
X124004500Y-221425500D03*
D12*
X118924500Y-221425500D03*
D13*
X115114500Y-218885500D03*
X121464500Y-216345500D03*
%TD*%
D11*
%TO.C,K8*%
X132894500Y-202375500D03*
X143054500Y-202375500D03*
D12*
X137974500Y-202375500D03*
D13*
X134164500Y-199835500D03*
X140514500Y-197295500D03*
%TD*%
D11*
%TO.C,K35*%
X228144500Y-240475500D03*
X238304500Y-240475500D03*
D12*
X233224500Y-240475500D03*
D13*
X229414500Y-237935500D03*
X235764500Y-235395500D03*
%TD*%
D11*
%TO.C,K52*%
X304344500Y-183325500D03*
X314504500Y-183325500D03*
D12*
X309424500Y-183325500D03*
D13*
X305614500Y-180785500D03*
X311964500Y-178245500D03*
%TD*%
D11*
%TO.C,K60*%
X323394500Y-240475500D03*
X333554500Y-240475500D03*
D12*
X328474500Y-240475500D03*
D13*
X324664500Y-237935500D03*
X331014500Y-235395500D03*
%TD*%
D11*
%TO.C,K55*%
X304344500Y-240475500D03*
X314504500Y-240475500D03*
D12*
X309424500Y-240475500D03*
D13*
X305614500Y-237935500D03*
X311964500Y-235395500D03*
%TD*%
D10*
%TO.C,mouse-bite-2mm-slot*%
X224000000Y-153000000D03*
X224000000Y-154500000D03*
X224750000Y-153000000D03*
X223250000Y-153000000D03*
X223250000Y-154500000D03*
X224750000Y-154500000D03*
%TD*%
%TO.C,mouse-bite-2mm-slot*%
X300000000Y-153000000D03*
X300000000Y-154500000D03*
X300750000Y-153000000D03*
X299250000Y-153000000D03*
X299250000Y-154500000D03*
X300750000Y-154500000D03*
%TD*%
D11*
%TO.C,K12*%
X151944500Y-183325500D03*
X162104500Y-183325500D03*
D12*
X157024500Y-183325500D03*
D13*
X153214500Y-180785500D03*
X159564500Y-178245500D03*
%TD*%
D11*
%TO.C,K1*%
X113844500Y-164275500D03*
X124004500Y-164275500D03*
D12*
X118924500Y-164275500D03*
D13*
X115114500Y-161735500D03*
X121464500Y-159195500D03*
%TD*%
D11*
%TO.C,K14*%
X151944500Y-221425500D03*
X162104500Y-221425500D03*
D12*
X157024500Y-221425500D03*
D13*
X153214500Y-218885500D03*
X159564500Y-216345500D03*
%TD*%
D11*
%TO.C,K47*%
X285294500Y-183325500D03*
X295454500Y-183325500D03*
D12*
X290374500Y-183325500D03*
D13*
X286564500Y-180785500D03*
X292914500Y-178245500D03*
%TD*%
D11*
%TO.C,K46*%
X285294500Y-164275500D03*
X295454500Y-164275500D03*
D12*
X290374500Y-164275500D03*
D13*
X286564500Y-161735500D03*
X292914500Y-159195500D03*
%TD*%
D11*
%TO.C,K9*%
X132894500Y-221425500D03*
X143054500Y-221425500D03*
D12*
X137974500Y-221425500D03*
D13*
X134164500Y-218885500D03*
X140514500Y-216345500D03*
%TD*%
D11*
%TO.C,K15*%
X151944500Y-240475500D03*
X162104500Y-240475500D03*
D12*
X157024500Y-240475500D03*
D13*
X153214500Y-237935500D03*
X159564500Y-235395500D03*
%TD*%
D11*
%TO.C,K2*%
X113844500Y-183325500D03*
X124004500Y-183325500D03*
D12*
X118924500Y-183325500D03*
D13*
X115114500Y-180785500D03*
X121464500Y-178245500D03*
%TD*%
M02*
