%TF.GenerationSoftware,KiCad,Pcbnew,5.1.10*%
%TF.CreationDate,2021-06-15T15:09:17-05:00*%
%TF.ProjectId,olkbd_ble,6f6c6b62-645f-4626-9c65-2e6b69636164,rev?*%
%TF.SameCoordinates,Original*%
%TF.FileFunction,Legend,Bot*%
%TF.FilePolarity,Positive*%
%FSLAX46Y46*%
G04 Gerber Fmt 4.6, Leading zero omitted, Abs format (unit mm)*
G04 Created by KiCad (PCBNEW 5.1.10) date 2021-06-15 15:09:17*
%MOMM*%
%LPD*%
G01*
G04 APERTURE LIST*
%ADD10C,0.150000*%
%ADD11C,0.200000*%
G04 APERTURE END LIST*
D10*
X82971130Y-131636309D02*
X81971130Y-131636309D01*
X81971130Y-132017261D01*
X82018750Y-132112500D01*
X82066369Y-132160119D01*
X82161607Y-132207738D01*
X82304464Y-132207738D01*
X82399702Y-132160119D01*
X82447321Y-132112500D01*
X82494940Y-132017261D01*
X82494940Y-131636309D01*
X82971130Y-132779166D02*
X82923511Y-132683928D01*
X82875892Y-132636309D01*
X82780654Y-132588690D01*
X82494940Y-132588690D01*
X82399702Y-132636309D01*
X82352083Y-132683928D01*
X82304464Y-132779166D01*
X82304464Y-132922023D01*
X82352083Y-133017261D01*
X82399702Y-133064880D01*
X82494940Y-133112500D01*
X82780654Y-133112500D01*
X82875892Y-133064880D01*
X82923511Y-133017261D01*
X82971130Y-132922023D01*
X82971130Y-132779166D01*
X82304464Y-133445833D02*
X82971130Y-133636309D01*
X82494940Y-133826785D01*
X82971130Y-134017261D01*
X82304464Y-134207738D01*
X82923511Y-134969642D02*
X82971130Y-134874404D01*
X82971130Y-134683928D01*
X82923511Y-134588690D01*
X82828273Y-134541071D01*
X82447321Y-134541071D01*
X82352083Y-134588690D01*
X82304464Y-134683928D01*
X82304464Y-134874404D01*
X82352083Y-134969642D01*
X82447321Y-135017261D01*
X82542559Y-135017261D01*
X82637797Y-134541071D01*
X82971130Y-135445833D02*
X82304464Y-135445833D01*
X82494940Y-135445833D02*
X82399702Y-135493452D01*
X82352083Y-135541071D01*
X82304464Y-135636309D01*
X82304464Y-135731547D01*
X82923511Y-136445833D02*
X82971130Y-136350595D01*
X82971130Y-136160119D01*
X82923511Y-136064880D01*
X82828273Y-136017261D01*
X82447321Y-136017261D01*
X82352083Y-136064880D01*
X82304464Y-136160119D01*
X82304464Y-136350595D01*
X82352083Y-136445833D01*
X82447321Y-136493452D01*
X82542559Y-136493452D01*
X82637797Y-136017261D01*
X82971130Y-137350595D02*
X81971130Y-137350595D01*
X82923511Y-137350595D02*
X82971130Y-137255357D01*
X82971130Y-137064880D01*
X82923511Y-136969642D01*
X82875892Y-136922023D01*
X82780654Y-136874404D01*
X82494940Y-136874404D01*
X82399702Y-136922023D01*
X82352083Y-136969642D01*
X82304464Y-137064880D01*
X82304464Y-137255357D01*
X82352083Y-137350595D01*
X82971130Y-138588690D02*
X81971130Y-138588690D01*
X82352083Y-138588690D02*
X82304464Y-138683928D01*
X82304464Y-138874404D01*
X82352083Y-138969642D01*
X82399702Y-139017261D01*
X82494940Y-139064880D01*
X82780654Y-139064880D01*
X82875892Y-139017261D01*
X82923511Y-138969642D01*
X82971130Y-138874404D01*
X82971130Y-138683928D01*
X82923511Y-138588690D01*
X82304464Y-139398214D02*
X82971130Y-139636309D01*
X82304464Y-139874404D02*
X82971130Y-139636309D01*
X83209226Y-139541071D01*
X83256845Y-139493452D01*
X83304464Y-139398214D01*
X82971130Y-141017261D02*
X81971130Y-141017261D01*
X82685416Y-141350595D01*
X81971130Y-141683928D01*
X82971130Y-141683928D01*
X82971130Y-142160119D02*
X81971130Y-142160119D01*
X82971130Y-142731547D02*
X82399702Y-142302976D01*
X81971130Y-142731547D02*
X82542559Y-142160119D01*
X81971130Y-143064880D02*
X81971130Y-143683928D01*
X82352083Y-143350595D01*
X82352083Y-143493452D01*
X82399702Y-143588690D01*
X82447321Y-143636309D01*
X82542559Y-143683928D01*
X82780654Y-143683928D01*
X82875892Y-143636309D01*
X82923511Y-143588690D01*
X82971130Y-143493452D01*
X82971130Y-143207738D01*
X82923511Y-143112500D01*
X82875892Y-143064880D01*
X82066369Y-144064880D02*
X82018750Y-144112500D01*
X81971130Y-144207738D01*
X81971130Y-144445833D01*
X82018750Y-144541071D01*
X82066369Y-144588690D01*
X82161607Y-144636309D01*
X82256845Y-144636309D01*
X82399702Y-144588690D01*
X82971130Y-144017261D01*
X82971130Y-144636309D01*
X84621130Y-125683928D02*
X83621130Y-125683928D01*
X84621130Y-126112500D02*
X84097321Y-126112500D01*
X84002083Y-126064880D01*
X83954464Y-125969642D01*
X83954464Y-125826785D01*
X84002083Y-125731547D01*
X84049702Y-125683928D01*
X83954464Y-126445833D02*
X83954464Y-126826785D01*
X83621130Y-126588690D02*
X84478273Y-126588690D01*
X84573511Y-126636309D01*
X84621130Y-126731547D01*
X84621130Y-126826785D01*
X83954464Y-127017261D02*
X83954464Y-127398214D01*
X83621130Y-127160119D02*
X84478273Y-127160119D01*
X84573511Y-127207738D01*
X84621130Y-127302976D01*
X84621130Y-127398214D01*
X83954464Y-127731547D02*
X84954464Y-127731547D01*
X84002083Y-127731547D02*
X83954464Y-127826785D01*
X83954464Y-128017261D01*
X84002083Y-128112500D01*
X84049702Y-128160119D01*
X84144940Y-128207738D01*
X84430654Y-128207738D01*
X84525892Y-128160119D01*
X84573511Y-128112500D01*
X84621130Y-128017261D01*
X84621130Y-127826785D01*
X84573511Y-127731547D01*
X84573511Y-128588690D02*
X84621130Y-128683928D01*
X84621130Y-128874404D01*
X84573511Y-128969642D01*
X84478273Y-129017261D01*
X84430654Y-129017261D01*
X84335416Y-128969642D01*
X84287797Y-128874404D01*
X84287797Y-128731547D01*
X84240178Y-128636309D01*
X84144940Y-128588690D01*
X84097321Y-128588690D01*
X84002083Y-128636309D01*
X83954464Y-128731547D01*
X83954464Y-128874404D01*
X84002083Y-128969642D01*
X84525892Y-129445833D02*
X84573511Y-129493452D01*
X84621130Y-129445833D01*
X84573511Y-129398214D01*
X84525892Y-129445833D01*
X84621130Y-129445833D01*
X84002083Y-129445833D02*
X84049702Y-129493452D01*
X84097321Y-129445833D01*
X84049702Y-129398214D01*
X84002083Y-129445833D01*
X84097321Y-129445833D01*
X83573511Y-130636309D02*
X84859226Y-129779166D01*
X83573511Y-131683928D02*
X84859226Y-130826785D01*
X83954464Y-132445833D02*
X84763988Y-132445833D01*
X84859226Y-132398214D01*
X84906845Y-132350595D01*
X84954464Y-132255357D01*
X84954464Y-132112500D01*
X84906845Y-132017261D01*
X84573511Y-132445833D02*
X84621130Y-132350595D01*
X84621130Y-132160119D01*
X84573511Y-132064880D01*
X84525892Y-132017261D01*
X84430654Y-131969642D01*
X84144940Y-131969642D01*
X84049702Y-132017261D01*
X84002083Y-132064880D01*
X83954464Y-132160119D01*
X83954464Y-132350595D01*
X84002083Y-132445833D01*
X84621130Y-132922023D02*
X83954464Y-132922023D01*
X83621130Y-132922023D02*
X83668750Y-132874404D01*
X83716369Y-132922023D01*
X83668750Y-132969642D01*
X83621130Y-132922023D01*
X83716369Y-132922023D01*
X83954464Y-133255357D02*
X83954464Y-133636309D01*
X83621130Y-133398214D02*
X84478273Y-133398214D01*
X84573511Y-133445833D01*
X84621130Y-133541071D01*
X84621130Y-133636309D01*
X84621130Y-133969642D02*
X83621130Y-133969642D01*
X84621130Y-134398214D02*
X84097321Y-134398214D01*
X84002083Y-134350595D01*
X83954464Y-134255357D01*
X83954464Y-134112500D01*
X84002083Y-134017261D01*
X84049702Y-133969642D01*
X83954464Y-135302976D02*
X84621130Y-135302976D01*
X83954464Y-134874404D02*
X84478273Y-134874404D01*
X84573511Y-134922023D01*
X84621130Y-135017261D01*
X84621130Y-135160119D01*
X84573511Y-135255357D01*
X84525892Y-135302976D01*
X84621130Y-135779166D02*
X83621130Y-135779166D01*
X84002083Y-135779166D02*
X83954464Y-135874404D01*
X83954464Y-136064880D01*
X84002083Y-136160119D01*
X84049702Y-136207738D01*
X84144940Y-136255357D01*
X84430654Y-136255357D01*
X84525892Y-136207738D01*
X84573511Y-136160119D01*
X84621130Y-136064880D01*
X84621130Y-135874404D01*
X84573511Y-135779166D01*
X84525892Y-136683928D02*
X84573511Y-136731547D01*
X84621130Y-136683928D01*
X84573511Y-136636309D01*
X84525892Y-136683928D01*
X84621130Y-136683928D01*
X84573511Y-137588690D02*
X84621130Y-137493452D01*
X84621130Y-137302976D01*
X84573511Y-137207738D01*
X84525892Y-137160119D01*
X84430654Y-137112500D01*
X84144940Y-137112500D01*
X84049702Y-137160119D01*
X84002083Y-137207738D01*
X83954464Y-137302976D01*
X83954464Y-137493452D01*
X84002083Y-137588690D01*
X84621130Y-138160119D02*
X84573511Y-138064880D01*
X84525892Y-138017261D01*
X84430654Y-137969642D01*
X84144940Y-137969642D01*
X84049702Y-138017261D01*
X84002083Y-138064880D01*
X83954464Y-138160119D01*
X83954464Y-138302976D01*
X84002083Y-138398214D01*
X84049702Y-138445833D01*
X84144940Y-138493452D01*
X84430654Y-138493452D01*
X84525892Y-138445833D01*
X84573511Y-138398214D01*
X84621130Y-138302976D01*
X84621130Y-138160119D01*
X84621130Y-138922023D02*
X83954464Y-138922023D01*
X84049702Y-138922023D02*
X84002083Y-138969642D01*
X83954464Y-139064880D01*
X83954464Y-139207738D01*
X84002083Y-139302976D01*
X84097321Y-139350595D01*
X84621130Y-139350595D01*
X84097321Y-139350595D02*
X84002083Y-139398214D01*
X83954464Y-139493452D01*
X83954464Y-139636309D01*
X84002083Y-139731547D01*
X84097321Y-139779166D01*
X84621130Y-139779166D01*
X83573511Y-140969642D02*
X84859226Y-140112500D01*
X83668750Y-141826785D02*
X83621130Y-141731547D01*
X83621130Y-141588690D01*
X83668750Y-141445833D01*
X83763988Y-141350595D01*
X83859226Y-141302976D01*
X84049702Y-141255357D01*
X84192559Y-141255357D01*
X84383035Y-141302976D01*
X84478273Y-141350595D01*
X84573511Y-141445833D01*
X84621130Y-141588690D01*
X84621130Y-141683928D01*
X84573511Y-141826785D01*
X84525892Y-141874404D01*
X84192559Y-141874404D01*
X84192559Y-141683928D01*
X84621130Y-142731547D02*
X84097321Y-142731547D01*
X84002083Y-142683928D01*
X83954464Y-142588690D01*
X83954464Y-142398214D01*
X84002083Y-142302976D01*
X84573511Y-142731547D02*
X84621130Y-142636309D01*
X84621130Y-142398214D01*
X84573511Y-142302976D01*
X84478273Y-142255357D01*
X84383035Y-142255357D01*
X84287797Y-142302976D01*
X84240178Y-142398214D01*
X84240178Y-142636309D01*
X84192559Y-142731547D01*
X84621130Y-143350595D02*
X84573511Y-143255357D01*
X84478273Y-143207738D01*
X83621130Y-143207738D01*
X83954464Y-143636309D02*
X83954464Y-144160119D01*
X84621130Y-143636309D01*
X84621130Y-144160119D01*
X84621130Y-144969642D02*
X84097321Y-144969642D01*
X84002083Y-144922023D01*
X83954464Y-144826785D01*
X83954464Y-144636309D01*
X84002083Y-144541071D01*
X84573511Y-144969642D02*
X84621130Y-144874404D01*
X84621130Y-144636309D01*
X84573511Y-144541071D01*
X84478273Y-144493452D01*
X84383035Y-144493452D01*
X84287797Y-144541071D01*
X84240178Y-144636309D01*
X84240178Y-144874404D01*
X84192559Y-144969642D01*
X84621130Y-145445833D02*
X83954464Y-145445833D01*
X83621130Y-145445833D02*
X83668750Y-145398214D01*
X83716369Y-145445833D01*
X83668750Y-145493452D01*
X83621130Y-145445833D01*
X83716369Y-145445833D01*
X83573511Y-146636309D02*
X84859226Y-145779166D01*
X84621130Y-146969642D02*
X83621130Y-146969642D01*
X84335416Y-147302976D01*
X83621130Y-147636309D01*
X84621130Y-147636309D01*
X84621130Y-148112500D02*
X83621130Y-148112500D01*
X84621130Y-148683928D02*
X84049702Y-148255357D01*
X83621130Y-148683928D02*
X84192559Y-148112500D01*
X83621130Y-149017261D02*
X83621130Y-149636309D01*
X84002083Y-149302976D01*
X84002083Y-149445833D01*
X84049702Y-149541071D01*
X84097321Y-149588690D01*
X84192559Y-149636309D01*
X84430654Y-149636309D01*
X84525892Y-149588690D01*
X84573511Y-149541071D01*
X84621130Y-149445833D01*
X84621130Y-149160119D01*
X84573511Y-149064880D01*
X84525892Y-149017261D01*
X83716369Y-150017261D02*
X83668750Y-150064880D01*
X83621130Y-150160119D01*
X83621130Y-150398214D01*
X83668750Y-150493452D01*
X83716369Y-150541071D01*
X83811607Y-150588690D01*
X83906845Y-150588690D01*
X84049702Y-150541071D01*
X84621130Y-149969642D01*
X84621130Y-150588690D01*
X82971130Y-326898809D02*
X81971130Y-326898809D01*
X81971130Y-327279761D01*
X82018750Y-327375000D01*
X82066369Y-327422619D01*
X82161607Y-327470238D01*
X82304464Y-327470238D01*
X82399702Y-327422619D01*
X82447321Y-327375000D01*
X82494940Y-327279761D01*
X82494940Y-326898809D01*
X82971130Y-328041666D02*
X82923511Y-327946428D01*
X82875892Y-327898809D01*
X82780654Y-327851190D01*
X82494940Y-327851190D01*
X82399702Y-327898809D01*
X82352083Y-327946428D01*
X82304464Y-328041666D01*
X82304464Y-328184523D01*
X82352083Y-328279761D01*
X82399702Y-328327380D01*
X82494940Y-328375000D01*
X82780654Y-328375000D01*
X82875892Y-328327380D01*
X82923511Y-328279761D01*
X82971130Y-328184523D01*
X82971130Y-328041666D01*
X82304464Y-328708333D02*
X82971130Y-328898809D01*
X82494940Y-329089285D01*
X82971130Y-329279761D01*
X82304464Y-329470238D01*
X82923511Y-330232142D02*
X82971130Y-330136904D01*
X82971130Y-329946428D01*
X82923511Y-329851190D01*
X82828273Y-329803571D01*
X82447321Y-329803571D01*
X82352083Y-329851190D01*
X82304464Y-329946428D01*
X82304464Y-330136904D01*
X82352083Y-330232142D01*
X82447321Y-330279761D01*
X82542559Y-330279761D01*
X82637797Y-329803571D01*
X82971130Y-330708333D02*
X82304464Y-330708333D01*
X82494940Y-330708333D02*
X82399702Y-330755952D01*
X82352083Y-330803571D01*
X82304464Y-330898809D01*
X82304464Y-330994047D01*
X82923511Y-331708333D02*
X82971130Y-331613095D01*
X82971130Y-331422619D01*
X82923511Y-331327380D01*
X82828273Y-331279761D01*
X82447321Y-331279761D01*
X82352083Y-331327380D01*
X82304464Y-331422619D01*
X82304464Y-331613095D01*
X82352083Y-331708333D01*
X82447321Y-331755952D01*
X82542559Y-331755952D01*
X82637797Y-331279761D01*
X82971130Y-332613095D02*
X81971130Y-332613095D01*
X82923511Y-332613095D02*
X82971130Y-332517857D01*
X82971130Y-332327380D01*
X82923511Y-332232142D01*
X82875892Y-332184523D01*
X82780654Y-332136904D01*
X82494940Y-332136904D01*
X82399702Y-332184523D01*
X82352083Y-332232142D01*
X82304464Y-332327380D01*
X82304464Y-332517857D01*
X82352083Y-332613095D01*
X82971130Y-333851190D02*
X81971130Y-333851190D01*
X82352083Y-333851190D02*
X82304464Y-333946428D01*
X82304464Y-334136904D01*
X82352083Y-334232142D01*
X82399702Y-334279761D01*
X82494940Y-334327380D01*
X82780654Y-334327380D01*
X82875892Y-334279761D01*
X82923511Y-334232142D01*
X82971130Y-334136904D01*
X82971130Y-333946428D01*
X82923511Y-333851190D01*
X82304464Y-334660714D02*
X82971130Y-334898809D01*
X82304464Y-335136904D02*
X82971130Y-334898809D01*
X83209226Y-334803571D01*
X83256845Y-334755952D01*
X83304464Y-334660714D01*
X82971130Y-336279761D02*
X81971130Y-336279761D01*
X82685416Y-336613095D01*
X81971130Y-336946428D01*
X82971130Y-336946428D01*
X82971130Y-337422619D02*
X81971130Y-337422619D01*
X82971130Y-337994047D02*
X82399702Y-337565476D01*
X81971130Y-337994047D02*
X82542559Y-337422619D01*
X81971130Y-338327380D02*
X81971130Y-338946428D01*
X82352083Y-338613095D01*
X82352083Y-338755952D01*
X82399702Y-338851190D01*
X82447321Y-338898809D01*
X82542559Y-338946428D01*
X82780654Y-338946428D01*
X82875892Y-338898809D01*
X82923511Y-338851190D01*
X82971130Y-338755952D01*
X82971130Y-338470238D01*
X82923511Y-338375000D01*
X82875892Y-338327380D01*
X82066369Y-339327380D02*
X82018750Y-339375000D01*
X81971130Y-339470238D01*
X81971130Y-339708333D01*
X82018750Y-339803571D01*
X82066369Y-339851190D01*
X82161607Y-339898809D01*
X82256845Y-339898809D01*
X82399702Y-339851190D01*
X82971130Y-339279761D01*
X82971130Y-339898809D01*
X84621130Y-320946428D02*
X83621130Y-320946428D01*
X84621130Y-321375000D02*
X84097321Y-321375000D01*
X84002083Y-321327380D01*
X83954464Y-321232142D01*
X83954464Y-321089285D01*
X84002083Y-320994047D01*
X84049702Y-320946428D01*
X83954464Y-321708333D02*
X83954464Y-322089285D01*
X83621130Y-321851190D02*
X84478273Y-321851190D01*
X84573511Y-321898809D01*
X84621130Y-321994047D01*
X84621130Y-322089285D01*
X83954464Y-322279761D02*
X83954464Y-322660714D01*
X83621130Y-322422619D02*
X84478273Y-322422619D01*
X84573511Y-322470238D01*
X84621130Y-322565476D01*
X84621130Y-322660714D01*
X83954464Y-322994047D02*
X84954464Y-322994047D01*
X84002083Y-322994047D02*
X83954464Y-323089285D01*
X83954464Y-323279761D01*
X84002083Y-323375000D01*
X84049702Y-323422619D01*
X84144940Y-323470238D01*
X84430654Y-323470238D01*
X84525892Y-323422619D01*
X84573511Y-323375000D01*
X84621130Y-323279761D01*
X84621130Y-323089285D01*
X84573511Y-322994047D01*
X84573511Y-323851190D02*
X84621130Y-323946428D01*
X84621130Y-324136904D01*
X84573511Y-324232142D01*
X84478273Y-324279761D01*
X84430654Y-324279761D01*
X84335416Y-324232142D01*
X84287797Y-324136904D01*
X84287797Y-323994047D01*
X84240178Y-323898809D01*
X84144940Y-323851190D01*
X84097321Y-323851190D01*
X84002083Y-323898809D01*
X83954464Y-323994047D01*
X83954464Y-324136904D01*
X84002083Y-324232142D01*
X84525892Y-324708333D02*
X84573511Y-324755952D01*
X84621130Y-324708333D01*
X84573511Y-324660714D01*
X84525892Y-324708333D01*
X84621130Y-324708333D01*
X84002083Y-324708333D02*
X84049702Y-324755952D01*
X84097321Y-324708333D01*
X84049702Y-324660714D01*
X84002083Y-324708333D01*
X84097321Y-324708333D01*
X83573511Y-325898809D02*
X84859226Y-325041666D01*
X83573511Y-326946428D02*
X84859226Y-326089285D01*
X83954464Y-327708333D02*
X84763988Y-327708333D01*
X84859226Y-327660714D01*
X84906845Y-327613095D01*
X84954464Y-327517857D01*
X84954464Y-327375000D01*
X84906845Y-327279761D01*
X84573511Y-327708333D02*
X84621130Y-327613095D01*
X84621130Y-327422619D01*
X84573511Y-327327380D01*
X84525892Y-327279761D01*
X84430654Y-327232142D01*
X84144940Y-327232142D01*
X84049702Y-327279761D01*
X84002083Y-327327380D01*
X83954464Y-327422619D01*
X83954464Y-327613095D01*
X84002083Y-327708333D01*
X84621130Y-328184523D02*
X83954464Y-328184523D01*
X83621130Y-328184523D02*
X83668750Y-328136904D01*
X83716369Y-328184523D01*
X83668750Y-328232142D01*
X83621130Y-328184523D01*
X83716369Y-328184523D01*
X83954464Y-328517857D02*
X83954464Y-328898809D01*
X83621130Y-328660714D02*
X84478273Y-328660714D01*
X84573511Y-328708333D01*
X84621130Y-328803571D01*
X84621130Y-328898809D01*
X84621130Y-329232142D02*
X83621130Y-329232142D01*
X84621130Y-329660714D02*
X84097321Y-329660714D01*
X84002083Y-329613095D01*
X83954464Y-329517857D01*
X83954464Y-329375000D01*
X84002083Y-329279761D01*
X84049702Y-329232142D01*
X83954464Y-330565476D02*
X84621130Y-330565476D01*
X83954464Y-330136904D02*
X84478273Y-330136904D01*
X84573511Y-330184523D01*
X84621130Y-330279761D01*
X84621130Y-330422619D01*
X84573511Y-330517857D01*
X84525892Y-330565476D01*
X84621130Y-331041666D02*
X83621130Y-331041666D01*
X84002083Y-331041666D02*
X83954464Y-331136904D01*
X83954464Y-331327380D01*
X84002083Y-331422619D01*
X84049702Y-331470238D01*
X84144940Y-331517857D01*
X84430654Y-331517857D01*
X84525892Y-331470238D01*
X84573511Y-331422619D01*
X84621130Y-331327380D01*
X84621130Y-331136904D01*
X84573511Y-331041666D01*
X84525892Y-331946428D02*
X84573511Y-331994047D01*
X84621130Y-331946428D01*
X84573511Y-331898809D01*
X84525892Y-331946428D01*
X84621130Y-331946428D01*
X84573511Y-332851190D02*
X84621130Y-332755952D01*
X84621130Y-332565476D01*
X84573511Y-332470238D01*
X84525892Y-332422619D01*
X84430654Y-332375000D01*
X84144940Y-332375000D01*
X84049702Y-332422619D01*
X84002083Y-332470238D01*
X83954464Y-332565476D01*
X83954464Y-332755952D01*
X84002083Y-332851190D01*
X84621130Y-333422619D02*
X84573511Y-333327380D01*
X84525892Y-333279761D01*
X84430654Y-333232142D01*
X84144940Y-333232142D01*
X84049702Y-333279761D01*
X84002083Y-333327380D01*
X83954464Y-333422619D01*
X83954464Y-333565476D01*
X84002083Y-333660714D01*
X84049702Y-333708333D01*
X84144940Y-333755952D01*
X84430654Y-333755952D01*
X84525892Y-333708333D01*
X84573511Y-333660714D01*
X84621130Y-333565476D01*
X84621130Y-333422619D01*
X84621130Y-334184523D02*
X83954464Y-334184523D01*
X84049702Y-334184523D02*
X84002083Y-334232142D01*
X83954464Y-334327380D01*
X83954464Y-334470238D01*
X84002083Y-334565476D01*
X84097321Y-334613095D01*
X84621130Y-334613095D01*
X84097321Y-334613095D02*
X84002083Y-334660714D01*
X83954464Y-334755952D01*
X83954464Y-334898809D01*
X84002083Y-334994047D01*
X84097321Y-335041666D01*
X84621130Y-335041666D01*
X83573511Y-336232142D02*
X84859226Y-335375000D01*
X83668750Y-337089285D02*
X83621130Y-336994047D01*
X83621130Y-336851190D01*
X83668750Y-336708333D01*
X83763988Y-336613095D01*
X83859226Y-336565476D01*
X84049702Y-336517857D01*
X84192559Y-336517857D01*
X84383035Y-336565476D01*
X84478273Y-336613095D01*
X84573511Y-336708333D01*
X84621130Y-336851190D01*
X84621130Y-336946428D01*
X84573511Y-337089285D01*
X84525892Y-337136904D01*
X84192559Y-337136904D01*
X84192559Y-336946428D01*
X84621130Y-337994047D02*
X84097321Y-337994047D01*
X84002083Y-337946428D01*
X83954464Y-337851190D01*
X83954464Y-337660714D01*
X84002083Y-337565476D01*
X84573511Y-337994047D02*
X84621130Y-337898809D01*
X84621130Y-337660714D01*
X84573511Y-337565476D01*
X84478273Y-337517857D01*
X84383035Y-337517857D01*
X84287797Y-337565476D01*
X84240178Y-337660714D01*
X84240178Y-337898809D01*
X84192559Y-337994047D01*
X84621130Y-338613095D02*
X84573511Y-338517857D01*
X84478273Y-338470238D01*
X83621130Y-338470238D01*
X83954464Y-338898809D02*
X83954464Y-339422619D01*
X84621130Y-338898809D01*
X84621130Y-339422619D01*
X84621130Y-340232142D02*
X84097321Y-340232142D01*
X84002083Y-340184523D01*
X83954464Y-340089285D01*
X83954464Y-339898809D01*
X84002083Y-339803571D01*
X84573511Y-340232142D02*
X84621130Y-340136904D01*
X84621130Y-339898809D01*
X84573511Y-339803571D01*
X84478273Y-339755952D01*
X84383035Y-339755952D01*
X84287797Y-339803571D01*
X84240178Y-339898809D01*
X84240178Y-340136904D01*
X84192559Y-340232142D01*
X84621130Y-340708333D02*
X83954464Y-340708333D01*
X83621130Y-340708333D02*
X83668750Y-340660714D01*
X83716369Y-340708333D01*
X83668750Y-340755952D01*
X83621130Y-340708333D01*
X83716369Y-340708333D01*
X83573511Y-341898809D02*
X84859226Y-341041666D01*
X84621130Y-342232142D02*
X83621130Y-342232142D01*
X84335416Y-342565476D01*
X83621130Y-342898809D01*
X84621130Y-342898809D01*
X84621130Y-343375000D02*
X83621130Y-343375000D01*
X84621130Y-343946428D02*
X84049702Y-343517857D01*
X83621130Y-343946428D02*
X84192559Y-343375000D01*
X83621130Y-344279761D02*
X83621130Y-344898809D01*
X84002083Y-344565476D01*
X84002083Y-344708333D01*
X84049702Y-344803571D01*
X84097321Y-344851190D01*
X84192559Y-344898809D01*
X84430654Y-344898809D01*
X84525892Y-344851190D01*
X84573511Y-344803571D01*
X84621130Y-344708333D01*
X84621130Y-344422619D01*
X84573511Y-344327380D01*
X84525892Y-344279761D01*
X83716369Y-345279761D02*
X83668750Y-345327380D01*
X83621130Y-345422619D01*
X83621130Y-345660714D01*
X83668750Y-345755952D01*
X83716369Y-345803571D01*
X83811607Y-345851190D01*
X83906845Y-345851190D01*
X84049702Y-345803571D01*
X84621130Y-345232142D01*
X84621130Y-345851190D01*
X82971130Y-229267559D02*
X81971130Y-229267559D01*
X81971130Y-229648511D01*
X82018750Y-229743750D01*
X82066369Y-229791369D01*
X82161607Y-229838988D01*
X82304464Y-229838988D01*
X82399702Y-229791369D01*
X82447321Y-229743750D01*
X82494940Y-229648511D01*
X82494940Y-229267559D01*
X82971130Y-230410416D02*
X82923511Y-230315178D01*
X82875892Y-230267559D01*
X82780654Y-230219940D01*
X82494940Y-230219940D01*
X82399702Y-230267559D01*
X82352083Y-230315178D01*
X82304464Y-230410416D01*
X82304464Y-230553273D01*
X82352083Y-230648511D01*
X82399702Y-230696130D01*
X82494940Y-230743750D01*
X82780654Y-230743750D01*
X82875892Y-230696130D01*
X82923511Y-230648511D01*
X82971130Y-230553273D01*
X82971130Y-230410416D01*
X82304464Y-231077083D02*
X82971130Y-231267559D01*
X82494940Y-231458035D01*
X82971130Y-231648511D01*
X82304464Y-231838988D01*
X82923511Y-232600892D02*
X82971130Y-232505654D01*
X82971130Y-232315178D01*
X82923511Y-232219940D01*
X82828273Y-232172321D01*
X82447321Y-232172321D01*
X82352083Y-232219940D01*
X82304464Y-232315178D01*
X82304464Y-232505654D01*
X82352083Y-232600892D01*
X82447321Y-232648511D01*
X82542559Y-232648511D01*
X82637797Y-232172321D01*
X82971130Y-233077083D02*
X82304464Y-233077083D01*
X82494940Y-233077083D02*
X82399702Y-233124702D01*
X82352083Y-233172321D01*
X82304464Y-233267559D01*
X82304464Y-233362797D01*
X82923511Y-234077083D02*
X82971130Y-233981845D01*
X82971130Y-233791369D01*
X82923511Y-233696130D01*
X82828273Y-233648511D01*
X82447321Y-233648511D01*
X82352083Y-233696130D01*
X82304464Y-233791369D01*
X82304464Y-233981845D01*
X82352083Y-234077083D01*
X82447321Y-234124702D01*
X82542559Y-234124702D01*
X82637797Y-233648511D01*
X82971130Y-234981845D02*
X81971130Y-234981845D01*
X82923511Y-234981845D02*
X82971130Y-234886607D01*
X82971130Y-234696130D01*
X82923511Y-234600892D01*
X82875892Y-234553273D01*
X82780654Y-234505654D01*
X82494940Y-234505654D01*
X82399702Y-234553273D01*
X82352083Y-234600892D01*
X82304464Y-234696130D01*
X82304464Y-234886607D01*
X82352083Y-234981845D01*
X82971130Y-236219940D02*
X81971130Y-236219940D01*
X82352083Y-236219940D02*
X82304464Y-236315178D01*
X82304464Y-236505654D01*
X82352083Y-236600892D01*
X82399702Y-236648511D01*
X82494940Y-236696130D01*
X82780654Y-236696130D01*
X82875892Y-236648511D01*
X82923511Y-236600892D01*
X82971130Y-236505654D01*
X82971130Y-236315178D01*
X82923511Y-236219940D01*
X82304464Y-237029464D02*
X82971130Y-237267559D01*
X82304464Y-237505654D02*
X82971130Y-237267559D01*
X83209226Y-237172321D01*
X83256845Y-237124702D01*
X83304464Y-237029464D01*
X82971130Y-238648511D02*
X81971130Y-238648511D01*
X82685416Y-238981845D01*
X81971130Y-239315178D01*
X82971130Y-239315178D01*
X82971130Y-239791369D02*
X81971130Y-239791369D01*
X82971130Y-240362797D02*
X82399702Y-239934226D01*
X81971130Y-240362797D02*
X82542559Y-239791369D01*
X81971130Y-240696130D02*
X81971130Y-241315178D01*
X82352083Y-240981845D01*
X82352083Y-241124702D01*
X82399702Y-241219940D01*
X82447321Y-241267559D01*
X82542559Y-241315178D01*
X82780654Y-241315178D01*
X82875892Y-241267559D01*
X82923511Y-241219940D01*
X82971130Y-241124702D01*
X82971130Y-240838988D01*
X82923511Y-240743750D01*
X82875892Y-240696130D01*
X82066369Y-241696130D02*
X82018750Y-241743750D01*
X81971130Y-241838988D01*
X81971130Y-242077083D01*
X82018750Y-242172321D01*
X82066369Y-242219940D01*
X82161607Y-242267559D01*
X82256845Y-242267559D01*
X82399702Y-242219940D01*
X82971130Y-241648511D01*
X82971130Y-242267559D01*
X84621130Y-223315178D02*
X83621130Y-223315178D01*
X84621130Y-223743750D02*
X84097321Y-223743750D01*
X84002083Y-223696130D01*
X83954464Y-223600892D01*
X83954464Y-223458035D01*
X84002083Y-223362797D01*
X84049702Y-223315178D01*
X83954464Y-224077083D02*
X83954464Y-224458035D01*
X83621130Y-224219940D02*
X84478273Y-224219940D01*
X84573511Y-224267559D01*
X84621130Y-224362797D01*
X84621130Y-224458035D01*
X83954464Y-224648511D02*
X83954464Y-225029464D01*
X83621130Y-224791369D02*
X84478273Y-224791369D01*
X84573511Y-224838988D01*
X84621130Y-224934226D01*
X84621130Y-225029464D01*
X83954464Y-225362797D02*
X84954464Y-225362797D01*
X84002083Y-225362797D02*
X83954464Y-225458035D01*
X83954464Y-225648511D01*
X84002083Y-225743750D01*
X84049702Y-225791369D01*
X84144940Y-225838988D01*
X84430654Y-225838988D01*
X84525892Y-225791369D01*
X84573511Y-225743750D01*
X84621130Y-225648511D01*
X84621130Y-225458035D01*
X84573511Y-225362797D01*
X84573511Y-226219940D02*
X84621130Y-226315178D01*
X84621130Y-226505654D01*
X84573511Y-226600892D01*
X84478273Y-226648511D01*
X84430654Y-226648511D01*
X84335416Y-226600892D01*
X84287797Y-226505654D01*
X84287797Y-226362797D01*
X84240178Y-226267559D01*
X84144940Y-226219940D01*
X84097321Y-226219940D01*
X84002083Y-226267559D01*
X83954464Y-226362797D01*
X83954464Y-226505654D01*
X84002083Y-226600892D01*
X84525892Y-227077083D02*
X84573511Y-227124702D01*
X84621130Y-227077083D01*
X84573511Y-227029464D01*
X84525892Y-227077083D01*
X84621130Y-227077083D01*
X84002083Y-227077083D02*
X84049702Y-227124702D01*
X84097321Y-227077083D01*
X84049702Y-227029464D01*
X84002083Y-227077083D01*
X84097321Y-227077083D01*
X83573511Y-228267559D02*
X84859226Y-227410416D01*
X83573511Y-229315178D02*
X84859226Y-228458035D01*
X83954464Y-230077083D02*
X84763988Y-230077083D01*
X84859226Y-230029464D01*
X84906845Y-229981845D01*
X84954464Y-229886607D01*
X84954464Y-229743750D01*
X84906845Y-229648511D01*
X84573511Y-230077083D02*
X84621130Y-229981845D01*
X84621130Y-229791369D01*
X84573511Y-229696130D01*
X84525892Y-229648511D01*
X84430654Y-229600892D01*
X84144940Y-229600892D01*
X84049702Y-229648511D01*
X84002083Y-229696130D01*
X83954464Y-229791369D01*
X83954464Y-229981845D01*
X84002083Y-230077083D01*
X84621130Y-230553273D02*
X83954464Y-230553273D01*
X83621130Y-230553273D02*
X83668750Y-230505654D01*
X83716369Y-230553273D01*
X83668750Y-230600892D01*
X83621130Y-230553273D01*
X83716369Y-230553273D01*
X83954464Y-230886607D02*
X83954464Y-231267559D01*
X83621130Y-231029464D02*
X84478273Y-231029464D01*
X84573511Y-231077083D01*
X84621130Y-231172321D01*
X84621130Y-231267559D01*
X84621130Y-231600892D02*
X83621130Y-231600892D01*
X84621130Y-232029464D02*
X84097321Y-232029464D01*
X84002083Y-231981845D01*
X83954464Y-231886607D01*
X83954464Y-231743750D01*
X84002083Y-231648511D01*
X84049702Y-231600892D01*
X83954464Y-232934226D02*
X84621130Y-232934226D01*
X83954464Y-232505654D02*
X84478273Y-232505654D01*
X84573511Y-232553273D01*
X84621130Y-232648511D01*
X84621130Y-232791369D01*
X84573511Y-232886607D01*
X84525892Y-232934226D01*
X84621130Y-233410416D02*
X83621130Y-233410416D01*
X84002083Y-233410416D02*
X83954464Y-233505654D01*
X83954464Y-233696130D01*
X84002083Y-233791369D01*
X84049702Y-233838988D01*
X84144940Y-233886607D01*
X84430654Y-233886607D01*
X84525892Y-233838988D01*
X84573511Y-233791369D01*
X84621130Y-233696130D01*
X84621130Y-233505654D01*
X84573511Y-233410416D01*
X84525892Y-234315178D02*
X84573511Y-234362797D01*
X84621130Y-234315178D01*
X84573511Y-234267559D01*
X84525892Y-234315178D01*
X84621130Y-234315178D01*
X84573511Y-235219940D02*
X84621130Y-235124702D01*
X84621130Y-234934226D01*
X84573511Y-234838988D01*
X84525892Y-234791369D01*
X84430654Y-234743750D01*
X84144940Y-234743750D01*
X84049702Y-234791369D01*
X84002083Y-234838988D01*
X83954464Y-234934226D01*
X83954464Y-235124702D01*
X84002083Y-235219940D01*
X84621130Y-235791369D02*
X84573511Y-235696130D01*
X84525892Y-235648511D01*
X84430654Y-235600892D01*
X84144940Y-235600892D01*
X84049702Y-235648511D01*
X84002083Y-235696130D01*
X83954464Y-235791369D01*
X83954464Y-235934226D01*
X84002083Y-236029464D01*
X84049702Y-236077083D01*
X84144940Y-236124702D01*
X84430654Y-236124702D01*
X84525892Y-236077083D01*
X84573511Y-236029464D01*
X84621130Y-235934226D01*
X84621130Y-235791369D01*
X84621130Y-236553273D02*
X83954464Y-236553273D01*
X84049702Y-236553273D02*
X84002083Y-236600892D01*
X83954464Y-236696130D01*
X83954464Y-236838988D01*
X84002083Y-236934226D01*
X84097321Y-236981845D01*
X84621130Y-236981845D01*
X84097321Y-236981845D02*
X84002083Y-237029464D01*
X83954464Y-237124702D01*
X83954464Y-237267559D01*
X84002083Y-237362797D01*
X84097321Y-237410416D01*
X84621130Y-237410416D01*
X83573511Y-238600892D02*
X84859226Y-237743750D01*
X83668750Y-239458035D02*
X83621130Y-239362797D01*
X83621130Y-239219940D01*
X83668750Y-239077083D01*
X83763988Y-238981845D01*
X83859226Y-238934226D01*
X84049702Y-238886607D01*
X84192559Y-238886607D01*
X84383035Y-238934226D01*
X84478273Y-238981845D01*
X84573511Y-239077083D01*
X84621130Y-239219940D01*
X84621130Y-239315178D01*
X84573511Y-239458035D01*
X84525892Y-239505654D01*
X84192559Y-239505654D01*
X84192559Y-239315178D01*
X84621130Y-240362797D02*
X84097321Y-240362797D01*
X84002083Y-240315178D01*
X83954464Y-240219940D01*
X83954464Y-240029464D01*
X84002083Y-239934226D01*
X84573511Y-240362797D02*
X84621130Y-240267559D01*
X84621130Y-240029464D01*
X84573511Y-239934226D01*
X84478273Y-239886607D01*
X84383035Y-239886607D01*
X84287797Y-239934226D01*
X84240178Y-240029464D01*
X84240178Y-240267559D01*
X84192559Y-240362797D01*
X84621130Y-240981845D02*
X84573511Y-240886607D01*
X84478273Y-240838988D01*
X83621130Y-240838988D01*
X83954464Y-241267559D02*
X83954464Y-241791369D01*
X84621130Y-241267559D01*
X84621130Y-241791369D01*
X84621130Y-242600892D02*
X84097321Y-242600892D01*
X84002083Y-242553273D01*
X83954464Y-242458035D01*
X83954464Y-242267559D01*
X84002083Y-242172321D01*
X84573511Y-242600892D02*
X84621130Y-242505654D01*
X84621130Y-242267559D01*
X84573511Y-242172321D01*
X84478273Y-242124702D01*
X84383035Y-242124702D01*
X84287797Y-242172321D01*
X84240178Y-242267559D01*
X84240178Y-242505654D01*
X84192559Y-242600892D01*
X84621130Y-243077083D02*
X83954464Y-243077083D01*
X83621130Y-243077083D02*
X83668750Y-243029464D01*
X83716369Y-243077083D01*
X83668750Y-243124702D01*
X83621130Y-243077083D01*
X83716369Y-243077083D01*
X83573511Y-244267559D02*
X84859226Y-243410416D01*
X84621130Y-244600892D02*
X83621130Y-244600892D01*
X84335416Y-244934226D01*
X83621130Y-245267559D01*
X84621130Y-245267559D01*
X84621130Y-245743750D02*
X83621130Y-245743750D01*
X84621130Y-246315178D02*
X84049702Y-245886607D01*
X83621130Y-246315178D02*
X84192559Y-245743750D01*
X83621130Y-246648511D02*
X83621130Y-247267559D01*
X84002083Y-246934226D01*
X84002083Y-247077083D01*
X84049702Y-247172321D01*
X84097321Y-247219940D01*
X84192559Y-247267559D01*
X84430654Y-247267559D01*
X84525892Y-247219940D01*
X84573511Y-247172321D01*
X84621130Y-247077083D01*
X84621130Y-246791369D01*
X84573511Y-246696130D01*
X84525892Y-246648511D01*
X83716369Y-247648511D02*
X83668750Y-247696130D01*
X83621130Y-247791369D01*
X83621130Y-248029464D01*
X83668750Y-248124702D01*
X83716369Y-248172321D01*
X83811607Y-248219940D01*
X83906845Y-248219940D01*
X84049702Y-248172321D01*
X84621130Y-247600892D01*
X84621130Y-248219940D01*
D11*
%TO.C,D60*%
X318300000Y-249200000D02*
X320700000Y-249200000D01*
X318300000Y-243200000D02*
X318300000Y-249200000D01*
X320700000Y-243200000D02*
X318300000Y-243200000D01*
X320700000Y-249200000D02*
X320700000Y-243200000D01*
X320700000Y-248925000D02*
X318300000Y-248925000D01*
X320700000Y-248800000D02*
X318300000Y-248800000D01*
X318300000Y-249075000D02*
X320700000Y-249075000D01*
%TO.C,D59*%
X318300000Y-230200000D02*
X320700000Y-230200000D01*
X318300000Y-224200000D02*
X318300000Y-230200000D01*
X320700000Y-224200000D02*
X318300000Y-224200000D01*
X320700000Y-230200000D02*
X320700000Y-224200000D01*
X320700000Y-229925000D02*
X318300000Y-229925000D01*
X320700000Y-229800000D02*
X318300000Y-229800000D01*
X318300000Y-230075000D02*
X320700000Y-230075000D01*
%TO.C,D58*%
X318300000Y-211200000D02*
X320700000Y-211200000D01*
X318300000Y-205200000D02*
X318300000Y-211200000D01*
X320700000Y-205200000D02*
X318300000Y-205200000D01*
X320700000Y-211200000D02*
X320700000Y-205200000D01*
X320700000Y-210925000D02*
X318300000Y-210925000D01*
X320700000Y-210800000D02*
X318300000Y-210800000D01*
X318300000Y-211075000D02*
X320700000Y-211075000D01*
%TO.C,D57*%
X318300000Y-192200000D02*
X320700000Y-192200000D01*
X318300000Y-186200000D02*
X318300000Y-192200000D01*
X320700000Y-186200000D02*
X318300000Y-186200000D01*
X320700000Y-192200000D02*
X320700000Y-186200000D01*
X320700000Y-191925000D02*
X318300000Y-191925000D01*
X320700000Y-191800000D02*
X318300000Y-191800000D01*
X318300000Y-192075000D02*
X320700000Y-192075000D01*
%TO.C,D56*%
X318300000Y-173200000D02*
X320700000Y-173200000D01*
X318300000Y-167200000D02*
X318300000Y-173200000D01*
X320700000Y-167200000D02*
X318300000Y-167200000D01*
X320700000Y-173200000D02*
X320700000Y-167200000D01*
X320700000Y-172925000D02*
X318300000Y-172925000D01*
X320700000Y-172800000D02*
X318300000Y-172800000D01*
X318300000Y-173075000D02*
X320700000Y-173075000D01*
%TO.C,D55*%
X299300000Y-249200000D02*
X301700000Y-249200000D01*
X299300000Y-243200000D02*
X299300000Y-249200000D01*
X301700000Y-243200000D02*
X299300000Y-243200000D01*
X301700000Y-249200000D02*
X301700000Y-243200000D01*
X301700000Y-248925000D02*
X299300000Y-248925000D01*
X301700000Y-248800000D02*
X299300000Y-248800000D01*
X299300000Y-249075000D02*
X301700000Y-249075000D01*
%TO.C,D54*%
X299300000Y-230200000D02*
X301700000Y-230200000D01*
X299300000Y-224200000D02*
X299300000Y-230200000D01*
X301700000Y-224200000D02*
X299300000Y-224200000D01*
X301700000Y-230200000D02*
X301700000Y-224200000D01*
X301700000Y-229925000D02*
X299300000Y-229925000D01*
X301700000Y-229800000D02*
X299300000Y-229800000D01*
X299300000Y-230075000D02*
X301700000Y-230075000D01*
%TO.C,D53*%
X299300000Y-211200000D02*
X301700000Y-211200000D01*
X299300000Y-205200000D02*
X299300000Y-211200000D01*
X301700000Y-205200000D02*
X299300000Y-205200000D01*
X301700000Y-211200000D02*
X301700000Y-205200000D01*
X301700000Y-210925000D02*
X299300000Y-210925000D01*
X301700000Y-210800000D02*
X299300000Y-210800000D01*
X299300000Y-211075000D02*
X301700000Y-211075000D01*
%TO.C,D52*%
X299300000Y-192200000D02*
X301700000Y-192200000D01*
X299300000Y-186200000D02*
X299300000Y-192200000D01*
X301700000Y-186200000D02*
X299300000Y-186200000D01*
X301700000Y-192200000D02*
X301700000Y-186200000D01*
X301700000Y-191925000D02*
X299300000Y-191925000D01*
X301700000Y-191800000D02*
X299300000Y-191800000D01*
X299300000Y-192075000D02*
X301700000Y-192075000D01*
%TO.C,D51*%
X299300000Y-173200000D02*
X301700000Y-173200000D01*
X299300000Y-167200000D02*
X299300000Y-173200000D01*
X301700000Y-167200000D02*
X299300000Y-167200000D01*
X301700000Y-173200000D02*
X301700000Y-167200000D01*
X301700000Y-172925000D02*
X299300000Y-172925000D01*
X301700000Y-172800000D02*
X299300000Y-172800000D01*
X299300000Y-173075000D02*
X301700000Y-173075000D01*
%TO.C,D50*%
X280300000Y-249200000D02*
X282700000Y-249200000D01*
X280300000Y-243200000D02*
X280300000Y-249200000D01*
X282700000Y-243200000D02*
X280300000Y-243200000D01*
X282700000Y-249200000D02*
X282700000Y-243200000D01*
X282700000Y-248925000D02*
X280300000Y-248925000D01*
X282700000Y-248800000D02*
X280300000Y-248800000D01*
X280300000Y-249075000D02*
X282700000Y-249075000D01*
%TO.C,D49*%
X280300000Y-230200000D02*
X282700000Y-230200000D01*
X280300000Y-224200000D02*
X280300000Y-230200000D01*
X282700000Y-224200000D02*
X280300000Y-224200000D01*
X282700000Y-230200000D02*
X282700000Y-224200000D01*
X282700000Y-229925000D02*
X280300000Y-229925000D01*
X282700000Y-229800000D02*
X280300000Y-229800000D01*
X280300000Y-230075000D02*
X282700000Y-230075000D01*
%TO.C,D48*%
X280300000Y-211200000D02*
X282700000Y-211200000D01*
X280300000Y-205200000D02*
X280300000Y-211200000D01*
X282700000Y-205200000D02*
X280300000Y-205200000D01*
X282700000Y-211200000D02*
X282700000Y-205200000D01*
X282700000Y-210925000D02*
X280300000Y-210925000D01*
X282700000Y-210800000D02*
X280300000Y-210800000D01*
X280300000Y-211075000D02*
X282700000Y-211075000D01*
%TO.C,D47*%
X280300000Y-192200000D02*
X282700000Y-192200000D01*
X280300000Y-186200000D02*
X280300000Y-192200000D01*
X282700000Y-186200000D02*
X280300000Y-186200000D01*
X282700000Y-192200000D02*
X282700000Y-186200000D01*
X282700000Y-191925000D02*
X280300000Y-191925000D01*
X282700000Y-191800000D02*
X280300000Y-191800000D01*
X280300000Y-192075000D02*
X282700000Y-192075000D01*
%TO.C,D46*%
X280300000Y-173200000D02*
X282700000Y-173200000D01*
X280300000Y-167200000D02*
X280300000Y-173200000D01*
X282700000Y-167200000D02*
X280300000Y-167200000D01*
X282700000Y-173200000D02*
X282700000Y-167200000D01*
X282700000Y-172925000D02*
X280300000Y-172925000D01*
X282700000Y-172800000D02*
X280300000Y-172800000D01*
X280300000Y-173075000D02*
X282700000Y-173075000D01*
%TO.C,D45*%
X261300000Y-249200000D02*
X263700000Y-249200000D01*
X261300000Y-243200000D02*
X261300000Y-249200000D01*
X263700000Y-243200000D02*
X261300000Y-243200000D01*
X263700000Y-249200000D02*
X263700000Y-243200000D01*
X263700000Y-248925000D02*
X261300000Y-248925000D01*
X263700000Y-248800000D02*
X261300000Y-248800000D01*
X261300000Y-249075000D02*
X263700000Y-249075000D01*
%TO.C,D44*%
X261300000Y-230200000D02*
X263700000Y-230200000D01*
X261300000Y-224200000D02*
X261300000Y-230200000D01*
X263700000Y-224200000D02*
X261300000Y-224200000D01*
X263700000Y-230200000D02*
X263700000Y-224200000D01*
X263700000Y-229925000D02*
X261300000Y-229925000D01*
X263700000Y-229800000D02*
X261300000Y-229800000D01*
X261300000Y-230075000D02*
X263700000Y-230075000D01*
%TO.C,D43*%
X261300000Y-211200000D02*
X263700000Y-211200000D01*
X261300000Y-205200000D02*
X261300000Y-211200000D01*
X263700000Y-205200000D02*
X261300000Y-205200000D01*
X263700000Y-211200000D02*
X263700000Y-205200000D01*
X263700000Y-210925000D02*
X261300000Y-210925000D01*
X263700000Y-210800000D02*
X261300000Y-210800000D01*
X261300000Y-211075000D02*
X263700000Y-211075000D01*
%TO.C,D42*%
X261300000Y-192200000D02*
X263700000Y-192200000D01*
X261300000Y-186200000D02*
X261300000Y-192200000D01*
X263700000Y-186200000D02*
X261300000Y-186200000D01*
X263700000Y-192200000D02*
X263700000Y-186200000D01*
X263700000Y-191925000D02*
X261300000Y-191925000D01*
X263700000Y-191800000D02*
X261300000Y-191800000D01*
X261300000Y-192075000D02*
X263700000Y-192075000D01*
%TO.C,D41*%
X261300000Y-173200000D02*
X263700000Y-173200000D01*
X261300000Y-167200000D02*
X261300000Y-173200000D01*
X263700000Y-167200000D02*
X261300000Y-167200000D01*
X263700000Y-173200000D02*
X263700000Y-167200000D01*
X263700000Y-172925000D02*
X261300000Y-172925000D01*
X263700000Y-172800000D02*
X261300000Y-172800000D01*
X261300000Y-173075000D02*
X263700000Y-173075000D01*
%TO.C,D40*%
X242300000Y-249200000D02*
X244700000Y-249200000D01*
X242300000Y-243200000D02*
X242300000Y-249200000D01*
X244700000Y-243200000D02*
X242300000Y-243200000D01*
X244700000Y-249200000D02*
X244700000Y-243200000D01*
X244700000Y-248925000D02*
X242300000Y-248925000D01*
X244700000Y-248800000D02*
X242300000Y-248800000D01*
X242300000Y-249075000D02*
X244700000Y-249075000D01*
%TO.C,D39*%
X242300000Y-230200000D02*
X244700000Y-230200000D01*
X242300000Y-224200000D02*
X242300000Y-230200000D01*
X244700000Y-224200000D02*
X242300000Y-224200000D01*
X244700000Y-230200000D02*
X244700000Y-224200000D01*
X244700000Y-229925000D02*
X242300000Y-229925000D01*
X244700000Y-229800000D02*
X242300000Y-229800000D01*
X242300000Y-230075000D02*
X244700000Y-230075000D01*
%TO.C,D38*%
X242300000Y-211200000D02*
X244700000Y-211200000D01*
X242300000Y-205200000D02*
X242300000Y-211200000D01*
X244700000Y-205200000D02*
X242300000Y-205200000D01*
X244700000Y-211200000D02*
X244700000Y-205200000D01*
X244700000Y-210925000D02*
X242300000Y-210925000D01*
X244700000Y-210800000D02*
X242300000Y-210800000D01*
X242300000Y-211075000D02*
X244700000Y-211075000D01*
%TO.C,D37*%
X242300000Y-192200000D02*
X244700000Y-192200000D01*
X242300000Y-186200000D02*
X242300000Y-192200000D01*
X244700000Y-186200000D02*
X242300000Y-186200000D01*
X244700000Y-192200000D02*
X244700000Y-186200000D01*
X244700000Y-191925000D02*
X242300000Y-191925000D01*
X244700000Y-191800000D02*
X242300000Y-191800000D01*
X242300000Y-192075000D02*
X244700000Y-192075000D01*
%TO.C,D36*%
X242300000Y-173200000D02*
X244700000Y-173200000D01*
X242300000Y-167200000D02*
X242300000Y-173200000D01*
X244700000Y-167200000D02*
X242300000Y-167200000D01*
X244700000Y-173200000D02*
X244700000Y-167200000D01*
X244700000Y-172925000D02*
X242300000Y-172925000D01*
X244700000Y-172800000D02*
X242300000Y-172800000D01*
X242300000Y-173075000D02*
X244700000Y-173075000D01*
%TO.C,D35*%
X223300000Y-249200000D02*
X225700000Y-249200000D01*
X223300000Y-243200000D02*
X223300000Y-249200000D01*
X225700000Y-243200000D02*
X223300000Y-243200000D01*
X225700000Y-249200000D02*
X225700000Y-243200000D01*
X225700000Y-248925000D02*
X223300000Y-248925000D01*
X225700000Y-248800000D02*
X223300000Y-248800000D01*
X223300000Y-249075000D02*
X225700000Y-249075000D01*
%TO.C,D34*%
X223300000Y-230200000D02*
X225700000Y-230200000D01*
X223300000Y-224200000D02*
X223300000Y-230200000D01*
X225700000Y-224200000D02*
X223300000Y-224200000D01*
X225700000Y-230200000D02*
X225700000Y-224200000D01*
X225700000Y-229925000D02*
X223300000Y-229925000D01*
X225700000Y-229800000D02*
X223300000Y-229800000D01*
X223300000Y-230075000D02*
X225700000Y-230075000D01*
%TO.C,D33*%
X223300000Y-211200000D02*
X225700000Y-211200000D01*
X223300000Y-205200000D02*
X223300000Y-211200000D01*
X225700000Y-205200000D02*
X223300000Y-205200000D01*
X225700000Y-211200000D02*
X225700000Y-205200000D01*
X225700000Y-210925000D02*
X223300000Y-210925000D01*
X225700000Y-210800000D02*
X223300000Y-210800000D01*
X223300000Y-211075000D02*
X225700000Y-211075000D01*
%TO.C,D32*%
X223300000Y-192200000D02*
X225700000Y-192200000D01*
X223300000Y-186200000D02*
X223300000Y-192200000D01*
X225700000Y-186200000D02*
X223300000Y-186200000D01*
X225700000Y-192200000D02*
X225700000Y-186200000D01*
X225700000Y-191925000D02*
X223300000Y-191925000D01*
X225700000Y-191800000D02*
X223300000Y-191800000D01*
X223300000Y-192075000D02*
X225700000Y-192075000D01*
%TO.C,D31*%
X223300000Y-173200000D02*
X225700000Y-173200000D01*
X223300000Y-167200000D02*
X223300000Y-173200000D01*
X225700000Y-167200000D02*
X223300000Y-167200000D01*
X225700000Y-173200000D02*
X225700000Y-167200000D01*
X225700000Y-172925000D02*
X223300000Y-172925000D01*
X225700000Y-172800000D02*
X223300000Y-172800000D01*
X223300000Y-173075000D02*
X225700000Y-173075000D01*
%TO.C,D30*%
X204300000Y-249200000D02*
X206700000Y-249200000D01*
X204300000Y-243200000D02*
X204300000Y-249200000D01*
X206700000Y-243200000D02*
X204300000Y-243200000D01*
X206700000Y-249200000D02*
X206700000Y-243200000D01*
X206700000Y-248925000D02*
X204300000Y-248925000D01*
X206700000Y-248800000D02*
X204300000Y-248800000D01*
X204300000Y-249075000D02*
X206700000Y-249075000D01*
%TO.C,D29*%
X204300000Y-230200000D02*
X206700000Y-230200000D01*
X204300000Y-224200000D02*
X204300000Y-230200000D01*
X206700000Y-224200000D02*
X204300000Y-224200000D01*
X206700000Y-230200000D02*
X206700000Y-224200000D01*
X206700000Y-229925000D02*
X204300000Y-229925000D01*
X206700000Y-229800000D02*
X204300000Y-229800000D01*
X204300000Y-230075000D02*
X206700000Y-230075000D01*
%TO.C,D28*%
X204300000Y-211200000D02*
X206700000Y-211200000D01*
X204300000Y-205200000D02*
X204300000Y-211200000D01*
X206700000Y-205200000D02*
X204300000Y-205200000D01*
X206700000Y-211200000D02*
X206700000Y-205200000D01*
X206700000Y-210925000D02*
X204300000Y-210925000D01*
X206700000Y-210800000D02*
X204300000Y-210800000D01*
X204300000Y-211075000D02*
X206700000Y-211075000D01*
%TO.C,D27*%
X204300000Y-192200000D02*
X206700000Y-192200000D01*
X204300000Y-186200000D02*
X204300000Y-192200000D01*
X206700000Y-186200000D02*
X204300000Y-186200000D01*
X206700000Y-192200000D02*
X206700000Y-186200000D01*
X206700000Y-191925000D02*
X204300000Y-191925000D01*
X206700000Y-191800000D02*
X204300000Y-191800000D01*
X204300000Y-192075000D02*
X206700000Y-192075000D01*
%TO.C,D26*%
X204300000Y-173200000D02*
X206700000Y-173200000D01*
X204300000Y-167200000D02*
X204300000Y-173200000D01*
X206700000Y-167200000D02*
X204300000Y-167200000D01*
X206700000Y-173200000D02*
X206700000Y-167200000D01*
X206700000Y-172925000D02*
X204300000Y-172925000D01*
X206700000Y-172800000D02*
X204300000Y-172800000D01*
X204300000Y-173075000D02*
X206700000Y-173075000D01*
%TO.C,D25*%
X185300000Y-249200000D02*
X187700000Y-249200000D01*
X185300000Y-243200000D02*
X185300000Y-249200000D01*
X187700000Y-243200000D02*
X185300000Y-243200000D01*
X187700000Y-249200000D02*
X187700000Y-243200000D01*
X187700000Y-248925000D02*
X185300000Y-248925000D01*
X187700000Y-248800000D02*
X185300000Y-248800000D01*
X185300000Y-249075000D02*
X187700000Y-249075000D01*
%TO.C,D24*%
X185300000Y-230200000D02*
X187700000Y-230200000D01*
X185300000Y-224200000D02*
X185300000Y-230200000D01*
X187700000Y-224200000D02*
X185300000Y-224200000D01*
X187700000Y-230200000D02*
X187700000Y-224200000D01*
X187700000Y-229925000D02*
X185300000Y-229925000D01*
X187700000Y-229800000D02*
X185300000Y-229800000D01*
X185300000Y-230075000D02*
X187700000Y-230075000D01*
%TO.C,D23*%
X185300000Y-211200000D02*
X187700000Y-211200000D01*
X185300000Y-205200000D02*
X185300000Y-211200000D01*
X187700000Y-205200000D02*
X185300000Y-205200000D01*
X187700000Y-211200000D02*
X187700000Y-205200000D01*
X187700000Y-210925000D02*
X185300000Y-210925000D01*
X187700000Y-210800000D02*
X185300000Y-210800000D01*
X185300000Y-211075000D02*
X187700000Y-211075000D01*
%TO.C,D22*%
X185300000Y-192200000D02*
X187700000Y-192200000D01*
X185300000Y-186200000D02*
X185300000Y-192200000D01*
X187700000Y-186200000D02*
X185300000Y-186200000D01*
X187700000Y-192200000D02*
X187700000Y-186200000D01*
X187700000Y-191925000D02*
X185300000Y-191925000D01*
X187700000Y-191800000D02*
X185300000Y-191800000D01*
X185300000Y-192075000D02*
X187700000Y-192075000D01*
%TO.C,D21*%
X185300000Y-173200000D02*
X187700000Y-173200000D01*
X185300000Y-167200000D02*
X185300000Y-173200000D01*
X187700000Y-167200000D02*
X185300000Y-167200000D01*
X187700000Y-173200000D02*
X187700000Y-167200000D01*
X187700000Y-172925000D02*
X185300000Y-172925000D01*
X187700000Y-172800000D02*
X185300000Y-172800000D01*
X185300000Y-173075000D02*
X187700000Y-173075000D01*
%TO.C,D20*%
X165800000Y-249200000D02*
X168200000Y-249200000D01*
X165800000Y-243200000D02*
X165800000Y-249200000D01*
X168200000Y-243200000D02*
X165800000Y-243200000D01*
X168200000Y-249200000D02*
X168200000Y-243200000D01*
X168200000Y-248925000D02*
X165800000Y-248925000D01*
X168200000Y-248800000D02*
X165800000Y-248800000D01*
X165800000Y-249075000D02*
X168200000Y-249075000D01*
%TO.C,D19*%
X165800000Y-230200000D02*
X168200000Y-230200000D01*
X165800000Y-224200000D02*
X165800000Y-230200000D01*
X168200000Y-224200000D02*
X165800000Y-224200000D01*
X168200000Y-230200000D02*
X168200000Y-224200000D01*
X168200000Y-229925000D02*
X165800000Y-229925000D01*
X168200000Y-229800000D02*
X165800000Y-229800000D01*
X165800000Y-230075000D02*
X168200000Y-230075000D01*
%TO.C,D18*%
X165800000Y-211200000D02*
X168200000Y-211200000D01*
X165800000Y-205200000D02*
X165800000Y-211200000D01*
X168200000Y-205200000D02*
X165800000Y-205200000D01*
X168200000Y-211200000D02*
X168200000Y-205200000D01*
X168200000Y-210925000D02*
X165800000Y-210925000D01*
X168200000Y-210800000D02*
X165800000Y-210800000D01*
X165800000Y-211075000D02*
X168200000Y-211075000D01*
%TO.C,D17*%
X165800000Y-192200000D02*
X168200000Y-192200000D01*
X165800000Y-186200000D02*
X165800000Y-192200000D01*
X168200000Y-186200000D02*
X165800000Y-186200000D01*
X168200000Y-192200000D02*
X168200000Y-186200000D01*
X168200000Y-191925000D02*
X165800000Y-191925000D01*
X168200000Y-191800000D02*
X165800000Y-191800000D01*
X165800000Y-192075000D02*
X168200000Y-192075000D01*
%TO.C,D16*%
X165800000Y-173200000D02*
X168200000Y-173200000D01*
X165800000Y-167200000D02*
X165800000Y-173200000D01*
X168200000Y-167200000D02*
X165800000Y-167200000D01*
X168200000Y-173200000D02*
X168200000Y-167200000D01*
X168200000Y-172925000D02*
X165800000Y-172925000D01*
X168200000Y-172800000D02*
X165800000Y-172800000D01*
X165800000Y-173075000D02*
X168200000Y-173075000D01*
%TO.C,D15*%
X146800000Y-249200000D02*
X149200000Y-249200000D01*
X146800000Y-243200000D02*
X146800000Y-249200000D01*
X149200000Y-243200000D02*
X146800000Y-243200000D01*
X149200000Y-249200000D02*
X149200000Y-243200000D01*
X149200000Y-248925000D02*
X146800000Y-248925000D01*
X149200000Y-248800000D02*
X146800000Y-248800000D01*
X146800000Y-249075000D02*
X149200000Y-249075000D01*
%TO.C,D14*%
X146800000Y-230200000D02*
X149200000Y-230200000D01*
X146800000Y-224200000D02*
X146800000Y-230200000D01*
X149200000Y-224200000D02*
X146800000Y-224200000D01*
X149200000Y-230200000D02*
X149200000Y-224200000D01*
X149200000Y-229925000D02*
X146800000Y-229925000D01*
X149200000Y-229800000D02*
X146800000Y-229800000D01*
X146800000Y-230075000D02*
X149200000Y-230075000D01*
%TO.C,D13*%
X146800000Y-211200000D02*
X149200000Y-211200000D01*
X146800000Y-205200000D02*
X146800000Y-211200000D01*
X149200000Y-205200000D02*
X146800000Y-205200000D01*
X149200000Y-211200000D02*
X149200000Y-205200000D01*
X149200000Y-210925000D02*
X146800000Y-210925000D01*
X149200000Y-210800000D02*
X146800000Y-210800000D01*
X146800000Y-211075000D02*
X149200000Y-211075000D01*
%TO.C,D12*%
X146800000Y-192200000D02*
X149200000Y-192200000D01*
X146800000Y-186200000D02*
X146800000Y-192200000D01*
X149200000Y-186200000D02*
X146800000Y-186200000D01*
X149200000Y-192200000D02*
X149200000Y-186200000D01*
X149200000Y-191925000D02*
X146800000Y-191925000D01*
X149200000Y-191800000D02*
X146800000Y-191800000D01*
X146800000Y-192075000D02*
X149200000Y-192075000D01*
%TO.C,D11*%
X146800000Y-173200000D02*
X149200000Y-173200000D01*
X146800000Y-167200000D02*
X146800000Y-173200000D01*
X149200000Y-167200000D02*
X146800000Y-167200000D01*
X149200000Y-173200000D02*
X149200000Y-167200000D01*
X149200000Y-172925000D02*
X146800000Y-172925000D01*
X149200000Y-172800000D02*
X146800000Y-172800000D01*
X146800000Y-173075000D02*
X149200000Y-173075000D01*
%TO.C,D10*%
X127800000Y-249200000D02*
X130200000Y-249200000D01*
X127800000Y-243200000D02*
X127800000Y-249200000D01*
X130200000Y-243200000D02*
X127800000Y-243200000D01*
X130200000Y-249200000D02*
X130200000Y-243200000D01*
X130200000Y-248925000D02*
X127800000Y-248925000D01*
X130200000Y-248800000D02*
X127800000Y-248800000D01*
X127800000Y-249075000D02*
X130200000Y-249075000D01*
%TO.C,D9*%
X127800000Y-230200000D02*
X130200000Y-230200000D01*
X127800000Y-224200000D02*
X127800000Y-230200000D01*
X130200000Y-224200000D02*
X127800000Y-224200000D01*
X130200000Y-230200000D02*
X130200000Y-224200000D01*
X130200000Y-229925000D02*
X127800000Y-229925000D01*
X130200000Y-229800000D02*
X127800000Y-229800000D01*
X127800000Y-230075000D02*
X130200000Y-230075000D01*
%TO.C,D8*%
X127800000Y-211200000D02*
X130200000Y-211200000D01*
X127800000Y-205200000D02*
X127800000Y-211200000D01*
X130200000Y-205200000D02*
X127800000Y-205200000D01*
X130200000Y-211200000D02*
X130200000Y-205200000D01*
X130200000Y-210925000D02*
X127800000Y-210925000D01*
X130200000Y-210800000D02*
X127800000Y-210800000D01*
X127800000Y-211075000D02*
X130200000Y-211075000D01*
%TO.C,D7*%
X127800000Y-192200000D02*
X130200000Y-192200000D01*
X127800000Y-186200000D02*
X127800000Y-192200000D01*
X130200000Y-186200000D02*
X127800000Y-186200000D01*
X130200000Y-192200000D02*
X130200000Y-186200000D01*
X130200000Y-191925000D02*
X127800000Y-191925000D01*
X130200000Y-191800000D02*
X127800000Y-191800000D01*
X127800000Y-192075000D02*
X130200000Y-192075000D01*
%TO.C,D6*%
X127800000Y-173200000D02*
X130200000Y-173200000D01*
X127800000Y-167200000D02*
X127800000Y-173200000D01*
X130200000Y-167200000D02*
X127800000Y-167200000D01*
X130200000Y-173200000D02*
X130200000Y-167200000D01*
X130200000Y-172925000D02*
X127800000Y-172925000D01*
X130200000Y-172800000D02*
X127800000Y-172800000D01*
X127800000Y-173075000D02*
X130200000Y-173075000D01*
%TO.C,D5*%
X108800000Y-249200000D02*
X111200000Y-249200000D01*
X108800000Y-243200000D02*
X108800000Y-249200000D01*
X111200000Y-243200000D02*
X108800000Y-243200000D01*
X111200000Y-249200000D02*
X111200000Y-243200000D01*
X111200000Y-248925000D02*
X108800000Y-248925000D01*
X111200000Y-248800000D02*
X108800000Y-248800000D01*
X108800000Y-249075000D02*
X111200000Y-249075000D01*
%TO.C,D4*%
X108800000Y-230200000D02*
X111200000Y-230200000D01*
X108800000Y-224200000D02*
X108800000Y-230200000D01*
X111200000Y-224200000D02*
X108800000Y-224200000D01*
X111200000Y-230200000D02*
X111200000Y-224200000D01*
X111200000Y-229925000D02*
X108800000Y-229925000D01*
X111200000Y-229800000D02*
X108800000Y-229800000D01*
X108800000Y-230075000D02*
X111200000Y-230075000D01*
%TO.C,D3*%
X108800000Y-211200000D02*
X111200000Y-211200000D01*
X108800000Y-205200000D02*
X108800000Y-211200000D01*
X111200000Y-205200000D02*
X108800000Y-205200000D01*
X111200000Y-211200000D02*
X111200000Y-205200000D01*
X111200000Y-210925000D02*
X108800000Y-210925000D01*
X111200000Y-210800000D02*
X108800000Y-210800000D01*
X108800000Y-211075000D02*
X111200000Y-211075000D01*
%TO.C,D2*%
X108800000Y-192200000D02*
X111200000Y-192200000D01*
X108800000Y-186200000D02*
X108800000Y-192200000D01*
X111200000Y-186200000D02*
X108800000Y-186200000D01*
X111200000Y-192200000D02*
X111200000Y-186200000D01*
X111200000Y-191925000D02*
X108800000Y-191925000D01*
X111200000Y-191800000D02*
X108800000Y-191800000D01*
X108800000Y-192075000D02*
X111200000Y-192075000D01*
%TO.C,D1*%
X108800000Y-173200000D02*
X111200000Y-173200000D01*
X108800000Y-167200000D02*
X108800000Y-173200000D01*
X111200000Y-167200000D02*
X108800000Y-167200000D01*
X111200000Y-173200000D02*
X111200000Y-167200000D01*
X111200000Y-172925000D02*
X108800000Y-172925000D01*
X111200000Y-172800000D02*
X108800000Y-172800000D01*
X108800000Y-173075000D02*
X111200000Y-173075000D01*
D10*
%TO.C,K60*%
X333692000Y-235903000D02*
X333692000Y-236284000D01*
X324802000Y-235903000D02*
X333692000Y-235903000D01*
X322262000Y-238443000D02*
X322262000Y-238824000D01*
X322643000Y-242253000D02*
X322262000Y-242253000D01*
X326147838Y-242253000D02*
X324421000Y-242253000D01*
X333692000Y-240348000D02*
X328612000Y-240348000D01*
X333692000Y-239332000D02*
X333692000Y-240348000D01*
X322262000Y-241872000D02*
X322262000Y-242253000D01*
X326147838Y-242271960D02*
G75*
G02*
X328612000Y-240348000I2464162J-616040D01*
G01*
X322262000Y-238443000D02*
G75*
G02*
X324802000Y-235903000I2540000J0D01*
G01*
%TO.C,K59*%
X333692000Y-216853000D02*
X333692000Y-217234000D01*
X324802000Y-216853000D02*
X333692000Y-216853000D01*
X322262000Y-219393000D02*
X322262000Y-219774000D01*
X322643000Y-223203000D02*
X322262000Y-223203000D01*
X326147838Y-223203000D02*
X324421000Y-223203000D01*
X333692000Y-221298000D02*
X328612000Y-221298000D01*
X333692000Y-220282000D02*
X333692000Y-221298000D01*
X322262000Y-222822000D02*
X322262000Y-223203000D01*
X326147838Y-223221960D02*
G75*
G02*
X328612000Y-221298000I2464162J-616040D01*
G01*
X322262000Y-219393000D02*
G75*
G02*
X324802000Y-216853000I2540000J0D01*
G01*
%TO.C,K58*%
X333692000Y-197803000D02*
X333692000Y-198184000D01*
X324802000Y-197803000D02*
X333692000Y-197803000D01*
X322262000Y-200343000D02*
X322262000Y-200724000D01*
X322643000Y-204153000D02*
X322262000Y-204153000D01*
X326147838Y-204153000D02*
X324421000Y-204153000D01*
X333692000Y-202248000D02*
X328612000Y-202248000D01*
X333692000Y-201232000D02*
X333692000Y-202248000D01*
X322262000Y-203772000D02*
X322262000Y-204153000D01*
X326147838Y-204171960D02*
G75*
G02*
X328612000Y-202248000I2464162J-616040D01*
G01*
X322262000Y-200343000D02*
G75*
G02*
X324802000Y-197803000I2540000J0D01*
G01*
%TO.C,K57*%
X333692000Y-178753000D02*
X333692000Y-179134000D01*
X324802000Y-178753000D02*
X333692000Y-178753000D01*
X322262000Y-181293000D02*
X322262000Y-181674000D01*
X322643000Y-185103000D02*
X322262000Y-185103000D01*
X326147838Y-185103000D02*
X324421000Y-185103000D01*
X333692000Y-183198000D02*
X328612000Y-183198000D01*
X333692000Y-182182000D02*
X333692000Y-183198000D01*
X322262000Y-184722000D02*
X322262000Y-185103000D01*
X326147838Y-185121960D02*
G75*
G02*
X328612000Y-183198000I2464162J-616040D01*
G01*
X322262000Y-181293000D02*
G75*
G02*
X324802000Y-178753000I2540000J0D01*
G01*
%TO.C,K56*%
X333692000Y-159703000D02*
X333692000Y-160084000D01*
X324802000Y-159703000D02*
X333692000Y-159703000D01*
X322262000Y-162243000D02*
X322262000Y-162624000D01*
X322643000Y-166053000D02*
X322262000Y-166053000D01*
X326147838Y-166053000D02*
X324421000Y-166053000D01*
X333692000Y-164148000D02*
X328612000Y-164148000D01*
X333692000Y-163132000D02*
X333692000Y-164148000D01*
X322262000Y-165672000D02*
X322262000Y-166053000D01*
X326147838Y-166071960D02*
G75*
G02*
X328612000Y-164148000I2464162J-616040D01*
G01*
X322262000Y-162243000D02*
G75*
G02*
X324802000Y-159703000I2540000J0D01*
G01*
%TO.C,K55*%
X314642000Y-235903000D02*
X314642000Y-236284000D01*
X305752000Y-235903000D02*
X314642000Y-235903000D01*
X303212000Y-238443000D02*
X303212000Y-238824000D01*
X303593000Y-242253000D02*
X303212000Y-242253000D01*
X307097838Y-242253000D02*
X305371000Y-242253000D01*
X314642000Y-240348000D02*
X309562000Y-240348000D01*
X314642000Y-239332000D02*
X314642000Y-240348000D01*
X303212000Y-241872000D02*
X303212000Y-242253000D01*
X307097838Y-242271960D02*
G75*
G02*
X309562000Y-240348000I2464162J-616040D01*
G01*
X303212000Y-238443000D02*
G75*
G02*
X305752000Y-235903000I2540000J0D01*
G01*
%TO.C,K54*%
X314642000Y-216853000D02*
X314642000Y-217234000D01*
X305752000Y-216853000D02*
X314642000Y-216853000D01*
X303212000Y-219393000D02*
X303212000Y-219774000D01*
X303593000Y-223203000D02*
X303212000Y-223203000D01*
X307097838Y-223203000D02*
X305371000Y-223203000D01*
X314642000Y-221298000D02*
X309562000Y-221298000D01*
X314642000Y-220282000D02*
X314642000Y-221298000D01*
X303212000Y-222822000D02*
X303212000Y-223203000D01*
X307097838Y-223221960D02*
G75*
G02*
X309562000Y-221298000I2464162J-616040D01*
G01*
X303212000Y-219393000D02*
G75*
G02*
X305752000Y-216853000I2540000J0D01*
G01*
%TO.C,K53*%
X314642000Y-197803000D02*
X314642000Y-198184000D01*
X305752000Y-197803000D02*
X314642000Y-197803000D01*
X303212000Y-200343000D02*
X303212000Y-200724000D01*
X303593000Y-204153000D02*
X303212000Y-204153000D01*
X307097838Y-204153000D02*
X305371000Y-204153000D01*
X314642000Y-202248000D02*
X309562000Y-202248000D01*
X314642000Y-201232000D02*
X314642000Y-202248000D01*
X303212000Y-203772000D02*
X303212000Y-204153000D01*
X307097838Y-204171960D02*
G75*
G02*
X309562000Y-202248000I2464162J-616040D01*
G01*
X303212000Y-200343000D02*
G75*
G02*
X305752000Y-197803000I2540000J0D01*
G01*
%TO.C,K52*%
X314642000Y-178753000D02*
X314642000Y-179134000D01*
X305752000Y-178753000D02*
X314642000Y-178753000D01*
X303212000Y-181293000D02*
X303212000Y-181674000D01*
X303593000Y-185103000D02*
X303212000Y-185103000D01*
X307097838Y-185103000D02*
X305371000Y-185103000D01*
X314642000Y-183198000D02*
X309562000Y-183198000D01*
X314642000Y-182182000D02*
X314642000Y-183198000D01*
X303212000Y-184722000D02*
X303212000Y-185103000D01*
X307097838Y-185121960D02*
G75*
G02*
X309562000Y-183198000I2464162J-616040D01*
G01*
X303212000Y-181293000D02*
G75*
G02*
X305752000Y-178753000I2540000J0D01*
G01*
%TO.C,K51*%
X314642000Y-159703000D02*
X314642000Y-160084000D01*
X305752000Y-159703000D02*
X314642000Y-159703000D01*
X303212000Y-162243000D02*
X303212000Y-162624000D01*
X303593000Y-166053000D02*
X303212000Y-166053000D01*
X307097838Y-166053000D02*
X305371000Y-166053000D01*
X314642000Y-164148000D02*
X309562000Y-164148000D01*
X314642000Y-163132000D02*
X314642000Y-164148000D01*
X303212000Y-165672000D02*
X303212000Y-166053000D01*
X307097838Y-166071960D02*
G75*
G02*
X309562000Y-164148000I2464162J-616040D01*
G01*
X303212000Y-162243000D02*
G75*
G02*
X305752000Y-159703000I2540000J0D01*
G01*
%TO.C,K50*%
X295592000Y-235903000D02*
X295592000Y-236284000D01*
X286702000Y-235903000D02*
X295592000Y-235903000D01*
X284162000Y-238443000D02*
X284162000Y-238824000D01*
X284543000Y-242253000D02*
X284162000Y-242253000D01*
X288047838Y-242253000D02*
X286321000Y-242253000D01*
X295592000Y-240348000D02*
X290512000Y-240348000D01*
X295592000Y-239332000D02*
X295592000Y-240348000D01*
X284162000Y-241872000D02*
X284162000Y-242253000D01*
X288047838Y-242271960D02*
G75*
G02*
X290512000Y-240348000I2464162J-616040D01*
G01*
X284162000Y-238443000D02*
G75*
G02*
X286702000Y-235903000I2540000J0D01*
G01*
%TO.C,K49*%
X295592000Y-216853000D02*
X295592000Y-217234000D01*
X286702000Y-216853000D02*
X295592000Y-216853000D01*
X284162000Y-219393000D02*
X284162000Y-219774000D01*
X284543000Y-223203000D02*
X284162000Y-223203000D01*
X288047838Y-223203000D02*
X286321000Y-223203000D01*
X295592000Y-221298000D02*
X290512000Y-221298000D01*
X295592000Y-220282000D02*
X295592000Y-221298000D01*
X284162000Y-222822000D02*
X284162000Y-223203000D01*
X288047838Y-223221960D02*
G75*
G02*
X290512000Y-221298000I2464162J-616040D01*
G01*
X284162000Y-219393000D02*
G75*
G02*
X286702000Y-216853000I2540000J0D01*
G01*
%TO.C,K48*%
X295592000Y-197803000D02*
X295592000Y-198184000D01*
X286702000Y-197803000D02*
X295592000Y-197803000D01*
X284162000Y-200343000D02*
X284162000Y-200724000D01*
X284543000Y-204153000D02*
X284162000Y-204153000D01*
X288047838Y-204153000D02*
X286321000Y-204153000D01*
X295592000Y-202248000D02*
X290512000Y-202248000D01*
X295592000Y-201232000D02*
X295592000Y-202248000D01*
X284162000Y-203772000D02*
X284162000Y-204153000D01*
X288047838Y-204171960D02*
G75*
G02*
X290512000Y-202248000I2464162J-616040D01*
G01*
X284162000Y-200343000D02*
G75*
G02*
X286702000Y-197803000I2540000J0D01*
G01*
%TO.C,K47*%
X295592000Y-178753000D02*
X295592000Y-179134000D01*
X286702000Y-178753000D02*
X295592000Y-178753000D01*
X284162000Y-181293000D02*
X284162000Y-181674000D01*
X284543000Y-185103000D02*
X284162000Y-185103000D01*
X288047838Y-185103000D02*
X286321000Y-185103000D01*
X295592000Y-183198000D02*
X290512000Y-183198000D01*
X295592000Y-182182000D02*
X295592000Y-183198000D01*
X284162000Y-184722000D02*
X284162000Y-185103000D01*
X288047838Y-185121960D02*
G75*
G02*
X290512000Y-183198000I2464162J-616040D01*
G01*
X284162000Y-181293000D02*
G75*
G02*
X286702000Y-178753000I2540000J0D01*
G01*
%TO.C,K46*%
X295592000Y-159703000D02*
X295592000Y-160084000D01*
X286702000Y-159703000D02*
X295592000Y-159703000D01*
X284162000Y-162243000D02*
X284162000Y-162624000D01*
X284543000Y-166053000D02*
X284162000Y-166053000D01*
X288047838Y-166053000D02*
X286321000Y-166053000D01*
X295592000Y-164148000D02*
X290512000Y-164148000D01*
X295592000Y-163132000D02*
X295592000Y-164148000D01*
X284162000Y-165672000D02*
X284162000Y-166053000D01*
X288047838Y-166071960D02*
G75*
G02*
X290512000Y-164148000I2464162J-616040D01*
G01*
X284162000Y-162243000D02*
G75*
G02*
X286702000Y-159703000I2540000J0D01*
G01*
%TO.C,K45*%
X276542000Y-235903000D02*
X276542000Y-236284000D01*
X267652000Y-235903000D02*
X276542000Y-235903000D01*
X265112000Y-238443000D02*
X265112000Y-238824000D01*
X265493000Y-242253000D02*
X265112000Y-242253000D01*
X268997838Y-242253000D02*
X267271000Y-242253000D01*
X276542000Y-240348000D02*
X271462000Y-240348000D01*
X276542000Y-239332000D02*
X276542000Y-240348000D01*
X265112000Y-241872000D02*
X265112000Y-242253000D01*
X268997838Y-242271960D02*
G75*
G02*
X271462000Y-240348000I2464162J-616040D01*
G01*
X265112000Y-238443000D02*
G75*
G02*
X267652000Y-235903000I2540000J0D01*
G01*
%TO.C,K44*%
X276542000Y-216853000D02*
X276542000Y-217234000D01*
X267652000Y-216853000D02*
X276542000Y-216853000D01*
X265112000Y-219393000D02*
X265112000Y-219774000D01*
X265493000Y-223203000D02*
X265112000Y-223203000D01*
X268997838Y-223203000D02*
X267271000Y-223203000D01*
X276542000Y-221298000D02*
X271462000Y-221298000D01*
X276542000Y-220282000D02*
X276542000Y-221298000D01*
X265112000Y-222822000D02*
X265112000Y-223203000D01*
X268997838Y-223221960D02*
G75*
G02*
X271462000Y-221298000I2464162J-616040D01*
G01*
X265112000Y-219393000D02*
G75*
G02*
X267652000Y-216853000I2540000J0D01*
G01*
%TO.C,K43*%
X276542000Y-197803000D02*
X276542000Y-198184000D01*
X267652000Y-197803000D02*
X276542000Y-197803000D01*
X265112000Y-200343000D02*
X265112000Y-200724000D01*
X265493000Y-204153000D02*
X265112000Y-204153000D01*
X268997838Y-204153000D02*
X267271000Y-204153000D01*
X276542000Y-202248000D02*
X271462000Y-202248000D01*
X276542000Y-201232000D02*
X276542000Y-202248000D01*
X265112000Y-203772000D02*
X265112000Y-204153000D01*
X268997838Y-204171960D02*
G75*
G02*
X271462000Y-202248000I2464162J-616040D01*
G01*
X265112000Y-200343000D02*
G75*
G02*
X267652000Y-197803000I2540000J0D01*
G01*
%TO.C,K42*%
X276542000Y-178753000D02*
X276542000Y-179134000D01*
X267652000Y-178753000D02*
X276542000Y-178753000D01*
X265112000Y-181293000D02*
X265112000Y-181674000D01*
X265493000Y-185103000D02*
X265112000Y-185103000D01*
X268997838Y-185103000D02*
X267271000Y-185103000D01*
X276542000Y-183198000D02*
X271462000Y-183198000D01*
X276542000Y-182182000D02*
X276542000Y-183198000D01*
X265112000Y-184722000D02*
X265112000Y-185103000D01*
X268997838Y-185121960D02*
G75*
G02*
X271462000Y-183198000I2464162J-616040D01*
G01*
X265112000Y-181293000D02*
G75*
G02*
X267652000Y-178753000I2540000J0D01*
G01*
%TO.C,K41*%
X276542000Y-159703000D02*
X276542000Y-160084000D01*
X267652000Y-159703000D02*
X276542000Y-159703000D01*
X265112000Y-162243000D02*
X265112000Y-162624000D01*
X265493000Y-166053000D02*
X265112000Y-166053000D01*
X268997838Y-166053000D02*
X267271000Y-166053000D01*
X276542000Y-164148000D02*
X271462000Y-164148000D01*
X276542000Y-163132000D02*
X276542000Y-164148000D01*
X265112000Y-165672000D02*
X265112000Y-166053000D01*
X268997838Y-166071960D02*
G75*
G02*
X271462000Y-164148000I2464162J-616040D01*
G01*
X265112000Y-162243000D02*
G75*
G02*
X267652000Y-159703000I2540000J0D01*
G01*
%TO.C,K40*%
X257492000Y-235903000D02*
X257492000Y-236284000D01*
X248602000Y-235903000D02*
X257492000Y-235903000D01*
X246062000Y-238443000D02*
X246062000Y-238824000D01*
X246443000Y-242253000D02*
X246062000Y-242253000D01*
X249947838Y-242253000D02*
X248221000Y-242253000D01*
X257492000Y-240348000D02*
X252412000Y-240348000D01*
X257492000Y-239332000D02*
X257492000Y-240348000D01*
X246062000Y-241872000D02*
X246062000Y-242253000D01*
X249947838Y-242271960D02*
G75*
G02*
X252412000Y-240348000I2464162J-616040D01*
G01*
X246062000Y-238443000D02*
G75*
G02*
X248602000Y-235903000I2540000J0D01*
G01*
%TO.C,K39*%
X257492000Y-216853000D02*
X257492000Y-217234000D01*
X248602000Y-216853000D02*
X257492000Y-216853000D01*
X246062000Y-219393000D02*
X246062000Y-219774000D01*
X246443000Y-223203000D02*
X246062000Y-223203000D01*
X249947838Y-223203000D02*
X248221000Y-223203000D01*
X257492000Y-221298000D02*
X252412000Y-221298000D01*
X257492000Y-220282000D02*
X257492000Y-221298000D01*
X246062000Y-222822000D02*
X246062000Y-223203000D01*
X249947838Y-223221960D02*
G75*
G02*
X252412000Y-221298000I2464162J-616040D01*
G01*
X246062000Y-219393000D02*
G75*
G02*
X248602000Y-216853000I2540000J0D01*
G01*
%TO.C,K38*%
X257492000Y-197803000D02*
X257492000Y-198184000D01*
X248602000Y-197803000D02*
X257492000Y-197803000D01*
X246062000Y-200343000D02*
X246062000Y-200724000D01*
X246443000Y-204153000D02*
X246062000Y-204153000D01*
X249947838Y-204153000D02*
X248221000Y-204153000D01*
X257492000Y-202248000D02*
X252412000Y-202248000D01*
X257492000Y-201232000D02*
X257492000Y-202248000D01*
X246062000Y-203772000D02*
X246062000Y-204153000D01*
X249947838Y-204171960D02*
G75*
G02*
X252412000Y-202248000I2464162J-616040D01*
G01*
X246062000Y-200343000D02*
G75*
G02*
X248602000Y-197803000I2540000J0D01*
G01*
%TO.C,K37*%
X257492000Y-178753000D02*
X257492000Y-179134000D01*
X248602000Y-178753000D02*
X257492000Y-178753000D01*
X246062000Y-181293000D02*
X246062000Y-181674000D01*
X246443000Y-185103000D02*
X246062000Y-185103000D01*
X249947838Y-185103000D02*
X248221000Y-185103000D01*
X257492000Y-183198000D02*
X252412000Y-183198000D01*
X257492000Y-182182000D02*
X257492000Y-183198000D01*
X246062000Y-184722000D02*
X246062000Y-185103000D01*
X249947838Y-185121960D02*
G75*
G02*
X252412000Y-183198000I2464162J-616040D01*
G01*
X246062000Y-181293000D02*
G75*
G02*
X248602000Y-178753000I2540000J0D01*
G01*
%TO.C,K36*%
X257492000Y-159703000D02*
X257492000Y-160084000D01*
X248602000Y-159703000D02*
X257492000Y-159703000D01*
X246062000Y-162243000D02*
X246062000Y-162624000D01*
X246443000Y-166053000D02*
X246062000Y-166053000D01*
X249947838Y-166053000D02*
X248221000Y-166053000D01*
X257492000Y-164148000D02*
X252412000Y-164148000D01*
X257492000Y-163132000D02*
X257492000Y-164148000D01*
X246062000Y-165672000D02*
X246062000Y-166053000D01*
X249947838Y-166071960D02*
G75*
G02*
X252412000Y-164148000I2464162J-616040D01*
G01*
X246062000Y-162243000D02*
G75*
G02*
X248602000Y-159703000I2540000J0D01*
G01*
%TO.C,K35*%
X238442000Y-235903000D02*
X238442000Y-236284000D01*
X229552000Y-235903000D02*
X238442000Y-235903000D01*
X227012000Y-238443000D02*
X227012000Y-238824000D01*
X227393000Y-242253000D02*
X227012000Y-242253000D01*
X230897838Y-242253000D02*
X229171000Y-242253000D01*
X238442000Y-240348000D02*
X233362000Y-240348000D01*
X238442000Y-239332000D02*
X238442000Y-240348000D01*
X227012000Y-241872000D02*
X227012000Y-242253000D01*
X230897838Y-242271960D02*
G75*
G02*
X233362000Y-240348000I2464162J-616040D01*
G01*
X227012000Y-238443000D02*
G75*
G02*
X229552000Y-235903000I2540000J0D01*
G01*
%TO.C,K34*%
X238442000Y-216853000D02*
X238442000Y-217234000D01*
X229552000Y-216853000D02*
X238442000Y-216853000D01*
X227012000Y-219393000D02*
X227012000Y-219774000D01*
X227393000Y-223203000D02*
X227012000Y-223203000D01*
X230897838Y-223203000D02*
X229171000Y-223203000D01*
X238442000Y-221298000D02*
X233362000Y-221298000D01*
X238442000Y-220282000D02*
X238442000Y-221298000D01*
X227012000Y-222822000D02*
X227012000Y-223203000D01*
X230897838Y-223221960D02*
G75*
G02*
X233362000Y-221298000I2464162J-616040D01*
G01*
X227012000Y-219393000D02*
G75*
G02*
X229552000Y-216853000I2540000J0D01*
G01*
%TO.C,K33*%
X238442000Y-197803000D02*
X238442000Y-198184000D01*
X229552000Y-197803000D02*
X238442000Y-197803000D01*
X227012000Y-200343000D02*
X227012000Y-200724000D01*
X227393000Y-204153000D02*
X227012000Y-204153000D01*
X230897838Y-204153000D02*
X229171000Y-204153000D01*
X238442000Y-202248000D02*
X233362000Y-202248000D01*
X238442000Y-201232000D02*
X238442000Y-202248000D01*
X227012000Y-203772000D02*
X227012000Y-204153000D01*
X230897838Y-204171960D02*
G75*
G02*
X233362000Y-202248000I2464162J-616040D01*
G01*
X227012000Y-200343000D02*
G75*
G02*
X229552000Y-197803000I2540000J0D01*
G01*
%TO.C,K32*%
X238442000Y-178753000D02*
X238442000Y-179134000D01*
X229552000Y-178753000D02*
X238442000Y-178753000D01*
X227012000Y-181293000D02*
X227012000Y-181674000D01*
X227393000Y-185103000D02*
X227012000Y-185103000D01*
X230897838Y-185103000D02*
X229171000Y-185103000D01*
X238442000Y-183198000D02*
X233362000Y-183198000D01*
X238442000Y-182182000D02*
X238442000Y-183198000D01*
X227012000Y-184722000D02*
X227012000Y-185103000D01*
X230897838Y-185121960D02*
G75*
G02*
X233362000Y-183198000I2464162J-616040D01*
G01*
X227012000Y-181293000D02*
G75*
G02*
X229552000Y-178753000I2540000J0D01*
G01*
%TO.C,K31*%
X238442000Y-159703000D02*
X238442000Y-160084000D01*
X229552000Y-159703000D02*
X238442000Y-159703000D01*
X227012000Y-162243000D02*
X227012000Y-162624000D01*
X227393000Y-166053000D02*
X227012000Y-166053000D01*
X230897838Y-166053000D02*
X229171000Y-166053000D01*
X238442000Y-164148000D02*
X233362000Y-164148000D01*
X238442000Y-163132000D02*
X238442000Y-164148000D01*
X227012000Y-165672000D02*
X227012000Y-166053000D01*
X230897838Y-166071960D02*
G75*
G02*
X233362000Y-164148000I2464162J-616040D01*
G01*
X227012000Y-162243000D02*
G75*
G02*
X229552000Y-159703000I2540000J0D01*
G01*
%TO.C,K30*%
X219392000Y-235903000D02*
X219392000Y-236284000D01*
X210502000Y-235903000D02*
X219392000Y-235903000D01*
X207962000Y-238443000D02*
X207962000Y-238824000D01*
X208343000Y-242253000D02*
X207962000Y-242253000D01*
X211847838Y-242253000D02*
X210121000Y-242253000D01*
X219392000Y-240348000D02*
X214312000Y-240348000D01*
X219392000Y-239332000D02*
X219392000Y-240348000D01*
X207962000Y-241872000D02*
X207962000Y-242253000D01*
X211847838Y-242271960D02*
G75*
G02*
X214312000Y-240348000I2464162J-616040D01*
G01*
X207962000Y-238443000D02*
G75*
G02*
X210502000Y-235903000I2540000J0D01*
G01*
%TO.C,K29*%
X219392000Y-216853000D02*
X219392000Y-217234000D01*
X210502000Y-216853000D02*
X219392000Y-216853000D01*
X207962000Y-219393000D02*
X207962000Y-219774000D01*
X208343000Y-223203000D02*
X207962000Y-223203000D01*
X211847838Y-223203000D02*
X210121000Y-223203000D01*
X219392000Y-221298000D02*
X214312000Y-221298000D01*
X219392000Y-220282000D02*
X219392000Y-221298000D01*
X207962000Y-222822000D02*
X207962000Y-223203000D01*
X211847838Y-223221960D02*
G75*
G02*
X214312000Y-221298000I2464162J-616040D01*
G01*
X207962000Y-219393000D02*
G75*
G02*
X210502000Y-216853000I2540000J0D01*
G01*
%TO.C,K28*%
X219392000Y-197803000D02*
X219392000Y-198184000D01*
X210502000Y-197803000D02*
X219392000Y-197803000D01*
X207962000Y-200343000D02*
X207962000Y-200724000D01*
X208343000Y-204153000D02*
X207962000Y-204153000D01*
X211847838Y-204153000D02*
X210121000Y-204153000D01*
X219392000Y-202248000D02*
X214312000Y-202248000D01*
X219392000Y-201232000D02*
X219392000Y-202248000D01*
X207962000Y-203772000D02*
X207962000Y-204153000D01*
X211847838Y-204171960D02*
G75*
G02*
X214312000Y-202248000I2464162J-616040D01*
G01*
X207962000Y-200343000D02*
G75*
G02*
X210502000Y-197803000I2540000J0D01*
G01*
%TO.C,K27*%
X219392000Y-178753000D02*
X219392000Y-179134000D01*
X210502000Y-178753000D02*
X219392000Y-178753000D01*
X207962000Y-181293000D02*
X207962000Y-181674000D01*
X208343000Y-185103000D02*
X207962000Y-185103000D01*
X211847838Y-185103000D02*
X210121000Y-185103000D01*
X219392000Y-183198000D02*
X214312000Y-183198000D01*
X219392000Y-182182000D02*
X219392000Y-183198000D01*
X207962000Y-184722000D02*
X207962000Y-185103000D01*
X211847838Y-185121960D02*
G75*
G02*
X214312000Y-183198000I2464162J-616040D01*
G01*
X207962000Y-181293000D02*
G75*
G02*
X210502000Y-178753000I2540000J0D01*
G01*
%TO.C,K26*%
X219392000Y-159703000D02*
X219392000Y-160084000D01*
X210502000Y-159703000D02*
X219392000Y-159703000D01*
X207962000Y-162243000D02*
X207962000Y-162624000D01*
X208343000Y-166053000D02*
X207962000Y-166053000D01*
X211847838Y-166053000D02*
X210121000Y-166053000D01*
X219392000Y-164148000D02*
X214312000Y-164148000D01*
X219392000Y-163132000D02*
X219392000Y-164148000D01*
X207962000Y-165672000D02*
X207962000Y-166053000D01*
X211847838Y-166071960D02*
G75*
G02*
X214312000Y-164148000I2464162J-616040D01*
G01*
X207962000Y-162243000D02*
G75*
G02*
X210502000Y-159703000I2540000J0D01*
G01*
%TO.C,K25*%
X200342000Y-235903000D02*
X200342000Y-236284000D01*
X191452000Y-235903000D02*
X200342000Y-235903000D01*
X188912000Y-238443000D02*
X188912000Y-238824000D01*
X189293000Y-242253000D02*
X188912000Y-242253000D01*
X192797838Y-242253000D02*
X191071000Y-242253000D01*
X200342000Y-240348000D02*
X195262000Y-240348000D01*
X200342000Y-239332000D02*
X200342000Y-240348000D01*
X188912000Y-241872000D02*
X188912000Y-242253000D01*
X192797838Y-242271960D02*
G75*
G02*
X195262000Y-240348000I2464162J-616040D01*
G01*
X188912000Y-238443000D02*
G75*
G02*
X191452000Y-235903000I2540000J0D01*
G01*
%TO.C,K24*%
X200342000Y-216853000D02*
X200342000Y-217234000D01*
X191452000Y-216853000D02*
X200342000Y-216853000D01*
X188912000Y-219393000D02*
X188912000Y-219774000D01*
X189293000Y-223203000D02*
X188912000Y-223203000D01*
X192797838Y-223203000D02*
X191071000Y-223203000D01*
X200342000Y-221298000D02*
X195262000Y-221298000D01*
X200342000Y-220282000D02*
X200342000Y-221298000D01*
X188912000Y-222822000D02*
X188912000Y-223203000D01*
X192797838Y-223221960D02*
G75*
G02*
X195262000Y-221298000I2464162J-616040D01*
G01*
X188912000Y-219393000D02*
G75*
G02*
X191452000Y-216853000I2540000J0D01*
G01*
%TO.C,K23*%
X200342000Y-197803000D02*
X200342000Y-198184000D01*
X191452000Y-197803000D02*
X200342000Y-197803000D01*
X188912000Y-200343000D02*
X188912000Y-200724000D01*
X189293000Y-204153000D02*
X188912000Y-204153000D01*
X192797838Y-204153000D02*
X191071000Y-204153000D01*
X200342000Y-202248000D02*
X195262000Y-202248000D01*
X200342000Y-201232000D02*
X200342000Y-202248000D01*
X188912000Y-203772000D02*
X188912000Y-204153000D01*
X192797838Y-204171960D02*
G75*
G02*
X195262000Y-202248000I2464162J-616040D01*
G01*
X188912000Y-200343000D02*
G75*
G02*
X191452000Y-197803000I2540000J0D01*
G01*
%TO.C,K22*%
X200342000Y-178753000D02*
X200342000Y-179134000D01*
X191452000Y-178753000D02*
X200342000Y-178753000D01*
X188912000Y-181293000D02*
X188912000Y-181674000D01*
X189293000Y-185103000D02*
X188912000Y-185103000D01*
X192797838Y-185103000D02*
X191071000Y-185103000D01*
X200342000Y-183198000D02*
X195262000Y-183198000D01*
X200342000Y-182182000D02*
X200342000Y-183198000D01*
X188912000Y-184722000D02*
X188912000Y-185103000D01*
X192797838Y-185121960D02*
G75*
G02*
X195262000Y-183198000I2464162J-616040D01*
G01*
X188912000Y-181293000D02*
G75*
G02*
X191452000Y-178753000I2540000J0D01*
G01*
%TO.C,K21*%
X200342000Y-159703000D02*
X200342000Y-160084000D01*
X191452000Y-159703000D02*
X200342000Y-159703000D01*
X188912000Y-162243000D02*
X188912000Y-162624000D01*
X189293000Y-166053000D02*
X188912000Y-166053000D01*
X192797838Y-166053000D02*
X191071000Y-166053000D01*
X200342000Y-164148000D02*
X195262000Y-164148000D01*
X200342000Y-163132000D02*
X200342000Y-164148000D01*
X188912000Y-165672000D02*
X188912000Y-166053000D01*
X192797838Y-166071960D02*
G75*
G02*
X195262000Y-164148000I2464162J-616040D01*
G01*
X188912000Y-162243000D02*
G75*
G02*
X191452000Y-159703000I2540000J0D01*
G01*
%TO.C,K20*%
X181292000Y-235903000D02*
X181292000Y-236284000D01*
X172402000Y-235903000D02*
X181292000Y-235903000D01*
X169862000Y-238443000D02*
X169862000Y-238824000D01*
X170243000Y-242253000D02*
X169862000Y-242253000D01*
X173747838Y-242253000D02*
X172021000Y-242253000D01*
X181292000Y-240348000D02*
X176212000Y-240348000D01*
X181292000Y-239332000D02*
X181292000Y-240348000D01*
X169862000Y-241872000D02*
X169862000Y-242253000D01*
X173747838Y-242271960D02*
G75*
G02*
X176212000Y-240348000I2464162J-616040D01*
G01*
X169862000Y-238443000D02*
G75*
G02*
X172402000Y-235903000I2540000J0D01*
G01*
%TO.C,K19*%
X181292000Y-216853000D02*
X181292000Y-217234000D01*
X172402000Y-216853000D02*
X181292000Y-216853000D01*
X169862000Y-219393000D02*
X169862000Y-219774000D01*
X170243000Y-223203000D02*
X169862000Y-223203000D01*
X173747838Y-223203000D02*
X172021000Y-223203000D01*
X181292000Y-221298000D02*
X176212000Y-221298000D01*
X181292000Y-220282000D02*
X181292000Y-221298000D01*
X169862000Y-222822000D02*
X169862000Y-223203000D01*
X173747838Y-223221960D02*
G75*
G02*
X176212000Y-221298000I2464162J-616040D01*
G01*
X169862000Y-219393000D02*
G75*
G02*
X172402000Y-216853000I2540000J0D01*
G01*
%TO.C,K18*%
X181292000Y-197803000D02*
X181292000Y-198184000D01*
X172402000Y-197803000D02*
X181292000Y-197803000D01*
X169862000Y-200343000D02*
X169862000Y-200724000D01*
X170243000Y-204153000D02*
X169862000Y-204153000D01*
X173747838Y-204153000D02*
X172021000Y-204153000D01*
X181292000Y-202248000D02*
X176212000Y-202248000D01*
X181292000Y-201232000D02*
X181292000Y-202248000D01*
X169862000Y-203772000D02*
X169862000Y-204153000D01*
X173747838Y-204171960D02*
G75*
G02*
X176212000Y-202248000I2464162J-616040D01*
G01*
X169862000Y-200343000D02*
G75*
G02*
X172402000Y-197803000I2540000J0D01*
G01*
%TO.C,K17*%
X181292000Y-178753000D02*
X181292000Y-179134000D01*
X172402000Y-178753000D02*
X181292000Y-178753000D01*
X169862000Y-181293000D02*
X169862000Y-181674000D01*
X170243000Y-185103000D02*
X169862000Y-185103000D01*
X173747838Y-185103000D02*
X172021000Y-185103000D01*
X181292000Y-183198000D02*
X176212000Y-183198000D01*
X181292000Y-182182000D02*
X181292000Y-183198000D01*
X169862000Y-184722000D02*
X169862000Y-185103000D01*
X173747838Y-185121960D02*
G75*
G02*
X176212000Y-183198000I2464162J-616040D01*
G01*
X169862000Y-181293000D02*
G75*
G02*
X172402000Y-178753000I2540000J0D01*
G01*
%TO.C,K16*%
X181292000Y-159703000D02*
X181292000Y-160084000D01*
X172402000Y-159703000D02*
X181292000Y-159703000D01*
X169862000Y-162243000D02*
X169862000Y-162624000D01*
X170243000Y-166053000D02*
X169862000Y-166053000D01*
X173747838Y-166053000D02*
X172021000Y-166053000D01*
X181292000Y-164148000D02*
X176212000Y-164148000D01*
X181292000Y-163132000D02*
X181292000Y-164148000D01*
X169862000Y-165672000D02*
X169862000Y-166053000D01*
X173747838Y-166071960D02*
G75*
G02*
X176212000Y-164148000I2464162J-616040D01*
G01*
X169862000Y-162243000D02*
G75*
G02*
X172402000Y-159703000I2540000J0D01*
G01*
%TO.C,K15*%
X162242000Y-235903000D02*
X162242000Y-236284000D01*
X153352000Y-235903000D02*
X162242000Y-235903000D01*
X150812000Y-238443000D02*
X150812000Y-238824000D01*
X151193000Y-242253000D02*
X150812000Y-242253000D01*
X154697838Y-242253000D02*
X152971000Y-242253000D01*
X162242000Y-240348000D02*
X157162000Y-240348000D01*
X162242000Y-239332000D02*
X162242000Y-240348000D01*
X150812000Y-241872000D02*
X150812000Y-242253000D01*
X154697838Y-242271960D02*
G75*
G02*
X157162000Y-240348000I2464162J-616040D01*
G01*
X150812000Y-238443000D02*
G75*
G02*
X153352000Y-235903000I2540000J0D01*
G01*
%TO.C,K14*%
X162242000Y-216853000D02*
X162242000Y-217234000D01*
X153352000Y-216853000D02*
X162242000Y-216853000D01*
X150812000Y-219393000D02*
X150812000Y-219774000D01*
X151193000Y-223203000D02*
X150812000Y-223203000D01*
X154697838Y-223203000D02*
X152971000Y-223203000D01*
X162242000Y-221298000D02*
X157162000Y-221298000D01*
X162242000Y-220282000D02*
X162242000Y-221298000D01*
X150812000Y-222822000D02*
X150812000Y-223203000D01*
X154697838Y-223221960D02*
G75*
G02*
X157162000Y-221298000I2464162J-616040D01*
G01*
X150812000Y-219393000D02*
G75*
G02*
X153352000Y-216853000I2540000J0D01*
G01*
%TO.C,K13*%
X162242000Y-197803000D02*
X162242000Y-198184000D01*
X153352000Y-197803000D02*
X162242000Y-197803000D01*
X150812000Y-200343000D02*
X150812000Y-200724000D01*
X151193000Y-204153000D02*
X150812000Y-204153000D01*
X154697838Y-204153000D02*
X152971000Y-204153000D01*
X162242000Y-202248000D02*
X157162000Y-202248000D01*
X162242000Y-201232000D02*
X162242000Y-202248000D01*
X150812000Y-203772000D02*
X150812000Y-204153000D01*
X154697838Y-204171960D02*
G75*
G02*
X157162000Y-202248000I2464162J-616040D01*
G01*
X150812000Y-200343000D02*
G75*
G02*
X153352000Y-197803000I2540000J0D01*
G01*
%TO.C,K12*%
X162242000Y-178753000D02*
X162242000Y-179134000D01*
X153352000Y-178753000D02*
X162242000Y-178753000D01*
X150812000Y-181293000D02*
X150812000Y-181674000D01*
X151193000Y-185103000D02*
X150812000Y-185103000D01*
X154697838Y-185103000D02*
X152971000Y-185103000D01*
X162242000Y-183198000D02*
X157162000Y-183198000D01*
X162242000Y-182182000D02*
X162242000Y-183198000D01*
X150812000Y-184722000D02*
X150812000Y-185103000D01*
X154697838Y-185121960D02*
G75*
G02*
X157162000Y-183198000I2464162J-616040D01*
G01*
X150812000Y-181293000D02*
G75*
G02*
X153352000Y-178753000I2540000J0D01*
G01*
%TO.C,K11*%
X162242000Y-159703000D02*
X162242000Y-160084000D01*
X153352000Y-159703000D02*
X162242000Y-159703000D01*
X150812000Y-162243000D02*
X150812000Y-162624000D01*
X151193000Y-166053000D02*
X150812000Y-166053000D01*
X154697838Y-166053000D02*
X152971000Y-166053000D01*
X162242000Y-164148000D02*
X157162000Y-164148000D01*
X162242000Y-163132000D02*
X162242000Y-164148000D01*
X150812000Y-165672000D02*
X150812000Y-166053000D01*
X154697838Y-166071960D02*
G75*
G02*
X157162000Y-164148000I2464162J-616040D01*
G01*
X150812000Y-162243000D02*
G75*
G02*
X153352000Y-159703000I2540000J0D01*
G01*
%TO.C,K10*%
X143192000Y-235903000D02*
X143192000Y-236284000D01*
X134302000Y-235903000D02*
X143192000Y-235903000D01*
X131762000Y-238443000D02*
X131762000Y-238824000D01*
X132143000Y-242253000D02*
X131762000Y-242253000D01*
X135647838Y-242253000D02*
X133921000Y-242253000D01*
X143192000Y-240348000D02*
X138112000Y-240348000D01*
X143192000Y-239332000D02*
X143192000Y-240348000D01*
X131762000Y-241872000D02*
X131762000Y-242253000D01*
X135647838Y-242271960D02*
G75*
G02*
X138112000Y-240348000I2464162J-616040D01*
G01*
X131762000Y-238443000D02*
G75*
G02*
X134302000Y-235903000I2540000J0D01*
G01*
%TO.C,K9*%
X143192000Y-216853000D02*
X143192000Y-217234000D01*
X134302000Y-216853000D02*
X143192000Y-216853000D01*
X131762000Y-219393000D02*
X131762000Y-219774000D01*
X132143000Y-223203000D02*
X131762000Y-223203000D01*
X135647838Y-223203000D02*
X133921000Y-223203000D01*
X143192000Y-221298000D02*
X138112000Y-221298000D01*
X143192000Y-220282000D02*
X143192000Y-221298000D01*
X131762000Y-222822000D02*
X131762000Y-223203000D01*
X135647838Y-223221960D02*
G75*
G02*
X138112000Y-221298000I2464162J-616040D01*
G01*
X131762000Y-219393000D02*
G75*
G02*
X134302000Y-216853000I2540000J0D01*
G01*
%TO.C,K8*%
X143192000Y-197803000D02*
X143192000Y-198184000D01*
X134302000Y-197803000D02*
X143192000Y-197803000D01*
X131762000Y-200343000D02*
X131762000Y-200724000D01*
X132143000Y-204153000D02*
X131762000Y-204153000D01*
X135647838Y-204153000D02*
X133921000Y-204153000D01*
X143192000Y-202248000D02*
X138112000Y-202248000D01*
X143192000Y-201232000D02*
X143192000Y-202248000D01*
X131762000Y-203772000D02*
X131762000Y-204153000D01*
X135647838Y-204171960D02*
G75*
G02*
X138112000Y-202248000I2464162J-616040D01*
G01*
X131762000Y-200343000D02*
G75*
G02*
X134302000Y-197803000I2540000J0D01*
G01*
%TO.C,K7*%
X143192000Y-178753000D02*
X143192000Y-179134000D01*
X134302000Y-178753000D02*
X143192000Y-178753000D01*
X131762000Y-181293000D02*
X131762000Y-181674000D01*
X132143000Y-185103000D02*
X131762000Y-185103000D01*
X135647838Y-185103000D02*
X133921000Y-185103000D01*
X143192000Y-183198000D02*
X138112000Y-183198000D01*
X143192000Y-182182000D02*
X143192000Y-183198000D01*
X131762000Y-184722000D02*
X131762000Y-185103000D01*
X135647838Y-185121960D02*
G75*
G02*
X138112000Y-183198000I2464162J-616040D01*
G01*
X131762000Y-181293000D02*
G75*
G02*
X134302000Y-178753000I2540000J0D01*
G01*
%TO.C,K6*%
X143192000Y-159703000D02*
X143192000Y-160084000D01*
X134302000Y-159703000D02*
X143192000Y-159703000D01*
X131762000Y-162243000D02*
X131762000Y-162624000D01*
X132143000Y-166053000D02*
X131762000Y-166053000D01*
X135647838Y-166053000D02*
X133921000Y-166053000D01*
X143192000Y-164148000D02*
X138112000Y-164148000D01*
X143192000Y-163132000D02*
X143192000Y-164148000D01*
X131762000Y-165672000D02*
X131762000Y-166053000D01*
X135647838Y-166071960D02*
G75*
G02*
X138112000Y-164148000I2464162J-616040D01*
G01*
X131762000Y-162243000D02*
G75*
G02*
X134302000Y-159703000I2540000J0D01*
G01*
%TO.C,K5*%
X124142000Y-235903000D02*
X124142000Y-236284000D01*
X115252000Y-235903000D02*
X124142000Y-235903000D01*
X112712000Y-238443000D02*
X112712000Y-238824000D01*
X113093000Y-242253000D02*
X112712000Y-242253000D01*
X116597838Y-242253000D02*
X114871000Y-242253000D01*
X124142000Y-240348000D02*
X119062000Y-240348000D01*
X124142000Y-239332000D02*
X124142000Y-240348000D01*
X112712000Y-241872000D02*
X112712000Y-242253000D01*
X116597838Y-242271960D02*
G75*
G02*
X119062000Y-240348000I2464162J-616040D01*
G01*
X112712000Y-238443000D02*
G75*
G02*
X115252000Y-235903000I2540000J0D01*
G01*
%TO.C,K4*%
X124142000Y-216853000D02*
X124142000Y-217234000D01*
X115252000Y-216853000D02*
X124142000Y-216853000D01*
X112712000Y-219393000D02*
X112712000Y-219774000D01*
X113093000Y-223203000D02*
X112712000Y-223203000D01*
X116597838Y-223203000D02*
X114871000Y-223203000D01*
X124142000Y-221298000D02*
X119062000Y-221298000D01*
X124142000Y-220282000D02*
X124142000Y-221298000D01*
X112712000Y-222822000D02*
X112712000Y-223203000D01*
X116597838Y-223221960D02*
G75*
G02*
X119062000Y-221298000I2464162J-616040D01*
G01*
X112712000Y-219393000D02*
G75*
G02*
X115252000Y-216853000I2540000J0D01*
G01*
%TO.C,K3*%
X124142000Y-197803000D02*
X124142000Y-198184000D01*
X115252000Y-197803000D02*
X124142000Y-197803000D01*
X112712000Y-200343000D02*
X112712000Y-200724000D01*
X113093000Y-204153000D02*
X112712000Y-204153000D01*
X116597838Y-204153000D02*
X114871000Y-204153000D01*
X124142000Y-202248000D02*
X119062000Y-202248000D01*
X124142000Y-201232000D02*
X124142000Y-202248000D01*
X112712000Y-203772000D02*
X112712000Y-204153000D01*
X116597838Y-204171960D02*
G75*
G02*
X119062000Y-202248000I2464162J-616040D01*
G01*
X112712000Y-200343000D02*
G75*
G02*
X115252000Y-197803000I2540000J0D01*
G01*
%TO.C,K2*%
X124142000Y-178753000D02*
X124142000Y-179134000D01*
X115252000Y-178753000D02*
X124142000Y-178753000D01*
X112712000Y-181293000D02*
X112712000Y-181674000D01*
X113093000Y-185103000D02*
X112712000Y-185103000D01*
X116597838Y-185103000D02*
X114871000Y-185103000D01*
X124142000Y-183198000D02*
X119062000Y-183198000D01*
X124142000Y-182182000D02*
X124142000Y-183198000D01*
X112712000Y-184722000D02*
X112712000Y-185103000D01*
X116597838Y-185121960D02*
G75*
G02*
X119062000Y-183198000I2464162J-616040D01*
G01*
X112712000Y-181293000D02*
G75*
G02*
X115252000Y-178753000I2540000J0D01*
G01*
%TO.C,K1*%
X124142000Y-159703000D02*
X124142000Y-160084000D01*
X115252000Y-159703000D02*
X124142000Y-159703000D01*
X112712000Y-162243000D02*
X112712000Y-162624000D01*
X113093000Y-166053000D02*
X112712000Y-166053000D01*
X116597838Y-166053000D02*
X114871000Y-166053000D01*
X124142000Y-164148000D02*
X119062000Y-164148000D01*
X124142000Y-163132000D02*
X124142000Y-164148000D01*
X112712000Y-165672000D02*
X112712000Y-166053000D01*
X116597838Y-166071960D02*
G75*
G02*
X119062000Y-164148000I2464162J-616040D01*
G01*
X112712000Y-162243000D02*
G75*
G02*
X115252000Y-159703000I2540000J0D01*
G01*
%TO.C,D60*%
X317936904Y-245028571D02*
X317136904Y-245028571D01*
X317136904Y-245219047D01*
X317175000Y-245333333D01*
X317251190Y-245409523D01*
X317327380Y-245447619D01*
X317479761Y-245485714D01*
X317594047Y-245485714D01*
X317746428Y-245447619D01*
X317822619Y-245409523D01*
X317898809Y-245333333D01*
X317936904Y-245219047D01*
X317936904Y-245028571D01*
X317136904Y-246171428D02*
X317136904Y-246019047D01*
X317175000Y-245942857D01*
X317213095Y-245904761D01*
X317327380Y-245828571D01*
X317479761Y-245790476D01*
X317784523Y-245790476D01*
X317860714Y-245828571D01*
X317898809Y-245866666D01*
X317936904Y-245942857D01*
X317936904Y-246095238D01*
X317898809Y-246171428D01*
X317860714Y-246209523D01*
X317784523Y-246247619D01*
X317594047Y-246247619D01*
X317517857Y-246209523D01*
X317479761Y-246171428D01*
X317441666Y-246095238D01*
X317441666Y-245942857D01*
X317479761Y-245866666D01*
X317517857Y-245828571D01*
X317594047Y-245790476D01*
X317136904Y-246742857D02*
X317136904Y-246819047D01*
X317175000Y-246895238D01*
X317213095Y-246933333D01*
X317289285Y-246971428D01*
X317441666Y-247009523D01*
X317632142Y-247009523D01*
X317784523Y-246971428D01*
X317860714Y-246933333D01*
X317898809Y-246895238D01*
X317936904Y-246819047D01*
X317936904Y-246742857D01*
X317898809Y-246666666D01*
X317860714Y-246628571D01*
X317784523Y-246590476D01*
X317632142Y-246552380D01*
X317441666Y-246552380D01*
X317289285Y-246590476D01*
X317213095Y-246628571D01*
X317175000Y-246666666D01*
X317136904Y-246742857D01*
%TO.C,D59*%
X317936904Y-226028571D02*
X317136904Y-226028571D01*
X317136904Y-226219047D01*
X317175000Y-226333333D01*
X317251190Y-226409523D01*
X317327380Y-226447619D01*
X317479761Y-226485714D01*
X317594047Y-226485714D01*
X317746428Y-226447619D01*
X317822619Y-226409523D01*
X317898809Y-226333333D01*
X317936904Y-226219047D01*
X317936904Y-226028571D01*
X317136904Y-227209523D02*
X317136904Y-226828571D01*
X317517857Y-226790476D01*
X317479761Y-226828571D01*
X317441666Y-226904761D01*
X317441666Y-227095238D01*
X317479761Y-227171428D01*
X317517857Y-227209523D01*
X317594047Y-227247619D01*
X317784523Y-227247619D01*
X317860714Y-227209523D01*
X317898809Y-227171428D01*
X317936904Y-227095238D01*
X317936904Y-226904761D01*
X317898809Y-226828571D01*
X317860714Y-226790476D01*
X317936904Y-227628571D02*
X317936904Y-227780952D01*
X317898809Y-227857142D01*
X317860714Y-227895238D01*
X317746428Y-227971428D01*
X317594047Y-228009523D01*
X317289285Y-228009523D01*
X317213095Y-227971428D01*
X317175000Y-227933333D01*
X317136904Y-227857142D01*
X317136904Y-227704761D01*
X317175000Y-227628571D01*
X317213095Y-227590476D01*
X317289285Y-227552380D01*
X317479761Y-227552380D01*
X317555952Y-227590476D01*
X317594047Y-227628571D01*
X317632142Y-227704761D01*
X317632142Y-227857142D01*
X317594047Y-227933333D01*
X317555952Y-227971428D01*
X317479761Y-228009523D01*
%TO.C,D58*%
X317936904Y-207028571D02*
X317136904Y-207028571D01*
X317136904Y-207219047D01*
X317175000Y-207333333D01*
X317251190Y-207409523D01*
X317327380Y-207447619D01*
X317479761Y-207485714D01*
X317594047Y-207485714D01*
X317746428Y-207447619D01*
X317822619Y-207409523D01*
X317898809Y-207333333D01*
X317936904Y-207219047D01*
X317936904Y-207028571D01*
X317136904Y-208209523D02*
X317136904Y-207828571D01*
X317517857Y-207790476D01*
X317479761Y-207828571D01*
X317441666Y-207904761D01*
X317441666Y-208095238D01*
X317479761Y-208171428D01*
X317517857Y-208209523D01*
X317594047Y-208247619D01*
X317784523Y-208247619D01*
X317860714Y-208209523D01*
X317898809Y-208171428D01*
X317936904Y-208095238D01*
X317936904Y-207904761D01*
X317898809Y-207828571D01*
X317860714Y-207790476D01*
X317479761Y-208704761D02*
X317441666Y-208628571D01*
X317403571Y-208590476D01*
X317327380Y-208552380D01*
X317289285Y-208552380D01*
X317213095Y-208590476D01*
X317175000Y-208628571D01*
X317136904Y-208704761D01*
X317136904Y-208857142D01*
X317175000Y-208933333D01*
X317213095Y-208971428D01*
X317289285Y-209009523D01*
X317327380Y-209009523D01*
X317403571Y-208971428D01*
X317441666Y-208933333D01*
X317479761Y-208857142D01*
X317479761Y-208704761D01*
X317517857Y-208628571D01*
X317555952Y-208590476D01*
X317632142Y-208552380D01*
X317784523Y-208552380D01*
X317860714Y-208590476D01*
X317898809Y-208628571D01*
X317936904Y-208704761D01*
X317936904Y-208857142D01*
X317898809Y-208933333D01*
X317860714Y-208971428D01*
X317784523Y-209009523D01*
X317632142Y-209009523D01*
X317555952Y-208971428D01*
X317517857Y-208933333D01*
X317479761Y-208857142D01*
%TO.C,D57*%
X317936904Y-188028571D02*
X317136904Y-188028571D01*
X317136904Y-188219047D01*
X317175000Y-188333333D01*
X317251190Y-188409523D01*
X317327380Y-188447619D01*
X317479761Y-188485714D01*
X317594047Y-188485714D01*
X317746428Y-188447619D01*
X317822619Y-188409523D01*
X317898809Y-188333333D01*
X317936904Y-188219047D01*
X317936904Y-188028571D01*
X317136904Y-189209523D02*
X317136904Y-188828571D01*
X317517857Y-188790476D01*
X317479761Y-188828571D01*
X317441666Y-188904761D01*
X317441666Y-189095238D01*
X317479761Y-189171428D01*
X317517857Y-189209523D01*
X317594047Y-189247619D01*
X317784523Y-189247619D01*
X317860714Y-189209523D01*
X317898809Y-189171428D01*
X317936904Y-189095238D01*
X317936904Y-188904761D01*
X317898809Y-188828571D01*
X317860714Y-188790476D01*
X317136904Y-189514285D02*
X317136904Y-190047619D01*
X317936904Y-189704761D01*
%TO.C,D56*%
X317936904Y-169028571D02*
X317136904Y-169028571D01*
X317136904Y-169219047D01*
X317175000Y-169333333D01*
X317251190Y-169409523D01*
X317327380Y-169447619D01*
X317479761Y-169485714D01*
X317594047Y-169485714D01*
X317746428Y-169447619D01*
X317822619Y-169409523D01*
X317898809Y-169333333D01*
X317936904Y-169219047D01*
X317936904Y-169028571D01*
X317136904Y-170209523D02*
X317136904Y-169828571D01*
X317517857Y-169790476D01*
X317479761Y-169828571D01*
X317441666Y-169904761D01*
X317441666Y-170095238D01*
X317479761Y-170171428D01*
X317517857Y-170209523D01*
X317594047Y-170247619D01*
X317784523Y-170247619D01*
X317860714Y-170209523D01*
X317898809Y-170171428D01*
X317936904Y-170095238D01*
X317936904Y-169904761D01*
X317898809Y-169828571D01*
X317860714Y-169790476D01*
X317136904Y-170933333D02*
X317136904Y-170780952D01*
X317175000Y-170704761D01*
X317213095Y-170666666D01*
X317327380Y-170590476D01*
X317479761Y-170552380D01*
X317784523Y-170552380D01*
X317860714Y-170590476D01*
X317898809Y-170628571D01*
X317936904Y-170704761D01*
X317936904Y-170857142D01*
X317898809Y-170933333D01*
X317860714Y-170971428D01*
X317784523Y-171009523D01*
X317594047Y-171009523D01*
X317517857Y-170971428D01*
X317479761Y-170933333D01*
X317441666Y-170857142D01*
X317441666Y-170704761D01*
X317479761Y-170628571D01*
X317517857Y-170590476D01*
X317594047Y-170552380D01*
%TO.C,D55*%
X298936904Y-245028571D02*
X298136904Y-245028571D01*
X298136904Y-245219047D01*
X298175000Y-245333333D01*
X298251190Y-245409523D01*
X298327380Y-245447619D01*
X298479761Y-245485714D01*
X298594047Y-245485714D01*
X298746428Y-245447619D01*
X298822619Y-245409523D01*
X298898809Y-245333333D01*
X298936904Y-245219047D01*
X298936904Y-245028571D01*
X298136904Y-246209523D02*
X298136904Y-245828571D01*
X298517857Y-245790476D01*
X298479761Y-245828571D01*
X298441666Y-245904761D01*
X298441666Y-246095238D01*
X298479761Y-246171428D01*
X298517857Y-246209523D01*
X298594047Y-246247619D01*
X298784523Y-246247619D01*
X298860714Y-246209523D01*
X298898809Y-246171428D01*
X298936904Y-246095238D01*
X298936904Y-245904761D01*
X298898809Y-245828571D01*
X298860714Y-245790476D01*
X298136904Y-246971428D02*
X298136904Y-246590476D01*
X298517857Y-246552380D01*
X298479761Y-246590476D01*
X298441666Y-246666666D01*
X298441666Y-246857142D01*
X298479761Y-246933333D01*
X298517857Y-246971428D01*
X298594047Y-247009523D01*
X298784523Y-247009523D01*
X298860714Y-246971428D01*
X298898809Y-246933333D01*
X298936904Y-246857142D01*
X298936904Y-246666666D01*
X298898809Y-246590476D01*
X298860714Y-246552380D01*
%TO.C,D54*%
X298936904Y-226028571D02*
X298136904Y-226028571D01*
X298136904Y-226219047D01*
X298175000Y-226333333D01*
X298251190Y-226409523D01*
X298327380Y-226447619D01*
X298479761Y-226485714D01*
X298594047Y-226485714D01*
X298746428Y-226447619D01*
X298822619Y-226409523D01*
X298898809Y-226333333D01*
X298936904Y-226219047D01*
X298936904Y-226028571D01*
X298136904Y-227209523D02*
X298136904Y-226828571D01*
X298517857Y-226790476D01*
X298479761Y-226828571D01*
X298441666Y-226904761D01*
X298441666Y-227095238D01*
X298479761Y-227171428D01*
X298517857Y-227209523D01*
X298594047Y-227247619D01*
X298784523Y-227247619D01*
X298860714Y-227209523D01*
X298898809Y-227171428D01*
X298936904Y-227095238D01*
X298936904Y-226904761D01*
X298898809Y-226828571D01*
X298860714Y-226790476D01*
X298403571Y-227933333D02*
X298936904Y-227933333D01*
X298098809Y-227742857D02*
X298670238Y-227552380D01*
X298670238Y-228047619D01*
%TO.C,D53*%
X298936904Y-207028571D02*
X298136904Y-207028571D01*
X298136904Y-207219047D01*
X298175000Y-207333333D01*
X298251190Y-207409523D01*
X298327380Y-207447619D01*
X298479761Y-207485714D01*
X298594047Y-207485714D01*
X298746428Y-207447619D01*
X298822619Y-207409523D01*
X298898809Y-207333333D01*
X298936904Y-207219047D01*
X298936904Y-207028571D01*
X298136904Y-208209523D02*
X298136904Y-207828571D01*
X298517857Y-207790476D01*
X298479761Y-207828571D01*
X298441666Y-207904761D01*
X298441666Y-208095238D01*
X298479761Y-208171428D01*
X298517857Y-208209523D01*
X298594047Y-208247619D01*
X298784523Y-208247619D01*
X298860714Y-208209523D01*
X298898809Y-208171428D01*
X298936904Y-208095238D01*
X298936904Y-207904761D01*
X298898809Y-207828571D01*
X298860714Y-207790476D01*
X298136904Y-208514285D02*
X298136904Y-209009523D01*
X298441666Y-208742857D01*
X298441666Y-208857142D01*
X298479761Y-208933333D01*
X298517857Y-208971428D01*
X298594047Y-209009523D01*
X298784523Y-209009523D01*
X298860714Y-208971428D01*
X298898809Y-208933333D01*
X298936904Y-208857142D01*
X298936904Y-208628571D01*
X298898809Y-208552380D01*
X298860714Y-208514285D01*
%TO.C,D52*%
X298936904Y-188028571D02*
X298136904Y-188028571D01*
X298136904Y-188219047D01*
X298175000Y-188333333D01*
X298251190Y-188409523D01*
X298327380Y-188447619D01*
X298479761Y-188485714D01*
X298594047Y-188485714D01*
X298746428Y-188447619D01*
X298822619Y-188409523D01*
X298898809Y-188333333D01*
X298936904Y-188219047D01*
X298936904Y-188028571D01*
X298136904Y-189209523D02*
X298136904Y-188828571D01*
X298517857Y-188790476D01*
X298479761Y-188828571D01*
X298441666Y-188904761D01*
X298441666Y-189095238D01*
X298479761Y-189171428D01*
X298517857Y-189209523D01*
X298594047Y-189247619D01*
X298784523Y-189247619D01*
X298860714Y-189209523D01*
X298898809Y-189171428D01*
X298936904Y-189095238D01*
X298936904Y-188904761D01*
X298898809Y-188828571D01*
X298860714Y-188790476D01*
X298213095Y-189552380D02*
X298175000Y-189590476D01*
X298136904Y-189666666D01*
X298136904Y-189857142D01*
X298175000Y-189933333D01*
X298213095Y-189971428D01*
X298289285Y-190009523D01*
X298365476Y-190009523D01*
X298479761Y-189971428D01*
X298936904Y-189514285D01*
X298936904Y-190009523D01*
%TO.C,D51*%
X298936904Y-169028571D02*
X298136904Y-169028571D01*
X298136904Y-169219047D01*
X298175000Y-169333333D01*
X298251190Y-169409523D01*
X298327380Y-169447619D01*
X298479761Y-169485714D01*
X298594047Y-169485714D01*
X298746428Y-169447619D01*
X298822619Y-169409523D01*
X298898809Y-169333333D01*
X298936904Y-169219047D01*
X298936904Y-169028571D01*
X298136904Y-170209523D02*
X298136904Y-169828571D01*
X298517857Y-169790476D01*
X298479761Y-169828571D01*
X298441666Y-169904761D01*
X298441666Y-170095238D01*
X298479761Y-170171428D01*
X298517857Y-170209523D01*
X298594047Y-170247619D01*
X298784523Y-170247619D01*
X298860714Y-170209523D01*
X298898809Y-170171428D01*
X298936904Y-170095238D01*
X298936904Y-169904761D01*
X298898809Y-169828571D01*
X298860714Y-169790476D01*
X298936904Y-171009523D02*
X298936904Y-170552380D01*
X298936904Y-170780952D02*
X298136904Y-170780952D01*
X298251190Y-170704761D01*
X298327380Y-170628571D01*
X298365476Y-170552380D01*
%TO.C,D50*%
X279936904Y-245028571D02*
X279136904Y-245028571D01*
X279136904Y-245219047D01*
X279175000Y-245333333D01*
X279251190Y-245409523D01*
X279327380Y-245447619D01*
X279479761Y-245485714D01*
X279594047Y-245485714D01*
X279746428Y-245447619D01*
X279822619Y-245409523D01*
X279898809Y-245333333D01*
X279936904Y-245219047D01*
X279936904Y-245028571D01*
X279136904Y-246209523D02*
X279136904Y-245828571D01*
X279517857Y-245790476D01*
X279479761Y-245828571D01*
X279441666Y-245904761D01*
X279441666Y-246095238D01*
X279479761Y-246171428D01*
X279517857Y-246209523D01*
X279594047Y-246247619D01*
X279784523Y-246247619D01*
X279860714Y-246209523D01*
X279898809Y-246171428D01*
X279936904Y-246095238D01*
X279936904Y-245904761D01*
X279898809Y-245828571D01*
X279860714Y-245790476D01*
X279136904Y-246742857D02*
X279136904Y-246819047D01*
X279175000Y-246895238D01*
X279213095Y-246933333D01*
X279289285Y-246971428D01*
X279441666Y-247009523D01*
X279632142Y-247009523D01*
X279784523Y-246971428D01*
X279860714Y-246933333D01*
X279898809Y-246895238D01*
X279936904Y-246819047D01*
X279936904Y-246742857D01*
X279898809Y-246666666D01*
X279860714Y-246628571D01*
X279784523Y-246590476D01*
X279632142Y-246552380D01*
X279441666Y-246552380D01*
X279289285Y-246590476D01*
X279213095Y-246628571D01*
X279175000Y-246666666D01*
X279136904Y-246742857D01*
%TO.C,D49*%
X279936904Y-226028571D02*
X279136904Y-226028571D01*
X279136904Y-226219047D01*
X279175000Y-226333333D01*
X279251190Y-226409523D01*
X279327380Y-226447619D01*
X279479761Y-226485714D01*
X279594047Y-226485714D01*
X279746428Y-226447619D01*
X279822619Y-226409523D01*
X279898809Y-226333333D01*
X279936904Y-226219047D01*
X279936904Y-226028571D01*
X279403571Y-227171428D02*
X279936904Y-227171428D01*
X279098809Y-226980952D02*
X279670238Y-226790476D01*
X279670238Y-227285714D01*
X279936904Y-227628571D02*
X279936904Y-227780952D01*
X279898809Y-227857142D01*
X279860714Y-227895238D01*
X279746428Y-227971428D01*
X279594047Y-228009523D01*
X279289285Y-228009523D01*
X279213095Y-227971428D01*
X279175000Y-227933333D01*
X279136904Y-227857142D01*
X279136904Y-227704761D01*
X279175000Y-227628571D01*
X279213095Y-227590476D01*
X279289285Y-227552380D01*
X279479761Y-227552380D01*
X279555952Y-227590476D01*
X279594047Y-227628571D01*
X279632142Y-227704761D01*
X279632142Y-227857142D01*
X279594047Y-227933333D01*
X279555952Y-227971428D01*
X279479761Y-228009523D01*
%TO.C,D48*%
X279936904Y-207028571D02*
X279136904Y-207028571D01*
X279136904Y-207219047D01*
X279175000Y-207333333D01*
X279251190Y-207409523D01*
X279327380Y-207447619D01*
X279479761Y-207485714D01*
X279594047Y-207485714D01*
X279746428Y-207447619D01*
X279822619Y-207409523D01*
X279898809Y-207333333D01*
X279936904Y-207219047D01*
X279936904Y-207028571D01*
X279403571Y-208171428D02*
X279936904Y-208171428D01*
X279098809Y-207980952D02*
X279670238Y-207790476D01*
X279670238Y-208285714D01*
X279479761Y-208704761D02*
X279441666Y-208628571D01*
X279403571Y-208590476D01*
X279327380Y-208552380D01*
X279289285Y-208552380D01*
X279213095Y-208590476D01*
X279175000Y-208628571D01*
X279136904Y-208704761D01*
X279136904Y-208857142D01*
X279175000Y-208933333D01*
X279213095Y-208971428D01*
X279289285Y-209009523D01*
X279327380Y-209009523D01*
X279403571Y-208971428D01*
X279441666Y-208933333D01*
X279479761Y-208857142D01*
X279479761Y-208704761D01*
X279517857Y-208628571D01*
X279555952Y-208590476D01*
X279632142Y-208552380D01*
X279784523Y-208552380D01*
X279860714Y-208590476D01*
X279898809Y-208628571D01*
X279936904Y-208704761D01*
X279936904Y-208857142D01*
X279898809Y-208933333D01*
X279860714Y-208971428D01*
X279784523Y-209009523D01*
X279632142Y-209009523D01*
X279555952Y-208971428D01*
X279517857Y-208933333D01*
X279479761Y-208857142D01*
%TO.C,D47*%
X279936904Y-188028571D02*
X279136904Y-188028571D01*
X279136904Y-188219047D01*
X279175000Y-188333333D01*
X279251190Y-188409523D01*
X279327380Y-188447619D01*
X279479761Y-188485714D01*
X279594047Y-188485714D01*
X279746428Y-188447619D01*
X279822619Y-188409523D01*
X279898809Y-188333333D01*
X279936904Y-188219047D01*
X279936904Y-188028571D01*
X279403571Y-189171428D02*
X279936904Y-189171428D01*
X279098809Y-188980952D02*
X279670238Y-188790476D01*
X279670238Y-189285714D01*
X279136904Y-189514285D02*
X279136904Y-190047619D01*
X279936904Y-189704761D01*
%TO.C,D46*%
X279936904Y-169028571D02*
X279136904Y-169028571D01*
X279136904Y-169219047D01*
X279175000Y-169333333D01*
X279251190Y-169409523D01*
X279327380Y-169447619D01*
X279479761Y-169485714D01*
X279594047Y-169485714D01*
X279746428Y-169447619D01*
X279822619Y-169409523D01*
X279898809Y-169333333D01*
X279936904Y-169219047D01*
X279936904Y-169028571D01*
X279403571Y-170171428D02*
X279936904Y-170171428D01*
X279098809Y-169980952D02*
X279670238Y-169790476D01*
X279670238Y-170285714D01*
X279136904Y-170933333D02*
X279136904Y-170780952D01*
X279175000Y-170704761D01*
X279213095Y-170666666D01*
X279327380Y-170590476D01*
X279479761Y-170552380D01*
X279784523Y-170552380D01*
X279860714Y-170590476D01*
X279898809Y-170628571D01*
X279936904Y-170704761D01*
X279936904Y-170857142D01*
X279898809Y-170933333D01*
X279860714Y-170971428D01*
X279784523Y-171009523D01*
X279594047Y-171009523D01*
X279517857Y-170971428D01*
X279479761Y-170933333D01*
X279441666Y-170857142D01*
X279441666Y-170704761D01*
X279479761Y-170628571D01*
X279517857Y-170590476D01*
X279594047Y-170552380D01*
%TO.C,D45*%
X260936904Y-245028571D02*
X260136904Y-245028571D01*
X260136904Y-245219047D01*
X260175000Y-245333333D01*
X260251190Y-245409523D01*
X260327380Y-245447619D01*
X260479761Y-245485714D01*
X260594047Y-245485714D01*
X260746428Y-245447619D01*
X260822619Y-245409523D01*
X260898809Y-245333333D01*
X260936904Y-245219047D01*
X260936904Y-245028571D01*
X260403571Y-246171428D02*
X260936904Y-246171428D01*
X260098809Y-245980952D02*
X260670238Y-245790476D01*
X260670238Y-246285714D01*
X260136904Y-246971428D02*
X260136904Y-246590476D01*
X260517857Y-246552380D01*
X260479761Y-246590476D01*
X260441666Y-246666666D01*
X260441666Y-246857142D01*
X260479761Y-246933333D01*
X260517857Y-246971428D01*
X260594047Y-247009523D01*
X260784523Y-247009523D01*
X260860714Y-246971428D01*
X260898809Y-246933333D01*
X260936904Y-246857142D01*
X260936904Y-246666666D01*
X260898809Y-246590476D01*
X260860714Y-246552380D01*
%TO.C,D44*%
X260936904Y-226028571D02*
X260136904Y-226028571D01*
X260136904Y-226219047D01*
X260175000Y-226333333D01*
X260251190Y-226409523D01*
X260327380Y-226447619D01*
X260479761Y-226485714D01*
X260594047Y-226485714D01*
X260746428Y-226447619D01*
X260822619Y-226409523D01*
X260898809Y-226333333D01*
X260936904Y-226219047D01*
X260936904Y-226028571D01*
X260403571Y-227171428D02*
X260936904Y-227171428D01*
X260098809Y-226980952D02*
X260670238Y-226790476D01*
X260670238Y-227285714D01*
X260403571Y-227933333D02*
X260936904Y-227933333D01*
X260098809Y-227742857D02*
X260670238Y-227552380D01*
X260670238Y-228047619D01*
%TO.C,D43*%
X260936904Y-207028571D02*
X260136904Y-207028571D01*
X260136904Y-207219047D01*
X260175000Y-207333333D01*
X260251190Y-207409523D01*
X260327380Y-207447619D01*
X260479761Y-207485714D01*
X260594047Y-207485714D01*
X260746428Y-207447619D01*
X260822619Y-207409523D01*
X260898809Y-207333333D01*
X260936904Y-207219047D01*
X260936904Y-207028571D01*
X260403571Y-208171428D02*
X260936904Y-208171428D01*
X260098809Y-207980952D02*
X260670238Y-207790476D01*
X260670238Y-208285714D01*
X260136904Y-208514285D02*
X260136904Y-209009523D01*
X260441666Y-208742857D01*
X260441666Y-208857142D01*
X260479761Y-208933333D01*
X260517857Y-208971428D01*
X260594047Y-209009523D01*
X260784523Y-209009523D01*
X260860714Y-208971428D01*
X260898809Y-208933333D01*
X260936904Y-208857142D01*
X260936904Y-208628571D01*
X260898809Y-208552380D01*
X260860714Y-208514285D01*
%TO.C,D42*%
X260936904Y-188028571D02*
X260136904Y-188028571D01*
X260136904Y-188219047D01*
X260175000Y-188333333D01*
X260251190Y-188409523D01*
X260327380Y-188447619D01*
X260479761Y-188485714D01*
X260594047Y-188485714D01*
X260746428Y-188447619D01*
X260822619Y-188409523D01*
X260898809Y-188333333D01*
X260936904Y-188219047D01*
X260936904Y-188028571D01*
X260403571Y-189171428D02*
X260936904Y-189171428D01*
X260098809Y-188980952D02*
X260670238Y-188790476D01*
X260670238Y-189285714D01*
X260213095Y-189552380D02*
X260175000Y-189590476D01*
X260136904Y-189666666D01*
X260136904Y-189857142D01*
X260175000Y-189933333D01*
X260213095Y-189971428D01*
X260289285Y-190009523D01*
X260365476Y-190009523D01*
X260479761Y-189971428D01*
X260936904Y-189514285D01*
X260936904Y-190009523D01*
%TO.C,D41*%
X260936904Y-169028571D02*
X260136904Y-169028571D01*
X260136904Y-169219047D01*
X260175000Y-169333333D01*
X260251190Y-169409523D01*
X260327380Y-169447619D01*
X260479761Y-169485714D01*
X260594047Y-169485714D01*
X260746428Y-169447619D01*
X260822619Y-169409523D01*
X260898809Y-169333333D01*
X260936904Y-169219047D01*
X260936904Y-169028571D01*
X260403571Y-170171428D02*
X260936904Y-170171428D01*
X260098809Y-169980952D02*
X260670238Y-169790476D01*
X260670238Y-170285714D01*
X260936904Y-171009523D02*
X260936904Y-170552380D01*
X260936904Y-170780952D02*
X260136904Y-170780952D01*
X260251190Y-170704761D01*
X260327380Y-170628571D01*
X260365476Y-170552380D01*
%TO.C,D40*%
X241936904Y-245028571D02*
X241136904Y-245028571D01*
X241136904Y-245219047D01*
X241175000Y-245333333D01*
X241251190Y-245409523D01*
X241327380Y-245447619D01*
X241479761Y-245485714D01*
X241594047Y-245485714D01*
X241746428Y-245447619D01*
X241822619Y-245409523D01*
X241898809Y-245333333D01*
X241936904Y-245219047D01*
X241936904Y-245028571D01*
X241403571Y-246171428D02*
X241936904Y-246171428D01*
X241098809Y-245980952D02*
X241670238Y-245790476D01*
X241670238Y-246285714D01*
X241136904Y-246742857D02*
X241136904Y-246819047D01*
X241175000Y-246895238D01*
X241213095Y-246933333D01*
X241289285Y-246971428D01*
X241441666Y-247009523D01*
X241632142Y-247009523D01*
X241784523Y-246971428D01*
X241860714Y-246933333D01*
X241898809Y-246895238D01*
X241936904Y-246819047D01*
X241936904Y-246742857D01*
X241898809Y-246666666D01*
X241860714Y-246628571D01*
X241784523Y-246590476D01*
X241632142Y-246552380D01*
X241441666Y-246552380D01*
X241289285Y-246590476D01*
X241213095Y-246628571D01*
X241175000Y-246666666D01*
X241136904Y-246742857D01*
%TO.C,D39*%
X241936904Y-226028571D02*
X241136904Y-226028571D01*
X241136904Y-226219047D01*
X241175000Y-226333333D01*
X241251190Y-226409523D01*
X241327380Y-226447619D01*
X241479761Y-226485714D01*
X241594047Y-226485714D01*
X241746428Y-226447619D01*
X241822619Y-226409523D01*
X241898809Y-226333333D01*
X241936904Y-226219047D01*
X241936904Y-226028571D01*
X241136904Y-226752380D02*
X241136904Y-227247619D01*
X241441666Y-226980952D01*
X241441666Y-227095238D01*
X241479761Y-227171428D01*
X241517857Y-227209523D01*
X241594047Y-227247619D01*
X241784523Y-227247619D01*
X241860714Y-227209523D01*
X241898809Y-227171428D01*
X241936904Y-227095238D01*
X241936904Y-226866666D01*
X241898809Y-226790476D01*
X241860714Y-226752380D01*
X241936904Y-227628571D02*
X241936904Y-227780952D01*
X241898809Y-227857142D01*
X241860714Y-227895238D01*
X241746428Y-227971428D01*
X241594047Y-228009523D01*
X241289285Y-228009523D01*
X241213095Y-227971428D01*
X241175000Y-227933333D01*
X241136904Y-227857142D01*
X241136904Y-227704761D01*
X241175000Y-227628571D01*
X241213095Y-227590476D01*
X241289285Y-227552380D01*
X241479761Y-227552380D01*
X241555952Y-227590476D01*
X241594047Y-227628571D01*
X241632142Y-227704761D01*
X241632142Y-227857142D01*
X241594047Y-227933333D01*
X241555952Y-227971428D01*
X241479761Y-228009523D01*
%TO.C,D38*%
X241936904Y-207028571D02*
X241136904Y-207028571D01*
X241136904Y-207219047D01*
X241175000Y-207333333D01*
X241251190Y-207409523D01*
X241327380Y-207447619D01*
X241479761Y-207485714D01*
X241594047Y-207485714D01*
X241746428Y-207447619D01*
X241822619Y-207409523D01*
X241898809Y-207333333D01*
X241936904Y-207219047D01*
X241936904Y-207028571D01*
X241136904Y-207752380D02*
X241136904Y-208247619D01*
X241441666Y-207980952D01*
X241441666Y-208095238D01*
X241479761Y-208171428D01*
X241517857Y-208209523D01*
X241594047Y-208247619D01*
X241784523Y-208247619D01*
X241860714Y-208209523D01*
X241898809Y-208171428D01*
X241936904Y-208095238D01*
X241936904Y-207866666D01*
X241898809Y-207790476D01*
X241860714Y-207752380D01*
X241479761Y-208704761D02*
X241441666Y-208628571D01*
X241403571Y-208590476D01*
X241327380Y-208552380D01*
X241289285Y-208552380D01*
X241213095Y-208590476D01*
X241175000Y-208628571D01*
X241136904Y-208704761D01*
X241136904Y-208857142D01*
X241175000Y-208933333D01*
X241213095Y-208971428D01*
X241289285Y-209009523D01*
X241327380Y-209009523D01*
X241403571Y-208971428D01*
X241441666Y-208933333D01*
X241479761Y-208857142D01*
X241479761Y-208704761D01*
X241517857Y-208628571D01*
X241555952Y-208590476D01*
X241632142Y-208552380D01*
X241784523Y-208552380D01*
X241860714Y-208590476D01*
X241898809Y-208628571D01*
X241936904Y-208704761D01*
X241936904Y-208857142D01*
X241898809Y-208933333D01*
X241860714Y-208971428D01*
X241784523Y-209009523D01*
X241632142Y-209009523D01*
X241555952Y-208971428D01*
X241517857Y-208933333D01*
X241479761Y-208857142D01*
%TO.C,D37*%
X241936904Y-188028571D02*
X241136904Y-188028571D01*
X241136904Y-188219047D01*
X241175000Y-188333333D01*
X241251190Y-188409523D01*
X241327380Y-188447619D01*
X241479761Y-188485714D01*
X241594047Y-188485714D01*
X241746428Y-188447619D01*
X241822619Y-188409523D01*
X241898809Y-188333333D01*
X241936904Y-188219047D01*
X241936904Y-188028571D01*
X241136904Y-188752380D02*
X241136904Y-189247619D01*
X241441666Y-188980952D01*
X241441666Y-189095238D01*
X241479761Y-189171428D01*
X241517857Y-189209523D01*
X241594047Y-189247619D01*
X241784523Y-189247619D01*
X241860714Y-189209523D01*
X241898809Y-189171428D01*
X241936904Y-189095238D01*
X241936904Y-188866666D01*
X241898809Y-188790476D01*
X241860714Y-188752380D01*
X241136904Y-189514285D02*
X241136904Y-190047619D01*
X241936904Y-189704761D01*
%TO.C,D36*%
X241936904Y-169028571D02*
X241136904Y-169028571D01*
X241136904Y-169219047D01*
X241175000Y-169333333D01*
X241251190Y-169409523D01*
X241327380Y-169447619D01*
X241479761Y-169485714D01*
X241594047Y-169485714D01*
X241746428Y-169447619D01*
X241822619Y-169409523D01*
X241898809Y-169333333D01*
X241936904Y-169219047D01*
X241936904Y-169028571D01*
X241136904Y-169752380D02*
X241136904Y-170247619D01*
X241441666Y-169980952D01*
X241441666Y-170095238D01*
X241479761Y-170171428D01*
X241517857Y-170209523D01*
X241594047Y-170247619D01*
X241784523Y-170247619D01*
X241860714Y-170209523D01*
X241898809Y-170171428D01*
X241936904Y-170095238D01*
X241936904Y-169866666D01*
X241898809Y-169790476D01*
X241860714Y-169752380D01*
X241136904Y-170933333D02*
X241136904Y-170780952D01*
X241175000Y-170704761D01*
X241213095Y-170666666D01*
X241327380Y-170590476D01*
X241479761Y-170552380D01*
X241784523Y-170552380D01*
X241860714Y-170590476D01*
X241898809Y-170628571D01*
X241936904Y-170704761D01*
X241936904Y-170857142D01*
X241898809Y-170933333D01*
X241860714Y-170971428D01*
X241784523Y-171009523D01*
X241594047Y-171009523D01*
X241517857Y-170971428D01*
X241479761Y-170933333D01*
X241441666Y-170857142D01*
X241441666Y-170704761D01*
X241479761Y-170628571D01*
X241517857Y-170590476D01*
X241594047Y-170552380D01*
%TO.C,D35*%
X222936904Y-245028571D02*
X222136904Y-245028571D01*
X222136904Y-245219047D01*
X222175000Y-245333333D01*
X222251190Y-245409523D01*
X222327380Y-245447619D01*
X222479761Y-245485714D01*
X222594047Y-245485714D01*
X222746428Y-245447619D01*
X222822619Y-245409523D01*
X222898809Y-245333333D01*
X222936904Y-245219047D01*
X222936904Y-245028571D01*
X222136904Y-245752380D02*
X222136904Y-246247619D01*
X222441666Y-245980952D01*
X222441666Y-246095238D01*
X222479761Y-246171428D01*
X222517857Y-246209523D01*
X222594047Y-246247619D01*
X222784523Y-246247619D01*
X222860714Y-246209523D01*
X222898809Y-246171428D01*
X222936904Y-246095238D01*
X222936904Y-245866666D01*
X222898809Y-245790476D01*
X222860714Y-245752380D01*
X222136904Y-246971428D02*
X222136904Y-246590476D01*
X222517857Y-246552380D01*
X222479761Y-246590476D01*
X222441666Y-246666666D01*
X222441666Y-246857142D01*
X222479761Y-246933333D01*
X222517857Y-246971428D01*
X222594047Y-247009523D01*
X222784523Y-247009523D01*
X222860714Y-246971428D01*
X222898809Y-246933333D01*
X222936904Y-246857142D01*
X222936904Y-246666666D01*
X222898809Y-246590476D01*
X222860714Y-246552380D01*
%TO.C,D34*%
X222936904Y-226028571D02*
X222136904Y-226028571D01*
X222136904Y-226219047D01*
X222175000Y-226333333D01*
X222251190Y-226409523D01*
X222327380Y-226447619D01*
X222479761Y-226485714D01*
X222594047Y-226485714D01*
X222746428Y-226447619D01*
X222822619Y-226409523D01*
X222898809Y-226333333D01*
X222936904Y-226219047D01*
X222936904Y-226028571D01*
X222136904Y-226752380D02*
X222136904Y-227247619D01*
X222441666Y-226980952D01*
X222441666Y-227095238D01*
X222479761Y-227171428D01*
X222517857Y-227209523D01*
X222594047Y-227247619D01*
X222784523Y-227247619D01*
X222860714Y-227209523D01*
X222898809Y-227171428D01*
X222936904Y-227095238D01*
X222936904Y-226866666D01*
X222898809Y-226790476D01*
X222860714Y-226752380D01*
X222403571Y-227933333D02*
X222936904Y-227933333D01*
X222098809Y-227742857D02*
X222670238Y-227552380D01*
X222670238Y-228047619D01*
%TO.C,D33*%
X222936904Y-207028571D02*
X222136904Y-207028571D01*
X222136904Y-207219047D01*
X222175000Y-207333333D01*
X222251190Y-207409523D01*
X222327380Y-207447619D01*
X222479761Y-207485714D01*
X222594047Y-207485714D01*
X222746428Y-207447619D01*
X222822619Y-207409523D01*
X222898809Y-207333333D01*
X222936904Y-207219047D01*
X222936904Y-207028571D01*
X222136904Y-207752380D02*
X222136904Y-208247619D01*
X222441666Y-207980952D01*
X222441666Y-208095238D01*
X222479761Y-208171428D01*
X222517857Y-208209523D01*
X222594047Y-208247619D01*
X222784523Y-208247619D01*
X222860714Y-208209523D01*
X222898809Y-208171428D01*
X222936904Y-208095238D01*
X222936904Y-207866666D01*
X222898809Y-207790476D01*
X222860714Y-207752380D01*
X222136904Y-208514285D02*
X222136904Y-209009523D01*
X222441666Y-208742857D01*
X222441666Y-208857142D01*
X222479761Y-208933333D01*
X222517857Y-208971428D01*
X222594047Y-209009523D01*
X222784523Y-209009523D01*
X222860714Y-208971428D01*
X222898809Y-208933333D01*
X222936904Y-208857142D01*
X222936904Y-208628571D01*
X222898809Y-208552380D01*
X222860714Y-208514285D01*
%TO.C,D32*%
X222936904Y-188028571D02*
X222136904Y-188028571D01*
X222136904Y-188219047D01*
X222175000Y-188333333D01*
X222251190Y-188409523D01*
X222327380Y-188447619D01*
X222479761Y-188485714D01*
X222594047Y-188485714D01*
X222746428Y-188447619D01*
X222822619Y-188409523D01*
X222898809Y-188333333D01*
X222936904Y-188219047D01*
X222936904Y-188028571D01*
X222136904Y-188752380D02*
X222136904Y-189247619D01*
X222441666Y-188980952D01*
X222441666Y-189095238D01*
X222479761Y-189171428D01*
X222517857Y-189209523D01*
X222594047Y-189247619D01*
X222784523Y-189247619D01*
X222860714Y-189209523D01*
X222898809Y-189171428D01*
X222936904Y-189095238D01*
X222936904Y-188866666D01*
X222898809Y-188790476D01*
X222860714Y-188752380D01*
X222213095Y-189552380D02*
X222175000Y-189590476D01*
X222136904Y-189666666D01*
X222136904Y-189857142D01*
X222175000Y-189933333D01*
X222213095Y-189971428D01*
X222289285Y-190009523D01*
X222365476Y-190009523D01*
X222479761Y-189971428D01*
X222936904Y-189514285D01*
X222936904Y-190009523D01*
%TO.C,D31*%
X222936904Y-169028571D02*
X222136904Y-169028571D01*
X222136904Y-169219047D01*
X222175000Y-169333333D01*
X222251190Y-169409523D01*
X222327380Y-169447619D01*
X222479761Y-169485714D01*
X222594047Y-169485714D01*
X222746428Y-169447619D01*
X222822619Y-169409523D01*
X222898809Y-169333333D01*
X222936904Y-169219047D01*
X222936904Y-169028571D01*
X222136904Y-169752380D02*
X222136904Y-170247619D01*
X222441666Y-169980952D01*
X222441666Y-170095238D01*
X222479761Y-170171428D01*
X222517857Y-170209523D01*
X222594047Y-170247619D01*
X222784523Y-170247619D01*
X222860714Y-170209523D01*
X222898809Y-170171428D01*
X222936904Y-170095238D01*
X222936904Y-169866666D01*
X222898809Y-169790476D01*
X222860714Y-169752380D01*
X222936904Y-171009523D02*
X222936904Y-170552380D01*
X222936904Y-170780952D02*
X222136904Y-170780952D01*
X222251190Y-170704761D01*
X222327380Y-170628571D01*
X222365476Y-170552380D01*
%TO.C,D30*%
X203936904Y-245028571D02*
X203136904Y-245028571D01*
X203136904Y-245219047D01*
X203175000Y-245333333D01*
X203251190Y-245409523D01*
X203327380Y-245447619D01*
X203479761Y-245485714D01*
X203594047Y-245485714D01*
X203746428Y-245447619D01*
X203822619Y-245409523D01*
X203898809Y-245333333D01*
X203936904Y-245219047D01*
X203936904Y-245028571D01*
X203136904Y-245752380D02*
X203136904Y-246247619D01*
X203441666Y-245980952D01*
X203441666Y-246095238D01*
X203479761Y-246171428D01*
X203517857Y-246209523D01*
X203594047Y-246247619D01*
X203784523Y-246247619D01*
X203860714Y-246209523D01*
X203898809Y-246171428D01*
X203936904Y-246095238D01*
X203936904Y-245866666D01*
X203898809Y-245790476D01*
X203860714Y-245752380D01*
X203136904Y-246742857D02*
X203136904Y-246819047D01*
X203175000Y-246895238D01*
X203213095Y-246933333D01*
X203289285Y-246971428D01*
X203441666Y-247009523D01*
X203632142Y-247009523D01*
X203784523Y-246971428D01*
X203860714Y-246933333D01*
X203898809Y-246895238D01*
X203936904Y-246819047D01*
X203936904Y-246742857D01*
X203898809Y-246666666D01*
X203860714Y-246628571D01*
X203784523Y-246590476D01*
X203632142Y-246552380D01*
X203441666Y-246552380D01*
X203289285Y-246590476D01*
X203213095Y-246628571D01*
X203175000Y-246666666D01*
X203136904Y-246742857D01*
%TO.C,D29*%
X203936904Y-226028571D02*
X203136904Y-226028571D01*
X203136904Y-226219047D01*
X203175000Y-226333333D01*
X203251190Y-226409523D01*
X203327380Y-226447619D01*
X203479761Y-226485714D01*
X203594047Y-226485714D01*
X203746428Y-226447619D01*
X203822619Y-226409523D01*
X203898809Y-226333333D01*
X203936904Y-226219047D01*
X203936904Y-226028571D01*
X203213095Y-226790476D02*
X203175000Y-226828571D01*
X203136904Y-226904761D01*
X203136904Y-227095238D01*
X203175000Y-227171428D01*
X203213095Y-227209523D01*
X203289285Y-227247619D01*
X203365476Y-227247619D01*
X203479761Y-227209523D01*
X203936904Y-226752380D01*
X203936904Y-227247619D01*
X203936904Y-227628571D02*
X203936904Y-227780952D01*
X203898809Y-227857142D01*
X203860714Y-227895238D01*
X203746428Y-227971428D01*
X203594047Y-228009523D01*
X203289285Y-228009523D01*
X203213095Y-227971428D01*
X203175000Y-227933333D01*
X203136904Y-227857142D01*
X203136904Y-227704761D01*
X203175000Y-227628571D01*
X203213095Y-227590476D01*
X203289285Y-227552380D01*
X203479761Y-227552380D01*
X203555952Y-227590476D01*
X203594047Y-227628571D01*
X203632142Y-227704761D01*
X203632142Y-227857142D01*
X203594047Y-227933333D01*
X203555952Y-227971428D01*
X203479761Y-228009523D01*
%TO.C,D28*%
X203936904Y-207028571D02*
X203136904Y-207028571D01*
X203136904Y-207219047D01*
X203175000Y-207333333D01*
X203251190Y-207409523D01*
X203327380Y-207447619D01*
X203479761Y-207485714D01*
X203594047Y-207485714D01*
X203746428Y-207447619D01*
X203822619Y-207409523D01*
X203898809Y-207333333D01*
X203936904Y-207219047D01*
X203936904Y-207028571D01*
X203213095Y-207790476D02*
X203175000Y-207828571D01*
X203136904Y-207904761D01*
X203136904Y-208095238D01*
X203175000Y-208171428D01*
X203213095Y-208209523D01*
X203289285Y-208247619D01*
X203365476Y-208247619D01*
X203479761Y-208209523D01*
X203936904Y-207752380D01*
X203936904Y-208247619D01*
X203479761Y-208704761D02*
X203441666Y-208628571D01*
X203403571Y-208590476D01*
X203327380Y-208552380D01*
X203289285Y-208552380D01*
X203213095Y-208590476D01*
X203175000Y-208628571D01*
X203136904Y-208704761D01*
X203136904Y-208857142D01*
X203175000Y-208933333D01*
X203213095Y-208971428D01*
X203289285Y-209009523D01*
X203327380Y-209009523D01*
X203403571Y-208971428D01*
X203441666Y-208933333D01*
X203479761Y-208857142D01*
X203479761Y-208704761D01*
X203517857Y-208628571D01*
X203555952Y-208590476D01*
X203632142Y-208552380D01*
X203784523Y-208552380D01*
X203860714Y-208590476D01*
X203898809Y-208628571D01*
X203936904Y-208704761D01*
X203936904Y-208857142D01*
X203898809Y-208933333D01*
X203860714Y-208971428D01*
X203784523Y-209009523D01*
X203632142Y-209009523D01*
X203555952Y-208971428D01*
X203517857Y-208933333D01*
X203479761Y-208857142D01*
%TO.C,D27*%
X203936904Y-188028571D02*
X203136904Y-188028571D01*
X203136904Y-188219047D01*
X203175000Y-188333333D01*
X203251190Y-188409523D01*
X203327380Y-188447619D01*
X203479761Y-188485714D01*
X203594047Y-188485714D01*
X203746428Y-188447619D01*
X203822619Y-188409523D01*
X203898809Y-188333333D01*
X203936904Y-188219047D01*
X203936904Y-188028571D01*
X203213095Y-188790476D02*
X203175000Y-188828571D01*
X203136904Y-188904761D01*
X203136904Y-189095238D01*
X203175000Y-189171428D01*
X203213095Y-189209523D01*
X203289285Y-189247619D01*
X203365476Y-189247619D01*
X203479761Y-189209523D01*
X203936904Y-188752380D01*
X203936904Y-189247619D01*
X203136904Y-189514285D02*
X203136904Y-190047619D01*
X203936904Y-189704761D01*
%TO.C,D26*%
X203936904Y-169028571D02*
X203136904Y-169028571D01*
X203136904Y-169219047D01*
X203175000Y-169333333D01*
X203251190Y-169409523D01*
X203327380Y-169447619D01*
X203479761Y-169485714D01*
X203594047Y-169485714D01*
X203746428Y-169447619D01*
X203822619Y-169409523D01*
X203898809Y-169333333D01*
X203936904Y-169219047D01*
X203936904Y-169028571D01*
X203213095Y-169790476D02*
X203175000Y-169828571D01*
X203136904Y-169904761D01*
X203136904Y-170095238D01*
X203175000Y-170171428D01*
X203213095Y-170209523D01*
X203289285Y-170247619D01*
X203365476Y-170247619D01*
X203479761Y-170209523D01*
X203936904Y-169752380D01*
X203936904Y-170247619D01*
X203136904Y-170933333D02*
X203136904Y-170780952D01*
X203175000Y-170704761D01*
X203213095Y-170666666D01*
X203327380Y-170590476D01*
X203479761Y-170552380D01*
X203784523Y-170552380D01*
X203860714Y-170590476D01*
X203898809Y-170628571D01*
X203936904Y-170704761D01*
X203936904Y-170857142D01*
X203898809Y-170933333D01*
X203860714Y-170971428D01*
X203784523Y-171009523D01*
X203594047Y-171009523D01*
X203517857Y-170971428D01*
X203479761Y-170933333D01*
X203441666Y-170857142D01*
X203441666Y-170704761D01*
X203479761Y-170628571D01*
X203517857Y-170590476D01*
X203594047Y-170552380D01*
%TO.C,D25*%
X184936904Y-245028571D02*
X184136904Y-245028571D01*
X184136904Y-245219047D01*
X184175000Y-245333333D01*
X184251190Y-245409523D01*
X184327380Y-245447619D01*
X184479761Y-245485714D01*
X184594047Y-245485714D01*
X184746428Y-245447619D01*
X184822619Y-245409523D01*
X184898809Y-245333333D01*
X184936904Y-245219047D01*
X184936904Y-245028571D01*
X184213095Y-245790476D02*
X184175000Y-245828571D01*
X184136904Y-245904761D01*
X184136904Y-246095238D01*
X184175000Y-246171428D01*
X184213095Y-246209523D01*
X184289285Y-246247619D01*
X184365476Y-246247619D01*
X184479761Y-246209523D01*
X184936904Y-245752380D01*
X184936904Y-246247619D01*
X184136904Y-246971428D02*
X184136904Y-246590476D01*
X184517857Y-246552380D01*
X184479761Y-246590476D01*
X184441666Y-246666666D01*
X184441666Y-246857142D01*
X184479761Y-246933333D01*
X184517857Y-246971428D01*
X184594047Y-247009523D01*
X184784523Y-247009523D01*
X184860714Y-246971428D01*
X184898809Y-246933333D01*
X184936904Y-246857142D01*
X184936904Y-246666666D01*
X184898809Y-246590476D01*
X184860714Y-246552380D01*
%TO.C,D24*%
X184936904Y-226028571D02*
X184136904Y-226028571D01*
X184136904Y-226219047D01*
X184175000Y-226333333D01*
X184251190Y-226409523D01*
X184327380Y-226447619D01*
X184479761Y-226485714D01*
X184594047Y-226485714D01*
X184746428Y-226447619D01*
X184822619Y-226409523D01*
X184898809Y-226333333D01*
X184936904Y-226219047D01*
X184936904Y-226028571D01*
X184213095Y-226790476D02*
X184175000Y-226828571D01*
X184136904Y-226904761D01*
X184136904Y-227095238D01*
X184175000Y-227171428D01*
X184213095Y-227209523D01*
X184289285Y-227247619D01*
X184365476Y-227247619D01*
X184479761Y-227209523D01*
X184936904Y-226752380D01*
X184936904Y-227247619D01*
X184403571Y-227933333D02*
X184936904Y-227933333D01*
X184098809Y-227742857D02*
X184670238Y-227552380D01*
X184670238Y-228047619D01*
%TO.C,D23*%
X184936904Y-207028571D02*
X184136904Y-207028571D01*
X184136904Y-207219047D01*
X184175000Y-207333333D01*
X184251190Y-207409523D01*
X184327380Y-207447619D01*
X184479761Y-207485714D01*
X184594047Y-207485714D01*
X184746428Y-207447619D01*
X184822619Y-207409523D01*
X184898809Y-207333333D01*
X184936904Y-207219047D01*
X184936904Y-207028571D01*
X184213095Y-207790476D02*
X184175000Y-207828571D01*
X184136904Y-207904761D01*
X184136904Y-208095238D01*
X184175000Y-208171428D01*
X184213095Y-208209523D01*
X184289285Y-208247619D01*
X184365476Y-208247619D01*
X184479761Y-208209523D01*
X184936904Y-207752380D01*
X184936904Y-208247619D01*
X184136904Y-208514285D02*
X184136904Y-209009523D01*
X184441666Y-208742857D01*
X184441666Y-208857142D01*
X184479761Y-208933333D01*
X184517857Y-208971428D01*
X184594047Y-209009523D01*
X184784523Y-209009523D01*
X184860714Y-208971428D01*
X184898809Y-208933333D01*
X184936904Y-208857142D01*
X184936904Y-208628571D01*
X184898809Y-208552380D01*
X184860714Y-208514285D01*
%TO.C,D22*%
X184936904Y-188028571D02*
X184136904Y-188028571D01*
X184136904Y-188219047D01*
X184175000Y-188333333D01*
X184251190Y-188409523D01*
X184327380Y-188447619D01*
X184479761Y-188485714D01*
X184594047Y-188485714D01*
X184746428Y-188447619D01*
X184822619Y-188409523D01*
X184898809Y-188333333D01*
X184936904Y-188219047D01*
X184936904Y-188028571D01*
X184213095Y-188790476D02*
X184175000Y-188828571D01*
X184136904Y-188904761D01*
X184136904Y-189095238D01*
X184175000Y-189171428D01*
X184213095Y-189209523D01*
X184289285Y-189247619D01*
X184365476Y-189247619D01*
X184479761Y-189209523D01*
X184936904Y-188752380D01*
X184936904Y-189247619D01*
X184213095Y-189552380D02*
X184175000Y-189590476D01*
X184136904Y-189666666D01*
X184136904Y-189857142D01*
X184175000Y-189933333D01*
X184213095Y-189971428D01*
X184289285Y-190009523D01*
X184365476Y-190009523D01*
X184479761Y-189971428D01*
X184936904Y-189514285D01*
X184936904Y-190009523D01*
%TO.C,D21*%
X184936904Y-169028571D02*
X184136904Y-169028571D01*
X184136904Y-169219047D01*
X184175000Y-169333333D01*
X184251190Y-169409523D01*
X184327380Y-169447619D01*
X184479761Y-169485714D01*
X184594047Y-169485714D01*
X184746428Y-169447619D01*
X184822619Y-169409523D01*
X184898809Y-169333333D01*
X184936904Y-169219047D01*
X184936904Y-169028571D01*
X184213095Y-169790476D02*
X184175000Y-169828571D01*
X184136904Y-169904761D01*
X184136904Y-170095238D01*
X184175000Y-170171428D01*
X184213095Y-170209523D01*
X184289285Y-170247619D01*
X184365476Y-170247619D01*
X184479761Y-170209523D01*
X184936904Y-169752380D01*
X184936904Y-170247619D01*
X184936904Y-171009523D02*
X184936904Y-170552380D01*
X184936904Y-170780952D02*
X184136904Y-170780952D01*
X184251190Y-170704761D01*
X184327380Y-170628571D01*
X184365476Y-170552380D01*
%TO.C,D20*%
X165436904Y-245028571D02*
X164636904Y-245028571D01*
X164636904Y-245219047D01*
X164675000Y-245333333D01*
X164751190Y-245409523D01*
X164827380Y-245447619D01*
X164979761Y-245485714D01*
X165094047Y-245485714D01*
X165246428Y-245447619D01*
X165322619Y-245409523D01*
X165398809Y-245333333D01*
X165436904Y-245219047D01*
X165436904Y-245028571D01*
X164713095Y-245790476D02*
X164675000Y-245828571D01*
X164636904Y-245904761D01*
X164636904Y-246095238D01*
X164675000Y-246171428D01*
X164713095Y-246209523D01*
X164789285Y-246247619D01*
X164865476Y-246247619D01*
X164979761Y-246209523D01*
X165436904Y-245752380D01*
X165436904Y-246247619D01*
X164636904Y-246742857D02*
X164636904Y-246819047D01*
X164675000Y-246895238D01*
X164713095Y-246933333D01*
X164789285Y-246971428D01*
X164941666Y-247009523D01*
X165132142Y-247009523D01*
X165284523Y-246971428D01*
X165360714Y-246933333D01*
X165398809Y-246895238D01*
X165436904Y-246819047D01*
X165436904Y-246742857D01*
X165398809Y-246666666D01*
X165360714Y-246628571D01*
X165284523Y-246590476D01*
X165132142Y-246552380D01*
X164941666Y-246552380D01*
X164789285Y-246590476D01*
X164713095Y-246628571D01*
X164675000Y-246666666D01*
X164636904Y-246742857D01*
%TO.C,D19*%
X165436904Y-226028571D02*
X164636904Y-226028571D01*
X164636904Y-226219047D01*
X164675000Y-226333333D01*
X164751190Y-226409523D01*
X164827380Y-226447619D01*
X164979761Y-226485714D01*
X165094047Y-226485714D01*
X165246428Y-226447619D01*
X165322619Y-226409523D01*
X165398809Y-226333333D01*
X165436904Y-226219047D01*
X165436904Y-226028571D01*
X165436904Y-227247619D02*
X165436904Y-226790476D01*
X165436904Y-227019047D02*
X164636904Y-227019047D01*
X164751190Y-226942857D01*
X164827380Y-226866666D01*
X164865476Y-226790476D01*
X165436904Y-227628571D02*
X165436904Y-227780952D01*
X165398809Y-227857142D01*
X165360714Y-227895238D01*
X165246428Y-227971428D01*
X165094047Y-228009523D01*
X164789285Y-228009523D01*
X164713095Y-227971428D01*
X164675000Y-227933333D01*
X164636904Y-227857142D01*
X164636904Y-227704761D01*
X164675000Y-227628571D01*
X164713095Y-227590476D01*
X164789285Y-227552380D01*
X164979761Y-227552380D01*
X165055952Y-227590476D01*
X165094047Y-227628571D01*
X165132142Y-227704761D01*
X165132142Y-227857142D01*
X165094047Y-227933333D01*
X165055952Y-227971428D01*
X164979761Y-228009523D01*
%TO.C,D18*%
X165436904Y-207028571D02*
X164636904Y-207028571D01*
X164636904Y-207219047D01*
X164675000Y-207333333D01*
X164751190Y-207409523D01*
X164827380Y-207447619D01*
X164979761Y-207485714D01*
X165094047Y-207485714D01*
X165246428Y-207447619D01*
X165322619Y-207409523D01*
X165398809Y-207333333D01*
X165436904Y-207219047D01*
X165436904Y-207028571D01*
X165436904Y-208247619D02*
X165436904Y-207790476D01*
X165436904Y-208019047D02*
X164636904Y-208019047D01*
X164751190Y-207942857D01*
X164827380Y-207866666D01*
X164865476Y-207790476D01*
X164979761Y-208704761D02*
X164941666Y-208628571D01*
X164903571Y-208590476D01*
X164827380Y-208552380D01*
X164789285Y-208552380D01*
X164713095Y-208590476D01*
X164675000Y-208628571D01*
X164636904Y-208704761D01*
X164636904Y-208857142D01*
X164675000Y-208933333D01*
X164713095Y-208971428D01*
X164789285Y-209009523D01*
X164827380Y-209009523D01*
X164903571Y-208971428D01*
X164941666Y-208933333D01*
X164979761Y-208857142D01*
X164979761Y-208704761D01*
X165017857Y-208628571D01*
X165055952Y-208590476D01*
X165132142Y-208552380D01*
X165284523Y-208552380D01*
X165360714Y-208590476D01*
X165398809Y-208628571D01*
X165436904Y-208704761D01*
X165436904Y-208857142D01*
X165398809Y-208933333D01*
X165360714Y-208971428D01*
X165284523Y-209009523D01*
X165132142Y-209009523D01*
X165055952Y-208971428D01*
X165017857Y-208933333D01*
X164979761Y-208857142D01*
%TO.C,D17*%
X165436904Y-188028571D02*
X164636904Y-188028571D01*
X164636904Y-188219047D01*
X164675000Y-188333333D01*
X164751190Y-188409523D01*
X164827380Y-188447619D01*
X164979761Y-188485714D01*
X165094047Y-188485714D01*
X165246428Y-188447619D01*
X165322619Y-188409523D01*
X165398809Y-188333333D01*
X165436904Y-188219047D01*
X165436904Y-188028571D01*
X165436904Y-189247619D02*
X165436904Y-188790476D01*
X165436904Y-189019047D02*
X164636904Y-189019047D01*
X164751190Y-188942857D01*
X164827380Y-188866666D01*
X164865476Y-188790476D01*
X164636904Y-189514285D02*
X164636904Y-190047619D01*
X165436904Y-189704761D01*
%TO.C,D16*%
X165436904Y-169028571D02*
X164636904Y-169028571D01*
X164636904Y-169219047D01*
X164675000Y-169333333D01*
X164751190Y-169409523D01*
X164827380Y-169447619D01*
X164979761Y-169485714D01*
X165094047Y-169485714D01*
X165246428Y-169447619D01*
X165322619Y-169409523D01*
X165398809Y-169333333D01*
X165436904Y-169219047D01*
X165436904Y-169028571D01*
X165436904Y-170247619D02*
X165436904Y-169790476D01*
X165436904Y-170019047D02*
X164636904Y-170019047D01*
X164751190Y-169942857D01*
X164827380Y-169866666D01*
X164865476Y-169790476D01*
X164636904Y-170933333D02*
X164636904Y-170780952D01*
X164675000Y-170704761D01*
X164713095Y-170666666D01*
X164827380Y-170590476D01*
X164979761Y-170552380D01*
X165284523Y-170552380D01*
X165360714Y-170590476D01*
X165398809Y-170628571D01*
X165436904Y-170704761D01*
X165436904Y-170857142D01*
X165398809Y-170933333D01*
X165360714Y-170971428D01*
X165284523Y-171009523D01*
X165094047Y-171009523D01*
X165017857Y-170971428D01*
X164979761Y-170933333D01*
X164941666Y-170857142D01*
X164941666Y-170704761D01*
X164979761Y-170628571D01*
X165017857Y-170590476D01*
X165094047Y-170552380D01*
%TO.C,D15*%
X146436904Y-245028571D02*
X145636904Y-245028571D01*
X145636904Y-245219047D01*
X145675000Y-245333333D01*
X145751190Y-245409523D01*
X145827380Y-245447619D01*
X145979761Y-245485714D01*
X146094047Y-245485714D01*
X146246428Y-245447619D01*
X146322619Y-245409523D01*
X146398809Y-245333333D01*
X146436904Y-245219047D01*
X146436904Y-245028571D01*
X146436904Y-246247619D02*
X146436904Y-245790476D01*
X146436904Y-246019047D02*
X145636904Y-246019047D01*
X145751190Y-245942857D01*
X145827380Y-245866666D01*
X145865476Y-245790476D01*
X145636904Y-246971428D02*
X145636904Y-246590476D01*
X146017857Y-246552380D01*
X145979761Y-246590476D01*
X145941666Y-246666666D01*
X145941666Y-246857142D01*
X145979761Y-246933333D01*
X146017857Y-246971428D01*
X146094047Y-247009523D01*
X146284523Y-247009523D01*
X146360714Y-246971428D01*
X146398809Y-246933333D01*
X146436904Y-246857142D01*
X146436904Y-246666666D01*
X146398809Y-246590476D01*
X146360714Y-246552380D01*
%TO.C,D14*%
X146436904Y-226028571D02*
X145636904Y-226028571D01*
X145636904Y-226219047D01*
X145675000Y-226333333D01*
X145751190Y-226409523D01*
X145827380Y-226447619D01*
X145979761Y-226485714D01*
X146094047Y-226485714D01*
X146246428Y-226447619D01*
X146322619Y-226409523D01*
X146398809Y-226333333D01*
X146436904Y-226219047D01*
X146436904Y-226028571D01*
X146436904Y-227247619D02*
X146436904Y-226790476D01*
X146436904Y-227019047D02*
X145636904Y-227019047D01*
X145751190Y-226942857D01*
X145827380Y-226866666D01*
X145865476Y-226790476D01*
X145903571Y-227933333D02*
X146436904Y-227933333D01*
X145598809Y-227742857D02*
X146170238Y-227552380D01*
X146170238Y-228047619D01*
%TO.C,D13*%
X146436904Y-207028571D02*
X145636904Y-207028571D01*
X145636904Y-207219047D01*
X145675000Y-207333333D01*
X145751190Y-207409523D01*
X145827380Y-207447619D01*
X145979761Y-207485714D01*
X146094047Y-207485714D01*
X146246428Y-207447619D01*
X146322619Y-207409523D01*
X146398809Y-207333333D01*
X146436904Y-207219047D01*
X146436904Y-207028571D01*
X146436904Y-208247619D02*
X146436904Y-207790476D01*
X146436904Y-208019047D02*
X145636904Y-208019047D01*
X145751190Y-207942857D01*
X145827380Y-207866666D01*
X145865476Y-207790476D01*
X145636904Y-208514285D02*
X145636904Y-209009523D01*
X145941666Y-208742857D01*
X145941666Y-208857142D01*
X145979761Y-208933333D01*
X146017857Y-208971428D01*
X146094047Y-209009523D01*
X146284523Y-209009523D01*
X146360714Y-208971428D01*
X146398809Y-208933333D01*
X146436904Y-208857142D01*
X146436904Y-208628571D01*
X146398809Y-208552380D01*
X146360714Y-208514285D01*
%TO.C,D12*%
X146436904Y-188028571D02*
X145636904Y-188028571D01*
X145636904Y-188219047D01*
X145675000Y-188333333D01*
X145751190Y-188409523D01*
X145827380Y-188447619D01*
X145979761Y-188485714D01*
X146094047Y-188485714D01*
X146246428Y-188447619D01*
X146322619Y-188409523D01*
X146398809Y-188333333D01*
X146436904Y-188219047D01*
X146436904Y-188028571D01*
X146436904Y-189247619D02*
X146436904Y-188790476D01*
X146436904Y-189019047D02*
X145636904Y-189019047D01*
X145751190Y-188942857D01*
X145827380Y-188866666D01*
X145865476Y-188790476D01*
X145713095Y-189552380D02*
X145675000Y-189590476D01*
X145636904Y-189666666D01*
X145636904Y-189857142D01*
X145675000Y-189933333D01*
X145713095Y-189971428D01*
X145789285Y-190009523D01*
X145865476Y-190009523D01*
X145979761Y-189971428D01*
X146436904Y-189514285D01*
X146436904Y-190009523D01*
%TO.C,D11*%
X146436904Y-169028571D02*
X145636904Y-169028571D01*
X145636904Y-169219047D01*
X145675000Y-169333333D01*
X145751190Y-169409523D01*
X145827380Y-169447619D01*
X145979761Y-169485714D01*
X146094047Y-169485714D01*
X146246428Y-169447619D01*
X146322619Y-169409523D01*
X146398809Y-169333333D01*
X146436904Y-169219047D01*
X146436904Y-169028571D01*
X146436904Y-170247619D02*
X146436904Y-169790476D01*
X146436904Y-170019047D02*
X145636904Y-170019047D01*
X145751190Y-169942857D01*
X145827380Y-169866666D01*
X145865476Y-169790476D01*
X146436904Y-171009523D02*
X146436904Y-170552380D01*
X146436904Y-170780952D02*
X145636904Y-170780952D01*
X145751190Y-170704761D01*
X145827380Y-170628571D01*
X145865476Y-170552380D01*
%TO.C,D10*%
X127436904Y-245028571D02*
X126636904Y-245028571D01*
X126636904Y-245219047D01*
X126675000Y-245333333D01*
X126751190Y-245409523D01*
X126827380Y-245447619D01*
X126979761Y-245485714D01*
X127094047Y-245485714D01*
X127246428Y-245447619D01*
X127322619Y-245409523D01*
X127398809Y-245333333D01*
X127436904Y-245219047D01*
X127436904Y-245028571D01*
X127436904Y-246247619D02*
X127436904Y-245790476D01*
X127436904Y-246019047D02*
X126636904Y-246019047D01*
X126751190Y-245942857D01*
X126827380Y-245866666D01*
X126865476Y-245790476D01*
X126636904Y-246742857D02*
X126636904Y-246819047D01*
X126675000Y-246895238D01*
X126713095Y-246933333D01*
X126789285Y-246971428D01*
X126941666Y-247009523D01*
X127132142Y-247009523D01*
X127284523Y-246971428D01*
X127360714Y-246933333D01*
X127398809Y-246895238D01*
X127436904Y-246819047D01*
X127436904Y-246742857D01*
X127398809Y-246666666D01*
X127360714Y-246628571D01*
X127284523Y-246590476D01*
X127132142Y-246552380D01*
X126941666Y-246552380D01*
X126789285Y-246590476D01*
X126713095Y-246628571D01*
X126675000Y-246666666D01*
X126636904Y-246742857D01*
%TO.C,D9*%
X127436904Y-226409523D02*
X126636904Y-226409523D01*
X126636904Y-226600000D01*
X126675000Y-226714285D01*
X126751190Y-226790476D01*
X126827380Y-226828571D01*
X126979761Y-226866666D01*
X127094047Y-226866666D01*
X127246428Y-226828571D01*
X127322619Y-226790476D01*
X127398809Y-226714285D01*
X127436904Y-226600000D01*
X127436904Y-226409523D01*
X127436904Y-227247619D02*
X127436904Y-227400000D01*
X127398809Y-227476190D01*
X127360714Y-227514285D01*
X127246428Y-227590476D01*
X127094047Y-227628571D01*
X126789285Y-227628571D01*
X126713095Y-227590476D01*
X126675000Y-227552380D01*
X126636904Y-227476190D01*
X126636904Y-227323809D01*
X126675000Y-227247619D01*
X126713095Y-227209523D01*
X126789285Y-227171428D01*
X126979761Y-227171428D01*
X127055952Y-227209523D01*
X127094047Y-227247619D01*
X127132142Y-227323809D01*
X127132142Y-227476190D01*
X127094047Y-227552380D01*
X127055952Y-227590476D01*
X126979761Y-227628571D01*
%TO.C,D8*%
X127436904Y-207409523D02*
X126636904Y-207409523D01*
X126636904Y-207600000D01*
X126675000Y-207714285D01*
X126751190Y-207790476D01*
X126827380Y-207828571D01*
X126979761Y-207866666D01*
X127094047Y-207866666D01*
X127246428Y-207828571D01*
X127322619Y-207790476D01*
X127398809Y-207714285D01*
X127436904Y-207600000D01*
X127436904Y-207409523D01*
X126979761Y-208323809D02*
X126941666Y-208247619D01*
X126903571Y-208209523D01*
X126827380Y-208171428D01*
X126789285Y-208171428D01*
X126713095Y-208209523D01*
X126675000Y-208247619D01*
X126636904Y-208323809D01*
X126636904Y-208476190D01*
X126675000Y-208552380D01*
X126713095Y-208590476D01*
X126789285Y-208628571D01*
X126827380Y-208628571D01*
X126903571Y-208590476D01*
X126941666Y-208552380D01*
X126979761Y-208476190D01*
X126979761Y-208323809D01*
X127017857Y-208247619D01*
X127055952Y-208209523D01*
X127132142Y-208171428D01*
X127284523Y-208171428D01*
X127360714Y-208209523D01*
X127398809Y-208247619D01*
X127436904Y-208323809D01*
X127436904Y-208476190D01*
X127398809Y-208552380D01*
X127360714Y-208590476D01*
X127284523Y-208628571D01*
X127132142Y-208628571D01*
X127055952Y-208590476D01*
X127017857Y-208552380D01*
X126979761Y-208476190D01*
%TO.C,D7*%
X127436904Y-188409523D02*
X126636904Y-188409523D01*
X126636904Y-188600000D01*
X126675000Y-188714285D01*
X126751190Y-188790476D01*
X126827380Y-188828571D01*
X126979761Y-188866666D01*
X127094047Y-188866666D01*
X127246428Y-188828571D01*
X127322619Y-188790476D01*
X127398809Y-188714285D01*
X127436904Y-188600000D01*
X127436904Y-188409523D01*
X126636904Y-189133333D02*
X126636904Y-189666666D01*
X127436904Y-189323809D01*
%TO.C,D6*%
X127436904Y-169409523D02*
X126636904Y-169409523D01*
X126636904Y-169600000D01*
X126675000Y-169714285D01*
X126751190Y-169790476D01*
X126827380Y-169828571D01*
X126979761Y-169866666D01*
X127094047Y-169866666D01*
X127246428Y-169828571D01*
X127322619Y-169790476D01*
X127398809Y-169714285D01*
X127436904Y-169600000D01*
X127436904Y-169409523D01*
X126636904Y-170552380D02*
X126636904Y-170400000D01*
X126675000Y-170323809D01*
X126713095Y-170285714D01*
X126827380Y-170209523D01*
X126979761Y-170171428D01*
X127284523Y-170171428D01*
X127360714Y-170209523D01*
X127398809Y-170247619D01*
X127436904Y-170323809D01*
X127436904Y-170476190D01*
X127398809Y-170552380D01*
X127360714Y-170590476D01*
X127284523Y-170628571D01*
X127094047Y-170628571D01*
X127017857Y-170590476D01*
X126979761Y-170552380D01*
X126941666Y-170476190D01*
X126941666Y-170323809D01*
X126979761Y-170247619D01*
X127017857Y-170209523D01*
X127094047Y-170171428D01*
%TO.C,D5*%
X108436904Y-245409523D02*
X107636904Y-245409523D01*
X107636904Y-245600000D01*
X107675000Y-245714285D01*
X107751190Y-245790476D01*
X107827380Y-245828571D01*
X107979761Y-245866666D01*
X108094047Y-245866666D01*
X108246428Y-245828571D01*
X108322619Y-245790476D01*
X108398809Y-245714285D01*
X108436904Y-245600000D01*
X108436904Y-245409523D01*
X107636904Y-246590476D02*
X107636904Y-246209523D01*
X108017857Y-246171428D01*
X107979761Y-246209523D01*
X107941666Y-246285714D01*
X107941666Y-246476190D01*
X107979761Y-246552380D01*
X108017857Y-246590476D01*
X108094047Y-246628571D01*
X108284523Y-246628571D01*
X108360714Y-246590476D01*
X108398809Y-246552380D01*
X108436904Y-246476190D01*
X108436904Y-246285714D01*
X108398809Y-246209523D01*
X108360714Y-246171428D01*
%TO.C,D4*%
X108436904Y-226409523D02*
X107636904Y-226409523D01*
X107636904Y-226600000D01*
X107675000Y-226714285D01*
X107751190Y-226790476D01*
X107827380Y-226828571D01*
X107979761Y-226866666D01*
X108094047Y-226866666D01*
X108246428Y-226828571D01*
X108322619Y-226790476D01*
X108398809Y-226714285D01*
X108436904Y-226600000D01*
X108436904Y-226409523D01*
X107903571Y-227552380D02*
X108436904Y-227552380D01*
X107598809Y-227361904D02*
X108170238Y-227171428D01*
X108170238Y-227666666D01*
%TO.C,D3*%
X108436904Y-207409523D02*
X107636904Y-207409523D01*
X107636904Y-207600000D01*
X107675000Y-207714285D01*
X107751190Y-207790476D01*
X107827380Y-207828571D01*
X107979761Y-207866666D01*
X108094047Y-207866666D01*
X108246428Y-207828571D01*
X108322619Y-207790476D01*
X108398809Y-207714285D01*
X108436904Y-207600000D01*
X108436904Y-207409523D01*
X107636904Y-208133333D02*
X107636904Y-208628571D01*
X107941666Y-208361904D01*
X107941666Y-208476190D01*
X107979761Y-208552380D01*
X108017857Y-208590476D01*
X108094047Y-208628571D01*
X108284523Y-208628571D01*
X108360714Y-208590476D01*
X108398809Y-208552380D01*
X108436904Y-208476190D01*
X108436904Y-208247619D01*
X108398809Y-208171428D01*
X108360714Y-208133333D01*
%TO.C,D2*%
X108436904Y-188409523D02*
X107636904Y-188409523D01*
X107636904Y-188600000D01*
X107675000Y-188714285D01*
X107751190Y-188790476D01*
X107827380Y-188828571D01*
X107979761Y-188866666D01*
X108094047Y-188866666D01*
X108246428Y-188828571D01*
X108322619Y-188790476D01*
X108398809Y-188714285D01*
X108436904Y-188600000D01*
X108436904Y-188409523D01*
X107713095Y-189171428D02*
X107675000Y-189209523D01*
X107636904Y-189285714D01*
X107636904Y-189476190D01*
X107675000Y-189552380D01*
X107713095Y-189590476D01*
X107789285Y-189628571D01*
X107865476Y-189628571D01*
X107979761Y-189590476D01*
X108436904Y-189133333D01*
X108436904Y-189628571D01*
%TO.C,D1*%
X108436904Y-169409523D02*
X107636904Y-169409523D01*
X107636904Y-169600000D01*
X107675000Y-169714285D01*
X107751190Y-169790476D01*
X107827380Y-169828571D01*
X107979761Y-169866666D01*
X108094047Y-169866666D01*
X108246428Y-169828571D01*
X108322619Y-169790476D01*
X108398809Y-169714285D01*
X108436904Y-169600000D01*
X108436904Y-169409523D01*
X108436904Y-170628571D02*
X108436904Y-170171428D01*
X108436904Y-170400000D02*
X107636904Y-170400000D01*
X107751190Y-170323809D01*
X107827380Y-170247619D01*
X107865476Y-170171428D01*
%TO.C,K60*%
X329826285Y-235085380D02*
X329826285Y-234085380D01*
X329254857Y-235085380D02*
X329683428Y-234513952D01*
X329254857Y-234085380D02*
X329826285Y-234656809D01*
X328397714Y-234085380D02*
X328588190Y-234085380D01*
X328683428Y-234133000D01*
X328731047Y-234180619D01*
X328826285Y-234323476D01*
X328873904Y-234513952D01*
X328873904Y-234894904D01*
X328826285Y-234990142D01*
X328778666Y-235037761D01*
X328683428Y-235085380D01*
X328492952Y-235085380D01*
X328397714Y-235037761D01*
X328350095Y-234990142D01*
X328302476Y-234894904D01*
X328302476Y-234656809D01*
X328350095Y-234561571D01*
X328397714Y-234513952D01*
X328492952Y-234466333D01*
X328683428Y-234466333D01*
X328778666Y-234513952D01*
X328826285Y-234561571D01*
X328873904Y-234656809D01*
X327683428Y-234085380D02*
X327588190Y-234085380D01*
X327492952Y-234133000D01*
X327445333Y-234180619D01*
X327397714Y-234275857D01*
X327350095Y-234466333D01*
X327350095Y-234704428D01*
X327397714Y-234894904D01*
X327445333Y-234990142D01*
X327492952Y-235037761D01*
X327588190Y-235085380D01*
X327683428Y-235085380D01*
X327778666Y-235037761D01*
X327826285Y-234990142D01*
X327873904Y-234894904D01*
X327921523Y-234704428D01*
X327921523Y-234466333D01*
X327873904Y-234275857D01*
X327826285Y-234180619D01*
X327778666Y-234133000D01*
X327683428Y-234085380D01*
%TO.C,K59*%
X329826285Y-216035380D02*
X329826285Y-215035380D01*
X329254857Y-216035380D02*
X329683428Y-215463952D01*
X329254857Y-215035380D02*
X329826285Y-215606809D01*
X328350095Y-215035380D02*
X328826285Y-215035380D01*
X328873904Y-215511571D01*
X328826285Y-215463952D01*
X328731047Y-215416333D01*
X328492952Y-215416333D01*
X328397714Y-215463952D01*
X328350095Y-215511571D01*
X328302476Y-215606809D01*
X328302476Y-215844904D01*
X328350095Y-215940142D01*
X328397714Y-215987761D01*
X328492952Y-216035380D01*
X328731047Y-216035380D01*
X328826285Y-215987761D01*
X328873904Y-215940142D01*
X327826285Y-216035380D02*
X327635809Y-216035380D01*
X327540571Y-215987761D01*
X327492952Y-215940142D01*
X327397714Y-215797285D01*
X327350095Y-215606809D01*
X327350095Y-215225857D01*
X327397714Y-215130619D01*
X327445333Y-215083000D01*
X327540571Y-215035380D01*
X327731047Y-215035380D01*
X327826285Y-215083000D01*
X327873904Y-215130619D01*
X327921523Y-215225857D01*
X327921523Y-215463952D01*
X327873904Y-215559190D01*
X327826285Y-215606809D01*
X327731047Y-215654428D01*
X327540571Y-215654428D01*
X327445333Y-215606809D01*
X327397714Y-215559190D01*
X327350095Y-215463952D01*
%TO.C,K58*%
X329826285Y-196985380D02*
X329826285Y-195985380D01*
X329254857Y-196985380D02*
X329683428Y-196413952D01*
X329254857Y-195985380D02*
X329826285Y-196556809D01*
X328350095Y-195985380D02*
X328826285Y-195985380D01*
X328873904Y-196461571D01*
X328826285Y-196413952D01*
X328731047Y-196366333D01*
X328492952Y-196366333D01*
X328397714Y-196413952D01*
X328350095Y-196461571D01*
X328302476Y-196556809D01*
X328302476Y-196794904D01*
X328350095Y-196890142D01*
X328397714Y-196937761D01*
X328492952Y-196985380D01*
X328731047Y-196985380D01*
X328826285Y-196937761D01*
X328873904Y-196890142D01*
X327731047Y-196413952D02*
X327826285Y-196366333D01*
X327873904Y-196318714D01*
X327921523Y-196223476D01*
X327921523Y-196175857D01*
X327873904Y-196080619D01*
X327826285Y-196033000D01*
X327731047Y-195985380D01*
X327540571Y-195985380D01*
X327445333Y-196033000D01*
X327397714Y-196080619D01*
X327350095Y-196175857D01*
X327350095Y-196223476D01*
X327397714Y-196318714D01*
X327445333Y-196366333D01*
X327540571Y-196413952D01*
X327731047Y-196413952D01*
X327826285Y-196461571D01*
X327873904Y-196509190D01*
X327921523Y-196604428D01*
X327921523Y-196794904D01*
X327873904Y-196890142D01*
X327826285Y-196937761D01*
X327731047Y-196985380D01*
X327540571Y-196985380D01*
X327445333Y-196937761D01*
X327397714Y-196890142D01*
X327350095Y-196794904D01*
X327350095Y-196604428D01*
X327397714Y-196509190D01*
X327445333Y-196461571D01*
X327540571Y-196413952D01*
%TO.C,K57*%
X329826285Y-177935380D02*
X329826285Y-176935380D01*
X329254857Y-177935380D02*
X329683428Y-177363952D01*
X329254857Y-176935380D02*
X329826285Y-177506809D01*
X328350095Y-176935380D02*
X328826285Y-176935380D01*
X328873904Y-177411571D01*
X328826285Y-177363952D01*
X328731047Y-177316333D01*
X328492952Y-177316333D01*
X328397714Y-177363952D01*
X328350095Y-177411571D01*
X328302476Y-177506809D01*
X328302476Y-177744904D01*
X328350095Y-177840142D01*
X328397714Y-177887761D01*
X328492952Y-177935380D01*
X328731047Y-177935380D01*
X328826285Y-177887761D01*
X328873904Y-177840142D01*
X327969142Y-176935380D02*
X327302476Y-176935380D01*
X327731047Y-177935380D01*
%TO.C,K56*%
X329826285Y-158885380D02*
X329826285Y-157885380D01*
X329254857Y-158885380D02*
X329683428Y-158313952D01*
X329254857Y-157885380D02*
X329826285Y-158456809D01*
X328350095Y-157885380D02*
X328826285Y-157885380D01*
X328873904Y-158361571D01*
X328826285Y-158313952D01*
X328731047Y-158266333D01*
X328492952Y-158266333D01*
X328397714Y-158313952D01*
X328350095Y-158361571D01*
X328302476Y-158456809D01*
X328302476Y-158694904D01*
X328350095Y-158790142D01*
X328397714Y-158837761D01*
X328492952Y-158885380D01*
X328731047Y-158885380D01*
X328826285Y-158837761D01*
X328873904Y-158790142D01*
X327445333Y-157885380D02*
X327635809Y-157885380D01*
X327731047Y-157933000D01*
X327778666Y-157980619D01*
X327873904Y-158123476D01*
X327921523Y-158313952D01*
X327921523Y-158694904D01*
X327873904Y-158790142D01*
X327826285Y-158837761D01*
X327731047Y-158885380D01*
X327540571Y-158885380D01*
X327445333Y-158837761D01*
X327397714Y-158790142D01*
X327350095Y-158694904D01*
X327350095Y-158456809D01*
X327397714Y-158361571D01*
X327445333Y-158313952D01*
X327540571Y-158266333D01*
X327731047Y-158266333D01*
X327826285Y-158313952D01*
X327873904Y-158361571D01*
X327921523Y-158456809D01*
%TO.C,K55*%
X310776285Y-235085380D02*
X310776285Y-234085380D01*
X310204857Y-235085380D02*
X310633428Y-234513952D01*
X310204857Y-234085380D02*
X310776285Y-234656809D01*
X309300095Y-234085380D02*
X309776285Y-234085380D01*
X309823904Y-234561571D01*
X309776285Y-234513952D01*
X309681047Y-234466333D01*
X309442952Y-234466333D01*
X309347714Y-234513952D01*
X309300095Y-234561571D01*
X309252476Y-234656809D01*
X309252476Y-234894904D01*
X309300095Y-234990142D01*
X309347714Y-235037761D01*
X309442952Y-235085380D01*
X309681047Y-235085380D01*
X309776285Y-235037761D01*
X309823904Y-234990142D01*
X308347714Y-234085380D02*
X308823904Y-234085380D01*
X308871523Y-234561571D01*
X308823904Y-234513952D01*
X308728666Y-234466333D01*
X308490571Y-234466333D01*
X308395333Y-234513952D01*
X308347714Y-234561571D01*
X308300095Y-234656809D01*
X308300095Y-234894904D01*
X308347714Y-234990142D01*
X308395333Y-235037761D01*
X308490571Y-235085380D01*
X308728666Y-235085380D01*
X308823904Y-235037761D01*
X308871523Y-234990142D01*
%TO.C,K54*%
X310776285Y-216035380D02*
X310776285Y-215035380D01*
X310204857Y-216035380D02*
X310633428Y-215463952D01*
X310204857Y-215035380D02*
X310776285Y-215606809D01*
X309300095Y-215035380D02*
X309776285Y-215035380D01*
X309823904Y-215511571D01*
X309776285Y-215463952D01*
X309681047Y-215416333D01*
X309442952Y-215416333D01*
X309347714Y-215463952D01*
X309300095Y-215511571D01*
X309252476Y-215606809D01*
X309252476Y-215844904D01*
X309300095Y-215940142D01*
X309347714Y-215987761D01*
X309442952Y-216035380D01*
X309681047Y-216035380D01*
X309776285Y-215987761D01*
X309823904Y-215940142D01*
X308395333Y-215368714D02*
X308395333Y-216035380D01*
X308633428Y-214987761D02*
X308871523Y-215702047D01*
X308252476Y-215702047D01*
%TO.C,K53*%
X310776285Y-196985380D02*
X310776285Y-195985380D01*
X310204857Y-196985380D02*
X310633428Y-196413952D01*
X310204857Y-195985380D02*
X310776285Y-196556809D01*
X309300095Y-195985380D02*
X309776285Y-195985380D01*
X309823904Y-196461571D01*
X309776285Y-196413952D01*
X309681047Y-196366333D01*
X309442952Y-196366333D01*
X309347714Y-196413952D01*
X309300095Y-196461571D01*
X309252476Y-196556809D01*
X309252476Y-196794904D01*
X309300095Y-196890142D01*
X309347714Y-196937761D01*
X309442952Y-196985380D01*
X309681047Y-196985380D01*
X309776285Y-196937761D01*
X309823904Y-196890142D01*
X308919142Y-195985380D02*
X308300095Y-195985380D01*
X308633428Y-196366333D01*
X308490571Y-196366333D01*
X308395333Y-196413952D01*
X308347714Y-196461571D01*
X308300095Y-196556809D01*
X308300095Y-196794904D01*
X308347714Y-196890142D01*
X308395333Y-196937761D01*
X308490571Y-196985380D01*
X308776285Y-196985380D01*
X308871523Y-196937761D01*
X308919142Y-196890142D01*
%TO.C,K52*%
X310776285Y-177935380D02*
X310776285Y-176935380D01*
X310204857Y-177935380D02*
X310633428Y-177363952D01*
X310204857Y-176935380D02*
X310776285Y-177506809D01*
X309300095Y-176935380D02*
X309776285Y-176935380D01*
X309823904Y-177411571D01*
X309776285Y-177363952D01*
X309681047Y-177316333D01*
X309442952Y-177316333D01*
X309347714Y-177363952D01*
X309300095Y-177411571D01*
X309252476Y-177506809D01*
X309252476Y-177744904D01*
X309300095Y-177840142D01*
X309347714Y-177887761D01*
X309442952Y-177935380D01*
X309681047Y-177935380D01*
X309776285Y-177887761D01*
X309823904Y-177840142D01*
X308871523Y-177030619D02*
X308823904Y-176983000D01*
X308728666Y-176935380D01*
X308490571Y-176935380D01*
X308395333Y-176983000D01*
X308347714Y-177030619D01*
X308300095Y-177125857D01*
X308300095Y-177221095D01*
X308347714Y-177363952D01*
X308919142Y-177935380D01*
X308300095Y-177935380D01*
%TO.C,K51*%
X310776285Y-158885380D02*
X310776285Y-157885380D01*
X310204857Y-158885380D02*
X310633428Y-158313952D01*
X310204857Y-157885380D02*
X310776285Y-158456809D01*
X309300095Y-157885380D02*
X309776285Y-157885380D01*
X309823904Y-158361571D01*
X309776285Y-158313952D01*
X309681047Y-158266333D01*
X309442952Y-158266333D01*
X309347714Y-158313952D01*
X309300095Y-158361571D01*
X309252476Y-158456809D01*
X309252476Y-158694904D01*
X309300095Y-158790142D01*
X309347714Y-158837761D01*
X309442952Y-158885380D01*
X309681047Y-158885380D01*
X309776285Y-158837761D01*
X309823904Y-158790142D01*
X308300095Y-158885380D02*
X308871523Y-158885380D01*
X308585809Y-158885380D02*
X308585809Y-157885380D01*
X308681047Y-158028238D01*
X308776285Y-158123476D01*
X308871523Y-158171095D01*
%TO.C,K50*%
X291726285Y-235085380D02*
X291726285Y-234085380D01*
X291154857Y-235085380D02*
X291583428Y-234513952D01*
X291154857Y-234085380D02*
X291726285Y-234656809D01*
X290250095Y-234085380D02*
X290726285Y-234085380D01*
X290773904Y-234561571D01*
X290726285Y-234513952D01*
X290631047Y-234466333D01*
X290392952Y-234466333D01*
X290297714Y-234513952D01*
X290250095Y-234561571D01*
X290202476Y-234656809D01*
X290202476Y-234894904D01*
X290250095Y-234990142D01*
X290297714Y-235037761D01*
X290392952Y-235085380D01*
X290631047Y-235085380D01*
X290726285Y-235037761D01*
X290773904Y-234990142D01*
X289583428Y-234085380D02*
X289488190Y-234085380D01*
X289392952Y-234133000D01*
X289345333Y-234180619D01*
X289297714Y-234275857D01*
X289250095Y-234466333D01*
X289250095Y-234704428D01*
X289297714Y-234894904D01*
X289345333Y-234990142D01*
X289392952Y-235037761D01*
X289488190Y-235085380D01*
X289583428Y-235085380D01*
X289678666Y-235037761D01*
X289726285Y-234990142D01*
X289773904Y-234894904D01*
X289821523Y-234704428D01*
X289821523Y-234466333D01*
X289773904Y-234275857D01*
X289726285Y-234180619D01*
X289678666Y-234133000D01*
X289583428Y-234085380D01*
%TO.C,K49*%
X291726285Y-216035380D02*
X291726285Y-215035380D01*
X291154857Y-216035380D02*
X291583428Y-215463952D01*
X291154857Y-215035380D02*
X291726285Y-215606809D01*
X290297714Y-215368714D02*
X290297714Y-216035380D01*
X290535809Y-214987761D02*
X290773904Y-215702047D01*
X290154857Y-215702047D01*
X289726285Y-216035380D02*
X289535809Y-216035380D01*
X289440571Y-215987761D01*
X289392952Y-215940142D01*
X289297714Y-215797285D01*
X289250095Y-215606809D01*
X289250095Y-215225857D01*
X289297714Y-215130619D01*
X289345333Y-215083000D01*
X289440571Y-215035380D01*
X289631047Y-215035380D01*
X289726285Y-215083000D01*
X289773904Y-215130619D01*
X289821523Y-215225857D01*
X289821523Y-215463952D01*
X289773904Y-215559190D01*
X289726285Y-215606809D01*
X289631047Y-215654428D01*
X289440571Y-215654428D01*
X289345333Y-215606809D01*
X289297714Y-215559190D01*
X289250095Y-215463952D01*
%TO.C,K48*%
X291726285Y-196985380D02*
X291726285Y-195985380D01*
X291154857Y-196985380D02*
X291583428Y-196413952D01*
X291154857Y-195985380D02*
X291726285Y-196556809D01*
X290297714Y-196318714D02*
X290297714Y-196985380D01*
X290535809Y-195937761D02*
X290773904Y-196652047D01*
X290154857Y-196652047D01*
X289631047Y-196413952D02*
X289726285Y-196366333D01*
X289773904Y-196318714D01*
X289821523Y-196223476D01*
X289821523Y-196175857D01*
X289773904Y-196080619D01*
X289726285Y-196033000D01*
X289631047Y-195985380D01*
X289440571Y-195985380D01*
X289345333Y-196033000D01*
X289297714Y-196080619D01*
X289250095Y-196175857D01*
X289250095Y-196223476D01*
X289297714Y-196318714D01*
X289345333Y-196366333D01*
X289440571Y-196413952D01*
X289631047Y-196413952D01*
X289726285Y-196461571D01*
X289773904Y-196509190D01*
X289821523Y-196604428D01*
X289821523Y-196794904D01*
X289773904Y-196890142D01*
X289726285Y-196937761D01*
X289631047Y-196985380D01*
X289440571Y-196985380D01*
X289345333Y-196937761D01*
X289297714Y-196890142D01*
X289250095Y-196794904D01*
X289250095Y-196604428D01*
X289297714Y-196509190D01*
X289345333Y-196461571D01*
X289440571Y-196413952D01*
%TO.C,K47*%
X291726285Y-177935380D02*
X291726285Y-176935380D01*
X291154857Y-177935380D02*
X291583428Y-177363952D01*
X291154857Y-176935380D02*
X291726285Y-177506809D01*
X290297714Y-177268714D02*
X290297714Y-177935380D01*
X290535809Y-176887761D02*
X290773904Y-177602047D01*
X290154857Y-177602047D01*
X289869142Y-176935380D02*
X289202476Y-176935380D01*
X289631047Y-177935380D01*
%TO.C,K46*%
X291726285Y-158885380D02*
X291726285Y-157885380D01*
X291154857Y-158885380D02*
X291583428Y-158313952D01*
X291154857Y-157885380D02*
X291726285Y-158456809D01*
X290297714Y-158218714D02*
X290297714Y-158885380D01*
X290535809Y-157837761D02*
X290773904Y-158552047D01*
X290154857Y-158552047D01*
X289345333Y-157885380D02*
X289535809Y-157885380D01*
X289631047Y-157933000D01*
X289678666Y-157980619D01*
X289773904Y-158123476D01*
X289821523Y-158313952D01*
X289821523Y-158694904D01*
X289773904Y-158790142D01*
X289726285Y-158837761D01*
X289631047Y-158885380D01*
X289440571Y-158885380D01*
X289345333Y-158837761D01*
X289297714Y-158790142D01*
X289250095Y-158694904D01*
X289250095Y-158456809D01*
X289297714Y-158361571D01*
X289345333Y-158313952D01*
X289440571Y-158266333D01*
X289631047Y-158266333D01*
X289726285Y-158313952D01*
X289773904Y-158361571D01*
X289821523Y-158456809D01*
%TO.C,K45*%
X272676285Y-235085380D02*
X272676285Y-234085380D01*
X272104857Y-235085380D02*
X272533428Y-234513952D01*
X272104857Y-234085380D02*
X272676285Y-234656809D01*
X271247714Y-234418714D02*
X271247714Y-235085380D01*
X271485809Y-234037761D02*
X271723904Y-234752047D01*
X271104857Y-234752047D01*
X270247714Y-234085380D02*
X270723904Y-234085380D01*
X270771523Y-234561571D01*
X270723904Y-234513952D01*
X270628666Y-234466333D01*
X270390571Y-234466333D01*
X270295333Y-234513952D01*
X270247714Y-234561571D01*
X270200095Y-234656809D01*
X270200095Y-234894904D01*
X270247714Y-234990142D01*
X270295333Y-235037761D01*
X270390571Y-235085380D01*
X270628666Y-235085380D01*
X270723904Y-235037761D01*
X270771523Y-234990142D01*
%TO.C,K44*%
X272676285Y-216035380D02*
X272676285Y-215035380D01*
X272104857Y-216035380D02*
X272533428Y-215463952D01*
X272104857Y-215035380D02*
X272676285Y-215606809D01*
X271247714Y-215368714D02*
X271247714Y-216035380D01*
X271485809Y-214987761D02*
X271723904Y-215702047D01*
X271104857Y-215702047D01*
X270295333Y-215368714D02*
X270295333Y-216035380D01*
X270533428Y-214987761D02*
X270771523Y-215702047D01*
X270152476Y-215702047D01*
%TO.C,K43*%
X272676285Y-196985380D02*
X272676285Y-195985380D01*
X272104857Y-196985380D02*
X272533428Y-196413952D01*
X272104857Y-195985380D02*
X272676285Y-196556809D01*
X271247714Y-196318714D02*
X271247714Y-196985380D01*
X271485809Y-195937761D02*
X271723904Y-196652047D01*
X271104857Y-196652047D01*
X270819142Y-195985380D02*
X270200095Y-195985380D01*
X270533428Y-196366333D01*
X270390571Y-196366333D01*
X270295333Y-196413952D01*
X270247714Y-196461571D01*
X270200095Y-196556809D01*
X270200095Y-196794904D01*
X270247714Y-196890142D01*
X270295333Y-196937761D01*
X270390571Y-196985380D01*
X270676285Y-196985380D01*
X270771523Y-196937761D01*
X270819142Y-196890142D01*
%TO.C,K42*%
X272676285Y-177935380D02*
X272676285Y-176935380D01*
X272104857Y-177935380D02*
X272533428Y-177363952D01*
X272104857Y-176935380D02*
X272676285Y-177506809D01*
X271247714Y-177268714D02*
X271247714Y-177935380D01*
X271485809Y-176887761D02*
X271723904Y-177602047D01*
X271104857Y-177602047D01*
X270771523Y-177030619D02*
X270723904Y-176983000D01*
X270628666Y-176935380D01*
X270390571Y-176935380D01*
X270295333Y-176983000D01*
X270247714Y-177030619D01*
X270200095Y-177125857D01*
X270200095Y-177221095D01*
X270247714Y-177363952D01*
X270819142Y-177935380D01*
X270200095Y-177935380D01*
%TO.C,K41*%
X272676285Y-158885380D02*
X272676285Y-157885380D01*
X272104857Y-158885380D02*
X272533428Y-158313952D01*
X272104857Y-157885380D02*
X272676285Y-158456809D01*
X271247714Y-158218714D02*
X271247714Y-158885380D01*
X271485809Y-157837761D02*
X271723904Y-158552047D01*
X271104857Y-158552047D01*
X270200095Y-158885380D02*
X270771523Y-158885380D01*
X270485809Y-158885380D02*
X270485809Y-157885380D01*
X270581047Y-158028238D01*
X270676285Y-158123476D01*
X270771523Y-158171095D01*
%TO.C,K40*%
X253626285Y-235085380D02*
X253626285Y-234085380D01*
X253054857Y-235085380D02*
X253483428Y-234513952D01*
X253054857Y-234085380D02*
X253626285Y-234656809D01*
X252197714Y-234418714D02*
X252197714Y-235085380D01*
X252435809Y-234037761D02*
X252673904Y-234752047D01*
X252054857Y-234752047D01*
X251483428Y-234085380D02*
X251388190Y-234085380D01*
X251292952Y-234133000D01*
X251245333Y-234180619D01*
X251197714Y-234275857D01*
X251150095Y-234466333D01*
X251150095Y-234704428D01*
X251197714Y-234894904D01*
X251245333Y-234990142D01*
X251292952Y-235037761D01*
X251388190Y-235085380D01*
X251483428Y-235085380D01*
X251578666Y-235037761D01*
X251626285Y-234990142D01*
X251673904Y-234894904D01*
X251721523Y-234704428D01*
X251721523Y-234466333D01*
X251673904Y-234275857D01*
X251626285Y-234180619D01*
X251578666Y-234133000D01*
X251483428Y-234085380D01*
%TO.C,K39*%
X253626285Y-216035380D02*
X253626285Y-215035380D01*
X253054857Y-216035380D02*
X253483428Y-215463952D01*
X253054857Y-215035380D02*
X253626285Y-215606809D01*
X252721523Y-215035380D02*
X252102476Y-215035380D01*
X252435809Y-215416333D01*
X252292952Y-215416333D01*
X252197714Y-215463952D01*
X252150095Y-215511571D01*
X252102476Y-215606809D01*
X252102476Y-215844904D01*
X252150095Y-215940142D01*
X252197714Y-215987761D01*
X252292952Y-216035380D01*
X252578666Y-216035380D01*
X252673904Y-215987761D01*
X252721523Y-215940142D01*
X251626285Y-216035380D02*
X251435809Y-216035380D01*
X251340571Y-215987761D01*
X251292952Y-215940142D01*
X251197714Y-215797285D01*
X251150095Y-215606809D01*
X251150095Y-215225857D01*
X251197714Y-215130619D01*
X251245333Y-215083000D01*
X251340571Y-215035380D01*
X251531047Y-215035380D01*
X251626285Y-215083000D01*
X251673904Y-215130619D01*
X251721523Y-215225857D01*
X251721523Y-215463952D01*
X251673904Y-215559190D01*
X251626285Y-215606809D01*
X251531047Y-215654428D01*
X251340571Y-215654428D01*
X251245333Y-215606809D01*
X251197714Y-215559190D01*
X251150095Y-215463952D01*
%TO.C,K38*%
X253626285Y-196985380D02*
X253626285Y-195985380D01*
X253054857Y-196985380D02*
X253483428Y-196413952D01*
X253054857Y-195985380D02*
X253626285Y-196556809D01*
X252721523Y-195985380D02*
X252102476Y-195985380D01*
X252435809Y-196366333D01*
X252292952Y-196366333D01*
X252197714Y-196413952D01*
X252150095Y-196461571D01*
X252102476Y-196556809D01*
X252102476Y-196794904D01*
X252150095Y-196890142D01*
X252197714Y-196937761D01*
X252292952Y-196985380D01*
X252578666Y-196985380D01*
X252673904Y-196937761D01*
X252721523Y-196890142D01*
X251531047Y-196413952D02*
X251626285Y-196366333D01*
X251673904Y-196318714D01*
X251721523Y-196223476D01*
X251721523Y-196175857D01*
X251673904Y-196080619D01*
X251626285Y-196033000D01*
X251531047Y-195985380D01*
X251340571Y-195985380D01*
X251245333Y-196033000D01*
X251197714Y-196080619D01*
X251150095Y-196175857D01*
X251150095Y-196223476D01*
X251197714Y-196318714D01*
X251245333Y-196366333D01*
X251340571Y-196413952D01*
X251531047Y-196413952D01*
X251626285Y-196461571D01*
X251673904Y-196509190D01*
X251721523Y-196604428D01*
X251721523Y-196794904D01*
X251673904Y-196890142D01*
X251626285Y-196937761D01*
X251531047Y-196985380D01*
X251340571Y-196985380D01*
X251245333Y-196937761D01*
X251197714Y-196890142D01*
X251150095Y-196794904D01*
X251150095Y-196604428D01*
X251197714Y-196509190D01*
X251245333Y-196461571D01*
X251340571Y-196413952D01*
%TO.C,K37*%
X253626285Y-177935380D02*
X253626285Y-176935380D01*
X253054857Y-177935380D02*
X253483428Y-177363952D01*
X253054857Y-176935380D02*
X253626285Y-177506809D01*
X252721523Y-176935380D02*
X252102476Y-176935380D01*
X252435809Y-177316333D01*
X252292952Y-177316333D01*
X252197714Y-177363952D01*
X252150095Y-177411571D01*
X252102476Y-177506809D01*
X252102476Y-177744904D01*
X252150095Y-177840142D01*
X252197714Y-177887761D01*
X252292952Y-177935380D01*
X252578666Y-177935380D01*
X252673904Y-177887761D01*
X252721523Y-177840142D01*
X251769142Y-176935380D02*
X251102476Y-176935380D01*
X251531047Y-177935380D01*
%TO.C,K36*%
X253626285Y-158885380D02*
X253626285Y-157885380D01*
X253054857Y-158885380D02*
X253483428Y-158313952D01*
X253054857Y-157885380D02*
X253626285Y-158456809D01*
X252721523Y-157885380D02*
X252102476Y-157885380D01*
X252435809Y-158266333D01*
X252292952Y-158266333D01*
X252197714Y-158313952D01*
X252150095Y-158361571D01*
X252102476Y-158456809D01*
X252102476Y-158694904D01*
X252150095Y-158790142D01*
X252197714Y-158837761D01*
X252292952Y-158885380D01*
X252578666Y-158885380D01*
X252673904Y-158837761D01*
X252721523Y-158790142D01*
X251245333Y-157885380D02*
X251435809Y-157885380D01*
X251531047Y-157933000D01*
X251578666Y-157980619D01*
X251673904Y-158123476D01*
X251721523Y-158313952D01*
X251721523Y-158694904D01*
X251673904Y-158790142D01*
X251626285Y-158837761D01*
X251531047Y-158885380D01*
X251340571Y-158885380D01*
X251245333Y-158837761D01*
X251197714Y-158790142D01*
X251150095Y-158694904D01*
X251150095Y-158456809D01*
X251197714Y-158361571D01*
X251245333Y-158313952D01*
X251340571Y-158266333D01*
X251531047Y-158266333D01*
X251626285Y-158313952D01*
X251673904Y-158361571D01*
X251721523Y-158456809D01*
%TO.C,K35*%
X234576285Y-235085380D02*
X234576285Y-234085380D01*
X234004857Y-235085380D02*
X234433428Y-234513952D01*
X234004857Y-234085380D02*
X234576285Y-234656809D01*
X233671523Y-234085380D02*
X233052476Y-234085380D01*
X233385809Y-234466333D01*
X233242952Y-234466333D01*
X233147714Y-234513952D01*
X233100095Y-234561571D01*
X233052476Y-234656809D01*
X233052476Y-234894904D01*
X233100095Y-234990142D01*
X233147714Y-235037761D01*
X233242952Y-235085380D01*
X233528666Y-235085380D01*
X233623904Y-235037761D01*
X233671523Y-234990142D01*
X232147714Y-234085380D02*
X232623904Y-234085380D01*
X232671523Y-234561571D01*
X232623904Y-234513952D01*
X232528666Y-234466333D01*
X232290571Y-234466333D01*
X232195333Y-234513952D01*
X232147714Y-234561571D01*
X232100095Y-234656809D01*
X232100095Y-234894904D01*
X232147714Y-234990142D01*
X232195333Y-235037761D01*
X232290571Y-235085380D01*
X232528666Y-235085380D01*
X232623904Y-235037761D01*
X232671523Y-234990142D01*
%TO.C,K34*%
X234576285Y-216035380D02*
X234576285Y-215035380D01*
X234004857Y-216035380D02*
X234433428Y-215463952D01*
X234004857Y-215035380D02*
X234576285Y-215606809D01*
X233671523Y-215035380D02*
X233052476Y-215035380D01*
X233385809Y-215416333D01*
X233242952Y-215416333D01*
X233147714Y-215463952D01*
X233100095Y-215511571D01*
X233052476Y-215606809D01*
X233052476Y-215844904D01*
X233100095Y-215940142D01*
X233147714Y-215987761D01*
X233242952Y-216035380D01*
X233528666Y-216035380D01*
X233623904Y-215987761D01*
X233671523Y-215940142D01*
X232195333Y-215368714D02*
X232195333Y-216035380D01*
X232433428Y-214987761D02*
X232671523Y-215702047D01*
X232052476Y-215702047D01*
%TO.C,K33*%
X234576285Y-196985380D02*
X234576285Y-195985380D01*
X234004857Y-196985380D02*
X234433428Y-196413952D01*
X234004857Y-195985380D02*
X234576285Y-196556809D01*
X233671523Y-195985380D02*
X233052476Y-195985380D01*
X233385809Y-196366333D01*
X233242952Y-196366333D01*
X233147714Y-196413952D01*
X233100095Y-196461571D01*
X233052476Y-196556809D01*
X233052476Y-196794904D01*
X233100095Y-196890142D01*
X233147714Y-196937761D01*
X233242952Y-196985380D01*
X233528666Y-196985380D01*
X233623904Y-196937761D01*
X233671523Y-196890142D01*
X232719142Y-195985380D02*
X232100095Y-195985380D01*
X232433428Y-196366333D01*
X232290571Y-196366333D01*
X232195333Y-196413952D01*
X232147714Y-196461571D01*
X232100095Y-196556809D01*
X232100095Y-196794904D01*
X232147714Y-196890142D01*
X232195333Y-196937761D01*
X232290571Y-196985380D01*
X232576285Y-196985380D01*
X232671523Y-196937761D01*
X232719142Y-196890142D01*
%TO.C,K32*%
X234576285Y-177935380D02*
X234576285Y-176935380D01*
X234004857Y-177935380D02*
X234433428Y-177363952D01*
X234004857Y-176935380D02*
X234576285Y-177506809D01*
X233671523Y-176935380D02*
X233052476Y-176935380D01*
X233385809Y-177316333D01*
X233242952Y-177316333D01*
X233147714Y-177363952D01*
X233100095Y-177411571D01*
X233052476Y-177506809D01*
X233052476Y-177744904D01*
X233100095Y-177840142D01*
X233147714Y-177887761D01*
X233242952Y-177935380D01*
X233528666Y-177935380D01*
X233623904Y-177887761D01*
X233671523Y-177840142D01*
X232671523Y-177030619D02*
X232623904Y-176983000D01*
X232528666Y-176935380D01*
X232290571Y-176935380D01*
X232195333Y-176983000D01*
X232147714Y-177030619D01*
X232100095Y-177125857D01*
X232100095Y-177221095D01*
X232147714Y-177363952D01*
X232719142Y-177935380D01*
X232100095Y-177935380D01*
%TO.C,K31*%
X234576285Y-158885380D02*
X234576285Y-157885380D01*
X234004857Y-158885380D02*
X234433428Y-158313952D01*
X234004857Y-157885380D02*
X234576285Y-158456809D01*
X233671523Y-157885380D02*
X233052476Y-157885380D01*
X233385809Y-158266333D01*
X233242952Y-158266333D01*
X233147714Y-158313952D01*
X233100095Y-158361571D01*
X233052476Y-158456809D01*
X233052476Y-158694904D01*
X233100095Y-158790142D01*
X233147714Y-158837761D01*
X233242952Y-158885380D01*
X233528666Y-158885380D01*
X233623904Y-158837761D01*
X233671523Y-158790142D01*
X232100095Y-158885380D02*
X232671523Y-158885380D01*
X232385809Y-158885380D02*
X232385809Y-157885380D01*
X232481047Y-158028238D01*
X232576285Y-158123476D01*
X232671523Y-158171095D01*
%TO.C,K30*%
X215526285Y-235085380D02*
X215526285Y-234085380D01*
X214954857Y-235085380D02*
X215383428Y-234513952D01*
X214954857Y-234085380D02*
X215526285Y-234656809D01*
X214621523Y-234085380D02*
X214002476Y-234085380D01*
X214335809Y-234466333D01*
X214192952Y-234466333D01*
X214097714Y-234513952D01*
X214050095Y-234561571D01*
X214002476Y-234656809D01*
X214002476Y-234894904D01*
X214050095Y-234990142D01*
X214097714Y-235037761D01*
X214192952Y-235085380D01*
X214478666Y-235085380D01*
X214573904Y-235037761D01*
X214621523Y-234990142D01*
X213383428Y-234085380D02*
X213288190Y-234085380D01*
X213192952Y-234133000D01*
X213145333Y-234180619D01*
X213097714Y-234275857D01*
X213050095Y-234466333D01*
X213050095Y-234704428D01*
X213097714Y-234894904D01*
X213145333Y-234990142D01*
X213192952Y-235037761D01*
X213288190Y-235085380D01*
X213383428Y-235085380D01*
X213478666Y-235037761D01*
X213526285Y-234990142D01*
X213573904Y-234894904D01*
X213621523Y-234704428D01*
X213621523Y-234466333D01*
X213573904Y-234275857D01*
X213526285Y-234180619D01*
X213478666Y-234133000D01*
X213383428Y-234085380D01*
%TO.C,K29*%
X215526285Y-216035380D02*
X215526285Y-215035380D01*
X214954857Y-216035380D02*
X215383428Y-215463952D01*
X214954857Y-215035380D02*
X215526285Y-215606809D01*
X214573904Y-215130619D02*
X214526285Y-215083000D01*
X214431047Y-215035380D01*
X214192952Y-215035380D01*
X214097714Y-215083000D01*
X214050095Y-215130619D01*
X214002476Y-215225857D01*
X214002476Y-215321095D01*
X214050095Y-215463952D01*
X214621523Y-216035380D01*
X214002476Y-216035380D01*
X213526285Y-216035380D02*
X213335809Y-216035380D01*
X213240571Y-215987761D01*
X213192952Y-215940142D01*
X213097714Y-215797285D01*
X213050095Y-215606809D01*
X213050095Y-215225857D01*
X213097714Y-215130619D01*
X213145333Y-215083000D01*
X213240571Y-215035380D01*
X213431047Y-215035380D01*
X213526285Y-215083000D01*
X213573904Y-215130619D01*
X213621523Y-215225857D01*
X213621523Y-215463952D01*
X213573904Y-215559190D01*
X213526285Y-215606809D01*
X213431047Y-215654428D01*
X213240571Y-215654428D01*
X213145333Y-215606809D01*
X213097714Y-215559190D01*
X213050095Y-215463952D01*
%TO.C,K28*%
X215526285Y-196985380D02*
X215526285Y-195985380D01*
X214954857Y-196985380D02*
X215383428Y-196413952D01*
X214954857Y-195985380D02*
X215526285Y-196556809D01*
X214573904Y-196080619D02*
X214526285Y-196033000D01*
X214431047Y-195985380D01*
X214192952Y-195985380D01*
X214097714Y-196033000D01*
X214050095Y-196080619D01*
X214002476Y-196175857D01*
X214002476Y-196271095D01*
X214050095Y-196413952D01*
X214621523Y-196985380D01*
X214002476Y-196985380D01*
X213431047Y-196413952D02*
X213526285Y-196366333D01*
X213573904Y-196318714D01*
X213621523Y-196223476D01*
X213621523Y-196175857D01*
X213573904Y-196080619D01*
X213526285Y-196033000D01*
X213431047Y-195985380D01*
X213240571Y-195985380D01*
X213145333Y-196033000D01*
X213097714Y-196080619D01*
X213050095Y-196175857D01*
X213050095Y-196223476D01*
X213097714Y-196318714D01*
X213145333Y-196366333D01*
X213240571Y-196413952D01*
X213431047Y-196413952D01*
X213526285Y-196461571D01*
X213573904Y-196509190D01*
X213621523Y-196604428D01*
X213621523Y-196794904D01*
X213573904Y-196890142D01*
X213526285Y-196937761D01*
X213431047Y-196985380D01*
X213240571Y-196985380D01*
X213145333Y-196937761D01*
X213097714Y-196890142D01*
X213050095Y-196794904D01*
X213050095Y-196604428D01*
X213097714Y-196509190D01*
X213145333Y-196461571D01*
X213240571Y-196413952D01*
%TO.C,K27*%
X215526285Y-177935380D02*
X215526285Y-176935380D01*
X214954857Y-177935380D02*
X215383428Y-177363952D01*
X214954857Y-176935380D02*
X215526285Y-177506809D01*
X214573904Y-177030619D02*
X214526285Y-176983000D01*
X214431047Y-176935380D01*
X214192952Y-176935380D01*
X214097714Y-176983000D01*
X214050095Y-177030619D01*
X214002476Y-177125857D01*
X214002476Y-177221095D01*
X214050095Y-177363952D01*
X214621523Y-177935380D01*
X214002476Y-177935380D01*
X213669142Y-176935380D02*
X213002476Y-176935380D01*
X213431047Y-177935380D01*
%TO.C,K26*%
X215526285Y-158885380D02*
X215526285Y-157885380D01*
X214954857Y-158885380D02*
X215383428Y-158313952D01*
X214954857Y-157885380D02*
X215526285Y-158456809D01*
X214573904Y-157980619D02*
X214526285Y-157933000D01*
X214431047Y-157885380D01*
X214192952Y-157885380D01*
X214097714Y-157933000D01*
X214050095Y-157980619D01*
X214002476Y-158075857D01*
X214002476Y-158171095D01*
X214050095Y-158313952D01*
X214621523Y-158885380D01*
X214002476Y-158885380D01*
X213145333Y-157885380D02*
X213335809Y-157885380D01*
X213431047Y-157933000D01*
X213478666Y-157980619D01*
X213573904Y-158123476D01*
X213621523Y-158313952D01*
X213621523Y-158694904D01*
X213573904Y-158790142D01*
X213526285Y-158837761D01*
X213431047Y-158885380D01*
X213240571Y-158885380D01*
X213145333Y-158837761D01*
X213097714Y-158790142D01*
X213050095Y-158694904D01*
X213050095Y-158456809D01*
X213097714Y-158361571D01*
X213145333Y-158313952D01*
X213240571Y-158266333D01*
X213431047Y-158266333D01*
X213526285Y-158313952D01*
X213573904Y-158361571D01*
X213621523Y-158456809D01*
%TO.C,K25*%
X196476285Y-235085380D02*
X196476285Y-234085380D01*
X195904857Y-235085380D02*
X196333428Y-234513952D01*
X195904857Y-234085380D02*
X196476285Y-234656809D01*
X195523904Y-234180619D02*
X195476285Y-234133000D01*
X195381047Y-234085380D01*
X195142952Y-234085380D01*
X195047714Y-234133000D01*
X195000095Y-234180619D01*
X194952476Y-234275857D01*
X194952476Y-234371095D01*
X195000095Y-234513952D01*
X195571523Y-235085380D01*
X194952476Y-235085380D01*
X194047714Y-234085380D02*
X194523904Y-234085380D01*
X194571523Y-234561571D01*
X194523904Y-234513952D01*
X194428666Y-234466333D01*
X194190571Y-234466333D01*
X194095333Y-234513952D01*
X194047714Y-234561571D01*
X194000095Y-234656809D01*
X194000095Y-234894904D01*
X194047714Y-234990142D01*
X194095333Y-235037761D01*
X194190571Y-235085380D01*
X194428666Y-235085380D01*
X194523904Y-235037761D01*
X194571523Y-234990142D01*
%TO.C,K24*%
X196476285Y-216035380D02*
X196476285Y-215035380D01*
X195904857Y-216035380D02*
X196333428Y-215463952D01*
X195904857Y-215035380D02*
X196476285Y-215606809D01*
X195523904Y-215130619D02*
X195476285Y-215083000D01*
X195381047Y-215035380D01*
X195142952Y-215035380D01*
X195047714Y-215083000D01*
X195000095Y-215130619D01*
X194952476Y-215225857D01*
X194952476Y-215321095D01*
X195000095Y-215463952D01*
X195571523Y-216035380D01*
X194952476Y-216035380D01*
X194095333Y-215368714D02*
X194095333Y-216035380D01*
X194333428Y-214987761D02*
X194571523Y-215702047D01*
X193952476Y-215702047D01*
%TO.C,K23*%
X196476285Y-196985380D02*
X196476285Y-195985380D01*
X195904857Y-196985380D02*
X196333428Y-196413952D01*
X195904857Y-195985380D02*
X196476285Y-196556809D01*
X195523904Y-196080619D02*
X195476285Y-196033000D01*
X195381047Y-195985380D01*
X195142952Y-195985380D01*
X195047714Y-196033000D01*
X195000095Y-196080619D01*
X194952476Y-196175857D01*
X194952476Y-196271095D01*
X195000095Y-196413952D01*
X195571523Y-196985380D01*
X194952476Y-196985380D01*
X194619142Y-195985380D02*
X194000095Y-195985380D01*
X194333428Y-196366333D01*
X194190571Y-196366333D01*
X194095333Y-196413952D01*
X194047714Y-196461571D01*
X194000095Y-196556809D01*
X194000095Y-196794904D01*
X194047714Y-196890142D01*
X194095333Y-196937761D01*
X194190571Y-196985380D01*
X194476285Y-196985380D01*
X194571523Y-196937761D01*
X194619142Y-196890142D01*
%TO.C,K22*%
X196476285Y-177935380D02*
X196476285Y-176935380D01*
X195904857Y-177935380D02*
X196333428Y-177363952D01*
X195904857Y-176935380D02*
X196476285Y-177506809D01*
X195523904Y-177030619D02*
X195476285Y-176983000D01*
X195381047Y-176935380D01*
X195142952Y-176935380D01*
X195047714Y-176983000D01*
X195000095Y-177030619D01*
X194952476Y-177125857D01*
X194952476Y-177221095D01*
X195000095Y-177363952D01*
X195571523Y-177935380D01*
X194952476Y-177935380D01*
X194571523Y-177030619D02*
X194523904Y-176983000D01*
X194428666Y-176935380D01*
X194190571Y-176935380D01*
X194095333Y-176983000D01*
X194047714Y-177030619D01*
X194000095Y-177125857D01*
X194000095Y-177221095D01*
X194047714Y-177363952D01*
X194619142Y-177935380D01*
X194000095Y-177935380D01*
%TO.C,K21*%
X196476285Y-158885380D02*
X196476285Y-157885380D01*
X195904857Y-158885380D02*
X196333428Y-158313952D01*
X195904857Y-157885380D02*
X196476285Y-158456809D01*
X195523904Y-157980619D02*
X195476285Y-157933000D01*
X195381047Y-157885380D01*
X195142952Y-157885380D01*
X195047714Y-157933000D01*
X195000095Y-157980619D01*
X194952476Y-158075857D01*
X194952476Y-158171095D01*
X195000095Y-158313952D01*
X195571523Y-158885380D01*
X194952476Y-158885380D01*
X194000095Y-158885380D02*
X194571523Y-158885380D01*
X194285809Y-158885380D02*
X194285809Y-157885380D01*
X194381047Y-158028238D01*
X194476285Y-158123476D01*
X194571523Y-158171095D01*
%TO.C,K20*%
X177426285Y-235085380D02*
X177426285Y-234085380D01*
X176854857Y-235085380D02*
X177283428Y-234513952D01*
X176854857Y-234085380D02*
X177426285Y-234656809D01*
X176473904Y-234180619D02*
X176426285Y-234133000D01*
X176331047Y-234085380D01*
X176092952Y-234085380D01*
X175997714Y-234133000D01*
X175950095Y-234180619D01*
X175902476Y-234275857D01*
X175902476Y-234371095D01*
X175950095Y-234513952D01*
X176521523Y-235085380D01*
X175902476Y-235085380D01*
X175283428Y-234085380D02*
X175188190Y-234085380D01*
X175092952Y-234133000D01*
X175045333Y-234180619D01*
X174997714Y-234275857D01*
X174950095Y-234466333D01*
X174950095Y-234704428D01*
X174997714Y-234894904D01*
X175045333Y-234990142D01*
X175092952Y-235037761D01*
X175188190Y-235085380D01*
X175283428Y-235085380D01*
X175378666Y-235037761D01*
X175426285Y-234990142D01*
X175473904Y-234894904D01*
X175521523Y-234704428D01*
X175521523Y-234466333D01*
X175473904Y-234275857D01*
X175426285Y-234180619D01*
X175378666Y-234133000D01*
X175283428Y-234085380D01*
%TO.C,K19*%
X177426285Y-216035380D02*
X177426285Y-215035380D01*
X176854857Y-216035380D02*
X177283428Y-215463952D01*
X176854857Y-215035380D02*
X177426285Y-215606809D01*
X175902476Y-216035380D02*
X176473904Y-216035380D01*
X176188190Y-216035380D02*
X176188190Y-215035380D01*
X176283428Y-215178238D01*
X176378666Y-215273476D01*
X176473904Y-215321095D01*
X175426285Y-216035380D02*
X175235809Y-216035380D01*
X175140571Y-215987761D01*
X175092952Y-215940142D01*
X174997714Y-215797285D01*
X174950095Y-215606809D01*
X174950095Y-215225857D01*
X174997714Y-215130619D01*
X175045333Y-215083000D01*
X175140571Y-215035380D01*
X175331047Y-215035380D01*
X175426285Y-215083000D01*
X175473904Y-215130619D01*
X175521523Y-215225857D01*
X175521523Y-215463952D01*
X175473904Y-215559190D01*
X175426285Y-215606809D01*
X175331047Y-215654428D01*
X175140571Y-215654428D01*
X175045333Y-215606809D01*
X174997714Y-215559190D01*
X174950095Y-215463952D01*
%TO.C,K18*%
X177426285Y-196985380D02*
X177426285Y-195985380D01*
X176854857Y-196985380D02*
X177283428Y-196413952D01*
X176854857Y-195985380D02*
X177426285Y-196556809D01*
X175902476Y-196985380D02*
X176473904Y-196985380D01*
X176188190Y-196985380D02*
X176188190Y-195985380D01*
X176283428Y-196128238D01*
X176378666Y-196223476D01*
X176473904Y-196271095D01*
X175331047Y-196413952D02*
X175426285Y-196366333D01*
X175473904Y-196318714D01*
X175521523Y-196223476D01*
X175521523Y-196175857D01*
X175473904Y-196080619D01*
X175426285Y-196033000D01*
X175331047Y-195985380D01*
X175140571Y-195985380D01*
X175045333Y-196033000D01*
X174997714Y-196080619D01*
X174950095Y-196175857D01*
X174950095Y-196223476D01*
X174997714Y-196318714D01*
X175045333Y-196366333D01*
X175140571Y-196413952D01*
X175331047Y-196413952D01*
X175426285Y-196461571D01*
X175473904Y-196509190D01*
X175521523Y-196604428D01*
X175521523Y-196794904D01*
X175473904Y-196890142D01*
X175426285Y-196937761D01*
X175331047Y-196985380D01*
X175140571Y-196985380D01*
X175045333Y-196937761D01*
X174997714Y-196890142D01*
X174950095Y-196794904D01*
X174950095Y-196604428D01*
X174997714Y-196509190D01*
X175045333Y-196461571D01*
X175140571Y-196413952D01*
%TO.C,K17*%
X177426285Y-177935380D02*
X177426285Y-176935380D01*
X176854857Y-177935380D02*
X177283428Y-177363952D01*
X176854857Y-176935380D02*
X177426285Y-177506809D01*
X175902476Y-177935380D02*
X176473904Y-177935380D01*
X176188190Y-177935380D02*
X176188190Y-176935380D01*
X176283428Y-177078238D01*
X176378666Y-177173476D01*
X176473904Y-177221095D01*
X175569142Y-176935380D02*
X174902476Y-176935380D01*
X175331047Y-177935380D01*
%TO.C,K16*%
X177426285Y-158885380D02*
X177426285Y-157885380D01*
X176854857Y-158885380D02*
X177283428Y-158313952D01*
X176854857Y-157885380D02*
X177426285Y-158456809D01*
X175902476Y-158885380D02*
X176473904Y-158885380D01*
X176188190Y-158885380D02*
X176188190Y-157885380D01*
X176283428Y-158028238D01*
X176378666Y-158123476D01*
X176473904Y-158171095D01*
X175045333Y-157885380D02*
X175235809Y-157885380D01*
X175331047Y-157933000D01*
X175378666Y-157980619D01*
X175473904Y-158123476D01*
X175521523Y-158313952D01*
X175521523Y-158694904D01*
X175473904Y-158790142D01*
X175426285Y-158837761D01*
X175331047Y-158885380D01*
X175140571Y-158885380D01*
X175045333Y-158837761D01*
X174997714Y-158790142D01*
X174950095Y-158694904D01*
X174950095Y-158456809D01*
X174997714Y-158361571D01*
X175045333Y-158313952D01*
X175140571Y-158266333D01*
X175331047Y-158266333D01*
X175426285Y-158313952D01*
X175473904Y-158361571D01*
X175521523Y-158456809D01*
%TO.C,K15*%
X158376285Y-235085380D02*
X158376285Y-234085380D01*
X157804857Y-235085380D02*
X158233428Y-234513952D01*
X157804857Y-234085380D02*
X158376285Y-234656809D01*
X156852476Y-235085380D02*
X157423904Y-235085380D01*
X157138190Y-235085380D02*
X157138190Y-234085380D01*
X157233428Y-234228238D01*
X157328666Y-234323476D01*
X157423904Y-234371095D01*
X155947714Y-234085380D02*
X156423904Y-234085380D01*
X156471523Y-234561571D01*
X156423904Y-234513952D01*
X156328666Y-234466333D01*
X156090571Y-234466333D01*
X155995333Y-234513952D01*
X155947714Y-234561571D01*
X155900095Y-234656809D01*
X155900095Y-234894904D01*
X155947714Y-234990142D01*
X155995333Y-235037761D01*
X156090571Y-235085380D01*
X156328666Y-235085380D01*
X156423904Y-235037761D01*
X156471523Y-234990142D01*
%TO.C,K14*%
X158376285Y-216035380D02*
X158376285Y-215035380D01*
X157804857Y-216035380D02*
X158233428Y-215463952D01*
X157804857Y-215035380D02*
X158376285Y-215606809D01*
X156852476Y-216035380D02*
X157423904Y-216035380D01*
X157138190Y-216035380D02*
X157138190Y-215035380D01*
X157233428Y-215178238D01*
X157328666Y-215273476D01*
X157423904Y-215321095D01*
X155995333Y-215368714D02*
X155995333Y-216035380D01*
X156233428Y-214987761D02*
X156471523Y-215702047D01*
X155852476Y-215702047D01*
%TO.C,K13*%
X158376285Y-196985380D02*
X158376285Y-195985380D01*
X157804857Y-196985380D02*
X158233428Y-196413952D01*
X157804857Y-195985380D02*
X158376285Y-196556809D01*
X156852476Y-196985380D02*
X157423904Y-196985380D01*
X157138190Y-196985380D02*
X157138190Y-195985380D01*
X157233428Y-196128238D01*
X157328666Y-196223476D01*
X157423904Y-196271095D01*
X156519142Y-195985380D02*
X155900095Y-195985380D01*
X156233428Y-196366333D01*
X156090571Y-196366333D01*
X155995333Y-196413952D01*
X155947714Y-196461571D01*
X155900095Y-196556809D01*
X155900095Y-196794904D01*
X155947714Y-196890142D01*
X155995333Y-196937761D01*
X156090571Y-196985380D01*
X156376285Y-196985380D01*
X156471523Y-196937761D01*
X156519142Y-196890142D01*
%TO.C,K12*%
X158376285Y-177935380D02*
X158376285Y-176935380D01*
X157804857Y-177935380D02*
X158233428Y-177363952D01*
X157804857Y-176935380D02*
X158376285Y-177506809D01*
X156852476Y-177935380D02*
X157423904Y-177935380D01*
X157138190Y-177935380D02*
X157138190Y-176935380D01*
X157233428Y-177078238D01*
X157328666Y-177173476D01*
X157423904Y-177221095D01*
X156471523Y-177030619D02*
X156423904Y-176983000D01*
X156328666Y-176935380D01*
X156090571Y-176935380D01*
X155995333Y-176983000D01*
X155947714Y-177030619D01*
X155900095Y-177125857D01*
X155900095Y-177221095D01*
X155947714Y-177363952D01*
X156519142Y-177935380D01*
X155900095Y-177935380D01*
%TO.C,K11*%
X158376285Y-158885380D02*
X158376285Y-157885380D01*
X157804857Y-158885380D02*
X158233428Y-158313952D01*
X157804857Y-157885380D02*
X158376285Y-158456809D01*
X156852476Y-158885380D02*
X157423904Y-158885380D01*
X157138190Y-158885380D02*
X157138190Y-157885380D01*
X157233428Y-158028238D01*
X157328666Y-158123476D01*
X157423904Y-158171095D01*
X155900095Y-158885380D02*
X156471523Y-158885380D01*
X156185809Y-158885380D02*
X156185809Y-157885380D01*
X156281047Y-158028238D01*
X156376285Y-158123476D01*
X156471523Y-158171095D01*
%TO.C,K10*%
X139326285Y-235085380D02*
X139326285Y-234085380D01*
X138754857Y-235085380D02*
X139183428Y-234513952D01*
X138754857Y-234085380D02*
X139326285Y-234656809D01*
X137802476Y-235085380D02*
X138373904Y-235085380D01*
X138088190Y-235085380D02*
X138088190Y-234085380D01*
X138183428Y-234228238D01*
X138278666Y-234323476D01*
X138373904Y-234371095D01*
X137183428Y-234085380D02*
X137088190Y-234085380D01*
X136992952Y-234133000D01*
X136945333Y-234180619D01*
X136897714Y-234275857D01*
X136850095Y-234466333D01*
X136850095Y-234704428D01*
X136897714Y-234894904D01*
X136945333Y-234990142D01*
X136992952Y-235037761D01*
X137088190Y-235085380D01*
X137183428Y-235085380D01*
X137278666Y-235037761D01*
X137326285Y-234990142D01*
X137373904Y-234894904D01*
X137421523Y-234704428D01*
X137421523Y-234466333D01*
X137373904Y-234275857D01*
X137326285Y-234180619D01*
X137278666Y-234133000D01*
X137183428Y-234085380D01*
%TO.C,K9*%
X138850095Y-216035380D02*
X138850095Y-215035380D01*
X138278666Y-216035380D02*
X138707238Y-215463952D01*
X138278666Y-215035380D02*
X138850095Y-215606809D01*
X137802476Y-216035380D02*
X137612000Y-216035380D01*
X137516761Y-215987761D01*
X137469142Y-215940142D01*
X137373904Y-215797285D01*
X137326285Y-215606809D01*
X137326285Y-215225857D01*
X137373904Y-215130619D01*
X137421523Y-215083000D01*
X137516761Y-215035380D01*
X137707238Y-215035380D01*
X137802476Y-215083000D01*
X137850095Y-215130619D01*
X137897714Y-215225857D01*
X137897714Y-215463952D01*
X137850095Y-215559190D01*
X137802476Y-215606809D01*
X137707238Y-215654428D01*
X137516761Y-215654428D01*
X137421523Y-215606809D01*
X137373904Y-215559190D01*
X137326285Y-215463952D01*
%TO.C,K8*%
X138850095Y-196985380D02*
X138850095Y-195985380D01*
X138278666Y-196985380D02*
X138707238Y-196413952D01*
X138278666Y-195985380D02*
X138850095Y-196556809D01*
X137707238Y-196413952D02*
X137802476Y-196366333D01*
X137850095Y-196318714D01*
X137897714Y-196223476D01*
X137897714Y-196175857D01*
X137850095Y-196080619D01*
X137802476Y-196033000D01*
X137707238Y-195985380D01*
X137516761Y-195985380D01*
X137421523Y-196033000D01*
X137373904Y-196080619D01*
X137326285Y-196175857D01*
X137326285Y-196223476D01*
X137373904Y-196318714D01*
X137421523Y-196366333D01*
X137516761Y-196413952D01*
X137707238Y-196413952D01*
X137802476Y-196461571D01*
X137850095Y-196509190D01*
X137897714Y-196604428D01*
X137897714Y-196794904D01*
X137850095Y-196890142D01*
X137802476Y-196937761D01*
X137707238Y-196985380D01*
X137516761Y-196985380D01*
X137421523Y-196937761D01*
X137373904Y-196890142D01*
X137326285Y-196794904D01*
X137326285Y-196604428D01*
X137373904Y-196509190D01*
X137421523Y-196461571D01*
X137516761Y-196413952D01*
%TO.C,K7*%
X138850095Y-177935380D02*
X138850095Y-176935380D01*
X138278666Y-177935380D02*
X138707238Y-177363952D01*
X138278666Y-176935380D02*
X138850095Y-177506809D01*
X137945333Y-176935380D02*
X137278666Y-176935380D01*
X137707238Y-177935380D01*
%TO.C,K6*%
X138850095Y-158885380D02*
X138850095Y-157885380D01*
X138278666Y-158885380D02*
X138707238Y-158313952D01*
X138278666Y-157885380D02*
X138850095Y-158456809D01*
X137421523Y-157885380D02*
X137612000Y-157885380D01*
X137707238Y-157933000D01*
X137754857Y-157980619D01*
X137850095Y-158123476D01*
X137897714Y-158313952D01*
X137897714Y-158694904D01*
X137850095Y-158790142D01*
X137802476Y-158837761D01*
X137707238Y-158885380D01*
X137516761Y-158885380D01*
X137421523Y-158837761D01*
X137373904Y-158790142D01*
X137326285Y-158694904D01*
X137326285Y-158456809D01*
X137373904Y-158361571D01*
X137421523Y-158313952D01*
X137516761Y-158266333D01*
X137707238Y-158266333D01*
X137802476Y-158313952D01*
X137850095Y-158361571D01*
X137897714Y-158456809D01*
%TO.C,K5*%
X119800095Y-235085380D02*
X119800095Y-234085380D01*
X119228666Y-235085380D02*
X119657238Y-234513952D01*
X119228666Y-234085380D02*
X119800095Y-234656809D01*
X118323904Y-234085380D02*
X118800095Y-234085380D01*
X118847714Y-234561571D01*
X118800095Y-234513952D01*
X118704857Y-234466333D01*
X118466761Y-234466333D01*
X118371523Y-234513952D01*
X118323904Y-234561571D01*
X118276285Y-234656809D01*
X118276285Y-234894904D01*
X118323904Y-234990142D01*
X118371523Y-235037761D01*
X118466761Y-235085380D01*
X118704857Y-235085380D01*
X118800095Y-235037761D01*
X118847714Y-234990142D01*
%TO.C,K4*%
X119800095Y-216035380D02*
X119800095Y-215035380D01*
X119228666Y-216035380D02*
X119657238Y-215463952D01*
X119228666Y-215035380D02*
X119800095Y-215606809D01*
X118371523Y-215368714D02*
X118371523Y-216035380D01*
X118609619Y-214987761D02*
X118847714Y-215702047D01*
X118228666Y-215702047D01*
%TO.C,K3*%
X119800095Y-196985380D02*
X119800095Y-195985380D01*
X119228666Y-196985380D02*
X119657238Y-196413952D01*
X119228666Y-195985380D02*
X119800095Y-196556809D01*
X118895333Y-195985380D02*
X118276285Y-195985380D01*
X118609619Y-196366333D01*
X118466761Y-196366333D01*
X118371523Y-196413952D01*
X118323904Y-196461571D01*
X118276285Y-196556809D01*
X118276285Y-196794904D01*
X118323904Y-196890142D01*
X118371523Y-196937761D01*
X118466761Y-196985380D01*
X118752476Y-196985380D01*
X118847714Y-196937761D01*
X118895333Y-196890142D01*
%TO.C,K2*%
X119800095Y-177935380D02*
X119800095Y-176935380D01*
X119228666Y-177935380D02*
X119657238Y-177363952D01*
X119228666Y-176935380D02*
X119800095Y-177506809D01*
X118847714Y-177030619D02*
X118800095Y-176983000D01*
X118704857Y-176935380D01*
X118466761Y-176935380D01*
X118371523Y-176983000D01*
X118323904Y-177030619D01*
X118276285Y-177125857D01*
X118276285Y-177221095D01*
X118323904Y-177363952D01*
X118895333Y-177935380D01*
X118276285Y-177935380D01*
%TO.C,K1*%
X119800095Y-158885380D02*
X119800095Y-157885380D01*
X119228666Y-158885380D02*
X119657238Y-158313952D01*
X119228666Y-157885380D02*
X119800095Y-158456809D01*
X118276285Y-158885380D02*
X118847714Y-158885380D01*
X118562000Y-158885380D02*
X118562000Y-157885380D01*
X118657238Y-158028238D01*
X118752476Y-158123476D01*
X118847714Y-158171095D01*
%TD*%
M02*
