%TF.GenerationSoftware,KiCad,Pcbnew,5.1.10*%
%TF.CreationDate,2021-06-15T19:04:48-05:00*%
%TF.ProjectId,olkbd_ble,6f6c6b62-645f-4626-9c65-2e6b69636164,rev?*%
%TF.SameCoordinates,Original*%
%TF.FileFunction,Profile,NP*%
%FSLAX46Y46*%
G04 Gerber Fmt 4.6, Leading zero omitted, Abs format (unit mm)*
G04 Created by KiCad (PCBNEW 5.1.10) date 2021-06-15 19:04:48*
%MOMM*%
%LPD*%
G01*
G04 APERTURE LIST*
%TA.AperFunction,Profile*%
%ADD10C,0.050000*%
%TD*%
G04 APERTURE END LIST*
D10*
X145000000Y-250000000D02*
G75*
G02*
X145000000Y-252000000I0J-1000000D01*
G01*
X149000000Y-252000000D02*
G75*
G02*
X149000000Y-250000000I0J1000000D01*
G01*
X222000000Y-250000000D02*
G75*
G02*
X222000000Y-252000000I0J-1000000D01*
G01*
X226000000Y-252000000D02*
G75*
G02*
X226000000Y-250000000I0J1000000D01*
G01*
X298000000Y-250000000D02*
G75*
G02*
X298000000Y-252000000I0J-1000000D01*
G01*
X302000000Y-252000000D02*
G75*
G02*
X302000000Y-250000000I0J1000000D01*
G01*
X302000000Y-252000000D02*
X338000000Y-252000000D01*
X302000000Y-250000000D02*
X338000000Y-250000000D01*
X298000000Y-252000000D02*
X226000000Y-252000000D01*
X226000000Y-250000000D02*
X298000000Y-250000000D01*
X222000000Y-250000000D02*
X149000000Y-250000000D01*
X149000000Y-252000000D02*
X222000000Y-252000000D01*
X145000000Y-252000000D02*
X78443750Y-252000000D01*
X78443750Y-250000000D02*
X145000000Y-250000000D01*
X78443750Y-152750000D02*
X145000000Y-152750000D01*
X226000000Y-154750000D02*
G75*
G02*
X226000000Y-152750000I0J1000000D01*
G01*
X226000000Y-152750000D02*
X298000000Y-152750000D01*
X264327300Y-131166350D02*
X278322700Y-131166350D01*
X207177300Y-93066350D02*
X221172700Y-93066350D01*
X125922700Y-131166350D02*
X125922700Y-117170950D01*
X125922700Y-98120950D02*
X111927300Y-98120950D01*
X188127300Y-136220950D02*
X188127300Y-150216350D01*
X183072700Y-98120950D02*
X169077300Y-98120950D01*
X106542500Y-158877500D02*
X106542500Y-166497500D01*
X245277300Y-74016350D02*
X259272700Y-74016350D01*
X221172700Y-136220950D02*
X207177300Y-136220950D01*
X202122700Y-112116350D02*
X202122700Y-98120950D01*
X321477300Y-117170950D02*
X321477300Y-131166350D01*
X149000000Y-154750000D02*
G75*
G02*
X149000000Y-152750000I0J1000000D01*
G01*
X111927300Y-74016350D02*
X125922700Y-74016350D01*
X335472700Y-74016350D02*
X335472700Y-60020950D01*
X335472700Y-60020950D02*
X321477300Y-60020950D01*
X222000000Y-154750000D02*
X149000000Y-154750000D01*
X302000000Y-152750000D02*
X338000000Y-152750000D01*
X78443750Y-152750000D02*
X78443750Y-121793750D01*
X145000000Y-154750000D02*
X78443750Y-154750000D01*
X222000000Y-152750000D02*
G75*
G02*
X222000000Y-154750000I0J-1000000D01*
G01*
X278322700Y-117170950D02*
X264327300Y-117170950D01*
X321477300Y-112116350D02*
X335472700Y-112116350D01*
X221172700Y-131166350D02*
X221172700Y-117170950D01*
X111927300Y-136220950D02*
X111927300Y-150216350D01*
X240222700Y-74016350D02*
X240222700Y-60020950D01*
X149000000Y-152750000D02*
X222000000Y-152750000D01*
X226227300Y-112116350D02*
X240222700Y-112116350D01*
X144972700Y-117170950D02*
X130977300Y-117170950D01*
X164022700Y-112116350D02*
X164022700Y-98120950D01*
X97652500Y-158877500D02*
X106542500Y-158877500D01*
X125922700Y-117170950D02*
X111927300Y-117170950D01*
X188127300Y-79070950D02*
X188127300Y-93066350D01*
X316422700Y-79070950D02*
X302427300Y-79070950D01*
X169077300Y-98120950D02*
X169077300Y-112116350D01*
X109400000Y-121793750D02*
X109400000Y-57500000D01*
X283377300Y-136220950D02*
X283377300Y-150216350D01*
X183072700Y-136220950D02*
X169077300Y-136220950D01*
X298000000Y-154750000D02*
X226000000Y-154750000D01*
X316422700Y-117170950D02*
X302427300Y-117170950D01*
X221172700Y-112116350D02*
X221172700Y-98120950D01*
X145000000Y-152750000D02*
G75*
G02*
X145000000Y-154750000I0J-1000000D01*
G01*
X298000000Y-152750000D02*
G75*
G02*
X298000000Y-154750000I0J-1000000D01*
G01*
X164022700Y-98120950D02*
X150027300Y-98120950D01*
X259272700Y-98120950D02*
X245277300Y-98120950D01*
X183072700Y-112116350D02*
X183072700Y-98120950D01*
X150027300Y-74016350D02*
X164022700Y-74016350D01*
X302427300Y-150216350D02*
X316422700Y-150216350D01*
X335472700Y-117170950D02*
X321477300Y-117170950D01*
X150027300Y-112116350D02*
X164022700Y-112116350D01*
X164022700Y-74016350D02*
X164022700Y-60020950D01*
X130977300Y-98120950D02*
X130977300Y-112116350D01*
X259272700Y-117170950D02*
X245277300Y-117170950D01*
X264327300Y-98120950D02*
X264327300Y-112116350D01*
X302427300Y-136220950D02*
X302427300Y-150216350D01*
X202122700Y-150216350D02*
X202122700Y-136220950D01*
X259272700Y-79070950D02*
X245277300Y-79070950D01*
X335472700Y-98120950D02*
X321477300Y-98120950D01*
X226227300Y-98120950D02*
X226227300Y-112116350D01*
X245277300Y-117170950D02*
X245277300Y-131166350D01*
X111927300Y-112116350D02*
X125922700Y-112116350D01*
X221172700Y-60020950D02*
X207177300Y-60020950D01*
X130977300Y-79070950D02*
X130977300Y-93066350D01*
X169077300Y-79070950D02*
X169077300Y-93066350D01*
X316422700Y-98120950D02*
X302427300Y-98120950D01*
X150027300Y-136220950D02*
X150027300Y-150216350D01*
X321477300Y-93066350D02*
X335472700Y-93066350D01*
X188127300Y-112116350D02*
X202122700Y-112116350D01*
X150027300Y-150216350D02*
X164022700Y-150216350D01*
X169077300Y-74016350D02*
X183072700Y-74016350D01*
X97652500Y-166497500D02*
X97652500Y-158877500D01*
X169077300Y-117170950D02*
X169077300Y-131166350D01*
X144972700Y-131166350D02*
X144972700Y-117170950D01*
X321477300Y-131166350D02*
X335472700Y-131166350D01*
X264327300Y-112116350D02*
X278322700Y-112116350D01*
X188127300Y-74016350D02*
X202122700Y-74016350D01*
X111927300Y-79070950D02*
X111927300Y-93066350D01*
X188127300Y-131166350D02*
X202122700Y-131166350D01*
X259272700Y-150216350D02*
X259272700Y-136220950D01*
X316422700Y-131166350D02*
X316422700Y-117170950D01*
X321477300Y-79070950D02*
X321477300Y-93066350D01*
X321477300Y-74016350D02*
X335472700Y-74016350D01*
X283377300Y-93066350D02*
X297372700Y-93066350D01*
X297372700Y-98120950D02*
X283377300Y-98120950D01*
X125922700Y-60020950D02*
X111927300Y-60020950D01*
X226227300Y-136220950D02*
X226227300Y-150216350D01*
X335472700Y-93066350D02*
X335472700Y-79070950D01*
X240222700Y-60020950D02*
X226227300Y-60020950D01*
X245277300Y-131166350D02*
X259272700Y-131166350D01*
X169077300Y-93066350D02*
X183072700Y-93066350D01*
X259272700Y-131166350D02*
X259272700Y-117170950D01*
X245277300Y-93066350D02*
X259272700Y-93066350D01*
X130977300Y-93066350D02*
X144972700Y-93066350D01*
X130977300Y-60020950D02*
X130977300Y-74016350D01*
X259272700Y-60020950D02*
X245277300Y-60020950D01*
X245277300Y-150216350D02*
X259272700Y-150216350D01*
X264327300Y-117170950D02*
X264327300Y-131166350D01*
X207177300Y-136220950D02*
X207177300Y-150216350D01*
X144972700Y-136220950D02*
X130977300Y-136220950D01*
X169077300Y-150216350D02*
X183072700Y-150216350D01*
X264327300Y-93066350D02*
X278322700Y-93066350D01*
X183072700Y-150216350D02*
X183072700Y-136220950D01*
X164022700Y-150216350D02*
X164022700Y-136220950D01*
X202122700Y-60020950D02*
X188127300Y-60020950D01*
X316422700Y-136220950D02*
X302427300Y-136220950D01*
X207177300Y-98120950D02*
X207177300Y-112116350D01*
X188127300Y-60020950D02*
X188127300Y-74016350D01*
X335472700Y-79070950D02*
X321477300Y-79070950D01*
X259272700Y-136220950D02*
X245277300Y-136220950D01*
X188127300Y-93066350D02*
X202122700Y-93066350D01*
X226227300Y-150216350D02*
X240222700Y-150216350D01*
X202122700Y-93066350D02*
X202122700Y-79070950D01*
X338000000Y-154750000D02*
X302000000Y-154750000D01*
X221172700Y-74016350D02*
X221172700Y-60020950D01*
X125922700Y-136220950D02*
X111927300Y-136220950D01*
X335472700Y-136220950D02*
X321477300Y-136220950D01*
X316422700Y-93066350D02*
X316422700Y-79070950D01*
X164022700Y-131166350D02*
X164022700Y-117170950D01*
X207177300Y-131166350D02*
X221172700Y-131166350D01*
X338000000Y-154750000D02*
X338000000Y-250000000D01*
X202122700Y-117170950D02*
X188127300Y-117170950D01*
X278322700Y-131166350D02*
X278322700Y-117170950D01*
X150027300Y-117170950D02*
X150027300Y-131166350D01*
X207177300Y-74016350D02*
X221172700Y-74016350D01*
X125922700Y-93066350D02*
X125922700Y-79070950D01*
X264327300Y-136220950D02*
X264327300Y-150216350D01*
X169077300Y-136220950D02*
X169077300Y-150216350D01*
X297372700Y-150216350D02*
X297372700Y-136220950D01*
X226227300Y-74016350D02*
X240222700Y-74016350D01*
X188127300Y-117170950D02*
X188127300Y-131166350D01*
X207177300Y-150216350D02*
X221172700Y-150216350D01*
X188127300Y-150216350D02*
X202122700Y-150216350D01*
X130977300Y-117170950D02*
X130977300Y-131166350D01*
X302427300Y-131166350D02*
X316422700Y-131166350D01*
X283377300Y-131166350D02*
X297372700Y-131166350D01*
X245277300Y-60020950D02*
X245277300Y-74016350D01*
X278322700Y-112116350D02*
X278322700Y-98120950D01*
X144972700Y-74016350D02*
X144972700Y-60020950D01*
X164022700Y-93066350D02*
X164022700Y-79070950D01*
X278322700Y-136220950D02*
X264327300Y-136220950D01*
X297372700Y-136220950D02*
X283377300Y-136220950D01*
X207177300Y-112116350D02*
X221172700Y-112116350D01*
X297372700Y-60020950D02*
X283377300Y-60020950D01*
X302427300Y-117170950D02*
X302427300Y-131166350D01*
X335472700Y-131166350D02*
X335472700Y-117170950D01*
X321477300Y-136220950D02*
X321477300Y-150216350D01*
X207177300Y-79070950D02*
X207177300Y-93066350D01*
X183072700Y-93066350D02*
X183072700Y-79070950D01*
X302427300Y-74016350D02*
X316422700Y-74016350D01*
X259272700Y-93066350D02*
X259272700Y-79070950D01*
X321477300Y-150216350D02*
X335472700Y-150216350D01*
X202122700Y-136220950D02*
X188127300Y-136220950D01*
X321477300Y-60020950D02*
X321477300Y-74016350D01*
X335472700Y-112116350D02*
X335472700Y-98120950D01*
X221172700Y-93066350D02*
X221172700Y-79070950D01*
X111927300Y-60020950D02*
X111927300Y-74016350D01*
X221172700Y-150216350D02*
X221172700Y-136220950D01*
X278322700Y-74016350D02*
X278322700Y-60020950D01*
X150027300Y-60020950D02*
X150027300Y-74016350D01*
X164022700Y-136220950D02*
X150027300Y-136220950D01*
X302427300Y-60020950D02*
X302427300Y-74016350D01*
X183072700Y-131166350D02*
X183072700Y-117170950D01*
X278322700Y-93066350D02*
X278322700Y-79070950D01*
X130977300Y-136220950D02*
X130977300Y-150216350D01*
X240222700Y-150216350D02*
X240222700Y-136220950D01*
X226227300Y-79070950D02*
X226227300Y-93066350D01*
X283377300Y-79070950D02*
X283377300Y-93066350D01*
X207177300Y-60020950D02*
X207177300Y-74016350D01*
X125922700Y-79070950D02*
X111927300Y-79070950D01*
X111927300Y-131166350D02*
X125922700Y-131166350D01*
X226227300Y-131166350D02*
X240222700Y-131166350D01*
X302427300Y-98120950D02*
X302427300Y-112116350D01*
X283377300Y-74016350D02*
X297372700Y-74016350D01*
X302000000Y-154750000D02*
G75*
G02*
X302000000Y-152750000I0J1000000D01*
G01*
X264327300Y-60020950D02*
X264327300Y-74016350D01*
X111927300Y-93066350D02*
X125922700Y-93066350D01*
X183072700Y-60020950D02*
X169077300Y-60020950D01*
X169077300Y-60020950D02*
X169077300Y-74016350D01*
X338000000Y-57500000D02*
X338000000Y-152750000D01*
X78443750Y-250000000D02*
X78443750Y-154750000D01*
X221172700Y-79070950D02*
X207177300Y-79070950D01*
X245277300Y-112116350D02*
X259272700Y-112116350D01*
X226227300Y-93066350D02*
X240222700Y-93066350D01*
X144972700Y-79070950D02*
X130977300Y-79070950D01*
X130977300Y-74016350D02*
X144972700Y-74016350D01*
X106542500Y-166497500D02*
X97652500Y-166497500D01*
X297372700Y-131166350D02*
X297372700Y-117170950D01*
X283377300Y-117170950D02*
X283377300Y-131166350D01*
X302427300Y-93066350D02*
X316422700Y-93066350D01*
X111927300Y-98120950D02*
X111927300Y-112116350D01*
X278322700Y-150216350D02*
X278322700Y-136220950D01*
X150027300Y-79070950D02*
X150027300Y-93066350D01*
X221172700Y-98120950D02*
X207177300Y-98120950D01*
X144972700Y-60020950D02*
X130977300Y-60020950D01*
X164022700Y-79070950D02*
X150027300Y-79070950D01*
X183072700Y-117170950D02*
X169077300Y-117170950D01*
X283377300Y-60020950D02*
X283377300Y-74016350D01*
X144972700Y-93066350D02*
X144972700Y-79070950D01*
X316422700Y-74016350D02*
X316422700Y-60020950D01*
X264327300Y-79070950D02*
X264327300Y-93066350D01*
X302427300Y-79070950D02*
X302427300Y-93066350D01*
X226227300Y-117170950D02*
X226227300Y-131166350D01*
X164022700Y-60020950D02*
X150027300Y-60020950D01*
X297372700Y-117170950D02*
X283377300Y-117170950D01*
X278322700Y-79070950D02*
X264327300Y-79070950D01*
X111927300Y-117170950D02*
X111927300Y-131166350D01*
X183072700Y-74016350D02*
X183072700Y-60020950D01*
X188127300Y-98120950D02*
X188127300Y-112116350D01*
X202122700Y-131166350D02*
X202122700Y-117170950D01*
X335472700Y-150216350D02*
X335472700Y-136220950D01*
X240222700Y-98120950D02*
X226227300Y-98120950D01*
X109400000Y-57500000D02*
X338000000Y-57500000D01*
X283377300Y-150216350D02*
X297372700Y-150216350D01*
X109400000Y-121793750D02*
X107018750Y-121793750D01*
X150027300Y-93066350D02*
X164022700Y-93066350D01*
X125922700Y-74016350D02*
X125922700Y-60020950D01*
X316422700Y-150216350D02*
X316422700Y-136220950D01*
X278322700Y-60020950D02*
X264327300Y-60020950D01*
X264327300Y-150216350D02*
X278322700Y-150216350D01*
X207177300Y-117170950D02*
X207177300Y-131166350D01*
X240222700Y-136220950D02*
X226227300Y-136220950D01*
X130977300Y-112116350D02*
X144972700Y-112116350D01*
X316422700Y-60020950D02*
X302427300Y-60020950D01*
X297372700Y-79070950D02*
X283377300Y-79070950D01*
X144972700Y-98120950D02*
X130977300Y-98120950D01*
X245277300Y-79070950D02*
X245277300Y-93066350D01*
X144972700Y-112116350D02*
X144972700Y-98120950D01*
X150027300Y-98120950D02*
X150027300Y-112116350D01*
X245277300Y-98120950D02*
X245277300Y-112116350D01*
X240222700Y-131166350D02*
X240222700Y-117170950D01*
X259272700Y-74016350D02*
X259272700Y-60020950D01*
X245277300Y-136220950D02*
X245277300Y-150216350D01*
X297372700Y-74016350D02*
X297372700Y-60020950D01*
X278322700Y-98120950D02*
X264327300Y-98120950D01*
X202122700Y-74016350D02*
X202122700Y-60020950D01*
X297372700Y-112116350D02*
X297372700Y-98120950D01*
X226227300Y-60020950D02*
X226227300Y-74016350D01*
X164022700Y-117170950D02*
X150027300Y-117170950D01*
X111927300Y-150216350D02*
X125922700Y-150216350D01*
X169077300Y-112116350D02*
X183072700Y-112116350D01*
X202122700Y-79070950D02*
X188127300Y-79070950D01*
X240222700Y-112116350D02*
X240222700Y-98120950D01*
X240222700Y-117170950D02*
X226227300Y-117170950D01*
X302427300Y-112116350D02*
X316422700Y-112116350D01*
X183072700Y-79070950D02*
X169077300Y-79070950D01*
X259272700Y-112116350D02*
X259272700Y-98120950D01*
X125922700Y-112116350D02*
X125922700Y-98120950D01*
X264327300Y-74016350D02*
X278322700Y-74016350D01*
X221172700Y-117170950D02*
X207177300Y-117170950D01*
X283377300Y-98120950D02*
X283377300Y-112116350D01*
X297372700Y-93066350D02*
X297372700Y-79070950D01*
X283377300Y-112116350D02*
X297372700Y-112116350D01*
X240222700Y-93066350D02*
X240222700Y-79070950D01*
X169077300Y-131166350D02*
X183072700Y-131166350D01*
X150027300Y-131166350D02*
X164022700Y-131166350D01*
X130977300Y-150216350D02*
X144972700Y-150216350D01*
X78443750Y-121793750D02*
X107018750Y-121793750D01*
X316422700Y-112116350D02*
X316422700Y-98120950D01*
X321477300Y-98120950D02*
X321477300Y-112116350D01*
X144972700Y-150216350D02*
X144972700Y-136220950D01*
X240222700Y-79070950D02*
X226227300Y-79070950D01*
X130977300Y-131166350D02*
X144972700Y-131166350D01*
X125922700Y-150216350D02*
X125922700Y-136220950D01*
X202122700Y-98120950D02*
X188127300Y-98120950D01*
X338000000Y-252000000D02*
X338000000Y-347250000D01*
X78443750Y-347250000D02*
X78443750Y-252000000D01*
X338000000Y-347250000D02*
X78443750Y-347250000D01*
M02*
