M48
INCH,TZ
T1C0.0157
T2C0.0300
T3C0.0800
T4C0.1400
%
G90
G05
T1
X42727Y-72906
X44338Y-78883
X58718Y-82109
X58795Y-75331
X61444Y-75045
X64395Y-74823
X65125Y-75141
X65758Y-82082
X76634Y-74730
X78138Y-75957
X85964Y-82572
X86075Y-77948
X93604Y-77907
X93773Y-82708
X101563Y-74691
X103869Y-82363
X103872Y-75041
X108019Y-74338
X109354Y-74308
X110309Y-75041
X111346Y-82515
X124310Y-68623
T2
X32000Y-63750
X32000Y-64750
X32000Y-65750
X32000Y-66750
X32000Y-67750
X32000Y-68750
X32000Y-69750
X32000Y-70750
X32000Y-71750
X32000Y-72750
X32000Y-73750
X32000Y-74750
X32000Y-75750
X32000Y-76750
X32000Y-77750
X32000Y-78750
X32000Y-79750
X32000Y-80750
X32000Y-81750
X32000Y-82750
X41000Y-67750
X41000Y-68750
X41000Y-69750
X41000Y-70750
X41000Y-71750
X41000Y-72750
X41000Y-73750
X41000Y-74750
X41000Y-75750
X41000Y-76750
X41000Y-77750
X41000Y-78750
X41000Y-79750
X41000Y-80750
X41000Y-81750
X41000Y-82750
T3
X37500Y-53438
X37500Y-130313
X50625Y-30938
X50625Y-38438
X50625Y-45938
X50625Y-53438
X50625Y-69375
X50625Y-91875
X50625Y-115313
X50625Y-122813
X58125Y-30938
X58125Y-53438
X58125Y-107813
X58125Y-130313
X73125Y-30938
X73125Y-53438
X73125Y-107813
X73125Y-130313
X80625Y-38438
X80625Y-45938
X80625Y-115313
X80625Y-122813
X88125Y-30938
X88125Y-53438
X88125Y-69375
X88125Y-91875
X95625Y-38438
X95625Y-45938
X95625Y-115313
X95625Y-122813
X103125Y-30938
X103125Y-53438
X103125Y-107813
X103125Y-130313
X118125Y-30938
X118125Y-53438
X118125Y-107813
X118125Y-130313
X125625Y-30938
X125625Y-38438
X125625Y-45938
X125625Y-53438
X125625Y-69375
X125625Y-91875
X125625Y-115313
X125625Y-122813
T4
X37500Y-91875
X50625Y-76875
X50625Y-84375
X58125Y-69375
X58125Y-91875
X73125Y-69375
X73125Y-91875
X80625Y-76875
X80625Y-84375
X95625Y-76875
X95625Y-84375
X103125Y-69375
X103125Y-91875
X118125Y-69375
X118125Y-91875
X125625Y-76875
X125625Y-84375
T0
M30
