%TF.GenerationSoftware,KiCad,Pcbnew,5.1.10*%
%TF.CreationDate,2021-06-16T10:43:04-05:00*%
%TF.ProjectId,olkbd_ble,6f6c6b62-645f-4626-9c65-2e6b69636164,rev?*%
%TF.SameCoordinates,Original*%
%TF.FileFunction,Paste,Bot*%
%TF.FilePolarity,Positive*%
%FSLAX46Y46*%
G04 Gerber Fmt 4.6, Leading zero omitted, Abs format (unit mm)*
G04 Created by KiCad (PCBNEW 5.1.10) date 2021-06-16 10:43:04*
%MOMM*%
%LPD*%
G01*
G04 APERTURE LIST*
%ADD10R,1.600000X1.000000*%
%ADD11R,2.550000X2.500000*%
%ADD12R,1.200000X1.200000*%
G04 APERTURE END LIST*
D10*
%TO.C,L60*%
X331406000Y-246501000D03*
X331406000Y-244751000D03*
X325818000Y-244751000D03*
X325818000Y-246501000D03*
%TD*%
%TO.C,L59*%
X331406000Y-227451000D03*
X331406000Y-225701000D03*
X325818000Y-225701000D03*
X325818000Y-227451000D03*
%TD*%
%TO.C,L58*%
X331406000Y-208401000D03*
X331406000Y-206651000D03*
X325818000Y-206651000D03*
X325818000Y-208401000D03*
%TD*%
%TO.C,L57*%
X331406000Y-189351000D03*
X331406000Y-187601000D03*
X325818000Y-187601000D03*
X325818000Y-189351000D03*
%TD*%
%TO.C,L56*%
X331406000Y-170301000D03*
X331406000Y-168551000D03*
X325818000Y-168551000D03*
X325818000Y-170301000D03*
%TD*%
%TO.C,L55*%
X312356000Y-246501000D03*
X312356000Y-244751000D03*
X306768000Y-244751000D03*
X306768000Y-246501000D03*
%TD*%
%TO.C,L54*%
X312356000Y-227451000D03*
X312356000Y-225701000D03*
X306768000Y-225701000D03*
X306768000Y-227451000D03*
%TD*%
%TO.C,L53*%
X312356000Y-208401000D03*
X312356000Y-206651000D03*
X306768000Y-206651000D03*
X306768000Y-208401000D03*
%TD*%
%TO.C,L52*%
X312356000Y-189351000D03*
X312356000Y-187601000D03*
X306768000Y-187601000D03*
X306768000Y-189351000D03*
%TD*%
%TO.C,L51*%
X312356000Y-170301000D03*
X312356000Y-168551000D03*
X306768000Y-168551000D03*
X306768000Y-170301000D03*
%TD*%
%TO.C,L50*%
X293306000Y-246501000D03*
X293306000Y-244751000D03*
X287718000Y-244751000D03*
X287718000Y-246501000D03*
%TD*%
%TO.C,L49*%
X293306000Y-227451000D03*
X293306000Y-225701000D03*
X287718000Y-225701000D03*
X287718000Y-227451000D03*
%TD*%
%TO.C,L48*%
X293306000Y-208401000D03*
X293306000Y-206651000D03*
X287718000Y-206651000D03*
X287718000Y-208401000D03*
%TD*%
%TO.C,L47*%
X293306000Y-189351000D03*
X293306000Y-187601000D03*
X287718000Y-187601000D03*
X287718000Y-189351000D03*
%TD*%
%TO.C,L46*%
X293306000Y-170301000D03*
X293306000Y-168551000D03*
X287718000Y-168551000D03*
X287718000Y-170301000D03*
%TD*%
%TO.C,L45*%
X274256000Y-246501000D03*
X274256000Y-244751000D03*
X268668000Y-244751000D03*
X268668000Y-246501000D03*
%TD*%
%TO.C,L44*%
X274256000Y-227451000D03*
X274256000Y-225701000D03*
X268668000Y-225701000D03*
X268668000Y-227451000D03*
%TD*%
%TO.C,L43*%
X274256000Y-208401000D03*
X274256000Y-206651000D03*
X268668000Y-206651000D03*
X268668000Y-208401000D03*
%TD*%
%TO.C,L42*%
X274256000Y-189351000D03*
X274256000Y-187601000D03*
X268668000Y-187601000D03*
X268668000Y-189351000D03*
%TD*%
%TO.C,L41*%
X274256000Y-170301000D03*
X274256000Y-168551000D03*
X268668000Y-168551000D03*
X268668000Y-170301000D03*
%TD*%
%TO.C,L40*%
X255206000Y-246463000D03*
X255206000Y-244713000D03*
X249618000Y-244713000D03*
X249618000Y-246463000D03*
%TD*%
%TO.C,L39*%
X255206000Y-227451000D03*
X255206000Y-225701000D03*
X249618000Y-225701000D03*
X249618000Y-227451000D03*
%TD*%
%TO.C,L38*%
X255206000Y-208401000D03*
X255206000Y-206651000D03*
X249618000Y-206651000D03*
X249618000Y-208401000D03*
%TD*%
%TO.C,L37*%
X255206000Y-189351000D03*
X255206000Y-187601000D03*
X249618000Y-187601000D03*
X249618000Y-189351000D03*
%TD*%
%TO.C,L36*%
X255206000Y-170301000D03*
X255206000Y-168551000D03*
X249618000Y-168551000D03*
X249618000Y-170301000D03*
%TD*%
%TO.C,L35*%
X236156000Y-246501000D03*
X236156000Y-244751000D03*
X230568000Y-244751000D03*
X230568000Y-246501000D03*
%TD*%
%TO.C,L34*%
X236156000Y-227451000D03*
X236156000Y-225701000D03*
X230568000Y-225701000D03*
X230568000Y-227451000D03*
%TD*%
%TO.C,L33*%
X236156000Y-208401000D03*
X236156000Y-206651000D03*
X230568000Y-206651000D03*
X230568000Y-208401000D03*
%TD*%
%TO.C,L32*%
X236156000Y-189351000D03*
X236156000Y-187601000D03*
X230568000Y-187601000D03*
X230568000Y-189351000D03*
%TD*%
%TO.C,L31*%
X236156000Y-170301000D03*
X236156000Y-168551000D03*
X230568000Y-168551000D03*
X230568000Y-170301000D03*
%TD*%
%TO.C,L30*%
X217106000Y-246501000D03*
X217106000Y-244751000D03*
X211518000Y-244751000D03*
X211518000Y-246501000D03*
%TD*%
%TO.C,L29*%
X217106000Y-227451000D03*
X217106000Y-225701000D03*
X211518000Y-225701000D03*
X211518000Y-227451000D03*
%TD*%
%TO.C,L28*%
X217106000Y-208401000D03*
X217106000Y-206651000D03*
X211518000Y-206651000D03*
X211518000Y-208401000D03*
%TD*%
%TO.C,L27*%
X217106000Y-189351000D03*
X217106000Y-187601000D03*
X211518000Y-187601000D03*
X211518000Y-189351000D03*
%TD*%
%TO.C,L26*%
X217106000Y-170301000D03*
X217106000Y-168551000D03*
X211518000Y-168551000D03*
X211518000Y-170301000D03*
%TD*%
%TO.C,L25*%
X198056000Y-246501000D03*
X198056000Y-244751000D03*
X192468000Y-244751000D03*
X192468000Y-246501000D03*
%TD*%
%TO.C,L24*%
X198056000Y-227451000D03*
X198056000Y-225701000D03*
X192468000Y-225701000D03*
X192468000Y-227451000D03*
%TD*%
%TO.C,L23*%
X198056000Y-208401000D03*
X198056000Y-206651000D03*
X192468000Y-206651000D03*
X192468000Y-208401000D03*
%TD*%
%TO.C,L22*%
X198056000Y-189351000D03*
X198056000Y-187601000D03*
X192468000Y-187601000D03*
X192468000Y-189351000D03*
%TD*%
%TO.C,L21*%
X198056000Y-170301000D03*
X198056000Y-168551000D03*
X192468000Y-168551000D03*
X192468000Y-170301000D03*
%TD*%
%TO.C,L20*%
X179006000Y-246501000D03*
X179006000Y-244751000D03*
X173418000Y-244751000D03*
X173418000Y-246501000D03*
%TD*%
%TO.C,L19*%
X179006000Y-227451000D03*
X179006000Y-225701000D03*
X173418000Y-225701000D03*
X173418000Y-227451000D03*
%TD*%
%TO.C,L18*%
X179006000Y-208401000D03*
X179006000Y-206651000D03*
X173418000Y-206651000D03*
X173418000Y-208401000D03*
%TD*%
%TO.C,L17*%
X179006000Y-189351000D03*
X179006000Y-187601000D03*
X173418000Y-187601000D03*
X173418000Y-189351000D03*
%TD*%
%TO.C,L16*%
X179006000Y-170301000D03*
X179006000Y-168551000D03*
X173418000Y-168551000D03*
X173418000Y-170301000D03*
%TD*%
%TO.C,L15*%
X159956000Y-246501000D03*
X159956000Y-244751000D03*
X154368000Y-244751000D03*
X154368000Y-246501000D03*
%TD*%
%TO.C,L14*%
X159956000Y-227451000D03*
X159956000Y-225701000D03*
X154368000Y-225701000D03*
X154368000Y-227451000D03*
%TD*%
%TO.C,L13*%
X159956000Y-208401000D03*
X159956000Y-206651000D03*
X154368000Y-206651000D03*
X154368000Y-208401000D03*
%TD*%
%TO.C,L12*%
X159956000Y-189351000D03*
X159956000Y-187601000D03*
X154368000Y-187601000D03*
X154368000Y-189351000D03*
%TD*%
%TO.C,L11*%
X159956000Y-170301000D03*
X159956000Y-168551000D03*
X154368000Y-168551000D03*
X154368000Y-170301000D03*
%TD*%
%TO.C,L10*%
X140906000Y-246501000D03*
X140906000Y-244751000D03*
X135318000Y-244751000D03*
X135318000Y-246501000D03*
%TD*%
%TO.C,L9*%
X140906000Y-227451000D03*
X140906000Y-225701000D03*
X135318000Y-225701000D03*
X135318000Y-227451000D03*
%TD*%
%TO.C,L8*%
X140906000Y-208401000D03*
X140906000Y-206651000D03*
X135318000Y-206651000D03*
X135318000Y-208401000D03*
%TD*%
%TO.C,L7*%
X140906000Y-189731000D03*
X140906000Y-187981000D03*
X135318000Y-187981000D03*
X135318000Y-189731000D03*
%TD*%
%TO.C,L6*%
X140906000Y-170301000D03*
X140906000Y-168551000D03*
X135318000Y-168551000D03*
X135318000Y-170301000D03*
%TD*%
%TO.C,L5*%
X121856000Y-246501000D03*
X121856000Y-244751000D03*
X116268000Y-244751000D03*
X116268000Y-246501000D03*
%TD*%
%TO.C,L4*%
X121856000Y-227451000D03*
X121856000Y-225701000D03*
X116268000Y-225701000D03*
X116268000Y-227451000D03*
%TD*%
%TO.C,L3*%
X121856000Y-208401000D03*
X121856000Y-206651000D03*
X116268000Y-206651000D03*
X116268000Y-208401000D03*
%TD*%
%TO.C,L2*%
X121856000Y-189351000D03*
X121856000Y-187601000D03*
X116268000Y-187601000D03*
X116268000Y-189351000D03*
%TD*%
%TO.C,L1*%
X121856000Y-170301000D03*
X121856000Y-168551000D03*
X116268000Y-168551000D03*
X116268000Y-170301000D03*
%TD*%
D11*
%TO.C,K33*%
X225802000Y-199486000D03*
X239652000Y-196946000D03*
%TD*%
D12*
%TO.C,D51*%
X300500000Y-165663000D03*
X300500000Y-168813000D03*
%TD*%
%TO.C,D12*%
X148000000Y-184663000D03*
X148000000Y-187813000D03*
%TD*%
D11*
%TO.C,K4*%
X111502000Y-218536000D03*
X125352000Y-215996000D03*
%TD*%
D12*
%TO.C,D35*%
X224500000Y-241663000D03*
X224500000Y-244813000D03*
%TD*%
%TO.C,D8*%
X129000000Y-203663000D03*
X129000000Y-206813000D03*
%TD*%
D11*
%TO.C,K28*%
X206752000Y-199486000D03*
X220602000Y-196946000D03*
%TD*%
D12*
%TO.C,D46*%
X281500000Y-165663000D03*
X281500000Y-168813000D03*
%TD*%
D11*
%TO.C,K23*%
X187702000Y-199486000D03*
X201552000Y-196946000D03*
%TD*%
D12*
%TO.C,D34*%
X224500000Y-222663000D03*
X224500000Y-225813000D03*
%TD*%
%TO.C,D23*%
X186500000Y-203663000D03*
X186500000Y-206813000D03*
%TD*%
D11*
%TO.C,K31*%
X225802000Y-161386000D03*
X239652000Y-158846000D03*
%TD*%
D12*
%TO.C,D48*%
X281500000Y-203663000D03*
X281500000Y-206813000D03*
%TD*%
D11*
%TO.C,K45*%
X263902000Y-237586000D03*
X277752000Y-235046000D03*
%TD*%
%TO.C,K36*%
X244852000Y-161386000D03*
X258702000Y-158846000D03*
%TD*%
D12*
%TO.C,D29*%
X205500000Y-222663000D03*
X205500000Y-225813000D03*
%TD*%
%TO.C,D3*%
X110000000Y-203663000D03*
X110000000Y-206813000D03*
%TD*%
D11*
%TO.C,K27*%
X206752000Y-180436000D03*
X220602000Y-177896000D03*
%TD*%
D12*
%TO.C,D20*%
X167000000Y-241663000D03*
X167000000Y-244813000D03*
%TD*%
%TO.C,D49*%
X281500000Y-222663000D03*
X281500000Y-225813000D03*
%TD*%
%TO.C,D31*%
X224500000Y-165663000D03*
X224500000Y-168813000D03*
%TD*%
D11*
%TO.C,K25*%
X187702000Y-237586000D03*
X201552000Y-235046000D03*
%TD*%
%TO.C,K17*%
X168652000Y-180436000D03*
X182502000Y-177896000D03*
%TD*%
%TO.C,K35*%
X225802000Y-237586000D03*
X239652000Y-235046000D03*
%TD*%
D12*
%TO.C,D36*%
X243500000Y-165663000D03*
X243500000Y-168813000D03*
%TD*%
D11*
%TO.C,K6*%
X130552000Y-161386000D03*
X144402000Y-158846000D03*
%TD*%
D12*
%TO.C,D13*%
X148000000Y-203663000D03*
X148000000Y-206813000D03*
%TD*%
D11*
%TO.C,K18*%
X168652000Y-199486000D03*
X182502000Y-196946000D03*
%TD*%
D12*
%TO.C,D24*%
X186500000Y-222663000D03*
X186500000Y-225813000D03*
%TD*%
D11*
%TO.C,K40*%
X244852000Y-237586000D03*
X258702000Y-235046000D03*
%TD*%
%TO.C,K38*%
X244852000Y-199486000D03*
X258702000Y-196946000D03*
%TD*%
D12*
%TO.C,D26*%
X205500000Y-165663000D03*
X205500000Y-168813000D03*
%TD*%
%TO.C,D25*%
X186500000Y-241663000D03*
X186500000Y-244813000D03*
%TD*%
D11*
%TO.C,K56*%
X321052000Y-161386000D03*
X334902000Y-158846000D03*
%TD*%
%TO.C,K8*%
X130552000Y-199486000D03*
X144402000Y-196946000D03*
%TD*%
D12*
%TO.C,D52*%
X300500000Y-184663000D03*
X300500000Y-187813000D03*
%TD*%
D11*
%TO.C,K55*%
X302002000Y-237586000D03*
X315852000Y-235046000D03*
%TD*%
%TO.C,K47*%
X282952000Y-180436000D03*
X296802000Y-177896000D03*
%TD*%
%TO.C,K29*%
X206752000Y-218536000D03*
X220602000Y-215996000D03*
%TD*%
D12*
%TO.C,D44*%
X262500000Y-222663000D03*
X262500000Y-225813000D03*
%TD*%
%TO.C,D39*%
X243500000Y-222663000D03*
X243500000Y-225813000D03*
%TD*%
%TO.C,D7*%
X129000000Y-184663000D03*
X129000000Y-187813000D03*
%TD*%
D11*
%TO.C,K53*%
X302002000Y-199486000D03*
X315852000Y-196946000D03*
%TD*%
D12*
%TO.C,D57*%
X319500000Y-184663000D03*
X319500000Y-187813000D03*
%TD*%
%TO.C,D45*%
X262500000Y-241663000D03*
X262500000Y-244813000D03*
%TD*%
%TO.C,D6*%
X129000000Y-165663000D03*
X129000000Y-168813000D03*
%TD*%
D11*
%TO.C,K57*%
X321052000Y-180436000D03*
X334902000Y-177896000D03*
%TD*%
D12*
%TO.C,D30*%
X205500000Y-241663000D03*
X205500000Y-244813000D03*
%TD*%
%TO.C,D37*%
X243500000Y-184663000D03*
X243500000Y-187813000D03*
%TD*%
%TO.C,D50*%
X281500000Y-241663000D03*
X281500000Y-244813000D03*
%TD*%
%TO.C,D53*%
X300500000Y-203663000D03*
X300500000Y-206813000D03*
%TD*%
D11*
%TO.C,K30*%
X206752000Y-237586000D03*
X220602000Y-235046000D03*
%TD*%
%TO.C,K1*%
X111502000Y-161386000D03*
X125352000Y-158846000D03*
%TD*%
%TO.C,K9*%
X130552000Y-218536000D03*
X144402000Y-215996000D03*
%TD*%
%TO.C,K48*%
X282952000Y-199486000D03*
X296802000Y-196946000D03*
%TD*%
%TO.C,K10*%
X130552000Y-237586000D03*
X144402000Y-235046000D03*
%TD*%
%TO.C,K5*%
X111502000Y-237586000D03*
X125352000Y-235046000D03*
%TD*%
D12*
%TO.C,D14*%
X148000000Y-222663000D03*
X148000000Y-225813000D03*
%TD*%
D11*
%TO.C,K14*%
X149602000Y-218536000D03*
X163452000Y-215996000D03*
%TD*%
%TO.C,K2*%
X111502000Y-180436000D03*
X125352000Y-177896000D03*
%TD*%
%TO.C,K16*%
X168652000Y-161386000D03*
X182502000Y-158846000D03*
%TD*%
D12*
%TO.C,D5*%
X110000000Y-241663000D03*
X110000000Y-244813000D03*
%TD*%
D11*
%TO.C,K52*%
X302002000Y-180436000D03*
X315852000Y-177896000D03*
%TD*%
%TO.C,K13*%
X149602000Y-199486000D03*
X163452000Y-196946000D03*
%TD*%
%TO.C,K19*%
X168652000Y-218536000D03*
X182502000Y-215996000D03*
%TD*%
%TO.C,K32*%
X225802000Y-180436000D03*
X239652000Y-177896000D03*
%TD*%
%TO.C,K3*%
X111502000Y-199486000D03*
X125352000Y-196946000D03*
%TD*%
D12*
%TO.C,D38*%
X243500000Y-203663000D03*
X243500000Y-206813000D03*
%TD*%
D11*
%TO.C,K42*%
X263902000Y-180436000D03*
X277752000Y-177896000D03*
%TD*%
%TO.C,K54*%
X302002000Y-218536000D03*
X315852000Y-215996000D03*
%TD*%
%TO.C,K11*%
X149602000Y-161386000D03*
X163452000Y-158846000D03*
%TD*%
D12*
%TO.C,D2*%
X110000000Y-184663000D03*
X110000000Y-187813000D03*
%TD*%
D11*
%TO.C,K20*%
X168652000Y-237586000D03*
X182502000Y-235046000D03*
%TD*%
%TO.C,K60*%
X321052000Y-237586000D03*
X334902000Y-235046000D03*
%TD*%
D12*
%TO.C,D1*%
X110000000Y-165663000D03*
X110000000Y-168813000D03*
%TD*%
%TO.C,D9*%
X129000000Y-222663000D03*
X129000000Y-225813000D03*
%TD*%
%TO.C,D47*%
X281500000Y-184663000D03*
X281500000Y-187813000D03*
%TD*%
D11*
%TO.C,K39*%
X244852000Y-218536000D03*
X258702000Y-215996000D03*
%TD*%
D12*
%TO.C,D4*%
X110000000Y-222663000D03*
X110000000Y-225813000D03*
%TD*%
%TO.C,D21*%
X186500000Y-165663000D03*
X186500000Y-168813000D03*
%TD*%
%TO.C,D55*%
X300500000Y-241663000D03*
X300500000Y-244813000D03*
%TD*%
D11*
%TO.C,K49*%
X282952000Y-218536000D03*
X296802000Y-215996000D03*
%TD*%
D12*
%TO.C,D32*%
X224500000Y-184663000D03*
X224500000Y-187813000D03*
%TD*%
%TO.C,D59*%
X319500000Y-222663000D03*
X319500000Y-225813000D03*
%TD*%
D11*
%TO.C,K51*%
X302002000Y-161386000D03*
X315852000Y-158846000D03*
%TD*%
%TO.C,K58*%
X321052000Y-199486000D03*
X334902000Y-196946000D03*
%TD*%
D12*
%TO.C,D33*%
X224500000Y-203663000D03*
X224500000Y-206813000D03*
%TD*%
%TO.C,D41*%
X262500000Y-165663000D03*
X262500000Y-168813000D03*
%TD*%
D11*
%TO.C,K21*%
X187702000Y-161386000D03*
X201552000Y-158846000D03*
%TD*%
D12*
%TO.C,D22*%
X186500000Y-184663000D03*
X186500000Y-187813000D03*
%TD*%
%TO.C,D17*%
X167000000Y-184663000D03*
X167000000Y-187813000D03*
%TD*%
%TO.C,D43*%
X262500000Y-203663000D03*
X262500000Y-206813000D03*
%TD*%
%TO.C,D28*%
X205500000Y-203663000D03*
X205500000Y-206813000D03*
%TD*%
D11*
%TO.C,K15*%
X149602000Y-237586000D03*
X163452000Y-235046000D03*
%TD*%
%TO.C,K26*%
X206752000Y-161386000D03*
X220602000Y-158846000D03*
%TD*%
D12*
%TO.C,D19*%
X167000000Y-222663000D03*
X167000000Y-225813000D03*
%TD*%
D11*
%TO.C,K50*%
X282952000Y-237586000D03*
X296802000Y-235046000D03*
%TD*%
%TO.C,K24*%
X187702000Y-218536000D03*
X201552000Y-215996000D03*
%TD*%
D12*
%TO.C,D58*%
X319500000Y-203663000D03*
X319500000Y-206813000D03*
%TD*%
D11*
%TO.C,K41*%
X263902000Y-161386000D03*
X277752000Y-158846000D03*
%TD*%
D12*
%TO.C,D60*%
X319500000Y-241663000D03*
X319500000Y-244813000D03*
%TD*%
D11*
%TO.C,K34*%
X225802000Y-218536000D03*
X239652000Y-215996000D03*
%TD*%
D12*
%TO.C,D27*%
X205500000Y-184663000D03*
X205500000Y-187813000D03*
%TD*%
D11*
%TO.C,K37*%
X244852000Y-180436000D03*
X258702000Y-177896000D03*
%TD*%
D12*
%TO.C,D54*%
X300500000Y-222663000D03*
X300500000Y-225813000D03*
%TD*%
%TO.C,D42*%
X262500000Y-184663000D03*
X262500000Y-187813000D03*
%TD*%
%TO.C,D10*%
X129000000Y-241663000D03*
X129000000Y-244813000D03*
%TD*%
D11*
%TO.C,K44*%
X263902000Y-218536000D03*
X277752000Y-215996000D03*
%TD*%
D12*
%TO.C,D16*%
X167000000Y-165663000D03*
X167000000Y-168813000D03*
%TD*%
D11*
%TO.C,K12*%
X149602000Y-180436000D03*
X163452000Y-177896000D03*
%TD*%
%TO.C,K43*%
X263902000Y-199486000D03*
X277752000Y-196946000D03*
%TD*%
D12*
%TO.C,D40*%
X243500000Y-241663000D03*
X243500000Y-244813000D03*
%TD*%
%TO.C,D11*%
X148000000Y-165663000D03*
X148000000Y-168813000D03*
%TD*%
%TO.C,D56*%
X319500000Y-165663000D03*
X319500000Y-168813000D03*
%TD*%
D11*
%TO.C,K7*%
X130552000Y-180436000D03*
X144402000Y-177896000D03*
%TD*%
D12*
%TO.C,D18*%
X167000000Y-203663000D03*
X167000000Y-206813000D03*
%TD*%
D11*
%TO.C,K59*%
X321052000Y-218536000D03*
X334902000Y-215996000D03*
%TD*%
%TO.C,K46*%
X282952000Y-161386000D03*
X296802000Y-158846000D03*
%TD*%
%TO.C,K22*%
X187702000Y-180436000D03*
X201552000Y-177896000D03*
%TD*%
D12*
%TO.C,D15*%
X148000000Y-241663000D03*
X148000000Y-244813000D03*
%TD*%
M02*
