%TF.GenerationSoftware,KiCad,Pcbnew,5.1.10*%
%TF.CreationDate,2021-06-15T19:04:48-05:00*%
%TF.ProjectId,olkbd_ble,6f6c6b62-645f-4626-9c65-2e6b69636164,rev?*%
%TF.SameCoordinates,Original*%
%TF.FileFunction,Other,Fab,Top*%
%FSLAX46Y46*%
G04 Gerber Fmt 4.6, Leading zero omitted, Abs format (unit mm)*
G04 Created by KiCad (PCBNEW 5.1.10) date 2021-06-15 19:04:48*
%MOMM*%
%LPD*%
G01*
G04 APERTURE LIST*
%ADD10C,0.150000*%
G04 APERTURE END LIST*
D10*
%TO.C,K32*%
X225724500Y-175825500D02*
X240724500Y-175825500D01*
X240724500Y-175825500D02*
X240724500Y-190825500D01*
X240724500Y-190825500D02*
X225724500Y-190825500D01*
X225724500Y-190825500D02*
X225724500Y-175825500D01*
%TO.C,K33*%
X225724500Y-194875500D02*
X240724500Y-194875500D01*
X240724500Y-194875500D02*
X240724500Y-209875500D01*
X240724500Y-209875500D02*
X225724500Y-209875500D01*
X225724500Y-209875500D02*
X225724500Y-194875500D01*
%TO.C,K42*%
X263824500Y-175825500D02*
X278824500Y-175825500D01*
X278824500Y-175825500D02*
X278824500Y-190825500D01*
X278824500Y-190825500D02*
X263824500Y-190825500D01*
X263824500Y-190825500D02*
X263824500Y-175825500D01*
%TO.C,K31*%
X225724500Y-156775500D02*
X240724500Y-156775500D01*
X240724500Y-156775500D02*
X240724500Y-171775500D01*
X240724500Y-171775500D02*
X225724500Y-171775500D01*
X225724500Y-171775500D02*
X225724500Y-156775500D01*
%TO.C,K24*%
X187624500Y-213925500D02*
X202624500Y-213925500D01*
X202624500Y-213925500D02*
X202624500Y-228925500D01*
X202624500Y-228925500D02*
X187624500Y-228925500D01*
X187624500Y-228925500D02*
X187624500Y-213925500D01*
%TO.C,K41*%
X263824500Y-156775500D02*
X278824500Y-156775500D01*
X278824500Y-156775500D02*
X278824500Y-171775500D01*
X278824500Y-171775500D02*
X263824500Y-171775500D01*
X263824500Y-171775500D02*
X263824500Y-156775500D01*
%TO.C,K34*%
X225724500Y-213925500D02*
X240724500Y-213925500D01*
X240724500Y-213925500D02*
X240724500Y-228925500D01*
X240724500Y-228925500D02*
X225724500Y-228925500D01*
X225724500Y-228925500D02*
X225724500Y-213925500D01*
%TO.C,K23*%
X187624500Y-194875500D02*
X202624500Y-194875500D01*
X202624500Y-194875500D02*
X202624500Y-209875500D01*
X202624500Y-209875500D02*
X187624500Y-209875500D01*
X187624500Y-209875500D02*
X187624500Y-194875500D01*
%TO.C,K19*%
X168574500Y-213925500D02*
X183574500Y-213925500D01*
X183574500Y-213925500D02*
X183574500Y-228925500D01*
X183574500Y-228925500D02*
X168574500Y-228925500D01*
X168574500Y-228925500D02*
X168574500Y-213925500D01*
%TO.C,K22*%
X187624500Y-175825500D02*
X202624500Y-175825500D01*
X202624500Y-175825500D02*
X202624500Y-190825500D01*
X202624500Y-190825500D02*
X187624500Y-190825500D01*
X187624500Y-190825500D02*
X187624500Y-175825500D01*
%TO.C,K45*%
X263824500Y-232975500D02*
X278824500Y-232975500D01*
X278824500Y-232975500D02*
X278824500Y-247975500D01*
X278824500Y-247975500D02*
X263824500Y-247975500D01*
X263824500Y-247975500D02*
X263824500Y-232975500D01*
%TO.C,K20*%
X168574500Y-232975500D02*
X183574500Y-232975500D01*
X183574500Y-232975500D02*
X183574500Y-247975500D01*
X183574500Y-247975500D02*
X168574500Y-247975500D01*
X168574500Y-247975500D02*
X168574500Y-232975500D01*
%TO.C,K30*%
X206674500Y-232975500D02*
X221674500Y-232975500D01*
X221674500Y-232975500D02*
X221674500Y-247975500D01*
X221674500Y-247975500D02*
X206674500Y-247975500D01*
X206674500Y-247975500D02*
X206674500Y-232975500D01*
%TO.C,K28*%
X206674500Y-194875500D02*
X221674500Y-194875500D01*
X221674500Y-194875500D02*
X221674500Y-209875500D01*
X221674500Y-209875500D02*
X206674500Y-209875500D01*
X206674500Y-209875500D02*
X206674500Y-194875500D01*
%TO.C,K25*%
X187624500Y-232975500D02*
X202624500Y-232975500D01*
X202624500Y-232975500D02*
X202624500Y-247975500D01*
X202624500Y-247975500D02*
X187624500Y-247975500D01*
X187624500Y-247975500D02*
X187624500Y-232975500D01*
%TO.C,K51*%
X301924500Y-156775500D02*
X316924500Y-156775500D01*
X316924500Y-156775500D02*
X316924500Y-171775500D01*
X316924500Y-171775500D02*
X301924500Y-171775500D01*
X301924500Y-171775500D02*
X301924500Y-156775500D01*
%TO.C,K10*%
X130474500Y-232975500D02*
X145474500Y-232975500D01*
X145474500Y-232975500D02*
X145474500Y-247975500D01*
X145474500Y-247975500D02*
X130474500Y-247975500D01*
X130474500Y-247975500D02*
X130474500Y-232975500D01*
%TO.C,K57*%
X320974500Y-175825500D02*
X335974500Y-175825500D01*
X335974500Y-175825500D02*
X335974500Y-190825500D01*
X335974500Y-190825500D02*
X320974500Y-190825500D01*
X320974500Y-190825500D02*
X320974500Y-175825500D01*
%TO.C,K58*%
X320974500Y-194875500D02*
X335974500Y-194875500D01*
X335974500Y-194875500D02*
X335974500Y-209875500D01*
X335974500Y-209875500D02*
X320974500Y-209875500D01*
X320974500Y-209875500D02*
X320974500Y-194875500D01*
%TO.C,K56*%
X320974500Y-156775500D02*
X335974500Y-156775500D01*
X335974500Y-156775500D02*
X335974500Y-171775500D01*
X335974500Y-171775500D02*
X320974500Y-171775500D01*
X320974500Y-171775500D02*
X320974500Y-156775500D01*
%TO.C,K17*%
X168574500Y-175825500D02*
X183574500Y-175825500D01*
X183574500Y-175825500D02*
X183574500Y-190825500D01*
X183574500Y-190825500D02*
X168574500Y-190825500D01*
X168574500Y-190825500D02*
X168574500Y-175825500D01*
%TO.C,K43*%
X263824500Y-194875500D02*
X278824500Y-194875500D01*
X278824500Y-194875500D02*
X278824500Y-209875500D01*
X278824500Y-209875500D02*
X263824500Y-209875500D01*
X263824500Y-209875500D02*
X263824500Y-194875500D01*
%TO.C,K39*%
X244774500Y-213925500D02*
X259774500Y-213925500D01*
X259774500Y-213925500D02*
X259774500Y-228925500D01*
X259774500Y-228925500D02*
X244774500Y-228925500D01*
X244774500Y-228925500D02*
X244774500Y-213925500D01*
%TO.C,K18*%
X168574500Y-194875500D02*
X183574500Y-194875500D01*
X183574500Y-194875500D02*
X183574500Y-209875500D01*
X183574500Y-209875500D02*
X168574500Y-209875500D01*
X168574500Y-209875500D02*
X168574500Y-194875500D01*
%TO.C,K3*%
X111424500Y-194875500D02*
X126424500Y-194875500D01*
X126424500Y-194875500D02*
X126424500Y-209875500D01*
X126424500Y-209875500D02*
X111424500Y-209875500D01*
X111424500Y-209875500D02*
X111424500Y-194875500D01*
%TO.C,K48*%
X282874500Y-194875500D02*
X297874500Y-194875500D01*
X297874500Y-194875500D02*
X297874500Y-209875500D01*
X297874500Y-209875500D02*
X282874500Y-209875500D01*
X282874500Y-209875500D02*
X282874500Y-194875500D01*
%TO.C,K6*%
X130474500Y-156775500D02*
X145474500Y-156775500D01*
X145474500Y-156775500D02*
X145474500Y-171775500D01*
X145474500Y-171775500D02*
X130474500Y-171775500D01*
X130474500Y-171775500D02*
X130474500Y-156775500D01*
%TO.C,K7*%
X130474500Y-175825500D02*
X145474500Y-175825500D01*
X145474500Y-175825500D02*
X145474500Y-190825500D01*
X145474500Y-190825500D02*
X130474500Y-190825500D01*
X130474500Y-190825500D02*
X130474500Y-175825500D01*
%TO.C,K53*%
X301924500Y-194875500D02*
X316924500Y-194875500D01*
X316924500Y-194875500D02*
X316924500Y-209875500D01*
X316924500Y-209875500D02*
X301924500Y-209875500D01*
X301924500Y-209875500D02*
X301924500Y-194875500D01*
%TO.C,K16*%
X168574500Y-156775500D02*
X183574500Y-156775500D01*
X183574500Y-156775500D02*
X183574500Y-171775500D01*
X183574500Y-171775500D02*
X168574500Y-171775500D01*
X168574500Y-171775500D02*
X168574500Y-156775500D01*
%TO.C,K54*%
X301924500Y-213925500D02*
X316924500Y-213925500D01*
X316924500Y-213925500D02*
X316924500Y-228925500D01*
X316924500Y-228925500D02*
X301924500Y-228925500D01*
X301924500Y-228925500D02*
X301924500Y-213925500D01*
%TO.C,K36*%
X244774500Y-156775500D02*
X259774500Y-156775500D01*
X259774500Y-156775500D02*
X259774500Y-171775500D01*
X259774500Y-171775500D02*
X244774500Y-171775500D01*
X244774500Y-171775500D02*
X244774500Y-156775500D01*
%TO.C,K27*%
X206674500Y-175825500D02*
X221674500Y-175825500D01*
X221674500Y-175825500D02*
X221674500Y-190825500D01*
X221674500Y-190825500D02*
X206674500Y-190825500D01*
X206674500Y-190825500D02*
X206674500Y-175825500D01*
%TO.C,K26*%
X206674500Y-156775500D02*
X221674500Y-156775500D01*
X221674500Y-156775500D02*
X221674500Y-171775500D01*
X221674500Y-171775500D02*
X206674500Y-171775500D01*
X206674500Y-171775500D02*
X206674500Y-156775500D01*
%TO.C,K37*%
X244774500Y-175825500D02*
X259774500Y-175825500D01*
X259774500Y-175825500D02*
X259774500Y-190825500D01*
X259774500Y-190825500D02*
X244774500Y-190825500D01*
X244774500Y-190825500D02*
X244774500Y-175825500D01*
%TO.C,K44*%
X263824500Y-213925500D02*
X278824500Y-213925500D01*
X278824500Y-213925500D02*
X278824500Y-228925500D01*
X278824500Y-228925500D02*
X263824500Y-228925500D01*
X263824500Y-228925500D02*
X263824500Y-213925500D01*
%TO.C,K59*%
X320974500Y-213925500D02*
X335974500Y-213925500D01*
X335974500Y-213925500D02*
X335974500Y-228925500D01*
X335974500Y-228925500D02*
X320974500Y-228925500D01*
X320974500Y-228925500D02*
X320974500Y-213925500D01*
%TO.C,K11*%
X149524500Y-156775500D02*
X164524500Y-156775500D01*
X164524500Y-156775500D02*
X164524500Y-171775500D01*
X164524500Y-171775500D02*
X149524500Y-171775500D01*
X149524500Y-171775500D02*
X149524500Y-156775500D01*
%TO.C,K13*%
X149524500Y-194875500D02*
X164524500Y-194875500D01*
X164524500Y-194875500D02*
X164524500Y-209875500D01*
X164524500Y-209875500D02*
X149524500Y-209875500D01*
X149524500Y-209875500D02*
X149524500Y-194875500D01*
%TO.C,K38*%
X244774500Y-194875500D02*
X259774500Y-194875500D01*
X259774500Y-194875500D02*
X259774500Y-209875500D01*
X259774500Y-209875500D02*
X244774500Y-209875500D01*
X244774500Y-209875500D02*
X244774500Y-194875500D01*
%TO.C,K49*%
X282874500Y-213925500D02*
X297874500Y-213925500D01*
X297874500Y-213925500D02*
X297874500Y-228925500D01*
X297874500Y-228925500D02*
X282874500Y-228925500D01*
X282874500Y-228925500D02*
X282874500Y-213925500D01*
%TO.C,K50*%
X282874500Y-232975500D02*
X297874500Y-232975500D01*
X297874500Y-232975500D02*
X297874500Y-247975500D01*
X297874500Y-247975500D02*
X282874500Y-247975500D01*
X282874500Y-247975500D02*
X282874500Y-232975500D01*
%TO.C,K40*%
X244774500Y-232975500D02*
X259774500Y-232975500D01*
X259774500Y-232975500D02*
X259774500Y-247975500D01*
X259774500Y-247975500D02*
X244774500Y-247975500D01*
X244774500Y-247975500D02*
X244774500Y-232975500D01*
%TO.C,K29*%
X206674500Y-213925500D02*
X221674500Y-213925500D01*
X221674500Y-213925500D02*
X221674500Y-228925500D01*
X221674500Y-228925500D02*
X206674500Y-228925500D01*
X206674500Y-228925500D02*
X206674500Y-213925500D01*
%TO.C,K21*%
X187624500Y-156775500D02*
X202624500Y-156775500D01*
X202624500Y-156775500D02*
X202624500Y-171775500D01*
X202624500Y-171775500D02*
X187624500Y-171775500D01*
X187624500Y-171775500D02*
X187624500Y-156775500D01*
%TO.C,K5*%
X111424500Y-232975500D02*
X126424500Y-232975500D01*
X126424500Y-232975500D02*
X126424500Y-247975500D01*
X126424500Y-247975500D02*
X111424500Y-247975500D01*
X111424500Y-247975500D02*
X111424500Y-232975500D01*
%TO.C,K4*%
X111424500Y-213925500D02*
X126424500Y-213925500D01*
X126424500Y-213925500D02*
X126424500Y-228925500D01*
X126424500Y-228925500D02*
X111424500Y-228925500D01*
X111424500Y-228925500D02*
X111424500Y-213925500D01*
%TO.C,K8*%
X130474500Y-194875500D02*
X145474500Y-194875500D01*
X145474500Y-194875500D02*
X145474500Y-209875500D01*
X145474500Y-209875500D02*
X130474500Y-209875500D01*
X130474500Y-209875500D02*
X130474500Y-194875500D01*
%TO.C,K35*%
X225724500Y-232975500D02*
X240724500Y-232975500D01*
X240724500Y-232975500D02*
X240724500Y-247975500D01*
X240724500Y-247975500D02*
X225724500Y-247975500D01*
X225724500Y-247975500D02*
X225724500Y-232975500D01*
%TO.C,K52*%
X301924500Y-175825500D02*
X316924500Y-175825500D01*
X316924500Y-175825500D02*
X316924500Y-190825500D01*
X316924500Y-190825500D02*
X301924500Y-190825500D01*
X301924500Y-190825500D02*
X301924500Y-175825500D01*
%TO.C,K60*%
X320974500Y-232975500D02*
X335974500Y-232975500D01*
X335974500Y-232975500D02*
X335974500Y-247975500D01*
X335974500Y-247975500D02*
X320974500Y-247975500D01*
X320974500Y-247975500D02*
X320974500Y-232975500D01*
%TO.C,K55*%
X301924500Y-232975500D02*
X316924500Y-232975500D01*
X316924500Y-232975500D02*
X316924500Y-247975500D01*
X316924500Y-247975500D02*
X301924500Y-247975500D01*
X301924500Y-247975500D02*
X301924500Y-232975500D01*
%TO.C,K12*%
X149524500Y-175825500D02*
X164524500Y-175825500D01*
X164524500Y-175825500D02*
X164524500Y-190825500D01*
X164524500Y-190825500D02*
X149524500Y-190825500D01*
X149524500Y-190825500D02*
X149524500Y-175825500D01*
%TO.C,K1*%
X111424500Y-156775500D02*
X126424500Y-156775500D01*
X126424500Y-156775500D02*
X126424500Y-171775500D01*
X126424500Y-171775500D02*
X111424500Y-171775500D01*
X111424500Y-171775500D02*
X111424500Y-156775500D01*
%TO.C,K14*%
X149524500Y-213925500D02*
X164524500Y-213925500D01*
X164524500Y-213925500D02*
X164524500Y-228925500D01*
X164524500Y-228925500D02*
X149524500Y-228925500D01*
X149524500Y-228925500D02*
X149524500Y-213925500D01*
%TO.C,K47*%
X282874500Y-175825500D02*
X297874500Y-175825500D01*
X297874500Y-175825500D02*
X297874500Y-190825500D01*
X297874500Y-190825500D02*
X282874500Y-190825500D01*
X282874500Y-190825500D02*
X282874500Y-175825500D01*
%TO.C,K46*%
X282874500Y-156775500D02*
X297874500Y-156775500D01*
X297874500Y-156775500D02*
X297874500Y-171775500D01*
X297874500Y-171775500D02*
X282874500Y-171775500D01*
X282874500Y-171775500D02*
X282874500Y-156775500D01*
%TO.C,K9*%
X130474500Y-213925500D02*
X145474500Y-213925500D01*
X145474500Y-213925500D02*
X145474500Y-228925500D01*
X145474500Y-228925500D02*
X130474500Y-228925500D01*
X130474500Y-228925500D02*
X130474500Y-213925500D01*
%TO.C,K15*%
X149524500Y-232975500D02*
X164524500Y-232975500D01*
X164524500Y-232975500D02*
X164524500Y-247975500D01*
X164524500Y-247975500D02*
X149524500Y-247975500D01*
X149524500Y-247975500D02*
X149524500Y-232975500D01*
%TO.C,K2*%
X111424500Y-175825500D02*
X126424500Y-175825500D01*
X126424500Y-175825500D02*
X126424500Y-190825500D01*
X126424500Y-190825500D02*
X111424500Y-190825500D01*
X111424500Y-190825500D02*
X111424500Y-175825500D01*
%TD*%
%TO.C,K32*%
X231034023Y-192032880D02*
X231034023Y-191032880D01*
X231605452Y-192032880D02*
X231176880Y-191461452D01*
X231605452Y-191032880D02*
X231034023Y-191604309D01*
X232034023Y-191509071D02*
X232367357Y-191509071D01*
X232510214Y-192032880D02*
X232034023Y-192032880D01*
X232034023Y-191032880D01*
X232510214Y-191032880D01*
X233129261Y-191556690D02*
X233129261Y-192032880D01*
X232795928Y-191032880D02*
X233129261Y-191556690D01*
X233462595Y-191032880D01*
X233748309Y-191985261D02*
X233891166Y-192032880D01*
X234129261Y-192032880D01*
X234224500Y-191985261D01*
X234272119Y-191937642D01*
X234319738Y-191842404D01*
X234319738Y-191747166D01*
X234272119Y-191651928D01*
X234224500Y-191604309D01*
X234129261Y-191556690D01*
X233938785Y-191509071D01*
X233843547Y-191461452D01*
X233795928Y-191413833D01*
X233748309Y-191318595D01*
X233748309Y-191223357D01*
X233795928Y-191128119D01*
X233843547Y-191080500D01*
X233938785Y-191032880D01*
X234176880Y-191032880D01*
X234319738Y-191080500D01*
X234653071Y-191032880D02*
X234891166Y-192032880D01*
X235081642Y-191318595D01*
X235272119Y-192032880D01*
X235510214Y-191032880D01*
%TO.C,K33*%
X231034023Y-211082880D02*
X231034023Y-210082880D01*
X231605452Y-211082880D02*
X231176880Y-210511452D01*
X231605452Y-210082880D02*
X231034023Y-210654309D01*
X232034023Y-210559071D02*
X232367357Y-210559071D01*
X232510214Y-211082880D02*
X232034023Y-211082880D01*
X232034023Y-210082880D01*
X232510214Y-210082880D01*
X233129261Y-210606690D02*
X233129261Y-211082880D01*
X232795928Y-210082880D02*
X233129261Y-210606690D01*
X233462595Y-210082880D01*
X233748309Y-211035261D02*
X233891166Y-211082880D01*
X234129261Y-211082880D01*
X234224500Y-211035261D01*
X234272119Y-210987642D01*
X234319738Y-210892404D01*
X234319738Y-210797166D01*
X234272119Y-210701928D01*
X234224500Y-210654309D01*
X234129261Y-210606690D01*
X233938785Y-210559071D01*
X233843547Y-210511452D01*
X233795928Y-210463833D01*
X233748309Y-210368595D01*
X233748309Y-210273357D01*
X233795928Y-210178119D01*
X233843547Y-210130500D01*
X233938785Y-210082880D01*
X234176880Y-210082880D01*
X234319738Y-210130500D01*
X234653071Y-210082880D02*
X234891166Y-211082880D01*
X235081642Y-210368595D01*
X235272119Y-211082880D01*
X235510214Y-210082880D01*
%TO.C,K42*%
X269134023Y-192032880D02*
X269134023Y-191032880D01*
X269705452Y-192032880D02*
X269276880Y-191461452D01*
X269705452Y-191032880D02*
X269134023Y-191604309D01*
X270134023Y-191509071D02*
X270467357Y-191509071D01*
X270610214Y-192032880D02*
X270134023Y-192032880D01*
X270134023Y-191032880D01*
X270610214Y-191032880D01*
X271229261Y-191556690D02*
X271229261Y-192032880D01*
X270895928Y-191032880D02*
X271229261Y-191556690D01*
X271562595Y-191032880D01*
X271848309Y-191985261D02*
X271991166Y-192032880D01*
X272229261Y-192032880D01*
X272324500Y-191985261D01*
X272372119Y-191937642D01*
X272419738Y-191842404D01*
X272419738Y-191747166D01*
X272372119Y-191651928D01*
X272324500Y-191604309D01*
X272229261Y-191556690D01*
X272038785Y-191509071D01*
X271943547Y-191461452D01*
X271895928Y-191413833D01*
X271848309Y-191318595D01*
X271848309Y-191223357D01*
X271895928Y-191128119D01*
X271943547Y-191080500D01*
X272038785Y-191032880D01*
X272276880Y-191032880D01*
X272419738Y-191080500D01*
X272753071Y-191032880D02*
X272991166Y-192032880D01*
X273181642Y-191318595D01*
X273372119Y-192032880D01*
X273610214Y-191032880D01*
%TO.C,K31*%
X231034023Y-172982880D02*
X231034023Y-171982880D01*
X231605452Y-172982880D02*
X231176880Y-172411452D01*
X231605452Y-171982880D02*
X231034023Y-172554309D01*
X232034023Y-172459071D02*
X232367357Y-172459071D01*
X232510214Y-172982880D02*
X232034023Y-172982880D01*
X232034023Y-171982880D01*
X232510214Y-171982880D01*
X233129261Y-172506690D02*
X233129261Y-172982880D01*
X232795928Y-171982880D02*
X233129261Y-172506690D01*
X233462595Y-171982880D01*
X233748309Y-172935261D02*
X233891166Y-172982880D01*
X234129261Y-172982880D01*
X234224500Y-172935261D01*
X234272119Y-172887642D01*
X234319738Y-172792404D01*
X234319738Y-172697166D01*
X234272119Y-172601928D01*
X234224500Y-172554309D01*
X234129261Y-172506690D01*
X233938785Y-172459071D01*
X233843547Y-172411452D01*
X233795928Y-172363833D01*
X233748309Y-172268595D01*
X233748309Y-172173357D01*
X233795928Y-172078119D01*
X233843547Y-172030500D01*
X233938785Y-171982880D01*
X234176880Y-171982880D01*
X234319738Y-172030500D01*
X234653071Y-171982880D02*
X234891166Y-172982880D01*
X235081642Y-172268595D01*
X235272119Y-172982880D01*
X235510214Y-171982880D01*
%TO.C,K24*%
X192934023Y-230132880D02*
X192934023Y-229132880D01*
X193505452Y-230132880D02*
X193076880Y-229561452D01*
X193505452Y-229132880D02*
X192934023Y-229704309D01*
X193934023Y-229609071D02*
X194267357Y-229609071D01*
X194410214Y-230132880D02*
X193934023Y-230132880D01*
X193934023Y-229132880D01*
X194410214Y-229132880D01*
X195029261Y-229656690D02*
X195029261Y-230132880D01*
X194695928Y-229132880D02*
X195029261Y-229656690D01*
X195362595Y-229132880D01*
X195648309Y-230085261D02*
X195791166Y-230132880D01*
X196029261Y-230132880D01*
X196124500Y-230085261D01*
X196172119Y-230037642D01*
X196219738Y-229942404D01*
X196219738Y-229847166D01*
X196172119Y-229751928D01*
X196124500Y-229704309D01*
X196029261Y-229656690D01*
X195838785Y-229609071D01*
X195743547Y-229561452D01*
X195695928Y-229513833D01*
X195648309Y-229418595D01*
X195648309Y-229323357D01*
X195695928Y-229228119D01*
X195743547Y-229180500D01*
X195838785Y-229132880D01*
X196076880Y-229132880D01*
X196219738Y-229180500D01*
X196553071Y-229132880D02*
X196791166Y-230132880D01*
X196981642Y-229418595D01*
X197172119Y-230132880D01*
X197410214Y-229132880D01*
%TO.C,K41*%
X269134023Y-172982880D02*
X269134023Y-171982880D01*
X269705452Y-172982880D02*
X269276880Y-172411452D01*
X269705452Y-171982880D02*
X269134023Y-172554309D01*
X270134023Y-172459071D02*
X270467357Y-172459071D01*
X270610214Y-172982880D02*
X270134023Y-172982880D01*
X270134023Y-171982880D01*
X270610214Y-171982880D01*
X271229261Y-172506690D02*
X271229261Y-172982880D01*
X270895928Y-171982880D02*
X271229261Y-172506690D01*
X271562595Y-171982880D01*
X271848309Y-172935261D02*
X271991166Y-172982880D01*
X272229261Y-172982880D01*
X272324500Y-172935261D01*
X272372119Y-172887642D01*
X272419738Y-172792404D01*
X272419738Y-172697166D01*
X272372119Y-172601928D01*
X272324500Y-172554309D01*
X272229261Y-172506690D01*
X272038785Y-172459071D01*
X271943547Y-172411452D01*
X271895928Y-172363833D01*
X271848309Y-172268595D01*
X271848309Y-172173357D01*
X271895928Y-172078119D01*
X271943547Y-172030500D01*
X272038785Y-171982880D01*
X272276880Y-171982880D01*
X272419738Y-172030500D01*
X272753071Y-171982880D02*
X272991166Y-172982880D01*
X273181642Y-172268595D01*
X273372119Y-172982880D01*
X273610214Y-171982880D01*
%TO.C,K34*%
X231034023Y-230132880D02*
X231034023Y-229132880D01*
X231605452Y-230132880D02*
X231176880Y-229561452D01*
X231605452Y-229132880D02*
X231034023Y-229704309D01*
X232034023Y-229609071D02*
X232367357Y-229609071D01*
X232510214Y-230132880D02*
X232034023Y-230132880D01*
X232034023Y-229132880D01*
X232510214Y-229132880D01*
X233129261Y-229656690D02*
X233129261Y-230132880D01*
X232795928Y-229132880D02*
X233129261Y-229656690D01*
X233462595Y-229132880D01*
X233748309Y-230085261D02*
X233891166Y-230132880D01*
X234129261Y-230132880D01*
X234224500Y-230085261D01*
X234272119Y-230037642D01*
X234319738Y-229942404D01*
X234319738Y-229847166D01*
X234272119Y-229751928D01*
X234224500Y-229704309D01*
X234129261Y-229656690D01*
X233938785Y-229609071D01*
X233843547Y-229561452D01*
X233795928Y-229513833D01*
X233748309Y-229418595D01*
X233748309Y-229323357D01*
X233795928Y-229228119D01*
X233843547Y-229180500D01*
X233938785Y-229132880D01*
X234176880Y-229132880D01*
X234319738Y-229180500D01*
X234653071Y-229132880D02*
X234891166Y-230132880D01*
X235081642Y-229418595D01*
X235272119Y-230132880D01*
X235510214Y-229132880D01*
%TO.C,K23*%
X192934023Y-211082880D02*
X192934023Y-210082880D01*
X193505452Y-211082880D02*
X193076880Y-210511452D01*
X193505452Y-210082880D02*
X192934023Y-210654309D01*
X193934023Y-210559071D02*
X194267357Y-210559071D01*
X194410214Y-211082880D02*
X193934023Y-211082880D01*
X193934023Y-210082880D01*
X194410214Y-210082880D01*
X195029261Y-210606690D02*
X195029261Y-211082880D01*
X194695928Y-210082880D02*
X195029261Y-210606690D01*
X195362595Y-210082880D01*
X195648309Y-211035261D02*
X195791166Y-211082880D01*
X196029261Y-211082880D01*
X196124500Y-211035261D01*
X196172119Y-210987642D01*
X196219738Y-210892404D01*
X196219738Y-210797166D01*
X196172119Y-210701928D01*
X196124500Y-210654309D01*
X196029261Y-210606690D01*
X195838785Y-210559071D01*
X195743547Y-210511452D01*
X195695928Y-210463833D01*
X195648309Y-210368595D01*
X195648309Y-210273357D01*
X195695928Y-210178119D01*
X195743547Y-210130500D01*
X195838785Y-210082880D01*
X196076880Y-210082880D01*
X196219738Y-210130500D01*
X196553071Y-210082880D02*
X196791166Y-211082880D01*
X196981642Y-210368595D01*
X197172119Y-211082880D01*
X197410214Y-210082880D01*
%TO.C,K19*%
X173884023Y-230132880D02*
X173884023Y-229132880D01*
X174455452Y-230132880D02*
X174026880Y-229561452D01*
X174455452Y-229132880D02*
X173884023Y-229704309D01*
X174884023Y-229609071D02*
X175217357Y-229609071D01*
X175360214Y-230132880D02*
X174884023Y-230132880D01*
X174884023Y-229132880D01*
X175360214Y-229132880D01*
X175979261Y-229656690D02*
X175979261Y-230132880D01*
X175645928Y-229132880D02*
X175979261Y-229656690D01*
X176312595Y-229132880D01*
X176598309Y-230085261D02*
X176741166Y-230132880D01*
X176979261Y-230132880D01*
X177074500Y-230085261D01*
X177122119Y-230037642D01*
X177169738Y-229942404D01*
X177169738Y-229847166D01*
X177122119Y-229751928D01*
X177074500Y-229704309D01*
X176979261Y-229656690D01*
X176788785Y-229609071D01*
X176693547Y-229561452D01*
X176645928Y-229513833D01*
X176598309Y-229418595D01*
X176598309Y-229323357D01*
X176645928Y-229228119D01*
X176693547Y-229180500D01*
X176788785Y-229132880D01*
X177026880Y-229132880D01*
X177169738Y-229180500D01*
X177503071Y-229132880D02*
X177741166Y-230132880D01*
X177931642Y-229418595D01*
X178122119Y-230132880D01*
X178360214Y-229132880D01*
%TO.C,K22*%
X192934023Y-192032880D02*
X192934023Y-191032880D01*
X193505452Y-192032880D02*
X193076880Y-191461452D01*
X193505452Y-191032880D02*
X192934023Y-191604309D01*
X193934023Y-191509071D02*
X194267357Y-191509071D01*
X194410214Y-192032880D02*
X193934023Y-192032880D01*
X193934023Y-191032880D01*
X194410214Y-191032880D01*
X195029261Y-191556690D02*
X195029261Y-192032880D01*
X194695928Y-191032880D02*
X195029261Y-191556690D01*
X195362595Y-191032880D01*
X195648309Y-191985261D02*
X195791166Y-192032880D01*
X196029261Y-192032880D01*
X196124500Y-191985261D01*
X196172119Y-191937642D01*
X196219738Y-191842404D01*
X196219738Y-191747166D01*
X196172119Y-191651928D01*
X196124500Y-191604309D01*
X196029261Y-191556690D01*
X195838785Y-191509071D01*
X195743547Y-191461452D01*
X195695928Y-191413833D01*
X195648309Y-191318595D01*
X195648309Y-191223357D01*
X195695928Y-191128119D01*
X195743547Y-191080500D01*
X195838785Y-191032880D01*
X196076880Y-191032880D01*
X196219738Y-191080500D01*
X196553071Y-191032880D02*
X196791166Y-192032880D01*
X196981642Y-191318595D01*
X197172119Y-192032880D01*
X197410214Y-191032880D01*
%TO.C,K45*%
X269134023Y-249182880D02*
X269134023Y-248182880D01*
X269705452Y-249182880D02*
X269276880Y-248611452D01*
X269705452Y-248182880D02*
X269134023Y-248754309D01*
X270134023Y-248659071D02*
X270467357Y-248659071D01*
X270610214Y-249182880D02*
X270134023Y-249182880D01*
X270134023Y-248182880D01*
X270610214Y-248182880D01*
X271229261Y-248706690D02*
X271229261Y-249182880D01*
X270895928Y-248182880D02*
X271229261Y-248706690D01*
X271562595Y-248182880D01*
X271848309Y-249135261D02*
X271991166Y-249182880D01*
X272229261Y-249182880D01*
X272324500Y-249135261D01*
X272372119Y-249087642D01*
X272419738Y-248992404D01*
X272419738Y-248897166D01*
X272372119Y-248801928D01*
X272324500Y-248754309D01*
X272229261Y-248706690D01*
X272038785Y-248659071D01*
X271943547Y-248611452D01*
X271895928Y-248563833D01*
X271848309Y-248468595D01*
X271848309Y-248373357D01*
X271895928Y-248278119D01*
X271943547Y-248230500D01*
X272038785Y-248182880D01*
X272276880Y-248182880D01*
X272419738Y-248230500D01*
X272753071Y-248182880D02*
X272991166Y-249182880D01*
X273181642Y-248468595D01*
X273372119Y-249182880D01*
X273610214Y-248182880D01*
%TO.C,K20*%
X173884023Y-249182880D02*
X173884023Y-248182880D01*
X174455452Y-249182880D02*
X174026880Y-248611452D01*
X174455452Y-248182880D02*
X173884023Y-248754309D01*
X174884023Y-248659071D02*
X175217357Y-248659071D01*
X175360214Y-249182880D02*
X174884023Y-249182880D01*
X174884023Y-248182880D01*
X175360214Y-248182880D01*
X175979261Y-248706690D02*
X175979261Y-249182880D01*
X175645928Y-248182880D02*
X175979261Y-248706690D01*
X176312595Y-248182880D01*
X176598309Y-249135261D02*
X176741166Y-249182880D01*
X176979261Y-249182880D01*
X177074500Y-249135261D01*
X177122119Y-249087642D01*
X177169738Y-248992404D01*
X177169738Y-248897166D01*
X177122119Y-248801928D01*
X177074500Y-248754309D01*
X176979261Y-248706690D01*
X176788785Y-248659071D01*
X176693547Y-248611452D01*
X176645928Y-248563833D01*
X176598309Y-248468595D01*
X176598309Y-248373357D01*
X176645928Y-248278119D01*
X176693547Y-248230500D01*
X176788785Y-248182880D01*
X177026880Y-248182880D01*
X177169738Y-248230500D01*
X177503071Y-248182880D02*
X177741166Y-249182880D01*
X177931642Y-248468595D01*
X178122119Y-249182880D01*
X178360214Y-248182880D01*
%TO.C,K30*%
X211984023Y-249182880D02*
X211984023Y-248182880D01*
X212555452Y-249182880D02*
X212126880Y-248611452D01*
X212555452Y-248182880D02*
X211984023Y-248754309D01*
X212984023Y-248659071D02*
X213317357Y-248659071D01*
X213460214Y-249182880D02*
X212984023Y-249182880D01*
X212984023Y-248182880D01*
X213460214Y-248182880D01*
X214079261Y-248706690D02*
X214079261Y-249182880D01*
X213745928Y-248182880D02*
X214079261Y-248706690D01*
X214412595Y-248182880D01*
X214698309Y-249135261D02*
X214841166Y-249182880D01*
X215079261Y-249182880D01*
X215174500Y-249135261D01*
X215222119Y-249087642D01*
X215269738Y-248992404D01*
X215269738Y-248897166D01*
X215222119Y-248801928D01*
X215174500Y-248754309D01*
X215079261Y-248706690D01*
X214888785Y-248659071D01*
X214793547Y-248611452D01*
X214745928Y-248563833D01*
X214698309Y-248468595D01*
X214698309Y-248373357D01*
X214745928Y-248278119D01*
X214793547Y-248230500D01*
X214888785Y-248182880D01*
X215126880Y-248182880D01*
X215269738Y-248230500D01*
X215603071Y-248182880D02*
X215841166Y-249182880D01*
X216031642Y-248468595D01*
X216222119Y-249182880D01*
X216460214Y-248182880D01*
%TO.C,K28*%
X211984023Y-211082880D02*
X211984023Y-210082880D01*
X212555452Y-211082880D02*
X212126880Y-210511452D01*
X212555452Y-210082880D02*
X211984023Y-210654309D01*
X212984023Y-210559071D02*
X213317357Y-210559071D01*
X213460214Y-211082880D02*
X212984023Y-211082880D01*
X212984023Y-210082880D01*
X213460214Y-210082880D01*
X214079261Y-210606690D02*
X214079261Y-211082880D01*
X213745928Y-210082880D02*
X214079261Y-210606690D01*
X214412595Y-210082880D01*
X214698309Y-211035261D02*
X214841166Y-211082880D01*
X215079261Y-211082880D01*
X215174500Y-211035261D01*
X215222119Y-210987642D01*
X215269738Y-210892404D01*
X215269738Y-210797166D01*
X215222119Y-210701928D01*
X215174500Y-210654309D01*
X215079261Y-210606690D01*
X214888785Y-210559071D01*
X214793547Y-210511452D01*
X214745928Y-210463833D01*
X214698309Y-210368595D01*
X214698309Y-210273357D01*
X214745928Y-210178119D01*
X214793547Y-210130500D01*
X214888785Y-210082880D01*
X215126880Y-210082880D01*
X215269738Y-210130500D01*
X215603071Y-210082880D02*
X215841166Y-211082880D01*
X216031642Y-210368595D01*
X216222119Y-211082880D01*
X216460214Y-210082880D01*
%TO.C,K25*%
X192934023Y-249182880D02*
X192934023Y-248182880D01*
X193505452Y-249182880D02*
X193076880Y-248611452D01*
X193505452Y-248182880D02*
X192934023Y-248754309D01*
X193934023Y-248659071D02*
X194267357Y-248659071D01*
X194410214Y-249182880D02*
X193934023Y-249182880D01*
X193934023Y-248182880D01*
X194410214Y-248182880D01*
X195029261Y-248706690D02*
X195029261Y-249182880D01*
X194695928Y-248182880D02*
X195029261Y-248706690D01*
X195362595Y-248182880D01*
X195648309Y-249135261D02*
X195791166Y-249182880D01*
X196029261Y-249182880D01*
X196124500Y-249135261D01*
X196172119Y-249087642D01*
X196219738Y-248992404D01*
X196219738Y-248897166D01*
X196172119Y-248801928D01*
X196124500Y-248754309D01*
X196029261Y-248706690D01*
X195838785Y-248659071D01*
X195743547Y-248611452D01*
X195695928Y-248563833D01*
X195648309Y-248468595D01*
X195648309Y-248373357D01*
X195695928Y-248278119D01*
X195743547Y-248230500D01*
X195838785Y-248182880D01*
X196076880Y-248182880D01*
X196219738Y-248230500D01*
X196553071Y-248182880D02*
X196791166Y-249182880D01*
X196981642Y-248468595D01*
X197172119Y-249182880D01*
X197410214Y-248182880D01*
%TO.C,K51*%
X307234023Y-172982880D02*
X307234023Y-171982880D01*
X307805452Y-172982880D02*
X307376880Y-172411452D01*
X307805452Y-171982880D02*
X307234023Y-172554309D01*
X308234023Y-172459071D02*
X308567357Y-172459071D01*
X308710214Y-172982880D02*
X308234023Y-172982880D01*
X308234023Y-171982880D01*
X308710214Y-171982880D01*
X309329261Y-172506690D02*
X309329261Y-172982880D01*
X308995928Y-171982880D02*
X309329261Y-172506690D01*
X309662595Y-171982880D01*
X309948309Y-172935261D02*
X310091166Y-172982880D01*
X310329261Y-172982880D01*
X310424500Y-172935261D01*
X310472119Y-172887642D01*
X310519738Y-172792404D01*
X310519738Y-172697166D01*
X310472119Y-172601928D01*
X310424500Y-172554309D01*
X310329261Y-172506690D01*
X310138785Y-172459071D01*
X310043547Y-172411452D01*
X309995928Y-172363833D01*
X309948309Y-172268595D01*
X309948309Y-172173357D01*
X309995928Y-172078119D01*
X310043547Y-172030500D01*
X310138785Y-171982880D01*
X310376880Y-171982880D01*
X310519738Y-172030500D01*
X310853071Y-171982880D02*
X311091166Y-172982880D01*
X311281642Y-172268595D01*
X311472119Y-172982880D01*
X311710214Y-171982880D01*
%TO.C,K10*%
X135784023Y-249182880D02*
X135784023Y-248182880D01*
X136355452Y-249182880D02*
X135926880Y-248611452D01*
X136355452Y-248182880D02*
X135784023Y-248754309D01*
X136784023Y-248659071D02*
X137117357Y-248659071D01*
X137260214Y-249182880D02*
X136784023Y-249182880D01*
X136784023Y-248182880D01*
X137260214Y-248182880D01*
X137879261Y-248706690D02*
X137879261Y-249182880D01*
X137545928Y-248182880D02*
X137879261Y-248706690D01*
X138212595Y-248182880D01*
X138498309Y-249135261D02*
X138641166Y-249182880D01*
X138879261Y-249182880D01*
X138974500Y-249135261D01*
X139022119Y-249087642D01*
X139069738Y-248992404D01*
X139069738Y-248897166D01*
X139022119Y-248801928D01*
X138974500Y-248754309D01*
X138879261Y-248706690D01*
X138688785Y-248659071D01*
X138593547Y-248611452D01*
X138545928Y-248563833D01*
X138498309Y-248468595D01*
X138498309Y-248373357D01*
X138545928Y-248278119D01*
X138593547Y-248230500D01*
X138688785Y-248182880D01*
X138926880Y-248182880D01*
X139069738Y-248230500D01*
X139403071Y-248182880D02*
X139641166Y-249182880D01*
X139831642Y-248468595D01*
X140022119Y-249182880D01*
X140260214Y-248182880D01*
%TO.C,K57*%
X326284023Y-192032880D02*
X326284023Y-191032880D01*
X326855452Y-192032880D02*
X326426880Y-191461452D01*
X326855452Y-191032880D02*
X326284023Y-191604309D01*
X327284023Y-191509071D02*
X327617357Y-191509071D01*
X327760214Y-192032880D02*
X327284023Y-192032880D01*
X327284023Y-191032880D01*
X327760214Y-191032880D01*
X328379261Y-191556690D02*
X328379261Y-192032880D01*
X328045928Y-191032880D02*
X328379261Y-191556690D01*
X328712595Y-191032880D01*
X328998309Y-191985261D02*
X329141166Y-192032880D01*
X329379261Y-192032880D01*
X329474500Y-191985261D01*
X329522119Y-191937642D01*
X329569738Y-191842404D01*
X329569738Y-191747166D01*
X329522119Y-191651928D01*
X329474500Y-191604309D01*
X329379261Y-191556690D01*
X329188785Y-191509071D01*
X329093547Y-191461452D01*
X329045928Y-191413833D01*
X328998309Y-191318595D01*
X328998309Y-191223357D01*
X329045928Y-191128119D01*
X329093547Y-191080500D01*
X329188785Y-191032880D01*
X329426880Y-191032880D01*
X329569738Y-191080500D01*
X329903071Y-191032880D02*
X330141166Y-192032880D01*
X330331642Y-191318595D01*
X330522119Y-192032880D01*
X330760214Y-191032880D01*
%TO.C,K58*%
X326284023Y-211082880D02*
X326284023Y-210082880D01*
X326855452Y-211082880D02*
X326426880Y-210511452D01*
X326855452Y-210082880D02*
X326284023Y-210654309D01*
X327284023Y-210559071D02*
X327617357Y-210559071D01*
X327760214Y-211082880D02*
X327284023Y-211082880D01*
X327284023Y-210082880D01*
X327760214Y-210082880D01*
X328379261Y-210606690D02*
X328379261Y-211082880D01*
X328045928Y-210082880D02*
X328379261Y-210606690D01*
X328712595Y-210082880D01*
X328998309Y-211035261D02*
X329141166Y-211082880D01*
X329379261Y-211082880D01*
X329474500Y-211035261D01*
X329522119Y-210987642D01*
X329569738Y-210892404D01*
X329569738Y-210797166D01*
X329522119Y-210701928D01*
X329474500Y-210654309D01*
X329379261Y-210606690D01*
X329188785Y-210559071D01*
X329093547Y-210511452D01*
X329045928Y-210463833D01*
X328998309Y-210368595D01*
X328998309Y-210273357D01*
X329045928Y-210178119D01*
X329093547Y-210130500D01*
X329188785Y-210082880D01*
X329426880Y-210082880D01*
X329569738Y-210130500D01*
X329903071Y-210082880D02*
X330141166Y-211082880D01*
X330331642Y-210368595D01*
X330522119Y-211082880D01*
X330760214Y-210082880D01*
%TO.C,K56*%
X326284023Y-172982880D02*
X326284023Y-171982880D01*
X326855452Y-172982880D02*
X326426880Y-172411452D01*
X326855452Y-171982880D02*
X326284023Y-172554309D01*
X327284023Y-172459071D02*
X327617357Y-172459071D01*
X327760214Y-172982880D02*
X327284023Y-172982880D01*
X327284023Y-171982880D01*
X327760214Y-171982880D01*
X328379261Y-172506690D02*
X328379261Y-172982880D01*
X328045928Y-171982880D02*
X328379261Y-172506690D01*
X328712595Y-171982880D01*
X328998309Y-172935261D02*
X329141166Y-172982880D01*
X329379261Y-172982880D01*
X329474500Y-172935261D01*
X329522119Y-172887642D01*
X329569738Y-172792404D01*
X329569738Y-172697166D01*
X329522119Y-172601928D01*
X329474500Y-172554309D01*
X329379261Y-172506690D01*
X329188785Y-172459071D01*
X329093547Y-172411452D01*
X329045928Y-172363833D01*
X328998309Y-172268595D01*
X328998309Y-172173357D01*
X329045928Y-172078119D01*
X329093547Y-172030500D01*
X329188785Y-171982880D01*
X329426880Y-171982880D01*
X329569738Y-172030500D01*
X329903071Y-171982880D02*
X330141166Y-172982880D01*
X330331642Y-172268595D01*
X330522119Y-172982880D01*
X330760214Y-171982880D01*
%TO.C,K17*%
X173884023Y-192032880D02*
X173884023Y-191032880D01*
X174455452Y-192032880D02*
X174026880Y-191461452D01*
X174455452Y-191032880D02*
X173884023Y-191604309D01*
X174884023Y-191509071D02*
X175217357Y-191509071D01*
X175360214Y-192032880D02*
X174884023Y-192032880D01*
X174884023Y-191032880D01*
X175360214Y-191032880D01*
X175979261Y-191556690D02*
X175979261Y-192032880D01*
X175645928Y-191032880D02*
X175979261Y-191556690D01*
X176312595Y-191032880D01*
X176598309Y-191985261D02*
X176741166Y-192032880D01*
X176979261Y-192032880D01*
X177074500Y-191985261D01*
X177122119Y-191937642D01*
X177169738Y-191842404D01*
X177169738Y-191747166D01*
X177122119Y-191651928D01*
X177074500Y-191604309D01*
X176979261Y-191556690D01*
X176788785Y-191509071D01*
X176693547Y-191461452D01*
X176645928Y-191413833D01*
X176598309Y-191318595D01*
X176598309Y-191223357D01*
X176645928Y-191128119D01*
X176693547Y-191080500D01*
X176788785Y-191032880D01*
X177026880Y-191032880D01*
X177169738Y-191080500D01*
X177503071Y-191032880D02*
X177741166Y-192032880D01*
X177931642Y-191318595D01*
X178122119Y-192032880D01*
X178360214Y-191032880D01*
%TO.C,K43*%
X269134023Y-211082880D02*
X269134023Y-210082880D01*
X269705452Y-211082880D02*
X269276880Y-210511452D01*
X269705452Y-210082880D02*
X269134023Y-210654309D01*
X270134023Y-210559071D02*
X270467357Y-210559071D01*
X270610214Y-211082880D02*
X270134023Y-211082880D01*
X270134023Y-210082880D01*
X270610214Y-210082880D01*
X271229261Y-210606690D02*
X271229261Y-211082880D01*
X270895928Y-210082880D02*
X271229261Y-210606690D01*
X271562595Y-210082880D01*
X271848309Y-211035261D02*
X271991166Y-211082880D01*
X272229261Y-211082880D01*
X272324500Y-211035261D01*
X272372119Y-210987642D01*
X272419738Y-210892404D01*
X272419738Y-210797166D01*
X272372119Y-210701928D01*
X272324500Y-210654309D01*
X272229261Y-210606690D01*
X272038785Y-210559071D01*
X271943547Y-210511452D01*
X271895928Y-210463833D01*
X271848309Y-210368595D01*
X271848309Y-210273357D01*
X271895928Y-210178119D01*
X271943547Y-210130500D01*
X272038785Y-210082880D01*
X272276880Y-210082880D01*
X272419738Y-210130500D01*
X272753071Y-210082880D02*
X272991166Y-211082880D01*
X273181642Y-210368595D01*
X273372119Y-211082880D01*
X273610214Y-210082880D01*
%TO.C,K39*%
X250084023Y-230132880D02*
X250084023Y-229132880D01*
X250655452Y-230132880D02*
X250226880Y-229561452D01*
X250655452Y-229132880D02*
X250084023Y-229704309D01*
X251084023Y-229609071D02*
X251417357Y-229609071D01*
X251560214Y-230132880D02*
X251084023Y-230132880D01*
X251084023Y-229132880D01*
X251560214Y-229132880D01*
X252179261Y-229656690D02*
X252179261Y-230132880D01*
X251845928Y-229132880D02*
X252179261Y-229656690D01*
X252512595Y-229132880D01*
X252798309Y-230085261D02*
X252941166Y-230132880D01*
X253179261Y-230132880D01*
X253274500Y-230085261D01*
X253322119Y-230037642D01*
X253369738Y-229942404D01*
X253369738Y-229847166D01*
X253322119Y-229751928D01*
X253274500Y-229704309D01*
X253179261Y-229656690D01*
X252988785Y-229609071D01*
X252893547Y-229561452D01*
X252845928Y-229513833D01*
X252798309Y-229418595D01*
X252798309Y-229323357D01*
X252845928Y-229228119D01*
X252893547Y-229180500D01*
X252988785Y-229132880D01*
X253226880Y-229132880D01*
X253369738Y-229180500D01*
X253703071Y-229132880D02*
X253941166Y-230132880D01*
X254131642Y-229418595D01*
X254322119Y-230132880D01*
X254560214Y-229132880D01*
%TO.C,K18*%
X173884023Y-211082880D02*
X173884023Y-210082880D01*
X174455452Y-211082880D02*
X174026880Y-210511452D01*
X174455452Y-210082880D02*
X173884023Y-210654309D01*
X174884023Y-210559071D02*
X175217357Y-210559071D01*
X175360214Y-211082880D02*
X174884023Y-211082880D01*
X174884023Y-210082880D01*
X175360214Y-210082880D01*
X175979261Y-210606690D02*
X175979261Y-211082880D01*
X175645928Y-210082880D02*
X175979261Y-210606690D01*
X176312595Y-210082880D01*
X176598309Y-211035261D02*
X176741166Y-211082880D01*
X176979261Y-211082880D01*
X177074500Y-211035261D01*
X177122119Y-210987642D01*
X177169738Y-210892404D01*
X177169738Y-210797166D01*
X177122119Y-210701928D01*
X177074500Y-210654309D01*
X176979261Y-210606690D01*
X176788785Y-210559071D01*
X176693547Y-210511452D01*
X176645928Y-210463833D01*
X176598309Y-210368595D01*
X176598309Y-210273357D01*
X176645928Y-210178119D01*
X176693547Y-210130500D01*
X176788785Y-210082880D01*
X177026880Y-210082880D01*
X177169738Y-210130500D01*
X177503071Y-210082880D02*
X177741166Y-211082880D01*
X177931642Y-210368595D01*
X178122119Y-211082880D01*
X178360214Y-210082880D01*
%TO.C,K3*%
X116734023Y-211082880D02*
X116734023Y-210082880D01*
X117305452Y-211082880D02*
X116876880Y-210511452D01*
X117305452Y-210082880D02*
X116734023Y-210654309D01*
X117734023Y-210559071D02*
X118067357Y-210559071D01*
X118210214Y-211082880D02*
X117734023Y-211082880D01*
X117734023Y-210082880D01*
X118210214Y-210082880D01*
X118829261Y-210606690D02*
X118829261Y-211082880D01*
X118495928Y-210082880D02*
X118829261Y-210606690D01*
X119162595Y-210082880D01*
X119448309Y-211035261D02*
X119591166Y-211082880D01*
X119829261Y-211082880D01*
X119924500Y-211035261D01*
X119972119Y-210987642D01*
X120019738Y-210892404D01*
X120019738Y-210797166D01*
X119972119Y-210701928D01*
X119924500Y-210654309D01*
X119829261Y-210606690D01*
X119638785Y-210559071D01*
X119543547Y-210511452D01*
X119495928Y-210463833D01*
X119448309Y-210368595D01*
X119448309Y-210273357D01*
X119495928Y-210178119D01*
X119543547Y-210130500D01*
X119638785Y-210082880D01*
X119876880Y-210082880D01*
X120019738Y-210130500D01*
X120353071Y-210082880D02*
X120591166Y-211082880D01*
X120781642Y-210368595D01*
X120972119Y-211082880D01*
X121210214Y-210082880D01*
%TO.C,K48*%
X288184023Y-211082880D02*
X288184023Y-210082880D01*
X288755452Y-211082880D02*
X288326880Y-210511452D01*
X288755452Y-210082880D02*
X288184023Y-210654309D01*
X289184023Y-210559071D02*
X289517357Y-210559071D01*
X289660214Y-211082880D02*
X289184023Y-211082880D01*
X289184023Y-210082880D01*
X289660214Y-210082880D01*
X290279261Y-210606690D02*
X290279261Y-211082880D01*
X289945928Y-210082880D02*
X290279261Y-210606690D01*
X290612595Y-210082880D01*
X290898309Y-211035261D02*
X291041166Y-211082880D01*
X291279261Y-211082880D01*
X291374500Y-211035261D01*
X291422119Y-210987642D01*
X291469738Y-210892404D01*
X291469738Y-210797166D01*
X291422119Y-210701928D01*
X291374500Y-210654309D01*
X291279261Y-210606690D01*
X291088785Y-210559071D01*
X290993547Y-210511452D01*
X290945928Y-210463833D01*
X290898309Y-210368595D01*
X290898309Y-210273357D01*
X290945928Y-210178119D01*
X290993547Y-210130500D01*
X291088785Y-210082880D01*
X291326880Y-210082880D01*
X291469738Y-210130500D01*
X291803071Y-210082880D02*
X292041166Y-211082880D01*
X292231642Y-210368595D01*
X292422119Y-211082880D01*
X292660214Y-210082880D01*
%TO.C,K6*%
X135784023Y-172982880D02*
X135784023Y-171982880D01*
X136355452Y-172982880D02*
X135926880Y-172411452D01*
X136355452Y-171982880D02*
X135784023Y-172554309D01*
X136784023Y-172459071D02*
X137117357Y-172459071D01*
X137260214Y-172982880D02*
X136784023Y-172982880D01*
X136784023Y-171982880D01*
X137260214Y-171982880D01*
X137879261Y-172506690D02*
X137879261Y-172982880D01*
X137545928Y-171982880D02*
X137879261Y-172506690D01*
X138212595Y-171982880D01*
X138498309Y-172935261D02*
X138641166Y-172982880D01*
X138879261Y-172982880D01*
X138974500Y-172935261D01*
X139022119Y-172887642D01*
X139069738Y-172792404D01*
X139069738Y-172697166D01*
X139022119Y-172601928D01*
X138974500Y-172554309D01*
X138879261Y-172506690D01*
X138688785Y-172459071D01*
X138593547Y-172411452D01*
X138545928Y-172363833D01*
X138498309Y-172268595D01*
X138498309Y-172173357D01*
X138545928Y-172078119D01*
X138593547Y-172030500D01*
X138688785Y-171982880D01*
X138926880Y-171982880D01*
X139069738Y-172030500D01*
X139403071Y-171982880D02*
X139641166Y-172982880D01*
X139831642Y-172268595D01*
X140022119Y-172982880D01*
X140260214Y-171982880D01*
%TO.C,K7*%
X135784023Y-192032880D02*
X135784023Y-191032880D01*
X136355452Y-192032880D02*
X135926880Y-191461452D01*
X136355452Y-191032880D02*
X135784023Y-191604309D01*
X136784023Y-191509071D02*
X137117357Y-191509071D01*
X137260214Y-192032880D02*
X136784023Y-192032880D01*
X136784023Y-191032880D01*
X137260214Y-191032880D01*
X137879261Y-191556690D02*
X137879261Y-192032880D01*
X137545928Y-191032880D02*
X137879261Y-191556690D01*
X138212595Y-191032880D01*
X138498309Y-191985261D02*
X138641166Y-192032880D01*
X138879261Y-192032880D01*
X138974500Y-191985261D01*
X139022119Y-191937642D01*
X139069738Y-191842404D01*
X139069738Y-191747166D01*
X139022119Y-191651928D01*
X138974500Y-191604309D01*
X138879261Y-191556690D01*
X138688785Y-191509071D01*
X138593547Y-191461452D01*
X138545928Y-191413833D01*
X138498309Y-191318595D01*
X138498309Y-191223357D01*
X138545928Y-191128119D01*
X138593547Y-191080500D01*
X138688785Y-191032880D01*
X138926880Y-191032880D01*
X139069738Y-191080500D01*
X139403071Y-191032880D02*
X139641166Y-192032880D01*
X139831642Y-191318595D01*
X140022119Y-192032880D01*
X140260214Y-191032880D01*
%TO.C,K53*%
X307234023Y-211082880D02*
X307234023Y-210082880D01*
X307805452Y-211082880D02*
X307376880Y-210511452D01*
X307805452Y-210082880D02*
X307234023Y-210654309D01*
X308234023Y-210559071D02*
X308567357Y-210559071D01*
X308710214Y-211082880D02*
X308234023Y-211082880D01*
X308234023Y-210082880D01*
X308710214Y-210082880D01*
X309329261Y-210606690D02*
X309329261Y-211082880D01*
X308995928Y-210082880D02*
X309329261Y-210606690D01*
X309662595Y-210082880D01*
X309948309Y-211035261D02*
X310091166Y-211082880D01*
X310329261Y-211082880D01*
X310424500Y-211035261D01*
X310472119Y-210987642D01*
X310519738Y-210892404D01*
X310519738Y-210797166D01*
X310472119Y-210701928D01*
X310424500Y-210654309D01*
X310329261Y-210606690D01*
X310138785Y-210559071D01*
X310043547Y-210511452D01*
X309995928Y-210463833D01*
X309948309Y-210368595D01*
X309948309Y-210273357D01*
X309995928Y-210178119D01*
X310043547Y-210130500D01*
X310138785Y-210082880D01*
X310376880Y-210082880D01*
X310519738Y-210130500D01*
X310853071Y-210082880D02*
X311091166Y-211082880D01*
X311281642Y-210368595D01*
X311472119Y-211082880D01*
X311710214Y-210082880D01*
%TO.C,K16*%
X173884023Y-172982880D02*
X173884023Y-171982880D01*
X174455452Y-172982880D02*
X174026880Y-172411452D01*
X174455452Y-171982880D02*
X173884023Y-172554309D01*
X174884023Y-172459071D02*
X175217357Y-172459071D01*
X175360214Y-172982880D02*
X174884023Y-172982880D01*
X174884023Y-171982880D01*
X175360214Y-171982880D01*
X175979261Y-172506690D02*
X175979261Y-172982880D01*
X175645928Y-171982880D02*
X175979261Y-172506690D01*
X176312595Y-171982880D01*
X176598309Y-172935261D02*
X176741166Y-172982880D01*
X176979261Y-172982880D01*
X177074500Y-172935261D01*
X177122119Y-172887642D01*
X177169738Y-172792404D01*
X177169738Y-172697166D01*
X177122119Y-172601928D01*
X177074500Y-172554309D01*
X176979261Y-172506690D01*
X176788785Y-172459071D01*
X176693547Y-172411452D01*
X176645928Y-172363833D01*
X176598309Y-172268595D01*
X176598309Y-172173357D01*
X176645928Y-172078119D01*
X176693547Y-172030500D01*
X176788785Y-171982880D01*
X177026880Y-171982880D01*
X177169738Y-172030500D01*
X177503071Y-171982880D02*
X177741166Y-172982880D01*
X177931642Y-172268595D01*
X178122119Y-172982880D01*
X178360214Y-171982880D01*
%TO.C,K54*%
X307234023Y-230132880D02*
X307234023Y-229132880D01*
X307805452Y-230132880D02*
X307376880Y-229561452D01*
X307805452Y-229132880D02*
X307234023Y-229704309D01*
X308234023Y-229609071D02*
X308567357Y-229609071D01*
X308710214Y-230132880D02*
X308234023Y-230132880D01*
X308234023Y-229132880D01*
X308710214Y-229132880D01*
X309329261Y-229656690D02*
X309329261Y-230132880D01*
X308995928Y-229132880D02*
X309329261Y-229656690D01*
X309662595Y-229132880D01*
X309948309Y-230085261D02*
X310091166Y-230132880D01*
X310329261Y-230132880D01*
X310424500Y-230085261D01*
X310472119Y-230037642D01*
X310519738Y-229942404D01*
X310519738Y-229847166D01*
X310472119Y-229751928D01*
X310424500Y-229704309D01*
X310329261Y-229656690D01*
X310138785Y-229609071D01*
X310043547Y-229561452D01*
X309995928Y-229513833D01*
X309948309Y-229418595D01*
X309948309Y-229323357D01*
X309995928Y-229228119D01*
X310043547Y-229180500D01*
X310138785Y-229132880D01*
X310376880Y-229132880D01*
X310519738Y-229180500D01*
X310853071Y-229132880D02*
X311091166Y-230132880D01*
X311281642Y-229418595D01*
X311472119Y-230132880D01*
X311710214Y-229132880D01*
%TO.C,K36*%
X250084023Y-172982880D02*
X250084023Y-171982880D01*
X250655452Y-172982880D02*
X250226880Y-172411452D01*
X250655452Y-171982880D02*
X250084023Y-172554309D01*
X251084023Y-172459071D02*
X251417357Y-172459071D01*
X251560214Y-172982880D02*
X251084023Y-172982880D01*
X251084023Y-171982880D01*
X251560214Y-171982880D01*
X252179261Y-172506690D02*
X252179261Y-172982880D01*
X251845928Y-171982880D02*
X252179261Y-172506690D01*
X252512595Y-171982880D01*
X252798309Y-172935261D02*
X252941166Y-172982880D01*
X253179261Y-172982880D01*
X253274500Y-172935261D01*
X253322119Y-172887642D01*
X253369738Y-172792404D01*
X253369738Y-172697166D01*
X253322119Y-172601928D01*
X253274500Y-172554309D01*
X253179261Y-172506690D01*
X252988785Y-172459071D01*
X252893547Y-172411452D01*
X252845928Y-172363833D01*
X252798309Y-172268595D01*
X252798309Y-172173357D01*
X252845928Y-172078119D01*
X252893547Y-172030500D01*
X252988785Y-171982880D01*
X253226880Y-171982880D01*
X253369738Y-172030500D01*
X253703071Y-171982880D02*
X253941166Y-172982880D01*
X254131642Y-172268595D01*
X254322119Y-172982880D01*
X254560214Y-171982880D01*
%TO.C,K27*%
X211984023Y-192032880D02*
X211984023Y-191032880D01*
X212555452Y-192032880D02*
X212126880Y-191461452D01*
X212555452Y-191032880D02*
X211984023Y-191604309D01*
X212984023Y-191509071D02*
X213317357Y-191509071D01*
X213460214Y-192032880D02*
X212984023Y-192032880D01*
X212984023Y-191032880D01*
X213460214Y-191032880D01*
X214079261Y-191556690D02*
X214079261Y-192032880D01*
X213745928Y-191032880D02*
X214079261Y-191556690D01*
X214412595Y-191032880D01*
X214698309Y-191985261D02*
X214841166Y-192032880D01*
X215079261Y-192032880D01*
X215174500Y-191985261D01*
X215222119Y-191937642D01*
X215269738Y-191842404D01*
X215269738Y-191747166D01*
X215222119Y-191651928D01*
X215174500Y-191604309D01*
X215079261Y-191556690D01*
X214888785Y-191509071D01*
X214793547Y-191461452D01*
X214745928Y-191413833D01*
X214698309Y-191318595D01*
X214698309Y-191223357D01*
X214745928Y-191128119D01*
X214793547Y-191080500D01*
X214888785Y-191032880D01*
X215126880Y-191032880D01*
X215269738Y-191080500D01*
X215603071Y-191032880D02*
X215841166Y-192032880D01*
X216031642Y-191318595D01*
X216222119Y-192032880D01*
X216460214Y-191032880D01*
%TO.C,K26*%
X211984023Y-172982880D02*
X211984023Y-171982880D01*
X212555452Y-172982880D02*
X212126880Y-172411452D01*
X212555452Y-171982880D02*
X211984023Y-172554309D01*
X212984023Y-172459071D02*
X213317357Y-172459071D01*
X213460214Y-172982880D02*
X212984023Y-172982880D01*
X212984023Y-171982880D01*
X213460214Y-171982880D01*
X214079261Y-172506690D02*
X214079261Y-172982880D01*
X213745928Y-171982880D02*
X214079261Y-172506690D01*
X214412595Y-171982880D01*
X214698309Y-172935261D02*
X214841166Y-172982880D01*
X215079261Y-172982880D01*
X215174500Y-172935261D01*
X215222119Y-172887642D01*
X215269738Y-172792404D01*
X215269738Y-172697166D01*
X215222119Y-172601928D01*
X215174500Y-172554309D01*
X215079261Y-172506690D01*
X214888785Y-172459071D01*
X214793547Y-172411452D01*
X214745928Y-172363833D01*
X214698309Y-172268595D01*
X214698309Y-172173357D01*
X214745928Y-172078119D01*
X214793547Y-172030500D01*
X214888785Y-171982880D01*
X215126880Y-171982880D01*
X215269738Y-172030500D01*
X215603071Y-171982880D02*
X215841166Y-172982880D01*
X216031642Y-172268595D01*
X216222119Y-172982880D01*
X216460214Y-171982880D01*
%TO.C,K37*%
X250084023Y-192032880D02*
X250084023Y-191032880D01*
X250655452Y-192032880D02*
X250226880Y-191461452D01*
X250655452Y-191032880D02*
X250084023Y-191604309D01*
X251084023Y-191509071D02*
X251417357Y-191509071D01*
X251560214Y-192032880D02*
X251084023Y-192032880D01*
X251084023Y-191032880D01*
X251560214Y-191032880D01*
X252179261Y-191556690D02*
X252179261Y-192032880D01*
X251845928Y-191032880D02*
X252179261Y-191556690D01*
X252512595Y-191032880D01*
X252798309Y-191985261D02*
X252941166Y-192032880D01*
X253179261Y-192032880D01*
X253274500Y-191985261D01*
X253322119Y-191937642D01*
X253369738Y-191842404D01*
X253369738Y-191747166D01*
X253322119Y-191651928D01*
X253274500Y-191604309D01*
X253179261Y-191556690D01*
X252988785Y-191509071D01*
X252893547Y-191461452D01*
X252845928Y-191413833D01*
X252798309Y-191318595D01*
X252798309Y-191223357D01*
X252845928Y-191128119D01*
X252893547Y-191080500D01*
X252988785Y-191032880D01*
X253226880Y-191032880D01*
X253369738Y-191080500D01*
X253703071Y-191032880D02*
X253941166Y-192032880D01*
X254131642Y-191318595D01*
X254322119Y-192032880D01*
X254560214Y-191032880D01*
%TO.C,K44*%
X269134023Y-230132880D02*
X269134023Y-229132880D01*
X269705452Y-230132880D02*
X269276880Y-229561452D01*
X269705452Y-229132880D02*
X269134023Y-229704309D01*
X270134023Y-229609071D02*
X270467357Y-229609071D01*
X270610214Y-230132880D02*
X270134023Y-230132880D01*
X270134023Y-229132880D01*
X270610214Y-229132880D01*
X271229261Y-229656690D02*
X271229261Y-230132880D01*
X270895928Y-229132880D02*
X271229261Y-229656690D01*
X271562595Y-229132880D01*
X271848309Y-230085261D02*
X271991166Y-230132880D01*
X272229261Y-230132880D01*
X272324500Y-230085261D01*
X272372119Y-230037642D01*
X272419738Y-229942404D01*
X272419738Y-229847166D01*
X272372119Y-229751928D01*
X272324500Y-229704309D01*
X272229261Y-229656690D01*
X272038785Y-229609071D01*
X271943547Y-229561452D01*
X271895928Y-229513833D01*
X271848309Y-229418595D01*
X271848309Y-229323357D01*
X271895928Y-229228119D01*
X271943547Y-229180500D01*
X272038785Y-229132880D01*
X272276880Y-229132880D01*
X272419738Y-229180500D01*
X272753071Y-229132880D02*
X272991166Y-230132880D01*
X273181642Y-229418595D01*
X273372119Y-230132880D01*
X273610214Y-229132880D01*
%TO.C,K59*%
X326284023Y-230132880D02*
X326284023Y-229132880D01*
X326855452Y-230132880D02*
X326426880Y-229561452D01*
X326855452Y-229132880D02*
X326284023Y-229704309D01*
X327284023Y-229609071D02*
X327617357Y-229609071D01*
X327760214Y-230132880D02*
X327284023Y-230132880D01*
X327284023Y-229132880D01*
X327760214Y-229132880D01*
X328379261Y-229656690D02*
X328379261Y-230132880D01*
X328045928Y-229132880D02*
X328379261Y-229656690D01*
X328712595Y-229132880D01*
X328998309Y-230085261D02*
X329141166Y-230132880D01*
X329379261Y-230132880D01*
X329474500Y-230085261D01*
X329522119Y-230037642D01*
X329569738Y-229942404D01*
X329569738Y-229847166D01*
X329522119Y-229751928D01*
X329474500Y-229704309D01*
X329379261Y-229656690D01*
X329188785Y-229609071D01*
X329093547Y-229561452D01*
X329045928Y-229513833D01*
X328998309Y-229418595D01*
X328998309Y-229323357D01*
X329045928Y-229228119D01*
X329093547Y-229180500D01*
X329188785Y-229132880D01*
X329426880Y-229132880D01*
X329569738Y-229180500D01*
X329903071Y-229132880D02*
X330141166Y-230132880D01*
X330331642Y-229418595D01*
X330522119Y-230132880D01*
X330760214Y-229132880D01*
%TO.C,K11*%
X154834023Y-172982880D02*
X154834023Y-171982880D01*
X155405452Y-172982880D02*
X154976880Y-172411452D01*
X155405452Y-171982880D02*
X154834023Y-172554309D01*
X155834023Y-172459071D02*
X156167357Y-172459071D01*
X156310214Y-172982880D02*
X155834023Y-172982880D01*
X155834023Y-171982880D01*
X156310214Y-171982880D01*
X156929261Y-172506690D02*
X156929261Y-172982880D01*
X156595928Y-171982880D02*
X156929261Y-172506690D01*
X157262595Y-171982880D01*
X157548309Y-172935261D02*
X157691166Y-172982880D01*
X157929261Y-172982880D01*
X158024500Y-172935261D01*
X158072119Y-172887642D01*
X158119738Y-172792404D01*
X158119738Y-172697166D01*
X158072119Y-172601928D01*
X158024500Y-172554309D01*
X157929261Y-172506690D01*
X157738785Y-172459071D01*
X157643547Y-172411452D01*
X157595928Y-172363833D01*
X157548309Y-172268595D01*
X157548309Y-172173357D01*
X157595928Y-172078119D01*
X157643547Y-172030500D01*
X157738785Y-171982880D01*
X157976880Y-171982880D01*
X158119738Y-172030500D01*
X158453071Y-171982880D02*
X158691166Y-172982880D01*
X158881642Y-172268595D01*
X159072119Y-172982880D01*
X159310214Y-171982880D01*
%TO.C,K13*%
X154834023Y-211082880D02*
X154834023Y-210082880D01*
X155405452Y-211082880D02*
X154976880Y-210511452D01*
X155405452Y-210082880D02*
X154834023Y-210654309D01*
X155834023Y-210559071D02*
X156167357Y-210559071D01*
X156310214Y-211082880D02*
X155834023Y-211082880D01*
X155834023Y-210082880D01*
X156310214Y-210082880D01*
X156929261Y-210606690D02*
X156929261Y-211082880D01*
X156595928Y-210082880D02*
X156929261Y-210606690D01*
X157262595Y-210082880D01*
X157548309Y-211035261D02*
X157691166Y-211082880D01*
X157929261Y-211082880D01*
X158024500Y-211035261D01*
X158072119Y-210987642D01*
X158119738Y-210892404D01*
X158119738Y-210797166D01*
X158072119Y-210701928D01*
X158024500Y-210654309D01*
X157929261Y-210606690D01*
X157738785Y-210559071D01*
X157643547Y-210511452D01*
X157595928Y-210463833D01*
X157548309Y-210368595D01*
X157548309Y-210273357D01*
X157595928Y-210178119D01*
X157643547Y-210130500D01*
X157738785Y-210082880D01*
X157976880Y-210082880D01*
X158119738Y-210130500D01*
X158453071Y-210082880D02*
X158691166Y-211082880D01*
X158881642Y-210368595D01*
X159072119Y-211082880D01*
X159310214Y-210082880D01*
%TO.C,K38*%
X250084023Y-211082880D02*
X250084023Y-210082880D01*
X250655452Y-211082880D02*
X250226880Y-210511452D01*
X250655452Y-210082880D02*
X250084023Y-210654309D01*
X251084023Y-210559071D02*
X251417357Y-210559071D01*
X251560214Y-211082880D02*
X251084023Y-211082880D01*
X251084023Y-210082880D01*
X251560214Y-210082880D01*
X252179261Y-210606690D02*
X252179261Y-211082880D01*
X251845928Y-210082880D02*
X252179261Y-210606690D01*
X252512595Y-210082880D01*
X252798309Y-211035261D02*
X252941166Y-211082880D01*
X253179261Y-211082880D01*
X253274500Y-211035261D01*
X253322119Y-210987642D01*
X253369738Y-210892404D01*
X253369738Y-210797166D01*
X253322119Y-210701928D01*
X253274500Y-210654309D01*
X253179261Y-210606690D01*
X252988785Y-210559071D01*
X252893547Y-210511452D01*
X252845928Y-210463833D01*
X252798309Y-210368595D01*
X252798309Y-210273357D01*
X252845928Y-210178119D01*
X252893547Y-210130500D01*
X252988785Y-210082880D01*
X253226880Y-210082880D01*
X253369738Y-210130500D01*
X253703071Y-210082880D02*
X253941166Y-211082880D01*
X254131642Y-210368595D01*
X254322119Y-211082880D01*
X254560214Y-210082880D01*
%TO.C,K49*%
X288184023Y-230132880D02*
X288184023Y-229132880D01*
X288755452Y-230132880D02*
X288326880Y-229561452D01*
X288755452Y-229132880D02*
X288184023Y-229704309D01*
X289184023Y-229609071D02*
X289517357Y-229609071D01*
X289660214Y-230132880D02*
X289184023Y-230132880D01*
X289184023Y-229132880D01*
X289660214Y-229132880D01*
X290279261Y-229656690D02*
X290279261Y-230132880D01*
X289945928Y-229132880D02*
X290279261Y-229656690D01*
X290612595Y-229132880D01*
X290898309Y-230085261D02*
X291041166Y-230132880D01*
X291279261Y-230132880D01*
X291374500Y-230085261D01*
X291422119Y-230037642D01*
X291469738Y-229942404D01*
X291469738Y-229847166D01*
X291422119Y-229751928D01*
X291374500Y-229704309D01*
X291279261Y-229656690D01*
X291088785Y-229609071D01*
X290993547Y-229561452D01*
X290945928Y-229513833D01*
X290898309Y-229418595D01*
X290898309Y-229323357D01*
X290945928Y-229228119D01*
X290993547Y-229180500D01*
X291088785Y-229132880D01*
X291326880Y-229132880D01*
X291469738Y-229180500D01*
X291803071Y-229132880D02*
X292041166Y-230132880D01*
X292231642Y-229418595D01*
X292422119Y-230132880D01*
X292660214Y-229132880D01*
%TO.C,K50*%
X288184023Y-249182880D02*
X288184023Y-248182880D01*
X288755452Y-249182880D02*
X288326880Y-248611452D01*
X288755452Y-248182880D02*
X288184023Y-248754309D01*
X289184023Y-248659071D02*
X289517357Y-248659071D01*
X289660214Y-249182880D02*
X289184023Y-249182880D01*
X289184023Y-248182880D01*
X289660214Y-248182880D01*
X290279261Y-248706690D02*
X290279261Y-249182880D01*
X289945928Y-248182880D02*
X290279261Y-248706690D01*
X290612595Y-248182880D01*
X290898309Y-249135261D02*
X291041166Y-249182880D01*
X291279261Y-249182880D01*
X291374500Y-249135261D01*
X291422119Y-249087642D01*
X291469738Y-248992404D01*
X291469738Y-248897166D01*
X291422119Y-248801928D01*
X291374500Y-248754309D01*
X291279261Y-248706690D01*
X291088785Y-248659071D01*
X290993547Y-248611452D01*
X290945928Y-248563833D01*
X290898309Y-248468595D01*
X290898309Y-248373357D01*
X290945928Y-248278119D01*
X290993547Y-248230500D01*
X291088785Y-248182880D01*
X291326880Y-248182880D01*
X291469738Y-248230500D01*
X291803071Y-248182880D02*
X292041166Y-249182880D01*
X292231642Y-248468595D01*
X292422119Y-249182880D01*
X292660214Y-248182880D01*
%TO.C,K40*%
X250084023Y-249182880D02*
X250084023Y-248182880D01*
X250655452Y-249182880D02*
X250226880Y-248611452D01*
X250655452Y-248182880D02*
X250084023Y-248754309D01*
X251084023Y-248659071D02*
X251417357Y-248659071D01*
X251560214Y-249182880D02*
X251084023Y-249182880D01*
X251084023Y-248182880D01*
X251560214Y-248182880D01*
X252179261Y-248706690D02*
X252179261Y-249182880D01*
X251845928Y-248182880D02*
X252179261Y-248706690D01*
X252512595Y-248182880D01*
X252798309Y-249135261D02*
X252941166Y-249182880D01*
X253179261Y-249182880D01*
X253274500Y-249135261D01*
X253322119Y-249087642D01*
X253369738Y-248992404D01*
X253369738Y-248897166D01*
X253322119Y-248801928D01*
X253274500Y-248754309D01*
X253179261Y-248706690D01*
X252988785Y-248659071D01*
X252893547Y-248611452D01*
X252845928Y-248563833D01*
X252798309Y-248468595D01*
X252798309Y-248373357D01*
X252845928Y-248278119D01*
X252893547Y-248230500D01*
X252988785Y-248182880D01*
X253226880Y-248182880D01*
X253369738Y-248230500D01*
X253703071Y-248182880D02*
X253941166Y-249182880D01*
X254131642Y-248468595D01*
X254322119Y-249182880D01*
X254560214Y-248182880D01*
%TO.C,U1*%
X93064880Y-210764880D02*
X92588690Y-210764880D01*
X92588690Y-209764880D01*
X93541071Y-210764880D02*
X93445833Y-210717261D01*
X93398214Y-210669642D01*
X93350595Y-210574404D01*
X93350595Y-210288690D01*
X93398214Y-210193452D01*
X93445833Y-210145833D01*
X93541071Y-210098214D01*
X93683928Y-210098214D01*
X93779166Y-210145833D01*
X93826785Y-210193452D01*
X93874404Y-210288690D01*
X93874404Y-210574404D01*
X93826785Y-210669642D01*
X93779166Y-210717261D01*
X93683928Y-210764880D01*
X93541071Y-210764880D01*
X94445833Y-210764880D02*
X94350595Y-210717261D01*
X94302976Y-210622023D01*
X94302976Y-209764880D01*
X94826785Y-210764880D02*
X94826785Y-210098214D01*
X94826785Y-209764880D02*
X94779166Y-209812500D01*
X94826785Y-209860119D01*
X94874404Y-209812500D01*
X94826785Y-209764880D01*
X94826785Y-209860119D01*
X95302976Y-210098214D02*
X95302976Y-210764880D01*
X95302976Y-210193452D02*
X95350595Y-210145833D01*
X95445833Y-210098214D01*
X95588690Y-210098214D01*
X95683928Y-210145833D01*
X95731547Y-210241071D01*
X95731547Y-210764880D01*
X96112500Y-209764880D02*
X96731547Y-209764880D01*
X96398214Y-210145833D01*
X96541071Y-210145833D01*
X96636309Y-210193452D01*
X96683928Y-210241071D01*
X96731547Y-210336309D01*
X96731547Y-210574404D01*
X96683928Y-210669642D01*
X96636309Y-210717261D01*
X96541071Y-210764880D01*
X96255357Y-210764880D01*
X96160119Y-210717261D01*
X96112500Y-210669642D01*
X97112500Y-209860119D02*
X97160119Y-209812500D01*
X97255357Y-209764880D01*
X97493452Y-209764880D01*
X97588690Y-209812500D01*
X97636309Y-209860119D01*
X97683928Y-209955357D01*
X97683928Y-210050595D01*
X97636309Y-210193452D01*
X97064880Y-210764880D01*
X97683928Y-210764880D01*
%TO.C,K29*%
X211984023Y-230132880D02*
X211984023Y-229132880D01*
X212555452Y-230132880D02*
X212126880Y-229561452D01*
X212555452Y-229132880D02*
X211984023Y-229704309D01*
X212984023Y-229609071D02*
X213317357Y-229609071D01*
X213460214Y-230132880D02*
X212984023Y-230132880D01*
X212984023Y-229132880D01*
X213460214Y-229132880D01*
X214079261Y-229656690D02*
X214079261Y-230132880D01*
X213745928Y-229132880D02*
X214079261Y-229656690D01*
X214412595Y-229132880D01*
X214698309Y-230085261D02*
X214841166Y-230132880D01*
X215079261Y-230132880D01*
X215174500Y-230085261D01*
X215222119Y-230037642D01*
X215269738Y-229942404D01*
X215269738Y-229847166D01*
X215222119Y-229751928D01*
X215174500Y-229704309D01*
X215079261Y-229656690D01*
X214888785Y-229609071D01*
X214793547Y-229561452D01*
X214745928Y-229513833D01*
X214698309Y-229418595D01*
X214698309Y-229323357D01*
X214745928Y-229228119D01*
X214793547Y-229180500D01*
X214888785Y-229132880D01*
X215126880Y-229132880D01*
X215269738Y-229180500D01*
X215603071Y-229132880D02*
X215841166Y-230132880D01*
X216031642Y-229418595D01*
X216222119Y-230132880D01*
X216460214Y-229132880D01*
%TO.C,K21*%
X192934023Y-172982880D02*
X192934023Y-171982880D01*
X193505452Y-172982880D02*
X193076880Y-172411452D01*
X193505452Y-171982880D02*
X192934023Y-172554309D01*
X193934023Y-172459071D02*
X194267357Y-172459071D01*
X194410214Y-172982880D02*
X193934023Y-172982880D01*
X193934023Y-171982880D01*
X194410214Y-171982880D01*
X195029261Y-172506690D02*
X195029261Y-172982880D01*
X194695928Y-171982880D02*
X195029261Y-172506690D01*
X195362595Y-171982880D01*
X195648309Y-172935261D02*
X195791166Y-172982880D01*
X196029261Y-172982880D01*
X196124500Y-172935261D01*
X196172119Y-172887642D01*
X196219738Y-172792404D01*
X196219738Y-172697166D01*
X196172119Y-172601928D01*
X196124500Y-172554309D01*
X196029261Y-172506690D01*
X195838785Y-172459071D01*
X195743547Y-172411452D01*
X195695928Y-172363833D01*
X195648309Y-172268595D01*
X195648309Y-172173357D01*
X195695928Y-172078119D01*
X195743547Y-172030500D01*
X195838785Y-171982880D01*
X196076880Y-171982880D01*
X196219738Y-172030500D01*
X196553071Y-171982880D02*
X196791166Y-172982880D01*
X196981642Y-172268595D01*
X197172119Y-172982880D01*
X197410214Y-171982880D01*
%TO.C,K5*%
X116734023Y-249182880D02*
X116734023Y-248182880D01*
X117305452Y-249182880D02*
X116876880Y-248611452D01*
X117305452Y-248182880D02*
X116734023Y-248754309D01*
X117734023Y-248659071D02*
X118067357Y-248659071D01*
X118210214Y-249182880D02*
X117734023Y-249182880D01*
X117734023Y-248182880D01*
X118210214Y-248182880D01*
X118829261Y-248706690D02*
X118829261Y-249182880D01*
X118495928Y-248182880D02*
X118829261Y-248706690D01*
X119162595Y-248182880D01*
X119448309Y-249135261D02*
X119591166Y-249182880D01*
X119829261Y-249182880D01*
X119924500Y-249135261D01*
X119972119Y-249087642D01*
X120019738Y-248992404D01*
X120019738Y-248897166D01*
X119972119Y-248801928D01*
X119924500Y-248754309D01*
X119829261Y-248706690D01*
X119638785Y-248659071D01*
X119543547Y-248611452D01*
X119495928Y-248563833D01*
X119448309Y-248468595D01*
X119448309Y-248373357D01*
X119495928Y-248278119D01*
X119543547Y-248230500D01*
X119638785Y-248182880D01*
X119876880Y-248182880D01*
X120019738Y-248230500D01*
X120353071Y-248182880D02*
X120591166Y-249182880D01*
X120781642Y-248468595D01*
X120972119Y-249182880D01*
X121210214Y-248182880D01*
%TO.C,K4*%
X116734023Y-230132880D02*
X116734023Y-229132880D01*
X117305452Y-230132880D02*
X116876880Y-229561452D01*
X117305452Y-229132880D02*
X116734023Y-229704309D01*
X117734023Y-229609071D02*
X118067357Y-229609071D01*
X118210214Y-230132880D02*
X117734023Y-230132880D01*
X117734023Y-229132880D01*
X118210214Y-229132880D01*
X118829261Y-229656690D02*
X118829261Y-230132880D01*
X118495928Y-229132880D02*
X118829261Y-229656690D01*
X119162595Y-229132880D01*
X119448309Y-230085261D02*
X119591166Y-230132880D01*
X119829261Y-230132880D01*
X119924500Y-230085261D01*
X119972119Y-230037642D01*
X120019738Y-229942404D01*
X120019738Y-229847166D01*
X119972119Y-229751928D01*
X119924500Y-229704309D01*
X119829261Y-229656690D01*
X119638785Y-229609071D01*
X119543547Y-229561452D01*
X119495928Y-229513833D01*
X119448309Y-229418595D01*
X119448309Y-229323357D01*
X119495928Y-229228119D01*
X119543547Y-229180500D01*
X119638785Y-229132880D01*
X119876880Y-229132880D01*
X120019738Y-229180500D01*
X120353071Y-229132880D02*
X120591166Y-230132880D01*
X120781642Y-229418595D01*
X120972119Y-230132880D01*
X121210214Y-229132880D01*
%TO.C,K8*%
X135784023Y-211082880D02*
X135784023Y-210082880D01*
X136355452Y-211082880D02*
X135926880Y-210511452D01*
X136355452Y-210082880D02*
X135784023Y-210654309D01*
X136784023Y-210559071D02*
X137117357Y-210559071D01*
X137260214Y-211082880D02*
X136784023Y-211082880D01*
X136784023Y-210082880D01*
X137260214Y-210082880D01*
X137879261Y-210606690D02*
X137879261Y-211082880D01*
X137545928Y-210082880D02*
X137879261Y-210606690D01*
X138212595Y-210082880D01*
X138498309Y-211035261D02*
X138641166Y-211082880D01*
X138879261Y-211082880D01*
X138974500Y-211035261D01*
X139022119Y-210987642D01*
X139069738Y-210892404D01*
X139069738Y-210797166D01*
X139022119Y-210701928D01*
X138974500Y-210654309D01*
X138879261Y-210606690D01*
X138688785Y-210559071D01*
X138593547Y-210511452D01*
X138545928Y-210463833D01*
X138498309Y-210368595D01*
X138498309Y-210273357D01*
X138545928Y-210178119D01*
X138593547Y-210130500D01*
X138688785Y-210082880D01*
X138926880Y-210082880D01*
X139069738Y-210130500D01*
X139403071Y-210082880D02*
X139641166Y-211082880D01*
X139831642Y-210368595D01*
X140022119Y-211082880D01*
X140260214Y-210082880D01*
%TO.C,K35*%
X231034023Y-249182880D02*
X231034023Y-248182880D01*
X231605452Y-249182880D02*
X231176880Y-248611452D01*
X231605452Y-248182880D02*
X231034023Y-248754309D01*
X232034023Y-248659071D02*
X232367357Y-248659071D01*
X232510214Y-249182880D02*
X232034023Y-249182880D01*
X232034023Y-248182880D01*
X232510214Y-248182880D01*
X233129261Y-248706690D02*
X233129261Y-249182880D01*
X232795928Y-248182880D02*
X233129261Y-248706690D01*
X233462595Y-248182880D01*
X233748309Y-249135261D02*
X233891166Y-249182880D01*
X234129261Y-249182880D01*
X234224500Y-249135261D01*
X234272119Y-249087642D01*
X234319738Y-248992404D01*
X234319738Y-248897166D01*
X234272119Y-248801928D01*
X234224500Y-248754309D01*
X234129261Y-248706690D01*
X233938785Y-248659071D01*
X233843547Y-248611452D01*
X233795928Y-248563833D01*
X233748309Y-248468595D01*
X233748309Y-248373357D01*
X233795928Y-248278119D01*
X233843547Y-248230500D01*
X233938785Y-248182880D01*
X234176880Y-248182880D01*
X234319738Y-248230500D01*
X234653071Y-248182880D02*
X234891166Y-249182880D01*
X235081642Y-248468595D01*
X235272119Y-249182880D01*
X235510214Y-248182880D01*
%TO.C,K52*%
X307234023Y-192032880D02*
X307234023Y-191032880D01*
X307805452Y-192032880D02*
X307376880Y-191461452D01*
X307805452Y-191032880D02*
X307234023Y-191604309D01*
X308234023Y-191509071D02*
X308567357Y-191509071D01*
X308710214Y-192032880D02*
X308234023Y-192032880D01*
X308234023Y-191032880D01*
X308710214Y-191032880D01*
X309329261Y-191556690D02*
X309329261Y-192032880D01*
X308995928Y-191032880D02*
X309329261Y-191556690D01*
X309662595Y-191032880D01*
X309948309Y-191985261D02*
X310091166Y-192032880D01*
X310329261Y-192032880D01*
X310424500Y-191985261D01*
X310472119Y-191937642D01*
X310519738Y-191842404D01*
X310519738Y-191747166D01*
X310472119Y-191651928D01*
X310424500Y-191604309D01*
X310329261Y-191556690D01*
X310138785Y-191509071D01*
X310043547Y-191461452D01*
X309995928Y-191413833D01*
X309948309Y-191318595D01*
X309948309Y-191223357D01*
X309995928Y-191128119D01*
X310043547Y-191080500D01*
X310138785Y-191032880D01*
X310376880Y-191032880D01*
X310519738Y-191080500D01*
X310853071Y-191032880D02*
X311091166Y-192032880D01*
X311281642Y-191318595D01*
X311472119Y-192032880D01*
X311710214Y-191032880D01*
%TO.C,K60*%
X326284023Y-249182880D02*
X326284023Y-248182880D01*
X326855452Y-249182880D02*
X326426880Y-248611452D01*
X326855452Y-248182880D02*
X326284023Y-248754309D01*
X327284023Y-248659071D02*
X327617357Y-248659071D01*
X327760214Y-249182880D02*
X327284023Y-249182880D01*
X327284023Y-248182880D01*
X327760214Y-248182880D01*
X328379261Y-248706690D02*
X328379261Y-249182880D01*
X328045928Y-248182880D02*
X328379261Y-248706690D01*
X328712595Y-248182880D01*
X328998309Y-249135261D02*
X329141166Y-249182880D01*
X329379261Y-249182880D01*
X329474500Y-249135261D01*
X329522119Y-249087642D01*
X329569738Y-248992404D01*
X329569738Y-248897166D01*
X329522119Y-248801928D01*
X329474500Y-248754309D01*
X329379261Y-248706690D01*
X329188785Y-248659071D01*
X329093547Y-248611452D01*
X329045928Y-248563833D01*
X328998309Y-248468595D01*
X328998309Y-248373357D01*
X329045928Y-248278119D01*
X329093547Y-248230500D01*
X329188785Y-248182880D01*
X329426880Y-248182880D01*
X329569738Y-248230500D01*
X329903071Y-248182880D02*
X330141166Y-249182880D01*
X330331642Y-248468595D01*
X330522119Y-249182880D01*
X330760214Y-248182880D01*
%TO.C,K55*%
X307234023Y-249182880D02*
X307234023Y-248182880D01*
X307805452Y-249182880D02*
X307376880Y-248611452D01*
X307805452Y-248182880D02*
X307234023Y-248754309D01*
X308234023Y-248659071D02*
X308567357Y-248659071D01*
X308710214Y-249182880D02*
X308234023Y-249182880D01*
X308234023Y-248182880D01*
X308710214Y-248182880D01*
X309329261Y-248706690D02*
X309329261Y-249182880D01*
X308995928Y-248182880D02*
X309329261Y-248706690D01*
X309662595Y-248182880D01*
X309948309Y-249135261D02*
X310091166Y-249182880D01*
X310329261Y-249182880D01*
X310424500Y-249135261D01*
X310472119Y-249087642D01*
X310519738Y-248992404D01*
X310519738Y-248897166D01*
X310472119Y-248801928D01*
X310424500Y-248754309D01*
X310329261Y-248706690D01*
X310138785Y-248659071D01*
X310043547Y-248611452D01*
X309995928Y-248563833D01*
X309948309Y-248468595D01*
X309948309Y-248373357D01*
X309995928Y-248278119D01*
X310043547Y-248230500D01*
X310138785Y-248182880D01*
X310376880Y-248182880D01*
X310519738Y-248230500D01*
X310853071Y-248182880D02*
X311091166Y-249182880D01*
X311281642Y-248468595D01*
X311472119Y-249182880D01*
X311710214Y-248182880D01*
%TO.C,K12*%
X154834023Y-192032880D02*
X154834023Y-191032880D01*
X155405452Y-192032880D02*
X154976880Y-191461452D01*
X155405452Y-191032880D02*
X154834023Y-191604309D01*
X155834023Y-191509071D02*
X156167357Y-191509071D01*
X156310214Y-192032880D02*
X155834023Y-192032880D01*
X155834023Y-191032880D01*
X156310214Y-191032880D01*
X156929261Y-191556690D02*
X156929261Y-192032880D01*
X156595928Y-191032880D02*
X156929261Y-191556690D01*
X157262595Y-191032880D01*
X157548309Y-191985261D02*
X157691166Y-192032880D01*
X157929261Y-192032880D01*
X158024500Y-191985261D01*
X158072119Y-191937642D01*
X158119738Y-191842404D01*
X158119738Y-191747166D01*
X158072119Y-191651928D01*
X158024500Y-191604309D01*
X157929261Y-191556690D01*
X157738785Y-191509071D01*
X157643547Y-191461452D01*
X157595928Y-191413833D01*
X157548309Y-191318595D01*
X157548309Y-191223357D01*
X157595928Y-191128119D01*
X157643547Y-191080500D01*
X157738785Y-191032880D01*
X157976880Y-191032880D01*
X158119738Y-191080500D01*
X158453071Y-191032880D02*
X158691166Y-192032880D01*
X158881642Y-191318595D01*
X159072119Y-192032880D01*
X159310214Y-191032880D01*
%TO.C,K1*%
X116734023Y-172982880D02*
X116734023Y-171982880D01*
X117305452Y-172982880D02*
X116876880Y-172411452D01*
X117305452Y-171982880D02*
X116734023Y-172554309D01*
X117734023Y-172459071D02*
X118067357Y-172459071D01*
X118210214Y-172982880D02*
X117734023Y-172982880D01*
X117734023Y-171982880D01*
X118210214Y-171982880D01*
X118829261Y-172506690D02*
X118829261Y-172982880D01*
X118495928Y-171982880D02*
X118829261Y-172506690D01*
X119162595Y-171982880D01*
X119448309Y-172935261D02*
X119591166Y-172982880D01*
X119829261Y-172982880D01*
X119924500Y-172935261D01*
X119972119Y-172887642D01*
X120019738Y-172792404D01*
X120019738Y-172697166D01*
X119972119Y-172601928D01*
X119924500Y-172554309D01*
X119829261Y-172506690D01*
X119638785Y-172459071D01*
X119543547Y-172411452D01*
X119495928Y-172363833D01*
X119448309Y-172268595D01*
X119448309Y-172173357D01*
X119495928Y-172078119D01*
X119543547Y-172030500D01*
X119638785Y-171982880D01*
X119876880Y-171982880D01*
X120019738Y-172030500D01*
X120353071Y-171982880D02*
X120591166Y-172982880D01*
X120781642Y-172268595D01*
X120972119Y-172982880D01*
X121210214Y-171982880D01*
%TO.C,K14*%
X154834023Y-230132880D02*
X154834023Y-229132880D01*
X155405452Y-230132880D02*
X154976880Y-229561452D01*
X155405452Y-229132880D02*
X154834023Y-229704309D01*
X155834023Y-229609071D02*
X156167357Y-229609071D01*
X156310214Y-230132880D02*
X155834023Y-230132880D01*
X155834023Y-229132880D01*
X156310214Y-229132880D01*
X156929261Y-229656690D02*
X156929261Y-230132880D01*
X156595928Y-229132880D02*
X156929261Y-229656690D01*
X157262595Y-229132880D01*
X157548309Y-230085261D02*
X157691166Y-230132880D01*
X157929261Y-230132880D01*
X158024500Y-230085261D01*
X158072119Y-230037642D01*
X158119738Y-229942404D01*
X158119738Y-229847166D01*
X158072119Y-229751928D01*
X158024500Y-229704309D01*
X157929261Y-229656690D01*
X157738785Y-229609071D01*
X157643547Y-229561452D01*
X157595928Y-229513833D01*
X157548309Y-229418595D01*
X157548309Y-229323357D01*
X157595928Y-229228119D01*
X157643547Y-229180500D01*
X157738785Y-229132880D01*
X157976880Y-229132880D01*
X158119738Y-229180500D01*
X158453071Y-229132880D02*
X158691166Y-230132880D01*
X158881642Y-229418595D01*
X159072119Y-230132880D01*
X159310214Y-229132880D01*
%TO.C,K47*%
X288184023Y-192032880D02*
X288184023Y-191032880D01*
X288755452Y-192032880D02*
X288326880Y-191461452D01*
X288755452Y-191032880D02*
X288184023Y-191604309D01*
X289184023Y-191509071D02*
X289517357Y-191509071D01*
X289660214Y-192032880D02*
X289184023Y-192032880D01*
X289184023Y-191032880D01*
X289660214Y-191032880D01*
X290279261Y-191556690D02*
X290279261Y-192032880D01*
X289945928Y-191032880D02*
X290279261Y-191556690D01*
X290612595Y-191032880D01*
X290898309Y-191985261D02*
X291041166Y-192032880D01*
X291279261Y-192032880D01*
X291374500Y-191985261D01*
X291422119Y-191937642D01*
X291469738Y-191842404D01*
X291469738Y-191747166D01*
X291422119Y-191651928D01*
X291374500Y-191604309D01*
X291279261Y-191556690D01*
X291088785Y-191509071D01*
X290993547Y-191461452D01*
X290945928Y-191413833D01*
X290898309Y-191318595D01*
X290898309Y-191223357D01*
X290945928Y-191128119D01*
X290993547Y-191080500D01*
X291088785Y-191032880D01*
X291326880Y-191032880D01*
X291469738Y-191080500D01*
X291803071Y-191032880D02*
X292041166Y-192032880D01*
X292231642Y-191318595D01*
X292422119Y-192032880D01*
X292660214Y-191032880D01*
%TO.C,K46*%
X288184023Y-172982880D02*
X288184023Y-171982880D01*
X288755452Y-172982880D02*
X288326880Y-172411452D01*
X288755452Y-171982880D02*
X288184023Y-172554309D01*
X289184023Y-172459071D02*
X289517357Y-172459071D01*
X289660214Y-172982880D02*
X289184023Y-172982880D01*
X289184023Y-171982880D01*
X289660214Y-171982880D01*
X290279261Y-172506690D02*
X290279261Y-172982880D01*
X289945928Y-171982880D02*
X290279261Y-172506690D01*
X290612595Y-171982880D01*
X290898309Y-172935261D02*
X291041166Y-172982880D01*
X291279261Y-172982880D01*
X291374500Y-172935261D01*
X291422119Y-172887642D01*
X291469738Y-172792404D01*
X291469738Y-172697166D01*
X291422119Y-172601928D01*
X291374500Y-172554309D01*
X291279261Y-172506690D01*
X291088785Y-172459071D01*
X290993547Y-172411452D01*
X290945928Y-172363833D01*
X290898309Y-172268595D01*
X290898309Y-172173357D01*
X290945928Y-172078119D01*
X290993547Y-172030500D01*
X291088785Y-171982880D01*
X291326880Y-171982880D01*
X291469738Y-172030500D01*
X291803071Y-171982880D02*
X292041166Y-172982880D01*
X292231642Y-172268595D01*
X292422119Y-172982880D01*
X292660214Y-171982880D01*
%TO.C,K9*%
X135784023Y-230132880D02*
X135784023Y-229132880D01*
X136355452Y-230132880D02*
X135926880Y-229561452D01*
X136355452Y-229132880D02*
X135784023Y-229704309D01*
X136784023Y-229609071D02*
X137117357Y-229609071D01*
X137260214Y-230132880D02*
X136784023Y-230132880D01*
X136784023Y-229132880D01*
X137260214Y-229132880D01*
X137879261Y-229656690D02*
X137879261Y-230132880D01*
X137545928Y-229132880D02*
X137879261Y-229656690D01*
X138212595Y-229132880D01*
X138498309Y-230085261D02*
X138641166Y-230132880D01*
X138879261Y-230132880D01*
X138974500Y-230085261D01*
X139022119Y-230037642D01*
X139069738Y-229942404D01*
X139069738Y-229847166D01*
X139022119Y-229751928D01*
X138974500Y-229704309D01*
X138879261Y-229656690D01*
X138688785Y-229609071D01*
X138593547Y-229561452D01*
X138545928Y-229513833D01*
X138498309Y-229418595D01*
X138498309Y-229323357D01*
X138545928Y-229228119D01*
X138593547Y-229180500D01*
X138688785Y-229132880D01*
X138926880Y-229132880D01*
X139069738Y-229180500D01*
X139403071Y-229132880D02*
X139641166Y-230132880D01*
X139831642Y-229418595D01*
X140022119Y-230132880D01*
X140260214Y-229132880D01*
%TO.C,K15*%
X154834023Y-249182880D02*
X154834023Y-248182880D01*
X155405452Y-249182880D02*
X154976880Y-248611452D01*
X155405452Y-248182880D02*
X154834023Y-248754309D01*
X155834023Y-248659071D02*
X156167357Y-248659071D01*
X156310214Y-249182880D02*
X155834023Y-249182880D01*
X155834023Y-248182880D01*
X156310214Y-248182880D01*
X156929261Y-248706690D02*
X156929261Y-249182880D01*
X156595928Y-248182880D02*
X156929261Y-248706690D01*
X157262595Y-248182880D01*
X157548309Y-249135261D02*
X157691166Y-249182880D01*
X157929261Y-249182880D01*
X158024500Y-249135261D01*
X158072119Y-249087642D01*
X158119738Y-248992404D01*
X158119738Y-248897166D01*
X158072119Y-248801928D01*
X158024500Y-248754309D01*
X157929261Y-248706690D01*
X157738785Y-248659071D01*
X157643547Y-248611452D01*
X157595928Y-248563833D01*
X157548309Y-248468595D01*
X157548309Y-248373357D01*
X157595928Y-248278119D01*
X157643547Y-248230500D01*
X157738785Y-248182880D01*
X157976880Y-248182880D01*
X158119738Y-248230500D01*
X158453071Y-248182880D02*
X158691166Y-249182880D01*
X158881642Y-248468595D01*
X159072119Y-249182880D01*
X159310214Y-248182880D01*
%TO.C,K2*%
X116734023Y-192032880D02*
X116734023Y-191032880D01*
X117305452Y-192032880D02*
X116876880Y-191461452D01*
X117305452Y-191032880D02*
X116734023Y-191604309D01*
X117734023Y-191509071D02*
X118067357Y-191509071D01*
X118210214Y-192032880D02*
X117734023Y-192032880D01*
X117734023Y-191032880D01*
X118210214Y-191032880D01*
X118829261Y-191556690D02*
X118829261Y-192032880D01*
X118495928Y-191032880D02*
X118829261Y-191556690D01*
X119162595Y-191032880D01*
X119448309Y-191985261D02*
X119591166Y-192032880D01*
X119829261Y-192032880D01*
X119924500Y-191985261D01*
X119972119Y-191937642D01*
X120019738Y-191842404D01*
X120019738Y-191747166D01*
X119972119Y-191651928D01*
X119924500Y-191604309D01*
X119829261Y-191556690D01*
X119638785Y-191509071D01*
X119543547Y-191461452D01*
X119495928Y-191413833D01*
X119448309Y-191318595D01*
X119448309Y-191223357D01*
X119495928Y-191128119D01*
X119543547Y-191080500D01*
X119638785Y-191032880D01*
X119876880Y-191032880D01*
X120019738Y-191080500D01*
X120353071Y-191032880D02*
X120591166Y-192032880D01*
X120781642Y-191318595D01*
X120972119Y-192032880D01*
X121210214Y-191032880D01*
%TD*%
M02*
