%TF.GenerationSoftware,KiCad,Pcbnew,5.1.10*%
%TF.CreationDate,2021-06-15T19:04:48-05:00*%
%TF.ProjectId,olkbd_ble,6f6c6b62-645f-4626-9c65-2e6b69636164,rev?*%
%TF.SameCoordinates,Original*%
%TF.FileFunction,Legend,Bot*%
%TF.FilePolarity,Positive*%
%FSLAX46Y46*%
G04 Gerber Fmt 4.6, Leading zero omitted, Abs format (unit mm)*
G04 Created by KiCad (PCBNEW 5.1.10) date 2021-06-15 19:04:48*
%MOMM*%
%LPD*%
G01*
G04 APERTURE LIST*
%ADD10C,0.150000*%
%ADD11C,0.200000*%
G04 APERTURE END LIST*
D10*
X82833630Y-226855059D02*
X81833630Y-226855059D01*
X81833630Y-227236011D01*
X81881250Y-227331250D01*
X81928869Y-227378869D01*
X82024107Y-227426488D01*
X82166964Y-227426488D01*
X82262202Y-227378869D01*
X82309821Y-227331250D01*
X82357440Y-227236011D01*
X82357440Y-226855059D01*
X82833630Y-227997916D02*
X82786011Y-227902678D01*
X82738392Y-227855059D01*
X82643154Y-227807440D01*
X82357440Y-227807440D01*
X82262202Y-227855059D01*
X82214583Y-227902678D01*
X82166964Y-227997916D01*
X82166964Y-228140773D01*
X82214583Y-228236011D01*
X82262202Y-228283630D01*
X82357440Y-228331250D01*
X82643154Y-228331250D01*
X82738392Y-228283630D01*
X82786011Y-228236011D01*
X82833630Y-228140773D01*
X82833630Y-227997916D01*
X82166964Y-228664583D02*
X82833630Y-228855059D01*
X82357440Y-229045535D01*
X82833630Y-229236011D01*
X82166964Y-229426488D01*
X82786011Y-230188392D02*
X82833630Y-230093154D01*
X82833630Y-229902678D01*
X82786011Y-229807440D01*
X82690773Y-229759821D01*
X82309821Y-229759821D01*
X82214583Y-229807440D01*
X82166964Y-229902678D01*
X82166964Y-230093154D01*
X82214583Y-230188392D01*
X82309821Y-230236011D01*
X82405059Y-230236011D01*
X82500297Y-229759821D01*
X82833630Y-230664583D02*
X82166964Y-230664583D01*
X82357440Y-230664583D02*
X82262202Y-230712202D01*
X82214583Y-230759821D01*
X82166964Y-230855059D01*
X82166964Y-230950297D01*
X82786011Y-231664583D02*
X82833630Y-231569345D01*
X82833630Y-231378869D01*
X82786011Y-231283630D01*
X82690773Y-231236011D01*
X82309821Y-231236011D01*
X82214583Y-231283630D01*
X82166964Y-231378869D01*
X82166964Y-231569345D01*
X82214583Y-231664583D01*
X82309821Y-231712202D01*
X82405059Y-231712202D01*
X82500297Y-231236011D01*
X82833630Y-232569345D02*
X81833630Y-232569345D01*
X82786011Y-232569345D02*
X82833630Y-232474107D01*
X82833630Y-232283630D01*
X82786011Y-232188392D01*
X82738392Y-232140773D01*
X82643154Y-232093154D01*
X82357440Y-232093154D01*
X82262202Y-232140773D01*
X82214583Y-232188392D01*
X82166964Y-232283630D01*
X82166964Y-232474107D01*
X82214583Y-232569345D01*
X82833630Y-233807440D02*
X81833630Y-233807440D01*
X82214583Y-233807440D02*
X82166964Y-233902678D01*
X82166964Y-234093154D01*
X82214583Y-234188392D01*
X82262202Y-234236011D01*
X82357440Y-234283630D01*
X82643154Y-234283630D01*
X82738392Y-234236011D01*
X82786011Y-234188392D01*
X82833630Y-234093154D01*
X82833630Y-233902678D01*
X82786011Y-233807440D01*
X82166964Y-234616964D02*
X82833630Y-234855059D01*
X82166964Y-235093154D02*
X82833630Y-234855059D01*
X83071726Y-234759821D01*
X83119345Y-234712202D01*
X83166964Y-234616964D01*
X82833630Y-236236011D02*
X81833630Y-236236011D01*
X82547916Y-236569345D01*
X81833630Y-236902678D01*
X82833630Y-236902678D01*
X82833630Y-237378869D02*
X81833630Y-237378869D01*
X82833630Y-237950297D02*
X82262202Y-237521726D01*
X81833630Y-237950297D02*
X82405059Y-237378869D01*
X81833630Y-238283630D02*
X81833630Y-238902678D01*
X82214583Y-238569345D01*
X82214583Y-238712202D01*
X82262202Y-238807440D01*
X82309821Y-238855059D01*
X82405059Y-238902678D01*
X82643154Y-238902678D01*
X82738392Y-238855059D01*
X82786011Y-238807440D01*
X82833630Y-238712202D01*
X82833630Y-238426488D01*
X82786011Y-238331250D01*
X82738392Y-238283630D01*
X81928869Y-239283630D02*
X81881250Y-239331250D01*
X81833630Y-239426488D01*
X81833630Y-239664583D01*
X81881250Y-239759821D01*
X81928869Y-239807440D01*
X82024107Y-239855059D01*
X82119345Y-239855059D01*
X82262202Y-239807440D01*
X82833630Y-239236011D01*
X82833630Y-239855059D01*
X84483630Y-220902678D02*
X83483630Y-220902678D01*
X84483630Y-221331250D02*
X83959821Y-221331250D01*
X83864583Y-221283630D01*
X83816964Y-221188392D01*
X83816964Y-221045535D01*
X83864583Y-220950297D01*
X83912202Y-220902678D01*
X83816964Y-221664583D02*
X83816964Y-222045535D01*
X83483630Y-221807440D02*
X84340773Y-221807440D01*
X84436011Y-221855059D01*
X84483630Y-221950297D01*
X84483630Y-222045535D01*
X83816964Y-222236011D02*
X83816964Y-222616964D01*
X83483630Y-222378869D02*
X84340773Y-222378869D01*
X84436011Y-222426488D01*
X84483630Y-222521726D01*
X84483630Y-222616964D01*
X83816964Y-222950297D02*
X84816964Y-222950297D01*
X83864583Y-222950297D02*
X83816964Y-223045535D01*
X83816964Y-223236011D01*
X83864583Y-223331250D01*
X83912202Y-223378869D01*
X84007440Y-223426488D01*
X84293154Y-223426488D01*
X84388392Y-223378869D01*
X84436011Y-223331250D01*
X84483630Y-223236011D01*
X84483630Y-223045535D01*
X84436011Y-222950297D01*
X84436011Y-223807440D02*
X84483630Y-223902678D01*
X84483630Y-224093154D01*
X84436011Y-224188392D01*
X84340773Y-224236011D01*
X84293154Y-224236011D01*
X84197916Y-224188392D01*
X84150297Y-224093154D01*
X84150297Y-223950297D01*
X84102678Y-223855059D01*
X84007440Y-223807440D01*
X83959821Y-223807440D01*
X83864583Y-223855059D01*
X83816964Y-223950297D01*
X83816964Y-224093154D01*
X83864583Y-224188392D01*
X84388392Y-224664583D02*
X84436011Y-224712202D01*
X84483630Y-224664583D01*
X84436011Y-224616964D01*
X84388392Y-224664583D01*
X84483630Y-224664583D01*
X83864583Y-224664583D02*
X83912202Y-224712202D01*
X83959821Y-224664583D01*
X83912202Y-224616964D01*
X83864583Y-224664583D01*
X83959821Y-224664583D01*
X83436011Y-225855059D02*
X84721726Y-224997916D01*
X83436011Y-226902678D02*
X84721726Y-226045535D01*
X83816964Y-227664583D02*
X84626488Y-227664583D01*
X84721726Y-227616964D01*
X84769345Y-227569345D01*
X84816964Y-227474107D01*
X84816964Y-227331250D01*
X84769345Y-227236011D01*
X84436011Y-227664583D02*
X84483630Y-227569345D01*
X84483630Y-227378869D01*
X84436011Y-227283630D01*
X84388392Y-227236011D01*
X84293154Y-227188392D01*
X84007440Y-227188392D01*
X83912202Y-227236011D01*
X83864583Y-227283630D01*
X83816964Y-227378869D01*
X83816964Y-227569345D01*
X83864583Y-227664583D01*
X84483630Y-228140773D02*
X83816964Y-228140773D01*
X83483630Y-228140773D02*
X83531250Y-228093154D01*
X83578869Y-228140773D01*
X83531250Y-228188392D01*
X83483630Y-228140773D01*
X83578869Y-228140773D01*
X83816964Y-228474107D02*
X83816964Y-228855059D01*
X83483630Y-228616964D02*
X84340773Y-228616964D01*
X84436011Y-228664583D01*
X84483630Y-228759821D01*
X84483630Y-228855059D01*
X84483630Y-229188392D02*
X83483630Y-229188392D01*
X84483630Y-229616964D02*
X83959821Y-229616964D01*
X83864583Y-229569345D01*
X83816964Y-229474107D01*
X83816964Y-229331250D01*
X83864583Y-229236011D01*
X83912202Y-229188392D01*
X83816964Y-230521726D02*
X84483630Y-230521726D01*
X83816964Y-230093154D02*
X84340773Y-230093154D01*
X84436011Y-230140773D01*
X84483630Y-230236011D01*
X84483630Y-230378869D01*
X84436011Y-230474107D01*
X84388392Y-230521726D01*
X84483630Y-230997916D02*
X83483630Y-230997916D01*
X83864583Y-230997916D02*
X83816964Y-231093154D01*
X83816964Y-231283630D01*
X83864583Y-231378869D01*
X83912202Y-231426488D01*
X84007440Y-231474107D01*
X84293154Y-231474107D01*
X84388392Y-231426488D01*
X84436011Y-231378869D01*
X84483630Y-231283630D01*
X84483630Y-231093154D01*
X84436011Y-230997916D01*
X84388392Y-231902678D02*
X84436011Y-231950297D01*
X84483630Y-231902678D01*
X84436011Y-231855059D01*
X84388392Y-231902678D01*
X84483630Y-231902678D01*
X84436011Y-232807440D02*
X84483630Y-232712202D01*
X84483630Y-232521726D01*
X84436011Y-232426488D01*
X84388392Y-232378869D01*
X84293154Y-232331250D01*
X84007440Y-232331250D01*
X83912202Y-232378869D01*
X83864583Y-232426488D01*
X83816964Y-232521726D01*
X83816964Y-232712202D01*
X83864583Y-232807440D01*
X84483630Y-233378869D02*
X84436011Y-233283630D01*
X84388392Y-233236011D01*
X84293154Y-233188392D01*
X84007440Y-233188392D01*
X83912202Y-233236011D01*
X83864583Y-233283630D01*
X83816964Y-233378869D01*
X83816964Y-233521726D01*
X83864583Y-233616964D01*
X83912202Y-233664583D01*
X84007440Y-233712202D01*
X84293154Y-233712202D01*
X84388392Y-233664583D01*
X84436011Y-233616964D01*
X84483630Y-233521726D01*
X84483630Y-233378869D01*
X84483630Y-234140773D02*
X83816964Y-234140773D01*
X83912202Y-234140773D02*
X83864583Y-234188392D01*
X83816964Y-234283630D01*
X83816964Y-234426488D01*
X83864583Y-234521726D01*
X83959821Y-234569345D01*
X84483630Y-234569345D01*
X83959821Y-234569345D02*
X83864583Y-234616964D01*
X83816964Y-234712202D01*
X83816964Y-234855059D01*
X83864583Y-234950297D01*
X83959821Y-234997916D01*
X84483630Y-234997916D01*
X83436011Y-236188392D02*
X84721726Y-235331250D01*
X83531250Y-237045535D02*
X83483630Y-236950297D01*
X83483630Y-236807440D01*
X83531250Y-236664583D01*
X83626488Y-236569345D01*
X83721726Y-236521726D01*
X83912202Y-236474107D01*
X84055059Y-236474107D01*
X84245535Y-236521726D01*
X84340773Y-236569345D01*
X84436011Y-236664583D01*
X84483630Y-236807440D01*
X84483630Y-236902678D01*
X84436011Y-237045535D01*
X84388392Y-237093154D01*
X84055059Y-237093154D01*
X84055059Y-236902678D01*
X84483630Y-237950297D02*
X83959821Y-237950297D01*
X83864583Y-237902678D01*
X83816964Y-237807440D01*
X83816964Y-237616964D01*
X83864583Y-237521726D01*
X84436011Y-237950297D02*
X84483630Y-237855059D01*
X84483630Y-237616964D01*
X84436011Y-237521726D01*
X84340773Y-237474107D01*
X84245535Y-237474107D01*
X84150297Y-237521726D01*
X84102678Y-237616964D01*
X84102678Y-237855059D01*
X84055059Y-237950297D01*
X84483630Y-238569345D02*
X84436011Y-238474107D01*
X84340773Y-238426488D01*
X83483630Y-238426488D01*
X83816964Y-238855059D02*
X83816964Y-239378869D01*
X84483630Y-238855059D01*
X84483630Y-239378869D01*
X84483630Y-240188392D02*
X83959821Y-240188392D01*
X83864583Y-240140773D01*
X83816964Y-240045535D01*
X83816964Y-239855059D01*
X83864583Y-239759821D01*
X84436011Y-240188392D02*
X84483630Y-240093154D01*
X84483630Y-239855059D01*
X84436011Y-239759821D01*
X84340773Y-239712202D01*
X84245535Y-239712202D01*
X84150297Y-239759821D01*
X84102678Y-239855059D01*
X84102678Y-240093154D01*
X84055059Y-240188392D01*
X84483630Y-240664583D02*
X83816964Y-240664583D01*
X83483630Y-240664583D02*
X83531250Y-240616964D01*
X83578869Y-240664583D01*
X83531250Y-240712202D01*
X83483630Y-240664583D01*
X83578869Y-240664583D01*
X83436011Y-241855059D02*
X84721726Y-240997916D01*
X84483630Y-242188392D02*
X83483630Y-242188392D01*
X84197916Y-242521726D01*
X83483630Y-242855059D01*
X84483630Y-242855059D01*
X84483630Y-243331250D02*
X83483630Y-243331250D01*
X84483630Y-243902678D02*
X83912202Y-243474107D01*
X83483630Y-243902678D02*
X84055059Y-243331250D01*
X83483630Y-244236011D02*
X83483630Y-244855059D01*
X83864583Y-244521726D01*
X83864583Y-244664583D01*
X83912202Y-244759821D01*
X83959821Y-244807440D01*
X84055059Y-244855059D01*
X84293154Y-244855059D01*
X84388392Y-244807440D01*
X84436011Y-244759821D01*
X84483630Y-244664583D01*
X84483630Y-244378869D01*
X84436011Y-244283630D01*
X84388392Y-244236011D01*
X83578869Y-245236011D02*
X83531250Y-245283630D01*
X83483630Y-245378869D01*
X83483630Y-245616964D01*
X83531250Y-245712202D01*
X83578869Y-245759821D01*
X83674107Y-245807440D01*
X83769345Y-245807440D01*
X83912202Y-245759821D01*
X84483630Y-245188392D01*
X84483630Y-245807440D01*
X82833630Y-129605059D02*
X81833630Y-129605059D01*
X81833630Y-129986011D01*
X81881250Y-130081250D01*
X81928869Y-130128869D01*
X82024107Y-130176488D01*
X82166964Y-130176488D01*
X82262202Y-130128869D01*
X82309821Y-130081250D01*
X82357440Y-129986011D01*
X82357440Y-129605059D01*
X82833630Y-130747916D02*
X82786011Y-130652678D01*
X82738392Y-130605059D01*
X82643154Y-130557440D01*
X82357440Y-130557440D01*
X82262202Y-130605059D01*
X82214583Y-130652678D01*
X82166964Y-130747916D01*
X82166964Y-130890773D01*
X82214583Y-130986011D01*
X82262202Y-131033630D01*
X82357440Y-131081250D01*
X82643154Y-131081250D01*
X82738392Y-131033630D01*
X82786011Y-130986011D01*
X82833630Y-130890773D01*
X82833630Y-130747916D01*
X82166964Y-131414583D02*
X82833630Y-131605059D01*
X82357440Y-131795535D01*
X82833630Y-131986011D01*
X82166964Y-132176488D01*
X82786011Y-132938392D02*
X82833630Y-132843154D01*
X82833630Y-132652678D01*
X82786011Y-132557440D01*
X82690773Y-132509821D01*
X82309821Y-132509821D01*
X82214583Y-132557440D01*
X82166964Y-132652678D01*
X82166964Y-132843154D01*
X82214583Y-132938392D01*
X82309821Y-132986011D01*
X82405059Y-132986011D01*
X82500297Y-132509821D01*
X82833630Y-133414583D02*
X82166964Y-133414583D01*
X82357440Y-133414583D02*
X82262202Y-133462202D01*
X82214583Y-133509821D01*
X82166964Y-133605059D01*
X82166964Y-133700297D01*
X82786011Y-134414583D02*
X82833630Y-134319345D01*
X82833630Y-134128869D01*
X82786011Y-134033630D01*
X82690773Y-133986011D01*
X82309821Y-133986011D01*
X82214583Y-134033630D01*
X82166964Y-134128869D01*
X82166964Y-134319345D01*
X82214583Y-134414583D01*
X82309821Y-134462202D01*
X82405059Y-134462202D01*
X82500297Y-133986011D01*
X82833630Y-135319345D02*
X81833630Y-135319345D01*
X82786011Y-135319345D02*
X82833630Y-135224107D01*
X82833630Y-135033630D01*
X82786011Y-134938392D01*
X82738392Y-134890773D01*
X82643154Y-134843154D01*
X82357440Y-134843154D01*
X82262202Y-134890773D01*
X82214583Y-134938392D01*
X82166964Y-135033630D01*
X82166964Y-135224107D01*
X82214583Y-135319345D01*
X82833630Y-136557440D02*
X81833630Y-136557440D01*
X82214583Y-136557440D02*
X82166964Y-136652678D01*
X82166964Y-136843154D01*
X82214583Y-136938392D01*
X82262202Y-136986011D01*
X82357440Y-137033630D01*
X82643154Y-137033630D01*
X82738392Y-136986011D01*
X82786011Y-136938392D01*
X82833630Y-136843154D01*
X82833630Y-136652678D01*
X82786011Y-136557440D01*
X82166964Y-137366964D02*
X82833630Y-137605059D01*
X82166964Y-137843154D02*
X82833630Y-137605059D01*
X83071726Y-137509821D01*
X83119345Y-137462202D01*
X83166964Y-137366964D01*
X82833630Y-138986011D02*
X81833630Y-138986011D01*
X82547916Y-139319345D01*
X81833630Y-139652678D01*
X82833630Y-139652678D01*
X82833630Y-140128869D02*
X81833630Y-140128869D01*
X82833630Y-140700297D02*
X82262202Y-140271726D01*
X81833630Y-140700297D02*
X82405059Y-140128869D01*
X81833630Y-141033630D02*
X81833630Y-141652678D01*
X82214583Y-141319345D01*
X82214583Y-141462202D01*
X82262202Y-141557440D01*
X82309821Y-141605059D01*
X82405059Y-141652678D01*
X82643154Y-141652678D01*
X82738392Y-141605059D01*
X82786011Y-141557440D01*
X82833630Y-141462202D01*
X82833630Y-141176488D01*
X82786011Y-141081250D01*
X82738392Y-141033630D01*
X81928869Y-142033630D02*
X81881250Y-142081250D01*
X81833630Y-142176488D01*
X81833630Y-142414583D01*
X81881250Y-142509821D01*
X81928869Y-142557440D01*
X82024107Y-142605059D01*
X82119345Y-142605059D01*
X82262202Y-142557440D01*
X82833630Y-141986011D01*
X82833630Y-142605059D01*
X84483630Y-123652678D02*
X83483630Y-123652678D01*
X84483630Y-124081250D02*
X83959821Y-124081250D01*
X83864583Y-124033630D01*
X83816964Y-123938392D01*
X83816964Y-123795535D01*
X83864583Y-123700297D01*
X83912202Y-123652678D01*
X83816964Y-124414583D02*
X83816964Y-124795535D01*
X83483630Y-124557440D02*
X84340773Y-124557440D01*
X84436011Y-124605059D01*
X84483630Y-124700297D01*
X84483630Y-124795535D01*
X83816964Y-124986011D02*
X83816964Y-125366964D01*
X83483630Y-125128869D02*
X84340773Y-125128869D01*
X84436011Y-125176488D01*
X84483630Y-125271726D01*
X84483630Y-125366964D01*
X83816964Y-125700297D02*
X84816964Y-125700297D01*
X83864583Y-125700297D02*
X83816964Y-125795535D01*
X83816964Y-125986011D01*
X83864583Y-126081250D01*
X83912202Y-126128869D01*
X84007440Y-126176488D01*
X84293154Y-126176488D01*
X84388392Y-126128869D01*
X84436011Y-126081250D01*
X84483630Y-125986011D01*
X84483630Y-125795535D01*
X84436011Y-125700297D01*
X84436011Y-126557440D02*
X84483630Y-126652678D01*
X84483630Y-126843154D01*
X84436011Y-126938392D01*
X84340773Y-126986011D01*
X84293154Y-126986011D01*
X84197916Y-126938392D01*
X84150297Y-126843154D01*
X84150297Y-126700297D01*
X84102678Y-126605059D01*
X84007440Y-126557440D01*
X83959821Y-126557440D01*
X83864583Y-126605059D01*
X83816964Y-126700297D01*
X83816964Y-126843154D01*
X83864583Y-126938392D01*
X84388392Y-127414583D02*
X84436011Y-127462202D01*
X84483630Y-127414583D01*
X84436011Y-127366964D01*
X84388392Y-127414583D01*
X84483630Y-127414583D01*
X83864583Y-127414583D02*
X83912202Y-127462202D01*
X83959821Y-127414583D01*
X83912202Y-127366964D01*
X83864583Y-127414583D01*
X83959821Y-127414583D01*
X83436011Y-128605059D02*
X84721726Y-127747916D01*
X83436011Y-129652678D02*
X84721726Y-128795535D01*
X83816964Y-130414583D02*
X84626488Y-130414583D01*
X84721726Y-130366964D01*
X84769345Y-130319345D01*
X84816964Y-130224107D01*
X84816964Y-130081250D01*
X84769345Y-129986011D01*
X84436011Y-130414583D02*
X84483630Y-130319345D01*
X84483630Y-130128869D01*
X84436011Y-130033630D01*
X84388392Y-129986011D01*
X84293154Y-129938392D01*
X84007440Y-129938392D01*
X83912202Y-129986011D01*
X83864583Y-130033630D01*
X83816964Y-130128869D01*
X83816964Y-130319345D01*
X83864583Y-130414583D01*
X84483630Y-130890773D02*
X83816964Y-130890773D01*
X83483630Y-130890773D02*
X83531250Y-130843154D01*
X83578869Y-130890773D01*
X83531250Y-130938392D01*
X83483630Y-130890773D01*
X83578869Y-130890773D01*
X83816964Y-131224107D02*
X83816964Y-131605059D01*
X83483630Y-131366964D02*
X84340773Y-131366964D01*
X84436011Y-131414583D01*
X84483630Y-131509821D01*
X84483630Y-131605059D01*
X84483630Y-131938392D02*
X83483630Y-131938392D01*
X84483630Y-132366964D02*
X83959821Y-132366964D01*
X83864583Y-132319345D01*
X83816964Y-132224107D01*
X83816964Y-132081250D01*
X83864583Y-131986011D01*
X83912202Y-131938392D01*
X83816964Y-133271726D02*
X84483630Y-133271726D01*
X83816964Y-132843154D02*
X84340773Y-132843154D01*
X84436011Y-132890773D01*
X84483630Y-132986011D01*
X84483630Y-133128869D01*
X84436011Y-133224107D01*
X84388392Y-133271726D01*
X84483630Y-133747916D02*
X83483630Y-133747916D01*
X83864583Y-133747916D02*
X83816964Y-133843154D01*
X83816964Y-134033630D01*
X83864583Y-134128869D01*
X83912202Y-134176488D01*
X84007440Y-134224107D01*
X84293154Y-134224107D01*
X84388392Y-134176488D01*
X84436011Y-134128869D01*
X84483630Y-134033630D01*
X84483630Y-133843154D01*
X84436011Y-133747916D01*
X84388392Y-134652678D02*
X84436011Y-134700297D01*
X84483630Y-134652678D01*
X84436011Y-134605059D01*
X84388392Y-134652678D01*
X84483630Y-134652678D01*
X84436011Y-135557440D02*
X84483630Y-135462202D01*
X84483630Y-135271726D01*
X84436011Y-135176488D01*
X84388392Y-135128869D01*
X84293154Y-135081250D01*
X84007440Y-135081250D01*
X83912202Y-135128869D01*
X83864583Y-135176488D01*
X83816964Y-135271726D01*
X83816964Y-135462202D01*
X83864583Y-135557440D01*
X84483630Y-136128869D02*
X84436011Y-136033630D01*
X84388392Y-135986011D01*
X84293154Y-135938392D01*
X84007440Y-135938392D01*
X83912202Y-135986011D01*
X83864583Y-136033630D01*
X83816964Y-136128869D01*
X83816964Y-136271726D01*
X83864583Y-136366964D01*
X83912202Y-136414583D01*
X84007440Y-136462202D01*
X84293154Y-136462202D01*
X84388392Y-136414583D01*
X84436011Y-136366964D01*
X84483630Y-136271726D01*
X84483630Y-136128869D01*
X84483630Y-136890773D02*
X83816964Y-136890773D01*
X83912202Y-136890773D02*
X83864583Y-136938392D01*
X83816964Y-137033630D01*
X83816964Y-137176488D01*
X83864583Y-137271726D01*
X83959821Y-137319345D01*
X84483630Y-137319345D01*
X83959821Y-137319345D02*
X83864583Y-137366964D01*
X83816964Y-137462202D01*
X83816964Y-137605059D01*
X83864583Y-137700297D01*
X83959821Y-137747916D01*
X84483630Y-137747916D01*
X83436011Y-138938392D02*
X84721726Y-138081250D01*
X83531250Y-139795535D02*
X83483630Y-139700297D01*
X83483630Y-139557440D01*
X83531250Y-139414583D01*
X83626488Y-139319345D01*
X83721726Y-139271726D01*
X83912202Y-139224107D01*
X84055059Y-139224107D01*
X84245535Y-139271726D01*
X84340773Y-139319345D01*
X84436011Y-139414583D01*
X84483630Y-139557440D01*
X84483630Y-139652678D01*
X84436011Y-139795535D01*
X84388392Y-139843154D01*
X84055059Y-139843154D01*
X84055059Y-139652678D01*
X84483630Y-140700297D02*
X83959821Y-140700297D01*
X83864583Y-140652678D01*
X83816964Y-140557440D01*
X83816964Y-140366964D01*
X83864583Y-140271726D01*
X84436011Y-140700297D02*
X84483630Y-140605059D01*
X84483630Y-140366964D01*
X84436011Y-140271726D01*
X84340773Y-140224107D01*
X84245535Y-140224107D01*
X84150297Y-140271726D01*
X84102678Y-140366964D01*
X84102678Y-140605059D01*
X84055059Y-140700297D01*
X84483630Y-141319345D02*
X84436011Y-141224107D01*
X84340773Y-141176488D01*
X83483630Y-141176488D01*
X83816964Y-141605059D02*
X83816964Y-142128869D01*
X84483630Y-141605059D01*
X84483630Y-142128869D01*
X84483630Y-142938392D02*
X83959821Y-142938392D01*
X83864583Y-142890773D01*
X83816964Y-142795535D01*
X83816964Y-142605059D01*
X83864583Y-142509821D01*
X84436011Y-142938392D02*
X84483630Y-142843154D01*
X84483630Y-142605059D01*
X84436011Y-142509821D01*
X84340773Y-142462202D01*
X84245535Y-142462202D01*
X84150297Y-142509821D01*
X84102678Y-142605059D01*
X84102678Y-142843154D01*
X84055059Y-142938392D01*
X84483630Y-143414583D02*
X83816964Y-143414583D01*
X83483630Y-143414583D02*
X83531250Y-143366964D01*
X83578869Y-143414583D01*
X83531250Y-143462202D01*
X83483630Y-143414583D01*
X83578869Y-143414583D01*
X83436011Y-144605059D02*
X84721726Y-143747916D01*
X84483630Y-144938392D02*
X83483630Y-144938392D01*
X84197916Y-145271726D01*
X83483630Y-145605059D01*
X84483630Y-145605059D01*
X84483630Y-146081250D02*
X83483630Y-146081250D01*
X84483630Y-146652678D02*
X83912202Y-146224107D01*
X83483630Y-146652678D02*
X84055059Y-146081250D01*
X83483630Y-146986011D02*
X83483630Y-147605059D01*
X83864583Y-147271726D01*
X83864583Y-147414583D01*
X83912202Y-147509821D01*
X83959821Y-147557440D01*
X84055059Y-147605059D01*
X84293154Y-147605059D01*
X84388392Y-147557440D01*
X84436011Y-147509821D01*
X84483630Y-147414583D01*
X84483630Y-147128869D01*
X84436011Y-147033630D01*
X84388392Y-146986011D01*
X83578869Y-147986011D02*
X83531250Y-148033630D01*
X83483630Y-148128869D01*
X83483630Y-148366964D01*
X83531250Y-148462202D01*
X83578869Y-148509821D01*
X83674107Y-148557440D01*
X83769345Y-148557440D01*
X83912202Y-148509821D01*
X84483630Y-147938392D01*
X84483630Y-148557440D01*
X82833630Y-324105059D02*
X81833630Y-324105059D01*
X81833630Y-324486011D01*
X81881250Y-324581250D01*
X81928869Y-324628869D01*
X82024107Y-324676488D01*
X82166964Y-324676488D01*
X82262202Y-324628869D01*
X82309821Y-324581250D01*
X82357440Y-324486011D01*
X82357440Y-324105059D01*
X82833630Y-325247916D02*
X82786011Y-325152678D01*
X82738392Y-325105059D01*
X82643154Y-325057440D01*
X82357440Y-325057440D01*
X82262202Y-325105059D01*
X82214583Y-325152678D01*
X82166964Y-325247916D01*
X82166964Y-325390773D01*
X82214583Y-325486011D01*
X82262202Y-325533630D01*
X82357440Y-325581250D01*
X82643154Y-325581250D01*
X82738392Y-325533630D01*
X82786011Y-325486011D01*
X82833630Y-325390773D01*
X82833630Y-325247916D01*
X82166964Y-325914583D02*
X82833630Y-326105059D01*
X82357440Y-326295535D01*
X82833630Y-326486011D01*
X82166964Y-326676488D01*
X82786011Y-327438392D02*
X82833630Y-327343154D01*
X82833630Y-327152678D01*
X82786011Y-327057440D01*
X82690773Y-327009821D01*
X82309821Y-327009821D01*
X82214583Y-327057440D01*
X82166964Y-327152678D01*
X82166964Y-327343154D01*
X82214583Y-327438392D01*
X82309821Y-327486011D01*
X82405059Y-327486011D01*
X82500297Y-327009821D01*
X82833630Y-327914583D02*
X82166964Y-327914583D01*
X82357440Y-327914583D02*
X82262202Y-327962202D01*
X82214583Y-328009821D01*
X82166964Y-328105059D01*
X82166964Y-328200297D01*
X82786011Y-328914583D02*
X82833630Y-328819345D01*
X82833630Y-328628869D01*
X82786011Y-328533630D01*
X82690773Y-328486011D01*
X82309821Y-328486011D01*
X82214583Y-328533630D01*
X82166964Y-328628869D01*
X82166964Y-328819345D01*
X82214583Y-328914583D01*
X82309821Y-328962202D01*
X82405059Y-328962202D01*
X82500297Y-328486011D01*
X82833630Y-329819345D02*
X81833630Y-329819345D01*
X82786011Y-329819345D02*
X82833630Y-329724107D01*
X82833630Y-329533630D01*
X82786011Y-329438392D01*
X82738392Y-329390773D01*
X82643154Y-329343154D01*
X82357440Y-329343154D01*
X82262202Y-329390773D01*
X82214583Y-329438392D01*
X82166964Y-329533630D01*
X82166964Y-329724107D01*
X82214583Y-329819345D01*
X82833630Y-331057440D02*
X81833630Y-331057440D01*
X82214583Y-331057440D02*
X82166964Y-331152678D01*
X82166964Y-331343154D01*
X82214583Y-331438392D01*
X82262202Y-331486011D01*
X82357440Y-331533630D01*
X82643154Y-331533630D01*
X82738392Y-331486011D01*
X82786011Y-331438392D01*
X82833630Y-331343154D01*
X82833630Y-331152678D01*
X82786011Y-331057440D01*
X82166964Y-331866964D02*
X82833630Y-332105059D01*
X82166964Y-332343154D02*
X82833630Y-332105059D01*
X83071726Y-332009821D01*
X83119345Y-331962202D01*
X83166964Y-331866964D01*
X82833630Y-333486011D02*
X81833630Y-333486011D01*
X82547916Y-333819345D01*
X81833630Y-334152678D01*
X82833630Y-334152678D01*
X82833630Y-334628869D02*
X81833630Y-334628869D01*
X82833630Y-335200297D02*
X82262202Y-334771726D01*
X81833630Y-335200297D02*
X82405059Y-334628869D01*
X81833630Y-335533630D02*
X81833630Y-336152678D01*
X82214583Y-335819345D01*
X82214583Y-335962202D01*
X82262202Y-336057440D01*
X82309821Y-336105059D01*
X82405059Y-336152678D01*
X82643154Y-336152678D01*
X82738392Y-336105059D01*
X82786011Y-336057440D01*
X82833630Y-335962202D01*
X82833630Y-335676488D01*
X82786011Y-335581250D01*
X82738392Y-335533630D01*
X81928869Y-336533630D02*
X81881250Y-336581250D01*
X81833630Y-336676488D01*
X81833630Y-336914583D01*
X81881250Y-337009821D01*
X81928869Y-337057440D01*
X82024107Y-337105059D01*
X82119345Y-337105059D01*
X82262202Y-337057440D01*
X82833630Y-336486011D01*
X82833630Y-337105059D01*
X84483630Y-318152678D02*
X83483630Y-318152678D01*
X84483630Y-318581250D02*
X83959821Y-318581250D01*
X83864583Y-318533630D01*
X83816964Y-318438392D01*
X83816964Y-318295535D01*
X83864583Y-318200297D01*
X83912202Y-318152678D01*
X83816964Y-318914583D02*
X83816964Y-319295535D01*
X83483630Y-319057440D02*
X84340773Y-319057440D01*
X84436011Y-319105059D01*
X84483630Y-319200297D01*
X84483630Y-319295535D01*
X83816964Y-319486011D02*
X83816964Y-319866964D01*
X83483630Y-319628869D02*
X84340773Y-319628869D01*
X84436011Y-319676488D01*
X84483630Y-319771726D01*
X84483630Y-319866964D01*
X83816964Y-320200297D02*
X84816964Y-320200297D01*
X83864583Y-320200297D02*
X83816964Y-320295535D01*
X83816964Y-320486011D01*
X83864583Y-320581250D01*
X83912202Y-320628869D01*
X84007440Y-320676488D01*
X84293154Y-320676488D01*
X84388392Y-320628869D01*
X84436011Y-320581250D01*
X84483630Y-320486011D01*
X84483630Y-320295535D01*
X84436011Y-320200297D01*
X84436011Y-321057440D02*
X84483630Y-321152678D01*
X84483630Y-321343154D01*
X84436011Y-321438392D01*
X84340773Y-321486011D01*
X84293154Y-321486011D01*
X84197916Y-321438392D01*
X84150297Y-321343154D01*
X84150297Y-321200297D01*
X84102678Y-321105059D01*
X84007440Y-321057440D01*
X83959821Y-321057440D01*
X83864583Y-321105059D01*
X83816964Y-321200297D01*
X83816964Y-321343154D01*
X83864583Y-321438392D01*
X84388392Y-321914583D02*
X84436011Y-321962202D01*
X84483630Y-321914583D01*
X84436011Y-321866964D01*
X84388392Y-321914583D01*
X84483630Y-321914583D01*
X83864583Y-321914583D02*
X83912202Y-321962202D01*
X83959821Y-321914583D01*
X83912202Y-321866964D01*
X83864583Y-321914583D01*
X83959821Y-321914583D01*
X83436011Y-323105059D02*
X84721726Y-322247916D01*
X83436011Y-324152678D02*
X84721726Y-323295535D01*
X83816964Y-324914583D02*
X84626488Y-324914583D01*
X84721726Y-324866964D01*
X84769345Y-324819345D01*
X84816964Y-324724107D01*
X84816964Y-324581250D01*
X84769345Y-324486011D01*
X84436011Y-324914583D02*
X84483630Y-324819345D01*
X84483630Y-324628869D01*
X84436011Y-324533630D01*
X84388392Y-324486011D01*
X84293154Y-324438392D01*
X84007440Y-324438392D01*
X83912202Y-324486011D01*
X83864583Y-324533630D01*
X83816964Y-324628869D01*
X83816964Y-324819345D01*
X83864583Y-324914583D01*
X84483630Y-325390773D02*
X83816964Y-325390773D01*
X83483630Y-325390773D02*
X83531250Y-325343154D01*
X83578869Y-325390773D01*
X83531250Y-325438392D01*
X83483630Y-325390773D01*
X83578869Y-325390773D01*
X83816964Y-325724107D02*
X83816964Y-326105059D01*
X83483630Y-325866964D02*
X84340773Y-325866964D01*
X84436011Y-325914583D01*
X84483630Y-326009821D01*
X84483630Y-326105059D01*
X84483630Y-326438392D02*
X83483630Y-326438392D01*
X84483630Y-326866964D02*
X83959821Y-326866964D01*
X83864583Y-326819345D01*
X83816964Y-326724107D01*
X83816964Y-326581250D01*
X83864583Y-326486011D01*
X83912202Y-326438392D01*
X83816964Y-327771726D02*
X84483630Y-327771726D01*
X83816964Y-327343154D02*
X84340773Y-327343154D01*
X84436011Y-327390773D01*
X84483630Y-327486011D01*
X84483630Y-327628869D01*
X84436011Y-327724107D01*
X84388392Y-327771726D01*
X84483630Y-328247916D02*
X83483630Y-328247916D01*
X83864583Y-328247916D02*
X83816964Y-328343154D01*
X83816964Y-328533630D01*
X83864583Y-328628869D01*
X83912202Y-328676488D01*
X84007440Y-328724107D01*
X84293154Y-328724107D01*
X84388392Y-328676488D01*
X84436011Y-328628869D01*
X84483630Y-328533630D01*
X84483630Y-328343154D01*
X84436011Y-328247916D01*
X84388392Y-329152678D02*
X84436011Y-329200297D01*
X84483630Y-329152678D01*
X84436011Y-329105059D01*
X84388392Y-329152678D01*
X84483630Y-329152678D01*
X84436011Y-330057440D02*
X84483630Y-329962202D01*
X84483630Y-329771726D01*
X84436011Y-329676488D01*
X84388392Y-329628869D01*
X84293154Y-329581250D01*
X84007440Y-329581250D01*
X83912202Y-329628869D01*
X83864583Y-329676488D01*
X83816964Y-329771726D01*
X83816964Y-329962202D01*
X83864583Y-330057440D01*
X84483630Y-330628869D02*
X84436011Y-330533630D01*
X84388392Y-330486011D01*
X84293154Y-330438392D01*
X84007440Y-330438392D01*
X83912202Y-330486011D01*
X83864583Y-330533630D01*
X83816964Y-330628869D01*
X83816964Y-330771726D01*
X83864583Y-330866964D01*
X83912202Y-330914583D01*
X84007440Y-330962202D01*
X84293154Y-330962202D01*
X84388392Y-330914583D01*
X84436011Y-330866964D01*
X84483630Y-330771726D01*
X84483630Y-330628869D01*
X84483630Y-331390773D02*
X83816964Y-331390773D01*
X83912202Y-331390773D02*
X83864583Y-331438392D01*
X83816964Y-331533630D01*
X83816964Y-331676488D01*
X83864583Y-331771726D01*
X83959821Y-331819345D01*
X84483630Y-331819345D01*
X83959821Y-331819345D02*
X83864583Y-331866964D01*
X83816964Y-331962202D01*
X83816964Y-332105059D01*
X83864583Y-332200297D01*
X83959821Y-332247916D01*
X84483630Y-332247916D01*
X83436011Y-333438392D02*
X84721726Y-332581250D01*
X83531250Y-334295535D02*
X83483630Y-334200297D01*
X83483630Y-334057440D01*
X83531250Y-333914583D01*
X83626488Y-333819345D01*
X83721726Y-333771726D01*
X83912202Y-333724107D01*
X84055059Y-333724107D01*
X84245535Y-333771726D01*
X84340773Y-333819345D01*
X84436011Y-333914583D01*
X84483630Y-334057440D01*
X84483630Y-334152678D01*
X84436011Y-334295535D01*
X84388392Y-334343154D01*
X84055059Y-334343154D01*
X84055059Y-334152678D01*
X84483630Y-335200297D02*
X83959821Y-335200297D01*
X83864583Y-335152678D01*
X83816964Y-335057440D01*
X83816964Y-334866964D01*
X83864583Y-334771726D01*
X84436011Y-335200297D02*
X84483630Y-335105059D01*
X84483630Y-334866964D01*
X84436011Y-334771726D01*
X84340773Y-334724107D01*
X84245535Y-334724107D01*
X84150297Y-334771726D01*
X84102678Y-334866964D01*
X84102678Y-335105059D01*
X84055059Y-335200297D01*
X84483630Y-335819345D02*
X84436011Y-335724107D01*
X84340773Y-335676488D01*
X83483630Y-335676488D01*
X83816964Y-336105059D02*
X83816964Y-336628869D01*
X84483630Y-336105059D01*
X84483630Y-336628869D01*
X84483630Y-337438392D02*
X83959821Y-337438392D01*
X83864583Y-337390773D01*
X83816964Y-337295535D01*
X83816964Y-337105059D01*
X83864583Y-337009821D01*
X84436011Y-337438392D02*
X84483630Y-337343154D01*
X84483630Y-337105059D01*
X84436011Y-337009821D01*
X84340773Y-336962202D01*
X84245535Y-336962202D01*
X84150297Y-337009821D01*
X84102678Y-337105059D01*
X84102678Y-337343154D01*
X84055059Y-337438392D01*
X84483630Y-337914583D02*
X83816964Y-337914583D01*
X83483630Y-337914583D02*
X83531250Y-337866964D01*
X83578869Y-337914583D01*
X83531250Y-337962202D01*
X83483630Y-337914583D01*
X83578869Y-337914583D01*
X83436011Y-339105059D02*
X84721726Y-338247916D01*
X84483630Y-339438392D02*
X83483630Y-339438392D01*
X84197916Y-339771726D01*
X83483630Y-340105059D01*
X84483630Y-340105059D01*
X84483630Y-340581250D02*
X83483630Y-340581250D01*
X84483630Y-341152678D02*
X83912202Y-340724107D01*
X83483630Y-341152678D02*
X84055059Y-340581250D01*
X83483630Y-341486011D02*
X83483630Y-342105059D01*
X83864583Y-341771726D01*
X83864583Y-341914583D01*
X83912202Y-342009821D01*
X83959821Y-342057440D01*
X84055059Y-342105059D01*
X84293154Y-342105059D01*
X84388392Y-342057440D01*
X84436011Y-342009821D01*
X84483630Y-341914583D01*
X84483630Y-341628869D01*
X84436011Y-341533630D01*
X84388392Y-341486011D01*
X83578869Y-342486011D02*
X83531250Y-342533630D01*
X83483630Y-342628869D01*
X83483630Y-342866964D01*
X83531250Y-342962202D01*
X83578869Y-343009821D01*
X83674107Y-343057440D01*
X83769345Y-343057440D01*
X83912202Y-343009821D01*
X84483630Y-342438392D01*
X84483630Y-343057440D01*
D11*
%TO.C,D58*%
X318162500Y-208662500D02*
X320562500Y-208662500D01*
X320562500Y-208387500D02*
X318162500Y-208387500D01*
X320562500Y-208512500D02*
X318162500Y-208512500D01*
X320562500Y-208787500D02*
X320562500Y-202787500D01*
X320562500Y-202787500D02*
X318162500Y-202787500D01*
X318162500Y-202787500D02*
X318162500Y-208787500D01*
X318162500Y-208787500D02*
X320562500Y-208787500D01*
D10*
%TO.C,K32*%
X226874500Y-182309500D02*
X226874500Y-182690500D01*
X238304500Y-179769500D02*
X238304500Y-180785500D01*
X238304500Y-180785500D02*
X233224500Y-180785500D01*
X230760338Y-182690500D02*
X229033500Y-182690500D01*
X227255500Y-182690500D02*
X226874500Y-182690500D01*
X226874500Y-178880500D02*
X226874500Y-179261500D01*
X229414500Y-176340500D02*
X238304500Y-176340500D01*
X238304500Y-176340500D02*
X238304500Y-176721500D01*
X230760338Y-182709460D02*
G75*
G02*
X233224500Y-180785500I2464162J-616040D01*
G01*
X226874500Y-178880500D02*
G75*
G02*
X229414500Y-176340500I2540000J0D01*
G01*
%TO.C,K33*%
X226874500Y-201359500D02*
X226874500Y-201740500D01*
X238304500Y-198819500D02*
X238304500Y-199835500D01*
X238304500Y-199835500D02*
X233224500Y-199835500D01*
X230760338Y-201740500D02*
X229033500Y-201740500D01*
X227255500Y-201740500D02*
X226874500Y-201740500D01*
X226874500Y-197930500D02*
X226874500Y-198311500D01*
X229414500Y-195390500D02*
X238304500Y-195390500D01*
X238304500Y-195390500D02*
X238304500Y-195771500D01*
X230760338Y-201759460D02*
G75*
G02*
X233224500Y-199835500I2464162J-616040D01*
G01*
X226874500Y-197930500D02*
G75*
G02*
X229414500Y-195390500I2540000J0D01*
G01*
%TO.C,K42*%
X264974500Y-182309500D02*
X264974500Y-182690500D01*
X276404500Y-179769500D02*
X276404500Y-180785500D01*
X276404500Y-180785500D02*
X271324500Y-180785500D01*
X268860338Y-182690500D02*
X267133500Y-182690500D01*
X265355500Y-182690500D02*
X264974500Y-182690500D01*
X264974500Y-178880500D02*
X264974500Y-179261500D01*
X267514500Y-176340500D02*
X276404500Y-176340500D01*
X276404500Y-176340500D02*
X276404500Y-176721500D01*
X268860338Y-182709460D02*
G75*
G02*
X271324500Y-180785500I2464162J-616040D01*
G01*
X264974500Y-178880500D02*
G75*
G02*
X267514500Y-176340500I2540000J0D01*
G01*
%TO.C,K31*%
X226874500Y-163259500D02*
X226874500Y-163640500D01*
X238304500Y-160719500D02*
X238304500Y-161735500D01*
X238304500Y-161735500D02*
X233224500Y-161735500D01*
X230760338Y-163640500D02*
X229033500Y-163640500D01*
X227255500Y-163640500D02*
X226874500Y-163640500D01*
X226874500Y-159830500D02*
X226874500Y-160211500D01*
X229414500Y-157290500D02*
X238304500Y-157290500D01*
X238304500Y-157290500D02*
X238304500Y-157671500D01*
X230760338Y-163659460D02*
G75*
G02*
X233224500Y-161735500I2464162J-616040D01*
G01*
X226874500Y-159830500D02*
G75*
G02*
X229414500Y-157290500I2540000J0D01*
G01*
%TO.C,K24*%
X188774500Y-220409500D02*
X188774500Y-220790500D01*
X200204500Y-217869500D02*
X200204500Y-218885500D01*
X200204500Y-218885500D02*
X195124500Y-218885500D01*
X192660338Y-220790500D02*
X190933500Y-220790500D01*
X189155500Y-220790500D02*
X188774500Y-220790500D01*
X188774500Y-216980500D02*
X188774500Y-217361500D01*
X191314500Y-214440500D02*
X200204500Y-214440500D01*
X200204500Y-214440500D02*
X200204500Y-214821500D01*
X192660338Y-220809460D02*
G75*
G02*
X195124500Y-218885500I2464162J-616040D01*
G01*
X188774500Y-216980500D02*
G75*
G02*
X191314500Y-214440500I2540000J0D01*
G01*
%TO.C,K41*%
X264974500Y-163259500D02*
X264974500Y-163640500D01*
X276404500Y-160719500D02*
X276404500Y-161735500D01*
X276404500Y-161735500D02*
X271324500Y-161735500D01*
X268860338Y-163640500D02*
X267133500Y-163640500D01*
X265355500Y-163640500D02*
X264974500Y-163640500D01*
X264974500Y-159830500D02*
X264974500Y-160211500D01*
X267514500Y-157290500D02*
X276404500Y-157290500D01*
X276404500Y-157290500D02*
X276404500Y-157671500D01*
X268860338Y-163659460D02*
G75*
G02*
X271324500Y-161735500I2464162J-616040D01*
G01*
X264974500Y-159830500D02*
G75*
G02*
X267514500Y-157290500I2540000J0D01*
G01*
%TO.C,K34*%
X226874500Y-220409500D02*
X226874500Y-220790500D01*
X238304500Y-217869500D02*
X238304500Y-218885500D01*
X238304500Y-218885500D02*
X233224500Y-218885500D01*
X230760338Y-220790500D02*
X229033500Y-220790500D01*
X227255500Y-220790500D02*
X226874500Y-220790500D01*
X226874500Y-216980500D02*
X226874500Y-217361500D01*
X229414500Y-214440500D02*
X238304500Y-214440500D01*
X238304500Y-214440500D02*
X238304500Y-214821500D01*
X230760338Y-220809460D02*
G75*
G02*
X233224500Y-218885500I2464162J-616040D01*
G01*
X226874500Y-216980500D02*
G75*
G02*
X229414500Y-214440500I2540000J0D01*
G01*
%TO.C,K23*%
X188774500Y-201359500D02*
X188774500Y-201740500D01*
X200204500Y-198819500D02*
X200204500Y-199835500D01*
X200204500Y-199835500D02*
X195124500Y-199835500D01*
X192660338Y-201740500D02*
X190933500Y-201740500D01*
X189155500Y-201740500D02*
X188774500Y-201740500D01*
X188774500Y-197930500D02*
X188774500Y-198311500D01*
X191314500Y-195390500D02*
X200204500Y-195390500D01*
X200204500Y-195390500D02*
X200204500Y-195771500D01*
X192660338Y-201759460D02*
G75*
G02*
X195124500Y-199835500I2464162J-616040D01*
G01*
X188774500Y-197930500D02*
G75*
G02*
X191314500Y-195390500I2540000J0D01*
G01*
D11*
%TO.C,D59*%
X318162500Y-227662500D02*
X320562500Y-227662500D01*
X320562500Y-227387500D02*
X318162500Y-227387500D01*
X320562500Y-227512500D02*
X318162500Y-227512500D01*
X320562500Y-227787500D02*
X320562500Y-221787500D01*
X320562500Y-221787500D02*
X318162500Y-221787500D01*
X318162500Y-221787500D02*
X318162500Y-227787500D01*
X318162500Y-227787500D02*
X320562500Y-227787500D01*
%TO.C,D54*%
X299162500Y-227662500D02*
X301562500Y-227662500D01*
X301562500Y-227387500D02*
X299162500Y-227387500D01*
X301562500Y-227512500D02*
X299162500Y-227512500D01*
X301562500Y-227787500D02*
X301562500Y-221787500D01*
X301562500Y-221787500D02*
X299162500Y-221787500D01*
X299162500Y-221787500D02*
X299162500Y-227787500D01*
X299162500Y-227787500D02*
X301562500Y-227787500D01*
%TO.C,D15*%
X146662500Y-246662500D02*
X149062500Y-246662500D01*
X149062500Y-246387500D02*
X146662500Y-246387500D01*
X149062500Y-246512500D02*
X146662500Y-246512500D01*
X149062500Y-246787500D02*
X149062500Y-240787500D01*
X149062500Y-240787500D02*
X146662500Y-240787500D01*
X146662500Y-240787500D02*
X146662500Y-246787500D01*
X146662500Y-246787500D02*
X149062500Y-246787500D01*
%TO.C,D4*%
X108662500Y-227662500D02*
X111062500Y-227662500D01*
X111062500Y-227387500D02*
X108662500Y-227387500D01*
X111062500Y-227512500D02*
X108662500Y-227512500D01*
X111062500Y-227787500D02*
X111062500Y-221787500D01*
X111062500Y-221787500D02*
X108662500Y-221787500D01*
X108662500Y-221787500D02*
X108662500Y-227787500D01*
X108662500Y-227787500D02*
X111062500Y-227787500D01*
%TO.C,D50*%
X280162500Y-246662500D02*
X282562500Y-246662500D01*
X282562500Y-246387500D02*
X280162500Y-246387500D01*
X282562500Y-246512500D02*
X280162500Y-246512500D01*
X282562500Y-246787500D02*
X282562500Y-240787500D01*
X282562500Y-240787500D02*
X280162500Y-240787500D01*
X280162500Y-240787500D02*
X280162500Y-246787500D01*
X280162500Y-246787500D02*
X282562500Y-246787500D01*
%TO.C,D11*%
X146662500Y-170662500D02*
X149062500Y-170662500D01*
X149062500Y-170387500D02*
X146662500Y-170387500D01*
X149062500Y-170512500D02*
X146662500Y-170512500D01*
X149062500Y-170787500D02*
X149062500Y-164787500D01*
X149062500Y-164787500D02*
X146662500Y-164787500D01*
X146662500Y-164787500D02*
X146662500Y-170787500D01*
X146662500Y-170787500D02*
X149062500Y-170787500D01*
D10*
%TO.C,K19*%
X169724500Y-220409500D02*
X169724500Y-220790500D01*
X181154500Y-217869500D02*
X181154500Y-218885500D01*
X181154500Y-218885500D02*
X176074500Y-218885500D01*
X173610338Y-220790500D02*
X171883500Y-220790500D01*
X170105500Y-220790500D02*
X169724500Y-220790500D01*
X169724500Y-216980500D02*
X169724500Y-217361500D01*
X172264500Y-214440500D02*
X181154500Y-214440500D01*
X181154500Y-214440500D02*
X181154500Y-214821500D01*
X173610338Y-220809460D02*
G75*
G02*
X176074500Y-218885500I2464162J-616040D01*
G01*
X169724500Y-216980500D02*
G75*
G02*
X172264500Y-214440500I2540000J0D01*
G01*
D11*
%TO.C,D57*%
X318162500Y-189662500D02*
X320562500Y-189662500D01*
X320562500Y-189387500D02*
X318162500Y-189387500D01*
X320562500Y-189512500D02*
X318162500Y-189512500D01*
X320562500Y-189787500D02*
X320562500Y-183787500D01*
X320562500Y-183787500D02*
X318162500Y-183787500D01*
X318162500Y-183787500D02*
X318162500Y-189787500D01*
X318162500Y-189787500D02*
X320562500Y-189787500D01*
D10*
%TO.C,K22*%
X188774500Y-182309500D02*
X188774500Y-182690500D01*
X200204500Y-179769500D02*
X200204500Y-180785500D01*
X200204500Y-180785500D02*
X195124500Y-180785500D01*
X192660338Y-182690500D02*
X190933500Y-182690500D01*
X189155500Y-182690500D02*
X188774500Y-182690500D01*
X188774500Y-178880500D02*
X188774500Y-179261500D01*
X191314500Y-176340500D02*
X200204500Y-176340500D01*
X200204500Y-176340500D02*
X200204500Y-176721500D01*
X192660338Y-182709460D02*
G75*
G02*
X195124500Y-180785500I2464162J-616040D01*
G01*
X188774500Y-178880500D02*
G75*
G02*
X191314500Y-176340500I2540000J0D01*
G01*
D11*
%TO.C,D10*%
X127662500Y-246662500D02*
X130062500Y-246662500D01*
X130062500Y-246387500D02*
X127662500Y-246387500D01*
X130062500Y-246512500D02*
X127662500Y-246512500D01*
X130062500Y-246787500D02*
X130062500Y-240787500D01*
X130062500Y-240787500D02*
X127662500Y-240787500D01*
X127662500Y-240787500D02*
X127662500Y-246787500D01*
X127662500Y-246787500D02*
X130062500Y-246787500D01*
D10*
%TO.C,K45*%
X264974500Y-239459500D02*
X264974500Y-239840500D01*
X276404500Y-236919500D02*
X276404500Y-237935500D01*
X276404500Y-237935500D02*
X271324500Y-237935500D01*
X268860338Y-239840500D02*
X267133500Y-239840500D01*
X265355500Y-239840500D02*
X264974500Y-239840500D01*
X264974500Y-236030500D02*
X264974500Y-236411500D01*
X267514500Y-233490500D02*
X276404500Y-233490500D01*
X276404500Y-233490500D02*
X276404500Y-233871500D01*
X268860338Y-239859460D02*
G75*
G02*
X271324500Y-237935500I2464162J-616040D01*
G01*
X264974500Y-236030500D02*
G75*
G02*
X267514500Y-233490500I2540000J0D01*
G01*
%TO.C,K20*%
X169724500Y-239459500D02*
X169724500Y-239840500D01*
X181154500Y-236919500D02*
X181154500Y-237935500D01*
X181154500Y-237935500D02*
X176074500Y-237935500D01*
X173610338Y-239840500D02*
X171883500Y-239840500D01*
X170105500Y-239840500D02*
X169724500Y-239840500D01*
X169724500Y-236030500D02*
X169724500Y-236411500D01*
X172264500Y-233490500D02*
X181154500Y-233490500D01*
X181154500Y-233490500D02*
X181154500Y-233871500D01*
X173610338Y-239859460D02*
G75*
G02*
X176074500Y-237935500I2464162J-616040D01*
G01*
X169724500Y-236030500D02*
G75*
G02*
X172264500Y-233490500I2540000J0D01*
G01*
D11*
%TO.C,D1*%
X108662500Y-170662500D02*
X111062500Y-170662500D01*
X111062500Y-170387500D02*
X108662500Y-170387500D01*
X111062500Y-170512500D02*
X108662500Y-170512500D01*
X111062500Y-170787500D02*
X111062500Y-164787500D01*
X111062500Y-164787500D02*
X108662500Y-164787500D01*
X108662500Y-164787500D02*
X108662500Y-170787500D01*
X108662500Y-170787500D02*
X111062500Y-170787500D01*
D10*
%TO.C,K30*%
X207824500Y-239459500D02*
X207824500Y-239840500D01*
X219254500Y-236919500D02*
X219254500Y-237935500D01*
X219254500Y-237935500D02*
X214174500Y-237935500D01*
X211710338Y-239840500D02*
X209983500Y-239840500D01*
X208205500Y-239840500D02*
X207824500Y-239840500D01*
X207824500Y-236030500D02*
X207824500Y-236411500D01*
X210364500Y-233490500D02*
X219254500Y-233490500D01*
X219254500Y-233490500D02*
X219254500Y-233871500D01*
X211710338Y-239859460D02*
G75*
G02*
X214174500Y-237935500I2464162J-616040D01*
G01*
X207824500Y-236030500D02*
G75*
G02*
X210364500Y-233490500I2540000J0D01*
G01*
%TO.C,K28*%
X207824500Y-201359500D02*
X207824500Y-201740500D01*
X219254500Y-198819500D02*
X219254500Y-199835500D01*
X219254500Y-199835500D02*
X214174500Y-199835500D01*
X211710338Y-201740500D02*
X209983500Y-201740500D01*
X208205500Y-201740500D02*
X207824500Y-201740500D01*
X207824500Y-197930500D02*
X207824500Y-198311500D01*
X210364500Y-195390500D02*
X219254500Y-195390500D01*
X219254500Y-195390500D02*
X219254500Y-195771500D01*
X211710338Y-201759460D02*
G75*
G02*
X214174500Y-199835500I2464162J-616040D01*
G01*
X207824500Y-197930500D02*
G75*
G02*
X210364500Y-195390500I2540000J0D01*
G01*
%TO.C,K25*%
X188774500Y-239459500D02*
X188774500Y-239840500D01*
X200204500Y-236919500D02*
X200204500Y-237935500D01*
X200204500Y-237935500D02*
X195124500Y-237935500D01*
X192660338Y-239840500D02*
X190933500Y-239840500D01*
X189155500Y-239840500D02*
X188774500Y-239840500D01*
X188774500Y-236030500D02*
X188774500Y-236411500D01*
X191314500Y-233490500D02*
X200204500Y-233490500D01*
X200204500Y-233490500D02*
X200204500Y-233871500D01*
X192660338Y-239859460D02*
G75*
G02*
X195124500Y-237935500I2464162J-616040D01*
G01*
X188774500Y-236030500D02*
G75*
G02*
X191314500Y-233490500I2540000J0D01*
G01*
D11*
%TO.C,D60*%
X318162500Y-246662500D02*
X320562500Y-246662500D01*
X320562500Y-246387500D02*
X318162500Y-246387500D01*
X320562500Y-246512500D02*
X318162500Y-246512500D01*
X320562500Y-246787500D02*
X320562500Y-240787500D01*
X320562500Y-240787500D02*
X318162500Y-240787500D01*
X318162500Y-240787500D02*
X318162500Y-246787500D01*
X318162500Y-246787500D02*
X320562500Y-246787500D01*
D10*
%TO.C,K51*%
X303074500Y-163259500D02*
X303074500Y-163640500D01*
X314504500Y-160719500D02*
X314504500Y-161735500D01*
X314504500Y-161735500D02*
X309424500Y-161735500D01*
X306960338Y-163640500D02*
X305233500Y-163640500D01*
X303455500Y-163640500D02*
X303074500Y-163640500D01*
X303074500Y-159830500D02*
X303074500Y-160211500D01*
X305614500Y-157290500D02*
X314504500Y-157290500D01*
X314504500Y-157290500D02*
X314504500Y-157671500D01*
X306960338Y-163659460D02*
G75*
G02*
X309424500Y-161735500I2464162J-616040D01*
G01*
X303074500Y-159830500D02*
G75*
G02*
X305614500Y-157290500I2540000J0D01*
G01*
%TO.C,K10*%
X131624500Y-239459500D02*
X131624500Y-239840500D01*
X143054500Y-236919500D02*
X143054500Y-237935500D01*
X143054500Y-237935500D02*
X137974500Y-237935500D01*
X135510338Y-239840500D02*
X133783500Y-239840500D01*
X132005500Y-239840500D02*
X131624500Y-239840500D01*
X131624500Y-236030500D02*
X131624500Y-236411500D01*
X134164500Y-233490500D02*
X143054500Y-233490500D01*
X143054500Y-233490500D02*
X143054500Y-233871500D01*
X135510338Y-239859460D02*
G75*
G02*
X137974500Y-237935500I2464162J-616040D01*
G01*
X131624500Y-236030500D02*
G75*
G02*
X134164500Y-233490500I2540000J0D01*
G01*
%TO.C,K57*%
X322124500Y-182309500D02*
X322124500Y-182690500D01*
X333554500Y-179769500D02*
X333554500Y-180785500D01*
X333554500Y-180785500D02*
X328474500Y-180785500D01*
X326010338Y-182690500D02*
X324283500Y-182690500D01*
X322505500Y-182690500D02*
X322124500Y-182690500D01*
X322124500Y-178880500D02*
X322124500Y-179261500D01*
X324664500Y-176340500D02*
X333554500Y-176340500D01*
X333554500Y-176340500D02*
X333554500Y-176721500D01*
X326010338Y-182709460D02*
G75*
G02*
X328474500Y-180785500I2464162J-616040D01*
G01*
X322124500Y-178880500D02*
G75*
G02*
X324664500Y-176340500I2540000J0D01*
G01*
D11*
%TO.C,D9*%
X127662500Y-227662500D02*
X130062500Y-227662500D01*
X130062500Y-227387500D02*
X127662500Y-227387500D01*
X130062500Y-227512500D02*
X127662500Y-227512500D01*
X130062500Y-227787500D02*
X130062500Y-221787500D01*
X130062500Y-221787500D02*
X127662500Y-221787500D01*
X127662500Y-221787500D02*
X127662500Y-227787500D01*
X127662500Y-227787500D02*
X130062500Y-227787500D01*
D10*
%TO.C,K58*%
X322124500Y-201359500D02*
X322124500Y-201740500D01*
X333554500Y-198819500D02*
X333554500Y-199835500D01*
X333554500Y-199835500D02*
X328474500Y-199835500D01*
X326010338Y-201740500D02*
X324283500Y-201740500D01*
X322505500Y-201740500D02*
X322124500Y-201740500D01*
X322124500Y-197930500D02*
X322124500Y-198311500D01*
X324664500Y-195390500D02*
X333554500Y-195390500D01*
X333554500Y-195390500D02*
X333554500Y-195771500D01*
X326010338Y-201759460D02*
G75*
G02*
X328474500Y-199835500I2464162J-616040D01*
G01*
X322124500Y-197930500D02*
G75*
G02*
X324664500Y-195390500I2540000J0D01*
G01*
D11*
%TO.C,D28*%
X204162500Y-208662500D02*
X206562500Y-208662500D01*
X206562500Y-208387500D02*
X204162500Y-208387500D01*
X206562500Y-208512500D02*
X204162500Y-208512500D01*
X206562500Y-208787500D02*
X206562500Y-202787500D01*
X206562500Y-202787500D02*
X204162500Y-202787500D01*
X204162500Y-202787500D02*
X204162500Y-208787500D01*
X204162500Y-208787500D02*
X206562500Y-208787500D01*
%TO.C,D25*%
X185162500Y-246662500D02*
X187562500Y-246662500D01*
X187562500Y-246387500D02*
X185162500Y-246387500D01*
X187562500Y-246512500D02*
X185162500Y-246512500D01*
X187562500Y-246787500D02*
X187562500Y-240787500D01*
X187562500Y-240787500D02*
X185162500Y-240787500D01*
X185162500Y-240787500D02*
X185162500Y-246787500D01*
X185162500Y-246787500D02*
X187562500Y-246787500D01*
%TO.C,D20*%
X165662500Y-246662500D02*
X168062500Y-246662500D01*
X168062500Y-246387500D02*
X165662500Y-246387500D01*
X168062500Y-246512500D02*
X165662500Y-246512500D01*
X168062500Y-246787500D02*
X168062500Y-240787500D01*
X168062500Y-240787500D02*
X165662500Y-240787500D01*
X165662500Y-240787500D02*
X165662500Y-246787500D01*
X165662500Y-246787500D02*
X168062500Y-246787500D01*
%TO.C,D21*%
X185162500Y-170662500D02*
X187562500Y-170662500D01*
X187562500Y-170387500D02*
X185162500Y-170387500D01*
X187562500Y-170512500D02*
X185162500Y-170512500D01*
X187562500Y-170787500D02*
X187562500Y-164787500D01*
X187562500Y-164787500D02*
X185162500Y-164787500D01*
X185162500Y-164787500D02*
X185162500Y-170787500D01*
X185162500Y-170787500D02*
X187562500Y-170787500D01*
D10*
%TO.C,K56*%
X322124500Y-163259500D02*
X322124500Y-163640500D01*
X333554500Y-160719500D02*
X333554500Y-161735500D01*
X333554500Y-161735500D02*
X328474500Y-161735500D01*
X326010338Y-163640500D02*
X324283500Y-163640500D01*
X322505500Y-163640500D02*
X322124500Y-163640500D01*
X322124500Y-159830500D02*
X322124500Y-160211500D01*
X324664500Y-157290500D02*
X333554500Y-157290500D01*
X333554500Y-157290500D02*
X333554500Y-157671500D01*
X326010338Y-163659460D02*
G75*
G02*
X328474500Y-161735500I2464162J-616040D01*
G01*
X322124500Y-159830500D02*
G75*
G02*
X324664500Y-157290500I2540000J0D01*
G01*
D11*
%TO.C,D39*%
X242162500Y-227662500D02*
X244562500Y-227662500D01*
X244562500Y-227387500D02*
X242162500Y-227387500D01*
X244562500Y-227512500D02*
X242162500Y-227512500D01*
X244562500Y-227787500D02*
X244562500Y-221787500D01*
X244562500Y-221787500D02*
X242162500Y-221787500D01*
X242162500Y-221787500D02*
X242162500Y-227787500D01*
X242162500Y-227787500D02*
X244562500Y-227787500D01*
%TO.C,D45*%
X261162500Y-246662500D02*
X263562500Y-246662500D01*
X263562500Y-246387500D02*
X261162500Y-246387500D01*
X263562500Y-246512500D02*
X261162500Y-246512500D01*
X263562500Y-246787500D02*
X263562500Y-240787500D01*
X263562500Y-240787500D02*
X261162500Y-240787500D01*
X261162500Y-240787500D02*
X261162500Y-246787500D01*
X261162500Y-246787500D02*
X263562500Y-246787500D01*
D10*
%TO.C,K17*%
X169724500Y-182309500D02*
X169724500Y-182690500D01*
X181154500Y-179769500D02*
X181154500Y-180785500D01*
X181154500Y-180785500D02*
X176074500Y-180785500D01*
X173610338Y-182690500D02*
X171883500Y-182690500D01*
X170105500Y-182690500D02*
X169724500Y-182690500D01*
X169724500Y-178880500D02*
X169724500Y-179261500D01*
X172264500Y-176340500D02*
X181154500Y-176340500D01*
X181154500Y-176340500D02*
X181154500Y-176721500D01*
X173610338Y-182709460D02*
G75*
G02*
X176074500Y-180785500I2464162J-616040D01*
G01*
X169724500Y-178880500D02*
G75*
G02*
X172264500Y-176340500I2540000J0D01*
G01*
D11*
%TO.C,D6*%
X127662500Y-170662500D02*
X130062500Y-170662500D01*
X130062500Y-170387500D02*
X127662500Y-170387500D01*
X130062500Y-170512500D02*
X127662500Y-170512500D01*
X130062500Y-170787500D02*
X130062500Y-164787500D01*
X130062500Y-164787500D02*
X127662500Y-164787500D01*
X127662500Y-164787500D02*
X127662500Y-170787500D01*
X127662500Y-170787500D02*
X130062500Y-170787500D01*
D10*
%TO.C,K43*%
X264974500Y-201359500D02*
X264974500Y-201740500D01*
X276404500Y-198819500D02*
X276404500Y-199835500D01*
X276404500Y-199835500D02*
X271324500Y-199835500D01*
X268860338Y-201740500D02*
X267133500Y-201740500D01*
X265355500Y-201740500D02*
X264974500Y-201740500D01*
X264974500Y-197930500D02*
X264974500Y-198311500D01*
X267514500Y-195390500D02*
X276404500Y-195390500D01*
X276404500Y-195390500D02*
X276404500Y-195771500D01*
X268860338Y-201759460D02*
G75*
G02*
X271324500Y-199835500I2464162J-616040D01*
G01*
X264974500Y-197930500D02*
G75*
G02*
X267514500Y-195390500I2540000J0D01*
G01*
D11*
%TO.C,D36*%
X242162500Y-170662500D02*
X244562500Y-170662500D01*
X244562500Y-170387500D02*
X242162500Y-170387500D01*
X244562500Y-170512500D02*
X242162500Y-170512500D01*
X244562500Y-170787500D02*
X244562500Y-164787500D01*
X244562500Y-164787500D02*
X242162500Y-164787500D01*
X242162500Y-164787500D02*
X242162500Y-170787500D01*
X242162500Y-170787500D02*
X244562500Y-170787500D01*
D10*
%TO.C,K39*%
X245924500Y-220409500D02*
X245924500Y-220790500D01*
X257354500Y-217869500D02*
X257354500Y-218885500D01*
X257354500Y-218885500D02*
X252274500Y-218885500D01*
X249810338Y-220790500D02*
X248083500Y-220790500D01*
X246305500Y-220790500D02*
X245924500Y-220790500D01*
X245924500Y-216980500D02*
X245924500Y-217361500D01*
X248464500Y-214440500D02*
X257354500Y-214440500D01*
X257354500Y-214440500D02*
X257354500Y-214821500D01*
X249810338Y-220809460D02*
G75*
G02*
X252274500Y-218885500I2464162J-616040D01*
G01*
X245924500Y-216980500D02*
G75*
G02*
X248464500Y-214440500I2540000J0D01*
G01*
D11*
%TO.C,D33*%
X223162500Y-208662500D02*
X225562500Y-208662500D01*
X225562500Y-208387500D02*
X223162500Y-208387500D01*
X225562500Y-208512500D02*
X223162500Y-208512500D01*
X225562500Y-208787500D02*
X225562500Y-202787500D01*
X225562500Y-202787500D02*
X223162500Y-202787500D01*
X223162500Y-202787500D02*
X223162500Y-208787500D01*
X223162500Y-208787500D02*
X225562500Y-208787500D01*
D10*
%TO.C,K18*%
X169724500Y-201359500D02*
X169724500Y-201740500D01*
X181154500Y-198819500D02*
X181154500Y-199835500D01*
X181154500Y-199835500D02*
X176074500Y-199835500D01*
X173610338Y-201740500D02*
X171883500Y-201740500D01*
X170105500Y-201740500D02*
X169724500Y-201740500D01*
X169724500Y-197930500D02*
X169724500Y-198311500D01*
X172264500Y-195390500D02*
X181154500Y-195390500D01*
X181154500Y-195390500D02*
X181154500Y-195771500D01*
X173610338Y-201759460D02*
G75*
G02*
X176074500Y-199835500I2464162J-616040D01*
G01*
X169724500Y-197930500D02*
G75*
G02*
X172264500Y-195390500I2540000J0D01*
G01*
D11*
%TO.C,D53*%
X299162500Y-208662500D02*
X301562500Y-208662500D01*
X301562500Y-208387500D02*
X299162500Y-208387500D01*
X301562500Y-208512500D02*
X299162500Y-208512500D01*
X301562500Y-208787500D02*
X301562500Y-202787500D01*
X301562500Y-202787500D02*
X299162500Y-202787500D01*
X299162500Y-202787500D02*
X299162500Y-208787500D01*
X299162500Y-208787500D02*
X301562500Y-208787500D01*
D10*
%TO.C,K3*%
X112574500Y-201359500D02*
X112574500Y-201740500D01*
X124004500Y-198819500D02*
X124004500Y-199835500D01*
X124004500Y-199835500D02*
X118924500Y-199835500D01*
X116460338Y-201740500D02*
X114733500Y-201740500D01*
X112955500Y-201740500D02*
X112574500Y-201740500D01*
X112574500Y-197930500D02*
X112574500Y-198311500D01*
X115114500Y-195390500D02*
X124004500Y-195390500D01*
X124004500Y-195390500D02*
X124004500Y-195771500D01*
X116460338Y-201759460D02*
G75*
G02*
X118924500Y-199835500I2464162J-616040D01*
G01*
X112574500Y-197930500D02*
G75*
G02*
X115114500Y-195390500I2540000J0D01*
G01*
%TO.C,K48*%
X284024500Y-201359500D02*
X284024500Y-201740500D01*
X295454500Y-198819500D02*
X295454500Y-199835500D01*
X295454500Y-199835500D02*
X290374500Y-199835500D01*
X287910338Y-201740500D02*
X286183500Y-201740500D01*
X284405500Y-201740500D02*
X284024500Y-201740500D01*
X284024500Y-197930500D02*
X284024500Y-198311500D01*
X286564500Y-195390500D02*
X295454500Y-195390500D01*
X295454500Y-195390500D02*
X295454500Y-195771500D01*
X287910338Y-201759460D02*
G75*
G02*
X290374500Y-199835500I2464162J-616040D01*
G01*
X284024500Y-197930500D02*
G75*
G02*
X286564500Y-195390500I2540000J0D01*
G01*
%TO.C,K6*%
X131624500Y-163259500D02*
X131624500Y-163640500D01*
X143054500Y-160719500D02*
X143054500Y-161735500D01*
X143054500Y-161735500D02*
X137974500Y-161735500D01*
X135510338Y-163640500D02*
X133783500Y-163640500D01*
X132005500Y-163640500D02*
X131624500Y-163640500D01*
X131624500Y-159830500D02*
X131624500Y-160211500D01*
X134164500Y-157290500D02*
X143054500Y-157290500D01*
X143054500Y-157290500D02*
X143054500Y-157671500D01*
X135510338Y-163659460D02*
G75*
G02*
X137974500Y-161735500I2464162J-616040D01*
G01*
X131624500Y-159830500D02*
G75*
G02*
X134164500Y-157290500I2540000J0D01*
G01*
D11*
%TO.C,D22*%
X185162500Y-189662500D02*
X187562500Y-189662500D01*
X187562500Y-189387500D02*
X185162500Y-189387500D01*
X187562500Y-189512500D02*
X185162500Y-189512500D01*
X187562500Y-189787500D02*
X187562500Y-183787500D01*
X187562500Y-183787500D02*
X185162500Y-183787500D01*
X185162500Y-183787500D02*
X185162500Y-189787500D01*
X185162500Y-189787500D02*
X187562500Y-189787500D01*
%TO.C,D49*%
X280162500Y-227662500D02*
X282562500Y-227662500D01*
X282562500Y-227387500D02*
X280162500Y-227387500D01*
X282562500Y-227512500D02*
X280162500Y-227512500D01*
X282562500Y-227787500D02*
X282562500Y-221787500D01*
X282562500Y-221787500D02*
X280162500Y-221787500D01*
X280162500Y-221787500D02*
X280162500Y-227787500D01*
X280162500Y-227787500D02*
X282562500Y-227787500D01*
D10*
%TO.C,K7*%
X131624500Y-182309500D02*
X131624500Y-182690500D01*
X143054500Y-179769500D02*
X143054500Y-180785500D01*
X143054500Y-180785500D02*
X137974500Y-180785500D01*
X135510338Y-182690500D02*
X133783500Y-182690500D01*
X132005500Y-182690500D02*
X131624500Y-182690500D01*
X131624500Y-178880500D02*
X131624500Y-179261500D01*
X134164500Y-176340500D02*
X143054500Y-176340500D01*
X143054500Y-176340500D02*
X143054500Y-176721500D01*
X135510338Y-182709460D02*
G75*
G02*
X137974500Y-180785500I2464162J-616040D01*
G01*
X131624500Y-178880500D02*
G75*
G02*
X134164500Y-176340500I2540000J0D01*
G01*
%TO.C,K53*%
X303074500Y-201359500D02*
X303074500Y-201740500D01*
X314504500Y-198819500D02*
X314504500Y-199835500D01*
X314504500Y-199835500D02*
X309424500Y-199835500D01*
X306960338Y-201740500D02*
X305233500Y-201740500D01*
X303455500Y-201740500D02*
X303074500Y-201740500D01*
X303074500Y-197930500D02*
X303074500Y-198311500D01*
X305614500Y-195390500D02*
X314504500Y-195390500D01*
X314504500Y-195390500D02*
X314504500Y-195771500D01*
X306960338Y-201759460D02*
G75*
G02*
X309424500Y-199835500I2464162J-616040D01*
G01*
X303074500Y-197930500D02*
G75*
G02*
X305614500Y-195390500I2540000J0D01*
G01*
D11*
%TO.C,D40*%
X242162500Y-246662500D02*
X244562500Y-246662500D01*
X244562500Y-246387500D02*
X242162500Y-246387500D01*
X244562500Y-246512500D02*
X242162500Y-246512500D01*
X244562500Y-246787500D02*
X244562500Y-240787500D01*
X244562500Y-240787500D02*
X242162500Y-240787500D01*
X242162500Y-240787500D02*
X242162500Y-246787500D01*
X242162500Y-246787500D02*
X244562500Y-246787500D01*
%TO.C,D19*%
X165662500Y-227662500D02*
X168062500Y-227662500D01*
X168062500Y-227387500D02*
X165662500Y-227387500D01*
X168062500Y-227512500D02*
X165662500Y-227512500D01*
X168062500Y-227787500D02*
X168062500Y-221787500D01*
X168062500Y-221787500D02*
X165662500Y-221787500D01*
X165662500Y-221787500D02*
X165662500Y-227787500D01*
X165662500Y-227787500D02*
X168062500Y-227787500D01*
D10*
%TO.C,K16*%
X169724500Y-163259500D02*
X169724500Y-163640500D01*
X181154500Y-160719500D02*
X181154500Y-161735500D01*
X181154500Y-161735500D02*
X176074500Y-161735500D01*
X173610338Y-163640500D02*
X171883500Y-163640500D01*
X170105500Y-163640500D02*
X169724500Y-163640500D01*
X169724500Y-159830500D02*
X169724500Y-160211500D01*
X172264500Y-157290500D02*
X181154500Y-157290500D01*
X181154500Y-157290500D02*
X181154500Y-157671500D01*
X173610338Y-163659460D02*
G75*
G02*
X176074500Y-161735500I2464162J-616040D01*
G01*
X169724500Y-159830500D02*
G75*
G02*
X172264500Y-157290500I2540000J0D01*
G01*
D11*
%TO.C,D3*%
X108662500Y-208662500D02*
X111062500Y-208662500D01*
X111062500Y-208387500D02*
X108662500Y-208387500D01*
X111062500Y-208512500D02*
X108662500Y-208512500D01*
X111062500Y-208787500D02*
X111062500Y-202787500D01*
X111062500Y-202787500D02*
X108662500Y-202787500D01*
X108662500Y-202787500D02*
X108662500Y-208787500D01*
X108662500Y-208787500D02*
X111062500Y-208787500D01*
D10*
%TO.C,K54*%
X303074500Y-220409500D02*
X303074500Y-220790500D01*
X314504500Y-217869500D02*
X314504500Y-218885500D01*
X314504500Y-218885500D02*
X309424500Y-218885500D01*
X306960338Y-220790500D02*
X305233500Y-220790500D01*
X303455500Y-220790500D02*
X303074500Y-220790500D01*
X303074500Y-216980500D02*
X303074500Y-217361500D01*
X305614500Y-214440500D02*
X314504500Y-214440500D01*
X314504500Y-214440500D02*
X314504500Y-214821500D01*
X306960338Y-220809460D02*
G75*
G02*
X309424500Y-218885500I2464162J-616040D01*
G01*
X303074500Y-216980500D02*
G75*
G02*
X305614500Y-214440500I2540000J0D01*
G01*
%TO.C,K36*%
X245924500Y-163259500D02*
X245924500Y-163640500D01*
X257354500Y-160719500D02*
X257354500Y-161735500D01*
X257354500Y-161735500D02*
X252274500Y-161735500D01*
X249810338Y-163640500D02*
X248083500Y-163640500D01*
X246305500Y-163640500D02*
X245924500Y-163640500D01*
X245924500Y-159830500D02*
X245924500Y-160211500D01*
X248464500Y-157290500D02*
X257354500Y-157290500D01*
X257354500Y-157290500D02*
X257354500Y-157671500D01*
X249810338Y-163659460D02*
G75*
G02*
X252274500Y-161735500I2464162J-616040D01*
G01*
X245924500Y-159830500D02*
G75*
G02*
X248464500Y-157290500I2540000J0D01*
G01*
%TO.C,K27*%
X207824500Y-182309500D02*
X207824500Y-182690500D01*
X219254500Y-179769500D02*
X219254500Y-180785500D01*
X219254500Y-180785500D02*
X214174500Y-180785500D01*
X211710338Y-182690500D02*
X209983500Y-182690500D01*
X208205500Y-182690500D02*
X207824500Y-182690500D01*
X207824500Y-178880500D02*
X207824500Y-179261500D01*
X210364500Y-176340500D02*
X219254500Y-176340500D01*
X219254500Y-176340500D02*
X219254500Y-176721500D01*
X211710338Y-182709460D02*
G75*
G02*
X214174500Y-180785500I2464162J-616040D01*
G01*
X207824500Y-178880500D02*
G75*
G02*
X210364500Y-176340500I2540000J0D01*
G01*
%TO.C,K26*%
X207824500Y-163259500D02*
X207824500Y-163640500D01*
X219254500Y-160719500D02*
X219254500Y-161735500D01*
X219254500Y-161735500D02*
X214174500Y-161735500D01*
X211710338Y-163640500D02*
X209983500Y-163640500D01*
X208205500Y-163640500D02*
X207824500Y-163640500D01*
X207824500Y-159830500D02*
X207824500Y-160211500D01*
X210364500Y-157290500D02*
X219254500Y-157290500D01*
X219254500Y-157290500D02*
X219254500Y-157671500D01*
X211710338Y-163659460D02*
G75*
G02*
X214174500Y-161735500I2464162J-616040D01*
G01*
X207824500Y-159830500D02*
G75*
G02*
X210364500Y-157290500I2540000J0D01*
G01*
D11*
%TO.C,D5*%
X108662500Y-246662500D02*
X111062500Y-246662500D01*
X111062500Y-246387500D02*
X108662500Y-246387500D01*
X111062500Y-246512500D02*
X108662500Y-246512500D01*
X111062500Y-246787500D02*
X111062500Y-240787500D01*
X111062500Y-240787500D02*
X108662500Y-240787500D01*
X108662500Y-240787500D02*
X108662500Y-246787500D01*
X108662500Y-246787500D02*
X111062500Y-246787500D01*
D10*
%TO.C,K37*%
X245924500Y-182309500D02*
X245924500Y-182690500D01*
X257354500Y-179769500D02*
X257354500Y-180785500D01*
X257354500Y-180785500D02*
X252274500Y-180785500D01*
X249810338Y-182690500D02*
X248083500Y-182690500D01*
X246305500Y-182690500D02*
X245924500Y-182690500D01*
X245924500Y-178880500D02*
X245924500Y-179261500D01*
X248464500Y-176340500D02*
X257354500Y-176340500D01*
X257354500Y-176340500D02*
X257354500Y-176721500D01*
X249810338Y-182709460D02*
G75*
G02*
X252274500Y-180785500I2464162J-616040D01*
G01*
X245924500Y-178880500D02*
G75*
G02*
X248464500Y-176340500I2540000J0D01*
G01*
%TO.C,K44*%
X264974500Y-220409500D02*
X264974500Y-220790500D01*
X276404500Y-217869500D02*
X276404500Y-218885500D01*
X276404500Y-218885500D02*
X271324500Y-218885500D01*
X268860338Y-220790500D02*
X267133500Y-220790500D01*
X265355500Y-220790500D02*
X264974500Y-220790500D01*
X264974500Y-216980500D02*
X264974500Y-217361500D01*
X267514500Y-214440500D02*
X276404500Y-214440500D01*
X276404500Y-214440500D02*
X276404500Y-214821500D01*
X268860338Y-220809460D02*
G75*
G02*
X271324500Y-218885500I2464162J-616040D01*
G01*
X264974500Y-216980500D02*
G75*
G02*
X267514500Y-214440500I2540000J0D01*
G01*
D11*
%TO.C,D35*%
X223162500Y-246662500D02*
X225562500Y-246662500D01*
X225562500Y-246387500D02*
X223162500Y-246387500D01*
X225562500Y-246512500D02*
X223162500Y-246512500D01*
X225562500Y-246787500D02*
X225562500Y-240787500D01*
X225562500Y-240787500D02*
X223162500Y-240787500D01*
X223162500Y-240787500D02*
X223162500Y-246787500D01*
X223162500Y-246787500D02*
X225562500Y-246787500D01*
%TO.C,D27*%
X204162500Y-189662500D02*
X206562500Y-189662500D01*
X206562500Y-189387500D02*
X204162500Y-189387500D01*
X206562500Y-189512500D02*
X204162500Y-189512500D01*
X206562500Y-189787500D02*
X206562500Y-183787500D01*
X206562500Y-183787500D02*
X204162500Y-183787500D01*
X204162500Y-183787500D02*
X204162500Y-189787500D01*
X204162500Y-189787500D02*
X206562500Y-189787500D01*
%TO.C,D44*%
X261162500Y-227662500D02*
X263562500Y-227662500D01*
X263562500Y-227387500D02*
X261162500Y-227387500D01*
X263562500Y-227512500D02*
X261162500Y-227512500D01*
X263562500Y-227787500D02*
X263562500Y-221787500D01*
X263562500Y-221787500D02*
X261162500Y-221787500D01*
X261162500Y-221787500D02*
X261162500Y-227787500D01*
X261162500Y-227787500D02*
X263562500Y-227787500D01*
%TO.C,D47*%
X280162500Y-189662500D02*
X282562500Y-189662500D01*
X282562500Y-189387500D02*
X280162500Y-189387500D01*
X282562500Y-189512500D02*
X280162500Y-189512500D01*
X282562500Y-189787500D02*
X282562500Y-183787500D01*
X282562500Y-183787500D02*
X280162500Y-183787500D01*
X280162500Y-183787500D02*
X280162500Y-189787500D01*
X280162500Y-189787500D02*
X282562500Y-189787500D01*
%TO.C,D2*%
X108662500Y-189662500D02*
X111062500Y-189662500D01*
X111062500Y-189387500D02*
X108662500Y-189387500D01*
X111062500Y-189512500D02*
X108662500Y-189512500D01*
X111062500Y-189787500D02*
X111062500Y-183787500D01*
X111062500Y-183787500D02*
X108662500Y-183787500D01*
X108662500Y-183787500D02*
X108662500Y-189787500D01*
X108662500Y-189787500D02*
X111062500Y-189787500D01*
%TO.C,D26*%
X204162500Y-170662500D02*
X206562500Y-170662500D01*
X206562500Y-170387500D02*
X204162500Y-170387500D01*
X206562500Y-170512500D02*
X204162500Y-170512500D01*
X206562500Y-170787500D02*
X206562500Y-164787500D01*
X206562500Y-164787500D02*
X204162500Y-164787500D01*
X204162500Y-164787500D02*
X204162500Y-170787500D01*
X204162500Y-170787500D02*
X206562500Y-170787500D01*
%TO.C,D30*%
X204162500Y-246662500D02*
X206562500Y-246662500D01*
X206562500Y-246387500D02*
X204162500Y-246387500D01*
X206562500Y-246512500D02*
X204162500Y-246512500D01*
X206562500Y-246787500D02*
X206562500Y-240787500D01*
X206562500Y-240787500D02*
X204162500Y-240787500D01*
X204162500Y-240787500D02*
X204162500Y-246787500D01*
X204162500Y-246787500D02*
X206562500Y-246787500D01*
%TO.C,D31*%
X223162500Y-170662500D02*
X225562500Y-170662500D01*
X225562500Y-170387500D02*
X223162500Y-170387500D01*
X225562500Y-170512500D02*
X223162500Y-170512500D01*
X225562500Y-170787500D02*
X225562500Y-164787500D01*
X225562500Y-164787500D02*
X223162500Y-164787500D01*
X223162500Y-164787500D02*
X223162500Y-170787500D01*
X223162500Y-170787500D02*
X225562500Y-170787500D01*
%TO.C,D51*%
X299162500Y-170662500D02*
X301562500Y-170662500D01*
X301562500Y-170387500D02*
X299162500Y-170387500D01*
X301562500Y-170512500D02*
X299162500Y-170512500D01*
X301562500Y-170787500D02*
X301562500Y-164787500D01*
X301562500Y-164787500D02*
X299162500Y-164787500D01*
X299162500Y-164787500D02*
X299162500Y-170787500D01*
X299162500Y-170787500D02*
X301562500Y-170787500D01*
D10*
%TO.C,K59*%
X322124500Y-220409500D02*
X322124500Y-220790500D01*
X333554500Y-217869500D02*
X333554500Y-218885500D01*
X333554500Y-218885500D02*
X328474500Y-218885500D01*
X326010338Y-220790500D02*
X324283500Y-220790500D01*
X322505500Y-220790500D02*
X322124500Y-220790500D01*
X322124500Y-216980500D02*
X322124500Y-217361500D01*
X324664500Y-214440500D02*
X333554500Y-214440500D01*
X333554500Y-214440500D02*
X333554500Y-214821500D01*
X326010338Y-220809460D02*
G75*
G02*
X328474500Y-218885500I2464162J-616040D01*
G01*
X322124500Y-216980500D02*
G75*
G02*
X324664500Y-214440500I2540000J0D01*
G01*
D11*
%TO.C,D8*%
X127662500Y-208662500D02*
X130062500Y-208662500D01*
X130062500Y-208387500D02*
X127662500Y-208387500D01*
X130062500Y-208512500D02*
X127662500Y-208512500D01*
X130062500Y-208787500D02*
X130062500Y-202787500D01*
X130062500Y-202787500D02*
X127662500Y-202787500D01*
X127662500Y-202787500D02*
X127662500Y-208787500D01*
X127662500Y-208787500D02*
X130062500Y-208787500D01*
D10*
%TO.C,K11*%
X150674500Y-163259500D02*
X150674500Y-163640500D01*
X162104500Y-160719500D02*
X162104500Y-161735500D01*
X162104500Y-161735500D02*
X157024500Y-161735500D01*
X154560338Y-163640500D02*
X152833500Y-163640500D01*
X151055500Y-163640500D02*
X150674500Y-163640500D01*
X150674500Y-159830500D02*
X150674500Y-160211500D01*
X153214500Y-157290500D02*
X162104500Y-157290500D01*
X162104500Y-157290500D02*
X162104500Y-157671500D01*
X154560338Y-163659460D02*
G75*
G02*
X157024500Y-161735500I2464162J-616040D01*
G01*
X150674500Y-159830500D02*
G75*
G02*
X153214500Y-157290500I2540000J0D01*
G01*
%TO.C,K13*%
X150674500Y-201359500D02*
X150674500Y-201740500D01*
X162104500Y-198819500D02*
X162104500Y-199835500D01*
X162104500Y-199835500D02*
X157024500Y-199835500D01*
X154560338Y-201740500D02*
X152833500Y-201740500D01*
X151055500Y-201740500D02*
X150674500Y-201740500D01*
X150674500Y-197930500D02*
X150674500Y-198311500D01*
X153214500Y-195390500D02*
X162104500Y-195390500D01*
X162104500Y-195390500D02*
X162104500Y-195771500D01*
X154560338Y-201759460D02*
G75*
G02*
X157024500Y-199835500I2464162J-616040D01*
G01*
X150674500Y-197930500D02*
G75*
G02*
X153214500Y-195390500I2540000J0D01*
G01*
%TO.C,K38*%
X245924500Y-201359500D02*
X245924500Y-201740500D01*
X257354500Y-198819500D02*
X257354500Y-199835500D01*
X257354500Y-199835500D02*
X252274500Y-199835500D01*
X249810338Y-201740500D02*
X248083500Y-201740500D01*
X246305500Y-201740500D02*
X245924500Y-201740500D01*
X245924500Y-197930500D02*
X245924500Y-198311500D01*
X248464500Y-195390500D02*
X257354500Y-195390500D01*
X257354500Y-195390500D02*
X257354500Y-195771500D01*
X249810338Y-201759460D02*
G75*
G02*
X252274500Y-199835500I2464162J-616040D01*
G01*
X245924500Y-197930500D02*
G75*
G02*
X248464500Y-195390500I2540000J0D01*
G01*
%TO.C,K49*%
X284024500Y-220409500D02*
X284024500Y-220790500D01*
X295454500Y-217869500D02*
X295454500Y-218885500D01*
X295454500Y-218885500D02*
X290374500Y-218885500D01*
X287910338Y-220790500D02*
X286183500Y-220790500D01*
X284405500Y-220790500D02*
X284024500Y-220790500D01*
X284024500Y-216980500D02*
X284024500Y-217361500D01*
X286564500Y-214440500D02*
X295454500Y-214440500D01*
X295454500Y-214440500D02*
X295454500Y-214821500D01*
X287910338Y-220809460D02*
G75*
G02*
X290374500Y-218885500I2464162J-616040D01*
G01*
X284024500Y-216980500D02*
G75*
G02*
X286564500Y-214440500I2540000J0D01*
G01*
%TO.C,K50*%
X284024500Y-239459500D02*
X284024500Y-239840500D01*
X295454500Y-236919500D02*
X295454500Y-237935500D01*
X295454500Y-237935500D02*
X290374500Y-237935500D01*
X287910338Y-239840500D02*
X286183500Y-239840500D01*
X284405500Y-239840500D02*
X284024500Y-239840500D01*
X284024500Y-236030500D02*
X284024500Y-236411500D01*
X286564500Y-233490500D02*
X295454500Y-233490500D01*
X295454500Y-233490500D02*
X295454500Y-233871500D01*
X287910338Y-239859460D02*
G75*
G02*
X290374500Y-237935500I2464162J-616040D01*
G01*
X284024500Y-236030500D02*
G75*
G02*
X286564500Y-233490500I2540000J0D01*
G01*
D11*
%TO.C,D13*%
X146662500Y-208662500D02*
X149062500Y-208662500D01*
X149062500Y-208387500D02*
X146662500Y-208387500D01*
X149062500Y-208512500D02*
X146662500Y-208512500D01*
X149062500Y-208787500D02*
X149062500Y-202787500D01*
X149062500Y-202787500D02*
X146662500Y-202787500D01*
X146662500Y-202787500D02*
X146662500Y-208787500D01*
X146662500Y-208787500D02*
X149062500Y-208787500D01*
%TO.C,D56*%
X318162500Y-170662500D02*
X320562500Y-170662500D01*
X320562500Y-170387500D02*
X318162500Y-170387500D01*
X320562500Y-170512500D02*
X318162500Y-170512500D01*
X320562500Y-170787500D02*
X320562500Y-164787500D01*
X320562500Y-164787500D02*
X318162500Y-164787500D01*
X318162500Y-164787500D02*
X318162500Y-170787500D01*
X318162500Y-170787500D02*
X320562500Y-170787500D01*
D10*
%TO.C,K40*%
X245924500Y-239459500D02*
X245924500Y-239840500D01*
X257354500Y-236919500D02*
X257354500Y-237935500D01*
X257354500Y-237935500D02*
X252274500Y-237935500D01*
X249810338Y-239840500D02*
X248083500Y-239840500D01*
X246305500Y-239840500D02*
X245924500Y-239840500D01*
X245924500Y-236030500D02*
X245924500Y-236411500D01*
X248464500Y-233490500D02*
X257354500Y-233490500D01*
X257354500Y-233490500D02*
X257354500Y-233871500D01*
X249810338Y-239859460D02*
G75*
G02*
X252274500Y-237935500I2464162J-616040D01*
G01*
X245924500Y-236030500D02*
G75*
G02*
X248464500Y-233490500I2540000J0D01*
G01*
D11*
%TO.C,D23*%
X185162500Y-208662500D02*
X187562500Y-208662500D01*
X187562500Y-208387500D02*
X185162500Y-208387500D01*
X187562500Y-208512500D02*
X185162500Y-208512500D01*
X187562500Y-208787500D02*
X187562500Y-202787500D01*
X187562500Y-202787500D02*
X185162500Y-202787500D01*
X185162500Y-202787500D02*
X185162500Y-208787500D01*
X185162500Y-208787500D02*
X187562500Y-208787500D01*
%TO.C,D52*%
X299162500Y-189662500D02*
X301562500Y-189662500D01*
X301562500Y-189387500D02*
X299162500Y-189387500D01*
X301562500Y-189512500D02*
X299162500Y-189512500D01*
X301562500Y-189787500D02*
X301562500Y-183787500D01*
X301562500Y-183787500D02*
X299162500Y-183787500D01*
X299162500Y-183787500D02*
X299162500Y-189787500D01*
X299162500Y-189787500D02*
X301562500Y-189787500D01*
D10*
%TO.C,K29*%
X207824500Y-220409500D02*
X207824500Y-220790500D01*
X219254500Y-217869500D02*
X219254500Y-218885500D01*
X219254500Y-218885500D02*
X214174500Y-218885500D01*
X211710338Y-220790500D02*
X209983500Y-220790500D01*
X208205500Y-220790500D02*
X207824500Y-220790500D01*
X207824500Y-216980500D02*
X207824500Y-217361500D01*
X210364500Y-214440500D02*
X219254500Y-214440500D01*
X219254500Y-214440500D02*
X219254500Y-214821500D01*
X211710338Y-220809460D02*
G75*
G02*
X214174500Y-218885500I2464162J-616040D01*
G01*
X207824500Y-216980500D02*
G75*
G02*
X210364500Y-214440500I2540000J0D01*
G01*
D11*
%TO.C,D38*%
X242162500Y-208662500D02*
X244562500Y-208662500D01*
X244562500Y-208387500D02*
X242162500Y-208387500D01*
X244562500Y-208512500D02*
X242162500Y-208512500D01*
X244562500Y-208787500D02*
X244562500Y-202787500D01*
X244562500Y-202787500D02*
X242162500Y-202787500D01*
X242162500Y-202787500D02*
X242162500Y-208787500D01*
X242162500Y-208787500D02*
X244562500Y-208787500D01*
%TO.C,D43*%
X261162500Y-208662500D02*
X263562500Y-208662500D01*
X263562500Y-208387500D02*
X261162500Y-208387500D01*
X263562500Y-208512500D02*
X261162500Y-208512500D01*
X263562500Y-208787500D02*
X263562500Y-202787500D01*
X263562500Y-202787500D02*
X261162500Y-202787500D01*
X261162500Y-202787500D02*
X261162500Y-208787500D01*
X261162500Y-208787500D02*
X263562500Y-208787500D01*
D10*
%TO.C,K21*%
X188774500Y-163259500D02*
X188774500Y-163640500D01*
X200204500Y-160719500D02*
X200204500Y-161735500D01*
X200204500Y-161735500D02*
X195124500Y-161735500D01*
X192660338Y-163640500D02*
X190933500Y-163640500D01*
X189155500Y-163640500D02*
X188774500Y-163640500D01*
X188774500Y-159830500D02*
X188774500Y-160211500D01*
X191314500Y-157290500D02*
X200204500Y-157290500D01*
X200204500Y-157290500D02*
X200204500Y-157671500D01*
X192660338Y-163659460D02*
G75*
G02*
X195124500Y-161735500I2464162J-616040D01*
G01*
X188774500Y-159830500D02*
G75*
G02*
X191314500Y-157290500I2540000J0D01*
G01*
%TO.C,K5*%
X112574500Y-239459500D02*
X112574500Y-239840500D01*
X124004500Y-236919500D02*
X124004500Y-237935500D01*
X124004500Y-237935500D02*
X118924500Y-237935500D01*
X116460338Y-239840500D02*
X114733500Y-239840500D01*
X112955500Y-239840500D02*
X112574500Y-239840500D01*
X112574500Y-236030500D02*
X112574500Y-236411500D01*
X115114500Y-233490500D02*
X124004500Y-233490500D01*
X124004500Y-233490500D02*
X124004500Y-233871500D01*
X116460338Y-239859460D02*
G75*
G02*
X118924500Y-237935500I2464162J-616040D01*
G01*
X112574500Y-236030500D02*
G75*
G02*
X115114500Y-233490500I2540000J0D01*
G01*
D11*
%TO.C,D29*%
X204162500Y-227662500D02*
X206562500Y-227662500D01*
X206562500Y-227387500D02*
X204162500Y-227387500D01*
X206562500Y-227512500D02*
X204162500Y-227512500D01*
X206562500Y-227787500D02*
X206562500Y-221787500D01*
X206562500Y-221787500D02*
X204162500Y-221787500D01*
X204162500Y-221787500D02*
X204162500Y-227787500D01*
X204162500Y-227787500D02*
X206562500Y-227787500D01*
%TO.C,D41*%
X261162500Y-170662500D02*
X263562500Y-170662500D01*
X263562500Y-170387500D02*
X261162500Y-170387500D01*
X263562500Y-170512500D02*
X261162500Y-170512500D01*
X263562500Y-170787500D02*
X263562500Y-164787500D01*
X263562500Y-164787500D02*
X261162500Y-164787500D01*
X261162500Y-164787500D02*
X261162500Y-170787500D01*
X261162500Y-170787500D02*
X263562500Y-170787500D01*
%TO.C,D32*%
X223162500Y-189662500D02*
X225562500Y-189662500D01*
X225562500Y-189387500D02*
X223162500Y-189387500D01*
X225562500Y-189512500D02*
X223162500Y-189512500D01*
X225562500Y-189787500D02*
X225562500Y-183787500D01*
X225562500Y-183787500D02*
X223162500Y-183787500D01*
X223162500Y-183787500D02*
X223162500Y-189787500D01*
X223162500Y-189787500D02*
X225562500Y-189787500D01*
%TO.C,D48*%
X280162500Y-208662500D02*
X282562500Y-208662500D01*
X282562500Y-208387500D02*
X280162500Y-208387500D01*
X282562500Y-208512500D02*
X280162500Y-208512500D01*
X282562500Y-208787500D02*
X282562500Y-202787500D01*
X282562500Y-202787500D02*
X280162500Y-202787500D01*
X280162500Y-202787500D02*
X280162500Y-208787500D01*
X280162500Y-208787500D02*
X282562500Y-208787500D01*
D10*
%TO.C,K4*%
X112574500Y-220409500D02*
X112574500Y-220790500D01*
X124004500Y-217869500D02*
X124004500Y-218885500D01*
X124004500Y-218885500D02*
X118924500Y-218885500D01*
X116460338Y-220790500D02*
X114733500Y-220790500D01*
X112955500Y-220790500D02*
X112574500Y-220790500D01*
X112574500Y-216980500D02*
X112574500Y-217361500D01*
X115114500Y-214440500D02*
X124004500Y-214440500D01*
X124004500Y-214440500D02*
X124004500Y-214821500D01*
X116460338Y-220809460D02*
G75*
G02*
X118924500Y-218885500I2464162J-616040D01*
G01*
X112574500Y-216980500D02*
G75*
G02*
X115114500Y-214440500I2540000J0D01*
G01*
%TO.C,K8*%
X131624500Y-201359500D02*
X131624500Y-201740500D01*
X143054500Y-198819500D02*
X143054500Y-199835500D01*
X143054500Y-199835500D02*
X137974500Y-199835500D01*
X135510338Y-201740500D02*
X133783500Y-201740500D01*
X132005500Y-201740500D02*
X131624500Y-201740500D01*
X131624500Y-197930500D02*
X131624500Y-198311500D01*
X134164500Y-195390500D02*
X143054500Y-195390500D01*
X143054500Y-195390500D02*
X143054500Y-195771500D01*
X135510338Y-201759460D02*
G75*
G02*
X137974500Y-199835500I2464162J-616040D01*
G01*
X131624500Y-197930500D02*
G75*
G02*
X134164500Y-195390500I2540000J0D01*
G01*
%TO.C,K35*%
X226874500Y-239459500D02*
X226874500Y-239840500D01*
X238304500Y-236919500D02*
X238304500Y-237935500D01*
X238304500Y-237935500D02*
X233224500Y-237935500D01*
X230760338Y-239840500D02*
X229033500Y-239840500D01*
X227255500Y-239840500D02*
X226874500Y-239840500D01*
X226874500Y-236030500D02*
X226874500Y-236411500D01*
X229414500Y-233490500D02*
X238304500Y-233490500D01*
X238304500Y-233490500D02*
X238304500Y-233871500D01*
X230760338Y-239859460D02*
G75*
G02*
X233224500Y-237935500I2464162J-616040D01*
G01*
X226874500Y-236030500D02*
G75*
G02*
X229414500Y-233490500I2540000J0D01*
G01*
%TO.C,K52*%
X303074500Y-182309500D02*
X303074500Y-182690500D01*
X314504500Y-179769500D02*
X314504500Y-180785500D01*
X314504500Y-180785500D02*
X309424500Y-180785500D01*
X306960338Y-182690500D02*
X305233500Y-182690500D01*
X303455500Y-182690500D02*
X303074500Y-182690500D01*
X303074500Y-178880500D02*
X303074500Y-179261500D01*
X305614500Y-176340500D02*
X314504500Y-176340500D01*
X314504500Y-176340500D02*
X314504500Y-176721500D01*
X306960338Y-182709460D02*
G75*
G02*
X309424500Y-180785500I2464162J-616040D01*
G01*
X303074500Y-178880500D02*
G75*
G02*
X305614500Y-176340500I2540000J0D01*
G01*
%TO.C,K60*%
X322124500Y-239459500D02*
X322124500Y-239840500D01*
X333554500Y-236919500D02*
X333554500Y-237935500D01*
X333554500Y-237935500D02*
X328474500Y-237935500D01*
X326010338Y-239840500D02*
X324283500Y-239840500D01*
X322505500Y-239840500D02*
X322124500Y-239840500D01*
X322124500Y-236030500D02*
X322124500Y-236411500D01*
X324664500Y-233490500D02*
X333554500Y-233490500D01*
X333554500Y-233490500D02*
X333554500Y-233871500D01*
X326010338Y-239859460D02*
G75*
G02*
X328474500Y-237935500I2464162J-616040D01*
G01*
X322124500Y-236030500D02*
G75*
G02*
X324664500Y-233490500I2540000J0D01*
G01*
D11*
%TO.C,D17*%
X165662500Y-189662500D02*
X168062500Y-189662500D01*
X168062500Y-189387500D02*
X165662500Y-189387500D01*
X168062500Y-189512500D02*
X165662500Y-189512500D01*
X168062500Y-189787500D02*
X168062500Y-183787500D01*
X168062500Y-183787500D02*
X165662500Y-183787500D01*
X165662500Y-183787500D02*
X165662500Y-189787500D01*
X165662500Y-189787500D02*
X168062500Y-189787500D01*
%TO.C,D34*%
X223162500Y-227662500D02*
X225562500Y-227662500D01*
X225562500Y-227387500D02*
X223162500Y-227387500D01*
X225562500Y-227512500D02*
X223162500Y-227512500D01*
X225562500Y-227787500D02*
X225562500Y-221787500D01*
X225562500Y-221787500D02*
X223162500Y-221787500D01*
X223162500Y-221787500D02*
X223162500Y-227787500D01*
X223162500Y-227787500D02*
X225562500Y-227787500D01*
%TO.C,D12*%
X146662500Y-189662500D02*
X149062500Y-189662500D01*
X149062500Y-189387500D02*
X146662500Y-189387500D01*
X149062500Y-189512500D02*
X146662500Y-189512500D01*
X149062500Y-189787500D02*
X149062500Y-183787500D01*
X149062500Y-183787500D02*
X146662500Y-183787500D01*
X146662500Y-183787500D02*
X146662500Y-189787500D01*
X146662500Y-189787500D02*
X149062500Y-189787500D01*
%TO.C,D16*%
X165662500Y-170662500D02*
X168062500Y-170662500D01*
X168062500Y-170387500D02*
X165662500Y-170387500D01*
X168062500Y-170512500D02*
X165662500Y-170512500D01*
X168062500Y-170787500D02*
X168062500Y-164787500D01*
X168062500Y-164787500D02*
X165662500Y-164787500D01*
X165662500Y-164787500D02*
X165662500Y-170787500D01*
X165662500Y-170787500D02*
X168062500Y-170787500D01*
%TO.C,D46*%
X280162500Y-170662500D02*
X282562500Y-170662500D01*
X282562500Y-170387500D02*
X280162500Y-170387500D01*
X282562500Y-170512500D02*
X280162500Y-170512500D01*
X282562500Y-170787500D02*
X282562500Y-164787500D01*
X282562500Y-164787500D02*
X280162500Y-164787500D01*
X280162500Y-164787500D02*
X280162500Y-170787500D01*
X280162500Y-170787500D02*
X282562500Y-170787500D01*
D10*
%TO.C,K55*%
X303074500Y-239459500D02*
X303074500Y-239840500D01*
X314504500Y-236919500D02*
X314504500Y-237935500D01*
X314504500Y-237935500D02*
X309424500Y-237935500D01*
X306960338Y-239840500D02*
X305233500Y-239840500D01*
X303455500Y-239840500D02*
X303074500Y-239840500D01*
X303074500Y-236030500D02*
X303074500Y-236411500D01*
X305614500Y-233490500D02*
X314504500Y-233490500D01*
X314504500Y-233490500D02*
X314504500Y-233871500D01*
X306960338Y-239859460D02*
G75*
G02*
X309424500Y-237935500I2464162J-616040D01*
G01*
X303074500Y-236030500D02*
G75*
G02*
X305614500Y-233490500I2540000J0D01*
G01*
D11*
%TO.C,D37*%
X242162500Y-189662500D02*
X244562500Y-189662500D01*
X244562500Y-189387500D02*
X242162500Y-189387500D01*
X244562500Y-189512500D02*
X242162500Y-189512500D01*
X244562500Y-189787500D02*
X244562500Y-183787500D01*
X244562500Y-183787500D02*
X242162500Y-183787500D01*
X242162500Y-183787500D02*
X242162500Y-189787500D01*
X242162500Y-189787500D02*
X244562500Y-189787500D01*
%TO.C,D24*%
X185162500Y-227662500D02*
X187562500Y-227662500D01*
X187562500Y-227387500D02*
X185162500Y-227387500D01*
X187562500Y-227512500D02*
X185162500Y-227512500D01*
X187562500Y-227787500D02*
X187562500Y-221787500D01*
X187562500Y-221787500D02*
X185162500Y-221787500D01*
X185162500Y-221787500D02*
X185162500Y-227787500D01*
X185162500Y-227787500D02*
X187562500Y-227787500D01*
%TO.C,D14*%
X146662500Y-227662500D02*
X149062500Y-227662500D01*
X149062500Y-227387500D02*
X146662500Y-227387500D01*
X149062500Y-227512500D02*
X146662500Y-227512500D01*
X149062500Y-227787500D02*
X149062500Y-221787500D01*
X149062500Y-221787500D02*
X146662500Y-221787500D01*
X146662500Y-221787500D02*
X146662500Y-227787500D01*
X146662500Y-227787500D02*
X149062500Y-227787500D01*
D10*
%TO.C,K12*%
X150674500Y-182309500D02*
X150674500Y-182690500D01*
X162104500Y-179769500D02*
X162104500Y-180785500D01*
X162104500Y-180785500D02*
X157024500Y-180785500D01*
X154560338Y-182690500D02*
X152833500Y-182690500D01*
X151055500Y-182690500D02*
X150674500Y-182690500D01*
X150674500Y-178880500D02*
X150674500Y-179261500D01*
X153214500Y-176340500D02*
X162104500Y-176340500D01*
X162104500Y-176340500D02*
X162104500Y-176721500D01*
X154560338Y-182709460D02*
G75*
G02*
X157024500Y-180785500I2464162J-616040D01*
G01*
X150674500Y-178880500D02*
G75*
G02*
X153214500Y-176340500I2540000J0D01*
G01*
%TO.C,K1*%
X112574500Y-163259500D02*
X112574500Y-163640500D01*
X124004500Y-160719500D02*
X124004500Y-161735500D01*
X124004500Y-161735500D02*
X118924500Y-161735500D01*
X116460338Y-163640500D02*
X114733500Y-163640500D01*
X112955500Y-163640500D02*
X112574500Y-163640500D01*
X112574500Y-159830500D02*
X112574500Y-160211500D01*
X115114500Y-157290500D02*
X124004500Y-157290500D01*
X124004500Y-157290500D02*
X124004500Y-157671500D01*
X116460338Y-163659460D02*
G75*
G02*
X118924500Y-161735500I2464162J-616040D01*
G01*
X112574500Y-159830500D02*
G75*
G02*
X115114500Y-157290500I2540000J0D01*
G01*
D11*
%TO.C,D42*%
X261162500Y-189662500D02*
X263562500Y-189662500D01*
X263562500Y-189387500D02*
X261162500Y-189387500D01*
X263562500Y-189512500D02*
X261162500Y-189512500D01*
X263562500Y-189787500D02*
X263562500Y-183787500D01*
X263562500Y-183787500D02*
X261162500Y-183787500D01*
X261162500Y-183787500D02*
X261162500Y-189787500D01*
X261162500Y-189787500D02*
X263562500Y-189787500D01*
D10*
%TO.C,K14*%
X150674500Y-220409500D02*
X150674500Y-220790500D01*
X162104500Y-217869500D02*
X162104500Y-218885500D01*
X162104500Y-218885500D02*
X157024500Y-218885500D01*
X154560338Y-220790500D02*
X152833500Y-220790500D01*
X151055500Y-220790500D02*
X150674500Y-220790500D01*
X150674500Y-216980500D02*
X150674500Y-217361500D01*
X153214500Y-214440500D02*
X162104500Y-214440500D01*
X162104500Y-214440500D02*
X162104500Y-214821500D01*
X154560338Y-220809460D02*
G75*
G02*
X157024500Y-218885500I2464162J-616040D01*
G01*
X150674500Y-216980500D02*
G75*
G02*
X153214500Y-214440500I2540000J0D01*
G01*
D11*
%TO.C,D55*%
X299162500Y-246662500D02*
X301562500Y-246662500D01*
X301562500Y-246387500D02*
X299162500Y-246387500D01*
X301562500Y-246512500D02*
X299162500Y-246512500D01*
X301562500Y-246787500D02*
X301562500Y-240787500D01*
X301562500Y-240787500D02*
X299162500Y-240787500D01*
X299162500Y-240787500D02*
X299162500Y-246787500D01*
X299162500Y-246787500D02*
X301562500Y-246787500D01*
%TO.C,D18*%
X165662500Y-208662500D02*
X168062500Y-208662500D01*
X168062500Y-208387500D02*
X165662500Y-208387500D01*
X168062500Y-208512500D02*
X165662500Y-208512500D01*
X168062500Y-208787500D02*
X168062500Y-202787500D01*
X168062500Y-202787500D02*
X165662500Y-202787500D01*
X165662500Y-202787500D02*
X165662500Y-208787500D01*
X165662500Y-208787500D02*
X168062500Y-208787500D01*
D10*
%TO.C,K47*%
X284024500Y-182309500D02*
X284024500Y-182690500D01*
X295454500Y-179769500D02*
X295454500Y-180785500D01*
X295454500Y-180785500D02*
X290374500Y-180785500D01*
X287910338Y-182690500D02*
X286183500Y-182690500D01*
X284405500Y-182690500D02*
X284024500Y-182690500D01*
X284024500Y-178880500D02*
X284024500Y-179261500D01*
X286564500Y-176340500D02*
X295454500Y-176340500D01*
X295454500Y-176340500D02*
X295454500Y-176721500D01*
X287910338Y-182709460D02*
G75*
G02*
X290374500Y-180785500I2464162J-616040D01*
G01*
X284024500Y-178880500D02*
G75*
G02*
X286564500Y-176340500I2540000J0D01*
G01*
%TO.C,K46*%
X284024500Y-163259500D02*
X284024500Y-163640500D01*
X295454500Y-160719500D02*
X295454500Y-161735500D01*
X295454500Y-161735500D02*
X290374500Y-161735500D01*
X287910338Y-163640500D02*
X286183500Y-163640500D01*
X284405500Y-163640500D02*
X284024500Y-163640500D01*
X284024500Y-159830500D02*
X284024500Y-160211500D01*
X286564500Y-157290500D02*
X295454500Y-157290500D01*
X295454500Y-157290500D02*
X295454500Y-157671500D01*
X287910338Y-163659460D02*
G75*
G02*
X290374500Y-161735500I2464162J-616040D01*
G01*
X284024500Y-159830500D02*
G75*
G02*
X286564500Y-157290500I2540000J0D01*
G01*
%TO.C,K9*%
X131624500Y-220409500D02*
X131624500Y-220790500D01*
X143054500Y-217869500D02*
X143054500Y-218885500D01*
X143054500Y-218885500D02*
X137974500Y-218885500D01*
X135510338Y-220790500D02*
X133783500Y-220790500D01*
X132005500Y-220790500D02*
X131624500Y-220790500D01*
X131624500Y-216980500D02*
X131624500Y-217361500D01*
X134164500Y-214440500D02*
X143054500Y-214440500D01*
X143054500Y-214440500D02*
X143054500Y-214821500D01*
X135510338Y-220809460D02*
G75*
G02*
X137974500Y-218885500I2464162J-616040D01*
G01*
X131624500Y-216980500D02*
G75*
G02*
X134164500Y-214440500I2540000J0D01*
G01*
%TO.C,K15*%
X150674500Y-239459500D02*
X150674500Y-239840500D01*
X162104500Y-236919500D02*
X162104500Y-237935500D01*
X162104500Y-237935500D02*
X157024500Y-237935500D01*
X154560338Y-239840500D02*
X152833500Y-239840500D01*
X151055500Y-239840500D02*
X150674500Y-239840500D01*
X150674500Y-236030500D02*
X150674500Y-236411500D01*
X153214500Y-233490500D02*
X162104500Y-233490500D01*
X162104500Y-233490500D02*
X162104500Y-233871500D01*
X154560338Y-239859460D02*
G75*
G02*
X157024500Y-237935500I2464162J-616040D01*
G01*
X150674500Y-236030500D02*
G75*
G02*
X153214500Y-233490500I2540000J0D01*
G01*
%TO.C,K2*%
X112574500Y-182309500D02*
X112574500Y-182690500D01*
X124004500Y-179769500D02*
X124004500Y-180785500D01*
X124004500Y-180785500D02*
X118924500Y-180785500D01*
X116460338Y-182690500D02*
X114733500Y-182690500D01*
X112955500Y-182690500D02*
X112574500Y-182690500D01*
X112574500Y-178880500D02*
X112574500Y-179261500D01*
X115114500Y-176340500D02*
X124004500Y-176340500D01*
X124004500Y-176340500D02*
X124004500Y-176721500D01*
X116460338Y-182709460D02*
G75*
G02*
X118924500Y-180785500I2464162J-616040D01*
G01*
X112574500Y-178880500D02*
G75*
G02*
X115114500Y-176340500I2540000J0D01*
G01*
D11*
%TO.C,D7*%
X127662500Y-189662500D02*
X130062500Y-189662500D01*
X130062500Y-189387500D02*
X127662500Y-189387500D01*
X130062500Y-189512500D02*
X127662500Y-189512500D01*
X130062500Y-189787500D02*
X130062500Y-183787500D01*
X130062500Y-183787500D02*
X127662500Y-183787500D01*
X127662500Y-183787500D02*
X127662500Y-189787500D01*
X127662500Y-189787500D02*
X130062500Y-189787500D01*
%TO.C,D58*%
D10*
X317799404Y-204616071D02*
X316999404Y-204616071D01*
X316999404Y-204806547D01*
X317037500Y-204920833D01*
X317113690Y-204997023D01*
X317189880Y-205035119D01*
X317342261Y-205073214D01*
X317456547Y-205073214D01*
X317608928Y-205035119D01*
X317685119Y-204997023D01*
X317761309Y-204920833D01*
X317799404Y-204806547D01*
X317799404Y-204616071D01*
X316999404Y-205797023D02*
X316999404Y-205416071D01*
X317380357Y-205377976D01*
X317342261Y-205416071D01*
X317304166Y-205492261D01*
X317304166Y-205682738D01*
X317342261Y-205758928D01*
X317380357Y-205797023D01*
X317456547Y-205835119D01*
X317647023Y-205835119D01*
X317723214Y-205797023D01*
X317761309Y-205758928D01*
X317799404Y-205682738D01*
X317799404Y-205492261D01*
X317761309Y-205416071D01*
X317723214Y-205377976D01*
X317342261Y-206292261D02*
X317304166Y-206216071D01*
X317266071Y-206177976D01*
X317189880Y-206139880D01*
X317151785Y-206139880D01*
X317075595Y-206177976D01*
X317037500Y-206216071D01*
X316999404Y-206292261D01*
X316999404Y-206444642D01*
X317037500Y-206520833D01*
X317075595Y-206558928D01*
X317151785Y-206597023D01*
X317189880Y-206597023D01*
X317266071Y-206558928D01*
X317304166Y-206520833D01*
X317342261Y-206444642D01*
X317342261Y-206292261D01*
X317380357Y-206216071D01*
X317418452Y-206177976D01*
X317494642Y-206139880D01*
X317647023Y-206139880D01*
X317723214Y-206177976D01*
X317761309Y-206216071D01*
X317799404Y-206292261D01*
X317799404Y-206444642D01*
X317761309Y-206520833D01*
X317723214Y-206558928D01*
X317647023Y-206597023D01*
X317494642Y-206597023D01*
X317418452Y-206558928D01*
X317380357Y-206520833D01*
X317342261Y-206444642D01*
%TO.C,K32*%
X234438785Y-175522880D02*
X234438785Y-174522880D01*
X233867357Y-175522880D02*
X234295928Y-174951452D01*
X233867357Y-174522880D02*
X234438785Y-175094309D01*
X233534023Y-174522880D02*
X232914976Y-174522880D01*
X233248309Y-174903833D01*
X233105452Y-174903833D01*
X233010214Y-174951452D01*
X232962595Y-174999071D01*
X232914976Y-175094309D01*
X232914976Y-175332404D01*
X232962595Y-175427642D01*
X233010214Y-175475261D01*
X233105452Y-175522880D01*
X233391166Y-175522880D01*
X233486404Y-175475261D01*
X233534023Y-175427642D01*
X232534023Y-174618119D02*
X232486404Y-174570500D01*
X232391166Y-174522880D01*
X232153071Y-174522880D01*
X232057833Y-174570500D01*
X232010214Y-174618119D01*
X231962595Y-174713357D01*
X231962595Y-174808595D01*
X232010214Y-174951452D01*
X232581642Y-175522880D01*
X231962595Y-175522880D01*
%TO.C,K33*%
X234438785Y-194572880D02*
X234438785Y-193572880D01*
X233867357Y-194572880D02*
X234295928Y-194001452D01*
X233867357Y-193572880D02*
X234438785Y-194144309D01*
X233534023Y-193572880D02*
X232914976Y-193572880D01*
X233248309Y-193953833D01*
X233105452Y-193953833D01*
X233010214Y-194001452D01*
X232962595Y-194049071D01*
X232914976Y-194144309D01*
X232914976Y-194382404D01*
X232962595Y-194477642D01*
X233010214Y-194525261D01*
X233105452Y-194572880D01*
X233391166Y-194572880D01*
X233486404Y-194525261D01*
X233534023Y-194477642D01*
X232581642Y-193572880D02*
X231962595Y-193572880D01*
X232295928Y-193953833D01*
X232153071Y-193953833D01*
X232057833Y-194001452D01*
X232010214Y-194049071D01*
X231962595Y-194144309D01*
X231962595Y-194382404D01*
X232010214Y-194477642D01*
X232057833Y-194525261D01*
X232153071Y-194572880D01*
X232438785Y-194572880D01*
X232534023Y-194525261D01*
X232581642Y-194477642D01*
%TO.C,K42*%
X272538785Y-175522880D02*
X272538785Y-174522880D01*
X271967357Y-175522880D02*
X272395928Y-174951452D01*
X271967357Y-174522880D02*
X272538785Y-175094309D01*
X271110214Y-174856214D02*
X271110214Y-175522880D01*
X271348309Y-174475261D02*
X271586404Y-175189547D01*
X270967357Y-175189547D01*
X270634023Y-174618119D02*
X270586404Y-174570500D01*
X270491166Y-174522880D01*
X270253071Y-174522880D01*
X270157833Y-174570500D01*
X270110214Y-174618119D01*
X270062595Y-174713357D01*
X270062595Y-174808595D01*
X270110214Y-174951452D01*
X270681642Y-175522880D01*
X270062595Y-175522880D01*
%TO.C,K31*%
X234438785Y-156472880D02*
X234438785Y-155472880D01*
X233867357Y-156472880D02*
X234295928Y-155901452D01*
X233867357Y-155472880D02*
X234438785Y-156044309D01*
X233534023Y-155472880D02*
X232914976Y-155472880D01*
X233248309Y-155853833D01*
X233105452Y-155853833D01*
X233010214Y-155901452D01*
X232962595Y-155949071D01*
X232914976Y-156044309D01*
X232914976Y-156282404D01*
X232962595Y-156377642D01*
X233010214Y-156425261D01*
X233105452Y-156472880D01*
X233391166Y-156472880D01*
X233486404Y-156425261D01*
X233534023Y-156377642D01*
X231962595Y-156472880D02*
X232534023Y-156472880D01*
X232248309Y-156472880D02*
X232248309Y-155472880D01*
X232343547Y-155615738D01*
X232438785Y-155710976D01*
X232534023Y-155758595D01*
%TO.C,K24*%
X196338785Y-213622880D02*
X196338785Y-212622880D01*
X195767357Y-213622880D02*
X196195928Y-213051452D01*
X195767357Y-212622880D02*
X196338785Y-213194309D01*
X195386404Y-212718119D02*
X195338785Y-212670500D01*
X195243547Y-212622880D01*
X195005452Y-212622880D01*
X194910214Y-212670500D01*
X194862595Y-212718119D01*
X194814976Y-212813357D01*
X194814976Y-212908595D01*
X194862595Y-213051452D01*
X195434023Y-213622880D01*
X194814976Y-213622880D01*
X193957833Y-212956214D02*
X193957833Y-213622880D01*
X194195928Y-212575261D02*
X194434023Y-213289547D01*
X193814976Y-213289547D01*
%TO.C,K41*%
X272538785Y-156472880D02*
X272538785Y-155472880D01*
X271967357Y-156472880D02*
X272395928Y-155901452D01*
X271967357Y-155472880D02*
X272538785Y-156044309D01*
X271110214Y-155806214D02*
X271110214Y-156472880D01*
X271348309Y-155425261D02*
X271586404Y-156139547D01*
X270967357Y-156139547D01*
X270062595Y-156472880D02*
X270634023Y-156472880D01*
X270348309Y-156472880D02*
X270348309Y-155472880D01*
X270443547Y-155615738D01*
X270538785Y-155710976D01*
X270634023Y-155758595D01*
%TO.C,K34*%
X234438785Y-213622880D02*
X234438785Y-212622880D01*
X233867357Y-213622880D02*
X234295928Y-213051452D01*
X233867357Y-212622880D02*
X234438785Y-213194309D01*
X233534023Y-212622880D02*
X232914976Y-212622880D01*
X233248309Y-213003833D01*
X233105452Y-213003833D01*
X233010214Y-213051452D01*
X232962595Y-213099071D01*
X232914976Y-213194309D01*
X232914976Y-213432404D01*
X232962595Y-213527642D01*
X233010214Y-213575261D01*
X233105452Y-213622880D01*
X233391166Y-213622880D01*
X233486404Y-213575261D01*
X233534023Y-213527642D01*
X232057833Y-212956214D02*
X232057833Y-213622880D01*
X232295928Y-212575261D02*
X232534023Y-213289547D01*
X231914976Y-213289547D01*
%TO.C,K23*%
X196338785Y-194572880D02*
X196338785Y-193572880D01*
X195767357Y-194572880D02*
X196195928Y-194001452D01*
X195767357Y-193572880D02*
X196338785Y-194144309D01*
X195386404Y-193668119D02*
X195338785Y-193620500D01*
X195243547Y-193572880D01*
X195005452Y-193572880D01*
X194910214Y-193620500D01*
X194862595Y-193668119D01*
X194814976Y-193763357D01*
X194814976Y-193858595D01*
X194862595Y-194001452D01*
X195434023Y-194572880D01*
X194814976Y-194572880D01*
X194481642Y-193572880D02*
X193862595Y-193572880D01*
X194195928Y-193953833D01*
X194053071Y-193953833D01*
X193957833Y-194001452D01*
X193910214Y-194049071D01*
X193862595Y-194144309D01*
X193862595Y-194382404D01*
X193910214Y-194477642D01*
X193957833Y-194525261D01*
X194053071Y-194572880D01*
X194338785Y-194572880D01*
X194434023Y-194525261D01*
X194481642Y-194477642D01*
%TO.C,D59*%
X317799404Y-223616071D02*
X316999404Y-223616071D01*
X316999404Y-223806547D01*
X317037500Y-223920833D01*
X317113690Y-223997023D01*
X317189880Y-224035119D01*
X317342261Y-224073214D01*
X317456547Y-224073214D01*
X317608928Y-224035119D01*
X317685119Y-223997023D01*
X317761309Y-223920833D01*
X317799404Y-223806547D01*
X317799404Y-223616071D01*
X316999404Y-224797023D02*
X316999404Y-224416071D01*
X317380357Y-224377976D01*
X317342261Y-224416071D01*
X317304166Y-224492261D01*
X317304166Y-224682738D01*
X317342261Y-224758928D01*
X317380357Y-224797023D01*
X317456547Y-224835119D01*
X317647023Y-224835119D01*
X317723214Y-224797023D01*
X317761309Y-224758928D01*
X317799404Y-224682738D01*
X317799404Y-224492261D01*
X317761309Y-224416071D01*
X317723214Y-224377976D01*
X317799404Y-225216071D02*
X317799404Y-225368452D01*
X317761309Y-225444642D01*
X317723214Y-225482738D01*
X317608928Y-225558928D01*
X317456547Y-225597023D01*
X317151785Y-225597023D01*
X317075595Y-225558928D01*
X317037500Y-225520833D01*
X316999404Y-225444642D01*
X316999404Y-225292261D01*
X317037500Y-225216071D01*
X317075595Y-225177976D01*
X317151785Y-225139880D01*
X317342261Y-225139880D01*
X317418452Y-225177976D01*
X317456547Y-225216071D01*
X317494642Y-225292261D01*
X317494642Y-225444642D01*
X317456547Y-225520833D01*
X317418452Y-225558928D01*
X317342261Y-225597023D01*
%TO.C,D54*%
X298799404Y-223616071D02*
X297999404Y-223616071D01*
X297999404Y-223806547D01*
X298037500Y-223920833D01*
X298113690Y-223997023D01*
X298189880Y-224035119D01*
X298342261Y-224073214D01*
X298456547Y-224073214D01*
X298608928Y-224035119D01*
X298685119Y-223997023D01*
X298761309Y-223920833D01*
X298799404Y-223806547D01*
X298799404Y-223616071D01*
X297999404Y-224797023D02*
X297999404Y-224416071D01*
X298380357Y-224377976D01*
X298342261Y-224416071D01*
X298304166Y-224492261D01*
X298304166Y-224682738D01*
X298342261Y-224758928D01*
X298380357Y-224797023D01*
X298456547Y-224835119D01*
X298647023Y-224835119D01*
X298723214Y-224797023D01*
X298761309Y-224758928D01*
X298799404Y-224682738D01*
X298799404Y-224492261D01*
X298761309Y-224416071D01*
X298723214Y-224377976D01*
X298266071Y-225520833D02*
X298799404Y-225520833D01*
X297961309Y-225330357D02*
X298532738Y-225139880D01*
X298532738Y-225635119D01*
%TO.C,D15*%
X146299404Y-242616071D02*
X145499404Y-242616071D01*
X145499404Y-242806547D01*
X145537500Y-242920833D01*
X145613690Y-242997023D01*
X145689880Y-243035119D01*
X145842261Y-243073214D01*
X145956547Y-243073214D01*
X146108928Y-243035119D01*
X146185119Y-242997023D01*
X146261309Y-242920833D01*
X146299404Y-242806547D01*
X146299404Y-242616071D01*
X146299404Y-243835119D02*
X146299404Y-243377976D01*
X146299404Y-243606547D02*
X145499404Y-243606547D01*
X145613690Y-243530357D01*
X145689880Y-243454166D01*
X145727976Y-243377976D01*
X145499404Y-244558928D02*
X145499404Y-244177976D01*
X145880357Y-244139880D01*
X145842261Y-244177976D01*
X145804166Y-244254166D01*
X145804166Y-244444642D01*
X145842261Y-244520833D01*
X145880357Y-244558928D01*
X145956547Y-244597023D01*
X146147023Y-244597023D01*
X146223214Y-244558928D01*
X146261309Y-244520833D01*
X146299404Y-244444642D01*
X146299404Y-244254166D01*
X146261309Y-244177976D01*
X146223214Y-244139880D01*
%TO.C,D4*%
X108299404Y-223997023D02*
X107499404Y-223997023D01*
X107499404Y-224187500D01*
X107537500Y-224301785D01*
X107613690Y-224377976D01*
X107689880Y-224416071D01*
X107842261Y-224454166D01*
X107956547Y-224454166D01*
X108108928Y-224416071D01*
X108185119Y-224377976D01*
X108261309Y-224301785D01*
X108299404Y-224187500D01*
X108299404Y-223997023D01*
X107766071Y-225139880D02*
X108299404Y-225139880D01*
X107461309Y-224949404D02*
X108032738Y-224758928D01*
X108032738Y-225254166D01*
%TO.C,D50*%
X279799404Y-242616071D02*
X278999404Y-242616071D01*
X278999404Y-242806547D01*
X279037500Y-242920833D01*
X279113690Y-242997023D01*
X279189880Y-243035119D01*
X279342261Y-243073214D01*
X279456547Y-243073214D01*
X279608928Y-243035119D01*
X279685119Y-242997023D01*
X279761309Y-242920833D01*
X279799404Y-242806547D01*
X279799404Y-242616071D01*
X278999404Y-243797023D02*
X278999404Y-243416071D01*
X279380357Y-243377976D01*
X279342261Y-243416071D01*
X279304166Y-243492261D01*
X279304166Y-243682738D01*
X279342261Y-243758928D01*
X279380357Y-243797023D01*
X279456547Y-243835119D01*
X279647023Y-243835119D01*
X279723214Y-243797023D01*
X279761309Y-243758928D01*
X279799404Y-243682738D01*
X279799404Y-243492261D01*
X279761309Y-243416071D01*
X279723214Y-243377976D01*
X278999404Y-244330357D02*
X278999404Y-244406547D01*
X279037500Y-244482738D01*
X279075595Y-244520833D01*
X279151785Y-244558928D01*
X279304166Y-244597023D01*
X279494642Y-244597023D01*
X279647023Y-244558928D01*
X279723214Y-244520833D01*
X279761309Y-244482738D01*
X279799404Y-244406547D01*
X279799404Y-244330357D01*
X279761309Y-244254166D01*
X279723214Y-244216071D01*
X279647023Y-244177976D01*
X279494642Y-244139880D01*
X279304166Y-244139880D01*
X279151785Y-244177976D01*
X279075595Y-244216071D01*
X279037500Y-244254166D01*
X278999404Y-244330357D01*
%TO.C,D11*%
X146299404Y-166616071D02*
X145499404Y-166616071D01*
X145499404Y-166806547D01*
X145537500Y-166920833D01*
X145613690Y-166997023D01*
X145689880Y-167035119D01*
X145842261Y-167073214D01*
X145956547Y-167073214D01*
X146108928Y-167035119D01*
X146185119Y-166997023D01*
X146261309Y-166920833D01*
X146299404Y-166806547D01*
X146299404Y-166616071D01*
X146299404Y-167835119D02*
X146299404Y-167377976D01*
X146299404Y-167606547D02*
X145499404Y-167606547D01*
X145613690Y-167530357D01*
X145689880Y-167454166D01*
X145727976Y-167377976D01*
X146299404Y-168597023D02*
X146299404Y-168139880D01*
X146299404Y-168368452D02*
X145499404Y-168368452D01*
X145613690Y-168292261D01*
X145689880Y-168216071D01*
X145727976Y-168139880D01*
%TO.C,K19*%
X177288785Y-213622880D02*
X177288785Y-212622880D01*
X176717357Y-213622880D02*
X177145928Y-213051452D01*
X176717357Y-212622880D02*
X177288785Y-213194309D01*
X175764976Y-213622880D02*
X176336404Y-213622880D01*
X176050690Y-213622880D02*
X176050690Y-212622880D01*
X176145928Y-212765738D01*
X176241166Y-212860976D01*
X176336404Y-212908595D01*
X175288785Y-213622880D02*
X175098309Y-213622880D01*
X175003071Y-213575261D01*
X174955452Y-213527642D01*
X174860214Y-213384785D01*
X174812595Y-213194309D01*
X174812595Y-212813357D01*
X174860214Y-212718119D01*
X174907833Y-212670500D01*
X175003071Y-212622880D01*
X175193547Y-212622880D01*
X175288785Y-212670500D01*
X175336404Y-212718119D01*
X175384023Y-212813357D01*
X175384023Y-213051452D01*
X175336404Y-213146690D01*
X175288785Y-213194309D01*
X175193547Y-213241928D01*
X175003071Y-213241928D01*
X174907833Y-213194309D01*
X174860214Y-213146690D01*
X174812595Y-213051452D01*
%TO.C,D57*%
X317799404Y-185616071D02*
X316999404Y-185616071D01*
X316999404Y-185806547D01*
X317037500Y-185920833D01*
X317113690Y-185997023D01*
X317189880Y-186035119D01*
X317342261Y-186073214D01*
X317456547Y-186073214D01*
X317608928Y-186035119D01*
X317685119Y-185997023D01*
X317761309Y-185920833D01*
X317799404Y-185806547D01*
X317799404Y-185616071D01*
X316999404Y-186797023D02*
X316999404Y-186416071D01*
X317380357Y-186377976D01*
X317342261Y-186416071D01*
X317304166Y-186492261D01*
X317304166Y-186682738D01*
X317342261Y-186758928D01*
X317380357Y-186797023D01*
X317456547Y-186835119D01*
X317647023Y-186835119D01*
X317723214Y-186797023D01*
X317761309Y-186758928D01*
X317799404Y-186682738D01*
X317799404Y-186492261D01*
X317761309Y-186416071D01*
X317723214Y-186377976D01*
X316999404Y-187101785D02*
X316999404Y-187635119D01*
X317799404Y-187292261D01*
%TO.C,K22*%
X196338785Y-175522880D02*
X196338785Y-174522880D01*
X195767357Y-175522880D02*
X196195928Y-174951452D01*
X195767357Y-174522880D02*
X196338785Y-175094309D01*
X195386404Y-174618119D02*
X195338785Y-174570500D01*
X195243547Y-174522880D01*
X195005452Y-174522880D01*
X194910214Y-174570500D01*
X194862595Y-174618119D01*
X194814976Y-174713357D01*
X194814976Y-174808595D01*
X194862595Y-174951452D01*
X195434023Y-175522880D01*
X194814976Y-175522880D01*
X194434023Y-174618119D02*
X194386404Y-174570500D01*
X194291166Y-174522880D01*
X194053071Y-174522880D01*
X193957833Y-174570500D01*
X193910214Y-174618119D01*
X193862595Y-174713357D01*
X193862595Y-174808595D01*
X193910214Y-174951452D01*
X194481642Y-175522880D01*
X193862595Y-175522880D01*
%TO.C,D10*%
X127299404Y-242616071D02*
X126499404Y-242616071D01*
X126499404Y-242806547D01*
X126537500Y-242920833D01*
X126613690Y-242997023D01*
X126689880Y-243035119D01*
X126842261Y-243073214D01*
X126956547Y-243073214D01*
X127108928Y-243035119D01*
X127185119Y-242997023D01*
X127261309Y-242920833D01*
X127299404Y-242806547D01*
X127299404Y-242616071D01*
X127299404Y-243835119D02*
X127299404Y-243377976D01*
X127299404Y-243606547D02*
X126499404Y-243606547D01*
X126613690Y-243530357D01*
X126689880Y-243454166D01*
X126727976Y-243377976D01*
X126499404Y-244330357D02*
X126499404Y-244406547D01*
X126537500Y-244482738D01*
X126575595Y-244520833D01*
X126651785Y-244558928D01*
X126804166Y-244597023D01*
X126994642Y-244597023D01*
X127147023Y-244558928D01*
X127223214Y-244520833D01*
X127261309Y-244482738D01*
X127299404Y-244406547D01*
X127299404Y-244330357D01*
X127261309Y-244254166D01*
X127223214Y-244216071D01*
X127147023Y-244177976D01*
X126994642Y-244139880D01*
X126804166Y-244139880D01*
X126651785Y-244177976D01*
X126575595Y-244216071D01*
X126537500Y-244254166D01*
X126499404Y-244330357D01*
%TO.C,K45*%
X272538785Y-232672880D02*
X272538785Y-231672880D01*
X271967357Y-232672880D02*
X272395928Y-232101452D01*
X271967357Y-231672880D02*
X272538785Y-232244309D01*
X271110214Y-232006214D02*
X271110214Y-232672880D01*
X271348309Y-231625261D02*
X271586404Y-232339547D01*
X270967357Y-232339547D01*
X270110214Y-231672880D02*
X270586404Y-231672880D01*
X270634023Y-232149071D01*
X270586404Y-232101452D01*
X270491166Y-232053833D01*
X270253071Y-232053833D01*
X270157833Y-232101452D01*
X270110214Y-232149071D01*
X270062595Y-232244309D01*
X270062595Y-232482404D01*
X270110214Y-232577642D01*
X270157833Y-232625261D01*
X270253071Y-232672880D01*
X270491166Y-232672880D01*
X270586404Y-232625261D01*
X270634023Y-232577642D01*
%TO.C,K20*%
X177288785Y-232672880D02*
X177288785Y-231672880D01*
X176717357Y-232672880D02*
X177145928Y-232101452D01*
X176717357Y-231672880D02*
X177288785Y-232244309D01*
X176336404Y-231768119D02*
X176288785Y-231720500D01*
X176193547Y-231672880D01*
X175955452Y-231672880D01*
X175860214Y-231720500D01*
X175812595Y-231768119D01*
X175764976Y-231863357D01*
X175764976Y-231958595D01*
X175812595Y-232101452D01*
X176384023Y-232672880D01*
X175764976Y-232672880D01*
X175145928Y-231672880D02*
X175050690Y-231672880D01*
X174955452Y-231720500D01*
X174907833Y-231768119D01*
X174860214Y-231863357D01*
X174812595Y-232053833D01*
X174812595Y-232291928D01*
X174860214Y-232482404D01*
X174907833Y-232577642D01*
X174955452Y-232625261D01*
X175050690Y-232672880D01*
X175145928Y-232672880D01*
X175241166Y-232625261D01*
X175288785Y-232577642D01*
X175336404Y-232482404D01*
X175384023Y-232291928D01*
X175384023Y-232053833D01*
X175336404Y-231863357D01*
X175288785Y-231768119D01*
X175241166Y-231720500D01*
X175145928Y-231672880D01*
%TO.C,D1*%
X108299404Y-166997023D02*
X107499404Y-166997023D01*
X107499404Y-167187500D01*
X107537500Y-167301785D01*
X107613690Y-167377976D01*
X107689880Y-167416071D01*
X107842261Y-167454166D01*
X107956547Y-167454166D01*
X108108928Y-167416071D01*
X108185119Y-167377976D01*
X108261309Y-167301785D01*
X108299404Y-167187500D01*
X108299404Y-166997023D01*
X108299404Y-168216071D02*
X108299404Y-167758928D01*
X108299404Y-167987500D02*
X107499404Y-167987500D01*
X107613690Y-167911309D01*
X107689880Y-167835119D01*
X107727976Y-167758928D01*
%TO.C,K30*%
X215388785Y-232672880D02*
X215388785Y-231672880D01*
X214817357Y-232672880D02*
X215245928Y-232101452D01*
X214817357Y-231672880D02*
X215388785Y-232244309D01*
X214484023Y-231672880D02*
X213864976Y-231672880D01*
X214198309Y-232053833D01*
X214055452Y-232053833D01*
X213960214Y-232101452D01*
X213912595Y-232149071D01*
X213864976Y-232244309D01*
X213864976Y-232482404D01*
X213912595Y-232577642D01*
X213960214Y-232625261D01*
X214055452Y-232672880D01*
X214341166Y-232672880D01*
X214436404Y-232625261D01*
X214484023Y-232577642D01*
X213245928Y-231672880D02*
X213150690Y-231672880D01*
X213055452Y-231720500D01*
X213007833Y-231768119D01*
X212960214Y-231863357D01*
X212912595Y-232053833D01*
X212912595Y-232291928D01*
X212960214Y-232482404D01*
X213007833Y-232577642D01*
X213055452Y-232625261D01*
X213150690Y-232672880D01*
X213245928Y-232672880D01*
X213341166Y-232625261D01*
X213388785Y-232577642D01*
X213436404Y-232482404D01*
X213484023Y-232291928D01*
X213484023Y-232053833D01*
X213436404Y-231863357D01*
X213388785Y-231768119D01*
X213341166Y-231720500D01*
X213245928Y-231672880D01*
%TO.C,K28*%
X215388785Y-194572880D02*
X215388785Y-193572880D01*
X214817357Y-194572880D02*
X215245928Y-194001452D01*
X214817357Y-193572880D02*
X215388785Y-194144309D01*
X214436404Y-193668119D02*
X214388785Y-193620500D01*
X214293547Y-193572880D01*
X214055452Y-193572880D01*
X213960214Y-193620500D01*
X213912595Y-193668119D01*
X213864976Y-193763357D01*
X213864976Y-193858595D01*
X213912595Y-194001452D01*
X214484023Y-194572880D01*
X213864976Y-194572880D01*
X213293547Y-194001452D02*
X213388785Y-193953833D01*
X213436404Y-193906214D01*
X213484023Y-193810976D01*
X213484023Y-193763357D01*
X213436404Y-193668119D01*
X213388785Y-193620500D01*
X213293547Y-193572880D01*
X213103071Y-193572880D01*
X213007833Y-193620500D01*
X212960214Y-193668119D01*
X212912595Y-193763357D01*
X212912595Y-193810976D01*
X212960214Y-193906214D01*
X213007833Y-193953833D01*
X213103071Y-194001452D01*
X213293547Y-194001452D01*
X213388785Y-194049071D01*
X213436404Y-194096690D01*
X213484023Y-194191928D01*
X213484023Y-194382404D01*
X213436404Y-194477642D01*
X213388785Y-194525261D01*
X213293547Y-194572880D01*
X213103071Y-194572880D01*
X213007833Y-194525261D01*
X212960214Y-194477642D01*
X212912595Y-194382404D01*
X212912595Y-194191928D01*
X212960214Y-194096690D01*
X213007833Y-194049071D01*
X213103071Y-194001452D01*
%TO.C,K25*%
X196338785Y-232672880D02*
X196338785Y-231672880D01*
X195767357Y-232672880D02*
X196195928Y-232101452D01*
X195767357Y-231672880D02*
X196338785Y-232244309D01*
X195386404Y-231768119D02*
X195338785Y-231720500D01*
X195243547Y-231672880D01*
X195005452Y-231672880D01*
X194910214Y-231720500D01*
X194862595Y-231768119D01*
X194814976Y-231863357D01*
X194814976Y-231958595D01*
X194862595Y-232101452D01*
X195434023Y-232672880D01*
X194814976Y-232672880D01*
X193910214Y-231672880D02*
X194386404Y-231672880D01*
X194434023Y-232149071D01*
X194386404Y-232101452D01*
X194291166Y-232053833D01*
X194053071Y-232053833D01*
X193957833Y-232101452D01*
X193910214Y-232149071D01*
X193862595Y-232244309D01*
X193862595Y-232482404D01*
X193910214Y-232577642D01*
X193957833Y-232625261D01*
X194053071Y-232672880D01*
X194291166Y-232672880D01*
X194386404Y-232625261D01*
X194434023Y-232577642D01*
%TO.C,D60*%
X317799404Y-242616071D02*
X316999404Y-242616071D01*
X316999404Y-242806547D01*
X317037500Y-242920833D01*
X317113690Y-242997023D01*
X317189880Y-243035119D01*
X317342261Y-243073214D01*
X317456547Y-243073214D01*
X317608928Y-243035119D01*
X317685119Y-242997023D01*
X317761309Y-242920833D01*
X317799404Y-242806547D01*
X317799404Y-242616071D01*
X316999404Y-243758928D02*
X316999404Y-243606547D01*
X317037500Y-243530357D01*
X317075595Y-243492261D01*
X317189880Y-243416071D01*
X317342261Y-243377976D01*
X317647023Y-243377976D01*
X317723214Y-243416071D01*
X317761309Y-243454166D01*
X317799404Y-243530357D01*
X317799404Y-243682738D01*
X317761309Y-243758928D01*
X317723214Y-243797023D01*
X317647023Y-243835119D01*
X317456547Y-243835119D01*
X317380357Y-243797023D01*
X317342261Y-243758928D01*
X317304166Y-243682738D01*
X317304166Y-243530357D01*
X317342261Y-243454166D01*
X317380357Y-243416071D01*
X317456547Y-243377976D01*
X316999404Y-244330357D02*
X316999404Y-244406547D01*
X317037500Y-244482738D01*
X317075595Y-244520833D01*
X317151785Y-244558928D01*
X317304166Y-244597023D01*
X317494642Y-244597023D01*
X317647023Y-244558928D01*
X317723214Y-244520833D01*
X317761309Y-244482738D01*
X317799404Y-244406547D01*
X317799404Y-244330357D01*
X317761309Y-244254166D01*
X317723214Y-244216071D01*
X317647023Y-244177976D01*
X317494642Y-244139880D01*
X317304166Y-244139880D01*
X317151785Y-244177976D01*
X317075595Y-244216071D01*
X317037500Y-244254166D01*
X316999404Y-244330357D01*
%TO.C,K51*%
X310638785Y-156472880D02*
X310638785Y-155472880D01*
X310067357Y-156472880D02*
X310495928Y-155901452D01*
X310067357Y-155472880D02*
X310638785Y-156044309D01*
X309162595Y-155472880D02*
X309638785Y-155472880D01*
X309686404Y-155949071D01*
X309638785Y-155901452D01*
X309543547Y-155853833D01*
X309305452Y-155853833D01*
X309210214Y-155901452D01*
X309162595Y-155949071D01*
X309114976Y-156044309D01*
X309114976Y-156282404D01*
X309162595Y-156377642D01*
X309210214Y-156425261D01*
X309305452Y-156472880D01*
X309543547Y-156472880D01*
X309638785Y-156425261D01*
X309686404Y-156377642D01*
X308162595Y-156472880D02*
X308734023Y-156472880D01*
X308448309Y-156472880D02*
X308448309Y-155472880D01*
X308543547Y-155615738D01*
X308638785Y-155710976D01*
X308734023Y-155758595D01*
%TO.C,K10*%
X139188785Y-232672880D02*
X139188785Y-231672880D01*
X138617357Y-232672880D02*
X139045928Y-232101452D01*
X138617357Y-231672880D02*
X139188785Y-232244309D01*
X137664976Y-232672880D02*
X138236404Y-232672880D01*
X137950690Y-232672880D02*
X137950690Y-231672880D01*
X138045928Y-231815738D01*
X138141166Y-231910976D01*
X138236404Y-231958595D01*
X137045928Y-231672880D02*
X136950690Y-231672880D01*
X136855452Y-231720500D01*
X136807833Y-231768119D01*
X136760214Y-231863357D01*
X136712595Y-232053833D01*
X136712595Y-232291928D01*
X136760214Y-232482404D01*
X136807833Y-232577642D01*
X136855452Y-232625261D01*
X136950690Y-232672880D01*
X137045928Y-232672880D01*
X137141166Y-232625261D01*
X137188785Y-232577642D01*
X137236404Y-232482404D01*
X137284023Y-232291928D01*
X137284023Y-232053833D01*
X137236404Y-231863357D01*
X137188785Y-231768119D01*
X137141166Y-231720500D01*
X137045928Y-231672880D01*
%TO.C,K57*%
X329688785Y-175522880D02*
X329688785Y-174522880D01*
X329117357Y-175522880D02*
X329545928Y-174951452D01*
X329117357Y-174522880D02*
X329688785Y-175094309D01*
X328212595Y-174522880D02*
X328688785Y-174522880D01*
X328736404Y-174999071D01*
X328688785Y-174951452D01*
X328593547Y-174903833D01*
X328355452Y-174903833D01*
X328260214Y-174951452D01*
X328212595Y-174999071D01*
X328164976Y-175094309D01*
X328164976Y-175332404D01*
X328212595Y-175427642D01*
X328260214Y-175475261D01*
X328355452Y-175522880D01*
X328593547Y-175522880D01*
X328688785Y-175475261D01*
X328736404Y-175427642D01*
X327831642Y-174522880D02*
X327164976Y-174522880D01*
X327593547Y-175522880D01*
%TO.C,D9*%
X127299404Y-223997023D02*
X126499404Y-223997023D01*
X126499404Y-224187500D01*
X126537500Y-224301785D01*
X126613690Y-224377976D01*
X126689880Y-224416071D01*
X126842261Y-224454166D01*
X126956547Y-224454166D01*
X127108928Y-224416071D01*
X127185119Y-224377976D01*
X127261309Y-224301785D01*
X127299404Y-224187500D01*
X127299404Y-223997023D01*
X127299404Y-224835119D02*
X127299404Y-224987500D01*
X127261309Y-225063690D01*
X127223214Y-225101785D01*
X127108928Y-225177976D01*
X126956547Y-225216071D01*
X126651785Y-225216071D01*
X126575595Y-225177976D01*
X126537500Y-225139880D01*
X126499404Y-225063690D01*
X126499404Y-224911309D01*
X126537500Y-224835119D01*
X126575595Y-224797023D01*
X126651785Y-224758928D01*
X126842261Y-224758928D01*
X126918452Y-224797023D01*
X126956547Y-224835119D01*
X126994642Y-224911309D01*
X126994642Y-225063690D01*
X126956547Y-225139880D01*
X126918452Y-225177976D01*
X126842261Y-225216071D01*
%TO.C,K58*%
X329688785Y-194572880D02*
X329688785Y-193572880D01*
X329117357Y-194572880D02*
X329545928Y-194001452D01*
X329117357Y-193572880D02*
X329688785Y-194144309D01*
X328212595Y-193572880D02*
X328688785Y-193572880D01*
X328736404Y-194049071D01*
X328688785Y-194001452D01*
X328593547Y-193953833D01*
X328355452Y-193953833D01*
X328260214Y-194001452D01*
X328212595Y-194049071D01*
X328164976Y-194144309D01*
X328164976Y-194382404D01*
X328212595Y-194477642D01*
X328260214Y-194525261D01*
X328355452Y-194572880D01*
X328593547Y-194572880D01*
X328688785Y-194525261D01*
X328736404Y-194477642D01*
X327593547Y-194001452D02*
X327688785Y-193953833D01*
X327736404Y-193906214D01*
X327784023Y-193810976D01*
X327784023Y-193763357D01*
X327736404Y-193668119D01*
X327688785Y-193620500D01*
X327593547Y-193572880D01*
X327403071Y-193572880D01*
X327307833Y-193620500D01*
X327260214Y-193668119D01*
X327212595Y-193763357D01*
X327212595Y-193810976D01*
X327260214Y-193906214D01*
X327307833Y-193953833D01*
X327403071Y-194001452D01*
X327593547Y-194001452D01*
X327688785Y-194049071D01*
X327736404Y-194096690D01*
X327784023Y-194191928D01*
X327784023Y-194382404D01*
X327736404Y-194477642D01*
X327688785Y-194525261D01*
X327593547Y-194572880D01*
X327403071Y-194572880D01*
X327307833Y-194525261D01*
X327260214Y-194477642D01*
X327212595Y-194382404D01*
X327212595Y-194191928D01*
X327260214Y-194096690D01*
X327307833Y-194049071D01*
X327403071Y-194001452D01*
%TO.C,D28*%
X203799404Y-204616071D02*
X202999404Y-204616071D01*
X202999404Y-204806547D01*
X203037500Y-204920833D01*
X203113690Y-204997023D01*
X203189880Y-205035119D01*
X203342261Y-205073214D01*
X203456547Y-205073214D01*
X203608928Y-205035119D01*
X203685119Y-204997023D01*
X203761309Y-204920833D01*
X203799404Y-204806547D01*
X203799404Y-204616071D01*
X203075595Y-205377976D02*
X203037500Y-205416071D01*
X202999404Y-205492261D01*
X202999404Y-205682738D01*
X203037500Y-205758928D01*
X203075595Y-205797023D01*
X203151785Y-205835119D01*
X203227976Y-205835119D01*
X203342261Y-205797023D01*
X203799404Y-205339880D01*
X203799404Y-205835119D01*
X203342261Y-206292261D02*
X203304166Y-206216071D01*
X203266071Y-206177976D01*
X203189880Y-206139880D01*
X203151785Y-206139880D01*
X203075595Y-206177976D01*
X203037500Y-206216071D01*
X202999404Y-206292261D01*
X202999404Y-206444642D01*
X203037500Y-206520833D01*
X203075595Y-206558928D01*
X203151785Y-206597023D01*
X203189880Y-206597023D01*
X203266071Y-206558928D01*
X203304166Y-206520833D01*
X203342261Y-206444642D01*
X203342261Y-206292261D01*
X203380357Y-206216071D01*
X203418452Y-206177976D01*
X203494642Y-206139880D01*
X203647023Y-206139880D01*
X203723214Y-206177976D01*
X203761309Y-206216071D01*
X203799404Y-206292261D01*
X203799404Y-206444642D01*
X203761309Y-206520833D01*
X203723214Y-206558928D01*
X203647023Y-206597023D01*
X203494642Y-206597023D01*
X203418452Y-206558928D01*
X203380357Y-206520833D01*
X203342261Y-206444642D01*
%TO.C,D25*%
X184799404Y-242616071D02*
X183999404Y-242616071D01*
X183999404Y-242806547D01*
X184037500Y-242920833D01*
X184113690Y-242997023D01*
X184189880Y-243035119D01*
X184342261Y-243073214D01*
X184456547Y-243073214D01*
X184608928Y-243035119D01*
X184685119Y-242997023D01*
X184761309Y-242920833D01*
X184799404Y-242806547D01*
X184799404Y-242616071D01*
X184075595Y-243377976D02*
X184037500Y-243416071D01*
X183999404Y-243492261D01*
X183999404Y-243682738D01*
X184037500Y-243758928D01*
X184075595Y-243797023D01*
X184151785Y-243835119D01*
X184227976Y-243835119D01*
X184342261Y-243797023D01*
X184799404Y-243339880D01*
X184799404Y-243835119D01*
X183999404Y-244558928D02*
X183999404Y-244177976D01*
X184380357Y-244139880D01*
X184342261Y-244177976D01*
X184304166Y-244254166D01*
X184304166Y-244444642D01*
X184342261Y-244520833D01*
X184380357Y-244558928D01*
X184456547Y-244597023D01*
X184647023Y-244597023D01*
X184723214Y-244558928D01*
X184761309Y-244520833D01*
X184799404Y-244444642D01*
X184799404Y-244254166D01*
X184761309Y-244177976D01*
X184723214Y-244139880D01*
%TO.C,D20*%
X165299404Y-242616071D02*
X164499404Y-242616071D01*
X164499404Y-242806547D01*
X164537500Y-242920833D01*
X164613690Y-242997023D01*
X164689880Y-243035119D01*
X164842261Y-243073214D01*
X164956547Y-243073214D01*
X165108928Y-243035119D01*
X165185119Y-242997023D01*
X165261309Y-242920833D01*
X165299404Y-242806547D01*
X165299404Y-242616071D01*
X164575595Y-243377976D02*
X164537500Y-243416071D01*
X164499404Y-243492261D01*
X164499404Y-243682738D01*
X164537500Y-243758928D01*
X164575595Y-243797023D01*
X164651785Y-243835119D01*
X164727976Y-243835119D01*
X164842261Y-243797023D01*
X165299404Y-243339880D01*
X165299404Y-243835119D01*
X164499404Y-244330357D02*
X164499404Y-244406547D01*
X164537500Y-244482738D01*
X164575595Y-244520833D01*
X164651785Y-244558928D01*
X164804166Y-244597023D01*
X164994642Y-244597023D01*
X165147023Y-244558928D01*
X165223214Y-244520833D01*
X165261309Y-244482738D01*
X165299404Y-244406547D01*
X165299404Y-244330357D01*
X165261309Y-244254166D01*
X165223214Y-244216071D01*
X165147023Y-244177976D01*
X164994642Y-244139880D01*
X164804166Y-244139880D01*
X164651785Y-244177976D01*
X164575595Y-244216071D01*
X164537500Y-244254166D01*
X164499404Y-244330357D01*
%TO.C,D21*%
X184799404Y-166616071D02*
X183999404Y-166616071D01*
X183999404Y-166806547D01*
X184037500Y-166920833D01*
X184113690Y-166997023D01*
X184189880Y-167035119D01*
X184342261Y-167073214D01*
X184456547Y-167073214D01*
X184608928Y-167035119D01*
X184685119Y-166997023D01*
X184761309Y-166920833D01*
X184799404Y-166806547D01*
X184799404Y-166616071D01*
X184075595Y-167377976D02*
X184037500Y-167416071D01*
X183999404Y-167492261D01*
X183999404Y-167682738D01*
X184037500Y-167758928D01*
X184075595Y-167797023D01*
X184151785Y-167835119D01*
X184227976Y-167835119D01*
X184342261Y-167797023D01*
X184799404Y-167339880D01*
X184799404Y-167835119D01*
X184799404Y-168597023D02*
X184799404Y-168139880D01*
X184799404Y-168368452D02*
X183999404Y-168368452D01*
X184113690Y-168292261D01*
X184189880Y-168216071D01*
X184227976Y-168139880D01*
%TO.C,K56*%
X329688785Y-156472880D02*
X329688785Y-155472880D01*
X329117357Y-156472880D02*
X329545928Y-155901452D01*
X329117357Y-155472880D02*
X329688785Y-156044309D01*
X328212595Y-155472880D02*
X328688785Y-155472880D01*
X328736404Y-155949071D01*
X328688785Y-155901452D01*
X328593547Y-155853833D01*
X328355452Y-155853833D01*
X328260214Y-155901452D01*
X328212595Y-155949071D01*
X328164976Y-156044309D01*
X328164976Y-156282404D01*
X328212595Y-156377642D01*
X328260214Y-156425261D01*
X328355452Y-156472880D01*
X328593547Y-156472880D01*
X328688785Y-156425261D01*
X328736404Y-156377642D01*
X327307833Y-155472880D02*
X327498309Y-155472880D01*
X327593547Y-155520500D01*
X327641166Y-155568119D01*
X327736404Y-155710976D01*
X327784023Y-155901452D01*
X327784023Y-156282404D01*
X327736404Y-156377642D01*
X327688785Y-156425261D01*
X327593547Y-156472880D01*
X327403071Y-156472880D01*
X327307833Y-156425261D01*
X327260214Y-156377642D01*
X327212595Y-156282404D01*
X327212595Y-156044309D01*
X327260214Y-155949071D01*
X327307833Y-155901452D01*
X327403071Y-155853833D01*
X327593547Y-155853833D01*
X327688785Y-155901452D01*
X327736404Y-155949071D01*
X327784023Y-156044309D01*
%TO.C,D39*%
X241799404Y-223616071D02*
X240999404Y-223616071D01*
X240999404Y-223806547D01*
X241037500Y-223920833D01*
X241113690Y-223997023D01*
X241189880Y-224035119D01*
X241342261Y-224073214D01*
X241456547Y-224073214D01*
X241608928Y-224035119D01*
X241685119Y-223997023D01*
X241761309Y-223920833D01*
X241799404Y-223806547D01*
X241799404Y-223616071D01*
X240999404Y-224339880D02*
X240999404Y-224835119D01*
X241304166Y-224568452D01*
X241304166Y-224682738D01*
X241342261Y-224758928D01*
X241380357Y-224797023D01*
X241456547Y-224835119D01*
X241647023Y-224835119D01*
X241723214Y-224797023D01*
X241761309Y-224758928D01*
X241799404Y-224682738D01*
X241799404Y-224454166D01*
X241761309Y-224377976D01*
X241723214Y-224339880D01*
X241799404Y-225216071D02*
X241799404Y-225368452D01*
X241761309Y-225444642D01*
X241723214Y-225482738D01*
X241608928Y-225558928D01*
X241456547Y-225597023D01*
X241151785Y-225597023D01*
X241075595Y-225558928D01*
X241037500Y-225520833D01*
X240999404Y-225444642D01*
X240999404Y-225292261D01*
X241037500Y-225216071D01*
X241075595Y-225177976D01*
X241151785Y-225139880D01*
X241342261Y-225139880D01*
X241418452Y-225177976D01*
X241456547Y-225216071D01*
X241494642Y-225292261D01*
X241494642Y-225444642D01*
X241456547Y-225520833D01*
X241418452Y-225558928D01*
X241342261Y-225597023D01*
%TO.C,D45*%
X260799404Y-242616071D02*
X259999404Y-242616071D01*
X259999404Y-242806547D01*
X260037500Y-242920833D01*
X260113690Y-242997023D01*
X260189880Y-243035119D01*
X260342261Y-243073214D01*
X260456547Y-243073214D01*
X260608928Y-243035119D01*
X260685119Y-242997023D01*
X260761309Y-242920833D01*
X260799404Y-242806547D01*
X260799404Y-242616071D01*
X260266071Y-243758928D02*
X260799404Y-243758928D01*
X259961309Y-243568452D02*
X260532738Y-243377976D01*
X260532738Y-243873214D01*
X259999404Y-244558928D02*
X259999404Y-244177976D01*
X260380357Y-244139880D01*
X260342261Y-244177976D01*
X260304166Y-244254166D01*
X260304166Y-244444642D01*
X260342261Y-244520833D01*
X260380357Y-244558928D01*
X260456547Y-244597023D01*
X260647023Y-244597023D01*
X260723214Y-244558928D01*
X260761309Y-244520833D01*
X260799404Y-244444642D01*
X260799404Y-244254166D01*
X260761309Y-244177976D01*
X260723214Y-244139880D01*
%TO.C,K17*%
X177288785Y-175522880D02*
X177288785Y-174522880D01*
X176717357Y-175522880D02*
X177145928Y-174951452D01*
X176717357Y-174522880D02*
X177288785Y-175094309D01*
X175764976Y-175522880D02*
X176336404Y-175522880D01*
X176050690Y-175522880D02*
X176050690Y-174522880D01*
X176145928Y-174665738D01*
X176241166Y-174760976D01*
X176336404Y-174808595D01*
X175431642Y-174522880D02*
X174764976Y-174522880D01*
X175193547Y-175522880D01*
%TO.C,D6*%
X127299404Y-166997023D02*
X126499404Y-166997023D01*
X126499404Y-167187500D01*
X126537500Y-167301785D01*
X126613690Y-167377976D01*
X126689880Y-167416071D01*
X126842261Y-167454166D01*
X126956547Y-167454166D01*
X127108928Y-167416071D01*
X127185119Y-167377976D01*
X127261309Y-167301785D01*
X127299404Y-167187500D01*
X127299404Y-166997023D01*
X126499404Y-168139880D02*
X126499404Y-167987500D01*
X126537500Y-167911309D01*
X126575595Y-167873214D01*
X126689880Y-167797023D01*
X126842261Y-167758928D01*
X127147023Y-167758928D01*
X127223214Y-167797023D01*
X127261309Y-167835119D01*
X127299404Y-167911309D01*
X127299404Y-168063690D01*
X127261309Y-168139880D01*
X127223214Y-168177976D01*
X127147023Y-168216071D01*
X126956547Y-168216071D01*
X126880357Y-168177976D01*
X126842261Y-168139880D01*
X126804166Y-168063690D01*
X126804166Y-167911309D01*
X126842261Y-167835119D01*
X126880357Y-167797023D01*
X126956547Y-167758928D01*
%TO.C,K43*%
X272538785Y-194572880D02*
X272538785Y-193572880D01*
X271967357Y-194572880D02*
X272395928Y-194001452D01*
X271967357Y-193572880D02*
X272538785Y-194144309D01*
X271110214Y-193906214D02*
X271110214Y-194572880D01*
X271348309Y-193525261D02*
X271586404Y-194239547D01*
X270967357Y-194239547D01*
X270681642Y-193572880D02*
X270062595Y-193572880D01*
X270395928Y-193953833D01*
X270253071Y-193953833D01*
X270157833Y-194001452D01*
X270110214Y-194049071D01*
X270062595Y-194144309D01*
X270062595Y-194382404D01*
X270110214Y-194477642D01*
X270157833Y-194525261D01*
X270253071Y-194572880D01*
X270538785Y-194572880D01*
X270634023Y-194525261D01*
X270681642Y-194477642D01*
%TO.C,D36*%
X241799404Y-166616071D02*
X240999404Y-166616071D01*
X240999404Y-166806547D01*
X241037500Y-166920833D01*
X241113690Y-166997023D01*
X241189880Y-167035119D01*
X241342261Y-167073214D01*
X241456547Y-167073214D01*
X241608928Y-167035119D01*
X241685119Y-166997023D01*
X241761309Y-166920833D01*
X241799404Y-166806547D01*
X241799404Y-166616071D01*
X240999404Y-167339880D02*
X240999404Y-167835119D01*
X241304166Y-167568452D01*
X241304166Y-167682738D01*
X241342261Y-167758928D01*
X241380357Y-167797023D01*
X241456547Y-167835119D01*
X241647023Y-167835119D01*
X241723214Y-167797023D01*
X241761309Y-167758928D01*
X241799404Y-167682738D01*
X241799404Y-167454166D01*
X241761309Y-167377976D01*
X241723214Y-167339880D01*
X240999404Y-168520833D02*
X240999404Y-168368452D01*
X241037500Y-168292261D01*
X241075595Y-168254166D01*
X241189880Y-168177976D01*
X241342261Y-168139880D01*
X241647023Y-168139880D01*
X241723214Y-168177976D01*
X241761309Y-168216071D01*
X241799404Y-168292261D01*
X241799404Y-168444642D01*
X241761309Y-168520833D01*
X241723214Y-168558928D01*
X241647023Y-168597023D01*
X241456547Y-168597023D01*
X241380357Y-168558928D01*
X241342261Y-168520833D01*
X241304166Y-168444642D01*
X241304166Y-168292261D01*
X241342261Y-168216071D01*
X241380357Y-168177976D01*
X241456547Y-168139880D01*
%TO.C,K39*%
X253488785Y-213622880D02*
X253488785Y-212622880D01*
X252917357Y-213622880D02*
X253345928Y-213051452D01*
X252917357Y-212622880D02*
X253488785Y-213194309D01*
X252584023Y-212622880D02*
X251964976Y-212622880D01*
X252298309Y-213003833D01*
X252155452Y-213003833D01*
X252060214Y-213051452D01*
X252012595Y-213099071D01*
X251964976Y-213194309D01*
X251964976Y-213432404D01*
X252012595Y-213527642D01*
X252060214Y-213575261D01*
X252155452Y-213622880D01*
X252441166Y-213622880D01*
X252536404Y-213575261D01*
X252584023Y-213527642D01*
X251488785Y-213622880D02*
X251298309Y-213622880D01*
X251203071Y-213575261D01*
X251155452Y-213527642D01*
X251060214Y-213384785D01*
X251012595Y-213194309D01*
X251012595Y-212813357D01*
X251060214Y-212718119D01*
X251107833Y-212670500D01*
X251203071Y-212622880D01*
X251393547Y-212622880D01*
X251488785Y-212670500D01*
X251536404Y-212718119D01*
X251584023Y-212813357D01*
X251584023Y-213051452D01*
X251536404Y-213146690D01*
X251488785Y-213194309D01*
X251393547Y-213241928D01*
X251203071Y-213241928D01*
X251107833Y-213194309D01*
X251060214Y-213146690D01*
X251012595Y-213051452D01*
%TO.C,D33*%
X222799404Y-204616071D02*
X221999404Y-204616071D01*
X221999404Y-204806547D01*
X222037500Y-204920833D01*
X222113690Y-204997023D01*
X222189880Y-205035119D01*
X222342261Y-205073214D01*
X222456547Y-205073214D01*
X222608928Y-205035119D01*
X222685119Y-204997023D01*
X222761309Y-204920833D01*
X222799404Y-204806547D01*
X222799404Y-204616071D01*
X221999404Y-205339880D02*
X221999404Y-205835119D01*
X222304166Y-205568452D01*
X222304166Y-205682738D01*
X222342261Y-205758928D01*
X222380357Y-205797023D01*
X222456547Y-205835119D01*
X222647023Y-205835119D01*
X222723214Y-205797023D01*
X222761309Y-205758928D01*
X222799404Y-205682738D01*
X222799404Y-205454166D01*
X222761309Y-205377976D01*
X222723214Y-205339880D01*
X221999404Y-206101785D02*
X221999404Y-206597023D01*
X222304166Y-206330357D01*
X222304166Y-206444642D01*
X222342261Y-206520833D01*
X222380357Y-206558928D01*
X222456547Y-206597023D01*
X222647023Y-206597023D01*
X222723214Y-206558928D01*
X222761309Y-206520833D01*
X222799404Y-206444642D01*
X222799404Y-206216071D01*
X222761309Y-206139880D01*
X222723214Y-206101785D01*
%TO.C,K18*%
X177288785Y-194572880D02*
X177288785Y-193572880D01*
X176717357Y-194572880D02*
X177145928Y-194001452D01*
X176717357Y-193572880D02*
X177288785Y-194144309D01*
X175764976Y-194572880D02*
X176336404Y-194572880D01*
X176050690Y-194572880D02*
X176050690Y-193572880D01*
X176145928Y-193715738D01*
X176241166Y-193810976D01*
X176336404Y-193858595D01*
X175193547Y-194001452D02*
X175288785Y-193953833D01*
X175336404Y-193906214D01*
X175384023Y-193810976D01*
X175384023Y-193763357D01*
X175336404Y-193668119D01*
X175288785Y-193620500D01*
X175193547Y-193572880D01*
X175003071Y-193572880D01*
X174907833Y-193620500D01*
X174860214Y-193668119D01*
X174812595Y-193763357D01*
X174812595Y-193810976D01*
X174860214Y-193906214D01*
X174907833Y-193953833D01*
X175003071Y-194001452D01*
X175193547Y-194001452D01*
X175288785Y-194049071D01*
X175336404Y-194096690D01*
X175384023Y-194191928D01*
X175384023Y-194382404D01*
X175336404Y-194477642D01*
X175288785Y-194525261D01*
X175193547Y-194572880D01*
X175003071Y-194572880D01*
X174907833Y-194525261D01*
X174860214Y-194477642D01*
X174812595Y-194382404D01*
X174812595Y-194191928D01*
X174860214Y-194096690D01*
X174907833Y-194049071D01*
X175003071Y-194001452D01*
%TO.C,D53*%
X298799404Y-204616071D02*
X297999404Y-204616071D01*
X297999404Y-204806547D01*
X298037500Y-204920833D01*
X298113690Y-204997023D01*
X298189880Y-205035119D01*
X298342261Y-205073214D01*
X298456547Y-205073214D01*
X298608928Y-205035119D01*
X298685119Y-204997023D01*
X298761309Y-204920833D01*
X298799404Y-204806547D01*
X298799404Y-204616071D01*
X297999404Y-205797023D02*
X297999404Y-205416071D01*
X298380357Y-205377976D01*
X298342261Y-205416071D01*
X298304166Y-205492261D01*
X298304166Y-205682738D01*
X298342261Y-205758928D01*
X298380357Y-205797023D01*
X298456547Y-205835119D01*
X298647023Y-205835119D01*
X298723214Y-205797023D01*
X298761309Y-205758928D01*
X298799404Y-205682738D01*
X298799404Y-205492261D01*
X298761309Y-205416071D01*
X298723214Y-205377976D01*
X297999404Y-206101785D02*
X297999404Y-206597023D01*
X298304166Y-206330357D01*
X298304166Y-206444642D01*
X298342261Y-206520833D01*
X298380357Y-206558928D01*
X298456547Y-206597023D01*
X298647023Y-206597023D01*
X298723214Y-206558928D01*
X298761309Y-206520833D01*
X298799404Y-206444642D01*
X298799404Y-206216071D01*
X298761309Y-206139880D01*
X298723214Y-206101785D01*
%TO.C,K3*%
X119662595Y-194572880D02*
X119662595Y-193572880D01*
X119091166Y-194572880D02*
X119519738Y-194001452D01*
X119091166Y-193572880D02*
X119662595Y-194144309D01*
X118757833Y-193572880D02*
X118138785Y-193572880D01*
X118472119Y-193953833D01*
X118329261Y-193953833D01*
X118234023Y-194001452D01*
X118186404Y-194049071D01*
X118138785Y-194144309D01*
X118138785Y-194382404D01*
X118186404Y-194477642D01*
X118234023Y-194525261D01*
X118329261Y-194572880D01*
X118614976Y-194572880D01*
X118710214Y-194525261D01*
X118757833Y-194477642D01*
%TO.C,K48*%
X291588785Y-194572880D02*
X291588785Y-193572880D01*
X291017357Y-194572880D02*
X291445928Y-194001452D01*
X291017357Y-193572880D02*
X291588785Y-194144309D01*
X290160214Y-193906214D02*
X290160214Y-194572880D01*
X290398309Y-193525261D02*
X290636404Y-194239547D01*
X290017357Y-194239547D01*
X289493547Y-194001452D02*
X289588785Y-193953833D01*
X289636404Y-193906214D01*
X289684023Y-193810976D01*
X289684023Y-193763357D01*
X289636404Y-193668119D01*
X289588785Y-193620500D01*
X289493547Y-193572880D01*
X289303071Y-193572880D01*
X289207833Y-193620500D01*
X289160214Y-193668119D01*
X289112595Y-193763357D01*
X289112595Y-193810976D01*
X289160214Y-193906214D01*
X289207833Y-193953833D01*
X289303071Y-194001452D01*
X289493547Y-194001452D01*
X289588785Y-194049071D01*
X289636404Y-194096690D01*
X289684023Y-194191928D01*
X289684023Y-194382404D01*
X289636404Y-194477642D01*
X289588785Y-194525261D01*
X289493547Y-194572880D01*
X289303071Y-194572880D01*
X289207833Y-194525261D01*
X289160214Y-194477642D01*
X289112595Y-194382404D01*
X289112595Y-194191928D01*
X289160214Y-194096690D01*
X289207833Y-194049071D01*
X289303071Y-194001452D01*
%TO.C,K6*%
X138712595Y-156472880D02*
X138712595Y-155472880D01*
X138141166Y-156472880D02*
X138569738Y-155901452D01*
X138141166Y-155472880D02*
X138712595Y-156044309D01*
X137284023Y-155472880D02*
X137474500Y-155472880D01*
X137569738Y-155520500D01*
X137617357Y-155568119D01*
X137712595Y-155710976D01*
X137760214Y-155901452D01*
X137760214Y-156282404D01*
X137712595Y-156377642D01*
X137664976Y-156425261D01*
X137569738Y-156472880D01*
X137379261Y-156472880D01*
X137284023Y-156425261D01*
X137236404Y-156377642D01*
X137188785Y-156282404D01*
X137188785Y-156044309D01*
X137236404Y-155949071D01*
X137284023Y-155901452D01*
X137379261Y-155853833D01*
X137569738Y-155853833D01*
X137664976Y-155901452D01*
X137712595Y-155949071D01*
X137760214Y-156044309D01*
%TO.C,D22*%
X184799404Y-185616071D02*
X183999404Y-185616071D01*
X183999404Y-185806547D01*
X184037500Y-185920833D01*
X184113690Y-185997023D01*
X184189880Y-186035119D01*
X184342261Y-186073214D01*
X184456547Y-186073214D01*
X184608928Y-186035119D01*
X184685119Y-185997023D01*
X184761309Y-185920833D01*
X184799404Y-185806547D01*
X184799404Y-185616071D01*
X184075595Y-186377976D02*
X184037500Y-186416071D01*
X183999404Y-186492261D01*
X183999404Y-186682738D01*
X184037500Y-186758928D01*
X184075595Y-186797023D01*
X184151785Y-186835119D01*
X184227976Y-186835119D01*
X184342261Y-186797023D01*
X184799404Y-186339880D01*
X184799404Y-186835119D01*
X184075595Y-187139880D02*
X184037500Y-187177976D01*
X183999404Y-187254166D01*
X183999404Y-187444642D01*
X184037500Y-187520833D01*
X184075595Y-187558928D01*
X184151785Y-187597023D01*
X184227976Y-187597023D01*
X184342261Y-187558928D01*
X184799404Y-187101785D01*
X184799404Y-187597023D01*
%TO.C,D49*%
X279799404Y-223616071D02*
X278999404Y-223616071D01*
X278999404Y-223806547D01*
X279037500Y-223920833D01*
X279113690Y-223997023D01*
X279189880Y-224035119D01*
X279342261Y-224073214D01*
X279456547Y-224073214D01*
X279608928Y-224035119D01*
X279685119Y-223997023D01*
X279761309Y-223920833D01*
X279799404Y-223806547D01*
X279799404Y-223616071D01*
X279266071Y-224758928D02*
X279799404Y-224758928D01*
X278961309Y-224568452D02*
X279532738Y-224377976D01*
X279532738Y-224873214D01*
X279799404Y-225216071D02*
X279799404Y-225368452D01*
X279761309Y-225444642D01*
X279723214Y-225482738D01*
X279608928Y-225558928D01*
X279456547Y-225597023D01*
X279151785Y-225597023D01*
X279075595Y-225558928D01*
X279037500Y-225520833D01*
X278999404Y-225444642D01*
X278999404Y-225292261D01*
X279037500Y-225216071D01*
X279075595Y-225177976D01*
X279151785Y-225139880D01*
X279342261Y-225139880D01*
X279418452Y-225177976D01*
X279456547Y-225216071D01*
X279494642Y-225292261D01*
X279494642Y-225444642D01*
X279456547Y-225520833D01*
X279418452Y-225558928D01*
X279342261Y-225597023D01*
%TO.C,K7*%
X138712595Y-175522880D02*
X138712595Y-174522880D01*
X138141166Y-175522880D02*
X138569738Y-174951452D01*
X138141166Y-174522880D02*
X138712595Y-175094309D01*
X137807833Y-174522880D02*
X137141166Y-174522880D01*
X137569738Y-175522880D01*
%TO.C,K53*%
X310638785Y-194572880D02*
X310638785Y-193572880D01*
X310067357Y-194572880D02*
X310495928Y-194001452D01*
X310067357Y-193572880D02*
X310638785Y-194144309D01*
X309162595Y-193572880D02*
X309638785Y-193572880D01*
X309686404Y-194049071D01*
X309638785Y-194001452D01*
X309543547Y-193953833D01*
X309305452Y-193953833D01*
X309210214Y-194001452D01*
X309162595Y-194049071D01*
X309114976Y-194144309D01*
X309114976Y-194382404D01*
X309162595Y-194477642D01*
X309210214Y-194525261D01*
X309305452Y-194572880D01*
X309543547Y-194572880D01*
X309638785Y-194525261D01*
X309686404Y-194477642D01*
X308781642Y-193572880D02*
X308162595Y-193572880D01*
X308495928Y-193953833D01*
X308353071Y-193953833D01*
X308257833Y-194001452D01*
X308210214Y-194049071D01*
X308162595Y-194144309D01*
X308162595Y-194382404D01*
X308210214Y-194477642D01*
X308257833Y-194525261D01*
X308353071Y-194572880D01*
X308638785Y-194572880D01*
X308734023Y-194525261D01*
X308781642Y-194477642D01*
%TO.C,D40*%
X241799404Y-242616071D02*
X240999404Y-242616071D01*
X240999404Y-242806547D01*
X241037500Y-242920833D01*
X241113690Y-242997023D01*
X241189880Y-243035119D01*
X241342261Y-243073214D01*
X241456547Y-243073214D01*
X241608928Y-243035119D01*
X241685119Y-242997023D01*
X241761309Y-242920833D01*
X241799404Y-242806547D01*
X241799404Y-242616071D01*
X241266071Y-243758928D02*
X241799404Y-243758928D01*
X240961309Y-243568452D02*
X241532738Y-243377976D01*
X241532738Y-243873214D01*
X240999404Y-244330357D02*
X240999404Y-244406547D01*
X241037500Y-244482738D01*
X241075595Y-244520833D01*
X241151785Y-244558928D01*
X241304166Y-244597023D01*
X241494642Y-244597023D01*
X241647023Y-244558928D01*
X241723214Y-244520833D01*
X241761309Y-244482738D01*
X241799404Y-244406547D01*
X241799404Y-244330357D01*
X241761309Y-244254166D01*
X241723214Y-244216071D01*
X241647023Y-244177976D01*
X241494642Y-244139880D01*
X241304166Y-244139880D01*
X241151785Y-244177976D01*
X241075595Y-244216071D01*
X241037500Y-244254166D01*
X240999404Y-244330357D01*
%TO.C,D19*%
X165299404Y-223616071D02*
X164499404Y-223616071D01*
X164499404Y-223806547D01*
X164537500Y-223920833D01*
X164613690Y-223997023D01*
X164689880Y-224035119D01*
X164842261Y-224073214D01*
X164956547Y-224073214D01*
X165108928Y-224035119D01*
X165185119Y-223997023D01*
X165261309Y-223920833D01*
X165299404Y-223806547D01*
X165299404Y-223616071D01*
X165299404Y-224835119D02*
X165299404Y-224377976D01*
X165299404Y-224606547D02*
X164499404Y-224606547D01*
X164613690Y-224530357D01*
X164689880Y-224454166D01*
X164727976Y-224377976D01*
X165299404Y-225216071D02*
X165299404Y-225368452D01*
X165261309Y-225444642D01*
X165223214Y-225482738D01*
X165108928Y-225558928D01*
X164956547Y-225597023D01*
X164651785Y-225597023D01*
X164575595Y-225558928D01*
X164537500Y-225520833D01*
X164499404Y-225444642D01*
X164499404Y-225292261D01*
X164537500Y-225216071D01*
X164575595Y-225177976D01*
X164651785Y-225139880D01*
X164842261Y-225139880D01*
X164918452Y-225177976D01*
X164956547Y-225216071D01*
X164994642Y-225292261D01*
X164994642Y-225444642D01*
X164956547Y-225520833D01*
X164918452Y-225558928D01*
X164842261Y-225597023D01*
%TO.C,K16*%
X177288785Y-156472880D02*
X177288785Y-155472880D01*
X176717357Y-156472880D02*
X177145928Y-155901452D01*
X176717357Y-155472880D02*
X177288785Y-156044309D01*
X175764976Y-156472880D02*
X176336404Y-156472880D01*
X176050690Y-156472880D02*
X176050690Y-155472880D01*
X176145928Y-155615738D01*
X176241166Y-155710976D01*
X176336404Y-155758595D01*
X174907833Y-155472880D02*
X175098309Y-155472880D01*
X175193547Y-155520500D01*
X175241166Y-155568119D01*
X175336404Y-155710976D01*
X175384023Y-155901452D01*
X175384023Y-156282404D01*
X175336404Y-156377642D01*
X175288785Y-156425261D01*
X175193547Y-156472880D01*
X175003071Y-156472880D01*
X174907833Y-156425261D01*
X174860214Y-156377642D01*
X174812595Y-156282404D01*
X174812595Y-156044309D01*
X174860214Y-155949071D01*
X174907833Y-155901452D01*
X175003071Y-155853833D01*
X175193547Y-155853833D01*
X175288785Y-155901452D01*
X175336404Y-155949071D01*
X175384023Y-156044309D01*
%TO.C,D3*%
X108299404Y-204997023D02*
X107499404Y-204997023D01*
X107499404Y-205187500D01*
X107537500Y-205301785D01*
X107613690Y-205377976D01*
X107689880Y-205416071D01*
X107842261Y-205454166D01*
X107956547Y-205454166D01*
X108108928Y-205416071D01*
X108185119Y-205377976D01*
X108261309Y-205301785D01*
X108299404Y-205187500D01*
X108299404Y-204997023D01*
X107499404Y-205720833D02*
X107499404Y-206216071D01*
X107804166Y-205949404D01*
X107804166Y-206063690D01*
X107842261Y-206139880D01*
X107880357Y-206177976D01*
X107956547Y-206216071D01*
X108147023Y-206216071D01*
X108223214Y-206177976D01*
X108261309Y-206139880D01*
X108299404Y-206063690D01*
X108299404Y-205835119D01*
X108261309Y-205758928D01*
X108223214Y-205720833D01*
%TO.C,K54*%
X310638785Y-213622880D02*
X310638785Y-212622880D01*
X310067357Y-213622880D02*
X310495928Y-213051452D01*
X310067357Y-212622880D02*
X310638785Y-213194309D01*
X309162595Y-212622880D02*
X309638785Y-212622880D01*
X309686404Y-213099071D01*
X309638785Y-213051452D01*
X309543547Y-213003833D01*
X309305452Y-213003833D01*
X309210214Y-213051452D01*
X309162595Y-213099071D01*
X309114976Y-213194309D01*
X309114976Y-213432404D01*
X309162595Y-213527642D01*
X309210214Y-213575261D01*
X309305452Y-213622880D01*
X309543547Y-213622880D01*
X309638785Y-213575261D01*
X309686404Y-213527642D01*
X308257833Y-212956214D02*
X308257833Y-213622880D01*
X308495928Y-212575261D02*
X308734023Y-213289547D01*
X308114976Y-213289547D01*
%TO.C,K36*%
X253488785Y-156472880D02*
X253488785Y-155472880D01*
X252917357Y-156472880D02*
X253345928Y-155901452D01*
X252917357Y-155472880D02*
X253488785Y-156044309D01*
X252584023Y-155472880D02*
X251964976Y-155472880D01*
X252298309Y-155853833D01*
X252155452Y-155853833D01*
X252060214Y-155901452D01*
X252012595Y-155949071D01*
X251964976Y-156044309D01*
X251964976Y-156282404D01*
X252012595Y-156377642D01*
X252060214Y-156425261D01*
X252155452Y-156472880D01*
X252441166Y-156472880D01*
X252536404Y-156425261D01*
X252584023Y-156377642D01*
X251107833Y-155472880D02*
X251298309Y-155472880D01*
X251393547Y-155520500D01*
X251441166Y-155568119D01*
X251536404Y-155710976D01*
X251584023Y-155901452D01*
X251584023Y-156282404D01*
X251536404Y-156377642D01*
X251488785Y-156425261D01*
X251393547Y-156472880D01*
X251203071Y-156472880D01*
X251107833Y-156425261D01*
X251060214Y-156377642D01*
X251012595Y-156282404D01*
X251012595Y-156044309D01*
X251060214Y-155949071D01*
X251107833Y-155901452D01*
X251203071Y-155853833D01*
X251393547Y-155853833D01*
X251488785Y-155901452D01*
X251536404Y-155949071D01*
X251584023Y-156044309D01*
%TO.C,K27*%
X215388785Y-175522880D02*
X215388785Y-174522880D01*
X214817357Y-175522880D02*
X215245928Y-174951452D01*
X214817357Y-174522880D02*
X215388785Y-175094309D01*
X214436404Y-174618119D02*
X214388785Y-174570500D01*
X214293547Y-174522880D01*
X214055452Y-174522880D01*
X213960214Y-174570500D01*
X213912595Y-174618119D01*
X213864976Y-174713357D01*
X213864976Y-174808595D01*
X213912595Y-174951452D01*
X214484023Y-175522880D01*
X213864976Y-175522880D01*
X213531642Y-174522880D02*
X212864976Y-174522880D01*
X213293547Y-175522880D01*
%TO.C,K26*%
X215388785Y-156472880D02*
X215388785Y-155472880D01*
X214817357Y-156472880D02*
X215245928Y-155901452D01*
X214817357Y-155472880D02*
X215388785Y-156044309D01*
X214436404Y-155568119D02*
X214388785Y-155520500D01*
X214293547Y-155472880D01*
X214055452Y-155472880D01*
X213960214Y-155520500D01*
X213912595Y-155568119D01*
X213864976Y-155663357D01*
X213864976Y-155758595D01*
X213912595Y-155901452D01*
X214484023Y-156472880D01*
X213864976Y-156472880D01*
X213007833Y-155472880D02*
X213198309Y-155472880D01*
X213293547Y-155520500D01*
X213341166Y-155568119D01*
X213436404Y-155710976D01*
X213484023Y-155901452D01*
X213484023Y-156282404D01*
X213436404Y-156377642D01*
X213388785Y-156425261D01*
X213293547Y-156472880D01*
X213103071Y-156472880D01*
X213007833Y-156425261D01*
X212960214Y-156377642D01*
X212912595Y-156282404D01*
X212912595Y-156044309D01*
X212960214Y-155949071D01*
X213007833Y-155901452D01*
X213103071Y-155853833D01*
X213293547Y-155853833D01*
X213388785Y-155901452D01*
X213436404Y-155949071D01*
X213484023Y-156044309D01*
%TO.C,D5*%
X108299404Y-242997023D02*
X107499404Y-242997023D01*
X107499404Y-243187500D01*
X107537500Y-243301785D01*
X107613690Y-243377976D01*
X107689880Y-243416071D01*
X107842261Y-243454166D01*
X107956547Y-243454166D01*
X108108928Y-243416071D01*
X108185119Y-243377976D01*
X108261309Y-243301785D01*
X108299404Y-243187500D01*
X108299404Y-242997023D01*
X107499404Y-244177976D02*
X107499404Y-243797023D01*
X107880357Y-243758928D01*
X107842261Y-243797023D01*
X107804166Y-243873214D01*
X107804166Y-244063690D01*
X107842261Y-244139880D01*
X107880357Y-244177976D01*
X107956547Y-244216071D01*
X108147023Y-244216071D01*
X108223214Y-244177976D01*
X108261309Y-244139880D01*
X108299404Y-244063690D01*
X108299404Y-243873214D01*
X108261309Y-243797023D01*
X108223214Y-243758928D01*
%TO.C,K37*%
X253488785Y-175522880D02*
X253488785Y-174522880D01*
X252917357Y-175522880D02*
X253345928Y-174951452D01*
X252917357Y-174522880D02*
X253488785Y-175094309D01*
X252584023Y-174522880D02*
X251964976Y-174522880D01*
X252298309Y-174903833D01*
X252155452Y-174903833D01*
X252060214Y-174951452D01*
X252012595Y-174999071D01*
X251964976Y-175094309D01*
X251964976Y-175332404D01*
X252012595Y-175427642D01*
X252060214Y-175475261D01*
X252155452Y-175522880D01*
X252441166Y-175522880D01*
X252536404Y-175475261D01*
X252584023Y-175427642D01*
X251631642Y-174522880D02*
X250964976Y-174522880D01*
X251393547Y-175522880D01*
%TO.C,K44*%
X272538785Y-213622880D02*
X272538785Y-212622880D01*
X271967357Y-213622880D02*
X272395928Y-213051452D01*
X271967357Y-212622880D02*
X272538785Y-213194309D01*
X271110214Y-212956214D02*
X271110214Y-213622880D01*
X271348309Y-212575261D02*
X271586404Y-213289547D01*
X270967357Y-213289547D01*
X270157833Y-212956214D02*
X270157833Y-213622880D01*
X270395928Y-212575261D02*
X270634023Y-213289547D01*
X270014976Y-213289547D01*
%TO.C,D35*%
X222799404Y-242616071D02*
X221999404Y-242616071D01*
X221999404Y-242806547D01*
X222037500Y-242920833D01*
X222113690Y-242997023D01*
X222189880Y-243035119D01*
X222342261Y-243073214D01*
X222456547Y-243073214D01*
X222608928Y-243035119D01*
X222685119Y-242997023D01*
X222761309Y-242920833D01*
X222799404Y-242806547D01*
X222799404Y-242616071D01*
X221999404Y-243339880D02*
X221999404Y-243835119D01*
X222304166Y-243568452D01*
X222304166Y-243682738D01*
X222342261Y-243758928D01*
X222380357Y-243797023D01*
X222456547Y-243835119D01*
X222647023Y-243835119D01*
X222723214Y-243797023D01*
X222761309Y-243758928D01*
X222799404Y-243682738D01*
X222799404Y-243454166D01*
X222761309Y-243377976D01*
X222723214Y-243339880D01*
X221999404Y-244558928D02*
X221999404Y-244177976D01*
X222380357Y-244139880D01*
X222342261Y-244177976D01*
X222304166Y-244254166D01*
X222304166Y-244444642D01*
X222342261Y-244520833D01*
X222380357Y-244558928D01*
X222456547Y-244597023D01*
X222647023Y-244597023D01*
X222723214Y-244558928D01*
X222761309Y-244520833D01*
X222799404Y-244444642D01*
X222799404Y-244254166D01*
X222761309Y-244177976D01*
X222723214Y-244139880D01*
%TO.C,D27*%
X203799404Y-185616071D02*
X202999404Y-185616071D01*
X202999404Y-185806547D01*
X203037500Y-185920833D01*
X203113690Y-185997023D01*
X203189880Y-186035119D01*
X203342261Y-186073214D01*
X203456547Y-186073214D01*
X203608928Y-186035119D01*
X203685119Y-185997023D01*
X203761309Y-185920833D01*
X203799404Y-185806547D01*
X203799404Y-185616071D01*
X203075595Y-186377976D02*
X203037500Y-186416071D01*
X202999404Y-186492261D01*
X202999404Y-186682738D01*
X203037500Y-186758928D01*
X203075595Y-186797023D01*
X203151785Y-186835119D01*
X203227976Y-186835119D01*
X203342261Y-186797023D01*
X203799404Y-186339880D01*
X203799404Y-186835119D01*
X202999404Y-187101785D02*
X202999404Y-187635119D01*
X203799404Y-187292261D01*
%TO.C,D44*%
X260799404Y-223616071D02*
X259999404Y-223616071D01*
X259999404Y-223806547D01*
X260037500Y-223920833D01*
X260113690Y-223997023D01*
X260189880Y-224035119D01*
X260342261Y-224073214D01*
X260456547Y-224073214D01*
X260608928Y-224035119D01*
X260685119Y-223997023D01*
X260761309Y-223920833D01*
X260799404Y-223806547D01*
X260799404Y-223616071D01*
X260266071Y-224758928D02*
X260799404Y-224758928D01*
X259961309Y-224568452D02*
X260532738Y-224377976D01*
X260532738Y-224873214D01*
X260266071Y-225520833D02*
X260799404Y-225520833D01*
X259961309Y-225330357D02*
X260532738Y-225139880D01*
X260532738Y-225635119D01*
%TO.C,D47*%
X279799404Y-185616071D02*
X278999404Y-185616071D01*
X278999404Y-185806547D01*
X279037500Y-185920833D01*
X279113690Y-185997023D01*
X279189880Y-186035119D01*
X279342261Y-186073214D01*
X279456547Y-186073214D01*
X279608928Y-186035119D01*
X279685119Y-185997023D01*
X279761309Y-185920833D01*
X279799404Y-185806547D01*
X279799404Y-185616071D01*
X279266071Y-186758928D02*
X279799404Y-186758928D01*
X278961309Y-186568452D02*
X279532738Y-186377976D01*
X279532738Y-186873214D01*
X278999404Y-187101785D02*
X278999404Y-187635119D01*
X279799404Y-187292261D01*
%TO.C,D2*%
X108299404Y-185997023D02*
X107499404Y-185997023D01*
X107499404Y-186187500D01*
X107537500Y-186301785D01*
X107613690Y-186377976D01*
X107689880Y-186416071D01*
X107842261Y-186454166D01*
X107956547Y-186454166D01*
X108108928Y-186416071D01*
X108185119Y-186377976D01*
X108261309Y-186301785D01*
X108299404Y-186187500D01*
X108299404Y-185997023D01*
X107575595Y-186758928D02*
X107537500Y-186797023D01*
X107499404Y-186873214D01*
X107499404Y-187063690D01*
X107537500Y-187139880D01*
X107575595Y-187177976D01*
X107651785Y-187216071D01*
X107727976Y-187216071D01*
X107842261Y-187177976D01*
X108299404Y-186720833D01*
X108299404Y-187216071D01*
%TO.C,D26*%
X203799404Y-166616071D02*
X202999404Y-166616071D01*
X202999404Y-166806547D01*
X203037500Y-166920833D01*
X203113690Y-166997023D01*
X203189880Y-167035119D01*
X203342261Y-167073214D01*
X203456547Y-167073214D01*
X203608928Y-167035119D01*
X203685119Y-166997023D01*
X203761309Y-166920833D01*
X203799404Y-166806547D01*
X203799404Y-166616071D01*
X203075595Y-167377976D02*
X203037500Y-167416071D01*
X202999404Y-167492261D01*
X202999404Y-167682738D01*
X203037500Y-167758928D01*
X203075595Y-167797023D01*
X203151785Y-167835119D01*
X203227976Y-167835119D01*
X203342261Y-167797023D01*
X203799404Y-167339880D01*
X203799404Y-167835119D01*
X202999404Y-168520833D02*
X202999404Y-168368452D01*
X203037500Y-168292261D01*
X203075595Y-168254166D01*
X203189880Y-168177976D01*
X203342261Y-168139880D01*
X203647023Y-168139880D01*
X203723214Y-168177976D01*
X203761309Y-168216071D01*
X203799404Y-168292261D01*
X203799404Y-168444642D01*
X203761309Y-168520833D01*
X203723214Y-168558928D01*
X203647023Y-168597023D01*
X203456547Y-168597023D01*
X203380357Y-168558928D01*
X203342261Y-168520833D01*
X203304166Y-168444642D01*
X203304166Y-168292261D01*
X203342261Y-168216071D01*
X203380357Y-168177976D01*
X203456547Y-168139880D01*
%TO.C,D30*%
X203799404Y-242616071D02*
X202999404Y-242616071D01*
X202999404Y-242806547D01*
X203037500Y-242920833D01*
X203113690Y-242997023D01*
X203189880Y-243035119D01*
X203342261Y-243073214D01*
X203456547Y-243073214D01*
X203608928Y-243035119D01*
X203685119Y-242997023D01*
X203761309Y-242920833D01*
X203799404Y-242806547D01*
X203799404Y-242616071D01*
X202999404Y-243339880D02*
X202999404Y-243835119D01*
X203304166Y-243568452D01*
X203304166Y-243682738D01*
X203342261Y-243758928D01*
X203380357Y-243797023D01*
X203456547Y-243835119D01*
X203647023Y-243835119D01*
X203723214Y-243797023D01*
X203761309Y-243758928D01*
X203799404Y-243682738D01*
X203799404Y-243454166D01*
X203761309Y-243377976D01*
X203723214Y-243339880D01*
X202999404Y-244330357D02*
X202999404Y-244406547D01*
X203037500Y-244482738D01*
X203075595Y-244520833D01*
X203151785Y-244558928D01*
X203304166Y-244597023D01*
X203494642Y-244597023D01*
X203647023Y-244558928D01*
X203723214Y-244520833D01*
X203761309Y-244482738D01*
X203799404Y-244406547D01*
X203799404Y-244330357D01*
X203761309Y-244254166D01*
X203723214Y-244216071D01*
X203647023Y-244177976D01*
X203494642Y-244139880D01*
X203304166Y-244139880D01*
X203151785Y-244177976D01*
X203075595Y-244216071D01*
X203037500Y-244254166D01*
X202999404Y-244330357D01*
%TO.C,D31*%
X222799404Y-166616071D02*
X221999404Y-166616071D01*
X221999404Y-166806547D01*
X222037500Y-166920833D01*
X222113690Y-166997023D01*
X222189880Y-167035119D01*
X222342261Y-167073214D01*
X222456547Y-167073214D01*
X222608928Y-167035119D01*
X222685119Y-166997023D01*
X222761309Y-166920833D01*
X222799404Y-166806547D01*
X222799404Y-166616071D01*
X221999404Y-167339880D02*
X221999404Y-167835119D01*
X222304166Y-167568452D01*
X222304166Y-167682738D01*
X222342261Y-167758928D01*
X222380357Y-167797023D01*
X222456547Y-167835119D01*
X222647023Y-167835119D01*
X222723214Y-167797023D01*
X222761309Y-167758928D01*
X222799404Y-167682738D01*
X222799404Y-167454166D01*
X222761309Y-167377976D01*
X222723214Y-167339880D01*
X222799404Y-168597023D02*
X222799404Y-168139880D01*
X222799404Y-168368452D02*
X221999404Y-168368452D01*
X222113690Y-168292261D01*
X222189880Y-168216071D01*
X222227976Y-168139880D01*
%TO.C,D51*%
X298799404Y-166616071D02*
X297999404Y-166616071D01*
X297999404Y-166806547D01*
X298037500Y-166920833D01*
X298113690Y-166997023D01*
X298189880Y-167035119D01*
X298342261Y-167073214D01*
X298456547Y-167073214D01*
X298608928Y-167035119D01*
X298685119Y-166997023D01*
X298761309Y-166920833D01*
X298799404Y-166806547D01*
X298799404Y-166616071D01*
X297999404Y-167797023D02*
X297999404Y-167416071D01*
X298380357Y-167377976D01*
X298342261Y-167416071D01*
X298304166Y-167492261D01*
X298304166Y-167682738D01*
X298342261Y-167758928D01*
X298380357Y-167797023D01*
X298456547Y-167835119D01*
X298647023Y-167835119D01*
X298723214Y-167797023D01*
X298761309Y-167758928D01*
X298799404Y-167682738D01*
X298799404Y-167492261D01*
X298761309Y-167416071D01*
X298723214Y-167377976D01*
X298799404Y-168597023D02*
X298799404Y-168139880D01*
X298799404Y-168368452D02*
X297999404Y-168368452D01*
X298113690Y-168292261D01*
X298189880Y-168216071D01*
X298227976Y-168139880D01*
%TO.C,K59*%
X329688785Y-213622880D02*
X329688785Y-212622880D01*
X329117357Y-213622880D02*
X329545928Y-213051452D01*
X329117357Y-212622880D02*
X329688785Y-213194309D01*
X328212595Y-212622880D02*
X328688785Y-212622880D01*
X328736404Y-213099071D01*
X328688785Y-213051452D01*
X328593547Y-213003833D01*
X328355452Y-213003833D01*
X328260214Y-213051452D01*
X328212595Y-213099071D01*
X328164976Y-213194309D01*
X328164976Y-213432404D01*
X328212595Y-213527642D01*
X328260214Y-213575261D01*
X328355452Y-213622880D01*
X328593547Y-213622880D01*
X328688785Y-213575261D01*
X328736404Y-213527642D01*
X327688785Y-213622880D02*
X327498309Y-213622880D01*
X327403071Y-213575261D01*
X327355452Y-213527642D01*
X327260214Y-213384785D01*
X327212595Y-213194309D01*
X327212595Y-212813357D01*
X327260214Y-212718119D01*
X327307833Y-212670500D01*
X327403071Y-212622880D01*
X327593547Y-212622880D01*
X327688785Y-212670500D01*
X327736404Y-212718119D01*
X327784023Y-212813357D01*
X327784023Y-213051452D01*
X327736404Y-213146690D01*
X327688785Y-213194309D01*
X327593547Y-213241928D01*
X327403071Y-213241928D01*
X327307833Y-213194309D01*
X327260214Y-213146690D01*
X327212595Y-213051452D01*
%TO.C,D8*%
X127299404Y-204997023D02*
X126499404Y-204997023D01*
X126499404Y-205187500D01*
X126537500Y-205301785D01*
X126613690Y-205377976D01*
X126689880Y-205416071D01*
X126842261Y-205454166D01*
X126956547Y-205454166D01*
X127108928Y-205416071D01*
X127185119Y-205377976D01*
X127261309Y-205301785D01*
X127299404Y-205187500D01*
X127299404Y-204997023D01*
X126842261Y-205911309D02*
X126804166Y-205835119D01*
X126766071Y-205797023D01*
X126689880Y-205758928D01*
X126651785Y-205758928D01*
X126575595Y-205797023D01*
X126537500Y-205835119D01*
X126499404Y-205911309D01*
X126499404Y-206063690D01*
X126537500Y-206139880D01*
X126575595Y-206177976D01*
X126651785Y-206216071D01*
X126689880Y-206216071D01*
X126766071Y-206177976D01*
X126804166Y-206139880D01*
X126842261Y-206063690D01*
X126842261Y-205911309D01*
X126880357Y-205835119D01*
X126918452Y-205797023D01*
X126994642Y-205758928D01*
X127147023Y-205758928D01*
X127223214Y-205797023D01*
X127261309Y-205835119D01*
X127299404Y-205911309D01*
X127299404Y-206063690D01*
X127261309Y-206139880D01*
X127223214Y-206177976D01*
X127147023Y-206216071D01*
X126994642Y-206216071D01*
X126918452Y-206177976D01*
X126880357Y-206139880D01*
X126842261Y-206063690D01*
%TO.C,K11*%
X158238785Y-156472880D02*
X158238785Y-155472880D01*
X157667357Y-156472880D02*
X158095928Y-155901452D01*
X157667357Y-155472880D02*
X158238785Y-156044309D01*
X156714976Y-156472880D02*
X157286404Y-156472880D01*
X157000690Y-156472880D02*
X157000690Y-155472880D01*
X157095928Y-155615738D01*
X157191166Y-155710976D01*
X157286404Y-155758595D01*
X155762595Y-156472880D02*
X156334023Y-156472880D01*
X156048309Y-156472880D02*
X156048309Y-155472880D01*
X156143547Y-155615738D01*
X156238785Y-155710976D01*
X156334023Y-155758595D01*
%TO.C,K13*%
X158238785Y-194572880D02*
X158238785Y-193572880D01*
X157667357Y-194572880D02*
X158095928Y-194001452D01*
X157667357Y-193572880D02*
X158238785Y-194144309D01*
X156714976Y-194572880D02*
X157286404Y-194572880D01*
X157000690Y-194572880D02*
X157000690Y-193572880D01*
X157095928Y-193715738D01*
X157191166Y-193810976D01*
X157286404Y-193858595D01*
X156381642Y-193572880D02*
X155762595Y-193572880D01*
X156095928Y-193953833D01*
X155953071Y-193953833D01*
X155857833Y-194001452D01*
X155810214Y-194049071D01*
X155762595Y-194144309D01*
X155762595Y-194382404D01*
X155810214Y-194477642D01*
X155857833Y-194525261D01*
X155953071Y-194572880D01*
X156238785Y-194572880D01*
X156334023Y-194525261D01*
X156381642Y-194477642D01*
%TO.C,K38*%
X253488785Y-194572880D02*
X253488785Y-193572880D01*
X252917357Y-194572880D02*
X253345928Y-194001452D01*
X252917357Y-193572880D02*
X253488785Y-194144309D01*
X252584023Y-193572880D02*
X251964976Y-193572880D01*
X252298309Y-193953833D01*
X252155452Y-193953833D01*
X252060214Y-194001452D01*
X252012595Y-194049071D01*
X251964976Y-194144309D01*
X251964976Y-194382404D01*
X252012595Y-194477642D01*
X252060214Y-194525261D01*
X252155452Y-194572880D01*
X252441166Y-194572880D01*
X252536404Y-194525261D01*
X252584023Y-194477642D01*
X251393547Y-194001452D02*
X251488785Y-193953833D01*
X251536404Y-193906214D01*
X251584023Y-193810976D01*
X251584023Y-193763357D01*
X251536404Y-193668119D01*
X251488785Y-193620500D01*
X251393547Y-193572880D01*
X251203071Y-193572880D01*
X251107833Y-193620500D01*
X251060214Y-193668119D01*
X251012595Y-193763357D01*
X251012595Y-193810976D01*
X251060214Y-193906214D01*
X251107833Y-193953833D01*
X251203071Y-194001452D01*
X251393547Y-194001452D01*
X251488785Y-194049071D01*
X251536404Y-194096690D01*
X251584023Y-194191928D01*
X251584023Y-194382404D01*
X251536404Y-194477642D01*
X251488785Y-194525261D01*
X251393547Y-194572880D01*
X251203071Y-194572880D01*
X251107833Y-194525261D01*
X251060214Y-194477642D01*
X251012595Y-194382404D01*
X251012595Y-194191928D01*
X251060214Y-194096690D01*
X251107833Y-194049071D01*
X251203071Y-194001452D01*
%TO.C,K49*%
X291588785Y-213622880D02*
X291588785Y-212622880D01*
X291017357Y-213622880D02*
X291445928Y-213051452D01*
X291017357Y-212622880D02*
X291588785Y-213194309D01*
X290160214Y-212956214D02*
X290160214Y-213622880D01*
X290398309Y-212575261D02*
X290636404Y-213289547D01*
X290017357Y-213289547D01*
X289588785Y-213622880D02*
X289398309Y-213622880D01*
X289303071Y-213575261D01*
X289255452Y-213527642D01*
X289160214Y-213384785D01*
X289112595Y-213194309D01*
X289112595Y-212813357D01*
X289160214Y-212718119D01*
X289207833Y-212670500D01*
X289303071Y-212622880D01*
X289493547Y-212622880D01*
X289588785Y-212670500D01*
X289636404Y-212718119D01*
X289684023Y-212813357D01*
X289684023Y-213051452D01*
X289636404Y-213146690D01*
X289588785Y-213194309D01*
X289493547Y-213241928D01*
X289303071Y-213241928D01*
X289207833Y-213194309D01*
X289160214Y-213146690D01*
X289112595Y-213051452D01*
%TO.C,K50*%
X291588785Y-232672880D02*
X291588785Y-231672880D01*
X291017357Y-232672880D02*
X291445928Y-232101452D01*
X291017357Y-231672880D02*
X291588785Y-232244309D01*
X290112595Y-231672880D02*
X290588785Y-231672880D01*
X290636404Y-232149071D01*
X290588785Y-232101452D01*
X290493547Y-232053833D01*
X290255452Y-232053833D01*
X290160214Y-232101452D01*
X290112595Y-232149071D01*
X290064976Y-232244309D01*
X290064976Y-232482404D01*
X290112595Y-232577642D01*
X290160214Y-232625261D01*
X290255452Y-232672880D01*
X290493547Y-232672880D01*
X290588785Y-232625261D01*
X290636404Y-232577642D01*
X289445928Y-231672880D02*
X289350690Y-231672880D01*
X289255452Y-231720500D01*
X289207833Y-231768119D01*
X289160214Y-231863357D01*
X289112595Y-232053833D01*
X289112595Y-232291928D01*
X289160214Y-232482404D01*
X289207833Y-232577642D01*
X289255452Y-232625261D01*
X289350690Y-232672880D01*
X289445928Y-232672880D01*
X289541166Y-232625261D01*
X289588785Y-232577642D01*
X289636404Y-232482404D01*
X289684023Y-232291928D01*
X289684023Y-232053833D01*
X289636404Y-231863357D01*
X289588785Y-231768119D01*
X289541166Y-231720500D01*
X289445928Y-231672880D01*
%TO.C,D13*%
X146299404Y-204616071D02*
X145499404Y-204616071D01*
X145499404Y-204806547D01*
X145537500Y-204920833D01*
X145613690Y-204997023D01*
X145689880Y-205035119D01*
X145842261Y-205073214D01*
X145956547Y-205073214D01*
X146108928Y-205035119D01*
X146185119Y-204997023D01*
X146261309Y-204920833D01*
X146299404Y-204806547D01*
X146299404Y-204616071D01*
X146299404Y-205835119D02*
X146299404Y-205377976D01*
X146299404Y-205606547D02*
X145499404Y-205606547D01*
X145613690Y-205530357D01*
X145689880Y-205454166D01*
X145727976Y-205377976D01*
X145499404Y-206101785D02*
X145499404Y-206597023D01*
X145804166Y-206330357D01*
X145804166Y-206444642D01*
X145842261Y-206520833D01*
X145880357Y-206558928D01*
X145956547Y-206597023D01*
X146147023Y-206597023D01*
X146223214Y-206558928D01*
X146261309Y-206520833D01*
X146299404Y-206444642D01*
X146299404Y-206216071D01*
X146261309Y-206139880D01*
X146223214Y-206101785D01*
%TO.C,D56*%
X317799404Y-166616071D02*
X316999404Y-166616071D01*
X316999404Y-166806547D01*
X317037500Y-166920833D01*
X317113690Y-166997023D01*
X317189880Y-167035119D01*
X317342261Y-167073214D01*
X317456547Y-167073214D01*
X317608928Y-167035119D01*
X317685119Y-166997023D01*
X317761309Y-166920833D01*
X317799404Y-166806547D01*
X317799404Y-166616071D01*
X316999404Y-167797023D02*
X316999404Y-167416071D01*
X317380357Y-167377976D01*
X317342261Y-167416071D01*
X317304166Y-167492261D01*
X317304166Y-167682738D01*
X317342261Y-167758928D01*
X317380357Y-167797023D01*
X317456547Y-167835119D01*
X317647023Y-167835119D01*
X317723214Y-167797023D01*
X317761309Y-167758928D01*
X317799404Y-167682738D01*
X317799404Y-167492261D01*
X317761309Y-167416071D01*
X317723214Y-167377976D01*
X316999404Y-168520833D02*
X316999404Y-168368452D01*
X317037500Y-168292261D01*
X317075595Y-168254166D01*
X317189880Y-168177976D01*
X317342261Y-168139880D01*
X317647023Y-168139880D01*
X317723214Y-168177976D01*
X317761309Y-168216071D01*
X317799404Y-168292261D01*
X317799404Y-168444642D01*
X317761309Y-168520833D01*
X317723214Y-168558928D01*
X317647023Y-168597023D01*
X317456547Y-168597023D01*
X317380357Y-168558928D01*
X317342261Y-168520833D01*
X317304166Y-168444642D01*
X317304166Y-168292261D01*
X317342261Y-168216071D01*
X317380357Y-168177976D01*
X317456547Y-168139880D01*
%TO.C,K40*%
X253488785Y-232672880D02*
X253488785Y-231672880D01*
X252917357Y-232672880D02*
X253345928Y-232101452D01*
X252917357Y-231672880D02*
X253488785Y-232244309D01*
X252060214Y-232006214D02*
X252060214Y-232672880D01*
X252298309Y-231625261D02*
X252536404Y-232339547D01*
X251917357Y-232339547D01*
X251345928Y-231672880D02*
X251250690Y-231672880D01*
X251155452Y-231720500D01*
X251107833Y-231768119D01*
X251060214Y-231863357D01*
X251012595Y-232053833D01*
X251012595Y-232291928D01*
X251060214Y-232482404D01*
X251107833Y-232577642D01*
X251155452Y-232625261D01*
X251250690Y-232672880D01*
X251345928Y-232672880D01*
X251441166Y-232625261D01*
X251488785Y-232577642D01*
X251536404Y-232482404D01*
X251584023Y-232291928D01*
X251584023Y-232053833D01*
X251536404Y-231863357D01*
X251488785Y-231768119D01*
X251441166Y-231720500D01*
X251345928Y-231672880D01*
%TO.C,D23*%
X184799404Y-204616071D02*
X183999404Y-204616071D01*
X183999404Y-204806547D01*
X184037500Y-204920833D01*
X184113690Y-204997023D01*
X184189880Y-205035119D01*
X184342261Y-205073214D01*
X184456547Y-205073214D01*
X184608928Y-205035119D01*
X184685119Y-204997023D01*
X184761309Y-204920833D01*
X184799404Y-204806547D01*
X184799404Y-204616071D01*
X184075595Y-205377976D02*
X184037500Y-205416071D01*
X183999404Y-205492261D01*
X183999404Y-205682738D01*
X184037500Y-205758928D01*
X184075595Y-205797023D01*
X184151785Y-205835119D01*
X184227976Y-205835119D01*
X184342261Y-205797023D01*
X184799404Y-205339880D01*
X184799404Y-205835119D01*
X183999404Y-206101785D02*
X183999404Y-206597023D01*
X184304166Y-206330357D01*
X184304166Y-206444642D01*
X184342261Y-206520833D01*
X184380357Y-206558928D01*
X184456547Y-206597023D01*
X184647023Y-206597023D01*
X184723214Y-206558928D01*
X184761309Y-206520833D01*
X184799404Y-206444642D01*
X184799404Y-206216071D01*
X184761309Y-206139880D01*
X184723214Y-206101785D01*
%TO.C,D52*%
X298799404Y-185616071D02*
X297999404Y-185616071D01*
X297999404Y-185806547D01*
X298037500Y-185920833D01*
X298113690Y-185997023D01*
X298189880Y-186035119D01*
X298342261Y-186073214D01*
X298456547Y-186073214D01*
X298608928Y-186035119D01*
X298685119Y-185997023D01*
X298761309Y-185920833D01*
X298799404Y-185806547D01*
X298799404Y-185616071D01*
X297999404Y-186797023D02*
X297999404Y-186416071D01*
X298380357Y-186377976D01*
X298342261Y-186416071D01*
X298304166Y-186492261D01*
X298304166Y-186682738D01*
X298342261Y-186758928D01*
X298380357Y-186797023D01*
X298456547Y-186835119D01*
X298647023Y-186835119D01*
X298723214Y-186797023D01*
X298761309Y-186758928D01*
X298799404Y-186682738D01*
X298799404Y-186492261D01*
X298761309Y-186416071D01*
X298723214Y-186377976D01*
X298075595Y-187139880D02*
X298037500Y-187177976D01*
X297999404Y-187254166D01*
X297999404Y-187444642D01*
X298037500Y-187520833D01*
X298075595Y-187558928D01*
X298151785Y-187597023D01*
X298227976Y-187597023D01*
X298342261Y-187558928D01*
X298799404Y-187101785D01*
X298799404Y-187597023D01*
%TO.C,K29*%
X215388785Y-213622880D02*
X215388785Y-212622880D01*
X214817357Y-213622880D02*
X215245928Y-213051452D01*
X214817357Y-212622880D02*
X215388785Y-213194309D01*
X214436404Y-212718119D02*
X214388785Y-212670500D01*
X214293547Y-212622880D01*
X214055452Y-212622880D01*
X213960214Y-212670500D01*
X213912595Y-212718119D01*
X213864976Y-212813357D01*
X213864976Y-212908595D01*
X213912595Y-213051452D01*
X214484023Y-213622880D01*
X213864976Y-213622880D01*
X213388785Y-213622880D02*
X213198309Y-213622880D01*
X213103071Y-213575261D01*
X213055452Y-213527642D01*
X212960214Y-213384785D01*
X212912595Y-213194309D01*
X212912595Y-212813357D01*
X212960214Y-212718119D01*
X213007833Y-212670500D01*
X213103071Y-212622880D01*
X213293547Y-212622880D01*
X213388785Y-212670500D01*
X213436404Y-212718119D01*
X213484023Y-212813357D01*
X213484023Y-213051452D01*
X213436404Y-213146690D01*
X213388785Y-213194309D01*
X213293547Y-213241928D01*
X213103071Y-213241928D01*
X213007833Y-213194309D01*
X212960214Y-213146690D01*
X212912595Y-213051452D01*
%TO.C,D38*%
X241799404Y-204616071D02*
X240999404Y-204616071D01*
X240999404Y-204806547D01*
X241037500Y-204920833D01*
X241113690Y-204997023D01*
X241189880Y-205035119D01*
X241342261Y-205073214D01*
X241456547Y-205073214D01*
X241608928Y-205035119D01*
X241685119Y-204997023D01*
X241761309Y-204920833D01*
X241799404Y-204806547D01*
X241799404Y-204616071D01*
X240999404Y-205339880D02*
X240999404Y-205835119D01*
X241304166Y-205568452D01*
X241304166Y-205682738D01*
X241342261Y-205758928D01*
X241380357Y-205797023D01*
X241456547Y-205835119D01*
X241647023Y-205835119D01*
X241723214Y-205797023D01*
X241761309Y-205758928D01*
X241799404Y-205682738D01*
X241799404Y-205454166D01*
X241761309Y-205377976D01*
X241723214Y-205339880D01*
X241342261Y-206292261D02*
X241304166Y-206216071D01*
X241266071Y-206177976D01*
X241189880Y-206139880D01*
X241151785Y-206139880D01*
X241075595Y-206177976D01*
X241037500Y-206216071D01*
X240999404Y-206292261D01*
X240999404Y-206444642D01*
X241037500Y-206520833D01*
X241075595Y-206558928D01*
X241151785Y-206597023D01*
X241189880Y-206597023D01*
X241266071Y-206558928D01*
X241304166Y-206520833D01*
X241342261Y-206444642D01*
X241342261Y-206292261D01*
X241380357Y-206216071D01*
X241418452Y-206177976D01*
X241494642Y-206139880D01*
X241647023Y-206139880D01*
X241723214Y-206177976D01*
X241761309Y-206216071D01*
X241799404Y-206292261D01*
X241799404Y-206444642D01*
X241761309Y-206520833D01*
X241723214Y-206558928D01*
X241647023Y-206597023D01*
X241494642Y-206597023D01*
X241418452Y-206558928D01*
X241380357Y-206520833D01*
X241342261Y-206444642D01*
%TO.C,D43*%
X260799404Y-204616071D02*
X259999404Y-204616071D01*
X259999404Y-204806547D01*
X260037500Y-204920833D01*
X260113690Y-204997023D01*
X260189880Y-205035119D01*
X260342261Y-205073214D01*
X260456547Y-205073214D01*
X260608928Y-205035119D01*
X260685119Y-204997023D01*
X260761309Y-204920833D01*
X260799404Y-204806547D01*
X260799404Y-204616071D01*
X260266071Y-205758928D02*
X260799404Y-205758928D01*
X259961309Y-205568452D02*
X260532738Y-205377976D01*
X260532738Y-205873214D01*
X259999404Y-206101785D02*
X259999404Y-206597023D01*
X260304166Y-206330357D01*
X260304166Y-206444642D01*
X260342261Y-206520833D01*
X260380357Y-206558928D01*
X260456547Y-206597023D01*
X260647023Y-206597023D01*
X260723214Y-206558928D01*
X260761309Y-206520833D01*
X260799404Y-206444642D01*
X260799404Y-206216071D01*
X260761309Y-206139880D01*
X260723214Y-206101785D01*
%TO.C,K21*%
X196338785Y-156472880D02*
X196338785Y-155472880D01*
X195767357Y-156472880D02*
X196195928Y-155901452D01*
X195767357Y-155472880D02*
X196338785Y-156044309D01*
X195386404Y-155568119D02*
X195338785Y-155520500D01*
X195243547Y-155472880D01*
X195005452Y-155472880D01*
X194910214Y-155520500D01*
X194862595Y-155568119D01*
X194814976Y-155663357D01*
X194814976Y-155758595D01*
X194862595Y-155901452D01*
X195434023Y-156472880D01*
X194814976Y-156472880D01*
X193862595Y-156472880D02*
X194434023Y-156472880D01*
X194148309Y-156472880D02*
X194148309Y-155472880D01*
X194243547Y-155615738D01*
X194338785Y-155710976D01*
X194434023Y-155758595D01*
%TO.C,K5*%
X119662595Y-232672880D02*
X119662595Y-231672880D01*
X119091166Y-232672880D02*
X119519738Y-232101452D01*
X119091166Y-231672880D02*
X119662595Y-232244309D01*
X118186404Y-231672880D02*
X118662595Y-231672880D01*
X118710214Y-232149071D01*
X118662595Y-232101452D01*
X118567357Y-232053833D01*
X118329261Y-232053833D01*
X118234023Y-232101452D01*
X118186404Y-232149071D01*
X118138785Y-232244309D01*
X118138785Y-232482404D01*
X118186404Y-232577642D01*
X118234023Y-232625261D01*
X118329261Y-232672880D01*
X118567357Y-232672880D01*
X118662595Y-232625261D01*
X118710214Y-232577642D01*
%TO.C,D29*%
X203799404Y-223616071D02*
X202999404Y-223616071D01*
X202999404Y-223806547D01*
X203037500Y-223920833D01*
X203113690Y-223997023D01*
X203189880Y-224035119D01*
X203342261Y-224073214D01*
X203456547Y-224073214D01*
X203608928Y-224035119D01*
X203685119Y-223997023D01*
X203761309Y-223920833D01*
X203799404Y-223806547D01*
X203799404Y-223616071D01*
X203075595Y-224377976D02*
X203037500Y-224416071D01*
X202999404Y-224492261D01*
X202999404Y-224682738D01*
X203037500Y-224758928D01*
X203075595Y-224797023D01*
X203151785Y-224835119D01*
X203227976Y-224835119D01*
X203342261Y-224797023D01*
X203799404Y-224339880D01*
X203799404Y-224835119D01*
X203799404Y-225216071D02*
X203799404Y-225368452D01*
X203761309Y-225444642D01*
X203723214Y-225482738D01*
X203608928Y-225558928D01*
X203456547Y-225597023D01*
X203151785Y-225597023D01*
X203075595Y-225558928D01*
X203037500Y-225520833D01*
X202999404Y-225444642D01*
X202999404Y-225292261D01*
X203037500Y-225216071D01*
X203075595Y-225177976D01*
X203151785Y-225139880D01*
X203342261Y-225139880D01*
X203418452Y-225177976D01*
X203456547Y-225216071D01*
X203494642Y-225292261D01*
X203494642Y-225444642D01*
X203456547Y-225520833D01*
X203418452Y-225558928D01*
X203342261Y-225597023D01*
%TO.C,D41*%
X260799404Y-166616071D02*
X259999404Y-166616071D01*
X259999404Y-166806547D01*
X260037500Y-166920833D01*
X260113690Y-166997023D01*
X260189880Y-167035119D01*
X260342261Y-167073214D01*
X260456547Y-167073214D01*
X260608928Y-167035119D01*
X260685119Y-166997023D01*
X260761309Y-166920833D01*
X260799404Y-166806547D01*
X260799404Y-166616071D01*
X260266071Y-167758928D02*
X260799404Y-167758928D01*
X259961309Y-167568452D02*
X260532738Y-167377976D01*
X260532738Y-167873214D01*
X260799404Y-168597023D02*
X260799404Y-168139880D01*
X260799404Y-168368452D02*
X259999404Y-168368452D01*
X260113690Y-168292261D01*
X260189880Y-168216071D01*
X260227976Y-168139880D01*
%TO.C,D32*%
X222799404Y-185616071D02*
X221999404Y-185616071D01*
X221999404Y-185806547D01*
X222037500Y-185920833D01*
X222113690Y-185997023D01*
X222189880Y-186035119D01*
X222342261Y-186073214D01*
X222456547Y-186073214D01*
X222608928Y-186035119D01*
X222685119Y-185997023D01*
X222761309Y-185920833D01*
X222799404Y-185806547D01*
X222799404Y-185616071D01*
X221999404Y-186339880D02*
X221999404Y-186835119D01*
X222304166Y-186568452D01*
X222304166Y-186682738D01*
X222342261Y-186758928D01*
X222380357Y-186797023D01*
X222456547Y-186835119D01*
X222647023Y-186835119D01*
X222723214Y-186797023D01*
X222761309Y-186758928D01*
X222799404Y-186682738D01*
X222799404Y-186454166D01*
X222761309Y-186377976D01*
X222723214Y-186339880D01*
X222075595Y-187139880D02*
X222037500Y-187177976D01*
X221999404Y-187254166D01*
X221999404Y-187444642D01*
X222037500Y-187520833D01*
X222075595Y-187558928D01*
X222151785Y-187597023D01*
X222227976Y-187597023D01*
X222342261Y-187558928D01*
X222799404Y-187101785D01*
X222799404Y-187597023D01*
%TO.C,D48*%
X279799404Y-204616071D02*
X278999404Y-204616071D01*
X278999404Y-204806547D01*
X279037500Y-204920833D01*
X279113690Y-204997023D01*
X279189880Y-205035119D01*
X279342261Y-205073214D01*
X279456547Y-205073214D01*
X279608928Y-205035119D01*
X279685119Y-204997023D01*
X279761309Y-204920833D01*
X279799404Y-204806547D01*
X279799404Y-204616071D01*
X279266071Y-205758928D02*
X279799404Y-205758928D01*
X278961309Y-205568452D02*
X279532738Y-205377976D01*
X279532738Y-205873214D01*
X279342261Y-206292261D02*
X279304166Y-206216071D01*
X279266071Y-206177976D01*
X279189880Y-206139880D01*
X279151785Y-206139880D01*
X279075595Y-206177976D01*
X279037500Y-206216071D01*
X278999404Y-206292261D01*
X278999404Y-206444642D01*
X279037500Y-206520833D01*
X279075595Y-206558928D01*
X279151785Y-206597023D01*
X279189880Y-206597023D01*
X279266071Y-206558928D01*
X279304166Y-206520833D01*
X279342261Y-206444642D01*
X279342261Y-206292261D01*
X279380357Y-206216071D01*
X279418452Y-206177976D01*
X279494642Y-206139880D01*
X279647023Y-206139880D01*
X279723214Y-206177976D01*
X279761309Y-206216071D01*
X279799404Y-206292261D01*
X279799404Y-206444642D01*
X279761309Y-206520833D01*
X279723214Y-206558928D01*
X279647023Y-206597023D01*
X279494642Y-206597023D01*
X279418452Y-206558928D01*
X279380357Y-206520833D01*
X279342261Y-206444642D01*
%TO.C,K4*%
X119662595Y-213622880D02*
X119662595Y-212622880D01*
X119091166Y-213622880D02*
X119519738Y-213051452D01*
X119091166Y-212622880D02*
X119662595Y-213194309D01*
X118234023Y-212956214D02*
X118234023Y-213622880D01*
X118472119Y-212575261D02*
X118710214Y-213289547D01*
X118091166Y-213289547D01*
%TO.C,K8*%
X138712595Y-194572880D02*
X138712595Y-193572880D01*
X138141166Y-194572880D02*
X138569738Y-194001452D01*
X138141166Y-193572880D02*
X138712595Y-194144309D01*
X137569738Y-194001452D02*
X137664976Y-193953833D01*
X137712595Y-193906214D01*
X137760214Y-193810976D01*
X137760214Y-193763357D01*
X137712595Y-193668119D01*
X137664976Y-193620500D01*
X137569738Y-193572880D01*
X137379261Y-193572880D01*
X137284023Y-193620500D01*
X137236404Y-193668119D01*
X137188785Y-193763357D01*
X137188785Y-193810976D01*
X137236404Y-193906214D01*
X137284023Y-193953833D01*
X137379261Y-194001452D01*
X137569738Y-194001452D01*
X137664976Y-194049071D01*
X137712595Y-194096690D01*
X137760214Y-194191928D01*
X137760214Y-194382404D01*
X137712595Y-194477642D01*
X137664976Y-194525261D01*
X137569738Y-194572880D01*
X137379261Y-194572880D01*
X137284023Y-194525261D01*
X137236404Y-194477642D01*
X137188785Y-194382404D01*
X137188785Y-194191928D01*
X137236404Y-194096690D01*
X137284023Y-194049071D01*
X137379261Y-194001452D01*
%TO.C,K35*%
X234438785Y-232672880D02*
X234438785Y-231672880D01*
X233867357Y-232672880D02*
X234295928Y-232101452D01*
X233867357Y-231672880D02*
X234438785Y-232244309D01*
X233534023Y-231672880D02*
X232914976Y-231672880D01*
X233248309Y-232053833D01*
X233105452Y-232053833D01*
X233010214Y-232101452D01*
X232962595Y-232149071D01*
X232914976Y-232244309D01*
X232914976Y-232482404D01*
X232962595Y-232577642D01*
X233010214Y-232625261D01*
X233105452Y-232672880D01*
X233391166Y-232672880D01*
X233486404Y-232625261D01*
X233534023Y-232577642D01*
X232010214Y-231672880D02*
X232486404Y-231672880D01*
X232534023Y-232149071D01*
X232486404Y-232101452D01*
X232391166Y-232053833D01*
X232153071Y-232053833D01*
X232057833Y-232101452D01*
X232010214Y-232149071D01*
X231962595Y-232244309D01*
X231962595Y-232482404D01*
X232010214Y-232577642D01*
X232057833Y-232625261D01*
X232153071Y-232672880D01*
X232391166Y-232672880D01*
X232486404Y-232625261D01*
X232534023Y-232577642D01*
%TO.C,K52*%
X310638785Y-175522880D02*
X310638785Y-174522880D01*
X310067357Y-175522880D02*
X310495928Y-174951452D01*
X310067357Y-174522880D02*
X310638785Y-175094309D01*
X309162595Y-174522880D02*
X309638785Y-174522880D01*
X309686404Y-174999071D01*
X309638785Y-174951452D01*
X309543547Y-174903833D01*
X309305452Y-174903833D01*
X309210214Y-174951452D01*
X309162595Y-174999071D01*
X309114976Y-175094309D01*
X309114976Y-175332404D01*
X309162595Y-175427642D01*
X309210214Y-175475261D01*
X309305452Y-175522880D01*
X309543547Y-175522880D01*
X309638785Y-175475261D01*
X309686404Y-175427642D01*
X308734023Y-174618119D02*
X308686404Y-174570500D01*
X308591166Y-174522880D01*
X308353071Y-174522880D01*
X308257833Y-174570500D01*
X308210214Y-174618119D01*
X308162595Y-174713357D01*
X308162595Y-174808595D01*
X308210214Y-174951452D01*
X308781642Y-175522880D01*
X308162595Y-175522880D01*
%TO.C,K60*%
X329688785Y-232672880D02*
X329688785Y-231672880D01*
X329117357Y-232672880D02*
X329545928Y-232101452D01*
X329117357Y-231672880D02*
X329688785Y-232244309D01*
X328260214Y-231672880D02*
X328450690Y-231672880D01*
X328545928Y-231720500D01*
X328593547Y-231768119D01*
X328688785Y-231910976D01*
X328736404Y-232101452D01*
X328736404Y-232482404D01*
X328688785Y-232577642D01*
X328641166Y-232625261D01*
X328545928Y-232672880D01*
X328355452Y-232672880D01*
X328260214Y-232625261D01*
X328212595Y-232577642D01*
X328164976Y-232482404D01*
X328164976Y-232244309D01*
X328212595Y-232149071D01*
X328260214Y-232101452D01*
X328355452Y-232053833D01*
X328545928Y-232053833D01*
X328641166Y-232101452D01*
X328688785Y-232149071D01*
X328736404Y-232244309D01*
X327545928Y-231672880D02*
X327450690Y-231672880D01*
X327355452Y-231720500D01*
X327307833Y-231768119D01*
X327260214Y-231863357D01*
X327212595Y-232053833D01*
X327212595Y-232291928D01*
X327260214Y-232482404D01*
X327307833Y-232577642D01*
X327355452Y-232625261D01*
X327450690Y-232672880D01*
X327545928Y-232672880D01*
X327641166Y-232625261D01*
X327688785Y-232577642D01*
X327736404Y-232482404D01*
X327784023Y-232291928D01*
X327784023Y-232053833D01*
X327736404Y-231863357D01*
X327688785Y-231768119D01*
X327641166Y-231720500D01*
X327545928Y-231672880D01*
%TO.C,D17*%
X165299404Y-185616071D02*
X164499404Y-185616071D01*
X164499404Y-185806547D01*
X164537500Y-185920833D01*
X164613690Y-185997023D01*
X164689880Y-186035119D01*
X164842261Y-186073214D01*
X164956547Y-186073214D01*
X165108928Y-186035119D01*
X165185119Y-185997023D01*
X165261309Y-185920833D01*
X165299404Y-185806547D01*
X165299404Y-185616071D01*
X165299404Y-186835119D02*
X165299404Y-186377976D01*
X165299404Y-186606547D02*
X164499404Y-186606547D01*
X164613690Y-186530357D01*
X164689880Y-186454166D01*
X164727976Y-186377976D01*
X164499404Y-187101785D02*
X164499404Y-187635119D01*
X165299404Y-187292261D01*
%TO.C,D34*%
X222799404Y-223616071D02*
X221999404Y-223616071D01*
X221999404Y-223806547D01*
X222037500Y-223920833D01*
X222113690Y-223997023D01*
X222189880Y-224035119D01*
X222342261Y-224073214D01*
X222456547Y-224073214D01*
X222608928Y-224035119D01*
X222685119Y-223997023D01*
X222761309Y-223920833D01*
X222799404Y-223806547D01*
X222799404Y-223616071D01*
X221999404Y-224339880D02*
X221999404Y-224835119D01*
X222304166Y-224568452D01*
X222304166Y-224682738D01*
X222342261Y-224758928D01*
X222380357Y-224797023D01*
X222456547Y-224835119D01*
X222647023Y-224835119D01*
X222723214Y-224797023D01*
X222761309Y-224758928D01*
X222799404Y-224682738D01*
X222799404Y-224454166D01*
X222761309Y-224377976D01*
X222723214Y-224339880D01*
X222266071Y-225520833D02*
X222799404Y-225520833D01*
X221961309Y-225330357D02*
X222532738Y-225139880D01*
X222532738Y-225635119D01*
%TO.C,D12*%
X146299404Y-185616071D02*
X145499404Y-185616071D01*
X145499404Y-185806547D01*
X145537500Y-185920833D01*
X145613690Y-185997023D01*
X145689880Y-186035119D01*
X145842261Y-186073214D01*
X145956547Y-186073214D01*
X146108928Y-186035119D01*
X146185119Y-185997023D01*
X146261309Y-185920833D01*
X146299404Y-185806547D01*
X146299404Y-185616071D01*
X146299404Y-186835119D02*
X146299404Y-186377976D01*
X146299404Y-186606547D02*
X145499404Y-186606547D01*
X145613690Y-186530357D01*
X145689880Y-186454166D01*
X145727976Y-186377976D01*
X145575595Y-187139880D02*
X145537500Y-187177976D01*
X145499404Y-187254166D01*
X145499404Y-187444642D01*
X145537500Y-187520833D01*
X145575595Y-187558928D01*
X145651785Y-187597023D01*
X145727976Y-187597023D01*
X145842261Y-187558928D01*
X146299404Y-187101785D01*
X146299404Y-187597023D01*
%TO.C,D16*%
X165299404Y-166616071D02*
X164499404Y-166616071D01*
X164499404Y-166806547D01*
X164537500Y-166920833D01*
X164613690Y-166997023D01*
X164689880Y-167035119D01*
X164842261Y-167073214D01*
X164956547Y-167073214D01*
X165108928Y-167035119D01*
X165185119Y-166997023D01*
X165261309Y-166920833D01*
X165299404Y-166806547D01*
X165299404Y-166616071D01*
X165299404Y-167835119D02*
X165299404Y-167377976D01*
X165299404Y-167606547D02*
X164499404Y-167606547D01*
X164613690Y-167530357D01*
X164689880Y-167454166D01*
X164727976Y-167377976D01*
X164499404Y-168520833D02*
X164499404Y-168368452D01*
X164537500Y-168292261D01*
X164575595Y-168254166D01*
X164689880Y-168177976D01*
X164842261Y-168139880D01*
X165147023Y-168139880D01*
X165223214Y-168177976D01*
X165261309Y-168216071D01*
X165299404Y-168292261D01*
X165299404Y-168444642D01*
X165261309Y-168520833D01*
X165223214Y-168558928D01*
X165147023Y-168597023D01*
X164956547Y-168597023D01*
X164880357Y-168558928D01*
X164842261Y-168520833D01*
X164804166Y-168444642D01*
X164804166Y-168292261D01*
X164842261Y-168216071D01*
X164880357Y-168177976D01*
X164956547Y-168139880D01*
%TO.C,D46*%
X279799404Y-166616071D02*
X278999404Y-166616071D01*
X278999404Y-166806547D01*
X279037500Y-166920833D01*
X279113690Y-166997023D01*
X279189880Y-167035119D01*
X279342261Y-167073214D01*
X279456547Y-167073214D01*
X279608928Y-167035119D01*
X279685119Y-166997023D01*
X279761309Y-166920833D01*
X279799404Y-166806547D01*
X279799404Y-166616071D01*
X279266071Y-167758928D02*
X279799404Y-167758928D01*
X278961309Y-167568452D02*
X279532738Y-167377976D01*
X279532738Y-167873214D01*
X278999404Y-168520833D02*
X278999404Y-168368452D01*
X279037500Y-168292261D01*
X279075595Y-168254166D01*
X279189880Y-168177976D01*
X279342261Y-168139880D01*
X279647023Y-168139880D01*
X279723214Y-168177976D01*
X279761309Y-168216071D01*
X279799404Y-168292261D01*
X279799404Y-168444642D01*
X279761309Y-168520833D01*
X279723214Y-168558928D01*
X279647023Y-168597023D01*
X279456547Y-168597023D01*
X279380357Y-168558928D01*
X279342261Y-168520833D01*
X279304166Y-168444642D01*
X279304166Y-168292261D01*
X279342261Y-168216071D01*
X279380357Y-168177976D01*
X279456547Y-168139880D01*
%TO.C,K55*%
X310638785Y-232672880D02*
X310638785Y-231672880D01*
X310067357Y-232672880D02*
X310495928Y-232101452D01*
X310067357Y-231672880D02*
X310638785Y-232244309D01*
X309162595Y-231672880D02*
X309638785Y-231672880D01*
X309686404Y-232149071D01*
X309638785Y-232101452D01*
X309543547Y-232053833D01*
X309305452Y-232053833D01*
X309210214Y-232101452D01*
X309162595Y-232149071D01*
X309114976Y-232244309D01*
X309114976Y-232482404D01*
X309162595Y-232577642D01*
X309210214Y-232625261D01*
X309305452Y-232672880D01*
X309543547Y-232672880D01*
X309638785Y-232625261D01*
X309686404Y-232577642D01*
X308210214Y-231672880D02*
X308686404Y-231672880D01*
X308734023Y-232149071D01*
X308686404Y-232101452D01*
X308591166Y-232053833D01*
X308353071Y-232053833D01*
X308257833Y-232101452D01*
X308210214Y-232149071D01*
X308162595Y-232244309D01*
X308162595Y-232482404D01*
X308210214Y-232577642D01*
X308257833Y-232625261D01*
X308353071Y-232672880D01*
X308591166Y-232672880D01*
X308686404Y-232625261D01*
X308734023Y-232577642D01*
%TO.C,D37*%
X241799404Y-185616071D02*
X240999404Y-185616071D01*
X240999404Y-185806547D01*
X241037500Y-185920833D01*
X241113690Y-185997023D01*
X241189880Y-186035119D01*
X241342261Y-186073214D01*
X241456547Y-186073214D01*
X241608928Y-186035119D01*
X241685119Y-185997023D01*
X241761309Y-185920833D01*
X241799404Y-185806547D01*
X241799404Y-185616071D01*
X240999404Y-186339880D02*
X240999404Y-186835119D01*
X241304166Y-186568452D01*
X241304166Y-186682738D01*
X241342261Y-186758928D01*
X241380357Y-186797023D01*
X241456547Y-186835119D01*
X241647023Y-186835119D01*
X241723214Y-186797023D01*
X241761309Y-186758928D01*
X241799404Y-186682738D01*
X241799404Y-186454166D01*
X241761309Y-186377976D01*
X241723214Y-186339880D01*
X240999404Y-187101785D02*
X240999404Y-187635119D01*
X241799404Y-187292261D01*
%TO.C,D24*%
X184799404Y-223616071D02*
X183999404Y-223616071D01*
X183999404Y-223806547D01*
X184037500Y-223920833D01*
X184113690Y-223997023D01*
X184189880Y-224035119D01*
X184342261Y-224073214D01*
X184456547Y-224073214D01*
X184608928Y-224035119D01*
X184685119Y-223997023D01*
X184761309Y-223920833D01*
X184799404Y-223806547D01*
X184799404Y-223616071D01*
X184075595Y-224377976D02*
X184037500Y-224416071D01*
X183999404Y-224492261D01*
X183999404Y-224682738D01*
X184037500Y-224758928D01*
X184075595Y-224797023D01*
X184151785Y-224835119D01*
X184227976Y-224835119D01*
X184342261Y-224797023D01*
X184799404Y-224339880D01*
X184799404Y-224835119D01*
X184266071Y-225520833D02*
X184799404Y-225520833D01*
X183961309Y-225330357D02*
X184532738Y-225139880D01*
X184532738Y-225635119D01*
%TO.C,D14*%
X146299404Y-223616071D02*
X145499404Y-223616071D01*
X145499404Y-223806547D01*
X145537500Y-223920833D01*
X145613690Y-223997023D01*
X145689880Y-224035119D01*
X145842261Y-224073214D01*
X145956547Y-224073214D01*
X146108928Y-224035119D01*
X146185119Y-223997023D01*
X146261309Y-223920833D01*
X146299404Y-223806547D01*
X146299404Y-223616071D01*
X146299404Y-224835119D02*
X146299404Y-224377976D01*
X146299404Y-224606547D02*
X145499404Y-224606547D01*
X145613690Y-224530357D01*
X145689880Y-224454166D01*
X145727976Y-224377976D01*
X145766071Y-225520833D02*
X146299404Y-225520833D01*
X145461309Y-225330357D02*
X146032738Y-225139880D01*
X146032738Y-225635119D01*
%TO.C,K12*%
X158238785Y-175522880D02*
X158238785Y-174522880D01*
X157667357Y-175522880D02*
X158095928Y-174951452D01*
X157667357Y-174522880D02*
X158238785Y-175094309D01*
X156714976Y-175522880D02*
X157286404Y-175522880D01*
X157000690Y-175522880D02*
X157000690Y-174522880D01*
X157095928Y-174665738D01*
X157191166Y-174760976D01*
X157286404Y-174808595D01*
X156334023Y-174618119D02*
X156286404Y-174570500D01*
X156191166Y-174522880D01*
X155953071Y-174522880D01*
X155857833Y-174570500D01*
X155810214Y-174618119D01*
X155762595Y-174713357D01*
X155762595Y-174808595D01*
X155810214Y-174951452D01*
X156381642Y-175522880D01*
X155762595Y-175522880D01*
%TO.C,K1*%
X119662595Y-156472880D02*
X119662595Y-155472880D01*
X119091166Y-156472880D02*
X119519738Y-155901452D01*
X119091166Y-155472880D02*
X119662595Y-156044309D01*
X118138785Y-156472880D02*
X118710214Y-156472880D01*
X118424500Y-156472880D02*
X118424500Y-155472880D01*
X118519738Y-155615738D01*
X118614976Y-155710976D01*
X118710214Y-155758595D01*
%TO.C,D42*%
X260799404Y-185616071D02*
X259999404Y-185616071D01*
X259999404Y-185806547D01*
X260037500Y-185920833D01*
X260113690Y-185997023D01*
X260189880Y-186035119D01*
X260342261Y-186073214D01*
X260456547Y-186073214D01*
X260608928Y-186035119D01*
X260685119Y-185997023D01*
X260761309Y-185920833D01*
X260799404Y-185806547D01*
X260799404Y-185616071D01*
X260266071Y-186758928D02*
X260799404Y-186758928D01*
X259961309Y-186568452D02*
X260532738Y-186377976D01*
X260532738Y-186873214D01*
X260075595Y-187139880D02*
X260037500Y-187177976D01*
X259999404Y-187254166D01*
X259999404Y-187444642D01*
X260037500Y-187520833D01*
X260075595Y-187558928D01*
X260151785Y-187597023D01*
X260227976Y-187597023D01*
X260342261Y-187558928D01*
X260799404Y-187101785D01*
X260799404Y-187597023D01*
%TO.C,K14*%
X158238785Y-213622880D02*
X158238785Y-212622880D01*
X157667357Y-213622880D02*
X158095928Y-213051452D01*
X157667357Y-212622880D02*
X158238785Y-213194309D01*
X156714976Y-213622880D02*
X157286404Y-213622880D01*
X157000690Y-213622880D02*
X157000690Y-212622880D01*
X157095928Y-212765738D01*
X157191166Y-212860976D01*
X157286404Y-212908595D01*
X155857833Y-212956214D02*
X155857833Y-213622880D01*
X156095928Y-212575261D02*
X156334023Y-213289547D01*
X155714976Y-213289547D01*
%TO.C,D55*%
X298799404Y-242616071D02*
X297999404Y-242616071D01*
X297999404Y-242806547D01*
X298037500Y-242920833D01*
X298113690Y-242997023D01*
X298189880Y-243035119D01*
X298342261Y-243073214D01*
X298456547Y-243073214D01*
X298608928Y-243035119D01*
X298685119Y-242997023D01*
X298761309Y-242920833D01*
X298799404Y-242806547D01*
X298799404Y-242616071D01*
X297999404Y-243797023D02*
X297999404Y-243416071D01*
X298380357Y-243377976D01*
X298342261Y-243416071D01*
X298304166Y-243492261D01*
X298304166Y-243682738D01*
X298342261Y-243758928D01*
X298380357Y-243797023D01*
X298456547Y-243835119D01*
X298647023Y-243835119D01*
X298723214Y-243797023D01*
X298761309Y-243758928D01*
X298799404Y-243682738D01*
X298799404Y-243492261D01*
X298761309Y-243416071D01*
X298723214Y-243377976D01*
X297999404Y-244558928D02*
X297999404Y-244177976D01*
X298380357Y-244139880D01*
X298342261Y-244177976D01*
X298304166Y-244254166D01*
X298304166Y-244444642D01*
X298342261Y-244520833D01*
X298380357Y-244558928D01*
X298456547Y-244597023D01*
X298647023Y-244597023D01*
X298723214Y-244558928D01*
X298761309Y-244520833D01*
X298799404Y-244444642D01*
X298799404Y-244254166D01*
X298761309Y-244177976D01*
X298723214Y-244139880D01*
%TO.C,D18*%
X165299404Y-204616071D02*
X164499404Y-204616071D01*
X164499404Y-204806547D01*
X164537500Y-204920833D01*
X164613690Y-204997023D01*
X164689880Y-205035119D01*
X164842261Y-205073214D01*
X164956547Y-205073214D01*
X165108928Y-205035119D01*
X165185119Y-204997023D01*
X165261309Y-204920833D01*
X165299404Y-204806547D01*
X165299404Y-204616071D01*
X165299404Y-205835119D02*
X165299404Y-205377976D01*
X165299404Y-205606547D02*
X164499404Y-205606547D01*
X164613690Y-205530357D01*
X164689880Y-205454166D01*
X164727976Y-205377976D01*
X164842261Y-206292261D02*
X164804166Y-206216071D01*
X164766071Y-206177976D01*
X164689880Y-206139880D01*
X164651785Y-206139880D01*
X164575595Y-206177976D01*
X164537500Y-206216071D01*
X164499404Y-206292261D01*
X164499404Y-206444642D01*
X164537500Y-206520833D01*
X164575595Y-206558928D01*
X164651785Y-206597023D01*
X164689880Y-206597023D01*
X164766071Y-206558928D01*
X164804166Y-206520833D01*
X164842261Y-206444642D01*
X164842261Y-206292261D01*
X164880357Y-206216071D01*
X164918452Y-206177976D01*
X164994642Y-206139880D01*
X165147023Y-206139880D01*
X165223214Y-206177976D01*
X165261309Y-206216071D01*
X165299404Y-206292261D01*
X165299404Y-206444642D01*
X165261309Y-206520833D01*
X165223214Y-206558928D01*
X165147023Y-206597023D01*
X164994642Y-206597023D01*
X164918452Y-206558928D01*
X164880357Y-206520833D01*
X164842261Y-206444642D01*
%TO.C,K47*%
X291588785Y-175522880D02*
X291588785Y-174522880D01*
X291017357Y-175522880D02*
X291445928Y-174951452D01*
X291017357Y-174522880D02*
X291588785Y-175094309D01*
X290160214Y-174856214D02*
X290160214Y-175522880D01*
X290398309Y-174475261D02*
X290636404Y-175189547D01*
X290017357Y-175189547D01*
X289731642Y-174522880D02*
X289064976Y-174522880D01*
X289493547Y-175522880D01*
%TO.C,K46*%
X291588785Y-156472880D02*
X291588785Y-155472880D01*
X291017357Y-156472880D02*
X291445928Y-155901452D01*
X291017357Y-155472880D02*
X291588785Y-156044309D01*
X290160214Y-155806214D02*
X290160214Y-156472880D01*
X290398309Y-155425261D02*
X290636404Y-156139547D01*
X290017357Y-156139547D01*
X289207833Y-155472880D02*
X289398309Y-155472880D01*
X289493547Y-155520500D01*
X289541166Y-155568119D01*
X289636404Y-155710976D01*
X289684023Y-155901452D01*
X289684023Y-156282404D01*
X289636404Y-156377642D01*
X289588785Y-156425261D01*
X289493547Y-156472880D01*
X289303071Y-156472880D01*
X289207833Y-156425261D01*
X289160214Y-156377642D01*
X289112595Y-156282404D01*
X289112595Y-156044309D01*
X289160214Y-155949071D01*
X289207833Y-155901452D01*
X289303071Y-155853833D01*
X289493547Y-155853833D01*
X289588785Y-155901452D01*
X289636404Y-155949071D01*
X289684023Y-156044309D01*
%TO.C,K9*%
X138712595Y-213622880D02*
X138712595Y-212622880D01*
X138141166Y-213622880D02*
X138569738Y-213051452D01*
X138141166Y-212622880D02*
X138712595Y-213194309D01*
X137664976Y-213622880D02*
X137474500Y-213622880D01*
X137379261Y-213575261D01*
X137331642Y-213527642D01*
X137236404Y-213384785D01*
X137188785Y-213194309D01*
X137188785Y-212813357D01*
X137236404Y-212718119D01*
X137284023Y-212670500D01*
X137379261Y-212622880D01*
X137569738Y-212622880D01*
X137664976Y-212670500D01*
X137712595Y-212718119D01*
X137760214Y-212813357D01*
X137760214Y-213051452D01*
X137712595Y-213146690D01*
X137664976Y-213194309D01*
X137569738Y-213241928D01*
X137379261Y-213241928D01*
X137284023Y-213194309D01*
X137236404Y-213146690D01*
X137188785Y-213051452D01*
%TO.C,K15*%
X158238785Y-232672880D02*
X158238785Y-231672880D01*
X157667357Y-232672880D02*
X158095928Y-232101452D01*
X157667357Y-231672880D02*
X158238785Y-232244309D01*
X156714976Y-232672880D02*
X157286404Y-232672880D01*
X157000690Y-232672880D02*
X157000690Y-231672880D01*
X157095928Y-231815738D01*
X157191166Y-231910976D01*
X157286404Y-231958595D01*
X155810214Y-231672880D02*
X156286404Y-231672880D01*
X156334023Y-232149071D01*
X156286404Y-232101452D01*
X156191166Y-232053833D01*
X155953071Y-232053833D01*
X155857833Y-232101452D01*
X155810214Y-232149071D01*
X155762595Y-232244309D01*
X155762595Y-232482404D01*
X155810214Y-232577642D01*
X155857833Y-232625261D01*
X155953071Y-232672880D01*
X156191166Y-232672880D01*
X156286404Y-232625261D01*
X156334023Y-232577642D01*
%TO.C,K2*%
X119662595Y-175522880D02*
X119662595Y-174522880D01*
X119091166Y-175522880D02*
X119519738Y-174951452D01*
X119091166Y-174522880D02*
X119662595Y-175094309D01*
X118710214Y-174618119D02*
X118662595Y-174570500D01*
X118567357Y-174522880D01*
X118329261Y-174522880D01*
X118234023Y-174570500D01*
X118186404Y-174618119D01*
X118138785Y-174713357D01*
X118138785Y-174808595D01*
X118186404Y-174951452D01*
X118757833Y-175522880D01*
X118138785Y-175522880D01*
%TO.C,D7*%
X127299404Y-185997023D02*
X126499404Y-185997023D01*
X126499404Y-186187500D01*
X126537500Y-186301785D01*
X126613690Y-186377976D01*
X126689880Y-186416071D01*
X126842261Y-186454166D01*
X126956547Y-186454166D01*
X127108928Y-186416071D01*
X127185119Y-186377976D01*
X127261309Y-186301785D01*
X127299404Y-186187500D01*
X127299404Y-185997023D01*
X126499404Y-186720833D02*
X126499404Y-187254166D01*
X127299404Y-186911309D01*
%TD*%
M02*
