%TF.GenerationSoftware,KiCad,Pcbnew,5.1.10*%
%TF.CreationDate,2021-06-16T10:43:04-05:00*%
%TF.ProjectId,olkbd_ble,6f6c6b62-645f-4626-9c65-2e6b69636164,rev?*%
%TF.SameCoordinates,Original*%
%TF.FileFunction,Soldermask,Top*%
%TF.FilePolarity,Negative*%
%FSLAX46Y46*%
G04 Gerber Fmt 4.6, Leading zero omitted, Abs format (unit mm)*
G04 Created by KiCad (PCBNEW 5.1.10) date 2021-06-16 10:43:04*
%MOMM*%
%LPD*%
G01*
G04 APERTURE LIST*
%ADD10C,4.000000*%
%ADD11C,1.701800*%
%ADD12C,3.987800*%
%ADD13C,3.000000*%
%ADD14C,4.700000*%
%ADD15C,0.500000*%
%ADD16O,2.268000X1.524000*%
%ADD17C,2.000000*%
%ADD18R,2.000000X2.000000*%
G04 APERTURE END LIST*
D10*
%TO.C,TH1-22*%
X104775000Y-133350000D03*
%TD*%
%TO.C,TH1-22*%
X83343750Y-133350000D03*
%TD*%
%TO.C,TH1-17*%
X185738000Y-76200000D03*
%TD*%
%TO.C,TH1-16*%
X147638000Y-76200000D03*
%TD*%
%TO.C,TH1-15*%
X128588000Y-76200000D03*
%TD*%
%TO.C,TH1-14*%
X128588000Y-95250000D03*
%TD*%
%TO.C,TH1-13*%
X128588000Y-114300000D03*
%TD*%
%TO.C,TH1-12*%
X128588000Y-133350000D03*
%TD*%
%TO.C,TH1-11*%
X147638000Y-133350000D03*
%TD*%
%TO.C,TH1-10*%
X185738000Y-133350000D03*
%TD*%
%TO.C,TH1-9*%
X204788000Y-114300000D03*
%TD*%
%TO.C,TH1-18*%
X204788000Y-95250000D03*
%TD*%
%TO.C,TH1-19*%
X223838000Y-76200000D03*
%TD*%
%TO.C,TH1-8*%
X223838000Y-133350000D03*
%TD*%
%TO.C,TH1-6*%
X261938000Y-133350000D03*
%TD*%
%TO.C,TH1-7*%
X242888000Y-114300000D03*
%TD*%
%TO.C,TH1-20*%
X242888000Y-95250000D03*
%TD*%
%TO.C,TH1-21*%
X261938000Y-76200000D03*
%TD*%
%TO.C,TH1-22*%
X300038000Y-76200000D03*
%TD*%
%TO.C,TH1-5*%
X300038000Y-133350000D03*
%TD*%
%TO.C,TH1-4*%
X319088000Y-133350000D03*
%TD*%
%TO.C,TH1-3*%
X319088000Y-114300000D03*
%TD*%
%TO.C,TH1-2*%
X319088000Y-95250000D03*
%TD*%
%TO.C,TH1-1*%
X319088000Y-76200000D03*
%TD*%
D11*
%TO.C,K33*%
X228282000Y-202026000D03*
X238442000Y-202026000D03*
D12*
X233362000Y-202026000D03*
D13*
X229552000Y-199486000D03*
X235902000Y-196946000D03*
%TD*%
D10*
%TO.C,TH3-10*%
X204788000Y-289750000D03*
%TD*%
D11*
%TO.C,K4*%
X113982000Y-221076000D03*
X124142000Y-221076000D03*
D12*
X119062000Y-221076000D03*
D13*
X115252000Y-218536000D03*
X121602000Y-215996000D03*
%TD*%
D11*
%TO.C,K28*%
X209232000Y-202026000D03*
X219392000Y-202026000D03*
D12*
X214312000Y-202026000D03*
D13*
X210502000Y-199486000D03*
X216852000Y-196946000D03*
%TD*%
D11*
%TO.C,K23*%
X190182000Y-202026000D03*
X200342000Y-202026000D03*
D12*
X195262000Y-202026000D03*
D13*
X191452000Y-199486000D03*
X197802000Y-196946000D03*
%TD*%
D14*
%TO.C,T2*%
X319121020Y-192505080D03*
%TD*%
D11*
%TO.C,K31*%
X228282000Y-163926000D03*
X238442000Y-163926000D03*
D12*
X233362000Y-163926000D03*
D13*
X229552000Y-161386000D03*
X235902000Y-158846000D03*
%TD*%
D11*
%TO.C,K45*%
X266382000Y-240126000D03*
X276542000Y-240126000D03*
D12*
X271462000Y-240126000D03*
D13*
X267652000Y-237586000D03*
X274002000Y-235046000D03*
%TD*%
D11*
%TO.C,K36*%
X247332000Y-163926000D03*
X257492000Y-163926000D03*
D12*
X252412000Y-163926000D03*
D13*
X248602000Y-161386000D03*
X254952000Y-158846000D03*
%TD*%
D14*
%TO.C,T9*%
X204821020Y-192505080D03*
%TD*%
D15*
%TO.C,mouse-bite-2mm-slot-3*%
X300138000Y-249900000D03*
X300138000Y-251400000D03*
X300888000Y-249900000D03*
X299388000Y-249900000D03*
X299388000Y-251400000D03*
X300888000Y-251400000D03*
%TD*%
D10*
%TO.C,TH2-1*%
X319088000Y-173450000D03*
%TD*%
D11*
%TO.C,K27*%
X209232000Y-182976000D03*
X219392000Y-182976000D03*
D12*
X214312000Y-182976000D03*
D13*
X210502000Y-180436000D03*
X216852000Y-177896000D03*
%TD*%
D10*
%TO.C,TH2-6*%
X223838000Y-173450000D03*
%TD*%
D14*
%TO.C,T3*%
X319121020Y-211555080D03*
%TD*%
D11*
%TO.C,K25*%
X190182000Y-240126000D03*
X200342000Y-240126000D03*
D12*
X195262000Y-240126000D03*
D13*
X191452000Y-237586000D03*
X197802000Y-235046000D03*
%TD*%
D10*
%TO.C,TH2-4*%
X128588000Y-230600000D03*
%TD*%
D11*
%TO.C,K17*%
X171132000Y-182976000D03*
X181292000Y-182976000D03*
D12*
X176212000Y-182976000D03*
D13*
X172402000Y-180436000D03*
X178752000Y-177896000D03*
%TD*%
D11*
%TO.C,K35*%
X228282000Y-240126000D03*
X238442000Y-240126000D03*
D12*
X233362000Y-240126000D03*
D13*
X229552000Y-237586000D03*
X235902000Y-235046000D03*
%TD*%
D11*
%TO.C,K6*%
X133032000Y-163926000D03*
X143192000Y-163926000D03*
D12*
X138112000Y-163926000D03*
D13*
X134302000Y-161386000D03*
X140652000Y-158846000D03*
%TD*%
D11*
%TO.C,K18*%
X171132000Y-202026000D03*
X181292000Y-202026000D03*
D12*
X176212000Y-202026000D03*
D13*
X172402000Y-199486000D03*
X178752000Y-196946000D03*
%TD*%
D10*
%TO.C,TH3-4*%
X300038000Y-327850000D03*
%TD*%
D11*
%TO.C,K40*%
X247332000Y-240126000D03*
X257492000Y-240126000D03*
D12*
X252412000Y-240126000D03*
D13*
X248602000Y-237586000D03*
X254952000Y-235046000D03*
%TD*%
D11*
%TO.C,K38*%
X247332000Y-202026000D03*
X257492000Y-202026000D03*
D12*
X252412000Y-202026000D03*
D13*
X248602000Y-199486000D03*
X254952000Y-196946000D03*
%TD*%
D14*
%TO.C,T14*%
X128621020Y-192505080D03*
%TD*%
D11*
%TO.C,K56*%
X323532000Y-163926000D03*
X333692000Y-163926000D03*
D12*
X328612000Y-163926000D03*
D13*
X324802000Y-161386000D03*
X331152000Y-158846000D03*
%TD*%
D11*
%TO.C,K8*%
X133032000Y-202026000D03*
X143192000Y-202026000D03*
D12*
X138112000Y-202026000D03*
D13*
X134302000Y-199486000D03*
X140652000Y-196946000D03*
%TD*%
D10*
%TO.C,TH3-9*%
X185738000Y-270700000D03*
%TD*%
%TO.C,TH3-15*%
X128588000Y-289750000D03*
%TD*%
D11*
%TO.C,K55*%
X304482000Y-240126000D03*
X314642000Y-240126000D03*
D12*
X309562000Y-240126000D03*
D13*
X305752000Y-237586000D03*
X312102000Y-235046000D03*
%TD*%
D10*
%TO.C,TH3-12*%
X185738000Y-327850000D03*
%TD*%
D11*
%TO.C,K47*%
X285432000Y-182976000D03*
X295592000Y-182976000D03*
D12*
X290512000Y-182976000D03*
D13*
X286702000Y-180436000D03*
X293052000Y-177896000D03*
%TD*%
D11*
%TO.C,K29*%
X209232000Y-221076000D03*
X219392000Y-221076000D03*
D12*
X214312000Y-221076000D03*
D13*
X210502000Y-218536000D03*
X216852000Y-215996000D03*
%TD*%
D11*
%TO.C,K53*%
X304482000Y-202026000D03*
X314642000Y-202026000D03*
D12*
X309562000Y-202026000D03*
D13*
X305752000Y-199486000D03*
X312102000Y-196946000D03*
%TD*%
D16*
%TO.C,U1*%
X104595000Y-159194000D03*
X104595000Y-161734000D03*
X104595000Y-164274000D03*
X104595000Y-166814000D03*
X104595000Y-169354000D03*
X104595000Y-171894000D03*
X104595000Y-174434000D03*
X104595000Y-176974000D03*
X104595000Y-179514000D03*
X104595000Y-182054000D03*
X104595000Y-184594000D03*
X104595000Y-187134000D03*
X104595000Y-189674000D03*
X104595000Y-192214000D03*
X104595000Y-194754000D03*
X104595000Y-197294000D03*
X104595000Y-199834000D03*
X104595000Y-202374000D03*
X104595000Y-204914000D03*
X104595000Y-207454000D03*
X81735000Y-169354000D03*
X81735000Y-171894000D03*
X81735000Y-174434000D03*
X81735000Y-176974000D03*
X81735000Y-179514000D03*
X81735000Y-182054000D03*
X81735000Y-184594000D03*
X81735000Y-187134000D03*
X81735000Y-189674000D03*
X81735000Y-192214000D03*
X81735000Y-194754000D03*
X81735000Y-197294000D03*
X81735000Y-199834000D03*
X81735000Y-202374000D03*
X81735000Y-204914000D03*
X81735000Y-207454000D03*
%TD*%
D10*
%TO.C,TH2-2*%
X319088000Y-230600000D03*
%TD*%
D11*
%TO.C,K57*%
X323532000Y-182976000D03*
X333692000Y-182976000D03*
D12*
X328612000Y-182976000D03*
D13*
X324802000Y-180436000D03*
X331152000Y-177896000D03*
%TD*%
D14*
%TO.C,T5*%
X261971020Y-230605080D03*
%TD*%
D11*
%TO.C,K30*%
X209232000Y-240126000D03*
X219392000Y-240126000D03*
D12*
X214312000Y-240126000D03*
D13*
X210502000Y-237586000D03*
X216852000Y-235046000D03*
%TD*%
D10*
%TO.C,TH2-5*%
X128588000Y-173450000D03*
%TD*%
D11*
%TO.C,K1*%
X113982000Y-163926000D03*
X124142000Y-163926000D03*
D12*
X119062000Y-163926000D03*
D13*
X115252000Y-161386000D03*
X121602000Y-158846000D03*
%TD*%
D10*
%TO.C,TH3-6*%
X242888000Y-308800000D03*
%TD*%
D17*
%TO.C,U2*%
X89196200Y-219201000D03*
X91736200Y-219201000D03*
X94276200Y-219201000D03*
D18*
X96816200Y-219201000D03*
%TD*%
D10*
%TO.C,TH3-7*%
X242888000Y-289750000D03*
%TD*%
D15*
%TO.C,mouse-bite-2mm-slot-1*%
X147138000Y-249900000D03*
X147138000Y-251400000D03*
X147888000Y-249900000D03*
X146388000Y-249900000D03*
X146388000Y-251400000D03*
X147888000Y-251400000D03*
%TD*%
D11*
%TO.C,K9*%
X133032000Y-221076000D03*
X143192000Y-221076000D03*
D12*
X138112000Y-221076000D03*
D13*
X134302000Y-218536000D03*
X140652000Y-215996000D03*
%TD*%
D11*
%TO.C,K48*%
X285432000Y-202026000D03*
X295592000Y-202026000D03*
D12*
X290512000Y-202026000D03*
D13*
X286702000Y-199486000D03*
X293052000Y-196946000D03*
%TD*%
D14*
%TO.C,T16*%
X185771020Y-173455080D03*
%TD*%
D10*
%TO.C,TH3-2*%
X319088000Y-289750000D03*
%TD*%
D11*
%TO.C,K10*%
X133032000Y-240126000D03*
X143192000Y-240126000D03*
D12*
X138112000Y-240126000D03*
D13*
X134302000Y-237586000D03*
X140652000Y-235046000D03*
%TD*%
D10*
%TO.C,TH3-8*%
X261938000Y-270700000D03*
%TD*%
D11*
%TO.C,K5*%
X113982000Y-240126000D03*
X124142000Y-240126000D03*
D12*
X119062000Y-240126000D03*
D13*
X115252000Y-237586000D03*
X121602000Y-235046000D03*
%TD*%
D11*
%TO.C,K14*%
X152082000Y-221076000D03*
X162242000Y-221076000D03*
D12*
X157162000Y-221076000D03*
D13*
X153352000Y-218536000D03*
X159702000Y-215996000D03*
%TD*%
D11*
%TO.C,K2*%
X113982000Y-182976000D03*
X124142000Y-182976000D03*
D12*
X119062000Y-182976000D03*
D13*
X115252000Y-180436000D03*
X121602000Y-177896000D03*
%TD*%
D11*
%TO.C,K16*%
X171132000Y-163926000D03*
X181292000Y-163926000D03*
D12*
X176212000Y-163926000D03*
D13*
X172402000Y-161386000D03*
X178752000Y-158846000D03*
%TD*%
D11*
%TO.C,K52*%
X304482000Y-182976000D03*
X314642000Y-182976000D03*
D12*
X309562000Y-182976000D03*
D13*
X305752000Y-180436000D03*
X312102000Y-177896000D03*
%TD*%
D11*
%TO.C,K13*%
X152082000Y-202026000D03*
X162242000Y-202026000D03*
D12*
X157162000Y-202026000D03*
D13*
X153352000Y-199486000D03*
X159702000Y-196946000D03*
%TD*%
D11*
%TO.C,K19*%
X171132000Y-221076000D03*
X181292000Y-221076000D03*
D12*
X176212000Y-221076000D03*
D13*
X172402000Y-218536000D03*
X178752000Y-215996000D03*
%TD*%
D11*
%TO.C,K32*%
X228282000Y-182976000D03*
X238442000Y-182976000D03*
D12*
X233362000Y-182976000D03*
D13*
X229552000Y-180436000D03*
X235902000Y-177896000D03*
%TD*%
D11*
%TO.C,K3*%
X113982000Y-202026000D03*
X124142000Y-202026000D03*
D12*
X119062000Y-202026000D03*
D13*
X115252000Y-199486000D03*
X121602000Y-196946000D03*
%TD*%
D11*
%TO.C,K42*%
X266382000Y-182976000D03*
X276542000Y-182976000D03*
D12*
X271462000Y-182976000D03*
D13*
X267652000Y-180436000D03*
X274002000Y-177896000D03*
%TD*%
D11*
%TO.C,K54*%
X304482000Y-221076000D03*
X314642000Y-221076000D03*
D12*
X309562000Y-221076000D03*
D13*
X305752000Y-218536000D03*
X312102000Y-215996000D03*
%TD*%
D11*
%TO.C,K11*%
X152082000Y-163926000D03*
X162242000Y-163926000D03*
D12*
X157162000Y-163926000D03*
D13*
X153352000Y-161386000D03*
X159702000Y-158846000D03*
%TD*%
D15*
%TO.C,mouse-bite-2mm-slot-6*%
X300888000Y-154150000D03*
X299388000Y-154150000D03*
X299388000Y-152650000D03*
X300888000Y-152650000D03*
X300138000Y-154150000D03*
X300138000Y-152650000D03*
%TD*%
D10*
%TO.C,TH3-5*%
X261938000Y-327850000D03*
%TD*%
%TO.C,TH3-3*%
X319088000Y-308800000D03*
%TD*%
D11*
%TO.C,K20*%
X171132000Y-240126000D03*
X181292000Y-240126000D03*
D12*
X176212000Y-240126000D03*
D13*
X172402000Y-237586000D03*
X178752000Y-235046000D03*
%TD*%
D11*
%TO.C,K60*%
X323532000Y-240126000D03*
X333692000Y-240126000D03*
D12*
X328612000Y-240126000D03*
D13*
X324802000Y-237586000D03*
X331152000Y-235046000D03*
%TD*%
D14*
%TO.C,T11*%
X185771020Y-230605080D03*
%TD*%
D11*
%TO.C,K39*%
X247332000Y-221076000D03*
X257492000Y-221076000D03*
D12*
X252412000Y-221076000D03*
D13*
X248602000Y-218536000D03*
X254952000Y-215996000D03*
%TD*%
D10*
%TO.C,TH3-11*%
X204788000Y-308800000D03*
%TD*%
D11*
%TO.C,K49*%
X285432000Y-221076000D03*
X295592000Y-221076000D03*
D12*
X290512000Y-221076000D03*
D13*
X286702000Y-218536000D03*
X293052000Y-215996000D03*
%TD*%
D11*
%TO.C,K51*%
X304482000Y-163926000D03*
X314642000Y-163926000D03*
D12*
X309562000Y-163926000D03*
D13*
X305752000Y-161386000D03*
X312102000Y-158846000D03*
%TD*%
D11*
%TO.C,K58*%
X323532000Y-202026000D03*
X333692000Y-202026000D03*
D12*
X328612000Y-202026000D03*
D13*
X324802000Y-199486000D03*
X331152000Y-196946000D03*
%TD*%
D11*
%TO.C,K21*%
X190182000Y-163926000D03*
X200342000Y-163926000D03*
D12*
X195262000Y-163926000D03*
D13*
X191452000Y-161386000D03*
X197802000Y-158846000D03*
%TD*%
D10*
%TO.C,TH2-3*%
X223838000Y-230600000D03*
%TD*%
D14*
%TO.C,T13*%
X128621020Y-211555080D03*
%TD*%
D15*
%TO.C,mouse-bite-2mm-slot-2*%
X224138000Y-249900000D03*
X224138000Y-251400000D03*
X224888000Y-249900000D03*
X223388000Y-249900000D03*
X223388000Y-251400000D03*
X224888000Y-251400000D03*
%TD*%
%TO.C,mouse-bite-2mm-slot-5*%
X224888000Y-154150000D03*
X223388000Y-154150000D03*
X223388000Y-152650000D03*
X224888000Y-152650000D03*
X224138000Y-154150000D03*
X224138000Y-152650000D03*
%TD*%
D10*
%TO.C,TH3-1*%
X300038000Y-270700000D03*
%TD*%
D11*
%TO.C,K15*%
X152082000Y-240126000D03*
X162242000Y-240126000D03*
D12*
X157162000Y-240126000D03*
D13*
X153352000Y-237586000D03*
X159702000Y-235046000D03*
%TD*%
D11*
%TO.C,K26*%
X209232000Y-163926000D03*
X219392000Y-163926000D03*
D12*
X214312000Y-163926000D03*
D13*
X210502000Y-161386000D03*
X216852000Y-158846000D03*
%TD*%
D14*
%TO.C,T10*%
X204821020Y-211555080D03*
%TD*%
D11*
%TO.C,K50*%
X285432000Y-240126000D03*
X295592000Y-240126000D03*
D12*
X290512000Y-240126000D03*
D13*
X286702000Y-237586000D03*
X293052000Y-235046000D03*
%TD*%
D11*
%TO.C,K24*%
X190182000Y-221076000D03*
X200342000Y-221076000D03*
D12*
X195262000Y-221076000D03*
D13*
X191452000Y-218536000D03*
X197802000Y-215996000D03*
%TD*%
D14*
%TO.C,T7*%
X242921020Y-192505080D03*
%TD*%
D11*
%TO.C,K41*%
X266382000Y-163926000D03*
X276542000Y-163926000D03*
D12*
X271462000Y-163926000D03*
D13*
X267652000Y-161386000D03*
X274002000Y-158846000D03*
%TD*%
D14*
%TO.C,T6*%
X242921020Y-211555080D03*
%TD*%
D11*
%TO.C,K34*%
X228282000Y-221076000D03*
X238442000Y-221076000D03*
D12*
X233362000Y-221076000D03*
D13*
X229552000Y-218536000D03*
X235902000Y-215996000D03*
%TD*%
D11*
%TO.C,K37*%
X247332000Y-182976000D03*
X257492000Y-182976000D03*
D12*
X252412000Y-182976000D03*
D13*
X248602000Y-180436000D03*
X254952000Y-177896000D03*
%TD*%
D14*
%TO.C,T1*%
X300071020Y-173455080D03*
%TD*%
D11*
%TO.C,K44*%
X266382000Y-221076000D03*
X276542000Y-221076000D03*
D12*
X271462000Y-221076000D03*
D13*
X267652000Y-218536000D03*
X274002000Y-215996000D03*
%TD*%
D11*
%TO.C,K12*%
X152082000Y-182976000D03*
X162242000Y-182976000D03*
D12*
X157162000Y-182976000D03*
D13*
X153352000Y-180436000D03*
X159702000Y-177896000D03*
%TD*%
D14*
%TO.C,T12*%
X147671020Y-230605080D03*
%TD*%
D11*
%TO.C,K43*%
X266382000Y-202026000D03*
X276542000Y-202026000D03*
D12*
X271462000Y-202026000D03*
D13*
X267652000Y-199486000D03*
X274002000Y-196946000D03*
%TD*%
D10*
%TO.C,TH3-14*%
X128588000Y-308800000D03*
%TD*%
%TO.C,TH3-16*%
X147638000Y-270700000D03*
%TD*%
D11*
%TO.C,K7*%
X133032000Y-182976000D03*
X143192000Y-182976000D03*
D12*
X138112000Y-182976000D03*
D13*
X134302000Y-180436000D03*
X140652000Y-177896000D03*
%TD*%
D14*
%TO.C,T4*%
X300071020Y-230605080D03*
%TD*%
D10*
%TO.C,TH3-13*%
X147638000Y-327850000D03*
%TD*%
D14*
%TO.C,T8*%
X261971020Y-173455080D03*
%TD*%
D11*
%TO.C,K59*%
X323532000Y-221076000D03*
X333692000Y-221076000D03*
D12*
X328612000Y-221076000D03*
D13*
X324802000Y-218536000D03*
X331152000Y-215996000D03*
%TD*%
D15*
%TO.C,mouse-bite-2mm-slot-4*%
X147888000Y-154150000D03*
X146388000Y-154150000D03*
X146388000Y-152650000D03*
X147888000Y-152650000D03*
X147138000Y-154150000D03*
X147138000Y-152650000D03*
%TD*%
D11*
%TO.C,K46*%
X285432000Y-163926000D03*
X295592000Y-163926000D03*
D12*
X290512000Y-163926000D03*
D13*
X286702000Y-161386000D03*
X293052000Y-158846000D03*
%TD*%
D14*
%TO.C,T15*%
X147671020Y-173455080D03*
%TD*%
D11*
%TO.C,K22*%
X190182000Y-182976000D03*
X200342000Y-182976000D03*
D12*
X195262000Y-182976000D03*
D13*
X191452000Y-180436000D03*
X197802000Y-177896000D03*
%TD*%
M02*
