M48
INCH,TZ
T1C0.0157
T2C0.0300
T3C0.0800
T4C0.1400
%
G90
G05
T1
X42673Y-71956
X44284Y-77933
X58664Y-81159
X58741Y-74381
X61390Y-74095
X64341Y-73873
X65071Y-74191
X65704Y-81132
X76579Y-73781
X78084Y-75007
X85910Y-81622
X86021Y-76998
X93550Y-76957
X93719Y-81758
X101509Y-73742
X103815Y-81413
X103818Y-74091
X107965Y-73388
X109300Y-73358
X110254Y-74091
X111292Y-81565
X124256Y-67673
T2
X31946Y-62800
X31946Y-63800
X31946Y-64800
X31946Y-65800
X31946Y-66800
X31946Y-67800
X31946Y-68800
X31946Y-69800
X31946Y-70800
X31946Y-71800
X31946Y-72800
X31946Y-73800
X31946Y-74800
X31946Y-75800
X31946Y-76800
X31946Y-77800
X31946Y-78800
X31946Y-79800
X31946Y-80800
X31946Y-81800
X40946Y-66800
X40946Y-67800
X40946Y-68800
X40946Y-69800
X40946Y-70800
X40946Y-71800
X40946Y-72800
X40946Y-73800
X40946Y-74800
X40946Y-75800
X40946Y-76800
X40946Y-77800
X40946Y-78800
X40946Y-79800
X40946Y-80800
X40946Y-81800
T3
X37446Y-52638
X37446Y-129213
X50571Y-30138
X50571Y-37638
X50571Y-45138
X50571Y-52638
X50571Y-68425
X50571Y-90925
X50571Y-114213
X50571Y-121713
X58071Y-30138
X58071Y-52638
X58071Y-106713
X58071Y-129213
X73071Y-30138
X73071Y-52638
X73071Y-106713
X73071Y-129213
X80571Y-37638
X80571Y-45138
X80571Y-114213
X80571Y-121713
X88071Y-30138
X88071Y-52638
X88071Y-68425
X88071Y-90925
X95571Y-37638
X95571Y-45138
X95571Y-114213
X95571Y-121713
X103071Y-30138
X103071Y-52638
X103071Y-106713
X103071Y-129213
X118071Y-30138
X118071Y-52638
X118071Y-106713
X118071Y-129213
X125571Y-30138
X125571Y-37638
X125571Y-45138
X125571Y-52638
X125571Y-68425
X125571Y-90925
X125571Y-114213
X125571Y-121713
T4
X37446Y-90925
X50571Y-75925
X50571Y-83425
X58071Y-68425
X58071Y-90925
X73071Y-68425
X73071Y-90925
X80571Y-75925
X80571Y-83425
X95571Y-75925
X95571Y-83425
X103071Y-68425
X103071Y-90925
X118071Y-68425
X118071Y-90925
X125571Y-75925
X125571Y-83425
T0
M30
