M48
INCH,TZ
T1C0.0157
T2C0.0300
T3C0.0394
T4C0.0866
T5C0.1614
%
G90
G05
T1
X44227Y-88903
X45234Y-74238
X45278Y-75002
X45618Y-82616
X46197Y-87862
X46475Y-69317
X48540Y-82048
X49448Y-70864
X49448Y-78270
X49448Y-84298
X50311Y-88914
X52589Y-74256
X53866Y-86096
X54217Y-69653
X55704Y-80648
X56858Y-70771
X56858Y-76806
X57793Y-88919
X60169Y-84866
X60216Y-73859
X61250Y-69126
X63541Y-82048
X64509Y-68373
X64512Y-78267
X65094Y-87856
X66223Y-88903
X67687Y-73859
X68747Y-69176
X70998Y-81683
X71297Y-66106
X71876Y-76789
X72032Y-71073
X75216Y-73859
X76208Y-86246
X76499Y-69324
X78489Y-81708
X79133Y-76462
X79292Y-82093
X79442Y-70770
X80957Y-88402
X82668Y-73859
X83113Y-87184
X84234Y-69441
X85987Y-81698
X87040Y-70782
X87040Y-78267
X87110Y-83917
X87910Y-88919
X89670Y-89946
X90115Y-74063
X91909Y-69633
X93540Y-82043
X94368Y-78281
X94476Y-84301
X95091Y-70240
X95754Y-89420
X97515Y-84773
X97770Y-73507
X98553Y-69059
X100340Y-82485
X102862Y-88992
X103475Y-81909
X103476Y-74460
X105896Y-95749
X107070Y-68297
X108763Y-63681
X109106Y-69251
X109483Y-88832
X109741Y-81394
X110340Y-73823
X111101Y-73229
X112043Y-67017
X112607Y-81359
X112929Y-73421
X115289Y-95501
X115422Y-74985
X116105Y-82009
X116169Y-89548
X117590Y-70038
X117594Y-77538
X117594Y-85038
X120200Y-81359
X121464Y-93386
X121906Y-68345
X122916Y-89995
X124339Y-78271
X124429Y-69299
X125030Y-78689
X125296Y-73563
X127013Y-73736
T2
X32179Y-66675
X32179Y-67675
X32179Y-68675
X32179Y-69675
X32179Y-70675
X32179Y-71675
X32179Y-72675
X32179Y-73675
X32179Y-74675
X32179Y-75675
X32179Y-76675
X32179Y-77675
X32179Y-78675
X32179Y-79675
X32179Y-80675
X32179Y-81675
X41179Y-62675
X41179Y-63675
X41179Y-64675
X41179Y-65675
X41179Y-66675
X41179Y-67675
X41179Y-68675
X41179Y-69675
X41179Y-70675
X41179Y-71675
X41179Y-72675
X41179Y-73675
X41179Y-74675
X41179Y-75675
X41179Y-76675
X41179Y-77675
X41179Y-78675
X41179Y-79675
X41179Y-80675
X41179Y-81675
T3
X35117Y-86300
X36117Y-86300
X37117Y-86300
X38117Y-86300
T4
X32813Y-52500
X41250Y-52500
X50625Y-30000
X50625Y-37500
X50625Y-45000
X50625Y-52500
X50625Y-68287
X50625Y-90787
X50625Y-114075
X50625Y-121575
X58125Y-30000
X58125Y-52500
X58125Y-106575
X58125Y-129075
X73125Y-30000
X73125Y-52500
X73125Y-106575
X73125Y-129075
X80625Y-37500
X80625Y-45000
X80625Y-114075
X80625Y-121575
X88125Y-30000
X88125Y-52500
X88125Y-68287
X88125Y-90787
X95625Y-37500
X95625Y-45000
X95625Y-114075
X95625Y-121575
X103125Y-30000
X103125Y-52500
X103125Y-106575
X103125Y-129075
X118125Y-30000
X118125Y-52500
X118125Y-106575
X118125Y-129075
X125625Y-30000
X125625Y-37500
X125625Y-45000
X125625Y-52500
X125625Y-68287
X125625Y-90787
X125625Y-114075
X125625Y-121575
T5
X50638Y-75789
X50638Y-83289
X58138Y-68289
X58138Y-90789
X73138Y-68289
X73138Y-90789
X80638Y-75789
X80638Y-83289
X95638Y-75789
X95638Y-83289
X103138Y-68289
X103138Y-90789
X118138Y-68289
X118138Y-90789
X125638Y-75789
X125638Y-83289
T0
M30
