%TF.GenerationSoftware,KiCad,Pcbnew,5.1.10*%
%TF.CreationDate,2021-06-16T10:43:04-05:00*%
%TF.ProjectId,olkbd_ble,6f6c6b62-645f-4626-9c65-2e6b69636164,rev?*%
%TF.SameCoordinates,Original*%
%TF.FileFunction,Other,Fab,Top*%
%FSLAX46Y46*%
G04 Gerber Fmt 4.6, Leading zero omitted, Abs format (unit mm)*
G04 Created by KiCad (PCBNEW 5.1.10) date 2021-06-16 10:43:04*
%MOMM*%
%LPD*%
G01*
G04 APERTURE LIST*
%ADD10C,0.150000*%
G04 APERTURE END LIST*
D10*
%TO.C,K33*%
X225862000Y-209526000D02*
X225862000Y-194526000D01*
X240862000Y-209526000D02*
X225862000Y-209526000D01*
X240862000Y-194526000D02*
X240862000Y-209526000D01*
X225862000Y-194526000D02*
X240862000Y-194526000D01*
%TO.C,K4*%
X111562000Y-228576000D02*
X111562000Y-213576000D01*
X126562000Y-228576000D02*
X111562000Y-228576000D01*
X126562000Y-213576000D02*
X126562000Y-228576000D01*
X111562000Y-213576000D02*
X126562000Y-213576000D01*
%TO.C,K28*%
X206812000Y-209526000D02*
X206812000Y-194526000D01*
X221812000Y-209526000D02*
X206812000Y-209526000D01*
X221812000Y-194526000D02*
X221812000Y-209526000D01*
X206812000Y-194526000D02*
X221812000Y-194526000D01*
%TO.C,K23*%
X187762000Y-209526000D02*
X187762000Y-194526000D01*
X202762000Y-209526000D02*
X187762000Y-209526000D01*
X202762000Y-194526000D02*
X202762000Y-209526000D01*
X187762000Y-194526000D02*
X202762000Y-194526000D01*
%TO.C,K31*%
X225862000Y-171426000D02*
X225862000Y-156426000D01*
X240862000Y-171426000D02*
X225862000Y-171426000D01*
X240862000Y-156426000D02*
X240862000Y-171426000D01*
X225862000Y-156426000D02*
X240862000Y-156426000D01*
%TO.C,K45*%
X263962000Y-247626000D02*
X263962000Y-232626000D01*
X278962000Y-247626000D02*
X263962000Y-247626000D01*
X278962000Y-232626000D02*
X278962000Y-247626000D01*
X263962000Y-232626000D02*
X278962000Y-232626000D01*
%TO.C,K36*%
X244912000Y-171426000D02*
X244912000Y-156426000D01*
X259912000Y-171426000D02*
X244912000Y-171426000D01*
X259912000Y-156426000D02*
X259912000Y-171426000D01*
X244912000Y-156426000D02*
X259912000Y-156426000D01*
%TO.C,K27*%
X206812000Y-190476000D02*
X206812000Y-175476000D01*
X221812000Y-190476000D02*
X206812000Y-190476000D01*
X221812000Y-175476000D02*
X221812000Y-190476000D01*
X206812000Y-175476000D02*
X221812000Y-175476000D01*
%TO.C,K25*%
X187762000Y-247626000D02*
X187762000Y-232626000D01*
X202762000Y-247626000D02*
X187762000Y-247626000D01*
X202762000Y-232626000D02*
X202762000Y-247626000D01*
X187762000Y-232626000D02*
X202762000Y-232626000D01*
%TO.C,K17*%
X168712000Y-190476000D02*
X168712000Y-175476000D01*
X183712000Y-190476000D02*
X168712000Y-190476000D01*
X183712000Y-175476000D02*
X183712000Y-190476000D01*
X168712000Y-175476000D02*
X183712000Y-175476000D01*
%TO.C,K35*%
X225862000Y-247626000D02*
X225862000Y-232626000D01*
X240862000Y-247626000D02*
X225862000Y-247626000D01*
X240862000Y-232626000D02*
X240862000Y-247626000D01*
X225862000Y-232626000D02*
X240862000Y-232626000D01*
%TO.C,K6*%
X130612000Y-171426000D02*
X130612000Y-156426000D01*
X145612000Y-171426000D02*
X130612000Y-171426000D01*
X145612000Y-156426000D02*
X145612000Y-171426000D01*
X130612000Y-156426000D02*
X145612000Y-156426000D01*
%TO.C,K18*%
X168712000Y-209526000D02*
X168712000Y-194526000D01*
X183712000Y-209526000D02*
X168712000Y-209526000D01*
X183712000Y-194526000D02*
X183712000Y-209526000D01*
X168712000Y-194526000D02*
X183712000Y-194526000D01*
%TO.C,K40*%
X244912000Y-247626000D02*
X244912000Y-232626000D01*
X259912000Y-247626000D02*
X244912000Y-247626000D01*
X259912000Y-232626000D02*
X259912000Y-247626000D01*
X244912000Y-232626000D02*
X259912000Y-232626000D01*
%TO.C,K38*%
X244912000Y-209526000D02*
X244912000Y-194526000D01*
X259912000Y-209526000D02*
X244912000Y-209526000D01*
X259912000Y-194526000D02*
X259912000Y-209526000D01*
X244912000Y-194526000D02*
X259912000Y-194526000D01*
%TO.C,K56*%
X321112000Y-171426000D02*
X321112000Y-156426000D01*
X336112000Y-171426000D02*
X321112000Y-171426000D01*
X336112000Y-156426000D02*
X336112000Y-171426000D01*
X321112000Y-156426000D02*
X336112000Y-156426000D01*
%TO.C,K8*%
X130612000Y-209526000D02*
X130612000Y-194526000D01*
X145612000Y-209526000D02*
X130612000Y-209526000D01*
X145612000Y-194526000D02*
X145612000Y-209526000D01*
X130612000Y-194526000D02*
X145612000Y-194526000D01*
%TO.C,K55*%
X302062000Y-247626000D02*
X302062000Y-232626000D01*
X317062000Y-247626000D02*
X302062000Y-247626000D01*
X317062000Y-232626000D02*
X317062000Y-247626000D01*
X302062000Y-232626000D02*
X317062000Y-232626000D01*
%TO.C,K47*%
X283012000Y-190476000D02*
X283012000Y-175476000D01*
X298012000Y-190476000D02*
X283012000Y-190476000D01*
X298012000Y-175476000D02*
X298012000Y-190476000D01*
X283012000Y-175476000D02*
X298012000Y-175476000D01*
%TO.C,K29*%
X206812000Y-228576000D02*
X206812000Y-213576000D01*
X221812000Y-228576000D02*
X206812000Y-228576000D01*
X221812000Y-213576000D02*
X221812000Y-228576000D01*
X206812000Y-213576000D02*
X221812000Y-213576000D01*
%TO.C,K53*%
X302062000Y-209526000D02*
X302062000Y-194526000D01*
X317062000Y-209526000D02*
X302062000Y-209526000D01*
X317062000Y-194526000D02*
X317062000Y-209526000D01*
X302062000Y-194526000D02*
X317062000Y-194526000D01*
%TO.C,K57*%
X321112000Y-190476000D02*
X321112000Y-175476000D01*
X336112000Y-190476000D02*
X321112000Y-190476000D01*
X336112000Y-175476000D02*
X336112000Y-190476000D01*
X321112000Y-175476000D02*
X336112000Y-175476000D01*
%TO.C,K30*%
X206812000Y-247626000D02*
X206812000Y-232626000D01*
X221812000Y-247626000D02*
X206812000Y-247626000D01*
X221812000Y-232626000D02*
X221812000Y-247626000D01*
X206812000Y-232626000D02*
X221812000Y-232626000D01*
%TO.C,K1*%
X111562000Y-171426000D02*
X111562000Y-156426000D01*
X126562000Y-171426000D02*
X111562000Y-171426000D01*
X126562000Y-156426000D02*
X126562000Y-171426000D01*
X111562000Y-156426000D02*
X126562000Y-156426000D01*
%TO.C,K9*%
X130612000Y-228576000D02*
X130612000Y-213576000D01*
X145612000Y-228576000D02*
X130612000Y-228576000D01*
X145612000Y-213576000D02*
X145612000Y-228576000D01*
X130612000Y-213576000D02*
X145612000Y-213576000D01*
%TO.C,K48*%
X283012000Y-209526000D02*
X283012000Y-194526000D01*
X298012000Y-209526000D02*
X283012000Y-209526000D01*
X298012000Y-194526000D02*
X298012000Y-209526000D01*
X283012000Y-194526000D02*
X298012000Y-194526000D01*
%TO.C,K10*%
X130612000Y-247626000D02*
X130612000Y-232626000D01*
X145612000Y-247626000D02*
X130612000Y-247626000D01*
X145612000Y-232626000D02*
X145612000Y-247626000D01*
X130612000Y-232626000D02*
X145612000Y-232626000D01*
%TO.C,K5*%
X111562000Y-247626000D02*
X111562000Y-232626000D01*
X126562000Y-247626000D02*
X111562000Y-247626000D01*
X126562000Y-232626000D02*
X126562000Y-247626000D01*
X111562000Y-232626000D02*
X126562000Y-232626000D01*
%TO.C,K14*%
X149662000Y-228576000D02*
X149662000Y-213576000D01*
X164662000Y-228576000D02*
X149662000Y-228576000D01*
X164662000Y-213576000D02*
X164662000Y-228576000D01*
X149662000Y-213576000D02*
X164662000Y-213576000D01*
%TO.C,K2*%
X111562000Y-190476000D02*
X111562000Y-175476000D01*
X126562000Y-190476000D02*
X111562000Y-190476000D01*
X126562000Y-175476000D02*
X126562000Y-190476000D01*
X111562000Y-175476000D02*
X126562000Y-175476000D01*
%TO.C,K16*%
X168712000Y-171426000D02*
X168712000Y-156426000D01*
X183712000Y-171426000D02*
X168712000Y-171426000D01*
X183712000Y-156426000D02*
X183712000Y-171426000D01*
X168712000Y-156426000D02*
X183712000Y-156426000D01*
%TO.C,K52*%
X302062000Y-190476000D02*
X302062000Y-175476000D01*
X317062000Y-190476000D02*
X302062000Y-190476000D01*
X317062000Y-175476000D02*
X317062000Y-190476000D01*
X302062000Y-175476000D02*
X317062000Y-175476000D01*
%TO.C,K13*%
X149662000Y-209526000D02*
X149662000Y-194526000D01*
X164662000Y-209526000D02*
X149662000Y-209526000D01*
X164662000Y-194526000D02*
X164662000Y-209526000D01*
X149662000Y-194526000D02*
X164662000Y-194526000D01*
%TO.C,K19*%
X168712000Y-228576000D02*
X168712000Y-213576000D01*
X183712000Y-228576000D02*
X168712000Y-228576000D01*
X183712000Y-213576000D02*
X183712000Y-228576000D01*
X168712000Y-213576000D02*
X183712000Y-213576000D01*
%TO.C,K32*%
X225862000Y-190476000D02*
X225862000Y-175476000D01*
X240862000Y-190476000D02*
X225862000Y-190476000D01*
X240862000Y-175476000D02*
X240862000Y-190476000D01*
X225862000Y-175476000D02*
X240862000Y-175476000D01*
%TO.C,K3*%
X111562000Y-209526000D02*
X111562000Y-194526000D01*
X126562000Y-209526000D02*
X111562000Y-209526000D01*
X126562000Y-194526000D02*
X126562000Y-209526000D01*
X111562000Y-194526000D02*
X126562000Y-194526000D01*
%TO.C,K42*%
X263962000Y-190476000D02*
X263962000Y-175476000D01*
X278962000Y-190476000D02*
X263962000Y-190476000D01*
X278962000Y-175476000D02*
X278962000Y-190476000D01*
X263962000Y-175476000D02*
X278962000Y-175476000D01*
%TO.C,K54*%
X302062000Y-228576000D02*
X302062000Y-213576000D01*
X317062000Y-228576000D02*
X302062000Y-228576000D01*
X317062000Y-213576000D02*
X317062000Y-228576000D01*
X302062000Y-213576000D02*
X317062000Y-213576000D01*
%TO.C,K11*%
X149662000Y-171426000D02*
X149662000Y-156426000D01*
X164662000Y-171426000D02*
X149662000Y-171426000D01*
X164662000Y-156426000D02*
X164662000Y-171426000D01*
X149662000Y-156426000D02*
X164662000Y-156426000D01*
%TO.C,K20*%
X168712000Y-247626000D02*
X168712000Y-232626000D01*
X183712000Y-247626000D02*
X168712000Y-247626000D01*
X183712000Y-232626000D02*
X183712000Y-247626000D01*
X168712000Y-232626000D02*
X183712000Y-232626000D01*
%TO.C,K60*%
X321112000Y-247626000D02*
X321112000Y-232626000D01*
X336112000Y-247626000D02*
X321112000Y-247626000D01*
X336112000Y-232626000D02*
X336112000Y-247626000D01*
X321112000Y-232626000D02*
X336112000Y-232626000D01*
%TO.C,K39*%
X244912000Y-228576000D02*
X244912000Y-213576000D01*
X259912000Y-228576000D02*
X244912000Y-228576000D01*
X259912000Y-213576000D02*
X259912000Y-228576000D01*
X244912000Y-213576000D02*
X259912000Y-213576000D01*
%TO.C,K49*%
X283012000Y-228576000D02*
X283012000Y-213576000D01*
X298012000Y-228576000D02*
X283012000Y-228576000D01*
X298012000Y-213576000D02*
X298012000Y-228576000D01*
X283012000Y-213576000D02*
X298012000Y-213576000D01*
%TO.C,K51*%
X302062000Y-171426000D02*
X302062000Y-156426000D01*
X317062000Y-171426000D02*
X302062000Y-171426000D01*
X317062000Y-156426000D02*
X317062000Y-171426000D01*
X302062000Y-156426000D02*
X317062000Y-156426000D01*
%TO.C,K58*%
X321112000Y-209526000D02*
X321112000Y-194526000D01*
X336112000Y-209526000D02*
X321112000Y-209526000D01*
X336112000Y-194526000D02*
X336112000Y-209526000D01*
X321112000Y-194526000D02*
X336112000Y-194526000D01*
%TO.C,K21*%
X187762000Y-171426000D02*
X187762000Y-156426000D01*
X202762000Y-171426000D02*
X187762000Y-171426000D01*
X202762000Y-156426000D02*
X202762000Y-171426000D01*
X187762000Y-156426000D02*
X202762000Y-156426000D01*
%TO.C,K15*%
X149662000Y-247626000D02*
X149662000Y-232626000D01*
X164662000Y-247626000D02*
X149662000Y-247626000D01*
X164662000Y-232626000D02*
X164662000Y-247626000D01*
X149662000Y-232626000D02*
X164662000Y-232626000D01*
%TO.C,K26*%
X206812000Y-171426000D02*
X206812000Y-156426000D01*
X221812000Y-171426000D02*
X206812000Y-171426000D01*
X221812000Y-156426000D02*
X221812000Y-171426000D01*
X206812000Y-156426000D02*
X221812000Y-156426000D01*
%TO.C,K50*%
X283012000Y-247626000D02*
X283012000Y-232626000D01*
X298012000Y-247626000D02*
X283012000Y-247626000D01*
X298012000Y-232626000D02*
X298012000Y-247626000D01*
X283012000Y-232626000D02*
X298012000Y-232626000D01*
%TO.C,K24*%
X187762000Y-228576000D02*
X187762000Y-213576000D01*
X202762000Y-228576000D02*
X187762000Y-228576000D01*
X202762000Y-213576000D02*
X202762000Y-228576000D01*
X187762000Y-213576000D02*
X202762000Y-213576000D01*
%TO.C,K41*%
X263962000Y-171426000D02*
X263962000Y-156426000D01*
X278962000Y-171426000D02*
X263962000Y-171426000D01*
X278962000Y-156426000D02*
X278962000Y-171426000D01*
X263962000Y-156426000D02*
X278962000Y-156426000D01*
%TO.C,K34*%
X225862000Y-228576000D02*
X225862000Y-213576000D01*
X240862000Y-228576000D02*
X225862000Y-228576000D01*
X240862000Y-213576000D02*
X240862000Y-228576000D01*
X225862000Y-213576000D02*
X240862000Y-213576000D01*
%TO.C,K37*%
X244912000Y-190476000D02*
X244912000Y-175476000D01*
X259912000Y-190476000D02*
X244912000Y-190476000D01*
X259912000Y-175476000D02*
X259912000Y-190476000D01*
X244912000Y-175476000D02*
X259912000Y-175476000D01*
%TO.C,K44*%
X263962000Y-228576000D02*
X263962000Y-213576000D01*
X278962000Y-228576000D02*
X263962000Y-228576000D01*
X278962000Y-213576000D02*
X278962000Y-228576000D01*
X263962000Y-213576000D02*
X278962000Y-213576000D01*
%TO.C,K12*%
X149662000Y-190476000D02*
X149662000Y-175476000D01*
X164662000Y-190476000D02*
X149662000Y-190476000D01*
X164662000Y-175476000D02*
X164662000Y-190476000D01*
X149662000Y-175476000D02*
X164662000Y-175476000D01*
%TO.C,K43*%
X263962000Y-209526000D02*
X263962000Y-194526000D01*
X278962000Y-209526000D02*
X263962000Y-209526000D01*
X278962000Y-194526000D02*
X278962000Y-209526000D01*
X263962000Y-194526000D02*
X278962000Y-194526000D01*
%TO.C,K7*%
X130612000Y-190476000D02*
X130612000Y-175476000D01*
X145612000Y-190476000D02*
X130612000Y-190476000D01*
X145612000Y-175476000D02*
X145612000Y-190476000D01*
X130612000Y-175476000D02*
X145612000Y-175476000D01*
%TO.C,K59*%
X321112000Y-228576000D02*
X321112000Y-213576000D01*
X336112000Y-228576000D02*
X321112000Y-228576000D01*
X336112000Y-213576000D02*
X336112000Y-228576000D01*
X321112000Y-213576000D02*
X336112000Y-213576000D01*
%TO.C,K46*%
X283012000Y-171426000D02*
X283012000Y-156426000D01*
X298012000Y-171426000D02*
X283012000Y-171426000D01*
X298012000Y-156426000D02*
X298012000Y-171426000D01*
X283012000Y-156426000D02*
X298012000Y-156426000D01*
%TO.C,K22*%
X187762000Y-190476000D02*
X187762000Y-175476000D01*
X202762000Y-190476000D02*
X187762000Y-190476000D01*
X202762000Y-175476000D02*
X202762000Y-190476000D01*
X187762000Y-175476000D02*
X202762000Y-175476000D01*
%TD*%
%TO.C,TH1-22*%
X103108333Y-131202380D02*
X103108333Y-130202380D01*
X103108333Y-130678571D02*
X103679761Y-130678571D01*
X103679761Y-131202380D02*
X103679761Y-130202380D01*
X104346428Y-130202380D02*
X104536904Y-130202380D01*
X104632142Y-130250000D01*
X104727380Y-130345238D01*
X104775000Y-130535714D01*
X104775000Y-130869047D01*
X104727380Y-131059523D01*
X104632142Y-131154761D01*
X104536904Y-131202380D01*
X104346428Y-131202380D01*
X104251190Y-131154761D01*
X104155952Y-131059523D01*
X104108333Y-130869047D01*
X104108333Y-130535714D01*
X104155952Y-130345238D01*
X104251190Y-130250000D01*
X104346428Y-130202380D01*
X105679761Y-131202380D02*
X105203571Y-131202380D01*
X105203571Y-130202380D01*
X106013095Y-130678571D02*
X106346428Y-130678571D01*
X106489285Y-131202380D02*
X106013095Y-131202380D01*
X106013095Y-130202380D01*
X106489285Y-130202380D01*
X81677083Y-131202380D02*
X81677083Y-130202380D01*
X81677083Y-130678571D02*
X82248511Y-130678571D01*
X82248511Y-131202380D02*
X82248511Y-130202380D01*
X82915178Y-130202380D02*
X83105654Y-130202380D01*
X83200892Y-130250000D01*
X83296130Y-130345238D01*
X83343750Y-130535714D01*
X83343750Y-130869047D01*
X83296130Y-131059523D01*
X83200892Y-131154761D01*
X83105654Y-131202380D01*
X82915178Y-131202380D01*
X82819940Y-131154761D01*
X82724702Y-131059523D01*
X82677083Y-130869047D01*
X82677083Y-130535714D01*
X82724702Y-130345238D01*
X82819940Y-130250000D01*
X82915178Y-130202380D01*
X84248511Y-131202380D02*
X83772321Y-131202380D01*
X83772321Y-130202380D01*
X84581845Y-130678571D02*
X84915178Y-130678571D01*
X85058035Y-131202380D02*
X84581845Y-131202380D01*
X84581845Y-130202380D01*
X85058035Y-130202380D01*
%TO.C,TH1-17*%
X184071333Y-74052380D02*
X184071333Y-73052380D01*
X184071333Y-73528571D02*
X184642761Y-73528571D01*
X184642761Y-74052380D02*
X184642761Y-73052380D01*
X185309428Y-73052380D02*
X185499904Y-73052380D01*
X185595142Y-73100000D01*
X185690380Y-73195238D01*
X185738000Y-73385714D01*
X185738000Y-73719047D01*
X185690380Y-73909523D01*
X185595142Y-74004761D01*
X185499904Y-74052380D01*
X185309428Y-74052380D01*
X185214190Y-74004761D01*
X185118952Y-73909523D01*
X185071333Y-73719047D01*
X185071333Y-73385714D01*
X185118952Y-73195238D01*
X185214190Y-73100000D01*
X185309428Y-73052380D01*
X186642761Y-74052380D02*
X186166571Y-74052380D01*
X186166571Y-73052380D01*
X186976095Y-73528571D02*
X187309428Y-73528571D01*
X187452285Y-74052380D02*
X186976095Y-74052380D01*
X186976095Y-73052380D01*
X187452285Y-73052380D01*
%TO.C,TH1-16*%
X145971333Y-74052380D02*
X145971333Y-73052380D01*
X145971333Y-73528571D02*
X146542761Y-73528571D01*
X146542761Y-74052380D02*
X146542761Y-73052380D01*
X147209428Y-73052380D02*
X147399904Y-73052380D01*
X147495142Y-73100000D01*
X147590380Y-73195238D01*
X147638000Y-73385714D01*
X147638000Y-73719047D01*
X147590380Y-73909523D01*
X147495142Y-74004761D01*
X147399904Y-74052380D01*
X147209428Y-74052380D01*
X147114190Y-74004761D01*
X147018952Y-73909523D01*
X146971333Y-73719047D01*
X146971333Y-73385714D01*
X147018952Y-73195238D01*
X147114190Y-73100000D01*
X147209428Y-73052380D01*
X148542761Y-74052380D02*
X148066571Y-74052380D01*
X148066571Y-73052380D01*
X148876095Y-73528571D02*
X149209428Y-73528571D01*
X149352285Y-74052380D02*
X148876095Y-74052380D01*
X148876095Y-73052380D01*
X149352285Y-73052380D01*
%TO.C,TH1-15*%
X126921333Y-74052380D02*
X126921333Y-73052380D01*
X126921333Y-73528571D02*
X127492761Y-73528571D01*
X127492761Y-74052380D02*
X127492761Y-73052380D01*
X128159428Y-73052380D02*
X128349904Y-73052380D01*
X128445142Y-73100000D01*
X128540380Y-73195238D01*
X128588000Y-73385714D01*
X128588000Y-73719047D01*
X128540380Y-73909523D01*
X128445142Y-74004761D01*
X128349904Y-74052380D01*
X128159428Y-74052380D01*
X128064190Y-74004761D01*
X127968952Y-73909523D01*
X127921333Y-73719047D01*
X127921333Y-73385714D01*
X127968952Y-73195238D01*
X128064190Y-73100000D01*
X128159428Y-73052380D01*
X129492761Y-74052380D02*
X129016571Y-74052380D01*
X129016571Y-73052380D01*
X129826095Y-73528571D02*
X130159428Y-73528571D01*
X130302285Y-74052380D02*
X129826095Y-74052380D01*
X129826095Y-73052380D01*
X130302285Y-73052380D01*
%TO.C,TH1-14*%
X126921333Y-93102380D02*
X126921333Y-92102380D01*
X126921333Y-92578571D02*
X127492761Y-92578571D01*
X127492761Y-93102380D02*
X127492761Y-92102380D01*
X128159428Y-92102380D02*
X128349904Y-92102380D01*
X128445142Y-92150000D01*
X128540380Y-92245238D01*
X128588000Y-92435714D01*
X128588000Y-92769047D01*
X128540380Y-92959523D01*
X128445142Y-93054761D01*
X128349904Y-93102380D01*
X128159428Y-93102380D01*
X128064190Y-93054761D01*
X127968952Y-92959523D01*
X127921333Y-92769047D01*
X127921333Y-92435714D01*
X127968952Y-92245238D01*
X128064190Y-92150000D01*
X128159428Y-92102380D01*
X129492761Y-93102380D02*
X129016571Y-93102380D01*
X129016571Y-92102380D01*
X129826095Y-92578571D02*
X130159428Y-92578571D01*
X130302285Y-93102380D02*
X129826095Y-93102380D01*
X129826095Y-92102380D01*
X130302285Y-92102380D01*
%TO.C,TH1-13*%
X126921333Y-112152380D02*
X126921333Y-111152380D01*
X126921333Y-111628571D02*
X127492761Y-111628571D01*
X127492761Y-112152380D02*
X127492761Y-111152380D01*
X128159428Y-111152380D02*
X128349904Y-111152380D01*
X128445142Y-111200000D01*
X128540380Y-111295238D01*
X128588000Y-111485714D01*
X128588000Y-111819047D01*
X128540380Y-112009523D01*
X128445142Y-112104761D01*
X128349904Y-112152380D01*
X128159428Y-112152380D01*
X128064190Y-112104761D01*
X127968952Y-112009523D01*
X127921333Y-111819047D01*
X127921333Y-111485714D01*
X127968952Y-111295238D01*
X128064190Y-111200000D01*
X128159428Y-111152380D01*
X129492761Y-112152380D02*
X129016571Y-112152380D01*
X129016571Y-111152380D01*
X129826095Y-111628571D02*
X130159428Y-111628571D01*
X130302285Y-112152380D02*
X129826095Y-112152380D01*
X129826095Y-111152380D01*
X130302285Y-111152380D01*
%TO.C,TH1-12*%
X126921333Y-131202380D02*
X126921333Y-130202380D01*
X126921333Y-130678571D02*
X127492761Y-130678571D01*
X127492761Y-131202380D02*
X127492761Y-130202380D01*
X128159428Y-130202380D02*
X128349904Y-130202380D01*
X128445142Y-130250000D01*
X128540380Y-130345238D01*
X128588000Y-130535714D01*
X128588000Y-130869047D01*
X128540380Y-131059523D01*
X128445142Y-131154761D01*
X128349904Y-131202380D01*
X128159428Y-131202380D01*
X128064190Y-131154761D01*
X127968952Y-131059523D01*
X127921333Y-130869047D01*
X127921333Y-130535714D01*
X127968952Y-130345238D01*
X128064190Y-130250000D01*
X128159428Y-130202380D01*
X129492761Y-131202380D02*
X129016571Y-131202380D01*
X129016571Y-130202380D01*
X129826095Y-130678571D02*
X130159428Y-130678571D01*
X130302285Y-131202380D02*
X129826095Y-131202380D01*
X129826095Y-130202380D01*
X130302285Y-130202380D01*
%TO.C,TH1-11*%
X145971333Y-131202380D02*
X145971333Y-130202380D01*
X145971333Y-130678571D02*
X146542761Y-130678571D01*
X146542761Y-131202380D02*
X146542761Y-130202380D01*
X147209428Y-130202380D02*
X147399904Y-130202380D01*
X147495142Y-130250000D01*
X147590380Y-130345238D01*
X147638000Y-130535714D01*
X147638000Y-130869047D01*
X147590380Y-131059523D01*
X147495142Y-131154761D01*
X147399904Y-131202380D01*
X147209428Y-131202380D01*
X147114190Y-131154761D01*
X147018952Y-131059523D01*
X146971333Y-130869047D01*
X146971333Y-130535714D01*
X147018952Y-130345238D01*
X147114190Y-130250000D01*
X147209428Y-130202380D01*
X148542761Y-131202380D02*
X148066571Y-131202380D01*
X148066571Y-130202380D01*
X148876095Y-130678571D02*
X149209428Y-130678571D01*
X149352285Y-131202380D02*
X148876095Y-131202380D01*
X148876095Y-130202380D01*
X149352285Y-130202380D01*
%TO.C,TH1-10*%
X184071333Y-131202380D02*
X184071333Y-130202380D01*
X184071333Y-130678571D02*
X184642761Y-130678571D01*
X184642761Y-131202380D02*
X184642761Y-130202380D01*
X185309428Y-130202380D02*
X185499904Y-130202380D01*
X185595142Y-130250000D01*
X185690380Y-130345238D01*
X185738000Y-130535714D01*
X185738000Y-130869047D01*
X185690380Y-131059523D01*
X185595142Y-131154761D01*
X185499904Y-131202380D01*
X185309428Y-131202380D01*
X185214190Y-131154761D01*
X185118952Y-131059523D01*
X185071333Y-130869047D01*
X185071333Y-130535714D01*
X185118952Y-130345238D01*
X185214190Y-130250000D01*
X185309428Y-130202380D01*
X186642761Y-131202380D02*
X186166571Y-131202380D01*
X186166571Y-130202380D01*
X186976095Y-130678571D02*
X187309428Y-130678571D01*
X187452285Y-131202380D02*
X186976095Y-131202380D01*
X186976095Y-130202380D01*
X187452285Y-130202380D01*
%TO.C,TH1-9*%
X203121333Y-112152380D02*
X203121333Y-111152380D01*
X203121333Y-111628571D02*
X203692761Y-111628571D01*
X203692761Y-112152380D02*
X203692761Y-111152380D01*
X204359428Y-111152380D02*
X204549904Y-111152380D01*
X204645142Y-111200000D01*
X204740380Y-111295238D01*
X204788000Y-111485714D01*
X204788000Y-111819047D01*
X204740380Y-112009523D01*
X204645142Y-112104761D01*
X204549904Y-112152380D01*
X204359428Y-112152380D01*
X204264190Y-112104761D01*
X204168952Y-112009523D01*
X204121333Y-111819047D01*
X204121333Y-111485714D01*
X204168952Y-111295238D01*
X204264190Y-111200000D01*
X204359428Y-111152380D01*
X205692761Y-112152380D02*
X205216571Y-112152380D01*
X205216571Y-111152380D01*
X206026095Y-111628571D02*
X206359428Y-111628571D01*
X206502285Y-112152380D02*
X206026095Y-112152380D01*
X206026095Y-111152380D01*
X206502285Y-111152380D01*
%TO.C,TH1-18*%
X203121333Y-93102380D02*
X203121333Y-92102380D01*
X203121333Y-92578571D02*
X203692761Y-92578571D01*
X203692761Y-93102380D02*
X203692761Y-92102380D01*
X204359428Y-92102380D02*
X204549904Y-92102380D01*
X204645142Y-92150000D01*
X204740380Y-92245238D01*
X204788000Y-92435714D01*
X204788000Y-92769047D01*
X204740380Y-92959523D01*
X204645142Y-93054761D01*
X204549904Y-93102380D01*
X204359428Y-93102380D01*
X204264190Y-93054761D01*
X204168952Y-92959523D01*
X204121333Y-92769047D01*
X204121333Y-92435714D01*
X204168952Y-92245238D01*
X204264190Y-92150000D01*
X204359428Y-92102380D01*
X205692761Y-93102380D02*
X205216571Y-93102380D01*
X205216571Y-92102380D01*
X206026095Y-92578571D02*
X206359428Y-92578571D01*
X206502285Y-93102380D02*
X206026095Y-93102380D01*
X206026095Y-92102380D01*
X206502285Y-92102380D01*
%TO.C,TH1-19*%
X222171333Y-74052380D02*
X222171333Y-73052380D01*
X222171333Y-73528571D02*
X222742761Y-73528571D01*
X222742761Y-74052380D02*
X222742761Y-73052380D01*
X223409428Y-73052380D02*
X223599904Y-73052380D01*
X223695142Y-73100000D01*
X223790380Y-73195238D01*
X223838000Y-73385714D01*
X223838000Y-73719047D01*
X223790380Y-73909523D01*
X223695142Y-74004761D01*
X223599904Y-74052380D01*
X223409428Y-74052380D01*
X223314190Y-74004761D01*
X223218952Y-73909523D01*
X223171333Y-73719047D01*
X223171333Y-73385714D01*
X223218952Y-73195238D01*
X223314190Y-73100000D01*
X223409428Y-73052380D01*
X224742761Y-74052380D02*
X224266571Y-74052380D01*
X224266571Y-73052380D01*
X225076095Y-73528571D02*
X225409428Y-73528571D01*
X225552285Y-74052380D02*
X225076095Y-74052380D01*
X225076095Y-73052380D01*
X225552285Y-73052380D01*
%TO.C,TH1-8*%
X222171333Y-131202380D02*
X222171333Y-130202380D01*
X222171333Y-130678571D02*
X222742761Y-130678571D01*
X222742761Y-131202380D02*
X222742761Y-130202380D01*
X223409428Y-130202380D02*
X223599904Y-130202380D01*
X223695142Y-130250000D01*
X223790380Y-130345238D01*
X223838000Y-130535714D01*
X223838000Y-130869047D01*
X223790380Y-131059523D01*
X223695142Y-131154761D01*
X223599904Y-131202380D01*
X223409428Y-131202380D01*
X223314190Y-131154761D01*
X223218952Y-131059523D01*
X223171333Y-130869047D01*
X223171333Y-130535714D01*
X223218952Y-130345238D01*
X223314190Y-130250000D01*
X223409428Y-130202380D01*
X224742761Y-131202380D02*
X224266571Y-131202380D01*
X224266571Y-130202380D01*
X225076095Y-130678571D02*
X225409428Y-130678571D01*
X225552285Y-131202380D02*
X225076095Y-131202380D01*
X225076095Y-130202380D01*
X225552285Y-130202380D01*
%TO.C,TH1-6*%
X260271333Y-131202380D02*
X260271333Y-130202380D01*
X260271333Y-130678571D02*
X260842761Y-130678571D01*
X260842761Y-131202380D02*
X260842761Y-130202380D01*
X261509428Y-130202380D02*
X261699904Y-130202380D01*
X261795142Y-130250000D01*
X261890380Y-130345238D01*
X261938000Y-130535714D01*
X261938000Y-130869047D01*
X261890380Y-131059523D01*
X261795142Y-131154761D01*
X261699904Y-131202380D01*
X261509428Y-131202380D01*
X261414190Y-131154761D01*
X261318952Y-131059523D01*
X261271333Y-130869047D01*
X261271333Y-130535714D01*
X261318952Y-130345238D01*
X261414190Y-130250000D01*
X261509428Y-130202380D01*
X262842761Y-131202380D02*
X262366571Y-131202380D01*
X262366571Y-130202380D01*
X263176095Y-130678571D02*
X263509428Y-130678571D01*
X263652285Y-131202380D02*
X263176095Y-131202380D01*
X263176095Y-130202380D01*
X263652285Y-130202380D01*
%TO.C,TH1-7*%
X241221333Y-112152380D02*
X241221333Y-111152380D01*
X241221333Y-111628571D02*
X241792761Y-111628571D01*
X241792761Y-112152380D02*
X241792761Y-111152380D01*
X242459428Y-111152380D02*
X242649904Y-111152380D01*
X242745142Y-111200000D01*
X242840380Y-111295238D01*
X242888000Y-111485714D01*
X242888000Y-111819047D01*
X242840380Y-112009523D01*
X242745142Y-112104761D01*
X242649904Y-112152380D01*
X242459428Y-112152380D01*
X242364190Y-112104761D01*
X242268952Y-112009523D01*
X242221333Y-111819047D01*
X242221333Y-111485714D01*
X242268952Y-111295238D01*
X242364190Y-111200000D01*
X242459428Y-111152380D01*
X243792761Y-112152380D02*
X243316571Y-112152380D01*
X243316571Y-111152380D01*
X244126095Y-111628571D02*
X244459428Y-111628571D01*
X244602285Y-112152380D02*
X244126095Y-112152380D01*
X244126095Y-111152380D01*
X244602285Y-111152380D01*
%TO.C,TH1-20*%
X241221333Y-93102380D02*
X241221333Y-92102380D01*
X241221333Y-92578571D02*
X241792761Y-92578571D01*
X241792761Y-93102380D02*
X241792761Y-92102380D01*
X242459428Y-92102380D02*
X242649904Y-92102380D01*
X242745142Y-92150000D01*
X242840380Y-92245238D01*
X242888000Y-92435714D01*
X242888000Y-92769047D01*
X242840380Y-92959523D01*
X242745142Y-93054761D01*
X242649904Y-93102380D01*
X242459428Y-93102380D01*
X242364190Y-93054761D01*
X242268952Y-92959523D01*
X242221333Y-92769047D01*
X242221333Y-92435714D01*
X242268952Y-92245238D01*
X242364190Y-92150000D01*
X242459428Y-92102380D01*
X243792761Y-93102380D02*
X243316571Y-93102380D01*
X243316571Y-92102380D01*
X244126095Y-92578571D02*
X244459428Y-92578571D01*
X244602285Y-93102380D02*
X244126095Y-93102380D01*
X244126095Y-92102380D01*
X244602285Y-92102380D01*
%TO.C,TH1-21*%
X260271333Y-74052380D02*
X260271333Y-73052380D01*
X260271333Y-73528571D02*
X260842761Y-73528571D01*
X260842761Y-74052380D02*
X260842761Y-73052380D01*
X261509428Y-73052380D02*
X261699904Y-73052380D01*
X261795142Y-73100000D01*
X261890380Y-73195238D01*
X261938000Y-73385714D01*
X261938000Y-73719047D01*
X261890380Y-73909523D01*
X261795142Y-74004761D01*
X261699904Y-74052380D01*
X261509428Y-74052380D01*
X261414190Y-74004761D01*
X261318952Y-73909523D01*
X261271333Y-73719047D01*
X261271333Y-73385714D01*
X261318952Y-73195238D01*
X261414190Y-73100000D01*
X261509428Y-73052380D01*
X262842761Y-74052380D02*
X262366571Y-74052380D01*
X262366571Y-73052380D01*
X263176095Y-73528571D02*
X263509428Y-73528571D01*
X263652285Y-74052380D02*
X263176095Y-74052380D01*
X263176095Y-73052380D01*
X263652285Y-73052380D01*
%TO.C,TH1-22*%
X298371333Y-74052380D02*
X298371333Y-73052380D01*
X298371333Y-73528571D02*
X298942761Y-73528571D01*
X298942761Y-74052380D02*
X298942761Y-73052380D01*
X299609428Y-73052380D02*
X299799904Y-73052380D01*
X299895142Y-73100000D01*
X299990380Y-73195238D01*
X300038000Y-73385714D01*
X300038000Y-73719047D01*
X299990380Y-73909523D01*
X299895142Y-74004761D01*
X299799904Y-74052380D01*
X299609428Y-74052380D01*
X299514190Y-74004761D01*
X299418952Y-73909523D01*
X299371333Y-73719047D01*
X299371333Y-73385714D01*
X299418952Y-73195238D01*
X299514190Y-73100000D01*
X299609428Y-73052380D01*
X300942761Y-74052380D02*
X300466571Y-74052380D01*
X300466571Y-73052380D01*
X301276095Y-73528571D02*
X301609428Y-73528571D01*
X301752285Y-74052380D02*
X301276095Y-74052380D01*
X301276095Y-73052380D01*
X301752285Y-73052380D01*
%TO.C,TH1-5*%
X298371333Y-131202380D02*
X298371333Y-130202380D01*
X298371333Y-130678571D02*
X298942761Y-130678571D01*
X298942761Y-131202380D02*
X298942761Y-130202380D01*
X299609428Y-130202380D02*
X299799904Y-130202380D01*
X299895142Y-130250000D01*
X299990380Y-130345238D01*
X300038000Y-130535714D01*
X300038000Y-130869047D01*
X299990380Y-131059523D01*
X299895142Y-131154761D01*
X299799904Y-131202380D01*
X299609428Y-131202380D01*
X299514190Y-131154761D01*
X299418952Y-131059523D01*
X299371333Y-130869047D01*
X299371333Y-130535714D01*
X299418952Y-130345238D01*
X299514190Y-130250000D01*
X299609428Y-130202380D01*
X300942761Y-131202380D02*
X300466571Y-131202380D01*
X300466571Y-130202380D01*
X301276095Y-130678571D02*
X301609428Y-130678571D01*
X301752285Y-131202380D02*
X301276095Y-131202380D01*
X301276095Y-130202380D01*
X301752285Y-130202380D01*
%TO.C,TH1-4*%
X317421333Y-131202380D02*
X317421333Y-130202380D01*
X317421333Y-130678571D02*
X317992761Y-130678571D01*
X317992761Y-131202380D02*
X317992761Y-130202380D01*
X318659428Y-130202380D02*
X318849904Y-130202380D01*
X318945142Y-130250000D01*
X319040380Y-130345238D01*
X319088000Y-130535714D01*
X319088000Y-130869047D01*
X319040380Y-131059523D01*
X318945142Y-131154761D01*
X318849904Y-131202380D01*
X318659428Y-131202380D01*
X318564190Y-131154761D01*
X318468952Y-131059523D01*
X318421333Y-130869047D01*
X318421333Y-130535714D01*
X318468952Y-130345238D01*
X318564190Y-130250000D01*
X318659428Y-130202380D01*
X319992761Y-131202380D02*
X319516571Y-131202380D01*
X319516571Y-130202380D01*
X320326095Y-130678571D02*
X320659428Y-130678571D01*
X320802285Y-131202380D02*
X320326095Y-131202380D01*
X320326095Y-130202380D01*
X320802285Y-130202380D01*
%TO.C,TH1-3*%
X317421333Y-112152380D02*
X317421333Y-111152380D01*
X317421333Y-111628571D02*
X317992761Y-111628571D01*
X317992761Y-112152380D02*
X317992761Y-111152380D01*
X318659428Y-111152380D02*
X318849904Y-111152380D01*
X318945142Y-111200000D01*
X319040380Y-111295238D01*
X319088000Y-111485714D01*
X319088000Y-111819047D01*
X319040380Y-112009523D01*
X318945142Y-112104761D01*
X318849904Y-112152380D01*
X318659428Y-112152380D01*
X318564190Y-112104761D01*
X318468952Y-112009523D01*
X318421333Y-111819047D01*
X318421333Y-111485714D01*
X318468952Y-111295238D01*
X318564190Y-111200000D01*
X318659428Y-111152380D01*
X319992761Y-112152380D02*
X319516571Y-112152380D01*
X319516571Y-111152380D01*
X320326095Y-111628571D02*
X320659428Y-111628571D01*
X320802285Y-112152380D02*
X320326095Y-112152380D01*
X320326095Y-111152380D01*
X320802285Y-111152380D01*
%TO.C,TH1-2*%
X317421333Y-93102380D02*
X317421333Y-92102380D01*
X317421333Y-92578571D02*
X317992761Y-92578571D01*
X317992761Y-93102380D02*
X317992761Y-92102380D01*
X318659428Y-92102380D02*
X318849904Y-92102380D01*
X318945142Y-92150000D01*
X319040380Y-92245238D01*
X319088000Y-92435714D01*
X319088000Y-92769047D01*
X319040380Y-92959523D01*
X318945142Y-93054761D01*
X318849904Y-93102380D01*
X318659428Y-93102380D01*
X318564190Y-93054761D01*
X318468952Y-92959523D01*
X318421333Y-92769047D01*
X318421333Y-92435714D01*
X318468952Y-92245238D01*
X318564190Y-92150000D01*
X318659428Y-92102380D01*
X319992761Y-93102380D02*
X319516571Y-93102380D01*
X319516571Y-92102380D01*
X320326095Y-92578571D02*
X320659428Y-92578571D01*
X320802285Y-93102380D02*
X320326095Y-93102380D01*
X320326095Y-92102380D01*
X320802285Y-92102380D01*
%TO.C,TH1-1*%
X317421333Y-74052380D02*
X317421333Y-73052380D01*
X317421333Y-73528571D02*
X317992761Y-73528571D01*
X317992761Y-74052380D02*
X317992761Y-73052380D01*
X318659428Y-73052380D02*
X318849904Y-73052380D01*
X318945142Y-73100000D01*
X319040380Y-73195238D01*
X319088000Y-73385714D01*
X319088000Y-73719047D01*
X319040380Y-73909523D01*
X318945142Y-74004761D01*
X318849904Y-74052380D01*
X318659428Y-74052380D01*
X318564190Y-74004761D01*
X318468952Y-73909523D01*
X318421333Y-73719047D01*
X318421333Y-73385714D01*
X318468952Y-73195238D01*
X318564190Y-73100000D01*
X318659428Y-73052380D01*
X319992761Y-74052380D02*
X319516571Y-74052380D01*
X319516571Y-73052380D01*
X320326095Y-73528571D02*
X320659428Y-73528571D01*
X320802285Y-74052380D02*
X320326095Y-74052380D01*
X320326095Y-73052380D01*
X320802285Y-73052380D01*
%TO.C,K33*%
X231171523Y-210733380D02*
X231171523Y-209733380D01*
X231742952Y-210733380D02*
X231314380Y-210161952D01*
X231742952Y-209733380D02*
X231171523Y-210304809D01*
X232171523Y-210209571D02*
X232504857Y-210209571D01*
X232647714Y-210733380D02*
X232171523Y-210733380D01*
X232171523Y-209733380D01*
X232647714Y-209733380D01*
X233266761Y-210257190D02*
X233266761Y-210733380D01*
X232933428Y-209733380D02*
X233266761Y-210257190D01*
X233600095Y-209733380D01*
X233885809Y-210685761D02*
X234028666Y-210733380D01*
X234266761Y-210733380D01*
X234362000Y-210685761D01*
X234409619Y-210638142D01*
X234457238Y-210542904D01*
X234457238Y-210447666D01*
X234409619Y-210352428D01*
X234362000Y-210304809D01*
X234266761Y-210257190D01*
X234076285Y-210209571D01*
X233981047Y-210161952D01*
X233933428Y-210114333D01*
X233885809Y-210019095D01*
X233885809Y-209923857D01*
X233933428Y-209828619D01*
X233981047Y-209781000D01*
X234076285Y-209733380D01*
X234314380Y-209733380D01*
X234457238Y-209781000D01*
X234790571Y-209733380D02*
X235028666Y-210733380D01*
X235219142Y-210019095D01*
X235409619Y-210733380D01*
X235647714Y-209733380D01*
%TO.C,TH3-10*%
X203121333Y-287602380D02*
X203121333Y-286602380D01*
X203121333Y-287078571D02*
X203692761Y-287078571D01*
X203692761Y-287602380D02*
X203692761Y-286602380D01*
X204359428Y-286602380D02*
X204549904Y-286602380D01*
X204645142Y-286650000D01*
X204740380Y-286745238D01*
X204788000Y-286935714D01*
X204788000Y-287269047D01*
X204740380Y-287459523D01*
X204645142Y-287554761D01*
X204549904Y-287602380D01*
X204359428Y-287602380D01*
X204264190Y-287554761D01*
X204168952Y-287459523D01*
X204121333Y-287269047D01*
X204121333Y-286935714D01*
X204168952Y-286745238D01*
X204264190Y-286650000D01*
X204359428Y-286602380D01*
X205692761Y-287602380D02*
X205216571Y-287602380D01*
X205216571Y-286602380D01*
X206026095Y-287078571D02*
X206359428Y-287078571D01*
X206502285Y-287602380D02*
X206026095Y-287602380D01*
X206026095Y-286602380D01*
X206502285Y-286602380D01*
%TO.C,K4*%
X116871523Y-229783380D02*
X116871523Y-228783380D01*
X117442952Y-229783380D02*
X117014380Y-229211952D01*
X117442952Y-228783380D02*
X116871523Y-229354809D01*
X117871523Y-229259571D02*
X118204857Y-229259571D01*
X118347714Y-229783380D02*
X117871523Y-229783380D01*
X117871523Y-228783380D01*
X118347714Y-228783380D01*
X118966761Y-229307190D02*
X118966761Y-229783380D01*
X118633428Y-228783380D02*
X118966761Y-229307190D01*
X119300095Y-228783380D01*
X119585809Y-229735761D02*
X119728666Y-229783380D01*
X119966761Y-229783380D01*
X120062000Y-229735761D01*
X120109619Y-229688142D01*
X120157238Y-229592904D01*
X120157238Y-229497666D01*
X120109619Y-229402428D01*
X120062000Y-229354809D01*
X119966761Y-229307190D01*
X119776285Y-229259571D01*
X119681047Y-229211952D01*
X119633428Y-229164333D01*
X119585809Y-229069095D01*
X119585809Y-228973857D01*
X119633428Y-228878619D01*
X119681047Y-228831000D01*
X119776285Y-228783380D01*
X120014380Y-228783380D01*
X120157238Y-228831000D01*
X120490571Y-228783380D02*
X120728666Y-229783380D01*
X120919142Y-229069095D01*
X121109619Y-229783380D01*
X121347714Y-228783380D01*
%TO.C,K28*%
X212121523Y-210733380D02*
X212121523Y-209733380D01*
X212692952Y-210733380D02*
X212264380Y-210161952D01*
X212692952Y-209733380D02*
X212121523Y-210304809D01*
X213121523Y-210209571D02*
X213454857Y-210209571D01*
X213597714Y-210733380D02*
X213121523Y-210733380D01*
X213121523Y-209733380D01*
X213597714Y-209733380D01*
X214216761Y-210257190D02*
X214216761Y-210733380D01*
X213883428Y-209733380D02*
X214216761Y-210257190D01*
X214550095Y-209733380D01*
X214835809Y-210685761D02*
X214978666Y-210733380D01*
X215216761Y-210733380D01*
X215312000Y-210685761D01*
X215359619Y-210638142D01*
X215407238Y-210542904D01*
X215407238Y-210447666D01*
X215359619Y-210352428D01*
X215312000Y-210304809D01*
X215216761Y-210257190D01*
X215026285Y-210209571D01*
X214931047Y-210161952D01*
X214883428Y-210114333D01*
X214835809Y-210019095D01*
X214835809Y-209923857D01*
X214883428Y-209828619D01*
X214931047Y-209781000D01*
X215026285Y-209733380D01*
X215264380Y-209733380D01*
X215407238Y-209781000D01*
X215740571Y-209733380D02*
X215978666Y-210733380D01*
X216169142Y-210019095D01*
X216359619Y-210733380D01*
X216597714Y-209733380D01*
%TO.C,K23*%
X193071523Y-210733380D02*
X193071523Y-209733380D01*
X193642952Y-210733380D02*
X193214380Y-210161952D01*
X193642952Y-209733380D02*
X193071523Y-210304809D01*
X194071523Y-210209571D02*
X194404857Y-210209571D01*
X194547714Y-210733380D02*
X194071523Y-210733380D01*
X194071523Y-209733380D01*
X194547714Y-209733380D01*
X195166761Y-210257190D02*
X195166761Y-210733380D01*
X194833428Y-209733380D02*
X195166761Y-210257190D01*
X195500095Y-209733380D01*
X195785809Y-210685761D02*
X195928666Y-210733380D01*
X196166761Y-210733380D01*
X196262000Y-210685761D01*
X196309619Y-210638142D01*
X196357238Y-210542904D01*
X196357238Y-210447666D01*
X196309619Y-210352428D01*
X196262000Y-210304809D01*
X196166761Y-210257190D01*
X195976285Y-210209571D01*
X195881047Y-210161952D01*
X195833428Y-210114333D01*
X195785809Y-210019095D01*
X195785809Y-209923857D01*
X195833428Y-209828619D01*
X195881047Y-209781000D01*
X195976285Y-209733380D01*
X196214380Y-209733380D01*
X196357238Y-209781000D01*
X196690571Y-209733380D02*
X196928666Y-210733380D01*
X197119142Y-210019095D01*
X197309619Y-210733380D01*
X197547714Y-209733380D01*
%TO.C,K31*%
X231171523Y-172633380D02*
X231171523Y-171633380D01*
X231742952Y-172633380D02*
X231314380Y-172061952D01*
X231742952Y-171633380D02*
X231171523Y-172204809D01*
X232171523Y-172109571D02*
X232504857Y-172109571D01*
X232647714Y-172633380D02*
X232171523Y-172633380D01*
X232171523Y-171633380D01*
X232647714Y-171633380D01*
X233266761Y-172157190D02*
X233266761Y-172633380D01*
X232933428Y-171633380D02*
X233266761Y-172157190D01*
X233600095Y-171633380D01*
X233885809Y-172585761D02*
X234028666Y-172633380D01*
X234266761Y-172633380D01*
X234362000Y-172585761D01*
X234409619Y-172538142D01*
X234457238Y-172442904D01*
X234457238Y-172347666D01*
X234409619Y-172252428D01*
X234362000Y-172204809D01*
X234266761Y-172157190D01*
X234076285Y-172109571D01*
X233981047Y-172061952D01*
X233933428Y-172014333D01*
X233885809Y-171919095D01*
X233885809Y-171823857D01*
X233933428Y-171728619D01*
X233981047Y-171681000D01*
X234076285Y-171633380D01*
X234314380Y-171633380D01*
X234457238Y-171681000D01*
X234790571Y-171633380D02*
X235028666Y-172633380D01*
X235219142Y-171919095D01*
X235409619Y-172633380D01*
X235647714Y-171633380D01*
%TO.C,K45*%
X269271523Y-248833380D02*
X269271523Y-247833380D01*
X269842952Y-248833380D02*
X269414380Y-248261952D01*
X269842952Y-247833380D02*
X269271523Y-248404809D01*
X270271523Y-248309571D02*
X270604857Y-248309571D01*
X270747714Y-248833380D02*
X270271523Y-248833380D01*
X270271523Y-247833380D01*
X270747714Y-247833380D01*
X271366761Y-248357190D02*
X271366761Y-248833380D01*
X271033428Y-247833380D02*
X271366761Y-248357190D01*
X271700095Y-247833380D01*
X271985809Y-248785761D02*
X272128666Y-248833380D01*
X272366761Y-248833380D01*
X272462000Y-248785761D01*
X272509619Y-248738142D01*
X272557238Y-248642904D01*
X272557238Y-248547666D01*
X272509619Y-248452428D01*
X272462000Y-248404809D01*
X272366761Y-248357190D01*
X272176285Y-248309571D01*
X272081047Y-248261952D01*
X272033428Y-248214333D01*
X271985809Y-248119095D01*
X271985809Y-248023857D01*
X272033428Y-247928619D01*
X272081047Y-247881000D01*
X272176285Y-247833380D01*
X272414380Y-247833380D01*
X272557238Y-247881000D01*
X272890571Y-247833380D02*
X273128666Y-248833380D01*
X273319142Y-248119095D01*
X273509619Y-248833380D01*
X273747714Y-247833380D01*
%TO.C,K36*%
X250221523Y-172633380D02*
X250221523Y-171633380D01*
X250792952Y-172633380D02*
X250364380Y-172061952D01*
X250792952Y-171633380D02*
X250221523Y-172204809D01*
X251221523Y-172109571D02*
X251554857Y-172109571D01*
X251697714Y-172633380D02*
X251221523Y-172633380D01*
X251221523Y-171633380D01*
X251697714Y-171633380D01*
X252316761Y-172157190D02*
X252316761Y-172633380D01*
X251983428Y-171633380D02*
X252316761Y-172157190D01*
X252650095Y-171633380D01*
X252935809Y-172585761D02*
X253078666Y-172633380D01*
X253316761Y-172633380D01*
X253412000Y-172585761D01*
X253459619Y-172538142D01*
X253507238Y-172442904D01*
X253507238Y-172347666D01*
X253459619Y-172252428D01*
X253412000Y-172204809D01*
X253316761Y-172157190D01*
X253126285Y-172109571D01*
X253031047Y-172061952D01*
X252983428Y-172014333D01*
X252935809Y-171919095D01*
X252935809Y-171823857D01*
X252983428Y-171728619D01*
X253031047Y-171681000D01*
X253126285Y-171633380D01*
X253364380Y-171633380D01*
X253507238Y-171681000D01*
X253840571Y-171633380D02*
X254078666Y-172633380D01*
X254269142Y-171919095D01*
X254459619Y-172633380D01*
X254697714Y-171633380D01*
%TO.C,TH2-1*%
X317421333Y-171302380D02*
X317421333Y-170302380D01*
X317421333Y-170778571D02*
X317992761Y-170778571D01*
X317992761Y-171302380D02*
X317992761Y-170302380D01*
X318659428Y-170302380D02*
X318849904Y-170302380D01*
X318945142Y-170350000D01*
X319040380Y-170445238D01*
X319088000Y-170635714D01*
X319088000Y-170969047D01*
X319040380Y-171159523D01*
X318945142Y-171254761D01*
X318849904Y-171302380D01*
X318659428Y-171302380D01*
X318564190Y-171254761D01*
X318468952Y-171159523D01*
X318421333Y-170969047D01*
X318421333Y-170635714D01*
X318468952Y-170445238D01*
X318564190Y-170350000D01*
X318659428Y-170302380D01*
X319992761Y-171302380D02*
X319516571Y-171302380D01*
X319516571Y-170302380D01*
X320326095Y-170778571D02*
X320659428Y-170778571D01*
X320802285Y-171302380D02*
X320326095Y-171302380D01*
X320326095Y-170302380D01*
X320802285Y-170302380D01*
%TO.C,K27*%
X212121523Y-191683380D02*
X212121523Y-190683380D01*
X212692952Y-191683380D02*
X212264380Y-191111952D01*
X212692952Y-190683380D02*
X212121523Y-191254809D01*
X213121523Y-191159571D02*
X213454857Y-191159571D01*
X213597714Y-191683380D02*
X213121523Y-191683380D01*
X213121523Y-190683380D01*
X213597714Y-190683380D01*
X214216761Y-191207190D02*
X214216761Y-191683380D01*
X213883428Y-190683380D02*
X214216761Y-191207190D01*
X214550095Y-190683380D01*
X214835809Y-191635761D02*
X214978666Y-191683380D01*
X215216761Y-191683380D01*
X215312000Y-191635761D01*
X215359619Y-191588142D01*
X215407238Y-191492904D01*
X215407238Y-191397666D01*
X215359619Y-191302428D01*
X215312000Y-191254809D01*
X215216761Y-191207190D01*
X215026285Y-191159571D01*
X214931047Y-191111952D01*
X214883428Y-191064333D01*
X214835809Y-190969095D01*
X214835809Y-190873857D01*
X214883428Y-190778619D01*
X214931047Y-190731000D01*
X215026285Y-190683380D01*
X215264380Y-190683380D01*
X215407238Y-190731000D01*
X215740571Y-190683380D02*
X215978666Y-191683380D01*
X216169142Y-190969095D01*
X216359619Y-191683380D01*
X216597714Y-190683380D01*
%TO.C,TH2-6*%
X222171333Y-171302380D02*
X222171333Y-170302380D01*
X222171333Y-170778571D02*
X222742761Y-170778571D01*
X222742761Y-171302380D02*
X222742761Y-170302380D01*
X223409428Y-170302380D02*
X223599904Y-170302380D01*
X223695142Y-170350000D01*
X223790380Y-170445238D01*
X223838000Y-170635714D01*
X223838000Y-170969047D01*
X223790380Y-171159523D01*
X223695142Y-171254761D01*
X223599904Y-171302380D01*
X223409428Y-171302380D01*
X223314190Y-171254761D01*
X223218952Y-171159523D01*
X223171333Y-170969047D01*
X223171333Y-170635714D01*
X223218952Y-170445238D01*
X223314190Y-170350000D01*
X223409428Y-170302380D01*
X224742761Y-171302380D02*
X224266571Y-171302380D01*
X224266571Y-170302380D01*
X225076095Y-170778571D02*
X225409428Y-170778571D01*
X225552285Y-171302380D02*
X225076095Y-171302380D01*
X225076095Y-170302380D01*
X225552285Y-170302380D01*
%TO.C,K25*%
X193071523Y-248833380D02*
X193071523Y-247833380D01*
X193642952Y-248833380D02*
X193214380Y-248261952D01*
X193642952Y-247833380D02*
X193071523Y-248404809D01*
X194071523Y-248309571D02*
X194404857Y-248309571D01*
X194547714Y-248833380D02*
X194071523Y-248833380D01*
X194071523Y-247833380D01*
X194547714Y-247833380D01*
X195166761Y-248357190D02*
X195166761Y-248833380D01*
X194833428Y-247833380D02*
X195166761Y-248357190D01*
X195500095Y-247833380D01*
X195785809Y-248785761D02*
X195928666Y-248833380D01*
X196166761Y-248833380D01*
X196262000Y-248785761D01*
X196309619Y-248738142D01*
X196357238Y-248642904D01*
X196357238Y-248547666D01*
X196309619Y-248452428D01*
X196262000Y-248404809D01*
X196166761Y-248357190D01*
X195976285Y-248309571D01*
X195881047Y-248261952D01*
X195833428Y-248214333D01*
X195785809Y-248119095D01*
X195785809Y-248023857D01*
X195833428Y-247928619D01*
X195881047Y-247881000D01*
X195976285Y-247833380D01*
X196214380Y-247833380D01*
X196357238Y-247881000D01*
X196690571Y-247833380D02*
X196928666Y-248833380D01*
X197119142Y-248119095D01*
X197309619Y-248833380D01*
X197547714Y-247833380D01*
%TO.C,TH2-4*%
X126921333Y-228452380D02*
X126921333Y-227452380D01*
X126921333Y-227928571D02*
X127492761Y-227928571D01*
X127492761Y-228452380D02*
X127492761Y-227452380D01*
X128159428Y-227452380D02*
X128349904Y-227452380D01*
X128445142Y-227500000D01*
X128540380Y-227595238D01*
X128588000Y-227785714D01*
X128588000Y-228119047D01*
X128540380Y-228309523D01*
X128445142Y-228404761D01*
X128349904Y-228452380D01*
X128159428Y-228452380D01*
X128064190Y-228404761D01*
X127968952Y-228309523D01*
X127921333Y-228119047D01*
X127921333Y-227785714D01*
X127968952Y-227595238D01*
X128064190Y-227500000D01*
X128159428Y-227452380D01*
X129492761Y-228452380D02*
X129016571Y-228452380D01*
X129016571Y-227452380D01*
X129826095Y-227928571D02*
X130159428Y-227928571D01*
X130302285Y-228452380D02*
X129826095Y-228452380D01*
X129826095Y-227452380D01*
X130302285Y-227452380D01*
%TO.C,K17*%
X174021523Y-191683380D02*
X174021523Y-190683380D01*
X174592952Y-191683380D02*
X174164380Y-191111952D01*
X174592952Y-190683380D02*
X174021523Y-191254809D01*
X175021523Y-191159571D02*
X175354857Y-191159571D01*
X175497714Y-191683380D02*
X175021523Y-191683380D01*
X175021523Y-190683380D01*
X175497714Y-190683380D01*
X176116761Y-191207190D02*
X176116761Y-191683380D01*
X175783428Y-190683380D02*
X176116761Y-191207190D01*
X176450095Y-190683380D01*
X176735809Y-191635761D02*
X176878666Y-191683380D01*
X177116761Y-191683380D01*
X177212000Y-191635761D01*
X177259619Y-191588142D01*
X177307238Y-191492904D01*
X177307238Y-191397666D01*
X177259619Y-191302428D01*
X177212000Y-191254809D01*
X177116761Y-191207190D01*
X176926285Y-191159571D01*
X176831047Y-191111952D01*
X176783428Y-191064333D01*
X176735809Y-190969095D01*
X176735809Y-190873857D01*
X176783428Y-190778619D01*
X176831047Y-190731000D01*
X176926285Y-190683380D01*
X177164380Y-190683380D01*
X177307238Y-190731000D01*
X177640571Y-190683380D02*
X177878666Y-191683380D01*
X178069142Y-190969095D01*
X178259619Y-191683380D01*
X178497714Y-190683380D01*
%TO.C,K35*%
X231171523Y-248833380D02*
X231171523Y-247833380D01*
X231742952Y-248833380D02*
X231314380Y-248261952D01*
X231742952Y-247833380D02*
X231171523Y-248404809D01*
X232171523Y-248309571D02*
X232504857Y-248309571D01*
X232647714Y-248833380D02*
X232171523Y-248833380D01*
X232171523Y-247833380D01*
X232647714Y-247833380D01*
X233266761Y-248357190D02*
X233266761Y-248833380D01*
X232933428Y-247833380D02*
X233266761Y-248357190D01*
X233600095Y-247833380D01*
X233885809Y-248785761D02*
X234028666Y-248833380D01*
X234266761Y-248833380D01*
X234362000Y-248785761D01*
X234409619Y-248738142D01*
X234457238Y-248642904D01*
X234457238Y-248547666D01*
X234409619Y-248452428D01*
X234362000Y-248404809D01*
X234266761Y-248357190D01*
X234076285Y-248309571D01*
X233981047Y-248261952D01*
X233933428Y-248214333D01*
X233885809Y-248119095D01*
X233885809Y-248023857D01*
X233933428Y-247928619D01*
X233981047Y-247881000D01*
X234076285Y-247833380D01*
X234314380Y-247833380D01*
X234457238Y-247881000D01*
X234790571Y-247833380D02*
X235028666Y-248833380D01*
X235219142Y-248119095D01*
X235409619Y-248833380D01*
X235647714Y-247833380D01*
%TO.C,K6*%
X135921523Y-172633380D02*
X135921523Y-171633380D01*
X136492952Y-172633380D02*
X136064380Y-172061952D01*
X136492952Y-171633380D02*
X135921523Y-172204809D01*
X136921523Y-172109571D02*
X137254857Y-172109571D01*
X137397714Y-172633380D02*
X136921523Y-172633380D01*
X136921523Y-171633380D01*
X137397714Y-171633380D01*
X138016761Y-172157190D02*
X138016761Y-172633380D01*
X137683428Y-171633380D02*
X138016761Y-172157190D01*
X138350095Y-171633380D01*
X138635809Y-172585761D02*
X138778666Y-172633380D01*
X139016761Y-172633380D01*
X139112000Y-172585761D01*
X139159619Y-172538142D01*
X139207238Y-172442904D01*
X139207238Y-172347666D01*
X139159619Y-172252428D01*
X139112000Y-172204809D01*
X139016761Y-172157190D01*
X138826285Y-172109571D01*
X138731047Y-172061952D01*
X138683428Y-172014333D01*
X138635809Y-171919095D01*
X138635809Y-171823857D01*
X138683428Y-171728619D01*
X138731047Y-171681000D01*
X138826285Y-171633380D01*
X139064380Y-171633380D01*
X139207238Y-171681000D01*
X139540571Y-171633380D02*
X139778666Y-172633380D01*
X139969142Y-171919095D01*
X140159619Y-172633380D01*
X140397714Y-171633380D01*
%TO.C,K18*%
X174021523Y-210733380D02*
X174021523Y-209733380D01*
X174592952Y-210733380D02*
X174164380Y-210161952D01*
X174592952Y-209733380D02*
X174021523Y-210304809D01*
X175021523Y-210209571D02*
X175354857Y-210209571D01*
X175497714Y-210733380D02*
X175021523Y-210733380D01*
X175021523Y-209733380D01*
X175497714Y-209733380D01*
X176116761Y-210257190D02*
X176116761Y-210733380D01*
X175783428Y-209733380D02*
X176116761Y-210257190D01*
X176450095Y-209733380D01*
X176735809Y-210685761D02*
X176878666Y-210733380D01*
X177116761Y-210733380D01*
X177212000Y-210685761D01*
X177259619Y-210638142D01*
X177307238Y-210542904D01*
X177307238Y-210447666D01*
X177259619Y-210352428D01*
X177212000Y-210304809D01*
X177116761Y-210257190D01*
X176926285Y-210209571D01*
X176831047Y-210161952D01*
X176783428Y-210114333D01*
X176735809Y-210019095D01*
X176735809Y-209923857D01*
X176783428Y-209828619D01*
X176831047Y-209781000D01*
X176926285Y-209733380D01*
X177164380Y-209733380D01*
X177307238Y-209781000D01*
X177640571Y-209733380D02*
X177878666Y-210733380D01*
X178069142Y-210019095D01*
X178259619Y-210733380D01*
X178497714Y-209733380D01*
%TO.C,TH3-4*%
X298371333Y-325702380D02*
X298371333Y-324702380D01*
X298371333Y-325178571D02*
X298942761Y-325178571D01*
X298942761Y-325702380D02*
X298942761Y-324702380D01*
X299609428Y-324702380D02*
X299799904Y-324702380D01*
X299895142Y-324750000D01*
X299990380Y-324845238D01*
X300038000Y-325035714D01*
X300038000Y-325369047D01*
X299990380Y-325559523D01*
X299895142Y-325654761D01*
X299799904Y-325702380D01*
X299609428Y-325702380D01*
X299514190Y-325654761D01*
X299418952Y-325559523D01*
X299371333Y-325369047D01*
X299371333Y-325035714D01*
X299418952Y-324845238D01*
X299514190Y-324750000D01*
X299609428Y-324702380D01*
X300942761Y-325702380D02*
X300466571Y-325702380D01*
X300466571Y-324702380D01*
X301276095Y-325178571D02*
X301609428Y-325178571D01*
X301752285Y-325702380D02*
X301276095Y-325702380D01*
X301276095Y-324702380D01*
X301752285Y-324702380D01*
%TO.C,K40*%
X250221523Y-248833380D02*
X250221523Y-247833380D01*
X250792952Y-248833380D02*
X250364380Y-248261952D01*
X250792952Y-247833380D02*
X250221523Y-248404809D01*
X251221523Y-248309571D02*
X251554857Y-248309571D01*
X251697714Y-248833380D02*
X251221523Y-248833380D01*
X251221523Y-247833380D01*
X251697714Y-247833380D01*
X252316761Y-248357190D02*
X252316761Y-248833380D01*
X251983428Y-247833380D02*
X252316761Y-248357190D01*
X252650095Y-247833380D01*
X252935809Y-248785761D02*
X253078666Y-248833380D01*
X253316761Y-248833380D01*
X253412000Y-248785761D01*
X253459619Y-248738142D01*
X253507238Y-248642904D01*
X253507238Y-248547666D01*
X253459619Y-248452428D01*
X253412000Y-248404809D01*
X253316761Y-248357190D01*
X253126285Y-248309571D01*
X253031047Y-248261952D01*
X252983428Y-248214333D01*
X252935809Y-248119095D01*
X252935809Y-248023857D01*
X252983428Y-247928619D01*
X253031047Y-247881000D01*
X253126285Y-247833380D01*
X253364380Y-247833380D01*
X253507238Y-247881000D01*
X253840571Y-247833380D02*
X254078666Y-248833380D01*
X254269142Y-248119095D01*
X254459619Y-248833380D01*
X254697714Y-247833380D01*
%TO.C,K38*%
X250221523Y-210733380D02*
X250221523Y-209733380D01*
X250792952Y-210733380D02*
X250364380Y-210161952D01*
X250792952Y-209733380D02*
X250221523Y-210304809D01*
X251221523Y-210209571D02*
X251554857Y-210209571D01*
X251697714Y-210733380D02*
X251221523Y-210733380D01*
X251221523Y-209733380D01*
X251697714Y-209733380D01*
X252316761Y-210257190D02*
X252316761Y-210733380D01*
X251983428Y-209733380D02*
X252316761Y-210257190D01*
X252650095Y-209733380D01*
X252935809Y-210685761D02*
X253078666Y-210733380D01*
X253316761Y-210733380D01*
X253412000Y-210685761D01*
X253459619Y-210638142D01*
X253507238Y-210542904D01*
X253507238Y-210447666D01*
X253459619Y-210352428D01*
X253412000Y-210304809D01*
X253316761Y-210257190D01*
X253126285Y-210209571D01*
X253031047Y-210161952D01*
X252983428Y-210114333D01*
X252935809Y-210019095D01*
X252935809Y-209923857D01*
X252983428Y-209828619D01*
X253031047Y-209781000D01*
X253126285Y-209733380D01*
X253364380Y-209733380D01*
X253507238Y-209781000D01*
X253840571Y-209733380D02*
X254078666Y-210733380D01*
X254269142Y-210019095D01*
X254459619Y-210733380D01*
X254697714Y-209733380D01*
%TO.C,K56*%
X326421523Y-172633380D02*
X326421523Y-171633380D01*
X326992952Y-172633380D02*
X326564380Y-172061952D01*
X326992952Y-171633380D02*
X326421523Y-172204809D01*
X327421523Y-172109571D02*
X327754857Y-172109571D01*
X327897714Y-172633380D02*
X327421523Y-172633380D01*
X327421523Y-171633380D01*
X327897714Y-171633380D01*
X328516761Y-172157190D02*
X328516761Y-172633380D01*
X328183428Y-171633380D02*
X328516761Y-172157190D01*
X328850095Y-171633380D01*
X329135809Y-172585761D02*
X329278666Y-172633380D01*
X329516761Y-172633380D01*
X329612000Y-172585761D01*
X329659619Y-172538142D01*
X329707238Y-172442904D01*
X329707238Y-172347666D01*
X329659619Y-172252428D01*
X329612000Y-172204809D01*
X329516761Y-172157190D01*
X329326285Y-172109571D01*
X329231047Y-172061952D01*
X329183428Y-172014333D01*
X329135809Y-171919095D01*
X329135809Y-171823857D01*
X329183428Y-171728619D01*
X329231047Y-171681000D01*
X329326285Y-171633380D01*
X329564380Y-171633380D01*
X329707238Y-171681000D01*
X330040571Y-171633380D02*
X330278666Y-172633380D01*
X330469142Y-171919095D01*
X330659619Y-172633380D01*
X330897714Y-171633380D01*
%TO.C,K8*%
X135921523Y-210733380D02*
X135921523Y-209733380D01*
X136492952Y-210733380D02*
X136064380Y-210161952D01*
X136492952Y-209733380D02*
X135921523Y-210304809D01*
X136921523Y-210209571D02*
X137254857Y-210209571D01*
X137397714Y-210733380D02*
X136921523Y-210733380D01*
X136921523Y-209733380D01*
X137397714Y-209733380D01*
X138016761Y-210257190D02*
X138016761Y-210733380D01*
X137683428Y-209733380D02*
X138016761Y-210257190D01*
X138350095Y-209733380D01*
X138635809Y-210685761D02*
X138778666Y-210733380D01*
X139016761Y-210733380D01*
X139112000Y-210685761D01*
X139159619Y-210638142D01*
X139207238Y-210542904D01*
X139207238Y-210447666D01*
X139159619Y-210352428D01*
X139112000Y-210304809D01*
X139016761Y-210257190D01*
X138826285Y-210209571D01*
X138731047Y-210161952D01*
X138683428Y-210114333D01*
X138635809Y-210019095D01*
X138635809Y-209923857D01*
X138683428Y-209828619D01*
X138731047Y-209781000D01*
X138826285Y-209733380D01*
X139064380Y-209733380D01*
X139207238Y-209781000D01*
X139540571Y-209733380D02*
X139778666Y-210733380D01*
X139969142Y-210019095D01*
X140159619Y-210733380D01*
X140397714Y-209733380D01*
%TO.C,TH3-9*%
X184071333Y-268552380D02*
X184071333Y-267552380D01*
X184071333Y-268028571D02*
X184642761Y-268028571D01*
X184642761Y-268552380D02*
X184642761Y-267552380D01*
X185309428Y-267552380D02*
X185499904Y-267552380D01*
X185595142Y-267600000D01*
X185690380Y-267695238D01*
X185738000Y-267885714D01*
X185738000Y-268219047D01*
X185690380Y-268409523D01*
X185595142Y-268504761D01*
X185499904Y-268552380D01*
X185309428Y-268552380D01*
X185214190Y-268504761D01*
X185118952Y-268409523D01*
X185071333Y-268219047D01*
X185071333Y-267885714D01*
X185118952Y-267695238D01*
X185214190Y-267600000D01*
X185309428Y-267552380D01*
X186642761Y-268552380D02*
X186166571Y-268552380D01*
X186166571Y-267552380D01*
X186976095Y-268028571D02*
X187309428Y-268028571D01*
X187452285Y-268552380D02*
X186976095Y-268552380D01*
X186976095Y-267552380D01*
X187452285Y-267552380D01*
%TO.C,TH3-15*%
X126921333Y-287602380D02*
X126921333Y-286602380D01*
X126921333Y-287078571D02*
X127492761Y-287078571D01*
X127492761Y-287602380D02*
X127492761Y-286602380D01*
X128159428Y-286602380D02*
X128349904Y-286602380D01*
X128445142Y-286650000D01*
X128540380Y-286745238D01*
X128588000Y-286935714D01*
X128588000Y-287269047D01*
X128540380Y-287459523D01*
X128445142Y-287554761D01*
X128349904Y-287602380D01*
X128159428Y-287602380D01*
X128064190Y-287554761D01*
X127968952Y-287459523D01*
X127921333Y-287269047D01*
X127921333Y-286935714D01*
X127968952Y-286745238D01*
X128064190Y-286650000D01*
X128159428Y-286602380D01*
X129492761Y-287602380D02*
X129016571Y-287602380D01*
X129016571Y-286602380D01*
X129826095Y-287078571D02*
X130159428Y-287078571D01*
X130302285Y-287602380D02*
X129826095Y-287602380D01*
X129826095Y-286602380D01*
X130302285Y-286602380D01*
%TO.C,K55*%
X307371523Y-248833380D02*
X307371523Y-247833380D01*
X307942952Y-248833380D02*
X307514380Y-248261952D01*
X307942952Y-247833380D02*
X307371523Y-248404809D01*
X308371523Y-248309571D02*
X308704857Y-248309571D01*
X308847714Y-248833380D02*
X308371523Y-248833380D01*
X308371523Y-247833380D01*
X308847714Y-247833380D01*
X309466761Y-248357190D02*
X309466761Y-248833380D01*
X309133428Y-247833380D02*
X309466761Y-248357190D01*
X309800095Y-247833380D01*
X310085809Y-248785761D02*
X310228666Y-248833380D01*
X310466761Y-248833380D01*
X310562000Y-248785761D01*
X310609619Y-248738142D01*
X310657238Y-248642904D01*
X310657238Y-248547666D01*
X310609619Y-248452428D01*
X310562000Y-248404809D01*
X310466761Y-248357190D01*
X310276285Y-248309571D01*
X310181047Y-248261952D01*
X310133428Y-248214333D01*
X310085809Y-248119095D01*
X310085809Y-248023857D01*
X310133428Y-247928619D01*
X310181047Y-247881000D01*
X310276285Y-247833380D01*
X310514380Y-247833380D01*
X310657238Y-247881000D01*
X310990571Y-247833380D02*
X311228666Y-248833380D01*
X311419142Y-248119095D01*
X311609619Y-248833380D01*
X311847714Y-247833380D01*
%TO.C,TH3-12*%
X184071333Y-325702380D02*
X184071333Y-324702380D01*
X184071333Y-325178571D02*
X184642761Y-325178571D01*
X184642761Y-325702380D02*
X184642761Y-324702380D01*
X185309428Y-324702380D02*
X185499904Y-324702380D01*
X185595142Y-324750000D01*
X185690380Y-324845238D01*
X185738000Y-325035714D01*
X185738000Y-325369047D01*
X185690380Y-325559523D01*
X185595142Y-325654761D01*
X185499904Y-325702380D01*
X185309428Y-325702380D01*
X185214190Y-325654761D01*
X185118952Y-325559523D01*
X185071333Y-325369047D01*
X185071333Y-325035714D01*
X185118952Y-324845238D01*
X185214190Y-324750000D01*
X185309428Y-324702380D01*
X186642761Y-325702380D02*
X186166571Y-325702380D01*
X186166571Y-324702380D01*
X186976095Y-325178571D02*
X187309428Y-325178571D01*
X187452285Y-325702380D02*
X186976095Y-325702380D01*
X186976095Y-324702380D01*
X187452285Y-324702380D01*
%TO.C,K47*%
X288321523Y-191683380D02*
X288321523Y-190683380D01*
X288892952Y-191683380D02*
X288464380Y-191111952D01*
X288892952Y-190683380D02*
X288321523Y-191254809D01*
X289321523Y-191159571D02*
X289654857Y-191159571D01*
X289797714Y-191683380D02*
X289321523Y-191683380D01*
X289321523Y-190683380D01*
X289797714Y-190683380D01*
X290416761Y-191207190D02*
X290416761Y-191683380D01*
X290083428Y-190683380D02*
X290416761Y-191207190D01*
X290750095Y-190683380D01*
X291035809Y-191635761D02*
X291178666Y-191683380D01*
X291416761Y-191683380D01*
X291512000Y-191635761D01*
X291559619Y-191588142D01*
X291607238Y-191492904D01*
X291607238Y-191397666D01*
X291559619Y-191302428D01*
X291512000Y-191254809D01*
X291416761Y-191207190D01*
X291226285Y-191159571D01*
X291131047Y-191111952D01*
X291083428Y-191064333D01*
X291035809Y-190969095D01*
X291035809Y-190873857D01*
X291083428Y-190778619D01*
X291131047Y-190731000D01*
X291226285Y-190683380D01*
X291464380Y-190683380D01*
X291607238Y-190731000D01*
X291940571Y-190683380D02*
X292178666Y-191683380D01*
X292369142Y-190969095D01*
X292559619Y-191683380D01*
X292797714Y-190683380D01*
%TO.C,K29*%
X212121523Y-229783380D02*
X212121523Y-228783380D01*
X212692952Y-229783380D02*
X212264380Y-229211952D01*
X212692952Y-228783380D02*
X212121523Y-229354809D01*
X213121523Y-229259571D02*
X213454857Y-229259571D01*
X213597714Y-229783380D02*
X213121523Y-229783380D01*
X213121523Y-228783380D01*
X213597714Y-228783380D01*
X214216761Y-229307190D02*
X214216761Y-229783380D01*
X213883428Y-228783380D02*
X214216761Y-229307190D01*
X214550095Y-228783380D01*
X214835809Y-229735761D02*
X214978666Y-229783380D01*
X215216761Y-229783380D01*
X215312000Y-229735761D01*
X215359619Y-229688142D01*
X215407238Y-229592904D01*
X215407238Y-229497666D01*
X215359619Y-229402428D01*
X215312000Y-229354809D01*
X215216761Y-229307190D01*
X215026285Y-229259571D01*
X214931047Y-229211952D01*
X214883428Y-229164333D01*
X214835809Y-229069095D01*
X214835809Y-228973857D01*
X214883428Y-228878619D01*
X214931047Y-228831000D01*
X215026285Y-228783380D01*
X215264380Y-228783380D01*
X215407238Y-228831000D01*
X215740571Y-228783380D02*
X215978666Y-229783380D01*
X216169142Y-229069095D01*
X216359619Y-229783380D01*
X216597714Y-228783380D01*
%TO.C,K53*%
X307371523Y-210733380D02*
X307371523Y-209733380D01*
X307942952Y-210733380D02*
X307514380Y-210161952D01*
X307942952Y-209733380D02*
X307371523Y-210304809D01*
X308371523Y-210209571D02*
X308704857Y-210209571D01*
X308847714Y-210733380D02*
X308371523Y-210733380D01*
X308371523Y-209733380D01*
X308847714Y-209733380D01*
X309466761Y-210257190D02*
X309466761Y-210733380D01*
X309133428Y-209733380D02*
X309466761Y-210257190D01*
X309800095Y-209733380D01*
X310085809Y-210685761D02*
X310228666Y-210733380D01*
X310466761Y-210733380D01*
X310562000Y-210685761D01*
X310609619Y-210638142D01*
X310657238Y-210542904D01*
X310657238Y-210447666D01*
X310609619Y-210352428D01*
X310562000Y-210304809D01*
X310466761Y-210257190D01*
X310276285Y-210209571D01*
X310181047Y-210161952D01*
X310133428Y-210114333D01*
X310085809Y-210019095D01*
X310085809Y-209923857D01*
X310133428Y-209828619D01*
X310181047Y-209781000D01*
X310276285Y-209733380D01*
X310514380Y-209733380D01*
X310657238Y-209781000D01*
X310990571Y-209733380D02*
X311228666Y-210733380D01*
X311419142Y-210019095D01*
X311609619Y-210733380D01*
X311847714Y-209733380D01*
%TO.C,TH2-2*%
X317421333Y-228452380D02*
X317421333Y-227452380D01*
X317421333Y-227928571D02*
X317992761Y-227928571D01*
X317992761Y-228452380D02*
X317992761Y-227452380D01*
X318659428Y-227452380D02*
X318849904Y-227452380D01*
X318945142Y-227500000D01*
X319040380Y-227595238D01*
X319088000Y-227785714D01*
X319088000Y-228119047D01*
X319040380Y-228309523D01*
X318945142Y-228404761D01*
X318849904Y-228452380D01*
X318659428Y-228452380D01*
X318564190Y-228404761D01*
X318468952Y-228309523D01*
X318421333Y-228119047D01*
X318421333Y-227785714D01*
X318468952Y-227595238D01*
X318564190Y-227500000D01*
X318659428Y-227452380D01*
X319992761Y-228452380D02*
X319516571Y-228452380D01*
X319516571Y-227452380D01*
X320326095Y-227928571D02*
X320659428Y-227928571D01*
X320802285Y-228452380D02*
X320326095Y-228452380D01*
X320326095Y-227452380D01*
X320802285Y-227452380D01*
%TO.C,K57*%
X326421523Y-191683380D02*
X326421523Y-190683380D01*
X326992952Y-191683380D02*
X326564380Y-191111952D01*
X326992952Y-190683380D02*
X326421523Y-191254809D01*
X327421523Y-191159571D02*
X327754857Y-191159571D01*
X327897714Y-191683380D02*
X327421523Y-191683380D01*
X327421523Y-190683380D01*
X327897714Y-190683380D01*
X328516761Y-191207190D02*
X328516761Y-191683380D01*
X328183428Y-190683380D02*
X328516761Y-191207190D01*
X328850095Y-190683380D01*
X329135809Y-191635761D02*
X329278666Y-191683380D01*
X329516761Y-191683380D01*
X329612000Y-191635761D01*
X329659619Y-191588142D01*
X329707238Y-191492904D01*
X329707238Y-191397666D01*
X329659619Y-191302428D01*
X329612000Y-191254809D01*
X329516761Y-191207190D01*
X329326285Y-191159571D01*
X329231047Y-191111952D01*
X329183428Y-191064333D01*
X329135809Y-190969095D01*
X329135809Y-190873857D01*
X329183428Y-190778619D01*
X329231047Y-190731000D01*
X329326285Y-190683380D01*
X329564380Y-190683380D01*
X329707238Y-190731000D01*
X330040571Y-190683380D02*
X330278666Y-191683380D01*
X330469142Y-190969095D01*
X330659619Y-191683380D01*
X330897714Y-190683380D01*
%TO.C,K30*%
X212121523Y-248833380D02*
X212121523Y-247833380D01*
X212692952Y-248833380D02*
X212264380Y-248261952D01*
X212692952Y-247833380D02*
X212121523Y-248404809D01*
X213121523Y-248309571D02*
X213454857Y-248309571D01*
X213597714Y-248833380D02*
X213121523Y-248833380D01*
X213121523Y-247833380D01*
X213597714Y-247833380D01*
X214216761Y-248357190D02*
X214216761Y-248833380D01*
X213883428Y-247833380D02*
X214216761Y-248357190D01*
X214550095Y-247833380D01*
X214835809Y-248785761D02*
X214978666Y-248833380D01*
X215216761Y-248833380D01*
X215312000Y-248785761D01*
X215359619Y-248738142D01*
X215407238Y-248642904D01*
X215407238Y-248547666D01*
X215359619Y-248452428D01*
X215312000Y-248404809D01*
X215216761Y-248357190D01*
X215026285Y-248309571D01*
X214931047Y-248261952D01*
X214883428Y-248214333D01*
X214835809Y-248119095D01*
X214835809Y-248023857D01*
X214883428Y-247928619D01*
X214931047Y-247881000D01*
X215026285Y-247833380D01*
X215264380Y-247833380D01*
X215407238Y-247881000D01*
X215740571Y-247833380D02*
X215978666Y-248833380D01*
X216169142Y-248119095D01*
X216359619Y-248833380D01*
X216597714Y-247833380D01*
%TO.C,TH2-5*%
X126921333Y-171302380D02*
X126921333Y-170302380D01*
X126921333Y-170778571D02*
X127492761Y-170778571D01*
X127492761Y-171302380D02*
X127492761Y-170302380D01*
X128159428Y-170302380D02*
X128349904Y-170302380D01*
X128445142Y-170350000D01*
X128540380Y-170445238D01*
X128588000Y-170635714D01*
X128588000Y-170969047D01*
X128540380Y-171159523D01*
X128445142Y-171254761D01*
X128349904Y-171302380D01*
X128159428Y-171302380D01*
X128064190Y-171254761D01*
X127968952Y-171159523D01*
X127921333Y-170969047D01*
X127921333Y-170635714D01*
X127968952Y-170445238D01*
X128064190Y-170350000D01*
X128159428Y-170302380D01*
X129492761Y-171302380D02*
X129016571Y-171302380D01*
X129016571Y-170302380D01*
X129826095Y-170778571D02*
X130159428Y-170778571D01*
X130302285Y-171302380D02*
X129826095Y-171302380D01*
X129826095Y-170302380D01*
X130302285Y-170302380D01*
%TO.C,K1*%
X116871523Y-172633380D02*
X116871523Y-171633380D01*
X117442952Y-172633380D02*
X117014380Y-172061952D01*
X117442952Y-171633380D02*
X116871523Y-172204809D01*
X117871523Y-172109571D02*
X118204857Y-172109571D01*
X118347714Y-172633380D02*
X117871523Y-172633380D01*
X117871523Y-171633380D01*
X118347714Y-171633380D01*
X118966761Y-172157190D02*
X118966761Y-172633380D01*
X118633428Y-171633380D02*
X118966761Y-172157190D01*
X119300095Y-171633380D01*
X119585809Y-172585761D02*
X119728666Y-172633380D01*
X119966761Y-172633380D01*
X120062000Y-172585761D01*
X120109619Y-172538142D01*
X120157238Y-172442904D01*
X120157238Y-172347666D01*
X120109619Y-172252428D01*
X120062000Y-172204809D01*
X119966761Y-172157190D01*
X119776285Y-172109571D01*
X119681047Y-172061952D01*
X119633428Y-172014333D01*
X119585809Y-171919095D01*
X119585809Y-171823857D01*
X119633428Y-171728619D01*
X119681047Y-171681000D01*
X119776285Y-171633380D01*
X120014380Y-171633380D01*
X120157238Y-171681000D01*
X120490571Y-171633380D02*
X120728666Y-172633380D01*
X120919142Y-171919095D01*
X121109619Y-172633380D01*
X121347714Y-171633380D01*
%TO.C,TH3-6*%
X241221333Y-306652380D02*
X241221333Y-305652380D01*
X241221333Y-306128571D02*
X241792761Y-306128571D01*
X241792761Y-306652380D02*
X241792761Y-305652380D01*
X242459428Y-305652380D02*
X242649904Y-305652380D01*
X242745142Y-305700000D01*
X242840380Y-305795238D01*
X242888000Y-305985714D01*
X242888000Y-306319047D01*
X242840380Y-306509523D01*
X242745142Y-306604761D01*
X242649904Y-306652380D01*
X242459428Y-306652380D01*
X242364190Y-306604761D01*
X242268952Y-306509523D01*
X242221333Y-306319047D01*
X242221333Y-305985714D01*
X242268952Y-305795238D01*
X242364190Y-305700000D01*
X242459428Y-305652380D01*
X243792761Y-306652380D02*
X243316571Y-306652380D01*
X243316571Y-305652380D01*
X244126095Y-306128571D02*
X244459428Y-306128571D01*
X244602285Y-306652380D02*
X244126095Y-306652380D01*
X244126095Y-305652380D01*
X244602285Y-305652380D01*
%TO.C,U2*%
X91958580Y-208436952D02*
X91958580Y-208341714D01*
X92006200Y-208246476D01*
X92053819Y-208198857D01*
X92149057Y-208151238D01*
X92339533Y-208103619D01*
X92577628Y-208103619D01*
X92768104Y-208151238D01*
X92863342Y-208198857D01*
X92910961Y-208246476D01*
X92958580Y-208341714D01*
X92958580Y-208436952D01*
X92910961Y-208532190D01*
X92863342Y-208579809D01*
X92768104Y-208627428D01*
X92577628Y-208675047D01*
X92339533Y-208675047D01*
X92149057Y-208627428D01*
X92053819Y-208579809D01*
X92006200Y-208532190D01*
X91958580Y-208436952D01*
X92863342Y-207675047D02*
X92910961Y-207627428D01*
X92958580Y-207675047D01*
X92910961Y-207722666D01*
X92863342Y-207675047D01*
X92958580Y-207675047D01*
X92958580Y-207151238D02*
X92958580Y-206960761D01*
X92910961Y-206865523D01*
X92863342Y-206817904D01*
X92720485Y-206722666D01*
X92530009Y-206675047D01*
X92149057Y-206675047D01*
X92053819Y-206722666D01*
X92006200Y-206770285D01*
X91958580Y-206865523D01*
X91958580Y-207056000D01*
X92006200Y-207151238D01*
X92053819Y-207198857D01*
X92149057Y-207246476D01*
X92387152Y-207246476D01*
X92482390Y-207198857D01*
X92530009Y-207151238D01*
X92577628Y-207056000D01*
X92577628Y-206865523D01*
X92530009Y-206770285D01*
X92482390Y-206722666D01*
X92387152Y-206675047D01*
X92958580Y-205722666D02*
X92958580Y-206294095D01*
X92958580Y-206008380D02*
X91958580Y-206008380D01*
X92101438Y-206103619D01*
X92196676Y-206198857D01*
X92244295Y-206294095D01*
X93053819Y-205532190D02*
X93053819Y-204770285D01*
X92958580Y-204389333D02*
X92910961Y-204484571D01*
X92863342Y-204532190D01*
X92768104Y-204579809D01*
X92482390Y-204579809D01*
X92387152Y-204532190D01*
X92339533Y-204484571D01*
X92291914Y-204389333D01*
X92291914Y-204246476D01*
X92339533Y-204151238D01*
X92387152Y-204103619D01*
X92482390Y-204056000D01*
X92768104Y-204056000D01*
X92863342Y-204103619D01*
X92910961Y-204151238D01*
X92958580Y-204246476D01*
X92958580Y-204389333D01*
X92958580Y-203484571D02*
X92910961Y-203579809D01*
X92815723Y-203627428D01*
X91958580Y-203627428D01*
X92910961Y-202722666D02*
X92958580Y-202817904D01*
X92958580Y-203008380D01*
X92910961Y-203103619D01*
X92815723Y-203151238D01*
X92434771Y-203151238D01*
X92339533Y-203103619D01*
X92291914Y-203008380D01*
X92291914Y-202817904D01*
X92339533Y-202722666D01*
X92434771Y-202675047D01*
X92530009Y-202675047D01*
X92625247Y-203151238D01*
X92958580Y-201817904D02*
X91958580Y-201817904D01*
X92910961Y-201817904D02*
X92958580Y-201913142D01*
X92958580Y-202103619D01*
X92910961Y-202198857D01*
X92863342Y-202246476D01*
X92768104Y-202294095D01*
X92482390Y-202294095D01*
X92387152Y-202246476D01*
X92339533Y-202198857D01*
X92291914Y-202103619D01*
X92291914Y-201913142D01*
X92339533Y-201817904D01*
X93053819Y-201579809D02*
X93053819Y-200817904D01*
X92958580Y-200056000D02*
X92958580Y-200627428D01*
X92958580Y-200341714D02*
X91958580Y-200341714D01*
X92101438Y-200436952D01*
X92196676Y-200532190D01*
X92244295Y-200627428D01*
X92053819Y-199675047D02*
X92006200Y-199627428D01*
X91958580Y-199532190D01*
X91958580Y-199294095D01*
X92006200Y-199198857D01*
X92053819Y-199151238D01*
X92149057Y-199103619D01*
X92244295Y-199103619D01*
X92387152Y-199151238D01*
X92958580Y-199722666D01*
X92958580Y-199103619D01*
X92387152Y-198532190D02*
X92339533Y-198627428D01*
X92291914Y-198675047D01*
X92196676Y-198722666D01*
X92149057Y-198722666D01*
X92053819Y-198675047D01*
X92006200Y-198627428D01*
X91958580Y-198532190D01*
X91958580Y-198341714D01*
X92006200Y-198246476D01*
X92053819Y-198198857D01*
X92149057Y-198151238D01*
X92196676Y-198151238D01*
X92291914Y-198198857D01*
X92339533Y-198246476D01*
X92387152Y-198341714D01*
X92387152Y-198532190D01*
X92434771Y-198627428D01*
X92482390Y-198675047D01*
X92577628Y-198722666D01*
X92768104Y-198722666D01*
X92863342Y-198675047D01*
X92910961Y-198627428D01*
X92958580Y-198532190D01*
X92958580Y-198341714D01*
X92910961Y-198246476D01*
X92863342Y-198198857D01*
X92768104Y-198151238D01*
X92577628Y-198151238D01*
X92482390Y-198198857D01*
X92434771Y-198246476D01*
X92387152Y-198341714D01*
X92958580Y-197817904D02*
X92291914Y-197294095D01*
X92291914Y-197817904D02*
X92958580Y-197294095D01*
X91958580Y-197008380D02*
X91958580Y-196389333D01*
X92339533Y-196722666D01*
X92339533Y-196579809D01*
X92387152Y-196484571D01*
X92434771Y-196436952D01*
X92530009Y-196389333D01*
X92768104Y-196389333D01*
X92863342Y-196436952D01*
X92910961Y-196484571D01*
X92958580Y-196579809D01*
X92958580Y-196865523D01*
X92910961Y-196960761D01*
X92863342Y-197008380D01*
X92053819Y-196008380D02*
X92006200Y-195960761D01*
X91958580Y-195865523D01*
X91958580Y-195627428D01*
X92006200Y-195532190D01*
X92053819Y-195484571D01*
X92149057Y-195436952D01*
X92244295Y-195436952D01*
X92387152Y-195484571D01*
X92958580Y-196056000D01*
X92958580Y-195436952D01*
%TO.C,TH3-7*%
X241221333Y-287602380D02*
X241221333Y-286602380D01*
X241221333Y-287078571D02*
X241792761Y-287078571D01*
X241792761Y-287602380D02*
X241792761Y-286602380D01*
X242459428Y-286602380D02*
X242649904Y-286602380D01*
X242745142Y-286650000D01*
X242840380Y-286745238D01*
X242888000Y-286935714D01*
X242888000Y-287269047D01*
X242840380Y-287459523D01*
X242745142Y-287554761D01*
X242649904Y-287602380D01*
X242459428Y-287602380D01*
X242364190Y-287554761D01*
X242268952Y-287459523D01*
X242221333Y-287269047D01*
X242221333Y-286935714D01*
X242268952Y-286745238D01*
X242364190Y-286650000D01*
X242459428Y-286602380D01*
X243792761Y-287602380D02*
X243316571Y-287602380D01*
X243316571Y-286602380D01*
X244126095Y-287078571D02*
X244459428Y-287078571D01*
X244602285Y-287602380D02*
X244126095Y-287602380D01*
X244126095Y-286602380D01*
X244602285Y-286602380D01*
%TO.C,K9*%
X135921523Y-229783380D02*
X135921523Y-228783380D01*
X136492952Y-229783380D02*
X136064380Y-229211952D01*
X136492952Y-228783380D02*
X135921523Y-229354809D01*
X136921523Y-229259571D02*
X137254857Y-229259571D01*
X137397714Y-229783380D02*
X136921523Y-229783380D01*
X136921523Y-228783380D01*
X137397714Y-228783380D01*
X138016761Y-229307190D02*
X138016761Y-229783380D01*
X137683428Y-228783380D02*
X138016761Y-229307190D01*
X138350095Y-228783380D01*
X138635809Y-229735761D02*
X138778666Y-229783380D01*
X139016761Y-229783380D01*
X139112000Y-229735761D01*
X139159619Y-229688142D01*
X139207238Y-229592904D01*
X139207238Y-229497666D01*
X139159619Y-229402428D01*
X139112000Y-229354809D01*
X139016761Y-229307190D01*
X138826285Y-229259571D01*
X138731047Y-229211952D01*
X138683428Y-229164333D01*
X138635809Y-229069095D01*
X138635809Y-228973857D01*
X138683428Y-228878619D01*
X138731047Y-228831000D01*
X138826285Y-228783380D01*
X139064380Y-228783380D01*
X139207238Y-228831000D01*
X139540571Y-228783380D02*
X139778666Y-229783380D01*
X139969142Y-229069095D01*
X140159619Y-229783380D01*
X140397714Y-228783380D01*
%TO.C,K48*%
X288321523Y-210733380D02*
X288321523Y-209733380D01*
X288892952Y-210733380D02*
X288464380Y-210161952D01*
X288892952Y-209733380D02*
X288321523Y-210304809D01*
X289321523Y-210209571D02*
X289654857Y-210209571D01*
X289797714Y-210733380D02*
X289321523Y-210733380D01*
X289321523Y-209733380D01*
X289797714Y-209733380D01*
X290416761Y-210257190D02*
X290416761Y-210733380D01*
X290083428Y-209733380D02*
X290416761Y-210257190D01*
X290750095Y-209733380D01*
X291035809Y-210685761D02*
X291178666Y-210733380D01*
X291416761Y-210733380D01*
X291512000Y-210685761D01*
X291559619Y-210638142D01*
X291607238Y-210542904D01*
X291607238Y-210447666D01*
X291559619Y-210352428D01*
X291512000Y-210304809D01*
X291416761Y-210257190D01*
X291226285Y-210209571D01*
X291131047Y-210161952D01*
X291083428Y-210114333D01*
X291035809Y-210019095D01*
X291035809Y-209923857D01*
X291083428Y-209828619D01*
X291131047Y-209781000D01*
X291226285Y-209733380D01*
X291464380Y-209733380D01*
X291607238Y-209781000D01*
X291940571Y-209733380D02*
X292178666Y-210733380D01*
X292369142Y-210019095D01*
X292559619Y-210733380D01*
X292797714Y-209733380D01*
%TO.C,TH3-2*%
X317421333Y-287602380D02*
X317421333Y-286602380D01*
X317421333Y-287078571D02*
X317992761Y-287078571D01*
X317992761Y-287602380D02*
X317992761Y-286602380D01*
X318659428Y-286602380D02*
X318849904Y-286602380D01*
X318945142Y-286650000D01*
X319040380Y-286745238D01*
X319088000Y-286935714D01*
X319088000Y-287269047D01*
X319040380Y-287459523D01*
X318945142Y-287554761D01*
X318849904Y-287602380D01*
X318659428Y-287602380D01*
X318564190Y-287554761D01*
X318468952Y-287459523D01*
X318421333Y-287269047D01*
X318421333Y-286935714D01*
X318468952Y-286745238D01*
X318564190Y-286650000D01*
X318659428Y-286602380D01*
X319992761Y-287602380D02*
X319516571Y-287602380D01*
X319516571Y-286602380D01*
X320326095Y-287078571D02*
X320659428Y-287078571D01*
X320802285Y-287602380D02*
X320326095Y-287602380D01*
X320326095Y-286602380D01*
X320802285Y-286602380D01*
%TO.C,K10*%
X135921523Y-248833380D02*
X135921523Y-247833380D01*
X136492952Y-248833380D02*
X136064380Y-248261952D01*
X136492952Y-247833380D02*
X135921523Y-248404809D01*
X136921523Y-248309571D02*
X137254857Y-248309571D01*
X137397714Y-248833380D02*
X136921523Y-248833380D01*
X136921523Y-247833380D01*
X137397714Y-247833380D01*
X138016761Y-248357190D02*
X138016761Y-248833380D01*
X137683428Y-247833380D02*
X138016761Y-248357190D01*
X138350095Y-247833380D01*
X138635809Y-248785761D02*
X138778666Y-248833380D01*
X139016761Y-248833380D01*
X139112000Y-248785761D01*
X139159619Y-248738142D01*
X139207238Y-248642904D01*
X139207238Y-248547666D01*
X139159619Y-248452428D01*
X139112000Y-248404809D01*
X139016761Y-248357190D01*
X138826285Y-248309571D01*
X138731047Y-248261952D01*
X138683428Y-248214333D01*
X138635809Y-248119095D01*
X138635809Y-248023857D01*
X138683428Y-247928619D01*
X138731047Y-247881000D01*
X138826285Y-247833380D01*
X139064380Y-247833380D01*
X139207238Y-247881000D01*
X139540571Y-247833380D02*
X139778666Y-248833380D01*
X139969142Y-248119095D01*
X140159619Y-248833380D01*
X140397714Y-247833380D01*
%TO.C,TH3-8*%
X260271333Y-268552380D02*
X260271333Y-267552380D01*
X260271333Y-268028571D02*
X260842761Y-268028571D01*
X260842761Y-268552380D02*
X260842761Y-267552380D01*
X261509428Y-267552380D02*
X261699904Y-267552380D01*
X261795142Y-267600000D01*
X261890380Y-267695238D01*
X261938000Y-267885714D01*
X261938000Y-268219047D01*
X261890380Y-268409523D01*
X261795142Y-268504761D01*
X261699904Y-268552380D01*
X261509428Y-268552380D01*
X261414190Y-268504761D01*
X261318952Y-268409523D01*
X261271333Y-268219047D01*
X261271333Y-267885714D01*
X261318952Y-267695238D01*
X261414190Y-267600000D01*
X261509428Y-267552380D01*
X262842761Y-268552380D02*
X262366571Y-268552380D01*
X262366571Y-267552380D01*
X263176095Y-268028571D02*
X263509428Y-268028571D01*
X263652285Y-268552380D02*
X263176095Y-268552380D01*
X263176095Y-267552380D01*
X263652285Y-267552380D01*
%TO.C,K5*%
X116871523Y-248833380D02*
X116871523Y-247833380D01*
X117442952Y-248833380D02*
X117014380Y-248261952D01*
X117442952Y-247833380D02*
X116871523Y-248404809D01*
X117871523Y-248309571D02*
X118204857Y-248309571D01*
X118347714Y-248833380D02*
X117871523Y-248833380D01*
X117871523Y-247833380D01*
X118347714Y-247833380D01*
X118966761Y-248357190D02*
X118966761Y-248833380D01*
X118633428Y-247833380D02*
X118966761Y-248357190D01*
X119300095Y-247833380D01*
X119585809Y-248785761D02*
X119728666Y-248833380D01*
X119966761Y-248833380D01*
X120062000Y-248785761D01*
X120109619Y-248738142D01*
X120157238Y-248642904D01*
X120157238Y-248547666D01*
X120109619Y-248452428D01*
X120062000Y-248404809D01*
X119966761Y-248357190D01*
X119776285Y-248309571D01*
X119681047Y-248261952D01*
X119633428Y-248214333D01*
X119585809Y-248119095D01*
X119585809Y-248023857D01*
X119633428Y-247928619D01*
X119681047Y-247881000D01*
X119776285Y-247833380D01*
X120014380Y-247833380D01*
X120157238Y-247881000D01*
X120490571Y-247833380D02*
X120728666Y-248833380D01*
X120919142Y-248119095D01*
X121109619Y-248833380D01*
X121347714Y-247833380D01*
%TO.C,K14*%
X154971523Y-229783380D02*
X154971523Y-228783380D01*
X155542952Y-229783380D02*
X155114380Y-229211952D01*
X155542952Y-228783380D02*
X154971523Y-229354809D01*
X155971523Y-229259571D02*
X156304857Y-229259571D01*
X156447714Y-229783380D02*
X155971523Y-229783380D01*
X155971523Y-228783380D01*
X156447714Y-228783380D01*
X157066761Y-229307190D02*
X157066761Y-229783380D01*
X156733428Y-228783380D02*
X157066761Y-229307190D01*
X157400095Y-228783380D01*
X157685809Y-229735761D02*
X157828666Y-229783380D01*
X158066761Y-229783380D01*
X158162000Y-229735761D01*
X158209619Y-229688142D01*
X158257238Y-229592904D01*
X158257238Y-229497666D01*
X158209619Y-229402428D01*
X158162000Y-229354809D01*
X158066761Y-229307190D01*
X157876285Y-229259571D01*
X157781047Y-229211952D01*
X157733428Y-229164333D01*
X157685809Y-229069095D01*
X157685809Y-228973857D01*
X157733428Y-228878619D01*
X157781047Y-228831000D01*
X157876285Y-228783380D01*
X158114380Y-228783380D01*
X158257238Y-228831000D01*
X158590571Y-228783380D02*
X158828666Y-229783380D01*
X159019142Y-229069095D01*
X159209619Y-229783380D01*
X159447714Y-228783380D01*
%TO.C,K2*%
X116871523Y-191683380D02*
X116871523Y-190683380D01*
X117442952Y-191683380D02*
X117014380Y-191111952D01*
X117442952Y-190683380D02*
X116871523Y-191254809D01*
X117871523Y-191159571D02*
X118204857Y-191159571D01*
X118347714Y-191683380D02*
X117871523Y-191683380D01*
X117871523Y-190683380D01*
X118347714Y-190683380D01*
X118966761Y-191207190D02*
X118966761Y-191683380D01*
X118633428Y-190683380D02*
X118966761Y-191207190D01*
X119300095Y-190683380D01*
X119585809Y-191635761D02*
X119728666Y-191683380D01*
X119966761Y-191683380D01*
X120062000Y-191635761D01*
X120109619Y-191588142D01*
X120157238Y-191492904D01*
X120157238Y-191397666D01*
X120109619Y-191302428D01*
X120062000Y-191254809D01*
X119966761Y-191207190D01*
X119776285Y-191159571D01*
X119681047Y-191111952D01*
X119633428Y-191064333D01*
X119585809Y-190969095D01*
X119585809Y-190873857D01*
X119633428Y-190778619D01*
X119681047Y-190731000D01*
X119776285Y-190683380D01*
X120014380Y-190683380D01*
X120157238Y-190731000D01*
X120490571Y-190683380D02*
X120728666Y-191683380D01*
X120919142Y-190969095D01*
X121109619Y-191683380D01*
X121347714Y-190683380D01*
%TO.C,K16*%
X174021523Y-172633380D02*
X174021523Y-171633380D01*
X174592952Y-172633380D02*
X174164380Y-172061952D01*
X174592952Y-171633380D02*
X174021523Y-172204809D01*
X175021523Y-172109571D02*
X175354857Y-172109571D01*
X175497714Y-172633380D02*
X175021523Y-172633380D01*
X175021523Y-171633380D01*
X175497714Y-171633380D01*
X176116761Y-172157190D02*
X176116761Y-172633380D01*
X175783428Y-171633380D02*
X176116761Y-172157190D01*
X176450095Y-171633380D01*
X176735809Y-172585761D02*
X176878666Y-172633380D01*
X177116761Y-172633380D01*
X177212000Y-172585761D01*
X177259619Y-172538142D01*
X177307238Y-172442904D01*
X177307238Y-172347666D01*
X177259619Y-172252428D01*
X177212000Y-172204809D01*
X177116761Y-172157190D01*
X176926285Y-172109571D01*
X176831047Y-172061952D01*
X176783428Y-172014333D01*
X176735809Y-171919095D01*
X176735809Y-171823857D01*
X176783428Y-171728619D01*
X176831047Y-171681000D01*
X176926285Y-171633380D01*
X177164380Y-171633380D01*
X177307238Y-171681000D01*
X177640571Y-171633380D02*
X177878666Y-172633380D01*
X178069142Y-171919095D01*
X178259619Y-172633380D01*
X178497714Y-171633380D01*
%TO.C,K52*%
X307371523Y-191683380D02*
X307371523Y-190683380D01*
X307942952Y-191683380D02*
X307514380Y-191111952D01*
X307942952Y-190683380D02*
X307371523Y-191254809D01*
X308371523Y-191159571D02*
X308704857Y-191159571D01*
X308847714Y-191683380D02*
X308371523Y-191683380D01*
X308371523Y-190683380D01*
X308847714Y-190683380D01*
X309466761Y-191207190D02*
X309466761Y-191683380D01*
X309133428Y-190683380D02*
X309466761Y-191207190D01*
X309800095Y-190683380D01*
X310085809Y-191635761D02*
X310228666Y-191683380D01*
X310466761Y-191683380D01*
X310562000Y-191635761D01*
X310609619Y-191588142D01*
X310657238Y-191492904D01*
X310657238Y-191397666D01*
X310609619Y-191302428D01*
X310562000Y-191254809D01*
X310466761Y-191207190D01*
X310276285Y-191159571D01*
X310181047Y-191111952D01*
X310133428Y-191064333D01*
X310085809Y-190969095D01*
X310085809Y-190873857D01*
X310133428Y-190778619D01*
X310181047Y-190731000D01*
X310276285Y-190683380D01*
X310514380Y-190683380D01*
X310657238Y-190731000D01*
X310990571Y-190683380D02*
X311228666Y-191683380D01*
X311419142Y-190969095D01*
X311609619Y-191683380D01*
X311847714Y-190683380D01*
%TO.C,K13*%
X154971523Y-210733380D02*
X154971523Y-209733380D01*
X155542952Y-210733380D02*
X155114380Y-210161952D01*
X155542952Y-209733380D02*
X154971523Y-210304809D01*
X155971523Y-210209571D02*
X156304857Y-210209571D01*
X156447714Y-210733380D02*
X155971523Y-210733380D01*
X155971523Y-209733380D01*
X156447714Y-209733380D01*
X157066761Y-210257190D02*
X157066761Y-210733380D01*
X156733428Y-209733380D02*
X157066761Y-210257190D01*
X157400095Y-209733380D01*
X157685809Y-210685761D02*
X157828666Y-210733380D01*
X158066761Y-210733380D01*
X158162000Y-210685761D01*
X158209619Y-210638142D01*
X158257238Y-210542904D01*
X158257238Y-210447666D01*
X158209619Y-210352428D01*
X158162000Y-210304809D01*
X158066761Y-210257190D01*
X157876285Y-210209571D01*
X157781047Y-210161952D01*
X157733428Y-210114333D01*
X157685809Y-210019095D01*
X157685809Y-209923857D01*
X157733428Y-209828619D01*
X157781047Y-209781000D01*
X157876285Y-209733380D01*
X158114380Y-209733380D01*
X158257238Y-209781000D01*
X158590571Y-209733380D02*
X158828666Y-210733380D01*
X159019142Y-210019095D01*
X159209619Y-210733380D01*
X159447714Y-209733380D01*
%TO.C,K19*%
X174021523Y-229783380D02*
X174021523Y-228783380D01*
X174592952Y-229783380D02*
X174164380Y-229211952D01*
X174592952Y-228783380D02*
X174021523Y-229354809D01*
X175021523Y-229259571D02*
X175354857Y-229259571D01*
X175497714Y-229783380D02*
X175021523Y-229783380D01*
X175021523Y-228783380D01*
X175497714Y-228783380D01*
X176116761Y-229307190D02*
X176116761Y-229783380D01*
X175783428Y-228783380D02*
X176116761Y-229307190D01*
X176450095Y-228783380D01*
X176735809Y-229735761D02*
X176878666Y-229783380D01*
X177116761Y-229783380D01*
X177212000Y-229735761D01*
X177259619Y-229688142D01*
X177307238Y-229592904D01*
X177307238Y-229497666D01*
X177259619Y-229402428D01*
X177212000Y-229354809D01*
X177116761Y-229307190D01*
X176926285Y-229259571D01*
X176831047Y-229211952D01*
X176783428Y-229164333D01*
X176735809Y-229069095D01*
X176735809Y-228973857D01*
X176783428Y-228878619D01*
X176831047Y-228831000D01*
X176926285Y-228783380D01*
X177164380Y-228783380D01*
X177307238Y-228831000D01*
X177640571Y-228783380D02*
X177878666Y-229783380D01*
X178069142Y-229069095D01*
X178259619Y-229783380D01*
X178497714Y-228783380D01*
%TO.C,K32*%
X231171523Y-191683380D02*
X231171523Y-190683380D01*
X231742952Y-191683380D02*
X231314380Y-191111952D01*
X231742952Y-190683380D02*
X231171523Y-191254809D01*
X232171523Y-191159571D02*
X232504857Y-191159571D01*
X232647714Y-191683380D02*
X232171523Y-191683380D01*
X232171523Y-190683380D01*
X232647714Y-190683380D01*
X233266761Y-191207190D02*
X233266761Y-191683380D01*
X232933428Y-190683380D02*
X233266761Y-191207190D01*
X233600095Y-190683380D01*
X233885809Y-191635761D02*
X234028666Y-191683380D01*
X234266761Y-191683380D01*
X234362000Y-191635761D01*
X234409619Y-191588142D01*
X234457238Y-191492904D01*
X234457238Y-191397666D01*
X234409619Y-191302428D01*
X234362000Y-191254809D01*
X234266761Y-191207190D01*
X234076285Y-191159571D01*
X233981047Y-191111952D01*
X233933428Y-191064333D01*
X233885809Y-190969095D01*
X233885809Y-190873857D01*
X233933428Y-190778619D01*
X233981047Y-190731000D01*
X234076285Y-190683380D01*
X234314380Y-190683380D01*
X234457238Y-190731000D01*
X234790571Y-190683380D02*
X235028666Y-191683380D01*
X235219142Y-190969095D01*
X235409619Y-191683380D01*
X235647714Y-190683380D01*
%TO.C,K3*%
X116871523Y-210733380D02*
X116871523Y-209733380D01*
X117442952Y-210733380D02*
X117014380Y-210161952D01*
X117442952Y-209733380D02*
X116871523Y-210304809D01*
X117871523Y-210209571D02*
X118204857Y-210209571D01*
X118347714Y-210733380D02*
X117871523Y-210733380D01*
X117871523Y-209733380D01*
X118347714Y-209733380D01*
X118966761Y-210257190D02*
X118966761Y-210733380D01*
X118633428Y-209733380D02*
X118966761Y-210257190D01*
X119300095Y-209733380D01*
X119585809Y-210685761D02*
X119728666Y-210733380D01*
X119966761Y-210733380D01*
X120062000Y-210685761D01*
X120109619Y-210638142D01*
X120157238Y-210542904D01*
X120157238Y-210447666D01*
X120109619Y-210352428D01*
X120062000Y-210304809D01*
X119966761Y-210257190D01*
X119776285Y-210209571D01*
X119681047Y-210161952D01*
X119633428Y-210114333D01*
X119585809Y-210019095D01*
X119585809Y-209923857D01*
X119633428Y-209828619D01*
X119681047Y-209781000D01*
X119776285Y-209733380D01*
X120014380Y-209733380D01*
X120157238Y-209781000D01*
X120490571Y-209733380D02*
X120728666Y-210733380D01*
X120919142Y-210019095D01*
X121109619Y-210733380D01*
X121347714Y-209733380D01*
%TO.C,K42*%
X269271523Y-191683380D02*
X269271523Y-190683380D01*
X269842952Y-191683380D02*
X269414380Y-191111952D01*
X269842952Y-190683380D02*
X269271523Y-191254809D01*
X270271523Y-191159571D02*
X270604857Y-191159571D01*
X270747714Y-191683380D02*
X270271523Y-191683380D01*
X270271523Y-190683380D01*
X270747714Y-190683380D01*
X271366761Y-191207190D02*
X271366761Y-191683380D01*
X271033428Y-190683380D02*
X271366761Y-191207190D01*
X271700095Y-190683380D01*
X271985809Y-191635761D02*
X272128666Y-191683380D01*
X272366761Y-191683380D01*
X272462000Y-191635761D01*
X272509619Y-191588142D01*
X272557238Y-191492904D01*
X272557238Y-191397666D01*
X272509619Y-191302428D01*
X272462000Y-191254809D01*
X272366761Y-191207190D01*
X272176285Y-191159571D01*
X272081047Y-191111952D01*
X272033428Y-191064333D01*
X271985809Y-190969095D01*
X271985809Y-190873857D01*
X272033428Y-190778619D01*
X272081047Y-190731000D01*
X272176285Y-190683380D01*
X272414380Y-190683380D01*
X272557238Y-190731000D01*
X272890571Y-190683380D02*
X273128666Y-191683380D01*
X273319142Y-190969095D01*
X273509619Y-191683380D01*
X273747714Y-190683380D01*
%TO.C,K54*%
X307371523Y-229783380D02*
X307371523Y-228783380D01*
X307942952Y-229783380D02*
X307514380Y-229211952D01*
X307942952Y-228783380D02*
X307371523Y-229354809D01*
X308371523Y-229259571D02*
X308704857Y-229259571D01*
X308847714Y-229783380D02*
X308371523Y-229783380D01*
X308371523Y-228783380D01*
X308847714Y-228783380D01*
X309466761Y-229307190D02*
X309466761Y-229783380D01*
X309133428Y-228783380D02*
X309466761Y-229307190D01*
X309800095Y-228783380D01*
X310085809Y-229735761D02*
X310228666Y-229783380D01*
X310466761Y-229783380D01*
X310562000Y-229735761D01*
X310609619Y-229688142D01*
X310657238Y-229592904D01*
X310657238Y-229497666D01*
X310609619Y-229402428D01*
X310562000Y-229354809D01*
X310466761Y-229307190D01*
X310276285Y-229259571D01*
X310181047Y-229211952D01*
X310133428Y-229164333D01*
X310085809Y-229069095D01*
X310085809Y-228973857D01*
X310133428Y-228878619D01*
X310181047Y-228831000D01*
X310276285Y-228783380D01*
X310514380Y-228783380D01*
X310657238Y-228831000D01*
X310990571Y-228783380D02*
X311228666Y-229783380D01*
X311419142Y-229069095D01*
X311609619Y-229783380D01*
X311847714Y-228783380D01*
%TO.C,K11*%
X154971523Y-172633380D02*
X154971523Y-171633380D01*
X155542952Y-172633380D02*
X155114380Y-172061952D01*
X155542952Y-171633380D02*
X154971523Y-172204809D01*
X155971523Y-172109571D02*
X156304857Y-172109571D01*
X156447714Y-172633380D02*
X155971523Y-172633380D01*
X155971523Y-171633380D01*
X156447714Y-171633380D01*
X157066761Y-172157190D02*
X157066761Y-172633380D01*
X156733428Y-171633380D02*
X157066761Y-172157190D01*
X157400095Y-171633380D01*
X157685809Y-172585761D02*
X157828666Y-172633380D01*
X158066761Y-172633380D01*
X158162000Y-172585761D01*
X158209619Y-172538142D01*
X158257238Y-172442904D01*
X158257238Y-172347666D01*
X158209619Y-172252428D01*
X158162000Y-172204809D01*
X158066761Y-172157190D01*
X157876285Y-172109571D01*
X157781047Y-172061952D01*
X157733428Y-172014333D01*
X157685809Y-171919095D01*
X157685809Y-171823857D01*
X157733428Y-171728619D01*
X157781047Y-171681000D01*
X157876285Y-171633380D01*
X158114380Y-171633380D01*
X158257238Y-171681000D01*
X158590571Y-171633380D02*
X158828666Y-172633380D01*
X159019142Y-171919095D01*
X159209619Y-172633380D01*
X159447714Y-171633380D01*
%TO.C,TH3-5*%
X260271333Y-325702380D02*
X260271333Y-324702380D01*
X260271333Y-325178571D02*
X260842761Y-325178571D01*
X260842761Y-325702380D02*
X260842761Y-324702380D01*
X261509428Y-324702380D02*
X261699904Y-324702380D01*
X261795142Y-324750000D01*
X261890380Y-324845238D01*
X261938000Y-325035714D01*
X261938000Y-325369047D01*
X261890380Y-325559523D01*
X261795142Y-325654761D01*
X261699904Y-325702380D01*
X261509428Y-325702380D01*
X261414190Y-325654761D01*
X261318952Y-325559523D01*
X261271333Y-325369047D01*
X261271333Y-325035714D01*
X261318952Y-324845238D01*
X261414190Y-324750000D01*
X261509428Y-324702380D01*
X262842761Y-325702380D02*
X262366571Y-325702380D01*
X262366571Y-324702380D01*
X263176095Y-325178571D02*
X263509428Y-325178571D01*
X263652285Y-325702380D02*
X263176095Y-325702380D01*
X263176095Y-324702380D01*
X263652285Y-324702380D01*
%TO.C,TH3-3*%
X317421333Y-306652380D02*
X317421333Y-305652380D01*
X317421333Y-306128571D02*
X317992761Y-306128571D01*
X317992761Y-306652380D02*
X317992761Y-305652380D01*
X318659428Y-305652380D02*
X318849904Y-305652380D01*
X318945142Y-305700000D01*
X319040380Y-305795238D01*
X319088000Y-305985714D01*
X319088000Y-306319047D01*
X319040380Y-306509523D01*
X318945142Y-306604761D01*
X318849904Y-306652380D01*
X318659428Y-306652380D01*
X318564190Y-306604761D01*
X318468952Y-306509523D01*
X318421333Y-306319047D01*
X318421333Y-305985714D01*
X318468952Y-305795238D01*
X318564190Y-305700000D01*
X318659428Y-305652380D01*
X319992761Y-306652380D02*
X319516571Y-306652380D01*
X319516571Y-305652380D01*
X320326095Y-306128571D02*
X320659428Y-306128571D01*
X320802285Y-306652380D02*
X320326095Y-306652380D01*
X320326095Y-305652380D01*
X320802285Y-305652380D01*
%TO.C,K20*%
X174021523Y-248833380D02*
X174021523Y-247833380D01*
X174592952Y-248833380D02*
X174164380Y-248261952D01*
X174592952Y-247833380D02*
X174021523Y-248404809D01*
X175021523Y-248309571D02*
X175354857Y-248309571D01*
X175497714Y-248833380D02*
X175021523Y-248833380D01*
X175021523Y-247833380D01*
X175497714Y-247833380D01*
X176116761Y-248357190D02*
X176116761Y-248833380D01*
X175783428Y-247833380D02*
X176116761Y-248357190D01*
X176450095Y-247833380D01*
X176735809Y-248785761D02*
X176878666Y-248833380D01*
X177116761Y-248833380D01*
X177212000Y-248785761D01*
X177259619Y-248738142D01*
X177307238Y-248642904D01*
X177307238Y-248547666D01*
X177259619Y-248452428D01*
X177212000Y-248404809D01*
X177116761Y-248357190D01*
X176926285Y-248309571D01*
X176831047Y-248261952D01*
X176783428Y-248214333D01*
X176735809Y-248119095D01*
X176735809Y-248023857D01*
X176783428Y-247928619D01*
X176831047Y-247881000D01*
X176926285Y-247833380D01*
X177164380Y-247833380D01*
X177307238Y-247881000D01*
X177640571Y-247833380D02*
X177878666Y-248833380D01*
X178069142Y-248119095D01*
X178259619Y-248833380D01*
X178497714Y-247833380D01*
%TO.C,K60*%
X326421523Y-248833380D02*
X326421523Y-247833380D01*
X326992952Y-248833380D02*
X326564380Y-248261952D01*
X326992952Y-247833380D02*
X326421523Y-248404809D01*
X327421523Y-248309571D02*
X327754857Y-248309571D01*
X327897714Y-248833380D02*
X327421523Y-248833380D01*
X327421523Y-247833380D01*
X327897714Y-247833380D01*
X328516761Y-248357190D02*
X328516761Y-248833380D01*
X328183428Y-247833380D02*
X328516761Y-248357190D01*
X328850095Y-247833380D01*
X329135809Y-248785761D02*
X329278666Y-248833380D01*
X329516761Y-248833380D01*
X329612000Y-248785761D01*
X329659619Y-248738142D01*
X329707238Y-248642904D01*
X329707238Y-248547666D01*
X329659619Y-248452428D01*
X329612000Y-248404809D01*
X329516761Y-248357190D01*
X329326285Y-248309571D01*
X329231047Y-248261952D01*
X329183428Y-248214333D01*
X329135809Y-248119095D01*
X329135809Y-248023857D01*
X329183428Y-247928619D01*
X329231047Y-247881000D01*
X329326285Y-247833380D01*
X329564380Y-247833380D01*
X329707238Y-247881000D01*
X330040571Y-247833380D02*
X330278666Y-248833380D01*
X330469142Y-248119095D01*
X330659619Y-248833380D01*
X330897714Y-247833380D01*
%TO.C,K39*%
X250221523Y-229783380D02*
X250221523Y-228783380D01*
X250792952Y-229783380D02*
X250364380Y-229211952D01*
X250792952Y-228783380D02*
X250221523Y-229354809D01*
X251221523Y-229259571D02*
X251554857Y-229259571D01*
X251697714Y-229783380D02*
X251221523Y-229783380D01*
X251221523Y-228783380D01*
X251697714Y-228783380D01*
X252316761Y-229307190D02*
X252316761Y-229783380D01*
X251983428Y-228783380D02*
X252316761Y-229307190D01*
X252650095Y-228783380D01*
X252935809Y-229735761D02*
X253078666Y-229783380D01*
X253316761Y-229783380D01*
X253412000Y-229735761D01*
X253459619Y-229688142D01*
X253507238Y-229592904D01*
X253507238Y-229497666D01*
X253459619Y-229402428D01*
X253412000Y-229354809D01*
X253316761Y-229307190D01*
X253126285Y-229259571D01*
X253031047Y-229211952D01*
X252983428Y-229164333D01*
X252935809Y-229069095D01*
X252935809Y-228973857D01*
X252983428Y-228878619D01*
X253031047Y-228831000D01*
X253126285Y-228783380D01*
X253364380Y-228783380D01*
X253507238Y-228831000D01*
X253840571Y-228783380D02*
X254078666Y-229783380D01*
X254269142Y-229069095D01*
X254459619Y-229783380D01*
X254697714Y-228783380D01*
%TO.C,TH3-11*%
X203121333Y-306652380D02*
X203121333Y-305652380D01*
X203121333Y-306128571D02*
X203692761Y-306128571D01*
X203692761Y-306652380D02*
X203692761Y-305652380D01*
X204359428Y-305652380D02*
X204549904Y-305652380D01*
X204645142Y-305700000D01*
X204740380Y-305795238D01*
X204788000Y-305985714D01*
X204788000Y-306319047D01*
X204740380Y-306509523D01*
X204645142Y-306604761D01*
X204549904Y-306652380D01*
X204359428Y-306652380D01*
X204264190Y-306604761D01*
X204168952Y-306509523D01*
X204121333Y-306319047D01*
X204121333Y-305985714D01*
X204168952Y-305795238D01*
X204264190Y-305700000D01*
X204359428Y-305652380D01*
X205692761Y-306652380D02*
X205216571Y-306652380D01*
X205216571Y-305652380D01*
X206026095Y-306128571D02*
X206359428Y-306128571D01*
X206502285Y-306652380D02*
X206026095Y-306652380D01*
X206026095Y-305652380D01*
X206502285Y-305652380D01*
%TO.C,K49*%
X288321523Y-229783380D02*
X288321523Y-228783380D01*
X288892952Y-229783380D02*
X288464380Y-229211952D01*
X288892952Y-228783380D02*
X288321523Y-229354809D01*
X289321523Y-229259571D02*
X289654857Y-229259571D01*
X289797714Y-229783380D02*
X289321523Y-229783380D01*
X289321523Y-228783380D01*
X289797714Y-228783380D01*
X290416761Y-229307190D02*
X290416761Y-229783380D01*
X290083428Y-228783380D02*
X290416761Y-229307190D01*
X290750095Y-228783380D01*
X291035809Y-229735761D02*
X291178666Y-229783380D01*
X291416761Y-229783380D01*
X291512000Y-229735761D01*
X291559619Y-229688142D01*
X291607238Y-229592904D01*
X291607238Y-229497666D01*
X291559619Y-229402428D01*
X291512000Y-229354809D01*
X291416761Y-229307190D01*
X291226285Y-229259571D01*
X291131047Y-229211952D01*
X291083428Y-229164333D01*
X291035809Y-229069095D01*
X291035809Y-228973857D01*
X291083428Y-228878619D01*
X291131047Y-228831000D01*
X291226285Y-228783380D01*
X291464380Y-228783380D01*
X291607238Y-228831000D01*
X291940571Y-228783380D02*
X292178666Y-229783380D01*
X292369142Y-229069095D01*
X292559619Y-229783380D01*
X292797714Y-228783380D01*
%TO.C,K51*%
X307371523Y-172633380D02*
X307371523Y-171633380D01*
X307942952Y-172633380D02*
X307514380Y-172061952D01*
X307942952Y-171633380D02*
X307371523Y-172204809D01*
X308371523Y-172109571D02*
X308704857Y-172109571D01*
X308847714Y-172633380D02*
X308371523Y-172633380D01*
X308371523Y-171633380D01*
X308847714Y-171633380D01*
X309466761Y-172157190D02*
X309466761Y-172633380D01*
X309133428Y-171633380D02*
X309466761Y-172157190D01*
X309800095Y-171633380D01*
X310085809Y-172585761D02*
X310228666Y-172633380D01*
X310466761Y-172633380D01*
X310562000Y-172585761D01*
X310609619Y-172538142D01*
X310657238Y-172442904D01*
X310657238Y-172347666D01*
X310609619Y-172252428D01*
X310562000Y-172204809D01*
X310466761Y-172157190D01*
X310276285Y-172109571D01*
X310181047Y-172061952D01*
X310133428Y-172014333D01*
X310085809Y-171919095D01*
X310085809Y-171823857D01*
X310133428Y-171728619D01*
X310181047Y-171681000D01*
X310276285Y-171633380D01*
X310514380Y-171633380D01*
X310657238Y-171681000D01*
X310990571Y-171633380D02*
X311228666Y-172633380D01*
X311419142Y-171919095D01*
X311609619Y-172633380D01*
X311847714Y-171633380D01*
%TO.C,K58*%
X326421523Y-210733380D02*
X326421523Y-209733380D01*
X326992952Y-210733380D02*
X326564380Y-210161952D01*
X326992952Y-209733380D02*
X326421523Y-210304809D01*
X327421523Y-210209571D02*
X327754857Y-210209571D01*
X327897714Y-210733380D02*
X327421523Y-210733380D01*
X327421523Y-209733380D01*
X327897714Y-209733380D01*
X328516761Y-210257190D02*
X328516761Y-210733380D01*
X328183428Y-209733380D02*
X328516761Y-210257190D01*
X328850095Y-209733380D01*
X329135809Y-210685761D02*
X329278666Y-210733380D01*
X329516761Y-210733380D01*
X329612000Y-210685761D01*
X329659619Y-210638142D01*
X329707238Y-210542904D01*
X329707238Y-210447666D01*
X329659619Y-210352428D01*
X329612000Y-210304809D01*
X329516761Y-210257190D01*
X329326285Y-210209571D01*
X329231047Y-210161952D01*
X329183428Y-210114333D01*
X329135809Y-210019095D01*
X329135809Y-209923857D01*
X329183428Y-209828619D01*
X329231047Y-209781000D01*
X329326285Y-209733380D01*
X329564380Y-209733380D01*
X329707238Y-209781000D01*
X330040571Y-209733380D02*
X330278666Y-210733380D01*
X330469142Y-210019095D01*
X330659619Y-210733380D01*
X330897714Y-209733380D01*
%TO.C,K21*%
X193071523Y-172633380D02*
X193071523Y-171633380D01*
X193642952Y-172633380D02*
X193214380Y-172061952D01*
X193642952Y-171633380D02*
X193071523Y-172204809D01*
X194071523Y-172109571D02*
X194404857Y-172109571D01*
X194547714Y-172633380D02*
X194071523Y-172633380D01*
X194071523Y-171633380D01*
X194547714Y-171633380D01*
X195166761Y-172157190D02*
X195166761Y-172633380D01*
X194833428Y-171633380D02*
X195166761Y-172157190D01*
X195500095Y-171633380D01*
X195785809Y-172585761D02*
X195928666Y-172633380D01*
X196166761Y-172633380D01*
X196262000Y-172585761D01*
X196309619Y-172538142D01*
X196357238Y-172442904D01*
X196357238Y-172347666D01*
X196309619Y-172252428D01*
X196262000Y-172204809D01*
X196166761Y-172157190D01*
X195976285Y-172109571D01*
X195881047Y-172061952D01*
X195833428Y-172014333D01*
X195785809Y-171919095D01*
X195785809Y-171823857D01*
X195833428Y-171728619D01*
X195881047Y-171681000D01*
X195976285Y-171633380D01*
X196214380Y-171633380D01*
X196357238Y-171681000D01*
X196690571Y-171633380D02*
X196928666Y-172633380D01*
X197119142Y-171919095D01*
X197309619Y-172633380D01*
X197547714Y-171633380D01*
%TO.C,TH2-3*%
X222171333Y-228452380D02*
X222171333Y-227452380D01*
X222171333Y-227928571D02*
X222742761Y-227928571D01*
X222742761Y-228452380D02*
X222742761Y-227452380D01*
X223409428Y-227452380D02*
X223599904Y-227452380D01*
X223695142Y-227500000D01*
X223790380Y-227595238D01*
X223838000Y-227785714D01*
X223838000Y-228119047D01*
X223790380Y-228309523D01*
X223695142Y-228404761D01*
X223599904Y-228452380D01*
X223409428Y-228452380D01*
X223314190Y-228404761D01*
X223218952Y-228309523D01*
X223171333Y-228119047D01*
X223171333Y-227785714D01*
X223218952Y-227595238D01*
X223314190Y-227500000D01*
X223409428Y-227452380D01*
X224742761Y-228452380D02*
X224266571Y-228452380D01*
X224266571Y-227452380D01*
X225076095Y-227928571D02*
X225409428Y-227928571D01*
X225552285Y-228452380D02*
X225076095Y-228452380D01*
X225076095Y-227452380D01*
X225552285Y-227452380D01*
%TO.C,TH3-1*%
X298371333Y-268552380D02*
X298371333Y-267552380D01*
X298371333Y-268028571D02*
X298942761Y-268028571D01*
X298942761Y-268552380D02*
X298942761Y-267552380D01*
X299609428Y-267552380D02*
X299799904Y-267552380D01*
X299895142Y-267600000D01*
X299990380Y-267695238D01*
X300038000Y-267885714D01*
X300038000Y-268219047D01*
X299990380Y-268409523D01*
X299895142Y-268504761D01*
X299799904Y-268552380D01*
X299609428Y-268552380D01*
X299514190Y-268504761D01*
X299418952Y-268409523D01*
X299371333Y-268219047D01*
X299371333Y-267885714D01*
X299418952Y-267695238D01*
X299514190Y-267600000D01*
X299609428Y-267552380D01*
X300942761Y-268552380D02*
X300466571Y-268552380D01*
X300466571Y-267552380D01*
X301276095Y-268028571D02*
X301609428Y-268028571D01*
X301752285Y-268552380D02*
X301276095Y-268552380D01*
X301276095Y-267552380D01*
X301752285Y-267552380D01*
%TO.C,K15*%
X154971523Y-248833380D02*
X154971523Y-247833380D01*
X155542952Y-248833380D02*
X155114380Y-248261952D01*
X155542952Y-247833380D02*
X154971523Y-248404809D01*
X155971523Y-248309571D02*
X156304857Y-248309571D01*
X156447714Y-248833380D02*
X155971523Y-248833380D01*
X155971523Y-247833380D01*
X156447714Y-247833380D01*
X157066761Y-248357190D02*
X157066761Y-248833380D01*
X156733428Y-247833380D02*
X157066761Y-248357190D01*
X157400095Y-247833380D01*
X157685809Y-248785761D02*
X157828666Y-248833380D01*
X158066761Y-248833380D01*
X158162000Y-248785761D01*
X158209619Y-248738142D01*
X158257238Y-248642904D01*
X158257238Y-248547666D01*
X158209619Y-248452428D01*
X158162000Y-248404809D01*
X158066761Y-248357190D01*
X157876285Y-248309571D01*
X157781047Y-248261952D01*
X157733428Y-248214333D01*
X157685809Y-248119095D01*
X157685809Y-248023857D01*
X157733428Y-247928619D01*
X157781047Y-247881000D01*
X157876285Y-247833380D01*
X158114380Y-247833380D01*
X158257238Y-247881000D01*
X158590571Y-247833380D02*
X158828666Y-248833380D01*
X159019142Y-248119095D01*
X159209619Y-248833380D01*
X159447714Y-247833380D01*
%TO.C,K26*%
X212121523Y-172633380D02*
X212121523Y-171633380D01*
X212692952Y-172633380D02*
X212264380Y-172061952D01*
X212692952Y-171633380D02*
X212121523Y-172204809D01*
X213121523Y-172109571D02*
X213454857Y-172109571D01*
X213597714Y-172633380D02*
X213121523Y-172633380D01*
X213121523Y-171633380D01*
X213597714Y-171633380D01*
X214216761Y-172157190D02*
X214216761Y-172633380D01*
X213883428Y-171633380D02*
X214216761Y-172157190D01*
X214550095Y-171633380D01*
X214835809Y-172585761D02*
X214978666Y-172633380D01*
X215216761Y-172633380D01*
X215312000Y-172585761D01*
X215359619Y-172538142D01*
X215407238Y-172442904D01*
X215407238Y-172347666D01*
X215359619Y-172252428D01*
X215312000Y-172204809D01*
X215216761Y-172157190D01*
X215026285Y-172109571D01*
X214931047Y-172061952D01*
X214883428Y-172014333D01*
X214835809Y-171919095D01*
X214835809Y-171823857D01*
X214883428Y-171728619D01*
X214931047Y-171681000D01*
X215026285Y-171633380D01*
X215264380Y-171633380D01*
X215407238Y-171681000D01*
X215740571Y-171633380D02*
X215978666Y-172633380D01*
X216169142Y-171919095D01*
X216359619Y-172633380D01*
X216597714Y-171633380D01*
%TO.C,K50*%
X288321523Y-248833380D02*
X288321523Y-247833380D01*
X288892952Y-248833380D02*
X288464380Y-248261952D01*
X288892952Y-247833380D02*
X288321523Y-248404809D01*
X289321523Y-248309571D02*
X289654857Y-248309571D01*
X289797714Y-248833380D02*
X289321523Y-248833380D01*
X289321523Y-247833380D01*
X289797714Y-247833380D01*
X290416761Y-248357190D02*
X290416761Y-248833380D01*
X290083428Y-247833380D02*
X290416761Y-248357190D01*
X290750095Y-247833380D01*
X291035809Y-248785761D02*
X291178666Y-248833380D01*
X291416761Y-248833380D01*
X291512000Y-248785761D01*
X291559619Y-248738142D01*
X291607238Y-248642904D01*
X291607238Y-248547666D01*
X291559619Y-248452428D01*
X291512000Y-248404809D01*
X291416761Y-248357190D01*
X291226285Y-248309571D01*
X291131047Y-248261952D01*
X291083428Y-248214333D01*
X291035809Y-248119095D01*
X291035809Y-248023857D01*
X291083428Y-247928619D01*
X291131047Y-247881000D01*
X291226285Y-247833380D01*
X291464380Y-247833380D01*
X291607238Y-247881000D01*
X291940571Y-247833380D02*
X292178666Y-248833380D01*
X292369142Y-248119095D01*
X292559619Y-248833380D01*
X292797714Y-247833380D01*
%TO.C,K24*%
X193071523Y-229783380D02*
X193071523Y-228783380D01*
X193642952Y-229783380D02*
X193214380Y-229211952D01*
X193642952Y-228783380D02*
X193071523Y-229354809D01*
X194071523Y-229259571D02*
X194404857Y-229259571D01*
X194547714Y-229783380D02*
X194071523Y-229783380D01*
X194071523Y-228783380D01*
X194547714Y-228783380D01*
X195166761Y-229307190D02*
X195166761Y-229783380D01*
X194833428Y-228783380D02*
X195166761Y-229307190D01*
X195500095Y-228783380D01*
X195785809Y-229735761D02*
X195928666Y-229783380D01*
X196166761Y-229783380D01*
X196262000Y-229735761D01*
X196309619Y-229688142D01*
X196357238Y-229592904D01*
X196357238Y-229497666D01*
X196309619Y-229402428D01*
X196262000Y-229354809D01*
X196166761Y-229307190D01*
X195976285Y-229259571D01*
X195881047Y-229211952D01*
X195833428Y-229164333D01*
X195785809Y-229069095D01*
X195785809Y-228973857D01*
X195833428Y-228878619D01*
X195881047Y-228831000D01*
X195976285Y-228783380D01*
X196214380Y-228783380D01*
X196357238Y-228831000D01*
X196690571Y-228783380D02*
X196928666Y-229783380D01*
X197119142Y-229069095D01*
X197309619Y-229783380D01*
X197547714Y-228783380D01*
%TO.C,K41*%
X269271523Y-172633380D02*
X269271523Y-171633380D01*
X269842952Y-172633380D02*
X269414380Y-172061952D01*
X269842952Y-171633380D02*
X269271523Y-172204809D01*
X270271523Y-172109571D02*
X270604857Y-172109571D01*
X270747714Y-172633380D02*
X270271523Y-172633380D01*
X270271523Y-171633380D01*
X270747714Y-171633380D01*
X271366761Y-172157190D02*
X271366761Y-172633380D01*
X271033428Y-171633380D02*
X271366761Y-172157190D01*
X271700095Y-171633380D01*
X271985809Y-172585761D02*
X272128666Y-172633380D01*
X272366761Y-172633380D01*
X272462000Y-172585761D01*
X272509619Y-172538142D01*
X272557238Y-172442904D01*
X272557238Y-172347666D01*
X272509619Y-172252428D01*
X272462000Y-172204809D01*
X272366761Y-172157190D01*
X272176285Y-172109571D01*
X272081047Y-172061952D01*
X272033428Y-172014333D01*
X271985809Y-171919095D01*
X271985809Y-171823857D01*
X272033428Y-171728619D01*
X272081047Y-171681000D01*
X272176285Y-171633380D01*
X272414380Y-171633380D01*
X272557238Y-171681000D01*
X272890571Y-171633380D02*
X273128666Y-172633380D01*
X273319142Y-171919095D01*
X273509619Y-172633380D01*
X273747714Y-171633380D01*
%TO.C,K34*%
X231171523Y-229783380D02*
X231171523Y-228783380D01*
X231742952Y-229783380D02*
X231314380Y-229211952D01*
X231742952Y-228783380D02*
X231171523Y-229354809D01*
X232171523Y-229259571D02*
X232504857Y-229259571D01*
X232647714Y-229783380D02*
X232171523Y-229783380D01*
X232171523Y-228783380D01*
X232647714Y-228783380D01*
X233266761Y-229307190D02*
X233266761Y-229783380D01*
X232933428Y-228783380D02*
X233266761Y-229307190D01*
X233600095Y-228783380D01*
X233885809Y-229735761D02*
X234028666Y-229783380D01*
X234266761Y-229783380D01*
X234362000Y-229735761D01*
X234409619Y-229688142D01*
X234457238Y-229592904D01*
X234457238Y-229497666D01*
X234409619Y-229402428D01*
X234362000Y-229354809D01*
X234266761Y-229307190D01*
X234076285Y-229259571D01*
X233981047Y-229211952D01*
X233933428Y-229164333D01*
X233885809Y-229069095D01*
X233885809Y-228973857D01*
X233933428Y-228878619D01*
X233981047Y-228831000D01*
X234076285Y-228783380D01*
X234314380Y-228783380D01*
X234457238Y-228831000D01*
X234790571Y-228783380D02*
X235028666Y-229783380D01*
X235219142Y-229069095D01*
X235409619Y-229783380D01*
X235647714Y-228783380D01*
%TO.C,K37*%
X250221523Y-191683380D02*
X250221523Y-190683380D01*
X250792952Y-191683380D02*
X250364380Y-191111952D01*
X250792952Y-190683380D02*
X250221523Y-191254809D01*
X251221523Y-191159571D02*
X251554857Y-191159571D01*
X251697714Y-191683380D02*
X251221523Y-191683380D01*
X251221523Y-190683380D01*
X251697714Y-190683380D01*
X252316761Y-191207190D02*
X252316761Y-191683380D01*
X251983428Y-190683380D02*
X252316761Y-191207190D01*
X252650095Y-190683380D01*
X252935809Y-191635761D02*
X253078666Y-191683380D01*
X253316761Y-191683380D01*
X253412000Y-191635761D01*
X253459619Y-191588142D01*
X253507238Y-191492904D01*
X253507238Y-191397666D01*
X253459619Y-191302428D01*
X253412000Y-191254809D01*
X253316761Y-191207190D01*
X253126285Y-191159571D01*
X253031047Y-191111952D01*
X252983428Y-191064333D01*
X252935809Y-190969095D01*
X252935809Y-190873857D01*
X252983428Y-190778619D01*
X253031047Y-190731000D01*
X253126285Y-190683380D01*
X253364380Y-190683380D01*
X253507238Y-190731000D01*
X253840571Y-190683380D02*
X254078666Y-191683380D01*
X254269142Y-190969095D01*
X254459619Y-191683380D01*
X254697714Y-190683380D01*
%TO.C,K44*%
X269271523Y-229783380D02*
X269271523Y-228783380D01*
X269842952Y-229783380D02*
X269414380Y-229211952D01*
X269842952Y-228783380D02*
X269271523Y-229354809D01*
X270271523Y-229259571D02*
X270604857Y-229259571D01*
X270747714Y-229783380D02*
X270271523Y-229783380D01*
X270271523Y-228783380D01*
X270747714Y-228783380D01*
X271366761Y-229307190D02*
X271366761Y-229783380D01*
X271033428Y-228783380D02*
X271366761Y-229307190D01*
X271700095Y-228783380D01*
X271985809Y-229735761D02*
X272128666Y-229783380D01*
X272366761Y-229783380D01*
X272462000Y-229735761D01*
X272509619Y-229688142D01*
X272557238Y-229592904D01*
X272557238Y-229497666D01*
X272509619Y-229402428D01*
X272462000Y-229354809D01*
X272366761Y-229307190D01*
X272176285Y-229259571D01*
X272081047Y-229211952D01*
X272033428Y-229164333D01*
X271985809Y-229069095D01*
X271985809Y-228973857D01*
X272033428Y-228878619D01*
X272081047Y-228831000D01*
X272176285Y-228783380D01*
X272414380Y-228783380D01*
X272557238Y-228831000D01*
X272890571Y-228783380D02*
X273128666Y-229783380D01*
X273319142Y-229069095D01*
X273509619Y-229783380D01*
X273747714Y-228783380D01*
%TO.C,K12*%
X154971523Y-191683380D02*
X154971523Y-190683380D01*
X155542952Y-191683380D02*
X155114380Y-191111952D01*
X155542952Y-190683380D02*
X154971523Y-191254809D01*
X155971523Y-191159571D02*
X156304857Y-191159571D01*
X156447714Y-191683380D02*
X155971523Y-191683380D01*
X155971523Y-190683380D01*
X156447714Y-190683380D01*
X157066761Y-191207190D02*
X157066761Y-191683380D01*
X156733428Y-190683380D02*
X157066761Y-191207190D01*
X157400095Y-190683380D01*
X157685809Y-191635761D02*
X157828666Y-191683380D01*
X158066761Y-191683380D01*
X158162000Y-191635761D01*
X158209619Y-191588142D01*
X158257238Y-191492904D01*
X158257238Y-191397666D01*
X158209619Y-191302428D01*
X158162000Y-191254809D01*
X158066761Y-191207190D01*
X157876285Y-191159571D01*
X157781047Y-191111952D01*
X157733428Y-191064333D01*
X157685809Y-190969095D01*
X157685809Y-190873857D01*
X157733428Y-190778619D01*
X157781047Y-190731000D01*
X157876285Y-190683380D01*
X158114380Y-190683380D01*
X158257238Y-190731000D01*
X158590571Y-190683380D02*
X158828666Y-191683380D01*
X159019142Y-190969095D01*
X159209619Y-191683380D01*
X159447714Y-190683380D01*
%TO.C,K43*%
X269271523Y-210733380D02*
X269271523Y-209733380D01*
X269842952Y-210733380D02*
X269414380Y-210161952D01*
X269842952Y-209733380D02*
X269271523Y-210304809D01*
X270271523Y-210209571D02*
X270604857Y-210209571D01*
X270747714Y-210733380D02*
X270271523Y-210733380D01*
X270271523Y-209733380D01*
X270747714Y-209733380D01*
X271366761Y-210257190D02*
X271366761Y-210733380D01*
X271033428Y-209733380D02*
X271366761Y-210257190D01*
X271700095Y-209733380D01*
X271985809Y-210685761D02*
X272128666Y-210733380D01*
X272366761Y-210733380D01*
X272462000Y-210685761D01*
X272509619Y-210638142D01*
X272557238Y-210542904D01*
X272557238Y-210447666D01*
X272509619Y-210352428D01*
X272462000Y-210304809D01*
X272366761Y-210257190D01*
X272176285Y-210209571D01*
X272081047Y-210161952D01*
X272033428Y-210114333D01*
X271985809Y-210019095D01*
X271985809Y-209923857D01*
X272033428Y-209828619D01*
X272081047Y-209781000D01*
X272176285Y-209733380D01*
X272414380Y-209733380D01*
X272557238Y-209781000D01*
X272890571Y-209733380D02*
X273128666Y-210733380D01*
X273319142Y-210019095D01*
X273509619Y-210733380D01*
X273747714Y-209733380D01*
%TO.C,TH3-14*%
X126921333Y-306652380D02*
X126921333Y-305652380D01*
X126921333Y-306128571D02*
X127492761Y-306128571D01*
X127492761Y-306652380D02*
X127492761Y-305652380D01*
X128159428Y-305652380D02*
X128349904Y-305652380D01*
X128445142Y-305700000D01*
X128540380Y-305795238D01*
X128588000Y-305985714D01*
X128588000Y-306319047D01*
X128540380Y-306509523D01*
X128445142Y-306604761D01*
X128349904Y-306652380D01*
X128159428Y-306652380D01*
X128064190Y-306604761D01*
X127968952Y-306509523D01*
X127921333Y-306319047D01*
X127921333Y-305985714D01*
X127968952Y-305795238D01*
X128064190Y-305700000D01*
X128159428Y-305652380D01*
X129492761Y-306652380D02*
X129016571Y-306652380D01*
X129016571Y-305652380D01*
X129826095Y-306128571D02*
X130159428Y-306128571D01*
X130302285Y-306652380D02*
X129826095Y-306652380D01*
X129826095Y-305652380D01*
X130302285Y-305652380D01*
%TO.C,TH3-16*%
X145971333Y-268552380D02*
X145971333Y-267552380D01*
X145971333Y-268028571D02*
X146542761Y-268028571D01*
X146542761Y-268552380D02*
X146542761Y-267552380D01*
X147209428Y-267552380D02*
X147399904Y-267552380D01*
X147495142Y-267600000D01*
X147590380Y-267695238D01*
X147638000Y-267885714D01*
X147638000Y-268219047D01*
X147590380Y-268409523D01*
X147495142Y-268504761D01*
X147399904Y-268552380D01*
X147209428Y-268552380D01*
X147114190Y-268504761D01*
X147018952Y-268409523D01*
X146971333Y-268219047D01*
X146971333Y-267885714D01*
X147018952Y-267695238D01*
X147114190Y-267600000D01*
X147209428Y-267552380D01*
X148542761Y-268552380D02*
X148066571Y-268552380D01*
X148066571Y-267552380D01*
X148876095Y-268028571D02*
X149209428Y-268028571D01*
X149352285Y-268552380D02*
X148876095Y-268552380D01*
X148876095Y-267552380D01*
X149352285Y-267552380D01*
%TO.C,K7*%
X135921523Y-191683380D02*
X135921523Y-190683380D01*
X136492952Y-191683380D02*
X136064380Y-191111952D01*
X136492952Y-190683380D02*
X135921523Y-191254809D01*
X136921523Y-191159571D02*
X137254857Y-191159571D01*
X137397714Y-191683380D02*
X136921523Y-191683380D01*
X136921523Y-190683380D01*
X137397714Y-190683380D01*
X138016761Y-191207190D02*
X138016761Y-191683380D01*
X137683428Y-190683380D02*
X138016761Y-191207190D01*
X138350095Y-190683380D01*
X138635809Y-191635761D02*
X138778666Y-191683380D01*
X139016761Y-191683380D01*
X139112000Y-191635761D01*
X139159619Y-191588142D01*
X139207238Y-191492904D01*
X139207238Y-191397666D01*
X139159619Y-191302428D01*
X139112000Y-191254809D01*
X139016761Y-191207190D01*
X138826285Y-191159571D01*
X138731047Y-191111952D01*
X138683428Y-191064333D01*
X138635809Y-190969095D01*
X138635809Y-190873857D01*
X138683428Y-190778619D01*
X138731047Y-190731000D01*
X138826285Y-190683380D01*
X139064380Y-190683380D01*
X139207238Y-190731000D01*
X139540571Y-190683380D02*
X139778666Y-191683380D01*
X139969142Y-190969095D01*
X140159619Y-191683380D01*
X140397714Y-190683380D01*
%TO.C,TH3-13*%
X145971333Y-325702380D02*
X145971333Y-324702380D01*
X145971333Y-325178571D02*
X146542761Y-325178571D01*
X146542761Y-325702380D02*
X146542761Y-324702380D01*
X147209428Y-324702380D02*
X147399904Y-324702380D01*
X147495142Y-324750000D01*
X147590380Y-324845238D01*
X147638000Y-325035714D01*
X147638000Y-325369047D01*
X147590380Y-325559523D01*
X147495142Y-325654761D01*
X147399904Y-325702380D01*
X147209428Y-325702380D01*
X147114190Y-325654761D01*
X147018952Y-325559523D01*
X146971333Y-325369047D01*
X146971333Y-325035714D01*
X147018952Y-324845238D01*
X147114190Y-324750000D01*
X147209428Y-324702380D01*
X148542761Y-325702380D02*
X148066571Y-325702380D01*
X148066571Y-324702380D01*
X148876095Y-325178571D02*
X149209428Y-325178571D01*
X149352285Y-325702380D02*
X148876095Y-325702380D01*
X148876095Y-324702380D01*
X149352285Y-324702380D01*
%TO.C,K59*%
X326421523Y-229783380D02*
X326421523Y-228783380D01*
X326992952Y-229783380D02*
X326564380Y-229211952D01*
X326992952Y-228783380D02*
X326421523Y-229354809D01*
X327421523Y-229259571D02*
X327754857Y-229259571D01*
X327897714Y-229783380D02*
X327421523Y-229783380D01*
X327421523Y-228783380D01*
X327897714Y-228783380D01*
X328516761Y-229307190D02*
X328516761Y-229783380D01*
X328183428Y-228783380D02*
X328516761Y-229307190D01*
X328850095Y-228783380D01*
X329135809Y-229735761D02*
X329278666Y-229783380D01*
X329516761Y-229783380D01*
X329612000Y-229735761D01*
X329659619Y-229688142D01*
X329707238Y-229592904D01*
X329707238Y-229497666D01*
X329659619Y-229402428D01*
X329612000Y-229354809D01*
X329516761Y-229307190D01*
X329326285Y-229259571D01*
X329231047Y-229211952D01*
X329183428Y-229164333D01*
X329135809Y-229069095D01*
X329135809Y-228973857D01*
X329183428Y-228878619D01*
X329231047Y-228831000D01*
X329326285Y-228783380D01*
X329564380Y-228783380D01*
X329707238Y-228831000D01*
X330040571Y-228783380D02*
X330278666Y-229783380D01*
X330469142Y-229069095D01*
X330659619Y-229783380D01*
X330897714Y-228783380D01*
%TO.C,K46*%
X288321523Y-172633380D02*
X288321523Y-171633380D01*
X288892952Y-172633380D02*
X288464380Y-172061952D01*
X288892952Y-171633380D02*
X288321523Y-172204809D01*
X289321523Y-172109571D02*
X289654857Y-172109571D01*
X289797714Y-172633380D02*
X289321523Y-172633380D01*
X289321523Y-171633380D01*
X289797714Y-171633380D01*
X290416761Y-172157190D02*
X290416761Y-172633380D01*
X290083428Y-171633380D02*
X290416761Y-172157190D01*
X290750095Y-171633380D01*
X291035809Y-172585761D02*
X291178666Y-172633380D01*
X291416761Y-172633380D01*
X291512000Y-172585761D01*
X291559619Y-172538142D01*
X291607238Y-172442904D01*
X291607238Y-172347666D01*
X291559619Y-172252428D01*
X291512000Y-172204809D01*
X291416761Y-172157190D01*
X291226285Y-172109571D01*
X291131047Y-172061952D01*
X291083428Y-172014333D01*
X291035809Y-171919095D01*
X291035809Y-171823857D01*
X291083428Y-171728619D01*
X291131047Y-171681000D01*
X291226285Y-171633380D01*
X291464380Y-171633380D01*
X291607238Y-171681000D01*
X291940571Y-171633380D02*
X292178666Y-172633380D01*
X292369142Y-171919095D01*
X292559619Y-172633380D01*
X292797714Y-171633380D01*
%TO.C,K22*%
X193071523Y-191683380D02*
X193071523Y-190683380D01*
X193642952Y-191683380D02*
X193214380Y-191111952D01*
X193642952Y-190683380D02*
X193071523Y-191254809D01*
X194071523Y-191159571D02*
X194404857Y-191159571D01*
X194547714Y-191683380D02*
X194071523Y-191683380D01*
X194071523Y-190683380D01*
X194547714Y-190683380D01*
X195166761Y-191207190D02*
X195166761Y-191683380D01*
X194833428Y-190683380D02*
X195166761Y-191207190D01*
X195500095Y-190683380D01*
X195785809Y-191635761D02*
X195928666Y-191683380D01*
X196166761Y-191683380D01*
X196262000Y-191635761D01*
X196309619Y-191588142D01*
X196357238Y-191492904D01*
X196357238Y-191397666D01*
X196309619Y-191302428D01*
X196262000Y-191254809D01*
X196166761Y-191207190D01*
X195976285Y-191159571D01*
X195881047Y-191111952D01*
X195833428Y-191064333D01*
X195785809Y-190969095D01*
X195785809Y-190873857D01*
X195833428Y-190778619D01*
X195881047Y-190731000D01*
X195976285Y-190683380D01*
X196214380Y-190683380D01*
X196357238Y-190731000D01*
X196690571Y-190683380D02*
X196928666Y-191683380D01*
X197119142Y-190969095D01*
X197309619Y-191683380D01*
X197547714Y-190683380D01*
%TD*%
M02*
