%TF.GenerationSoftware,KiCad,Pcbnew,5.1.10*%
%TF.CreationDate,2021-06-15T19:04:48-05:00*%
%TF.ProjectId,olkbd_ble,6f6c6b62-645f-4626-9c65-2e6b69636164,rev?*%
%TF.SameCoordinates,Original*%
%TF.FileFunction,Other,Fab,Bot*%
%FSLAX46Y46*%
G04 Gerber Fmt 4.6, Leading zero omitted, Abs format (unit mm)*
G04 Created by KiCad (PCBNEW 5.1.10) date 2021-06-15 19:04:48*
%MOMM*%
%LPD*%
G01*
G04 APERTURE LIST*
%ADD10C,0.120000*%
%ADD11C,0.150000*%
G04 APERTURE END LIST*
D10*
%TO.C,K32*%
X226874500Y-182690500D02*
X230684500Y-182690500D01*
X226874500Y-182690500D02*
X226874500Y-178880500D01*
X229414500Y-176340500D02*
X238304500Y-176340500D01*
X238304500Y-176340500D02*
X238304500Y-180785500D01*
X238304500Y-180785500D02*
X233224500Y-180785500D01*
X238304500Y-176975500D02*
X240844500Y-176975500D01*
X240844500Y-176975500D02*
X240844500Y-179515500D01*
X240844500Y-179515500D02*
X238304500Y-179515500D01*
X226874500Y-182055500D02*
X224334500Y-182055500D01*
X224334500Y-182055500D02*
X224334500Y-179515500D01*
X224334500Y-179515500D02*
X226874500Y-179515500D01*
X230760338Y-182709460D02*
G75*
G02*
X233224500Y-180785500I2464162J-616040D01*
G01*
X226874500Y-178880500D02*
G75*
G02*
X229414500Y-176340500I2540000J0D01*
G01*
%TO.C,K33*%
X226874500Y-201740500D02*
X230684500Y-201740500D01*
X226874500Y-201740500D02*
X226874500Y-197930500D01*
X229414500Y-195390500D02*
X238304500Y-195390500D01*
X238304500Y-195390500D02*
X238304500Y-199835500D01*
X238304500Y-199835500D02*
X233224500Y-199835500D01*
X238304500Y-196025500D02*
X240844500Y-196025500D01*
X240844500Y-196025500D02*
X240844500Y-198565500D01*
X240844500Y-198565500D02*
X238304500Y-198565500D01*
X226874500Y-201105500D02*
X224334500Y-201105500D01*
X224334500Y-201105500D02*
X224334500Y-198565500D01*
X224334500Y-198565500D02*
X226874500Y-198565500D01*
X230760338Y-201759460D02*
G75*
G02*
X233224500Y-199835500I2464162J-616040D01*
G01*
X226874500Y-197930500D02*
G75*
G02*
X229414500Y-195390500I2540000J0D01*
G01*
%TO.C,K42*%
X264974500Y-182690500D02*
X268784500Y-182690500D01*
X264974500Y-182690500D02*
X264974500Y-178880500D01*
X267514500Y-176340500D02*
X276404500Y-176340500D01*
X276404500Y-176340500D02*
X276404500Y-180785500D01*
X276404500Y-180785500D02*
X271324500Y-180785500D01*
X276404500Y-176975500D02*
X278944500Y-176975500D01*
X278944500Y-176975500D02*
X278944500Y-179515500D01*
X278944500Y-179515500D02*
X276404500Y-179515500D01*
X264974500Y-182055500D02*
X262434500Y-182055500D01*
X262434500Y-182055500D02*
X262434500Y-179515500D01*
X262434500Y-179515500D02*
X264974500Y-179515500D01*
X268860338Y-182709460D02*
G75*
G02*
X271324500Y-180785500I2464162J-616040D01*
G01*
X264974500Y-178880500D02*
G75*
G02*
X267514500Y-176340500I2540000J0D01*
G01*
%TO.C,K31*%
X226874500Y-163640500D02*
X230684500Y-163640500D01*
X226874500Y-163640500D02*
X226874500Y-159830500D01*
X229414500Y-157290500D02*
X238304500Y-157290500D01*
X238304500Y-157290500D02*
X238304500Y-161735500D01*
X238304500Y-161735500D02*
X233224500Y-161735500D01*
X238304500Y-157925500D02*
X240844500Y-157925500D01*
X240844500Y-157925500D02*
X240844500Y-160465500D01*
X240844500Y-160465500D02*
X238304500Y-160465500D01*
X226874500Y-163005500D02*
X224334500Y-163005500D01*
X224334500Y-163005500D02*
X224334500Y-160465500D01*
X224334500Y-160465500D02*
X226874500Y-160465500D01*
X230760338Y-163659460D02*
G75*
G02*
X233224500Y-161735500I2464162J-616040D01*
G01*
X226874500Y-159830500D02*
G75*
G02*
X229414500Y-157290500I2540000J0D01*
G01*
%TO.C,K24*%
X188774500Y-220790500D02*
X192584500Y-220790500D01*
X188774500Y-220790500D02*
X188774500Y-216980500D01*
X191314500Y-214440500D02*
X200204500Y-214440500D01*
X200204500Y-214440500D02*
X200204500Y-218885500D01*
X200204500Y-218885500D02*
X195124500Y-218885500D01*
X200204500Y-215075500D02*
X202744500Y-215075500D01*
X202744500Y-215075500D02*
X202744500Y-217615500D01*
X202744500Y-217615500D02*
X200204500Y-217615500D01*
X188774500Y-220155500D02*
X186234500Y-220155500D01*
X186234500Y-220155500D02*
X186234500Y-217615500D01*
X186234500Y-217615500D02*
X188774500Y-217615500D01*
X192660338Y-220809460D02*
G75*
G02*
X195124500Y-218885500I2464162J-616040D01*
G01*
X188774500Y-216980500D02*
G75*
G02*
X191314500Y-214440500I2540000J0D01*
G01*
%TO.C,K41*%
X264974500Y-163640500D02*
X268784500Y-163640500D01*
X264974500Y-163640500D02*
X264974500Y-159830500D01*
X267514500Y-157290500D02*
X276404500Y-157290500D01*
X276404500Y-157290500D02*
X276404500Y-161735500D01*
X276404500Y-161735500D02*
X271324500Y-161735500D01*
X276404500Y-157925500D02*
X278944500Y-157925500D01*
X278944500Y-157925500D02*
X278944500Y-160465500D01*
X278944500Y-160465500D02*
X276404500Y-160465500D01*
X264974500Y-163005500D02*
X262434500Y-163005500D01*
X262434500Y-163005500D02*
X262434500Y-160465500D01*
X262434500Y-160465500D02*
X264974500Y-160465500D01*
X268860338Y-163659460D02*
G75*
G02*
X271324500Y-161735500I2464162J-616040D01*
G01*
X264974500Y-159830500D02*
G75*
G02*
X267514500Y-157290500I2540000J0D01*
G01*
%TO.C,K34*%
X226874500Y-220790500D02*
X230684500Y-220790500D01*
X226874500Y-220790500D02*
X226874500Y-216980500D01*
X229414500Y-214440500D02*
X238304500Y-214440500D01*
X238304500Y-214440500D02*
X238304500Y-218885500D01*
X238304500Y-218885500D02*
X233224500Y-218885500D01*
X238304500Y-215075500D02*
X240844500Y-215075500D01*
X240844500Y-215075500D02*
X240844500Y-217615500D01*
X240844500Y-217615500D02*
X238304500Y-217615500D01*
X226874500Y-220155500D02*
X224334500Y-220155500D01*
X224334500Y-220155500D02*
X224334500Y-217615500D01*
X224334500Y-217615500D02*
X226874500Y-217615500D01*
X230760338Y-220809460D02*
G75*
G02*
X233224500Y-218885500I2464162J-616040D01*
G01*
X226874500Y-216980500D02*
G75*
G02*
X229414500Y-214440500I2540000J0D01*
G01*
%TO.C,K23*%
X188774500Y-201740500D02*
X192584500Y-201740500D01*
X188774500Y-201740500D02*
X188774500Y-197930500D01*
X191314500Y-195390500D02*
X200204500Y-195390500D01*
X200204500Y-195390500D02*
X200204500Y-199835500D01*
X200204500Y-199835500D02*
X195124500Y-199835500D01*
X200204500Y-196025500D02*
X202744500Y-196025500D01*
X202744500Y-196025500D02*
X202744500Y-198565500D01*
X202744500Y-198565500D02*
X200204500Y-198565500D01*
X188774500Y-201105500D02*
X186234500Y-201105500D01*
X186234500Y-201105500D02*
X186234500Y-198565500D01*
X186234500Y-198565500D02*
X188774500Y-198565500D01*
X192660338Y-201759460D02*
G75*
G02*
X195124500Y-199835500I2464162J-616040D01*
G01*
X188774500Y-197930500D02*
G75*
G02*
X191314500Y-195390500I2540000J0D01*
G01*
%TO.C,K19*%
X169724500Y-220790500D02*
X173534500Y-220790500D01*
X169724500Y-220790500D02*
X169724500Y-216980500D01*
X172264500Y-214440500D02*
X181154500Y-214440500D01*
X181154500Y-214440500D02*
X181154500Y-218885500D01*
X181154500Y-218885500D02*
X176074500Y-218885500D01*
X181154500Y-215075500D02*
X183694500Y-215075500D01*
X183694500Y-215075500D02*
X183694500Y-217615500D01*
X183694500Y-217615500D02*
X181154500Y-217615500D01*
X169724500Y-220155500D02*
X167184500Y-220155500D01*
X167184500Y-220155500D02*
X167184500Y-217615500D01*
X167184500Y-217615500D02*
X169724500Y-217615500D01*
X173610338Y-220809460D02*
G75*
G02*
X176074500Y-218885500I2464162J-616040D01*
G01*
X169724500Y-216980500D02*
G75*
G02*
X172264500Y-214440500I2540000J0D01*
G01*
%TO.C,K22*%
X188774500Y-182690500D02*
X192584500Y-182690500D01*
X188774500Y-182690500D02*
X188774500Y-178880500D01*
X191314500Y-176340500D02*
X200204500Y-176340500D01*
X200204500Y-176340500D02*
X200204500Y-180785500D01*
X200204500Y-180785500D02*
X195124500Y-180785500D01*
X200204500Y-176975500D02*
X202744500Y-176975500D01*
X202744500Y-176975500D02*
X202744500Y-179515500D01*
X202744500Y-179515500D02*
X200204500Y-179515500D01*
X188774500Y-182055500D02*
X186234500Y-182055500D01*
X186234500Y-182055500D02*
X186234500Y-179515500D01*
X186234500Y-179515500D02*
X188774500Y-179515500D01*
X192660338Y-182709460D02*
G75*
G02*
X195124500Y-180785500I2464162J-616040D01*
G01*
X188774500Y-178880500D02*
G75*
G02*
X191314500Y-176340500I2540000J0D01*
G01*
%TO.C,K45*%
X264974500Y-239840500D02*
X268784500Y-239840500D01*
X264974500Y-239840500D02*
X264974500Y-236030500D01*
X267514500Y-233490500D02*
X276404500Y-233490500D01*
X276404500Y-233490500D02*
X276404500Y-237935500D01*
X276404500Y-237935500D02*
X271324500Y-237935500D01*
X276404500Y-234125500D02*
X278944500Y-234125500D01*
X278944500Y-234125500D02*
X278944500Y-236665500D01*
X278944500Y-236665500D02*
X276404500Y-236665500D01*
X264974500Y-239205500D02*
X262434500Y-239205500D01*
X262434500Y-239205500D02*
X262434500Y-236665500D01*
X262434500Y-236665500D02*
X264974500Y-236665500D01*
X268860338Y-239859460D02*
G75*
G02*
X271324500Y-237935500I2464162J-616040D01*
G01*
X264974500Y-236030500D02*
G75*
G02*
X267514500Y-233490500I2540000J0D01*
G01*
%TO.C,K20*%
X169724500Y-239840500D02*
X173534500Y-239840500D01*
X169724500Y-239840500D02*
X169724500Y-236030500D01*
X172264500Y-233490500D02*
X181154500Y-233490500D01*
X181154500Y-233490500D02*
X181154500Y-237935500D01*
X181154500Y-237935500D02*
X176074500Y-237935500D01*
X181154500Y-234125500D02*
X183694500Y-234125500D01*
X183694500Y-234125500D02*
X183694500Y-236665500D01*
X183694500Y-236665500D02*
X181154500Y-236665500D01*
X169724500Y-239205500D02*
X167184500Y-239205500D01*
X167184500Y-239205500D02*
X167184500Y-236665500D01*
X167184500Y-236665500D02*
X169724500Y-236665500D01*
X173610338Y-239859460D02*
G75*
G02*
X176074500Y-237935500I2464162J-616040D01*
G01*
X169724500Y-236030500D02*
G75*
G02*
X172264500Y-233490500I2540000J0D01*
G01*
%TO.C,K30*%
X207824500Y-239840500D02*
X211634500Y-239840500D01*
X207824500Y-239840500D02*
X207824500Y-236030500D01*
X210364500Y-233490500D02*
X219254500Y-233490500D01*
X219254500Y-233490500D02*
X219254500Y-237935500D01*
X219254500Y-237935500D02*
X214174500Y-237935500D01*
X219254500Y-234125500D02*
X221794500Y-234125500D01*
X221794500Y-234125500D02*
X221794500Y-236665500D01*
X221794500Y-236665500D02*
X219254500Y-236665500D01*
X207824500Y-239205500D02*
X205284500Y-239205500D01*
X205284500Y-239205500D02*
X205284500Y-236665500D01*
X205284500Y-236665500D02*
X207824500Y-236665500D01*
X211710338Y-239859460D02*
G75*
G02*
X214174500Y-237935500I2464162J-616040D01*
G01*
X207824500Y-236030500D02*
G75*
G02*
X210364500Y-233490500I2540000J0D01*
G01*
%TO.C,K28*%
X207824500Y-201740500D02*
X211634500Y-201740500D01*
X207824500Y-201740500D02*
X207824500Y-197930500D01*
X210364500Y-195390500D02*
X219254500Y-195390500D01*
X219254500Y-195390500D02*
X219254500Y-199835500D01*
X219254500Y-199835500D02*
X214174500Y-199835500D01*
X219254500Y-196025500D02*
X221794500Y-196025500D01*
X221794500Y-196025500D02*
X221794500Y-198565500D01*
X221794500Y-198565500D02*
X219254500Y-198565500D01*
X207824500Y-201105500D02*
X205284500Y-201105500D01*
X205284500Y-201105500D02*
X205284500Y-198565500D01*
X205284500Y-198565500D02*
X207824500Y-198565500D01*
X211710338Y-201759460D02*
G75*
G02*
X214174500Y-199835500I2464162J-616040D01*
G01*
X207824500Y-197930500D02*
G75*
G02*
X210364500Y-195390500I2540000J0D01*
G01*
%TO.C,K25*%
X188774500Y-239840500D02*
X192584500Y-239840500D01*
X188774500Y-239840500D02*
X188774500Y-236030500D01*
X191314500Y-233490500D02*
X200204500Y-233490500D01*
X200204500Y-233490500D02*
X200204500Y-237935500D01*
X200204500Y-237935500D02*
X195124500Y-237935500D01*
X200204500Y-234125500D02*
X202744500Y-234125500D01*
X202744500Y-234125500D02*
X202744500Y-236665500D01*
X202744500Y-236665500D02*
X200204500Y-236665500D01*
X188774500Y-239205500D02*
X186234500Y-239205500D01*
X186234500Y-239205500D02*
X186234500Y-236665500D01*
X186234500Y-236665500D02*
X188774500Y-236665500D01*
X192660338Y-239859460D02*
G75*
G02*
X195124500Y-237935500I2464162J-616040D01*
G01*
X188774500Y-236030500D02*
G75*
G02*
X191314500Y-233490500I2540000J0D01*
G01*
%TO.C,K51*%
X303074500Y-163640500D02*
X306884500Y-163640500D01*
X303074500Y-163640500D02*
X303074500Y-159830500D01*
X305614500Y-157290500D02*
X314504500Y-157290500D01*
X314504500Y-157290500D02*
X314504500Y-161735500D01*
X314504500Y-161735500D02*
X309424500Y-161735500D01*
X314504500Y-157925500D02*
X317044500Y-157925500D01*
X317044500Y-157925500D02*
X317044500Y-160465500D01*
X317044500Y-160465500D02*
X314504500Y-160465500D01*
X303074500Y-163005500D02*
X300534500Y-163005500D01*
X300534500Y-163005500D02*
X300534500Y-160465500D01*
X300534500Y-160465500D02*
X303074500Y-160465500D01*
X306960338Y-163659460D02*
G75*
G02*
X309424500Y-161735500I2464162J-616040D01*
G01*
X303074500Y-159830500D02*
G75*
G02*
X305614500Y-157290500I2540000J0D01*
G01*
%TO.C,K10*%
X131624500Y-239840500D02*
X135434500Y-239840500D01*
X131624500Y-239840500D02*
X131624500Y-236030500D01*
X134164500Y-233490500D02*
X143054500Y-233490500D01*
X143054500Y-233490500D02*
X143054500Y-237935500D01*
X143054500Y-237935500D02*
X137974500Y-237935500D01*
X143054500Y-234125500D02*
X145594500Y-234125500D01*
X145594500Y-234125500D02*
X145594500Y-236665500D01*
X145594500Y-236665500D02*
X143054500Y-236665500D01*
X131624500Y-239205500D02*
X129084500Y-239205500D01*
X129084500Y-239205500D02*
X129084500Y-236665500D01*
X129084500Y-236665500D02*
X131624500Y-236665500D01*
X135510338Y-239859460D02*
G75*
G02*
X137974500Y-237935500I2464162J-616040D01*
G01*
X131624500Y-236030500D02*
G75*
G02*
X134164500Y-233490500I2540000J0D01*
G01*
%TO.C,K57*%
X322124500Y-182690500D02*
X325934500Y-182690500D01*
X322124500Y-182690500D02*
X322124500Y-178880500D01*
X324664500Y-176340500D02*
X333554500Y-176340500D01*
X333554500Y-176340500D02*
X333554500Y-180785500D01*
X333554500Y-180785500D02*
X328474500Y-180785500D01*
X333554500Y-176975500D02*
X336094500Y-176975500D01*
X336094500Y-176975500D02*
X336094500Y-179515500D01*
X336094500Y-179515500D02*
X333554500Y-179515500D01*
X322124500Y-182055500D02*
X319584500Y-182055500D01*
X319584500Y-182055500D02*
X319584500Y-179515500D01*
X319584500Y-179515500D02*
X322124500Y-179515500D01*
X326010338Y-182709460D02*
G75*
G02*
X328474500Y-180785500I2464162J-616040D01*
G01*
X322124500Y-178880500D02*
G75*
G02*
X324664500Y-176340500I2540000J0D01*
G01*
%TO.C,K58*%
X322124500Y-201740500D02*
X325934500Y-201740500D01*
X322124500Y-201740500D02*
X322124500Y-197930500D01*
X324664500Y-195390500D02*
X333554500Y-195390500D01*
X333554500Y-195390500D02*
X333554500Y-199835500D01*
X333554500Y-199835500D02*
X328474500Y-199835500D01*
X333554500Y-196025500D02*
X336094500Y-196025500D01*
X336094500Y-196025500D02*
X336094500Y-198565500D01*
X336094500Y-198565500D02*
X333554500Y-198565500D01*
X322124500Y-201105500D02*
X319584500Y-201105500D01*
X319584500Y-201105500D02*
X319584500Y-198565500D01*
X319584500Y-198565500D02*
X322124500Y-198565500D01*
X326010338Y-201759460D02*
G75*
G02*
X328474500Y-199835500I2464162J-616040D01*
G01*
X322124500Y-197930500D02*
G75*
G02*
X324664500Y-195390500I2540000J0D01*
G01*
%TO.C,K56*%
X322124500Y-163640500D02*
X325934500Y-163640500D01*
X322124500Y-163640500D02*
X322124500Y-159830500D01*
X324664500Y-157290500D02*
X333554500Y-157290500D01*
X333554500Y-157290500D02*
X333554500Y-161735500D01*
X333554500Y-161735500D02*
X328474500Y-161735500D01*
X333554500Y-157925500D02*
X336094500Y-157925500D01*
X336094500Y-157925500D02*
X336094500Y-160465500D01*
X336094500Y-160465500D02*
X333554500Y-160465500D01*
X322124500Y-163005500D02*
X319584500Y-163005500D01*
X319584500Y-163005500D02*
X319584500Y-160465500D01*
X319584500Y-160465500D02*
X322124500Y-160465500D01*
X326010338Y-163659460D02*
G75*
G02*
X328474500Y-161735500I2464162J-616040D01*
G01*
X322124500Y-159830500D02*
G75*
G02*
X324664500Y-157290500I2540000J0D01*
G01*
%TO.C,K17*%
X169724500Y-182690500D02*
X173534500Y-182690500D01*
X169724500Y-182690500D02*
X169724500Y-178880500D01*
X172264500Y-176340500D02*
X181154500Y-176340500D01*
X181154500Y-176340500D02*
X181154500Y-180785500D01*
X181154500Y-180785500D02*
X176074500Y-180785500D01*
X181154500Y-176975500D02*
X183694500Y-176975500D01*
X183694500Y-176975500D02*
X183694500Y-179515500D01*
X183694500Y-179515500D02*
X181154500Y-179515500D01*
X169724500Y-182055500D02*
X167184500Y-182055500D01*
X167184500Y-182055500D02*
X167184500Y-179515500D01*
X167184500Y-179515500D02*
X169724500Y-179515500D01*
X173610338Y-182709460D02*
G75*
G02*
X176074500Y-180785500I2464162J-616040D01*
G01*
X169724500Y-178880500D02*
G75*
G02*
X172264500Y-176340500I2540000J0D01*
G01*
%TO.C,K43*%
X264974500Y-201740500D02*
X268784500Y-201740500D01*
X264974500Y-201740500D02*
X264974500Y-197930500D01*
X267514500Y-195390500D02*
X276404500Y-195390500D01*
X276404500Y-195390500D02*
X276404500Y-199835500D01*
X276404500Y-199835500D02*
X271324500Y-199835500D01*
X276404500Y-196025500D02*
X278944500Y-196025500D01*
X278944500Y-196025500D02*
X278944500Y-198565500D01*
X278944500Y-198565500D02*
X276404500Y-198565500D01*
X264974500Y-201105500D02*
X262434500Y-201105500D01*
X262434500Y-201105500D02*
X262434500Y-198565500D01*
X262434500Y-198565500D02*
X264974500Y-198565500D01*
X268860338Y-201759460D02*
G75*
G02*
X271324500Y-199835500I2464162J-616040D01*
G01*
X264974500Y-197930500D02*
G75*
G02*
X267514500Y-195390500I2540000J0D01*
G01*
%TO.C,K39*%
X245924500Y-220790500D02*
X249734500Y-220790500D01*
X245924500Y-220790500D02*
X245924500Y-216980500D01*
X248464500Y-214440500D02*
X257354500Y-214440500D01*
X257354500Y-214440500D02*
X257354500Y-218885500D01*
X257354500Y-218885500D02*
X252274500Y-218885500D01*
X257354500Y-215075500D02*
X259894500Y-215075500D01*
X259894500Y-215075500D02*
X259894500Y-217615500D01*
X259894500Y-217615500D02*
X257354500Y-217615500D01*
X245924500Y-220155500D02*
X243384500Y-220155500D01*
X243384500Y-220155500D02*
X243384500Y-217615500D01*
X243384500Y-217615500D02*
X245924500Y-217615500D01*
X249810338Y-220809460D02*
G75*
G02*
X252274500Y-218885500I2464162J-616040D01*
G01*
X245924500Y-216980500D02*
G75*
G02*
X248464500Y-214440500I2540000J0D01*
G01*
%TO.C,K18*%
X169724500Y-201740500D02*
X173534500Y-201740500D01*
X169724500Y-201740500D02*
X169724500Y-197930500D01*
X172264500Y-195390500D02*
X181154500Y-195390500D01*
X181154500Y-195390500D02*
X181154500Y-199835500D01*
X181154500Y-199835500D02*
X176074500Y-199835500D01*
X181154500Y-196025500D02*
X183694500Y-196025500D01*
X183694500Y-196025500D02*
X183694500Y-198565500D01*
X183694500Y-198565500D02*
X181154500Y-198565500D01*
X169724500Y-201105500D02*
X167184500Y-201105500D01*
X167184500Y-201105500D02*
X167184500Y-198565500D01*
X167184500Y-198565500D02*
X169724500Y-198565500D01*
X173610338Y-201759460D02*
G75*
G02*
X176074500Y-199835500I2464162J-616040D01*
G01*
X169724500Y-197930500D02*
G75*
G02*
X172264500Y-195390500I2540000J0D01*
G01*
%TO.C,K3*%
X112574500Y-201740500D02*
X116384500Y-201740500D01*
X112574500Y-201740500D02*
X112574500Y-197930500D01*
X115114500Y-195390500D02*
X124004500Y-195390500D01*
X124004500Y-195390500D02*
X124004500Y-199835500D01*
X124004500Y-199835500D02*
X118924500Y-199835500D01*
X124004500Y-196025500D02*
X126544500Y-196025500D01*
X126544500Y-196025500D02*
X126544500Y-198565500D01*
X126544500Y-198565500D02*
X124004500Y-198565500D01*
X112574500Y-201105500D02*
X110034500Y-201105500D01*
X110034500Y-201105500D02*
X110034500Y-198565500D01*
X110034500Y-198565500D02*
X112574500Y-198565500D01*
X116460338Y-201759460D02*
G75*
G02*
X118924500Y-199835500I2464162J-616040D01*
G01*
X112574500Y-197930500D02*
G75*
G02*
X115114500Y-195390500I2540000J0D01*
G01*
%TO.C,K48*%
X284024500Y-201740500D02*
X287834500Y-201740500D01*
X284024500Y-201740500D02*
X284024500Y-197930500D01*
X286564500Y-195390500D02*
X295454500Y-195390500D01*
X295454500Y-195390500D02*
X295454500Y-199835500D01*
X295454500Y-199835500D02*
X290374500Y-199835500D01*
X295454500Y-196025500D02*
X297994500Y-196025500D01*
X297994500Y-196025500D02*
X297994500Y-198565500D01*
X297994500Y-198565500D02*
X295454500Y-198565500D01*
X284024500Y-201105500D02*
X281484500Y-201105500D01*
X281484500Y-201105500D02*
X281484500Y-198565500D01*
X281484500Y-198565500D02*
X284024500Y-198565500D01*
X287910338Y-201759460D02*
G75*
G02*
X290374500Y-199835500I2464162J-616040D01*
G01*
X284024500Y-197930500D02*
G75*
G02*
X286564500Y-195390500I2540000J0D01*
G01*
%TO.C,K6*%
X131624500Y-163640500D02*
X135434500Y-163640500D01*
X131624500Y-163640500D02*
X131624500Y-159830500D01*
X134164500Y-157290500D02*
X143054500Y-157290500D01*
X143054500Y-157290500D02*
X143054500Y-161735500D01*
X143054500Y-161735500D02*
X137974500Y-161735500D01*
X143054500Y-157925500D02*
X145594500Y-157925500D01*
X145594500Y-157925500D02*
X145594500Y-160465500D01*
X145594500Y-160465500D02*
X143054500Y-160465500D01*
X131624500Y-163005500D02*
X129084500Y-163005500D01*
X129084500Y-163005500D02*
X129084500Y-160465500D01*
X129084500Y-160465500D02*
X131624500Y-160465500D01*
X135510338Y-163659460D02*
G75*
G02*
X137974500Y-161735500I2464162J-616040D01*
G01*
X131624500Y-159830500D02*
G75*
G02*
X134164500Y-157290500I2540000J0D01*
G01*
%TO.C,K7*%
X131624500Y-182690500D02*
X135434500Y-182690500D01*
X131624500Y-182690500D02*
X131624500Y-178880500D01*
X134164500Y-176340500D02*
X143054500Y-176340500D01*
X143054500Y-176340500D02*
X143054500Y-180785500D01*
X143054500Y-180785500D02*
X137974500Y-180785500D01*
X143054500Y-176975500D02*
X145594500Y-176975500D01*
X145594500Y-176975500D02*
X145594500Y-179515500D01*
X145594500Y-179515500D02*
X143054500Y-179515500D01*
X131624500Y-182055500D02*
X129084500Y-182055500D01*
X129084500Y-182055500D02*
X129084500Y-179515500D01*
X129084500Y-179515500D02*
X131624500Y-179515500D01*
X135510338Y-182709460D02*
G75*
G02*
X137974500Y-180785500I2464162J-616040D01*
G01*
X131624500Y-178880500D02*
G75*
G02*
X134164500Y-176340500I2540000J0D01*
G01*
%TO.C,K53*%
X303074500Y-201740500D02*
X306884500Y-201740500D01*
X303074500Y-201740500D02*
X303074500Y-197930500D01*
X305614500Y-195390500D02*
X314504500Y-195390500D01*
X314504500Y-195390500D02*
X314504500Y-199835500D01*
X314504500Y-199835500D02*
X309424500Y-199835500D01*
X314504500Y-196025500D02*
X317044500Y-196025500D01*
X317044500Y-196025500D02*
X317044500Y-198565500D01*
X317044500Y-198565500D02*
X314504500Y-198565500D01*
X303074500Y-201105500D02*
X300534500Y-201105500D01*
X300534500Y-201105500D02*
X300534500Y-198565500D01*
X300534500Y-198565500D02*
X303074500Y-198565500D01*
X306960338Y-201759460D02*
G75*
G02*
X309424500Y-199835500I2464162J-616040D01*
G01*
X303074500Y-197930500D02*
G75*
G02*
X305614500Y-195390500I2540000J0D01*
G01*
%TO.C,K16*%
X169724500Y-163640500D02*
X173534500Y-163640500D01*
X169724500Y-163640500D02*
X169724500Y-159830500D01*
X172264500Y-157290500D02*
X181154500Y-157290500D01*
X181154500Y-157290500D02*
X181154500Y-161735500D01*
X181154500Y-161735500D02*
X176074500Y-161735500D01*
X181154500Y-157925500D02*
X183694500Y-157925500D01*
X183694500Y-157925500D02*
X183694500Y-160465500D01*
X183694500Y-160465500D02*
X181154500Y-160465500D01*
X169724500Y-163005500D02*
X167184500Y-163005500D01*
X167184500Y-163005500D02*
X167184500Y-160465500D01*
X167184500Y-160465500D02*
X169724500Y-160465500D01*
X173610338Y-163659460D02*
G75*
G02*
X176074500Y-161735500I2464162J-616040D01*
G01*
X169724500Y-159830500D02*
G75*
G02*
X172264500Y-157290500I2540000J0D01*
G01*
%TO.C,K54*%
X303074500Y-220790500D02*
X306884500Y-220790500D01*
X303074500Y-220790500D02*
X303074500Y-216980500D01*
X305614500Y-214440500D02*
X314504500Y-214440500D01*
X314504500Y-214440500D02*
X314504500Y-218885500D01*
X314504500Y-218885500D02*
X309424500Y-218885500D01*
X314504500Y-215075500D02*
X317044500Y-215075500D01*
X317044500Y-215075500D02*
X317044500Y-217615500D01*
X317044500Y-217615500D02*
X314504500Y-217615500D01*
X303074500Y-220155500D02*
X300534500Y-220155500D01*
X300534500Y-220155500D02*
X300534500Y-217615500D01*
X300534500Y-217615500D02*
X303074500Y-217615500D01*
X306960338Y-220809460D02*
G75*
G02*
X309424500Y-218885500I2464162J-616040D01*
G01*
X303074500Y-216980500D02*
G75*
G02*
X305614500Y-214440500I2540000J0D01*
G01*
%TO.C,K36*%
X245924500Y-163640500D02*
X249734500Y-163640500D01*
X245924500Y-163640500D02*
X245924500Y-159830500D01*
X248464500Y-157290500D02*
X257354500Y-157290500D01*
X257354500Y-157290500D02*
X257354500Y-161735500D01*
X257354500Y-161735500D02*
X252274500Y-161735500D01*
X257354500Y-157925500D02*
X259894500Y-157925500D01*
X259894500Y-157925500D02*
X259894500Y-160465500D01*
X259894500Y-160465500D02*
X257354500Y-160465500D01*
X245924500Y-163005500D02*
X243384500Y-163005500D01*
X243384500Y-163005500D02*
X243384500Y-160465500D01*
X243384500Y-160465500D02*
X245924500Y-160465500D01*
X249810338Y-163659460D02*
G75*
G02*
X252274500Y-161735500I2464162J-616040D01*
G01*
X245924500Y-159830500D02*
G75*
G02*
X248464500Y-157290500I2540000J0D01*
G01*
%TO.C,K27*%
X207824500Y-182690500D02*
X211634500Y-182690500D01*
X207824500Y-182690500D02*
X207824500Y-178880500D01*
X210364500Y-176340500D02*
X219254500Y-176340500D01*
X219254500Y-176340500D02*
X219254500Y-180785500D01*
X219254500Y-180785500D02*
X214174500Y-180785500D01*
X219254500Y-176975500D02*
X221794500Y-176975500D01*
X221794500Y-176975500D02*
X221794500Y-179515500D01*
X221794500Y-179515500D02*
X219254500Y-179515500D01*
X207824500Y-182055500D02*
X205284500Y-182055500D01*
X205284500Y-182055500D02*
X205284500Y-179515500D01*
X205284500Y-179515500D02*
X207824500Y-179515500D01*
X211710338Y-182709460D02*
G75*
G02*
X214174500Y-180785500I2464162J-616040D01*
G01*
X207824500Y-178880500D02*
G75*
G02*
X210364500Y-176340500I2540000J0D01*
G01*
%TO.C,K26*%
X207824500Y-163640500D02*
X211634500Y-163640500D01*
X207824500Y-163640500D02*
X207824500Y-159830500D01*
X210364500Y-157290500D02*
X219254500Y-157290500D01*
X219254500Y-157290500D02*
X219254500Y-161735500D01*
X219254500Y-161735500D02*
X214174500Y-161735500D01*
X219254500Y-157925500D02*
X221794500Y-157925500D01*
X221794500Y-157925500D02*
X221794500Y-160465500D01*
X221794500Y-160465500D02*
X219254500Y-160465500D01*
X207824500Y-163005500D02*
X205284500Y-163005500D01*
X205284500Y-163005500D02*
X205284500Y-160465500D01*
X205284500Y-160465500D02*
X207824500Y-160465500D01*
X211710338Y-163659460D02*
G75*
G02*
X214174500Y-161735500I2464162J-616040D01*
G01*
X207824500Y-159830500D02*
G75*
G02*
X210364500Y-157290500I2540000J0D01*
G01*
%TO.C,K37*%
X245924500Y-182690500D02*
X249734500Y-182690500D01*
X245924500Y-182690500D02*
X245924500Y-178880500D01*
X248464500Y-176340500D02*
X257354500Y-176340500D01*
X257354500Y-176340500D02*
X257354500Y-180785500D01*
X257354500Y-180785500D02*
X252274500Y-180785500D01*
X257354500Y-176975500D02*
X259894500Y-176975500D01*
X259894500Y-176975500D02*
X259894500Y-179515500D01*
X259894500Y-179515500D02*
X257354500Y-179515500D01*
X245924500Y-182055500D02*
X243384500Y-182055500D01*
X243384500Y-182055500D02*
X243384500Y-179515500D01*
X243384500Y-179515500D02*
X245924500Y-179515500D01*
X249810338Y-182709460D02*
G75*
G02*
X252274500Y-180785500I2464162J-616040D01*
G01*
X245924500Y-178880500D02*
G75*
G02*
X248464500Y-176340500I2540000J0D01*
G01*
%TO.C,K44*%
X264974500Y-220790500D02*
X268784500Y-220790500D01*
X264974500Y-220790500D02*
X264974500Y-216980500D01*
X267514500Y-214440500D02*
X276404500Y-214440500D01*
X276404500Y-214440500D02*
X276404500Y-218885500D01*
X276404500Y-218885500D02*
X271324500Y-218885500D01*
X276404500Y-215075500D02*
X278944500Y-215075500D01*
X278944500Y-215075500D02*
X278944500Y-217615500D01*
X278944500Y-217615500D02*
X276404500Y-217615500D01*
X264974500Y-220155500D02*
X262434500Y-220155500D01*
X262434500Y-220155500D02*
X262434500Y-217615500D01*
X262434500Y-217615500D02*
X264974500Y-217615500D01*
X268860338Y-220809460D02*
G75*
G02*
X271324500Y-218885500I2464162J-616040D01*
G01*
X264974500Y-216980500D02*
G75*
G02*
X267514500Y-214440500I2540000J0D01*
G01*
%TO.C,K59*%
X322124500Y-220790500D02*
X325934500Y-220790500D01*
X322124500Y-220790500D02*
X322124500Y-216980500D01*
X324664500Y-214440500D02*
X333554500Y-214440500D01*
X333554500Y-214440500D02*
X333554500Y-218885500D01*
X333554500Y-218885500D02*
X328474500Y-218885500D01*
X333554500Y-215075500D02*
X336094500Y-215075500D01*
X336094500Y-215075500D02*
X336094500Y-217615500D01*
X336094500Y-217615500D02*
X333554500Y-217615500D01*
X322124500Y-220155500D02*
X319584500Y-220155500D01*
X319584500Y-220155500D02*
X319584500Y-217615500D01*
X319584500Y-217615500D02*
X322124500Y-217615500D01*
X326010338Y-220809460D02*
G75*
G02*
X328474500Y-218885500I2464162J-616040D01*
G01*
X322124500Y-216980500D02*
G75*
G02*
X324664500Y-214440500I2540000J0D01*
G01*
%TO.C,K11*%
X150674500Y-163640500D02*
X154484500Y-163640500D01*
X150674500Y-163640500D02*
X150674500Y-159830500D01*
X153214500Y-157290500D02*
X162104500Y-157290500D01*
X162104500Y-157290500D02*
X162104500Y-161735500D01*
X162104500Y-161735500D02*
X157024500Y-161735500D01*
X162104500Y-157925500D02*
X164644500Y-157925500D01*
X164644500Y-157925500D02*
X164644500Y-160465500D01*
X164644500Y-160465500D02*
X162104500Y-160465500D01*
X150674500Y-163005500D02*
X148134500Y-163005500D01*
X148134500Y-163005500D02*
X148134500Y-160465500D01*
X148134500Y-160465500D02*
X150674500Y-160465500D01*
X154560338Y-163659460D02*
G75*
G02*
X157024500Y-161735500I2464162J-616040D01*
G01*
X150674500Y-159830500D02*
G75*
G02*
X153214500Y-157290500I2540000J0D01*
G01*
%TO.C,K13*%
X150674500Y-201740500D02*
X154484500Y-201740500D01*
X150674500Y-201740500D02*
X150674500Y-197930500D01*
X153214500Y-195390500D02*
X162104500Y-195390500D01*
X162104500Y-195390500D02*
X162104500Y-199835500D01*
X162104500Y-199835500D02*
X157024500Y-199835500D01*
X162104500Y-196025500D02*
X164644500Y-196025500D01*
X164644500Y-196025500D02*
X164644500Y-198565500D01*
X164644500Y-198565500D02*
X162104500Y-198565500D01*
X150674500Y-201105500D02*
X148134500Y-201105500D01*
X148134500Y-201105500D02*
X148134500Y-198565500D01*
X148134500Y-198565500D02*
X150674500Y-198565500D01*
X154560338Y-201759460D02*
G75*
G02*
X157024500Y-199835500I2464162J-616040D01*
G01*
X150674500Y-197930500D02*
G75*
G02*
X153214500Y-195390500I2540000J0D01*
G01*
%TO.C,K38*%
X245924500Y-201740500D02*
X249734500Y-201740500D01*
X245924500Y-201740500D02*
X245924500Y-197930500D01*
X248464500Y-195390500D02*
X257354500Y-195390500D01*
X257354500Y-195390500D02*
X257354500Y-199835500D01*
X257354500Y-199835500D02*
X252274500Y-199835500D01*
X257354500Y-196025500D02*
X259894500Y-196025500D01*
X259894500Y-196025500D02*
X259894500Y-198565500D01*
X259894500Y-198565500D02*
X257354500Y-198565500D01*
X245924500Y-201105500D02*
X243384500Y-201105500D01*
X243384500Y-201105500D02*
X243384500Y-198565500D01*
X243384500Y-198565500D02*
X245924500Y-198565500D01*
X249810338Y-201759460D02*
G75*
G02*
X252274500Y-199835500I2464162J-616040D01*
G01*
X245924500Y-197930500D02*
G75*
G02*
X248464500Y-195390500I2540000J0D01*
G01*
%TO.C,K49*%
X284024500Y-220790500D02*
X287834500Y-220790500D01*
X284024500Y-220790500D02*
X284024500Y-216980500D01*
X286564500Y-214440500D02*
X295454500Y-214440500D01*
X295454500Y-214440500D02*
X295454500Y-218885500D01*
X295454500Y-218885500D02*
X290374500Y-218885500D01*
X295454500Y-215075500D02*
X297994500Y-215075500D01*
X297994500Y-215075500D02*
X297994500Y-217615500D01*
X297994500Y-217615500D02*
X295454500Y-217615500D01*
X284024500Y-220155500D02*
X281484500Y-220155500D01*
X281484500Y-220155500D02*
X281484500Y-217615500D01*
X281484500Y-217615500D02*
X284024500Y-217615500D01*
X287910338Y-220809460D02*
G75*
G02*
X290374500Y-218885500I2464162J-616040D01*
G01*
X284024500Y-216980500D02*
G75*
G02*
X286564500Y-214440500I2540000J0D01*
G01*
%TO.C,K50*%
X284024500Y-239840500D02*
X287834500Y-239840500D01*
X284024500Y-239840500D02*
X284024500Y-236030500D01*
X286564500Y-233490500D02*
X295454500Y-233490500D01*
X295454500Y-233490500D02*
X295454500Y-237935500D01*
X295454500Y-237935500D02*
X290374500Y-237935500D01*
X295454500Y-234125500D02*
X297994500Y-234125500D01*
X297994500Y-234125500D02*
X297994500Y-236665500D01*
X297994500Y-236665500D02*
X295454500Y-236665500D01*
X284024500Y-239205500D02*
X281484500Y-239205500D01*
X281484500Y-239205500D02*
X281484500Y-236665500D01*
X281484500Y-236665500D02*
X284024500Y-236665500D01*
X287910338Y-239859460D02*
G75*
G02*
X290374500Y-237935500I2464162J-616040D01*
G01*
X284024500Y-236030500D02*
G75*
G02*
X286564500Y-233490500I2540000J0D01*
G01*
%TO.C,K40*%
X245924500Y-239840500D02*
X249734500Y-239840500D01*
X245924500Y-239840500D02*
X245924500Y-236030500D01*
X248464500Y-233490500D02*
X257354500Y-233490500D01*
X257354500Y-233490500D02*
X257354500Y-237935500D01*
X257354500Y-237935500D02*
X252274500Y-237935500D01*
X257354500Y-234125500D02*
X259894500Y-234125500D01*
X259894500Y-234125500D02*
X259894500Y-236665500D01*
X259894500Y-236665500D02*
X257354500Y-236665500D01*
X245924500Y-239205500D02*
X243384500Y-239205500D01*
X243384500Y-239205500D02*
X243384500Y-236665500D01*
X243384500Y-236665500D02*
X245924500Y-236665500D01*
X249810338Y-239859460D02*
G75*
G02*
X252274500Y-237935500I2464162J-616040D01*
G01*
X245924500Y-236030500D02*
G75*
G02*
X248464500Y-233490500I2540000J0D01*
G01*
%TO.C,K29*%
X207824500Y-220790500D02*
X211634500Y-220790500D01*
X207824500Y-220790500D02*
X207824500Y-216980500D01*
X210364500Y-214440500D02*
X219254500Y-214440500D01*
X219254500Y-214440500D02*
X219254500Y-218885500D01*
X219254500Y-218885500D02*
X214174500Y-218885500D01*
X219254500Y-215075500D02*
X221794500Y-215075500D01*
X221794500Y-215075500D02*
X221794500Y-217615500D01*
X221794500Y-217615500D02*
X219254500Y-217615500D01*
X207824500Y-220155500D02*
X205284500Y-220155500D01*
X205284500Y-220155500D02*
X205284500Y-217615500D01*
X205284500Y-217615500D02*
X207824500Y-217615500D01*
X211710338Y-220809460D02*
G75*
G02*
X214174500Y-218885500I2464162J-616040D01*
G01*
X207824500Y-216980500D02*
G75*
G02*
X210364500Y-214440500I2540000J0D01*
G01*
%TO.C,K21*%
X188774500Y-163640500D02*
X192584500Y-163640500D01*
X188774500Y-163640500D02*
X188774500Y-159830500D01*
X191314500Y-157290500D02*
X200204500Y-157290500D01*
X200204500Y-157290500D02*
X200204500Y-161735500D01*
X200204500Y-161735500D02*
X195124500Y-161735500D01*
X200204500Y-157925500D02*
X202744500Y-157925500D01*
X202744500Y-157925500D02*
X202744500Y-160465500D01*
X202744500Y-160465500D02*
X200204500Y-160465500D01*
X188774500Y-163005500D02*
X186234500Y-163005500D01*
X186234500Y-163005500D02*
X186234500Y-160465500D01*
X186234500Y-160465500D02*
X188774500Y-160465500D01*
X192660338Y-163659460D02*
G75*
G02*
X195124500Y-161735500I2464162J-616040D01*
G01*
X188774500Y-159830500D02*
G75*
G02*
X191314500Y-157290500I2540000J0D01*
G01*
%TO.C,K5*%
X112574500Y-239840500D02*
X116384500Y-239840500D01*
X112574500Y-239840500D02*
X112574500Y-236030500D01*
X115114500Y-233490500D02*
X124004500Y-233490500D01*
X124004500Y-233490500D02*
X124004500Y-237935500D01*
X124004500Y-237935500D02*
X118924500Y-237935500D01*
X124004500Y-234125500D02*
X126544500Y-234125500D01*
X126544500Y-234125500D02*
X126544500Y-236665500D01*
X126544500Y-236665500D02*
X124004500Y-236665500D01*
X112574500Y-239205500D02*
X110034500Y-239205500D01*
X110034500Y-239205500D02*
X110034500Y-236665500D01*
X110034500Y-236665500D02*
X112574500Y-236665500D01*
X116460338Y-239859460D02*
G75*
G02*
X118924500Y-237935500I2464162J-616040D01*
G01*
X112574500Y-236030500D02*
G75*
G02*
X115114500Y-233490500I2540000J0D01*
G01*
%TO.C,K4*%
X112574500Y-220790500D02*
X116384500Y-220790500D01*
X112574500Y-220790500D02*
X112574500Y-216980500D01*
X115114500Y-214440500D02*
X124004500Y-214440500D01*
X124004500Y-214440500D02*
X124004500Y-218885500D01*
X124004500Y-218885500D02*
X118924500Y-218885500D01*
X124004500Y-215075500D02*
X126544500Y-215075500D01*
X126544500Y-215075500D02*
X126544500Y-217615500D01*
X126544500Y-217615500D02*
X124004500Y-217615500D01*
X112574500Y-220155500D02*
X110034500Y-220155500D01*
X110034500Y-220155500D02*
X110034500Y-217615500D01*
X110034500Y-217615500D02*
X112574500Y-217615500D01*
X116460338Y-220809460D02*
G75*
G02*
X118924500Y-218885500I2464162J-616040D01*
G01*
X112574500Y-216980500D02*
G75*
G02*
X115114500Y-214440500I2540000J0D01*
G01*
%TO.C,K8*%
X131624500Y-201740500D02*
X135434500Y-201740500D01*
X131624500Y-201740500D02*
X131624500Y-197930500D01*
X134164500Y-195390500D02*
X143054500Y-195390500D01*
X143054500Y-195390500D02*
X143054500Y-199835500D01*
X143054500Y-199835500D02*
X137974500Y-199835500D01*
X143054500Y-196025500D02*
X145594500Y-196025500D01*
X145594500Y-196025500D02*
X145594500Y-198565500D01*
X145594500Y-198565500D02*
X143054500Y-198565500D01*
X131624500Y-201105500D02*
X129084500Y-201105500D01*
X129084500Y-201105500D02*
X129084500Y-198565500D01*
X129084500Y-198565500D02*
X131624500Y-198565500D01*
X135510338Y-201759460D02*
G75*
G02*
X137974500Y-199835500I2464162J-616040D01*
G01*
X131624500Y-197930500D02*
G75*
G02*
X134164500Y-195390500I2540000J0D01*
G01*
%TO.C,K35*%
X226874500Y-239840500D02*
X230684500Y-239840500D01*
X226874500Y-239840500D02*
X226874500Y-236030500D01*
X229414500Y-233490500D02*
X238304500Y-233490500D01*
X238304500Y-233490500D02*
X238304500Y-237935500D01*
X238304500Y-237935500D02*
X233224500Y-237935500D01*
X238304500Y-234125500D02*
X240844500Y-234125500D01*
X240844500Y-234125500D02*
X240844500Y-236665500D01*
X240844500Y-236665500D02*
X238304500Y-236665500D01*
X226874500Y-239205500D02*
X224334500Y-239205500D01*
X224334500Y-239205500D02*
X224334500Y-236665500D01*
X224334500Y-236665500D02*
X226874500Y-236665500D01*
X230760338Y-239859460D02*
G75*
G02*
X233224500Y-237935500I2464162J-616040D01*
G01*
X226874500Y-236030500D02*
G75*
G02*
X229414500Y-233490500I2540000J0D01*
G01*
%TO.C,K52*%
X303074500Y-182690500D02*
X306884500Y-182690500D01*
X303074500Y-182690500D02*
X303074500Y-178880500D01*
X305614500Y-176340500D02*
X314504500Y-176340500D01*
X314504500Y-176340500D02*
X314504500Y-180785500D01*
X314504500Y-180785500D02*
X309424500Y-180785500D01*
X314504500Y-176975500D02*
X317044500Y-176975500D01*
X317044500Y-176975500D02*
X317044500Y-179515500D01*
X317044500Y-179515500D02*
X314504500Y-179515500D01*
X303074500Y-182055500D02*
X300534500Y-182055500D01*
X300534500Y-182055500D02*
X300534500Y-179515500D01*
X300534500Y-179515500D02*
X303074500Y-179515500D01*
X306960338Y-182709460D02*
G75*
G02*
X309424500Y-180785500I2464162J-616040D01*
G01*
X303074500Y-178880500D02*
G75*
G02*
X305614500Y-176340500I2540000J0D01*
G01*
%TO.C,K60*%
X322124500Y-239840500D02*
X325934500Y-239840500D01*
X322124500Y-239840500D02*
X322124500Y-236030500D01*
X324664500Y-233490500D02*
X333554500Y-233490500D01*
X333554500Y-233490500D02*
X333554500Y-237935500D01*
X333554500Y-237935500D02*
X328474500Y-237935500D01*
X333554500Y-234125500D02*
X336094500Y-234125500D01*
X336094500Y-234125500D02*
X336094500Y-236665500D01*
X336094500Y-236665500D02*
X333554500Y-236665500D01*
X322124500Y-239205500D02*
X319584500Y-239205500D01*
X319584500Y-239205500D02*
X319584500Y-236665500D01*
X319584500Y-236665500D02*
X322124500Y-236665500D01*
X326010338Y-239859460D02*
G75*
G02*
X328474500Y-237935500I2464162J-616040D01*
G01*
X322124500Y-236030500D02*
G75*
G02*
X324664500Y-233490500I2540000J0D01*
G01*
%TO.C,K55*%
X303074500Y-239840500D02*
X306884500Y-239840500D01*
X303074500Y-239840500D02*
X303074500Y-236030500D01*
X305614500Y-233490500D02*
X314504500Y-233490500D01*
X314504500Y-233490500D02*
X314504500Y-237935500D01*
X314504500Y-237935500D02*
X309424500Y-237935500D01*
X314504500Y-234125500D02*
X317044500Y-234125500D01*
X317044500Y-234125500D02*
X317044500Y-236665500D01*
X317044500Y-236665500D02*
X314504500Y-236665500D01*
X303074500Y-239205500D02*
X300534500Y-239205500D01*
X300534500Y-239205500D02*
X300534500Y-236665500D01*
X300534500Y-236665500D02*
X303074500Y-236665500D01*
X306960338Y-239859460D02*
G75*
G02*
X309424500Y-237935500I2464162J-616040D01*
G01*
X303074500Y-236030500D02*
G75*
G02*
X305614500Y-233490500I2540000J0D01*
G01*
%TO.C,K12*%
X150674500Y-182690500D02*
X154484500Y-182690500D01*
X150674500Y-182690500D02*
X150674500Y-178880500D01*
X153214500Y-176340500D02*
X162104500Y-176340500D01*
X162104500Y-176340500D02*
X162104500Y-180785500D01*
X162104500Y-180785500D02*
X157024500Y-180785500D01*
X162104500Y-176975500D02*
X164644500Y-176975500D01*
X164644500Y-176975500D02*
X164644500Y-179515500D01*
X164644500Y-179515500D02*
X162104500Y-179515500D01*
X150674500Y-182055500D02*
X148134500Y-182055500D01*
X148134500Y-182055500D02*
X148134500Y-179515500D01*
X148134500Y-179515500D02*
X150674500Y-179515500D01*
X154560338Y-182709460D02*
G75*
G02*
X157024500Y-180785500I2464162J-616040D01*
G01*
X150674500Y-178880500D02*
G75*
G02*
X153214500Y-176340500I2540000J0D01*
G01*
%TO.C,K1*%
X112574500Y-163640500D02*
X116384500Y-163640500D01*
X112574500Y-163640500D02*
X112574500Y-159830500D01*
X115114500Y-157290500D02*
X124004500Y-157290500D01*
X124004500Y-157290500D02*
X124004500Y-161735500D01*
X124004500Y-161735500D02*
X118924500Y-161735500D01*
X124004500Y-157925500D02*
X126544500Y-157925500D01*
X126544500Y-157925500D02*
X126544500Y-160465500D01*
X126544500Y-160465500D02*
X124004500Y-160465500D01*
X112574500Y-163005500D02*
X110034500Y-163005500D01*
X110034500Y-163005500D02*
X110034500Y-160465500D01*
X110034500Y-160465500D02*
X112574500Y-160465500D01*
X116460338Y-163659460D02*
G75*
G02*
X118924500Y-161735500I2464162J-616040D01*
G01*
X112574500Y-159830500D02*
G75*
G02*
X115114500Y-157290500I2540000J0D01*
G01*
%TO.C,K14*%
X150674500Y-220790500D02*
X154484500Y-220790500D01*
X150674500Y-220790500D02*
X150674500Y-216980500D01*
X153214500Y-214440500D02*
X162104500Y-214440500D01*
X162104500Y-214440500D02*
X162104500Y-218885500D01*
X162104500Y-218885500D02*
X157024500Y-218885500D01*
X162104500Y-215075500D02*
X164644500Y-215075500D01*
X164644500Y-215075500D02*
X164644500Y-217615500D01*
X164644500Y-217615500D02*
X162104500Y-217615500D01*
X150674500Y-220155500D02*
X148134500Y-220155500D01*
X148134500Y-220155500D02*
X148134500Y-217615500D01*
X148134500Y-217615500D02*
X150674500Y-217615500D01*
X154560338Y-220809460D02*
G75*
G02*
X157024500Y-218885500I2464162J-616040D01*
G01*
X150674500Y-216980500D02*
G75*
G02*
X153214500Y-214440500I2540000J0D01*
G01*
%TO.C,K47*%
X284024500Y-182690500D02*
X287834500Y-182690500D01*
X284024500Y-182690500D02*
X284024500Y-178880500D01*
X286564500Y-176340500D02*
X295454500Y-176340500D01*
X295454500Y-176340500D02*
X295454500Y-180785500D01*
X295454500Y-180785500D02*
X290374500Y-180785500D01*
X295454500Y-176975500D02*
X297994500Y-176975500D01*
X297994500Y-176975500D02*
X297994500Y-179515500D01*
X297994500Y-179515500D02*
X295454500Y-179515500D01*
X284024500Y-182055500D02*
X281484500Y-182055500D01*
X281484500Y-182055500D02*
X281484500Y-179515500D01*
X281484500Y-179515500D02*
X284024500Y-179515500D01*
X287910338Y-182709460D02*
G75*
G02*
X290374500Y-180785500I2464162J-616040D01*
G01*
X284024500Y-178880500D02*
G75*
G02*
X286564500Y-176340500I2540000J0D01*
G01*
%TO.C,K46*%
X284024500Y-163640500D02*
X287834500Y-163640500D01*
X284024500Y-163640500D02*
X284024500Y-159830500D01*
X286564500Y-157290500D02*
X295454500Y-157290500D01*
X295454500Y-157290500D02*
X295454500Y-161735500D01*
X295454500Y-161735500D02*
X290374500Y-161735500D01*
X295454500Y-157925500D02*
X297994500Y-157925500D01*
X297994500Y-157925500D02*
X297994500Y-160465500D01*
X297994500Y-160465500D02*
X295454500Y-160465500D01*
X284024500Y-163005500D02*
X281484500Y-163005500D01*
X281484500Y-163005500D02*
X281484500Y-160465500D01*
X281484500Y-160465500D02*
X284024500Y-160465500D01*
X287910338Y-163659460D02*
G75*
G02*
X290374500Y-161735500I2464162J-616040D01*
G01*
X284024500Y-159830500D02*
G75*
G02*
X286564500Y-157290500I2540000J0D01*
G01*
%TO.C,K9*%
X131624500Y-220790500D02*
X135434500Y-220790500D01*
X131624500Y-220790500D02*
X131624500Y-216980500D01*
X134164500Y-214440500D02*
X143054500Y-214440500D01*
X143054500Y-214440500D02*
X143054500Y-218885500D01*
X143054500Y-218885500D02*
X137974500Y-218885500D01*
X143054500Y-215075500D02*
X145594500Y-215075500D01*
X145594500Y-215075500D02*
X145594500Y-217615500D01*
X145594500Y-217615500D02*
X143054500Y-217615500D01*
X131624500Y-220155500D02*
X129084500Y-220155500D01*
X129084500Y-220155500D02*
X129084500Y-217615500D01*
X129084500Y-217615500D02*
X131624500Y-217615500D01*
X135510338Y-220809460D02*
G75*
G02*
X137974500Y-218885500I2464162J-616040D01*
G01*
X131624500Y-216980500D02*
G75*
G02*
X134164500Y-214440500I2540000J0D01*
G01*
%TO.C,K15*%
X150674500Y-239840500D02*
X154484500Y-239840500D01*
X150674500Y-239840500D02*
X150674500Y-236030500D01*
X153214500Y-233490500D02*
X162104500Y-233490500D01*
X162104500Y-233490500D02*
X162104500Y-237935500D01*
X162104500Y-237935500D02*
X157024500Y-237935500D01*
X162104500Y-234125500D02*
X164644500Y-234125500D01*
X164644500Y-234125500D02*
X164644500Y-236665500D01*
X164644500Y-236665500D02*
X162104500Y-236665500D01*
X150674500Y-239205500D02*
X148134500Y-239205500D01*
X148134500Y-239205500D02*
X148134500Y-236665500D01*
X148134500Y-236665500D02*
X150674500Y-236665500D01*
X154560338Y-239859460D02*
G75*
G02*
X157024500Y-237935500I2464162J-616040D01*
G01*
X150674500Y-236030500D02*
G75*
G02*
X153214500Y-233490500I2540000J0D01*
G01*
%TO.C,K2*%
X112574500Y-182690500D02*
X116384500Y-182690500D01*
X112574500Y-182690500D02*
X112574500Y-178880500D01*
X115114500Y-176340500D02*
X124004500Y-176340500D01*
X124004500Y-176340500D02*
X124004500Y-180785500D01*
X124004500Y-180785500D02*
X118924500Y-180785500D01*
X124004500Y-176975500D02*
X126544500Y-176975500D01*
X126544500Y-176975500D02*
X126544500Y-179515500D01*
X126544500Y-179515500D02*
X124004500Y-179515500D01*
X112574500Y-182055500D02*
X110034500Y-182055500D01*
X110034500Y-182055500D02*
X110034500Y-179515500D01*
X110034500Y-179515500D02*
X112574500Y-179515500D01*
X116460338Y-182709460D02*
G75*
G02*
X118924500Y-180785500I2464162J-616040D01*
G01*
X112574500Y-178880500D02*
G75*
G02*
X115114500Y-176340500I2540000J0D01*
G01*
%TD*%
%TO.C,K32*%
D11*
X234779976Y-184412880D02*
X234779976Y-183412880D01*
X234208547Y-184412880D02*
X234637119Y-183841452D01*
X234208547Y-183412880D02*
X234779976Y-183984309D01*
X233779976Y-183889071D02*
X233446642Y-183889071D01*
X233303785Y-184412880D02*
X233779976Y-184412880D01*
X233779976Y-183412880D01*
X233303785Y-183412880D01*
X232684738Y-183936690D02*
X232684738Y-184412880D01*
X233018071Y-183412880D02*
X232684738Y-183936690D01*
X232351404Y-183412880D01*
X232065690Y-184365261D02*
X231922833Y-184412880D01*
X231684738Y-184412880D01*
X231589500Y-184365261D01*
X231541880Y-184317642D01*
X231494261Y-184222404D01*
X231494261Y-184127166D01*
X231541880Y-184031928D01*
X231589500Y-183984309D01*
X231684738Y-183936690D01*
X231875214Y-183889071D01*
X231970452Y-183841452D01*
X232018071Y-183793833D01*
X232065690Y-183698595D01*
X232065690Y-183603357D01*
X232018071Y-183508119D01*
X231970452Y-183460500D01*
X231875214Y-183412880D01*
X231637119Y-183412880D01*
X231494261Y-183460500D01*
X231160928Y-183412880D02*
X230922833Y-184412880D01*
X230732357Y-183698595D01*
X230541880Y-184412880D01*
X230303785Y-183412880D01*
X233803785Y-179332880D02*
X233803785Y-178332880D01*
X233232357Y-179332880D02*
X233660928Y-178761452D01*
X233232357Y-178332880D02*
X233803785Y-178904309D01*
X232899023Y-178332880D02*
X232279976Y-178332880D01*
X232613309Y-178713833D01*
X232470452Y-178713833D01*
X232375214Y-178761452D01*
X232327595Y-178809071D01*
X232279976Y-178904309D01*
X232279976Y-179142404D01*
X232327595Y-179237642D01*
X232375214Y-179285261D01*
X232470452Y-179332880D01*
X232756166Y-179332880D01*
X232851404Y-179285261D01*
X232899023Y-179237642D01*
X231899023Y-178428119D02*
X231851404Y-178380500D01*
X231756166Y-178332880D01*
X231518071Y-178332880D01*
X231422833Y-178380500D01*
X231375214Y-178428119D01*
X231327595Y-178523357D01*
X231327595Y-178618595D01*
X231375214Y-178761452D01*
X231946642Y-179332880D01*
X231327595Y-179332880D01*
%TO.C,K33*%
X234779976Y-203462880D02*
X234779976Y-202462880D01*
X234208547Y-203462880D02*
X234637119Y-202891452D01*
X234208547Y-202462880D02*
X234779976Y-203034309D01*
X233779976Y-202939071D02*
X233446642Y-202939071D01*
X233303785Y-203462880D02*
X233779976Y-203462880D01*
X233779976Y-202462880D01*
X233303785Y-202462880D01*
X232684738Y-202986690D02*
X232684738Y-203462880D01*
X233018071Y-202462880D02*
X232684738Y-202986690D01*
X232351404Y-202462880D01*
X232065690Y-203415261D02*
X231922833Y-203462880D01*
X231684738Y-203462880D01*
X231589500Y-203415261D01*
X231541880Y-203367642D01*
X231494261Y-203272404D01*
X231494261Y-203177166D01*
X231541880Y-203081928D01*
X231589500Y-203034309D01*
X231684738Y-202986690D01*
X231875214Y-202939071D01*
X231970452Y-202891452D01*
X232018071Y-202843833D01*
X232065690Y-202748595D01*
X232065690Y-202653357D01*
X232018071Y-202558119D01*
X231970452Y-202510500D01*
X231875214Y-202462880D01*
X231637119Y-202462880D01*
X231494261Y-202510500D01*
X231160928Y-202462880D02*
X230922833Y-203462880D01*
X230732357Y-202748595D01*
X230541880Y-203462880D01*
X230303785Y-202462880D01*
X233803785Y-198382880D02*
X233803785Y-197382880D01*
X233232357Y-198382880D02*
X233660928Y-197811452D01*
X233232357Y-197382880D02*
X233803785Y-197954309D01*
X232899023Y-197382880D02*
X232279976Y-197382880D01*
X232613309Y-197763833D01*
X232470452Y-197763833D01*
X232375214Y-197811452D01*
X232327595Y-197859071D01*
X232279976Y-197954309D01*
X232279976Y-198192404D01*
X232327595Y-198287642D01*
X232375214Y-198335261D01*
X232470452Y-198382880D01*
X232756166Y-198382880D01*
X232851404Y-198335261D01*
X232899023Y-198287642D01*
X231946642Y-197382880D02*
X231327595Y-197382880D01*
X231660928Y-197763833D01*
X231518071Y-197763833D01*
X231422833Y-197811452D01*
X231375214Y-197859071D01*
X231327595Y-197954309D01*
X231327595Y-198192404D01*
X231375214Y-198287642D01*
X231422833Y-198335261D01*
X231518071Y-198382880D01*
X231803785Y-198382880D01*
X231899023Y-198335261D01*
X231946642Y-198287642D01*
%TO.C,K42*%
X272879976Y-184412880D02*
X272879976Y-183412880D01*
X272308547Y-184412880D02*
X272737119Y-183841452D01*
X272308547Y-183412880D02*
X272879976Y-183984309D01*
X271879976Y-183889071D02*
X271546642Y-183889071D01*
X271403785Y-184412880D02*
X271879976Y-184412880D01*
X271879976Y-183412880D01*
X271403785Y-183412880D01*
X270784738Y-183936690D02*
X270784738Y-184412880D01*
X271118071Y-183412880D02*
X270784738Y-183936690D01*
X270451404Y-183412880D01*
X270165690Y-184365261D02*
X270022833Y-184412880D01*
X269784738Y-184412880D01*
X269689500Y-184365261D01*
X269641880Y-184317642D01*
X269594261Y-184222404D01*
X269594261Y-184127166D01*
X269641880Y-184031928D01*
X269689500Y-183984309D01*
X269784738Y-183936690D01*
X269975214Y-183889071D01*
X270070452Y-183841452D01*
X270118071Y-183793833D01*
X270165690Y-183698595D01*
X270165690Y-183603357D01*
X270118071Y-183508119D01*
X270070452Y-183460500D01*
X269975214Y-183412880D01*
X269737119Y-183412880D01*
X269594261Y-183460500D01*
X269260928Y-183412880D02*
X269022833Y-184412880D01*
X268832357Y-183698595D01*
X268641880Y-184412880D01*
X268403785Y-183412880D01*
X271903785Y-179332880D02*
X271903785Y-178332880D01*
X271332357Y-179332880D02*
X271760928Y-178761452D01*
X271332357Y-178332880D02*
X271903785Y-178904309D01*
X270475214Y-178666214D02*
X270475214Y-179332880D01*
X270713309Y-178285261D02*
X270951404Y-178999547D01*
X270332357Y-178999547D01*
X269999023Y-178428119D02*
X269951404Y-178380500D01*
X269856166Y-178332880D01*
X269618071Y-178332880D01*
X269522833Y-178380500D01*
X269475214Y-178428119D01*
X269427595Y-178523357D01*
X269427595Y-178618595D01*
X269475214Y-178761452D01*
X270046642Y-179332880D01*
X269427595Y-179332880D01*
%TO.C,K31*%
X234779976Y-165362880D02*
X234779976Y-164362880D01*
X234208547Y-165362880D02*
X234637119Y-164791452D01*
X234208547Y-164362880D02*
X234779976Y-164934309D01*
X233779976Y-164839071D02*
X233446642Y-164839071D01*
X233303785Y-165362880D02*
X233779976Y-165362880D01*
X233779976Y-164362880D01*
X233303785Y-164362880D01*
X232684738Y-164886690D02*
X232684738Y-165362880D01*
X233018071Y-164362880D02*
X232684738Y-164886690D01*
X232351404Y-164362880D01*
X232065690Y-165315261D02*
X231922833Y-165362880D01*
X231684738Y-165362880D01*
X231589500Y-165315261D01*
X231541880Y-165267642D01*
X231494261Y-165172404D01*
X231494261Y-165077166D01*
X231541880Y-164981928D01*
X231589500Y-164934309D01*
X231684738Y-164886690D01*
X231875214Y-164839071D01*
X231970452Y-164791452D01*
X232018071Y-164743833D01*
X232065690Y-164648595D01*
X232065690Y-164553357D01*
X232018071Y-164458119D01*
X231970452Y-164410500D01*
X231875214Y-164362880D01*
X231637119Y-164362880D01*
X231494261Y-164410500D01*
X231160928Y-164362880D02*
X230922833Y-165362880D01*
X230732357Y-164648595D01*
X230541880Y-165362880D01*
X230303785Y-164362880D01*
X233803785Y-160282880D02*
X233803785Y-159282880D01*
X233232357Y-160282880D02*
X233660928Y-159711452D01*
X233232357Y-159282880D02*
X233803785Y-159854309D01*
X232899023Y-159282880D02*
X232279976Y-159282880D01*
X232613309Y-159663833D01*
X232470452Y-159663833D01*
X232375214Y-159711452D01*
X232327595Y-159759071D01*
X232279976Y-159854309D01*
X232279976Y-160092404D01*
X232327595Y-160187642D01*
X232375214Y-160235261D01*
X232470452Y-160282880D01*
X232756166Y-160282880D01*
X232851404Y-160235261D01*
X232899023Y-160187642D01*
X231327595Y-160282880D02*
X231899023Y-160282880D01*
X231613309Y-160282880D02*
X231613309Y-159282880D01*
X231708547Y-159425738D01*
X231803785Y-159520976D01*
X231899023Y-159568595D01*
%TO.C,K24*%
X196679976Y-222512880D02*
X196679976Y-221512880D01*
X196108547Y-222512880D02*
X196537119Y-221941452D01*
X196108547Y-221512880D02*
X196679976Y-222084309D01*
X195679976Y-221989071D02*
X195346642Y-221989071D01*
X195203785Y-222512880D02*
X195679976Y-222512880D01*
X195679976Y-221512880D01*
X195203785Y-221512880D01*
X194584738Y-222036690D02*
X194584738Y-222512880D01*
X194918071Y-221512880D02*
X194584738Y-222036690D01*
X194251404Y-221512880D01*
X193965690Y-222465261D02*
X193822833Y-222512880D01*
X193584738Y-222512880D01*
X193489500Y-222465261D01*
X193441880Y-222417642D01*
X193394261Y-222322404D01*
X193394261Y-222227166D01*
X193441880Y-222131928D01*
X193489500Y-222084309D01*
X193584738Y-222036690D01*
X193775214Y-221989071D01*
X193870452Y-221941452D01*
X193918071Y-221893833D01*
X193965690Y-221798595D01*
X193965690Y-221703357D01*
X193918071Y-221608119D01*
X193870452Y-221560500D01*
X193775214Y-221512880D01*
X193537119Y-221512880D01*
X193394261Y-221560500D01*
X193060928Y-221512880D02*
X192822833Y-222512880D01*
X192632357Y-221798595D01*
X192441880Y-222512880D01*
X192203785Y-221512880D01*
X195703785Y-217432880D02*
X195703785Y-216432880D01*
X195132357Y-217432880D02*
X195560928Y-216861452D01*
X195132357Y-216432880D02*
X195703785Y-217004309D01*
X194751404Y-216528119D02*
X194703785Y-216480500D01*
X194608547Y-216432880D01*
X194370452Y-216432880D01*
X194275214Y-216480500D01*
X194227595Y-216528119D01*
X194179976Y-216623357D01*
X194179976Y-216718595D01*
X194227595Y-216861452D01*
X194799023Y-217432880D01*
X194179976Y-217432880D01*
X193322833Y-216766214D02*
X193322833Y-217432880D01*
X193560928Y-216385261D02*
X193799023Y-217099547D01*
X193179976Y-217099547D01*
%TO.C,K41*%
X272879976Y-165362880D02*
X272879976Y-164362880D01*
X272308547Y-165362880D02*
X272737119Y-164791452D01*
X272308547Y-164362880D02*
X272879976Y-164934309D01*
X271879976Y-164839071D02*
X271546642Y-164839071D01*
X271403785Y-165362880D02*
X271879976Y-165362880D01*
X271879976Y-164362880D01*
X271403785Y-164362880D01*
X270784738Y-164886690D02*
X270784738Y-165362880D01*
X271118071Y-164362880D02*
X270784738Y-164886690D01*
X270451404Y-164362880D01*
X270165690Y-165315261D02*
X270022833Y-165362880D01*
X269784738Y-165362880D01*
X269689500Y-165315261D01*
X269641880Y-165267642D01*
X269594261Y-165172404D01*
X269594261Y-165077166D01*
X269641880Y-164981928D01*
X269689500Y-164934309D01*
X269784738Y-164886690D01*
X269975214Y-164839071D01*
X270070452Y-164791452D01*
X270118071Y-164743833D01*
X270165690Y-164648595D01*
X270165690Y-164553357D01*
X270118071Y-164458119D01*
X270070452Y-164410500D01*
X269975214Y-164362880D01*
X269737119Y-164362880D01*
X269594261Y-164410500D01*
X269260928Y-164362880D02*
X269022833Y-165362880D01*
X268832357Y-164648595D01*
X268641880Y-165362880D01*
X268403785Y-164362880D01*
X271903785Y-160282880D02*
X271903785Y-159282880D01*
X271332357Y-160282880D02*
X271760928Y-159711452D01*
X271332357Y-159282880D02*
X271903785Y-159854309D01*
X270475214Y-159616214D02*
X270475214Y-160282880D01*
X270713309Y-159235261D02*
X270951404Y-159949547D01*
X270332357Y-159949547D01*
X269427595Y-160282880D02*
X269999023Y-160282880D01*
X269713309Y-160282880D02*
X269713309Y-159282880D01*
X269808547Y-159425738D01*
X269903785Y-159520976D01*
X269999023Y-159568595D01*
%TO.C,K34*%
X234779976Y-222512880D02*
X234779976Y-221512880D01*
X234208547Y-222512880D02*
X234637119Y-221941452D01*
X234208547Y-221512880D02*
X234779976Y-222084309D01*
X233779976Y-221989071D02*
X233446642Y-221989071D01*
X233303785Y-222512880D02*
X233779976Y-222512880D01*
X233779976Y-221512880D01*
X233303785Y-221512880D01*
X232684738Y-222036690D02*
X232684738Y-222512880D01*
X233018071Y-221512880D02*
X232684738Y-222036690D01*
X232351404Y-221512880D01*
X232065690Y-222465261D02*
X231922833Y-222512880D01*
X231684738Y-222512880D01*
X231589500Y-222465261D01*
X231541880Y-222417642D01*
X231494261Y-222322404D01*
X231494261Y-222227166D01*
X231541880Y-222131928D01*
X231589500Y-222084309D01*
X231684738Y-222036690D01*
X231875214Y-221989071D01*
X231970452Y-221941452D01*
X232018071Y-221893833D01*
X232065690Y-221798595D01*
X232065690Y-221703357D01*
X232018071Y-221608119D01*
X231970452Y-221560500D01*
X231875214Y-221512880D01*
X231637119Y-221512880D01*
X231494261Y-221560500D01*
X231160928Y-221512880D02*
X230922833Y-222512880D01*
X230732357Y-221798595D01*
X230541880Y-222512880D01*
X230303785Y-221512880D01*
X233803785Y-217432880D02*
X233803785Y-216432880D01*
X233232357Y-217432880D02*
X233660928Y-216861452D01*
X233232357Y-216432880D02*
X233803785Y-217004309D01*
X232899023Y-216432880D02*
X232279976Y-216432880D01*
X232613309Y-216813833D01*
X232470452Y-216813833D01*
X232375214Y-216861452D01*
X232327595Y-216909071D01*
X232279976Y-217004309D01*
X232279976Y-217242404D01*
X232327595Y-217337642D01*
X232375214Y-217385261D01*
X232470452Y-217432880D01*
X232756166Y-217432880D01*
X232851404Y-217385261D01*
X232899023Y-217337642D01*
X231422833Y-216766214D02*
X231422833Y-217432880D01*
X231660928Y-216385261D02*
X231899023Y-217099547D01*
X231279976Y-217099547D01*
%TO.C,K23*%
X196679976Y-203462880D02*
X196679976Y-202462880D01*
X196108547Y-203462880D02*
X196537119Y-202891452D01*
X196108547Y-202462880D02*
X196679976Y-203034309D01*
X195679976Y-202939071D02*
X195346642Y-202939071D01*
X195203785Y-203462880D02*
X195679976Y-203462880D01*
X195679976Y-202462880D01*
X195203785Y-202462880D01*
X194584738Y-202986690D02*
X194584738Y-203462880D01*
X194918071Y-202462880D02*
X194584738Y-202986690D01*
X194251404Y-202462880D01*
X193965690Y-203415261D02*
X193822833Y-203462880D01*
X193584738Y-203462880D01*
X193489500Y-203415261D01*
X193441880Y-203367642D01*
X193394261Y-203272404D01*
X193394261Y-203177166D01*
X193441880Y-203081928D01*
X193489500Y-203034309D01*
X193584738Y-202986690D01*
X193775214Y-202939071D01*
X193870452Y-202891452D01*
X193918071Y-202843833D01*
X193965690Y-202748595D01*
X193965690Y-202653357D01*
X193918071Y-202558119D01*
X193870452Y-202510500D01*
X193775214Y-202462880D01*
X193537119Y-202462880D01*
X193394261Y-202510500D01*
X193060928Y-202462880D02*
X192822833Y-203462880D01*
X192632357Y-202748595D01*
X192441880Y-203462880D01*
X192203785Y-202462880D01*
X195703785Y-198382880D02*
X195703785Y-197382880D01*
X195132357Y-198382880D02*
X195560928Y-197811452D01*
X195132357Y-197382880D02*
X195703785Y-197954309D01*
X194751404Y-197478119D02*
X194703785Y-197430500D01*
X194608547Y-197382880D01*
X194370452Y-197382880D01*
X194275214Y-197430500D01*
X194227595Y-197478119D01*
X194179976Y-197573357D01*
X194179976Y-197668595D01*
X194227595Y-197811452D01*
X194799023Y-198382880D01*
X194179976Y-198382880D01*
X193846642Y-197382880D02*
X193227595Y-197382880D01*
X193560928Y-197763833D01*
X193418071Y-197763833D01*
X193322833Y-197811452D01*
X193275214Y-197859071D01*
X193227595Y-197954309D01*
X193227595Y-198192404D01*
X193275214Y-198287642D01*
X193322833Y-198335261D01*
X193418071Y-198382880D01*
X193703785Y-198382880D01*
X193799023Y-198335261D01*
X193846642Y-198287642D01*
%TO.C,K19*%
X177629976Y-222512880D02*
X177629976Y-221512880D01*
X177058547Y-222512880D02*
X177487119Y-221941452D01*
X177058547Y-221512880D02*
X177629976Y-222084309D01*
X176629976Y-221989071D02*
X176296642Y-221989071D01*
X176153785Y-222512880D02*
X176629976Y-222512880D01*
X176629976Y-221512880D01*
X176153785Y-221512880D01*
X175534738Y-222036690D02*
X175534738Y-222512880D01*
X175868071Y-221512880D02*
X175534738Y-222036690D01*
X175201404Y-221512880D01*
X174915690Y-222465261D02*
X174772833Y-222512880D01*
X174534738Y-222512880D01*
X174439500Y-222465261D01*
X174391880Y-222417642D01*
X174344261Y-222322404D01*
X174344261Y-222227166D01*
X174391880Y-222131928D01*
X174439500Y-222084309D01*
X174534738Y-222036690D01*
X174725214Y-221989071D01*
X174820452Y-221941452D01*
X174868071Y-221893833D01*
X174915690Y-221798595D01*
X174915690Y-221703357D01*
X174868071Y-221608119D01*
X174820452Y-221560500D01*
X174725214Y-221512880D01*
X174487119Y-221512880D01*
X174344261Y-221560500D01*
X174010928Y-221512880D02*
X173772833Y-222512880D01*
X173582357Y-221798595D01*
X173391880Y-222512880D01*
X173153785Y-221512880D01*
X176653785Y-217432880D02*
X176653785Y-216432880D01*
X176082357Y-217432880D02*
X176510928Y-216861452D01*
X176082357Y-216432880D02*
X176653785Y-217004309D01*
X175129976Y-217432880D02*
X175701404Y-217432880D01*
X175415690Y-217432880D02*
X175415690Y-216432880D01*
X175510928Y-216575738D01*
X175606166Y-216670976D01*
X175701404Y-216718595D01*
X174653785Y-217432880D02*
X174463309Y-217432880D01*
X174368071Y-217385261D01*
X174320452Y-217337642D01*
X174225214Y-217194785D01*
X174177595Y-217004309D01*
X174177595Y-216623357D01*
X174225214Y-216528119D01*
X174272833Y-216480500D01*
X174368071Y-216432880D01*
X174558547Y-216432880D01*
X174653785Y-216480500D01*
X174701404Y-216528119D01*
X174749023Y-216623357D01*
X174749023Y-216861452D01*
X174701404Y-216956690D01*
X174653785Y-217004309D01*
X174558547Y-217051928D01*
X174368071Y-217051928D01*
X174272833Y-217004309D01*
X174225214Y-216956690D01*
X174177595Y-216861452D01*
%TO.C,K22*%
X196679976Y-184412880D02*
X196679976Y-183412880D01*
X196108547Y-184412880D02*
X196537119Y-183841452D01*
X196108547Y-183412880D02*
X196679976Y-183984309D01*
X195679976Y-183889071D02*
X195346642Y-183889071D01*
X195203785Y-184412880D02*
X195679976Y-184412880D01*
X195679976Y-183412880D01*
X195203785Y-183412880D01*
X194584738Y-183936690D02*
X194584738Y-184412880D01*
X194918071Y-183412880D02*
X194584738Y-183936690D01*
X194251404Y-183412880D01*
X193965690Y-184365261D02*
X193822833Y-184412880D01*
X193584738Y-184412880D01*
X193489500Y-184365261D01*
X193441880Y-184317642D01*
X193394261Y-184222404D01*
X193394261Y-184127166D01*
X193441880Y-184031928D01*
X193489500Y-183984309D01*
X193584738Y-183936690D01*
X193775214Y-183889071D01*
X193870452Y-183841452D01*
X193918071Y-183793833D01*
X193965690Y-183698595D01*
X193965690Y-183603357D01*
X193918071Y-183508119D01*
X193870452Y-183460500D01*
X193775214Y-183412880D01*
X193537119Y-183412880D01*
X193394261Y-183460500D01*
X193060928Y-183412880D02*
X192822833Y-184412880D01*
X192632357Y-183698595D01*
X192441880Y-184412880D01*
X192203785Y-183412880D01*
X195703785Y-179332880D02*
X195703785Y-178332880D01*
X195132357Y-179332880D02*
X195560928Y-178761452D01*
X195132357Y-178332880D02*
X195703785Y-178904309D01*
X194751404Y-178428119D02*
X194703785Y-178380500D01*
X194608547Y-178332880D01*
X194370452Y-178332880D01*
X194275214Y-178380500D01*
X194227595Y-178428119D01*
X194179976Y-178523357D01*
X194179976Y-178618595D01*
X194227595Y-178761452D01*
X194799023Y-179332880D01*
X194179976Y-179332880D01*
X193799023Y-178428119D02*
X193751404Y-178380500D01*
X193656166Y-178332880D01*
X193418071Y-178332880D01*
X193322833Y-178380500D01*
X193275214Y-178428119D01*
X193227595Y-178523357D01*
X193227595Y-178618595D01*
X193275214Y-178761452D01*
X193846642Y-179332880D01*
X193227595Y-179332880D01*
%TO.C,K45*%
X272879976Y-241562880D02*
X272879976Y-240562880D01*
X272308547Y-241562880D02*
X272737119Y-240991452D01*
X272308547Y-240562880D02*
X272879976Y-241134309D01*
X271879976Y-241039071D02*
X271546642Y-241039071D01*
X271403785Y-241562880D02*
X271879976Y-241562880D01*
X271879976Y-240562880D01*
X271403785Y-240562880D01*
X270784738Y-241086690D02*
X270784738Y-241562880D01*
X271118071Y-240562880D02*
X270784738Y-241086690D01*
X270451404Y-240562880D01*
X270165690Y-241515261D02*
X270022833Y-241562880D01*
X269784738Y-241562880D01*
X269689500Y-241515261D01*
X269641880Y-241467642D01*
X269594261Y-241372404D01*
X269594261Y-241277166D01*
X269641880Y-241181928D01*
X269689500Y-241134309D01*
X269784738Y-241086690D01*
X269975214Y-241039071D01*
X270070452Y-240991452D01*
X270118071Y-240943833D01*
X270165690Y-240848595D01*
X270165690Y-240753357D01*
X270118071Y-240658119D01*
X270070452Y-240610500D01*
X269975214Y-240562880D01*
X269737119Y-240562880D01*
X269594261Y-240610500D01*
X269260928Y-240562880D02*
X269022833Y-241562880D01*
X268832357Y-240848595D01*
X268641880Y-241562880D01*
X268403785Y-240562880D01*
X271903785Y-236482880D02*
X271903785Y-235482880D01*
X271332357Y-236482880D02*
X271760928Y-235911452D01*
X271332357Y-235482880D02*
X271903785Y-236054309D01*
X270475214Y-235816214D02*
X270475214Y-236482880D01*
X270713309Y-235435261D02*
X270951404Y-236149547D01*
X270332357Y-236149547D01*
X269475214Y-235482880D02*
X269951404Y-235482880D01*
X269999023Y-235959071D01*
X269951404Y-235911452D01*
X269856166Y-235863833D01*
X269618071Y-235863833D01*
X269522833Y-235911452D01*
X269475214Y-235959071D01*
X269427595Y-236054309D01*
X269427595Y-236292404D01*
X269475214Y-236387642D01*
X269522833Y-236435261D01*
X269618071Y-236482880D01*
X269856166Y-236482880D01*
X269951404Y-236435261D01*
X269999023Y-236387642D01*
%TO.C,K20*%
X177629976Y-241562880D02*
X177629976Y-240562880D01*
X177058547Y-241562880D02*
X177487119Y-240991452D01*
X177058547Y-240562880D02*
X177629976Y-241134309D01*
X176629976Y-241039071D02*
X176296642Y-241039071D01*
X176153785Y-241562880D02*
X176629976Y-241562880D01*
X176629976Y-240562880D01*
X176153785Y-240562880D01*
X175534738Y-241086690D02*
X175534738Y-241562880D01*
X175868071Y-240562880D02*
X175534738Y-241086690D01*
X175201404Y-240562880D01*
X174915690Y-241515261D02*
X174772833Y-241562880D01*
X174534738Y-241562880D01*
X174439500Y-241515261D01*
X174391880Y-241467642D01*
X174344261Y-241372404D01*
X174344261Y-241277166D01*
X174391880Y-241181928D01*
X174439500Y-241134309D01*
X174534738Y-241086690D01*
X174725214Y-241039071D01*
X174820452Y-240991452D01*
X174868071Y-240943833D01*
X174915690Y-240848595D01*
X174915690Y-240753357D01*
X174868071Y-240658119D01*
X174820452Y-240610500D01*
X174725214Y-240562880D01*
X174487119Y-240562880D01*
X174344261Y-240610500D01*
X174010928Y-240562880D02*
X173772833Y-241562880D01*
X173582357Y-240848595D01*
X173391880Y-241562880D01*
X173153785Y-240562880D01*
X176653785Y-236482880D02*
X176653785Y-235482880D01*
X176082357Y-236482880D02*
X176510928Y-235911452D01*
X176082357Y-235482880D02*
X176653785Y-236054309D01*
X175701404Y-235578119D02*
X175653785Y-235530500D01*
X175558547Y-235482880D01*
X175320452Y-235482880D01*
X175225214Y-235530500D01*
X175177595Y-235578119D01*
X175129976Y-235673357D01*
X175129976Y-235768595D01*
X175177595Y-235911452D01*
X175749023Y-236482880D01*
X175129976Y-236482880D01*
X174510928Y-235482880D02*
X174415690Y-235482880D01*
X174320452Y-235530500D01*
X174272833Y-235578119D01*
X174225214Y-235673357D01*
X174177595Y-235863833D01*
X174177595Y-236101928D01*
X174225214Y-236292404D01*
X174272833Y-236387642D01*
X174320452Y-236435261D01*
X174415690Y-236482880D01*
X174510928Y-236482880D01*
X174606166Y-236435261D01*
X174653785Y-236387642D01*
X174701404Y-236292404D01*
X174749023Y-236101928D01*
X174749023Y-235863833D01*
X174701404Y-235673357D01*
X174653785Y-235578119D01*
X174606166Y-235530500D01*
X174510928Y-235482880D01*
%TO.C,K30*%
X215729976Y-241562880D02*
X215729976Y-240562880D01*
X215158547Y-241562880D02*
X215587119Y-240991452D01*
X215158547Y-240562880D02*
X215729976Y-241134309D01*
X214729976Y-241039071D02*
X214396642Y-241039071D01*
X214253785Y-241562880D02*
X214729976Y-241562880D01*
X214729976Y-240562880D01*
X214253785Y-240562880D01*
X213634738Y-241086690D02*
X213634738Y-241562880D01*
X213968071Y-240562880D02*
X213634738Y-241086690D01*
X213301404Y-240562880D01*
X213015690Y-241515261D02*
X212872833Y-241562880D01*
X212634738Y-241562880D01*
X212539500Y-241515261D01*
X212491880Y-241467642D01*
X212444261Y-241372404D01*
X212444261Y-241277166D01*
X212491880Y-241181928D01*
X212539500Y-241134309D01*
X212634738Y-241086690D01*
X212825214Y-241039071D01*
X212920452Y-240991452D01*
X212968071Y-240943833D01*
X213015690Y-240848595D01*
X213015690Y-240753357D01*
X212968071Y-240658119D01*
X212920452Y-240610500D01*
X212825214Y-240562880D01*
X212587119Y-240562880D01*
X212444261Y-240610500D01*
X212110928Y-240562880D02*
X211872833Y-241562880D01*
X211682357Y-240848595D01*
X211491880Y-241562880D01*
X211253785Y-240562880D01*
X214753785Y-236482880D02*
X214753785Y-235482880D01*
X214182357Y-236482880D02*
X214610928Y-235911452D01*
X214182357Y-235482880D02*
X214753785Y-236054309D01*
X213849023Y-235482880D02*
X213229976Y-235482880D01*
X213563309Y-235863833D01*
X213420452Y-235863833D01*
X213325214Y-235911452D01*
X213277595Y-235959071D01*
X213229976Y-236054309D01*
X213229976Y-236292404D01*
X213277595Y-236387642D01*
X213325214Y-236435261D01*
X213420452Y-236482880D01*
X213706166Y-236482880D01*
X213801404Y-236435261D01*
X213849023Y-236387642D01*
X212610928Y-235482880D02*
X212515690Y-235482880D01*
X212420452Y-235530500D01*
X212372833Y-235578119D01*
X212325214Y-235673357D01*
X212277595Y-235863833D01*
X212277595Y-236101928D01*
X212325214Y-236292404D01*
X212372833Y-236387642D01*
X212420452Y-236435261D01*
X212515690Y-236482880D01*
X212610928Y-236482880D01*
X212706166Y-236435261D01*
X212753785Y-236387642D01*
X212801404Y-236292404D01*
X212849023Y-236101928D01*
X212849023Y-235863833D01*
X212801404Y-235673357D01*
X212753785Y-235578119D01*
X212706166Y-235530500D01*
X212610928Y-235482880D01*
%TO.C,K28*%
X215729976Y-203462880D02*
X215729976Y-202462880D01*
X215158547Y-203462880D02*
X215587119Y-202891452D01*
X215158547Y-202462880D02*
X215729976Y-203034309D01*
X214729976Y-202939071D02*
X214396642Y-202939071D01*
X214253785Y-203462880D02*
X214729976Y-203462880D01*
X214729976Y-202462880D01*
X214253785Y-202462880D01*
X213634738Y-202986690D02*
X213634738Y-203462880D01*
X213968071Y-202462880D02*
X213634738Y-202986690D01*
X213301404Y-202462880D01*
X213015690Y-203415261D02*
X212872833Y-203462880D01*
X212634738Y-203462880D01*
X212539500Y-203415261D01*
X212491880Y-203367642D01*
X212444261Y-203272404D01*
X212444261Y-203177166D01*
X212491880Y-203081928D01*
X212539500Y-203034309D01*
X212634738Y-202986690D01*
X212825214Y-202939071D01*
X212920452Y-202891452D01*
X212968071Y-202843833D01*
X213015690Y-202748595D01*
X213015690Y-202653357D01*
X212968071Y-202558119D01*
X212920452Y-202510500D01*
X212825214Y-202462880D01*
X212587119Y-202462880D01*
X212444261Y-202510500D01*
X212110928Y-202462880D02*
X211872833Y-203462880D01*
X211682357Y-202748595D01*
X211491880Y-203462880D01*
X211253785Y-202462880D01*
X214753785Y-198382880D02*
X214753785Y-197382880D01*
X214182357Y-198382880D02*
X214610928Y-197811452D01*
X214182357Y-197382880D02*
X214753785Y-197954309D01*
X213801404Y-197478119D02*
X213753785Y-197430500D01*
X213658547Y-197382880D01*
X213420452Y-197382880D01*
X213325214Y-197430500D01*
X213277595Y-197478119D01*
X213229976Y-197573357D01*
X213229976Y-197668595D01*
X213277595Y-197811452D01*
X213849023Y-198382880D01*
X213229976Y-198382880D01*
X212658547Y-197811452D02*
X212753785Y-197763833D01*
X212801404Y-197716214D01*
X212849023Y-197620976D01*
X212849023Y-197573357D01*
X212801404Y-197478119D01*
X212753785Y-197430500D01*
X212658547Y-197382880D01*
X212468071Y-197382880D01*
X212372833Y-197430500D01*
X212325214Y-197478119D01*
X212277595Y-197573357D01*
X212277595Y-197620976D01*
X212325214Y-197716214D01*
X212372833Y-197763833D01*
X212468071Y-197811452D01*
X212658547Y-197811452D01*
X212753785Y-197859071D01*
X212801404Y-197906690D01*
X212849023Y-198001928D01*
X212849023Y-198192404D01*
X212801404Y-198287642D01*
X212753785Y-198335261D01*
X212658547Y-198382880D01*
X212468071Y-198382880D01*
X212372833Y-198335261D01*
X212325214Y-198287642D01*
X212277595Y-198192404D01*
X212277595Y-198001928D01*
X212325214Y-197906690D01*
X212372833Y-197859071D01*
X212468071Y-197811452D01*
%TO.C,K25*%
X196679976Y-241562880D02*
X196679976Y-240562880D01*
X196108547Y-241562880D02*
X196537119Y-240991452D01*
X196108547Y-240562880D02*
X196679976Y-241134309D01*
X195679976Y-241039071D02*
X195346642Y-241039071D01*
X195203785Y-241562880D02*
X195679976Y-241562880D01*
X195679976Y-240562880D01*
X195203785Y-240562880D01*
X194584738Y-241086690D02*
X194584738Y-241562880D01*
X194918071Y-240562880D02*
X194584738Y-241086690D01*
X194251404Y-240562880D01*
X193965690Y-241515261D02*
X193822833Y-241562880D01*
X193584738Y-241562880D01*
X193489500Y-241515261D01*
X193441880Y-241467642D01*
X193394261Y-241372404D01*
X193394261Y-241277166D01*
X193441880Y-241181928D01*
X193489500Y-241134309D01*
X193584738Y-241086690D01*
X193775214Y-241039071D01*
X193870452Y-240991452D01*
X193918071Y-240943833D01*
X193965690Y-240848595D01*
X193965690Y-240753357D01*
X193918071Y-240658119D01*
X193870452Y-240610500D01*
X193775214Y-240562880D01*
X193537119Y-240562880D01*
X193394261Y-240610500D01*
X193060928Y-240562880D02*
X192822833Y-241562880D01*
X192632357Y-240848595D01*
X192441880Y-241562880D01*
X192203785Y-240562880D01*
X195703785Y-236482880D02*
X195703785Y-235482880D01*
X195132357Y-236482880D02*
X195560928Y-235911452D01*
X195132357Y-235482880D02*
X195703785Y-236054309D01*
X194751404Y-235578119D02*
X194703785Y-235530500D01*
X194608547Y-235482880D01*
X194370452Y-235482880D01*
X194275214Y-235530500D01*
X194227595Y-235578119D01*
X194179976Y-235673357D01*
X194179976Y-235768595D01*
X194227595Y-235911452D01*
X194799023Y-236482880D01*
X194179976Y-236482880D01*
X193275214Y-235482880D02*
X193751404Y-235482880D01*
X193799023Y-235959071D01*
X193751404Y-235911452D01*
X193656166Y-235863833D01*
X193418071Y-235863833D01*
X193322833Y-235911452D01*
X193275214Y-235959071D01*
X193227595Y-236054309D01*
X193227595Y-236292404D01*
X193275214Y-236387642D01*
X193322833Y-236435261D01*
X193418071Y-236482880D01*
X193656166Y-236482880D01*
X193751404Y-236435261D01*
X193799023Y-236387642D01*
%TO.C,K51*%
X310979976Y-165362880D02*
X310979976Y-164362880D01*
X310408547Y-165362880D02*
X310837119Y-164791452D01*
X310408547Y-164362880D02*
X310979976Y-164934309D01*
X309979976Y-164839071D02*
X309646642Y-164839071D01*
X309503785Y-165362880D02*
X309979976Y-165362880D01*
X309979976Y-164362880D01*
X309503785Y-164362880D01*
X308884738Y-164886690D02*
X308884738Y-165362880D01*
X309218071Y-164362880D02*
X308884738Y-164886690D01*
X308551404Y-164362880D01*
X308265690Y-165315261D02*
X308122833Y-165362880D01*
X307884738Y-165362880D01*
X307789500Y-165315261D01*
X307741880Y-165267642D01*
X307694261Y-165172404D01*
X307694261Y-165077166D01*
X307741880Y-164981928D01*
X307789500Y-164934309D01*
X307884738Y-164886690D01*
X308075214Y-164839071D01*
X308170452Y-164791452D01*
X308218071Y-164743833D01*
X308265690Y-164648595D01*
X308265690Y-164553357D01*
X308218071Y-164458119D01*
X308170452Y-164410500D01*
X308075214Y-164362880D01*
X307837119Y-164362880D01*
X307694261Y-164410500D01*
X307360928Y-164362880D02*
X307122833Y-165362880D01*
X306932357Y-164648595D01*
X306741880Y-165362880D01*
X306503785Y-164362880D01*
X310003785Y-160282880D02*
X310003785Y-159282880D01*
X309432357Y-160282880D02*
X309860928Y-159711452D01*
X309432357Y-159282880D02*
X310003785Y-159854309D01*
X308527595Y-159282880D02*
X309003785Y-159282880D01*
X309051404Y-159759071D01*
X309003785Y-159711452D01*
X308908547Y-159663833D01*
X308670452Y-159663833D01*
X308575214Y-159711452D01*
X308527595Y-159759071D01*
X308479976Y-159854309D01*
X308479976Y-160092404D01*
X308527595Y-160187642D01*
X308575214Y-160235261D01*
X308670452Y-160282880D01*
X308908547Y-160282880D01*
X309003785Y-160235261D01*
X309051404Y-160187642D01*
X307527595Y-160282880D02*
X308099023Y-160282880D01*
X307813309Y-160282880D02*
X307813309Y-159282880D01*
X307908547Y-159425738D01*
X308003785Y-159520976D01*
X308099023Y-159568595D01*
%TO.C,K10*%
X139529976Y-241562880D02*
X139529976Y-240562880D01*
X138958547Y-241562880D02*
X139387119Y-240991452D01*
X138958547Y-240562880D02*
X139529976Y-241134309D01*
X138529976Y-241039071D02*
X138196642Y-241039071D01*
X138053785Y-241562880D02*
X138529976Y-241562880D01*
X138529976Y-240562880D01*
X138053785Y-240562880D01*
X137434738Y-241086690D02*
X137434738Y-241562880D01*
X137768071Y-240562880D02*
X137434738Y-241086690D01*
X137101404Y-240562880D01*
X136815690Y-241515261D02*
X136672833Y-241562880D01*
X136434738Y-241562880D01*
X136339500Y-241515261D01*
X136291880Y-241467642D01*
X136244261Y-241372404D01*
X136244261Y-241277166D01*
X136291880Y-241181928D01*
X136339500Y-241134309D01*
X136434738Y-241086690D01*
X136625214Y-241039071D01*
X136720452Y-240991452D01*
X136768071Y-240943833D01*
X136815690Y-240848595D01*
X136815690Y-240753357D01*
X136768071Y-240658119D01*
X136720452Y-240610500D01*
X136625214Y-240562880D01*
X136387119Y-240562880D01*
X136244261Y-240610500D01*
X135910928Y-240562880D02*
X135672833Y-241562880D01*
X135482357Y-240848595D01*
X135291880Y-241562880D01*
X135053785Y-240562880D01*
X138553785Y-236482880D02*
X138553785Y-235482880D01*
X137982357Y-236482880D02*
X138410928Y-235911452D01*
X137982357Y-235482880D02*
X138553785Y-236054309D01*
X137029976Y-236482880D02*
X137601404Y-236482880D01*
X137315690Y-236482880D02*
X137315690Y-235482880D01*
X137410928Y-235625738D01*
X137506166Y-235720976D01*
X137601404Y-235768595D01*
X136410928Y-235482880D02*
X136315690Y-235482880D01*
X136220452Y-235530500D01*
X136172833Y-235578119D01*
X136125214Y-235673357D01*
X136077595Y-235863833D01*
X136077595Y-236101928D01*
X136125214Y-236292404D01*
X136172833Y-236387642D01*
X136220452Y-236435261D01*
X136315690Y-236482880D01*
X136410928Y-236482880D01*
X136506166Y-236435261D01*
X136553785Y-236387642D01*
X136601404Y-236292404D01*
X136649023Y-236101928D01*
X136649023Y-235863833D01*
X136601404Y-235673357D01*
X136553785Y-235578119D01*
X136506166Y-235530500D01*
X136410928Y-235482880D01*
%TO.C,K57*%
X330029976Y-184412880D02*
X330029976Y-183412880D01*
X329458547Y-184412880D02*
X329887119Y-183841452D01*
X329458547Y-183412880D02*
X330029976Y-183984309D01*
X329029976Y-183889071D02*
X328696642Y-183889071D01*
X328553785Y-184412880D02*
X329029976Y-184412880D01*
X329029976Y-183412880D01*
X328553785Y-183412880D01*
X327934738Y-183936690D02*
X327934738Y-184412880D01*
X328268071Y-183412880D02*
X327934738Y-183936690D01*
X327601404Y-183412880D01*
X327315690Y-184365261D02*
X327172833Y-184412880D01*
X326934738Y-184412880D01*
X326839500Y-184365261D01*
X326791880Y-184317642D01*
X326744261Y-184222404D01*
X326744261Y-184127166D01*
X326791880Y-184031928D01*
X326839500Y-183984309D01*
X326934738Y-183936690D01*
X327125214Y-183889071D01*
X327220452Y-183841452D01*
X327268071Y-183793833D01*
X327315690Y-183698595D01*
X327315690Y-183603357D01*
X327268071Y-183508119D01*
X327220452Y-183460500D01*
X327125214Y-183412880D01*
X326887119Y-183412880D01*
X326744261Y-183460500D01*
X326410928Y-183412880D02*
X326172833Y-184412880D01*
X325982357Y-183698595D01*
X325791880Y-184412880D01*
X325553785Y-183412880D01*
X329053785Y-179332880D02*
X329053785Y-178332880D01*
X328482357Y-179332880D02*
X328910928Y-178761452D01*
X328482357Y-178332880D02*
X329053785Y-178904309D01*
X327577595Y-178332880D02*
X328053785Y-178332880D01*
X328101404Y-178809071D01*
X328053785Y-178761452D01*
X327958547Y-178713833D01*
X327720452Y-178713833D01*
X327625214Y-178761452D01*
X327577595Y-178809071D01*
X327529976Y-178904309D01*
X327529976Y-179142404D01*
X327577595Y-179237642D01*
X327625214Y-179285261D01*
X327720452Y-179332880D01*
X327958547Y-179332880D01*
X328053785Y-179285261D01*
X328101404Y-179237642D01*
X327196642Y-178332880D02*
X326529976Y-178332880D01*
X326958547Y-179332880D01*
%TO.C,K58*%
X330029976Y-203462880D02*
X330029976Y-202462880D01*
X329458547Y-203462880D02*
X329887119Y-202891452D01*
X329458547Y-202462880D02*
X330029976Y-203034309D01*
X329029976Y-202939071D02*
X328696642Y-202939071D01*
X328553785Y-203462880D02*
X329029976Y-203462880D01*
X329029976Y-202462880D01*
X328553785Y-202462880D01*
X327934738Y-202986690D02*
X327934738Y-203462880D01*
X328268071Y-202462880D02*
X327934738Y-202986690D01*
X327601404Y-202462880D01*
X327315690Y-203415261D02*
X327172833Y-203462880D01*
X326934738Y-203462880D01*
X326839500Y-203415261D01*
X326791880Y-203367642D01*
X326744261Y-203272404D01*
X326744261Y-203177166D01*
X326791880Y-203081928D01*
X326839500Y-203034309D01*
X326934738Y-202986690D01*
X327125214Y-202939071D01*
X327220452Y-202891452D01*
X327268071Y-202843833D01*
X327315690Y-202748595D01*
X327315690Y-202653357D01*
X327268071Y-202558119D01*
X327220452Y-202510500D01*
X327125214Y-202462880D01*
X326887119Y-202462880D01*
X326744261Y-202510500D01*
X326410928Y-202462880D02*
X326172833Y-203462880D01*
X325982357Y-202748595D01*
X325791880Y-203462880D01*
X325553785Y-202462880D01*
X329053785Y-198382880D02*
X329053785Y-197382880D01*
X328482357Y-198382880D02*
X328910928Y-197811452D01*
X328482357Y-197382880D02*
X329053785Y-197954309D01*
X327577595Y-197382880D02*
X328053785Y-197382880D01*
X328101404Y-197859071D01*
X328053785Y-197811452D01*
X327958547Y-197763833D01*
X327720452Y-197763833D01*
X327625214Y-197811452D01*
X327577595Y-197859071D01*
X327529976Y-197954309D01*
X327529976Y-198192404D01*
X327577595Y-198287642D01*
X327625214Y-198335261D01*
X327720452Y-198382880D01*
X327958547Y-198382880D01*
X328053785Y-198335261D01*
X328101404Y-198287642D01*
X326958547Y-197811452D02*
X327053785Y-197763833D01*
X327101404Y-197716214D01*
X327149023Y-197620976D01*
X327149023Y-197573357D01*
X327101404Y-197478119D01*
X327053785Y-197430500D01*
X326958547Y-197382880D01*
X326768071Y-197382880D01*
X326672833Y-197430500D01*
X326625214Y-197478119D01*
X326577595Y-197573357D01*
X326577595Y-197620976D01*
X326625214Y-197716214D01*
X326672833Y-197763833D01*
X326768071Y-197811452D01*
X326958547Y-197811452D01*
X327053785Y-197859071D01*
X327101404Y-197906690D01*
X327149023Y-198001928D01*
X327149023Y-198192404D01*
X327101404Y-198287642D01*
X327053785Y-198335261D01*
X326958547Y-198382880D01*
X326768071Y-198382880D01*
X326672833Y-198335261D01*
X326625214Y-198287642D01*
X326577595Y-198192404D01*
X326577595Y-198001928D01*
X326625214Y-197906690D01*
X326672833Y-197859071D01*
X326768071Y-197811452D01*
%TO.C,K56*%
X330029976Y-165362880D02*
X330029976Y-164362880D01*
X329458547Y-165362880D02*
X329887119Y-164791452D01*
X329458547Y-164362880D02*
X330029976Y-164934309D01*
X329029976Y-164839071D02*
X328696642Y-164839071D01*
X328553785Y-165362880D02*
X329029976Y-165362880D01*
X329029976Y-164362880D01*
X328553785Y-164362880D01*
X327934738Y-164886690D02*
X327934738Y-165362880D01*
X328268071Y-164362880D02*
X327934738Y-164886690D01*
X327601404Y-164362880D01*
X327315690Y-165315261D02*
X327172833Y-165362880D01*
X326934738Y-165362880D01*
X326839500Y-165315261D01*
X326791880Y-165267642D01*
X326744261Y-165172404D01*
X326744261Y-165077166D01*
X326791880Y-164981928D01*
X326839500Y-164934309D01*
X326934738Y-164886690D01*
X327125214Y-164839071D01*
X327220452Y-164791452D01*
X327268071Y-164743833D01*
X327315690Y-164648595D01*
X327315690Y-164553357D01*
X327268071Y-164458119D01*
X327220452Y-164410500D01*
X327125214Y-164362880D01*
X326887119Y-164362880D01*
X326744261Y-164410500D01*
X326410928Y-164362880D02*
X326172833Y-165362880D01*
X325982357Y-164648595D01*
X325791880Y-165362880D01*
X325553785Y-164362880D01*
X329053785Y-160282880D02*
X329053785Y-159282880D01*
X328482357Y-160282880D02*
X328910928Y-159711452D01*
X328482357Y-159282880D02*
X329053785Y-159854309D01*
X327577595Y-159282880D02*
X328053785Y-159282880D01*
X328101404Y-159759071D01*
X328053785Y-159711452D01*
X327958547Y-159663833D01*
X327720452Y-159663833D01*
X327625214Y-159711452D01*
X327577595Y-159759071D01*
X327529976Y-159854309D01*
X327529976Y-160092404D01*
X327577595Y-160187642D01*
X327625214Y-160235261D01*
X327720452Y-160282880D01*
X327958547Y-160282880D01*
X328053785Y-160235261D01*
X328101404Y-160187642D01*
X326672833Y-159282880D02*
X326863309Y-159282880D01*
X326958547Y-159330500D01*
X327006166Y-159378119D01*
X327101404Y-159520976D01*
X327149023Y-159711452D01*
X327149023Y-160092404D01*
X327101404Y-160187642D01*
X327053785Y-160235261D01*
X326958547Y-160282880D01*
X326768071Y-160282880D01*
X326672833Y-160235261D01*
X326625214Y-160187642D01*
X326577595Y-160092404D01*
X326577595Y-159854309D01*
X326625214Y-159759071D01*
X326672833Y-159711452D01*
X326768071Y-159663833D01*
X326958547Y-159663833D01*
X327053785Y-159711452D01*
X327101404Y-159759071D01*
X327149023Y-159854309D01*
%TO.C,K17*%
X177629976Y-184412880D02*
X177629976Y-183412880D01*
X177058547Y-184412880D02*
X177487119Y-183841452D01*
X177058547Y-183412880D02*
X177629976Y-183984309D01*
X176629976Y-183889071D02*
X176296642Y-183889071D01*
X176153785Y-184412880D02*
X176629976Y-184412880D01*
X176629976Y-183412880D01*
X176153785Y-183412880D01*
X175534738Y-183936690D02*
X175534738Y-184412880D01*
X175868071Y-183412880D02*
X175534738Y-183936690D01*
X175201404Y-183412880D01*
X174915690Y-184365261D02*
X174772833Y-184412880D01*
X174534738Y-184412880D01*
X174439500Y-184365261D01*
X174391880Y-184317642D01*
X174344261Y-184222404D01*
X174344261Y-184127166D01*
X174391880Y-184031928D01*
X174439500Y-183984309D01*
X174534738Y-183936690D01*
X174725214Y-183889071D01*
X174820452Y-183841452D01*
X174868071Y-183793833D01*
X174915690Y-183698595D01*
X174915690Y-183603357D01*
X174868071Y-183508119D01*
X174820452Y-183460500D01*
X174725214Y-183412880D01*
X174487119Y-183412880D01*
X174344261Y-183460500D01*
X174010928Y-183412880D02*
X173772833Y-184412880D01*
X173582357Y-183698595D01*
X173391880Y-184412880D01*
X173153785Y-183412880D01*
X176653785Y-179332880D02*
X176653785Y-178332880D01*
X176082357Y-179332880D02*
X176510928Y-178761452D01*
X176082357Y-178332880D02*
X176653785Y-178904309D01*
X175129976Y-179332880D02*
X175701404Y-179332880D01*
X175415690Y-179332880D02*
X175415690Y-178332880D01*
X175510928Y-178475738D01*
X175606166Y-178570976D01*
X175701404Y-178618595D01*
X174796642Y-178332880D02*
X174129976Y-178332880D01*
X174558547Y-179332880D01*
%TO.C,K43*%
X272879976Y-203462880D02*
X272879976Y-202462880D01*
X272308547Y-203462880D02*
X272737119Y-202891452D01*
X272308547Y-202462880D02*
X272879976Y-203034309D01*
X271879976Y-202939071D02*
X271546642Y-202939071D01*
X271403785Y-203462880D02*
X271879976Y-203462880D01*
X271879976Y-202462880D01*
X271403785Y-202462880D01*
X270784738Y-202986690D02*
X270784738Y-203462880D01*
X271118071Y-202462880D02*
X270784738Y-202986690D01*
X270451404Y-202462880D01*
X270165690Y-203415261D02*
X270022833Y-203462880D01*
X269784738Y-203462880D01*
X269689500Y-203415261D01*
X269641880Y-203367642D01*
X269594261Y-203272404D01*
X269594261Y-203177166D01*
X269641880Y-203081928D01*
X269689500Y-203034309D01*
X269784738Y-202986690D01*
X269975214Y-202939071D01*
X270070452Y-202891452D01*
X270118071Y-202843833D01*
X270165690Y-202748595D01*
X270165690Y-202653357D01*
X270118071Y-202558119D01*
X270070452Y-202510500D01*
X269975214Y-202462880D01*
X269737119Y-202462880D01*
X269594261Y-202510500D01*
X269260928Y-202462880D02*
X269022833Y-203462880D01*
X268832357Y-202748595D01*
X268641880Y-203462880D01*
X268403785Y-202462880D01*
X271903785Y-198382880D02*
X271903785Y-197382880D01*
X271332357Y-198382880D02*
X271760928Y-197811452D01*
X271332357Y-197382880D02*
X271903785Y-197954309D01*
X270475214Y-197716214D02*
X270475214Y-198382880D01*
X270713309Y-197335261D02*
X270951404Y-198049547D01*
X270332357Y-198049547D01*
X270046642Y-197382880D02*
X269427595Y-197382880D01*
X269760928Y-197763833D01*
X269618071Y-197763833D01*
X269522833Y-197811452D01*
X269475214Y-197859071D01*
X269427595Y-197954309D01*
X269427595Y-198192404D01*
X269475214Y-198287642D01*
X269522833Y-198335261D01*
X269618071Y-198382880D01*
X269903785Y-198382880D01*
X269999023Y-198335261D01*
X270046642Y-198287642D01*
%TO.C,K39*%
X253829976Y-222512880D02*
X253829976Y-221512880D01*
X253258547Y-222512880D02*
X253687119Y-221941452D01*
X253258547Y-221512880D02*
X253829976Y-222084309D01*
X252829976Y-221989071D02*
X252496642Y-221989071D01*
X252353785Y-222512880D02*
X252829976Y-222512880D01*
X252829976Y-221512880D01*
X252353785Y-221512880D01*
X251734738Y-222036690D02*
X251734738Y-222512880D01*
X252068071Y-221512880D02*
X251734738Y-222036690D01*
X251401404Y-221512880D01*
X251115690Y-222465261D02*
X250972833Y-222512880D01*
X250734738Y-222512880D01*
X250639500Y-222465261D01*
X250591880Y-222417642D01*
X250544261Y-222322404D01*
X250544261Y-222227166D01*
X250591880Y-222131928D01*
X250639500Y-222084309D01*
X250734738Y-222036690D01*
X250925214Y-221989071D01*
X251020452Y-221941452D01*
X251068071Y-221893833D01*
X251115690Y-221798595D01*
X251115690Y-221703357D01*
X251068071Y-221608119D01*
X251020452Y-221560500D01*
X250925214Y-221512880D01*
X250687119Y-221512880D01*
X250544261Y-221560500D01*
X250210928Y-221512880D02*
X249972833Y-222512880D01*
X249782357Y-221798595D01*
X249591880Y-222512880D01*
X249353785Y-221512880D01*
X252853785Y-217432880D02*
X252853785Y-216432880D01*
X252282357Y-217432880D02*
X252710928Y-216861452D01*
X252282357Y-216432880D02*
X252853785Y-217004309D01*
X251949023Y-216432880D02*
X251329976Y-216432880D01*
X251663309Y-216813833D01*
X251520452Y-216813833D01*
X251425214Y-216861452D01*
X251377595Y-216909071D01*
X251329976Y-217004309D01*
X251329976Y-217242404D01*
X251377595Y-217337642D01*
X251425214Y-217385261D01*
X251520452Y-217432880D01*
X251806166Y-217432880D01*
X251901404Y-217385261D01*
X251949023Y-217337642D01*
X250853785Y-217432880D02*
X250663309Y-217432880D01*
X250568071Y-217385261D01*
X250520452Y-217337642D01*
X250425214Y-217194785D01*
X250377595Y-217004309D01*
X250377595Y-216623357D01*
X250425214Y-216528119D01*
X250472833Y-216480500D01*
X250568071Y-216432880D01*
X250758547Y-216432880D01*
X250853785Y-216480500D01*
X250901404Y-216528119D01*
X250949023Y-216623357D01*
X250949023Y-216861452D01*
X250901404Y-216956690D01*
X250853785Y-217004309D01*
X250758547Y-217051928D01*
X250568071Y-217051928D01*
X250472833Y-217004309D01*
X250425214Y-216956690D01*
X250377595Y-216861452D01*
%TO.C,K18*%
X177629976Y-203462880D02*
X177629976Y-202462880D01*
X177058547Y-203462880D02*
X177487119Y-202891452D01*
X177058547Y-202462880D02*
X177629976Y-203034309D01*
X176629976Y-202939071D02*
X176296642Y-202939071D01*
X176153785Y-203462880D02*
X176629976Y-203462880D01*
X176629976Y-202462880D01*
X176153785Y-202462880D01*
X175534738Y-202986690D02*
X175534738Y-203462880D01*
X175868071Y-202462880D02*
X175534738Y-202986690D01*
X175201404Y-202462880D01*
X174915690Y-203415261D02*
X174772833Y-203462880D01*
X174534738Y-203462880D01*
X174439500Y-203415261D01*
X174391880Y-203367642D01*
X174344261Y-203272404D01*
X174344261Y-203177166D01*
X174391880Y-203081928D01*
X174439500Y-203034309D01*
X174534738Y-202986690D01*
X174725214Y-202939071D01*
X174820452Y-202891452D01*
X174868071Y-202843833D01*
X174915690Y-202748595D01*
X174915690Y-202653357D01*
X174868071Y-202558119D01*
X174820452Y-202510500D01*
X174725214Y-202462880D01*
X174487119Y-202462880D01*
X174344261Y-202510500D01*
X174010928Y-202462880D02*
X173772833Y-203462880D01*
X173582357Y-202748595D01*
X173391880Y-203462880D01*
X173153785Y-202462880D01*
X176653785Y-198382880D02*
X176653785Y-197382880D01*
X176082357Y-198382880D02*
X176510928Y-197811452D01*
X176082357Y-197382880D02*
X176653785Y-197954309D01*
X175129976Y-198382880D02*
X175701404Y-198382880D01*
X175415690Y-198382880D02*
X175415690Y-197382880D01*
X175510928Y-197525738D01*
X175606166Y-197620976D01*
X175701404Y-197668595D01*
X174558547Y-197811452D02*
X174653785Y-197763833D01*
X174701404Y-197716214D01*
X174749023Y-197620976D01*
X174749023Y-197573357D01*
X174701404Y-197478119D01*
X174653785Y-197430500D01*
X174558547Y-197382880D01*
X174368071Y-197382880D01*
X174272833Y-197430500D01*
X174225214Y-197478119D01*
X174177595Y-197573357D01*
X174177595Y-197620976D01*
X174225214Y-197716214D01*
X174272833Y-197763833D01*
X174368071Y-197811452D01*
X174558547Y-197811452D01*
X174653785Y-197859071D01*
X174701404Y-197906690D01*
X174749023Y-198001928D01*
X174749023Y-198192404D01*
X174701404Y-198287642D01*
X174653785Y-198335261D01*
X174558547Y-198382880D01*
X174368071Y-198382880D01*
X174272833Y-198335261D01*
X174225214Y-198287642D01*
X174177595Y-198192404D01*
X174177595Y-198001928D01*
X174225214Y-197906690D01*
X174272833Y-197859071D01*
X174368071Y-197811452D01*
%TO.C,K3*%
X120479976Y-203462880D02*
X120479976Y-202462880D01*
X119908547Y-203462880D02*
X120337119Y-202891452D01*
X119908547Y-202462880D02*
X120479976Y-203034309D01*
X119479976Y-202939071D02*
X119146642Y-202939071D01*
X119003785Y-203462880D02*
X119479976Y-203462880D01*
X119479976Y-202462880D01*
X119003785Y-202462880D01*
X118384738Y-202986690D02*
X118384738Y-203462880D01*
X118718071Y-202462880D02*
X118384738Y-202986690D01*
X118051404Y-202462880D01*
X117765690Y-203415261D02*
X117622833Y-203462880D01*
X117384738Y-203462880D01*
X117289500Y-203415261D01*
X117241880Y-203367642D01*
X117194261Y-203272404D01*
X117194261Y-203177166D01*
X117241880Y-203081928D01*
X117289500Y-203034309D01*
X117384738Y-202986690D01*
X117575214Y-202939071D01*
X117670452Y-202891452D01*
X117718071Y-202843833D01*
X117765690Y-202748595D01*
X117765690Y-202653357D01*
X117718071Y-202558119D01*
X117670452Y-202510500D01*
X117575214Y-202462880D01*
X117337119Y-202462880D01*
X117194261Y-202510500D01*
X116860928Y-202462880D02*
X116622833Y-203462880D01*
X116432357Y-202748595D01*
X116241880Y-203462880D01*
X116003785Y-202462880D01*
X119027595Y-198382880D02*
X119027595Y-197382880D01*
X118456166Y-198382880D02*
X118884738Y-197811452D01*
X118456166Y-197382880D02*
X119027595Y-197954309D01*
X118122833Y-197382880D02*
X117503785Y-197382880D01*
X117837119Y-197763833D01*
X117694261Y-197763833D01*
X117599023Y-197811452D01*
X117551404Y-197859071D01*
X117503785Y-197954309D01*
X117503785Y-198192404D01*
X117551404Y-198287642D01*
X117599023Y-198335261D01*
X117694261Y-198382880D01*
X117979976Y-198382880D01*
X118075214Y-198335261D01*
X118122833Y-198287642D01*
%TO.C,K48*%
X291929976Y-203462880D02*
X291929976Y-202462880D01*
X291358547Y-203462880D02*
X291787119Y-202891452D01*
X291358547Y-202462880D02*
X291929976Y-203034309D01*
X290929976Y-202939071D02*
X290596642Y-202939071D01*
X290453785Y-203462880D02*
X290929976Y-203462880D01*
X290929976Y-202462880D01*
X290453785Y-202462880D01*
X289834738Y-202986690D02*
X289834738Y-203462880D01*
X290168071Y-202462880D02*
X289834738Y-202986690D01*
X289501404Y-202462880D01*
X289215690Y-203415261D02*
X289072833Y-203462880D01*
X288834738Y-203462880D01*
X288739500Y-203415261D01*
X288691880Y-203367642D01*
X288644261Y-203272404D01*
X288644261Y-203177166D01*
X288691880Y-203081928D01*
X288739500Y-203034309D01*
X288834738Y-202986690D01*
X289025214Y-202939071D01*
X289120452Y-202891452D01*
X289168071Y-202843833D01*
X289215690Y-202748595D01*
X289215690Y-202653357D01*
X289168071Y-202558119D01*
X289120452Y-202510500D01*
X289025214Y-202462880D01*
X288787119Y-202462880D01*
X288644261Y-202510500D01*
X288310928Y-202462880D02*
X288072833Y-203462880D01*
X287882357Y-202748595D01*
X287691880Y-203462880D01*
X287453785Y-202462880D01*
X290953785Y-198382880D02*
X290953785Y-197382880D01*
X290382357Y-198382880D02*
X290810928Y-197811452D01*
X290382357Y-197382880D02*
X290953785Y-197954309D01*
X289525214Y-197716214D02*
X289525214Y-198382880D01*
X289763309Y-197335261D02*
X290001404Y-198049547D01*
X289382357Y-198049547D01*
X288858547Y-197811452D02*
X288953785Y-197763833D01*
X289001404Y-197716214D01*
X289049023Y-197620976D01*
X289049023Y-197573357D01*
X289001404Y-197478119D01*
X288953785Y-197430500D01*
X288858547Y-197382880D01*
X288668071Y-197382880D01*
X288572833Y-197430500D01*
X288525214Y-197478119D01*
X288477595Y-197573357D01*
X288477595Y-197620976D01*
X288525214Y-197716214D01*
X288572833Y-197763833D01*
X288668071Y-197811452D01*
X288858547Y-197811452D01*
X288953785Y-197859071D01*
X289001404Y-197906690D01*
X289049023Y-198001928D01*
X289049023Y-198192404D01*
X289001404Y-198287642D01*
X288953785Y-198335261D01*
X288858547Y-198382880D01*
X288668071Y-198382880D01*
X288572833Y-198335261D01*
X288525214Y-198287642D01*
X288477595Y-198192404D01*
X288477595Y-198001928D01*
X288525214Y-197906690D01*
X288572833Y-197859071D01*
X288668071Y-197811452D01*
%TO.C,K6*%
X139529976Y-165362880D02*
X139529976Y-164362880D01*
X138958547Y-165362880D02*
X139387119Y-164791452D01*
X138958547Y-164362880D02*
X139529976Y-164934309D01*
X138529976Y-164839071D02*
X138196642Y-164839071D01*
X138053785Y-165362880D02*
X138529976Y-165362880D01*
X138529976Y-164362880D01*
X138053785Y-164362880D01*
X137434738Y-164886690D02*
X137434738Y-165362880D01*
X137768071Y-164362880D02*
X137434738Y-164886690D01*
X137101404Y-164362880D01*
X136815690Y-165315261D02*
X136672833Y-165362880D01*
X136434738Y-165362880D01*
X136339500Y-165315261D01*
X136291880Y-165267642D01*
X136244261Y-165172404D01*
X136244261Y-165077166D01*
X136291880Y-164981928D01*
X136339500Y-164934309D01*
X136434738Y-164886690D01*
X136625214Y-164839071D01*
X136720452Y-164791452D01*
X136768071Y-164743833D01*
X136815690Y-164648595D01*
X136815690Y-164553357D01*
X136768071Y-164458119D01*
X136720452Y-164410500D01*
X136625214Y-164362880D01*
X136387119Y-164362880D01*
X136244261Y-164410500D01*
X135910928Y-164362880D02*
X135672833Y-165362880D01*
X135482357Y-164648595D01*
X135291880Y-165362880D01*
X135053785Y-164362880D01*
X138077595Y-160282880D02*
X138077595Y-159282880D01*
X137506166Y-160282880D02*
X137934738Y-159711452D01*
X137506166Y-159282880D02*
X138077595Y-159854309D01*
X136649023Y-159282880D02*
X136839500Y-159282880D01*
X136934738Y-159330500D01*
X136982357Y-159378119D01*
X137077595Y-159520976D01*
X137125214Y-159711452D01*
X137125214Y-160092404D01*
X137077595Y-160187642D01*
X137029976Y-160235261D01*
X136934738Y-160282880D01*
X136744261Y-160282880D01*
X136649023Y-160235261D01*
X136601404Y-160187642D01*
X136553785Y-160092404D01*
X136553785Y-159854309D01*
X136601404Y-159759071D01*
X136649023Y-159711452D01*
X136744261Y-159663833D01*
X136934738Y-159663833D01*
X137029976Y-159711452D01*
X137077595Y-159759071D01*
X137125214Y-159854309D01*
%TO.C,K7*%
X139529976Y-184412880D02*
X139529976Y-183412880D01*
X138958547Y-184412880D02*
X139387119Y-183841452D01*
X138958547Y-183412880D02*
X139529976Y-183984309D01*
X138529976Y-183889071D02*
X138196642Y-183889071D01*
X138053785Y-184412880D02*
X138529976Y-184412880D01*
X138529976Y-183412880D01*
X138053785Y-183412880D01*
X137434738Y-183936690D02*
X137434738Y-184412880D01*
X137768071Y-183412880D02*
X137434738Y-183936690D01*
X137101404Y-183412880D01*
X136815690Y-184365261D02*
X136672833Y-184412880D01*
X136434738Y-184412880D01*
X136339500Y-184365261D01*
X136291880Y-184317642D01*
X136244261Y-184222404D01*
X136244261Y-184127166D01*
X136291880Y-184031928D01*
X136339500Y-183984309D01*
X136434738Y-183936690D01*
X136625214Y-183889071D01*
X136720452Y-183841452D01*
X136768071Y-183793833D01*
X136815690Y-183698595D01*
X136815690Y-183603357D01*
X136768071Y-183508119D01*
X136720452Y-183460500D01*
X136625214Y-183412880D01*
X136387119Y-183412880D01*
X136244261Y-183460500D01*
X135910928Y-183412880D02*
X135672833Y-184412880D01*
X135482357Y-183698595D01*
X135291880Y-184412880D01*
X135053785Y-183412880D01*
X138077595Y-179332880D02*
X138077595Y-178332880D01*
X137506166Y-179332880D02*
X137934738Y-178761452D01*
X137506166Y-178332880D02*
X138077595Y-178904309D01*
X137172833Y-178332880D02*
X136506166Y-178332880D01*
X136934738Y-179332880D01*
%TO.C,K53*%
X310979976Y-203462880D02*
X310979976Y-202462880D01*
X310408547Y-203462880D02*
X310837119Y-202891452D01*
X310408547Y-202462880D02*
X310979976Y-203034309D01*
X309979976Y-202939071D02*
X309646642Y-202939071D01*
X309503785Y-203462880D02*
X309979976Y-203462880D01*
X309979976Y-202462880D01*
X309503785Y-202462880D01*
X308884738Y-202986690D02*
X308884738Y-203462880D01*
X309218071Y-202462880D02*
X308884738Y-202986690D01*
X308551404Y-202462880D01*
X308265690Y-203415261D02*
X308122833Y-203462880D01*
X307884738Y-203462880D01*
X307789500Y-203415261D01*
X307741880Y-203367642D01*
X307694261Y-203272404D01*
X307694261Y-203177166D01*
X307741880Y-203081928D01*
X307789500Y-203034309D01*
X307884738Y-202986690D01*
X308075214Y-202939071D01*
X308170452Y-202891452D01*
X308218071Y-202843833D01*
X308265690Y-202748595D01*
X308265690Y-202653357D01*
X308218071Y-202558119D01*
X308170452Y-202510500D01*
X308075214Y-202462880D01*
X307837119Y-202462880D01*
X307694261Y-202510500D01*
X307360928Y-202462880D02*
X307122833Y-203462880D01*
X306932357Y-202748595D01*
X306741880Y-203462880D01*
X306503785Y-202462880D01*
X310003785Y-198382880D02*
X310003785Y-197382880D01*
X309432357Y-198382880D02*
X309860928Y-197811452D01*
X309432357Y-197382880D02*
X310003785Y-197954309D01*
X308527595Y-197382880D02*
X309003785Y-197382880D01*
X309051404Y-197859071D01*
X309003785Y-197811452D01*
X308908547Y-197763833D01*
X308670452Y-197763833D01*
X308575214Y-197811452D01*
X308527595Y-197859071D01*
X308479976Y-197954309D01*
X308479976Y-198192404D01*
X308527595Y-198287642D01*
X308575214Y-198335261D01*
X308670452Y-198382880D01*
X308908547Y-198382880D01*
X309003785Y-198335261D01*
X309051404Y-198287642D01*
X308146642Y-197382880D02*
X307527595Y-197382880D01*
X307860928Y-197763833D01*
X307718071Y-197763833D01*
X307622833Y-197811452D01*
X307575214Y-197859071D01*
X307527595Y-197954309D01*
X307527595Y-198192404D01*
X307575214Y-198287642D01*
X307622833Y-198335261D01*
X307718071Y-198382880D01*
X308003785Y-198382880D01*
X308099023Y-198335261D01*
X308146642Y-198287642D01*
%TO.C,K16*%
X177629976Y-165362880D02*
X177629976Y-164362880D01*
X177058547Y-165362880D02*
X177487119Y-164791452D01*
X177058547Y-164362880D02*
X177629976Y-164934309D01*
X176629976Y-164839071D02*
X176296642Y-164839071D01*
X176153785Y-165362880D02*
X176629976Y-165362880D01*
X176629976Y-164362880D01*
X176153785Y-164362880D01*
X175534738Y-164886690D02*
X175534738Y-165362880D01*
X175868071Y-164362880D02*
X175534738Y-164886690D01*
X175201404Y-164362880D01*
X174915690Y-165315261D02*
X174772833Y-165362880D01*
X174534738Y-165362880D01*
X174439500Y-165315261D01*
X174391880Y-165267642D01*
X174344261Y-165172404D01*
X174344261Y-165077166D01*
X174391880Y-164981928D01*
X174439500Y-164934309D01*
X174534738Y-164886690D01*
X174725214Y-164839071D01*
X174820452Y-164791452D01*
X174868071Y-164743833D01*
X174915690Y-164648595D01*
X174915690Y-164553357D01*
X174868071Y-164458119D01*
X174820452Y-164410500D01*
X174725214Y-164362880D01*
X174487119Y-164362880D01*
X174344261Y-164410500D01*
X174010928Y-164362880D02*
X173772833Y-165362880D01*
X173582357Y-164648595D01*
X173391880Y-165362880D01*
X173153785Y-164362880D01*
X176653785Y-160282880D02*
X176653785Y-159282880D01*
X176082357Y-160282880D02*
X176510928Y-159711452D01*
X176082357Y-159282880D02*
X176653785Y-159854309D01*
X175129976Y-160282880D02*
X175701404Y-160282880D01*
X175415690Y-160282880D02*
X175415690Y-159282880D01*
X175510928Y-159425738D01*
X175606166Y-159520976D01*
X175701404Y-159568595D01*
X174272833Y-159282880D02*
X174463309Y-159282880D01*
X174558547Y-159330500D01*
X174606166Y-159378119D01*
X174701404Y-159520976D01*
X174749023Y-159711452D01*
X174749023Y-160092404D01*
X174701404Y-160187642D01*
X174653785Y-160235261D01*
X174558547Y-160282880D01*
X174368071Y-160282880D01*
X174272833Y-160235261D01*
X174225214Y-160187642D01*
X174177595Y-160092404D01*
X174177595Y-159854309D01*
X174225214Y-159759071D01*
X174272833Y-159711452D01*
X174368071Y-159663833D01*
X174558547Y-159663833D01*
X174653785Y-159711452D01*
X174701404Y-159759071D01*
X174749023Y-159854309D01*
%TO.C,K54*%
X310979976Y-222512880D02*
X310979976Y-221512880D01*
X310408547Y-222512880D02*
X310837119Y-221941452D01*
X310408547Y-221512880D02*
X310979976Y-222084309D01*
X309979976Y-221989071D02*
X309646642Y-221989071D01*
X309503785Y-222512880D02*
X309979976Y-222512880D01*
X309979976Y-221512880D01*
X309503785Y-221512880D01*
X308884738Y-222036690D02*
X308884738Y-222512880D01*
X309218071Y-221512880D02*
X308884738Y-222036690D01*
X308551404Y-221512880D01*
X308265690Y-222465261D02*
X308122833Y-222512880D01*
X307884738Y-222512880D01*
X307789500Y-222465261D01*
X307741880Y-222417642D01*
X307694261Y-222322404D01*
X307694261Y-222227166D01*
X307741880Y-222131928D01*
X307789500Y-222084309D01*
X307884738Y-222036690D01*
X308075214Y-221989071D01*
X308170452Y-221941452D01*
X308218071Y-221893833D01*
X308265690Y-221798595D01*
X308265690Y-221703357D01*
X308218071Y-221608119D01*
X308170452Y-221560500D01*
X308075214Y-221512880D01*
X307837119Y-221512880D01*
X307694261Y-221560500D01*
X307360928Y-221512880D02*
X307122833Y-222512880D01*
X306932357Y-221798595D01*
X306741880Y-222512880D01*
X306503785Y-221512880D01*
X310003785Y-217432880D02*
X310003785Y-216432880D01*
X309432357Y-217432880D02*
X309860928Y-216861452D01*
X309432357Y-216432880D02*
X310003785Y-217004309D01*
X308527595Y-216432880D02*
X309003785Y-216432880D01*
X309051404Y-216909071D01*
X309003785Y-216861452D01*
X308908547Y-216813833D01*
X308670452Y-216813833D01*
X308575214Y-216861452D01*
X308527595Y-216909071D01*
X308479976Y-217004309D01*
X308479976Y-217242404D01*
X308527595Y-217337642D01*
X308575214Y-217385261D01*
X308670452Y-217432880D01*
X308908547Y-217432880D01*
X309003785Y-217385261D01*
X309051404Y-217337642D01*
X307622833Y-216766214D02*
X307622833Y-217432880D01*
X307860928Y-216385261D02*
X308099023Y-217099547D01*
X307479976Y-217099547D01*
%TO.C,K36*%
X253829976Y-165362880D02*
X253829976Y-164362880D01*
X253258547Y-165362880D02*
X253687119Y-164791452D01*
X253258547Y-164362880D02*
X253829976Y-164934309D01*
X252829976Y-164839071D02*
X252496642Y-164839071D01*
X252353785Y-165362880D02*
X252829976Y-165362880D01*
X252829976Y-164362880D01*
X252353785Y-164362880D01*
X251734738Y-164886690D02*
X251734738Y-165362880D01*
X252068071Y-164362880D02*
X251734738Y-164886690D01*
X251401404Y-164362880D01*
X251115690Y-165315261D02*
X250972833Y-165362880D01*
X250734738Y-165362880D01*
X250639500Y-165315261D01*
X250591880Y-165267642D01*
X250544261Y-165172404D01*
X250544261Y-165077166D01*
X250591880Y-164981928D01*
X250639500Y-164934309D01*
X250734738Y-164886690D01*
X250925214Y-164839071D01*
X251020452Y-164791452D01*
X251068071Y-164743833D01*
X251115690Y-164648595D01*
X251115690Y-164553357D01*
X251068071Y-164458119D01*
X251020452Y-164410500D01*
X250925214Y-164362880D01*
X250687119Y-164362880D01*
X250544261Y-164410500D01*
X250210928Y-164362880D02*
X249972833Y-165362880D01*
X249782357Y-164648595D01*
X249591880Y-165362880D01*
X249353785Y-164362880D01*
X252853785Y-160282880D02*
X252853785Y-159282880D01*
X252282357Y-160282880D02*
X252710928Y-159711452D01*
X252282357Y-159282880D02*
X252853785Y-159854309D01*
X251949023Y-159282880D02*
X251329976Y-159282880D01*
X251663309Y-159663833D01*
X251520452Y-159663833D01*
X251425214Y-159711452D01*
X251377595Y-159759071D01*
X251329976Y-159854309D01*
X251329976Y-160092404D01*
X251377595Y-160187642D01*
X251425214Y-160235261D01*
X251520452Y-160282880D01*
X251806166Y-160282880D01*
X251901404Y-160235261D01*
X251949023Y-160187642D01*
X250472833Y-159282880D02*
X250663309Y-159282880D01*
X250758547Y-159330500D01*
X250806166Y-159378119D01*
X250901404Y-159520976D01*
X250949023Y-159711452D01*
X250949023Y-160092404D01*
X250901404Y-160187642D01*
X250853785Y-160235261D01*
X250758547Y-160282880D01*
X250568071Y-160282880D01*
X250472833Y-160235261D01*
X250425214Y-160187642D01*
X250377595Y-160092404D01*
X250377595Y-159854309D01*
X250425214Y-159759071D01*
X250472833Y-159711452D01*
X250568071Y-159663833D01*
X250758547Y-159663833D01*
X250853785Y-159711452D01*
X250901404Y-159759071D01*
X250949023Y-159854309D01*
%TO.C,K27*%
X215729976Y-184412880D02*
X215729976Y-183412880D01*
X215158547Y-184412880D02*
X215587119Y-183841452D01*
X215158547Y-183412880D02*
X215729976Y-183984309D01*
X214729976Y-183889071D02*
X214396642Y-183889071D01*
X214253785Y-184412880D02*
X214729976Y-184412880D01*
X214729976Y-183412880D01*
X214253785Y-183412880D01*
X213634738Y-183936690D02*
X213634738Y-184412880D01*
X213968071Y-183412880D02*
X213634738Y-183936690D01*
X213301404Y-183412880D01*
X213015690Y-184365261D02*
X212872833Y-184412880D01*
X212634738Y-184412880D01*
X212539500Y-184365261D01*
X212491880Y-184317642D01*
X212444261Y-184222404D01*
X212444261Y-184127166D01*
X212491880Y-184031928D01*
X212539500Y-183984309D01*
X212634738Y-183936690D01*
X212825214Y-183889071D01*
X212920452Y-183841452D01*
X212968071Y-183793833D01*
X213015690Y-183698595D01*
X213015690Y-183603357D01*
X212968071Y-183508119D01*
X212920452Y-183460500D01*
X212825214Y-183412880D01*
X212587119Y-183412880D01*
X212444261Y-183460500D01*
X212110928Y-183412880D02*
X211872833Y-184412880D01*
X211682357Y-183698595D01*
X211491880Y-184412880D01*
X211253785Y-183412880D01*
X214753785Y-179332880D02*
X214753785Y-178332880D01*
X214182357Y-179332880D02*
X214610928Y-178761452D01*
X214182357Y-178332880D02*
X214753785Y-178904309D01*
X213801404Y-178428119D02*
X213753785Y-178380500D01*
X213658547Y-178332880D01*
X213420452Y-178332880D01*
X213325214Y-178380500D01*
X213277595Y-178428119D01*
X213229976Y-178523357D01*
X213229976Y-178618595D01*
X213277595Y-178761452D01*
X213849023Y-179332880D01*
X213229976Y-179332880D01*
X212896642Y-178332880D02*
X212229976Y-178332880D01*
X212658547Y-179332880D01*
%TO.C,K26*%
X215729976Y-165362880D02*
X215729976Y-164362880D01*
X215158547Y-165362880D02*
X215587119Y-164791452D01*
X215158547Y-164362880D02*
X215729976Y-164934309D01*
X214729976Y-164839071D02*
X214396642Y-164839071D01*
X214253785Y-165362880D02*
X214729976Y-165362880D01*
X214729976Y-164362880D01*
X214253785Y-164362880D01*
X213634738Y-164886690D02*
X213634738Y-165362880D01*
X213968071Y-164362880D02*
X213634738Y-164886690D01*
X213301404Y-164362880D01*
X213015690Y-165315261D02*
X212872833Y-165362880D01*
X212634738Y-165362880D01*
X212539500Y-165315261D01*
X212491880Y-165267642D01*
X212444261Y-165172404D01*
X212444261Y-165077166D01*
X212491880Y-164981928D01*
X212539500Y-164934309D01*
X212634738Y-164886690D01*
X212825214Y-164839071D01*
X212920452Y-164791452D01*
X212968071Y-164743833D01*
X213015690Y-164648595D01*
X213015690Y-164553357D01*
X212968071Y-164458119D01*
X212920452Y-164410500D01*
X212825214Y-164362880D01*
X212587119Y-164362880D01*
X212444261Y-164410500D01*
X212110928Y-164362880D02*
X211872833Y-165362880D01*
X211682357Y-164648595D01*
X211491880Y-165362880D01*
X211253785Y-164362880D01*
X214753785Y-160282880D02*
X214753785Y-159282880D01*
X214182357Y-160282880D02*
X214610928Y-159711452D01*
X214182357Y-159282880D02*
X214753785Y-159854309D01*
X213801404Y-159378119D02*
X213753785Y-159330500D01*
X213658547Y-159282880D01*
X213420452Y-159282880D01*
X213325214Y-159330500D01*
X213277595Y-159378119D01*
X213229976Y-159473357D01*
X213229976Y-159568595D01*
X213277595Y-159711452D01*
X213849023Y-160282880D01*
X213229976Y-160282880D01*
X212372833Y-159282880D02*
X212563309Y-159282880D01*
X212658547Y-159330500D01*
X212706166Y-159378119D01*
X212801404Y-159520976D01*
X212849023Y-159711452D01*
X212849023Y-160092404D01*
X212801404Y-160187642D01*
X212753785Y-160235261D01*
X212658547Y-160282880D01*
X212468071Y-160282880D01*
X212372833Y-160235261D01*
X212325214Y-160187642D01*
X212277595Y-160092404D01*
X212277595Y-159854309D01*
X212325214Y-159759071D01*
X212372833Y-159711452D01*
X212468071Y-159663833D01*
X212658547Y-159663833D01*
X212753785Y-159711452D01*
X212801404Y-159759071D01*
X212849023Y-159854309D01*
%TO.C,K37*%
X253829976Y-184412880D02*
X253829976Y-183412880D01*
X253258547Y-184412880D02*
X253687119Y-183841452D01*
X253258547Y-183412880D02*
X253829976Y-183984309D01*
X252829976Y-183889071D02*
X252496642Y-183889071D01*
X252353785Y-184412880D02*
X252829976Y-184412880D01*
X252829976Y-183412880D01*
X252353785Y-183412880D01*
X251734738Y-183936690D02*
X251734738Y-184412880D01*
X252068071Y-183412880D02*
X251734738Y-183936690D01*
X251401404Y-183412880D01*
X251115690Y-184365261D02*
X250972833Y-184412880D01*
X250734738Y-184412880D01*
X250639500Y-184365261D01*
X250591880Y-184317642D01*
X250544261Y-184222404D01*
X250544261Y-184127166D01*
X250591880Y-184031928D01*
X250639500Y-183984309D01*
X250734738Y-183936690D01*
X250925214Y-183889071D01*
X251020452Y-183841452D01*
X251068071Y-183793833D01*
X251115690Y-183698595D01*
X251115690Y-183603357D01*
X251068071Y-183508119D01*
X251020452Y-183460500D01*
X250925214Y-183412880D01*
X250687119Y-183412880D01*
X250544261Y-183460500D01*
X250210928Y-183412880D02*
X249972833Y-184412880D01*
X249782357Y-183698595D01*
X249591880Y-184412880D01*
X249353785Y-183412880D01*
X252853785Y-179332880D02*
X252853785Y-178332880D01*
X252282357Y-179332880D02*
X252710928Y-178761452D01*
X252282357Y-178332880D02*
X252853785Y-178904309D01*
X251949023Y-178332880D02*
X251329976Y-178332880D01*
X251663309Y-178713833D01*
X251520452Y-178713833D01*
X251425214Y-178761452D01*
X251377595Y-178809071D01*
X251329976Y-178904309D01*
X251329976Y-179142404D01*
X251377595Y-179237642D01*
X251425214Y-179285261D01*
X251520452Y-179332880D01*
X251806166Y-179332880D01*
X251901404Y-179285261D01*
X251949023Y-179237642D01*
X250996642Y-178332880D02*
X250329976Y-178332880D01*
X250758547Y-179332880D01*
%TO.C,K44*%
X272879976Y-222512880D02*
X272879976Y-221512880D01*
X272308547Y-222512880D02*
X272737119Y-221941452D01*
X272308547Y-221512880D02*
X272879976Y-222084309D01*
X271879976Y-221989071D02*
X271546642Y-221989071D01*
X271403785Y-222512880D02*
X271879976Y-222512880D01*
X271879976Y-221512880D01*
X271403785Y-221512880D01*
X270784738Y-222036690D02*
X270784738Y-222512880D01*
X271118071Y-221512880D02*
X270784738Y-222036690D01*
X270451404Y-221512880D01*
X270165690Y-222465261D02*
X270022833Y-222512880D01*
X269784738Y-222512880D01*
X269689500Y-222465261D01*
X269641880Y-222417642D01*
X269594261Y-222322404D01*
X269594261Y-222227166D01*
X269641880Y-222131928D01*
X269689500Y-222084309D01*
X269784738Y-222036690D01*
X269975214Y-221989071D01*
X270070452Y-221941452D01*
X270118071Y-221893833D01*
X270165690Y-221798595D01*
X270165690Y-221703357D01*
X270118071Y-221608119D01*
X270070452Y-221560500D01*
X269975214Y-221512880D01*
X269737119Y-221512880D01*
X269594261Y-221560500D01*
X269260928Y-221512880D02*
X269022833Y-222512880D01*
X268832357Y-221798595D01*
X268641880Y-222512880D01*
X268403785Y-221512880D01*
X271903785Y-217432880D02*
X271903785Y-216432880D01*
X271332357Y-217432880D02*
X271760928Y-216861452D01*
X271332357Y-216432880D02*
X271903785Y-217004309D01*
X270475214Y-216766214D02*
X270475214Y-217432880D01*
X270713309Y-216385261D02*
X270951404Y-217099547D01*
X270332357Y-217099547D01*
X269522833Y-216766214D02*
X269522833Y-217432880D01*
X269760928Y-216385261D02*
X269999023Y-217099547D01*
X269379976Y-217099547D01*
%TO.C,K59*%
X330029976Y-222512880D02*
X330029976Y-221512880D01*
X329458547Y-222512880D02*
X329887119Y-221941452D01*
X329458547Y-221512880D02*
X330029976Y-222084309D01*
X329029976Y-221989071D02*
X328696642Y-221989071D01*
X328553785Y-222512880D02*
X329029976Y-222512880D01*
X329029976Y-221512880D01*
X328553785Y-221512880D01*
X327934738Y-222036690D02*
X327934738Y-222512880D01*
X328268071Y-221512880D02*
X327934738Y-222036690D01*
X327601404Y-221512880D01*
X327315690Y-222465261D02*
X327172833Y-222512880D01*
X326934738Y-222512880D01*
X326839500Y-222465261D01*
X326791880Y-222417642D01*
X326744261Y-222322404D01*
X326744261Y-222227166D01*
X326791880Y-222131928D01*
X326839500Y-222084309D01*
X326934738Y-222036690D01*
X327125214Y-221989071D01*
X327220452Y-221941452D01*
X327268071Y-221893833D01*
X327315690Y-221798595D01*
X327315690Y-221703357D01*
X327268071Y-221608119D01*
X327220452Y-221560500D01*
X327125214Y-221512880D01*
X326887119Y-221512880D01*
X326744261Y-221560500D01*
X326410928Y-221512880D02*
X326172833Y-222512880D01*
X325982357Y-221798595D01*
X325791880Y-222512880D01*
X325553785Y-221512880D01*
X329053785Y-217432880D02*
X329053785Y-216432880D01*
X328482357Y-217432880D02*
X328910928Y-216861452D01*
X328482357Y-216432880D02*
X329053785Y-217004309D01*
X327577595Y-216432880D02*
X328053785Y-216432880D01*
X328101404Y-216909071D01*
X328053785Y-216861452D01*
X327958547Y-216813833D01*
X327720452Y-216813833D01*
X327625214Y-216861452D01*
X327577595Y-216909071D01*
X327529976Y-217004309D01*
X327529976Y-217242404D01*
X327577595Y-217337642D01*
X327625214Y-217385261D01*
X327720452Y-217432880D01*
X327958547Y-217432880D01*
X328053785Y-217385261D01*
X328101404Y-217337642D01*
X327053785Y-217432880D02*
X326863309Y-217432880D01*
X326768071Y-217385261D01*
X326720452Y-217337642D01*
X326625214Y-217194785D01*
X326577595Y-217004309D01*
X326577595Y-216623357D01*
X326625214Y-216528119D01*
X326672833Y-216480500D01*
X326768071Y-216432880D01*
X326958547Y-216432880D01*
X327053785Y-216480500D01*
X327101404Y-216528119D01*
X327149023Y-216623357D01*
X327149023Y-216861452D01*
X327101404Y-216956690D01*
X327053785Y-217004309D01*
X326958547Y-217051928D01*
X326768071Y-217051928D01*
X326672833Y-217004309D01*
X326625214Y-216956690D01*
X326577595Y-216861452D01*
%TO.C,K11*%
X158579976Y-165362880D02*
X158579976Y-164362880D01*
X158008547Y-165362880D02*
X158437119Y-164791452D01*
X158008547Y-164362880D02*
X158579976Y-164934309D01*
X157579976Y-164839071D02*
X157246642Y-164839071D01*
X157103785Y-165362880D02*
X157579976Y-165362880D01*
X157579976Y-164362880D01*
X157103785Y-164362880D01*
X156484738Y-164886690D02*
X156484738Y-165362880D01*
X156818071Y-164362880D02*
X156484738Y-164886690D01*
X156151404Y-164362880D01*
X155865690Y-165315261D02*
X155722833Y-165362880D01*
X155484738Y-165362880D01*
X155389500Y-165315261D01*
X155341880Y-165267642D01*
X155294261Y-165172404D01*
X155294261Y-165077166D01*
X155341880Y-164981928D01*
X155389500Y-164934309D01*
X155484738Y-164886690D01*
X155675214Y-164839071D01*
X155770452Y-164791452D01*
X155818071Y-164743833D01*
X155865690Y-164648595D01*
X155865690Y-164553357D01*
X155818071Y-164458119D01*
X155770452Y-164410500D01*
X155675214Y-164362880D01*
X155437119Y-164362880D01*
X155294261Y-164410500D01*
X154960928Y-164362880D02*
X154722833Y-165362880D01*
X154532357Y-164648595D01*
X154341880Y-165362880D01*
X154103785Y-164362880D01*
X157603785Y-160282880D02*
X157603785Y-159282880D01*
X157032357Y-160282880D02*
X157460928Y-159711452D01*
X157032357Y-159282880D02*
X157603785Y-159854309D01*
X156079976Y-160282880D02*
X156651404Y-160282880D01*
X156365690Y-160282880D02*
X156365690Y-159282880D01*
X156460928Y-159425738D01*
X156556166Y-159520976D01*
X156651404Y-159568595D01*
X155127595Y-160282880D02*
X155699023Y-160282880D01*
X155413309Y-160282880D02*
X155413309Y-159282880D01*
X155508547Y-159425738D01*
X155603785Y-159520976D01*
X155699023Y-159568595D01*
%TO.C,K13*%
X158579976Y-203462880D02*
X158579976Y-202462880D01*
X158008547Y-203462880D02*
X158437119Y-202891452D01*
X158008547Y-202462880D02*
X158579976Y-203034309D01*
X157579976Y-202939071D02*
X157246642Y-202939071D01*
X157103785Y-203462880D02*
X157579976Y-203462880D01*
X157579976Y-202462880D01*
X157103785Y-202462880D01*
X156484738Y-202986690D02*
X156484738Y-203462880D01*
X156818071Y-202462880D02*
X156484738Y-202986690D01*
X156151404Y-202462880D01*
X155865690Y-203415261D02*
X155722833Y-203462880D01*
X155484738Y-203462880D01*
X155389500Y-203415261D01*
X155341880Y-203367642D01*
X155294261Y-203272404D01*
X155294261Y-203177166D01*
X155341880Y-203081928D01*
X155389500Y-203034309D01*
X155484738Y-202986690D01*
X155675214Y-202939071D01*
X155770452Y-202891452D01*
X155818071Y-202843833D01*
X155865690Y-202748595D01*
X155865690Y-202653357D01*
X155818071Y-202558119D01*
X155770452Y-202510500D01*
X155675214Y-202462880D01*
X155437119Y-202462880D01*
X155294261Y-202510500D01*
X154960928Y-202462880D02*
X154722833Y-203462880D01*
X154532357Y-202748595D01*
X154341880Y-203462880D01*
X154103785Y-202462880D01*
X157603785Y-198382880D02*
X157603785Y-197382880D01*
X157032357Y-198382880D02*
X157460928Y-197811452D01*
X157032357Y-197382880D02*
X157603785Y-197954309D01*
X156079976Y-198382880D02*
X156651404Y-198382880D01*
X156365690Y-198382880D02*
X156365690Y-197382880D01*
X156460928Y-197525738D01*
X156556166Y-197620976D01*
X156651404Y-197668595D01*
X155746642Y-197382880D02*
X155127595Y-197382880D01*
X155460928Y-197763833D01*
X155318071Y-197763833D01*
X155222833Y-197811452D01*
X155175214Y-197859071D01*
X155127595Y-197954309D01*
X155127595Y-198192404D01*
X155175214Y-198287642D01*
X155222833Y-198335261D01*
X155318071Y-198382880D01*
X155603785Y-198382880D01*
X155699023Y-198335261D01*
X155746642Y-198287642D01*
%TO.C,K38*%
X253829976Y-203462880D02*
X253829976Y-202462880D01*
X253258547Y-203462880D02*
X253687119Y-202891452D01*
X253258547Y-202462880D02*
X253829976Y-203034309D01*
X252829976Y-202939071D02*
X252496642Y-202939071D01*
X252353785Y-203462880D02*
X252829976Y-203462880D01*
X252829976Y-202462880D01*
X252353785Y-202462880D01*
X251734738Y-202986690D02*
X251734738Y-203462880D01*
X252068071Y-202462880D02*
X251734738Y-202986690D01*
X251401404Y-202462880D01*
X251115690Y-203415261D02*
X250972833Y-203462880D01*
X250734738Y-203462880D01*
X250639500Y-203415261D01*
X250591880Y-203367642D01*
X250544261Y-203272404D01*
X250544261Y-203177166D01*
X250591880Y-203081928D01*
X250639500Y-203034309D01*
X250734738Y-202986690D01*
X250925214Y-202939071D01*
X251020452Y-202891452D01*
X251068071Y-202843833D01*
X251115690Y-202748595D01*
X251115690Y-202653357D01*
X251068071Y-202558119D01*
X251020452Y-202510500D01*
X250925214Y-202462880D01*
X250687119Y-202462880D01*
X250544261Y-202510500D01*
X250210928Y-202462880D02*
X249972833Y-203462880D01*
X249782357Y-202748595D01*
X249591880Y-203462880D01*
X249353785Y-202462880D01*
X252853785Y-198382880D02*
X252853785Y-197382880D01*
X252282357Y-198382880D02*
X252710928Y-197811452D01*
X252282357Y-197382880D02*
X252853785Y-197954309D01*
X251949023Y-197382880D02*
X251329976Y-197382880D01*
X251663309Y-197763833D01*
X251520452Y-197763833D01*
X251425214Y-197811452D01*
X251377595Y-197859071D01*
X251329976Y-197954309D01*
X251329976Y-198192404D01*
X251377595Y-198287642D01*
X251425214Y-198335261D01*
X251520452Y-198382880D01*
X251806166Y-198382880D01*
X251901404Y-198335261D01*
X251949023Y-198287642D01*
X250758547Y-197811452D02*
X250853785Y-197763833D01*
X250901404Y-197716214D01*
X250949023Y-197620976D01*
X250949023Y-197573357D01*
X250901404Y-197478119D01*
X250853785Y-197430500D01*
X250758547Y-197382880D01*
X250568071Y-197382880D01*
X250472833Y-197430500D01*
X250425214Y-197478119D01*
X250377595Y-197573357D01*
X250377595Y-197620976D01*
X250425214Y-197716214D01*
X250472833Y-197763833D01*
X250568071Y-197811452D01*
X250758547Y-197811452D01*
X250853785Y-197859071D01*
X250901404Y-197906690D01*
X250949023Y-198001928D01*
X250949023Y-198192404D01*
X250901404Y-198287642D01*
X250853785Y-198335261D01*
X250758547Y-198382880D01*
X250568071Y-198382880D01*
X250472833Y-198335261D01*
X250425214Y-198287642D01*
X250377595Y-198192404D01*
X250377595Y-198001928D01*
X250425214Y-197906690D01*
X250472833Y-197859071D01*
X250568071Y-197811452D01*
%TO.C,K49*%
X291929976Y-222512880D02*
X291929976Y-221512880D01*
X291358547Y-222512880D02*
X291787119Y-221941452D01*
X291358547Y-221512880D02*
X291929976Y-222084309D01*
X290929976Y-221989071D02*
X290596642Y-221989071D01*
X290453785Y-222512880D02*
X290929976Y-222512880D01*
X290929976Y-221512880D01*
X290453785Y-221512880D01*
X289834738Y-222036690D02*
X289834738Y-222512880D01*
X290168071Y-221512880D02*
X289834738Y-222036690D01*
X289501404Y-221512880D01*
X289215690Y-222465261D02*
X289072833Y-222512880D01*
X288834738Y-222512880D01*
X288739500Y-222465261D01*
X288691880Y-222417642D01*
X288644261Y-222322404D01*
X288644261Y-222227166D01*
X288691880Y-222131928D01*
X288739500Y-222084309D01*
X288834738Y-222036690D01*
X289025214Y-221989071D01*
X289120452Y-221941452D01*
X289168071Y-221893833D01*
X289215690Y-221798595D01*
X289215690Y-221703357D01*
X289168071Y-221608119D01*
X289120452Y-221560500D01*
X289025214Y-221512880D01*
X288787119Y-221512880D01*
X288644261Y-221560500D01*
X288310928Y-221512880D02*
X288072833Y-222512880D01*
X287882357Y-221798595D01*
X287691880Y-222512880D01*
X287453785Y-221512880D01*
X290953785Y-217432880D02*
X290953785Y-216432880D01*
X290382357Y-217432880D02*
X290810928Y-216861452D01*
X290382357Y-216432880D02*
X290953785Y-217004309D01*
X289525214Y-216766214D02*
X289525214Y-217432880D01*
X289763309Y-216385261D02*
X290001404Y-217099547D01*
X289382357Y-217099547D01*
X288953785Y-217432880D02*
X288763309Y-217432880D01*
X288668071Y-217385261D01*
X288620452Y-217337642D01*
X288525214Y-217194785D01*
X288477595Y-217004309D01*
X288477595Y-216623357D01*
X288525214Y-216528119D01*
X288572833Y-216480500D01*
X288668071Y-216432880D01*
X288858547Y-216432880D01*
X288953785Y-216480500D01*
X289001404Y-216528119D01*
X289049023Y-216623357D01*
X289049023Y-216861452D01*
X289001404Y-216956690D01*
X288953785Y-217004309D01*
X288858547Y-217051928D01*
X288668071Y-217051928D01*
X288572833Y-217004309D01*
X288525214Y-216956690D01*
X288477595Y-216861452D01*
%TO.C,K50*%
X291929976Y-241562880D02*
X291929976Y-240562880D01*
X291358547Y-241562880D02*
X291787119Y-240991452D01*
X291358547Y-240562880D02*
X291929976Y-241134309D01*
X290929976Y-241039071D02*
X290596642Y-241039071D01*
X290453785Y-241562880D02*
X290929976Y-241562880D01*
X290929976Y-240562880D01*
X290453785Y-240562880D01*
X289834738Y-241086690D02*
X289834738Y-241562880D01*
X290168071Y-240562880D02*
X289834738Y-241086690D01*
X289501404Y-240562880D01*
X289215690Y-241515261D02*
X289072833Y-241562880D01*
X288834738Y-241562880D01*
X288739500Y-241515261D01*
X288691880Y-241467642D01*
X288644261Y-241372404D01*
X288644261Y-241277166D01*
X288691880Y-241181928D01*
X288739500Y-241134309D01*
X288834738Y-241086690D01*
X289025214Y-241039071D01*
X289120452Y-240991452D01*
X289168071Y-240943833D01*
X289215690Y-240848595D01*
X289215690Y-240753357D01*
X289168071Y-240658119D01*
X289120452Y-240610500D01*
X289025214Y-240562880D01*
X288787119Y-240562880D01*
X288644261Y-240610500D01*
X288310928Y-240562880D02*
X288072833Y-241562880D01*
X287882357Y-240848595D01*
X287691880Y-241562880D01*
X287453785Y-240562880D01*
X290953785Y-236482880D02*
X290953785Y-235482880D01*
X290382357Y-236482880D02*
X290810928Y-235911452D01*
X290382357Y-235482880D02*
X290953785Y-236054309D01*
X289477595Y-235482880D02*
X289953785Y-235482880D01*
X290001404Y-235959071D01*
X289953785Y-235911452D01*
X289858547Y-235863833D01*
X289620452Y-235863833D01*
X289525214Y-235911452D01*
X289477595Y-235959071D01*
X289429976Y-236054309D01*
X289429976Y-236292404D01*
X289477595Y-236387642D01*
X289525214Y-236435261D01*
X289620452Y-236482880D01*
X289858547Y-236482880D01*
X289953785Y-236435261D01*
X290001404Y-236387642D01*
X288810928Y-235482880D02*
X288715690Y-235482880D01*
X288620452Y-235530500D01*
X288572833Y-235578119D01*
X288525214Y-235673357D01*
X288477595Y-235863833D01*
X288477595Y-236101928D01*
X288525214Y-236292404D01*
X288572833Y-236387642D01*
X288620452Y-236435261D01*
X288715690Y-236482880D01*
X288810928Y-236482880D01*
X288906166Y-236435261D01*
X288953785Y-236387642D01*
X289001404Y-236292404D01*
X289049023Y-236101928D01*
X289049023Y-235863833D01*
X289001404Y-235673357D01*
X288953785Y-235578119D01*
X288906166Y-235530500D01*
X288810928Y-235482880D01*
%TO.C,K40*%
X253829976Y-241562880D02*
X253829976Y-240562880D01*
X253258547Y-241562880D02*
X253687119Y-240991452D01*
X253258547Y-240562880D02*
X253829976Y-241134309D01*
X252829976Y-241039071D02*
X252496642Y-241039071D01*
X252353785Y-241562880D02*
X252829976Y-241562880D01*
X252829976Y-240562880D01*
X252353785Y-240562880D01*
X251734738Y-241086690D02*
X251734738Y-241562880D01*
X252068071Y-240562880D02*
X251734738Y-241086690D01*
X251401404Y-240562880D01*
X251115690Y-241515261D02*
X250972833Y-241562880D01*
X250734738Y-241562880D01*
X250639500Y-241515261D01*
X250591880Y-241467642D01*
X250544261Y-241372404D01*
X250544261Y-241277166D01*
X250591880Y-241181928D01*
X250639500Y-241134309D01*
X250734738Y-241086690D01*
X250925214Y-241039071D01*
X251020452Y-240991452D01*
X251068071Y-240943833D01*
X251115690Y-240848595D01*
X251115690Y-240753357D01*
X251068071Y-240658119D01*
X251020452Y-240610500D01*
X250925214Y-240562880D01*
X250687119Y-240562880D01*
X250544261Y-240610500D01*
X250210928Y-240562880D02*
X249972833Y-241562880D01*
X249782357Y-240848595D01*
X249591880Y-241562880D01*
X249353785Y-240562880D01*
X252853785Y-236482880D02*
X252853785Y-235482880D01*
X252282357Y-236482880D02*
X252710928Y-235911452D01*
X252282357Y-235482880D02*
X252853785Y-236054309D01*
X251425214Y-235816214D02*
X251425214Y-236482880D01*
X251663309Y-235435261D02*
X251901404Y-236149547D01*
X251282357Y-236149547D01*
X250710928Y-235482880D02*
X250615690Y-235482880D01*
X250520452Y-235530500D01*
X250472833Y-235578119D01*
X250425214Y-235673357D01*
X250377595Y-235863833D01*
X250377595Y-236101928D01*
X250425214Y-236292404D01*
X250472833Y-236387642D01*
X250520452Y-236435261D01*
X250615690Y-236482880D01*
X250710928Y-236482880D01*
X250806166Y-236435261D01*
X250853785Y-236387642D01*
X250901404Y-236292404D01*
X250949023Y-236101928D01*
X250949023Y-235863833D01*
X250901404Y-235673357D01*
X250853785Y-235578119D01*
X250806166Y-235530500D01*
X250710928Y-235482880D01*
%TO.C,K29*%
X215729976Y-222512880D02*
X215729976Y-221512880D01*
X215158547Y-222512880D02*
X215587119Y-221941452D01*
X215158547Y-221512880D02*
X215729976Y-222084309D01*
X214729976Y-221989071D02*
X214396642Y-221989071D01*
X214253785Y-222512880D02*
X214729976Y-222512880D01*
X214729976Y-221512880D01*
X214253785Y-221512880D01*
X213634738Y-222036690D02*
X213634738Y-222512880D01*
X213968071Y-221512880D02*
X213634738Y-222036690D01*
X213301404Y-221512880D01*
X213015690Y-222465261D02*
X212872833Y-222512880D01*
X212634738Y-222512880D01*
X212539500Y-222465261D01*
X212491880Y-222417642D01*
X212444261Y-222322404D01*
X212444261Y-222227166D01*
X212491880Y-222131928D01*
X212539500Y-222084309D01*
X212634738Y-222036690D01*
X212825214Y-221989071D01*
X212920452Y-221941452D01*
X212968071Y-221893833D01*
X213015690Y-221798595D01*
X213015690Y-221703357D01*
X212968071Y-221608119D01*
X212920452Y-221560500D01*
X212825214Y-221512880D01*
X212587119Y-221512880D01*
X212444261Y-221560500D01*
X212110928Y-221512880D02*
X211872833Y-222512880D01*
X211682357Y-221798595D01*
X211491880Y-222512880D01*
X211253785Y-221512880D01*
X214753785Y-217432880D02*
X214753785Y-216432880D01*
X214182357Y-217432880D02*
X214610928Y-216861452D01*
X214182357Y-216432880D02*
X214753785Y-217004309D01*
X213801404Y-216528119D02*
X213753785Y-216480500D01*
X213658547Y-216432880D01*
X213420452Y-216432880D01*
X213325214Y-216480500D01*
X213277595Y-216528119D01*
X213229976Y-216623357D01*
X213229976Y-216718595D01*
X213277595Y-216861452D01*
X213849023Y-217432880D01*
X213229976Y-217432880D01*
X212753785Y-217432880D02*
X212563309Y-217432880D01*
X212468071Y-217385261D01*
X212420452Y-217337642D01*
X212325214Y-217194785D01*
X212277595Y-217004309D01*
X212277595Y-216623357D01*
X212325214Y-216528119D01*
X212372833Y-216480500D01*
X212468071Y-216432880D01*
X212658547Y-216432880D01*
X212753785Y-216480500D01*
X212801404Y-216528119D01*
X212849023Y-216623357D01*
X212849023Y-216861452D01*
X212801404Y-216956690D01*
X212753785Y-217004309D01*
X212658547Y-217051928D01*
X212468071Y-217051928D01*
X212372833Y-217004309D01*
X212325214Y-216956690D01*
X212277595Y-216861452D01*
%TO.C,K21*%
X196679976Y-165362880D02*
X196679976Y-164362880D01*
X196108547Y-165362880D02*
X196537119Y-164791452D01*
X196108547Y-164362880D02*
X196679976Y-164934309D01*
X195679976Y-164839071D02*
X195346642Y-164839071D01*
X195203785Y-165362880D02*
X195679976Y-165362880D01*
X195679976Y-164362880D01*
X195203785Y-164362880D01*
X194584738Y-164886690D02*
X194584738Y-165362880D01*
X194918071Y-164362880D02*
X194584738Y-164886690D01*
X194251404Y-164362880D01*
X193965690Y-165315261D02*
X193822833Y-165362880D01*
X193584738Y-165362880D01*
X193489500Y-165315261D01*
X193441880Y-165267642D01*
X193394261Y-165172404D01*
X193394261Y-165077166D01*
X193441880Y-164981928D01*
X193489500Y-164934309D01*
X193584738Y-164886690D01*
X193775214Y-164839071D01*
X193870452Y-164791452D01*
X193918071Y-164743833D01*
X193965690Y-164648595D01*
X193965690Y-164553357D01*
X193918071Y-164458119D01*
X193870452Y-164410500D01*
X193775214Y-164362880D01*
X193537119Y-164362880D01*
X193394261Y-164410500D01*
X193060928Y-164362880D02*
X192822833Y-165362880D01*
X192632357Y-164648595D01*
X192441880Y-165362880D01*
X192203785Y-164362880D01*
X195703785Y-160282880D02*
X195703785Y-159282880D01*
X195132357Y-160282880D02*
X195560928Y-159711452D01*
X195132357Y-159282880D02*
X195703785Y-159854309D01*
X194751404Y-159378119D02*
X194703785Y-159330500D01*
X194608547Y-159282880D01*
X194370452Y-159282880D01*
X194275214Y-159330500D01*
X194227595Y-159378119D01*
X194179976Y-159473357D01*
X194179976Y-159568595D01*
X194227595Y-159711452D01*
X194799023Y-160282880D01*
X194179976Y-160282880D01*
X193227595Y-160282880D02*
X193799023Y-160282880D01*
X193513309Y-160282880D02*
X193513309Y-159282880D01*
X193608547Y-159425738D01*
X193703785Y-159520976D01*
X193799023Y-159568595D01*
%TO.C,K5*%
X120479976Y-241562880D02*
X120479976Y-240562880D01*
X119908547Y-241562880D02*
X120337119Y-240991452D01*
X119908547Y-240562880D02*
X120479976Y-241134309D01*
X119479976Y-241039071D02*
X119146642Y-241039071D01*
X119003785Y-241562880D02*
X119479976Y-241562880D01*
X119479976Y-240562880D01*
X119003785Y-240562880D01*
X118384738Y-241086690D02*
X118384738Y-241562880D01*
X118718071Y-240562880D02*
X118384738Y-241086690D01*
X118051404Y-240562880D01*
X117765690Y-241515261D02*
X117622833Y-241562880D01*
X117384738Y-241562880D01*
X117289500Y-241515261D01*
X117241880Y-241467642D01*
X117194261Y-241372404D01*
X117194261Y-241277166D01*
X117241880Y-241181928D01*
X117289500Y-241134309D01*
X117384738Y-241086690D01*
X117575214Y-241039071D01*
X117670452Y-240991452D01*
X117718071Y-240943833D01*
X117765690Y-240848595D01*
X117765690Y-240753357D01*
X117718071Y-240658119D01*
X117670452Y-240610500D01*
X117575214Y-240562880D01*
X117337119Y-240562880D01*
X117194261Y-240610500D01*
X116860928Y-240562880D02*
X116622833Y-241562880D01*
X116432357Y-240848595D01*
X116241880Y-241562880D01*
X116003785Y-240562880D01*
X119027595Y-236482880D02*
X119027595Y-235482880D01*
X118456166Y-236482880D02*
X118884738Y-235911452D01*
X118456166Y-235482880D02*
X119027595Y-236054309D01*
X117551404Y-235482880D02*
X118027595Y-235482880D01*
X118075214Y-235959071D01*
X118027595Y-235911452D01*
X117932357Y-235863833D01*
X117694261Y-235863833D01*
X117599023Y-235911452D01*
X117551404Y-235959071D01*
X117503785Y-236054309D01*
X117503785Y-236292404D01*
X117551404Y-236387642D01*
X117599023Y-236435261D01*
X117694261Y-236482880D01*
X117932357Y-236482880D01*
X118027595Y-236435261D01*
X118075214Y-236387642D01*
%TO.C,K4*%
X120479976Y-222512880D02*
X120479976Y-221512880D01*
X119908547Y-222512880D02*
X120337119Y-221941452D01*
X119908547Y-221512880D02*
X120479976Y-222084309D01*
X119479976Y-221989071D02*
X119146642Y-221989071D01*
X119003785Y-222512880D02*
X119479976Y-222512880D01*
X119479976Y-221512880D01*
X119003785Y-221512880D01*
X118384738Y-222036690D02*
X118384738Y-222512880D01*
X118718071Y-221512880D02*
X118384738Y-222036690D01*
X118051404Y-221512880D01*
X117765690Y-222465261D02*
X117622833Y-222512880D01*
X117384738Y-222512880D01*
X117289500Y-222465261D01*
X117241880Y-222417642D01*
X117194261Y-222322404D01*
X117194261Y-222227166D01*
X117241880Y-222131928D01*
X117289500Y-222084309D01*
X117384738Y-222036690D01*
X117575214Y-221989071D01*
X117670452Y-221941452D01*
X117718071Y-221893833D01*
X117765690Y-221798595D01*
X117765690Y-221703357D01*
X117718071Y-221608119D01*
X117670452Y-221560500D01*
X117575214Y-221512880D01*
X117337119Y-221512880D01*
X117194261Y-221560500D01*
X116860928Y-221512880D02*
X116622833Y-222512880D01*
X116432357Y-221798595D01*
X116241880Y-222512880D01*
X116003785Y-221512880D01*
X119027595Y-217432880D02*
X119027595Y-216432880D01*
X118456166Y-217432880D02*
X118884738Y-216861452D01*
X118456166Y-216432880D02*
X119027595Y-217004309D01*
X117599023Y-216766214D02*
X117599023Y-217432880D01*
X117837119Y-216385261D02*
X118075214Y-217099547D01*
X117456166Y-217099547D01*
%TO.C,K8*%
X139529976Y-203462880D02*
X139529976Y-202462880D01*
X138958547Y-203462880D02*
X139387119Y-202891452D01*
X138958547Y-202462880D02*
X139529976Y-203034309D01*
X138529976Y-202939071D02*
X138196642Y-202939071D01*
X138053785Y-203462880D02*
X138529976Y-203462880D01*
X138529976Y-202462880D01*
X138053785Y-202462880D01*
X137434738Y-202986690D02*
X137434738Y-203462880D01*
X137768071Y-202462880D02*
X137434738Y-202986690D01*
X137101404Y-202462880D01*
X136815690Y-203415261D02*
X136672833Y-203462880D01*
X136434738Y-203462880D01*
X136339500Y-203415261D01*
X136291880Y-203367642D01*
X136244261Y-203272404D01*
X136244261Y-203177166D01*
X136291880Y-203081928D01*
X136339500Y-203034309D01*
X136434738Y-202986690D01*
X136625214Y-202939071D01*
X136720452Y-202891452D01*
X136768071Y-202843833D01*
X136815690Y-202748595D01*
X136815690Y-202653357D01*
X136768071Y-202558119D01*
X136720452Y-202510500D01*
X136625214Y-202462880D01*
X136387119Y-202462880D01*
X136244261Y-202510500D01*
X135910928Y-202462880D02*
X135672833Y-203462880D01*
X135482357Y-202748595D01*
X135291880Y-203462880D01*
X135053785Y-202462880D01*
X138077595Y-198382880D02*
X138077595Y-197382880D01*
X137506166Y-198382880D02*
X137934738Y-197811452D01*
X137506166Y-197382880D02*
X138077595Y-197954309D01*
X136934738Y-197811452D02*
X137029976Y-197763833D01*
X137077595Y-197716214D01*
X137125214Y-197620976D01*
X137125214Y-197573357D01*
X137077595Y-197478119D01*
X137029976Y-197430500D01*
X136934738Y-197382880D01*
X136744261Y-197382880D01*
X136649023Y-197430500D01*
X136601404Y-197478119D01*
X136553785Y-197573357D01*
X136553785Y-197620976D01*
X136601404Y-197716214D01*
X136649023Y-197763833D01*
X136744261Y-197811452D01*
X136934738Y-197811452D01*
X137029976Y-197859071D01*
X137077595Y-197906690D01*
X137125214Y-198001928D01*
X137125214Y-198192404D01*
X137077595Y-198287642D01*
X137029976Y-198335261D01*
X136934738Y-198382880D01*
X136744261Y-198382880D01*
X136649023Y-198335261D01*
X136601404Y-198287642D01*
X136553785Y-198192404D01*
X136553785Y-198001928D01*
X136601404Y-197906690D01*
X136649023Y-197859071D01*
X136744261Y-197811452D01*
%TO.C,K35*%
X234779976Y-241562880D02*
X234779976Y-240562880D01*
X234208547Y-241562880D02*
X234637119Y-240991452D01*
X234208547Y-240562880D02*
X234779976Y-241134309D01*
X233779976Y-241039071D02*
X233446642Y-241039071D01*
X233303785Y-241562880D02*
X233779976Y-241562880D01*
X233779976Y-240562880D01*
X233303785Y-240562880D01*
X232684738Y-241086690D02*
X232684738Y-241562880D01*
X233018071Y-240562880D02*
X232684738Y-241086690D01*
X232351404Y-240562880D01*
X232065690Y-241515261D02*
X231922833Y-241562880D01*
X231684738Y-241562880D01*
X231589500Y-241515261D01*
X231541880Y-241467642D01*
X231494261Y-241372404D01*
X231494261Y-241277166D01*
X231541880Y-241181928D01*
X231589500Y-241134309D01*
X231684738Y-241086690D01*
X231875214Y-241039071D01*
X231970452Y-240991452D01*
X232018071Y-240943833D01*
X232065690Y-240848595D01*
X232065690Y-240753357D01*
X232018071Y-240658119D01*
X231970452Y-240610500D01*
X231875214Y-240562880D01*
X231637119Y-240562880D01*
X231494261Y-240610500D01*
X231160928Y-240562880D02*
X230922833Y-241562880D01*
X230732357Y-240848595D01*
X230541880Y-241562880D01*
X230303785Y-240562880D01*
X233803785Y-236482880D02*
X233803785Y-235482880D01*
X233232357Y-236482880D02*
X233660928Y-235911452D01*
X233232357Y-235482880D02*
X233803785Y-236054309D01*
X232899023Y-235482880D02*
X232279976Y-235482880D01*
X232613309Y-235863833D01*
X232470452Y-235863833D01*
X232375214Y-235911452D01*
X232327595Y-235959071D01*
X232279976Y-236054309D01*
X232279976Y-236292404D01*
X232327595Y-236387642D01*
X232375214Y-236435261D01*
X232470452Y-236482880D01*
X232756166Y-236482880D01*
X232851404Y-236435261D01*
X232899023Y-236387642D01*
X231375214Y-235482880D02*
X231851404Y-235482880D01*
X231899023Y-235959071D01*
X231851404Y-235911452D01*
X231756166Y-235863833D01*
X231518071Y-235863833D01*
X231422833Y-235911452D01*
X231375214Y-235959071D01*
X231327595Y-236054309D01*
X231327595Y-236292404D01*
X231375214Y-236387642D01*
X231422833Y-236435261D01*
X231518071Y-236482880D01*
X231756166Y-236482880D01*
X231851404Y-236435261D01*
X231899023Y-236387642D01*
%TO.C,K52*%
X310979976Y-184412880D02*
X310979976Y-183412880D01*
X310408547Y-184412880D02*
X310837119Y-183841452D01*
X310408547Y-183412880D02*
X310979976Y-183984309D01*
X309979976Y-183889071D02*
X309646642Y-183889071D01*
X309503785Y-184412880D02*
X309979976Y-184412880D01*
X309979976Y-183412880D01*
X309503785Y-183412880D01*
X308884738Y-183936690D02*
X308884738Y-184412880D01*
X309218071Y-183412880D02*
X308884738Y-183936690D01*
X308551404Y-183412880D01*
X308265690Y-184365261D02*
X308122833Y-184412880D01*
X307884738Y-184412880D01*
X307789500Y-184365261D01*
X307741880Y-184317642D01*
X307694261Y-184222404D01*
X307694261Y-184127166D01*
X307741880Y-184031928D01*
X307789500Y-183984309D01*
X307884738Y-183936690D01*
X308075214Y-183889071D01*
X308170452Y-183841452D01*
X308218071Y-183793833D01*
X308265690Y-183698595D01*
X308265690Y-183603357D01*
X308218071Y-183508119D01*
X308170452Y-183460500D01*
X308075214Y-183412880D01*
X307837119Y-183412880D01*
X307694261Y-183460500D01*
X307360928Y-183412880D02*
X307122833Y-184412880D01*
X306932357Y-183698595D01*
X306741880Y-184412880D01*
X306503785Y-183412880D01*
X310003785Y-179332880D02*
X310003785Y-178332880D01*
X309432357Y-179332880D02*
X309860928Y-178761452D01*
X309432357Y-178332880D02*
X310003785Y-178904309D01*
X308527595Y-178332880D02*
X309003785Y-178332880D01*
X309051404Y-178809071D01*
X309003785Y-178761452D01*
X308908547Y-178713833D01*
X308670452Y-178713833D01*
X308575214Y-178761452D01*
X308527595Y-178809071D01*
X308479976Y-178904309D01*
X308479976Y-179142404D01*
X308527595Y-179237642D01*
X308575214Y-179285261D01*
X308670452Y-179332880D01*
X308908547Y-179332880D01*
X309003785Y-179285261D01*
X309051404Y-179237642D01*
X308099023Y-178428119D02*
X308051404Y-178380500D01*
X307956166Y-178332880D01*
X307718071Y-178332880D01*
X307622833Y-178380500D01*
X307575214Y-178428119D01*
X307527595Y-178523357D01*
X307527595Y-178618595D01*
X307575214Y-178761452D01*
X308146642Y-179332880D01*
X307527595Y-179332880D01*
%TO.C,K60*%
X330029976Y-241562880D02*
X330029976Y-240562880D01*
X329458547Y-241562880D02*
X329887119Y-240991452D01*
X329458547Y-240562880D02*
X330029976Y-241134309D01*
X329029976Y-241039071D02*
X328696642Y-241039071D01*
X328553785Y-241562880D02*
X329029976Y-241562880D01*
X329029976Y-240562880D01*
X328553785Y-240562880D01*
X327934738Y-241086690D02*
X327934738Y-241562880D01*
X328268071Y-240562880D02*
X327934738Y-241086690D01*
X327601404Y-240562880D01*
X327315690Y-241515261D02*
X327172833Y-241562880D01*
X326934738Y-241562880D01*
X326839500Y-241515261D01*
X326791880Y-241467642D01*
X326744261Y-241372404D01*
X326744261Y-241277166D01*
X326791880Y-241181928D01*
X326839500Y-241134309D01*
X326934738Y-241086690D01*
X327125214Y-241039071D01*
X327220452Y-240991452D01*
X327268071Y-240943833D01*
X327315690Y-240848595D01*
X327315690Y-240753357D01*
X327268071Y-240658119D01*
X327220452Y-240610500D01*
X327125214Y-240562880D01*
X326887119Y-240562880D01*
X326744261Y-240610500D01*
X326410928Y-240562880D02*
X326172833Y-241562880D01*
X325982357Y-240848595D01*
X325791880Y-241562880D01*
X325553785Y-240562880D01*
X329053785Y-236482880D02*
X329053785Y-235482880D01*
X328482357Y-236482880D02*
X328910928Y-235911452D01*
X328482357Y-235482880D02*
X329053785Y-236054309D01*
X327625214Y-235482880D02*
X327815690Y-235482880D01*
X327910928Y-235530500D01*
X327958547Y-235578119D01*
X328053785Y-235720976D01*
X328101404Y-235911452D01*
X328101404Y-236292404D01*
X328053785Y-236387642D01*
X328006166Y-236435261D01*
X327910928Y-236482880D01*
X327720452Y-236482880D01*
X327625214Y-236435261D01*
X327577595Y-236387642D01*
X327529976Y-236292404D01*
X327529976Y-236054309D01*
X327577595Y-235959071D01*
X327625214Y-235911452D01*
X327720452Y-235863833D01*
X327910928Y-235863833D01*
X328006166Y-235911452D01*
X328053785Y-235959071D01*
X328101404Y-236054309D01*
X326910928Y-235482880D02*
X326815690Y-235482880D01*
X326720452Y-235530500D01*
X326672833Y-235578119D01*
X326625214Y-235673357D01*
X326577595Y-235863833D01*
X326577595Y-236101928D01*
X326625214Y-236292404D01*
X326672833Y-236387642D01*
X326720452Y-236435261D01*
X326815690Y-236482880D01*
X326910928Y-236482880D01*
X327006166Y-236435261D01*
X327053785Y-236387642D01*
X327101404Y-236292404D01*
X327149023Y-236101928D01*
X327149023Y-235863833D01*
X327101404Y-235673357D01*
X327053785Y-235578119D01*
X327006166Y-235530500D01*
X326910928Y-235482880D01*
%TO.C,K55*%
X310979976Y-241562880D02*
X310979976Y-240562880D01*
X310408547Y-241562880D02*
X310837119Y-240991452D01*
X310408547Y-240562880D02*
X310979976Y-241134309D01*
X309979976Y-241039071D02*
X309646642Y-241039071D01*
X309503785Y-241562880D02*
X309979976Y-241562880D01*
X309979976Y-240562880D01*
X309503785Y-240562880D01*
X308884738Y-241086690D02*
X308884738Y-241562880D01*
X309218071Y-240562880D02*
X308884738Y-241086690D01*
X308551404Y-240562880D01*
X308265690Y-241515261D02*
X308122833Y-241562880D01*
X307884738Y-241562880D01*
X307789500Y-241515261D01*
X307741880Y-241467642D01*
X307694261Y-241372404D01*
X307694261Y-241277166D01*
X307741880Y-241181928D01*
X307789500Y-241134309D01*
X307884738Y-241086690D01*
X308075214Y-241039071D01*
X308170452Y-240991452D01*
X308218071Y-240943833D01*
X308265690Y-240848595D01*
X308265690Y-240753357D01*
X308218071Y-240658119D01*
X308170452Y-240610500D01*
X308075214Y-240562880D01*
X307837119Y-240562880D01*
X307694261Y-240610500D01*
X307360928Y-240562880D02*
X307122833Y-241562880D01*
X306932357Y-240848595D01*
X306741880Y-241562880D01*
X306503785Y-240562880D01*
X310003785Y-236482880D02*
X310003785Y-235482880D01*
X309432357Y-236482880D02*
X309860928Y-235911452D01*
X309432357Y-235482880D02*
X310003785Y-236054309D01*
X308527595Y-235482880D02*
X309003785Y-235482880D01*
X309051404Y-235959071D01*
X309003785Y-235911452D01*
X308908547Y-235863833D01*
X308670452Y-235863833D01*
X308575214Y-235911452D01*
X308527595Y-235959071D01*
X308479976Y-236054309D01*
X308479976Y-236292404D01*
X308527595Y-236387642D01*
X308575214Y-236435261D01*
X308670452Y-236482880D01*
X308908547Y-236482880D01*
X309003785Y-236435261D01*
X309051404Y-236387642D01*
X307575214Y-235482880D02*
X308051404Y-235482880D01*
X308099023Y-235959071D01*
X308051404Y-235911452D01*
X307956166Y-235863833D01*
X307718071Y-235863833D01*
X307622833Y-235911452D01*
X307575214Y-235959071D01*
X307527595Y-236054309D01*
X307527595Y-236292404D01*
X307575214Y-236387642D01*
X307622833Y-236435261D01*
X307718071Y-236482880D01*
X307956166Y-236482880D01*
X308051404Y-236435261D01*
X308099023Y-236387642D01*
%TO.C,K12*%
X158579976Y-184412880D02*
X158579976Y-183412880D01*
X158008547Y-184412880D02*
X158437119Y-183841452D01*
X158008547Y-183412880D02*
X158579976Y-183984309D01*
X157579976Y-183889071D02*
X157246642Y-183889071D01*
X157103785Y-184412880D02*
X157579976Y-184412880D01*
X157579976Y-183412880D01*
X157103785Y-183412880D01*
X156484738Y-183936690D02*
X156484738Y-184412880D01*
X156818071Y-183412880D02*
X156484738Y-183936690D01*
X156151404Y-183412880D01*
X155865690Y-184365261D02*
X155722833Y-184412880D01*
X155484738Y-184412880D01*
X155389500Y-184365261D01*
X155341880Y-184317642D01*
X155294261Y-184222404D01*
X155294261Y-184127166D01*
X155341880Y-184031928D01*
X155389500Y-183984309D01*
X155484738Y-183936690D01*
X155675214Y-183889071D01*
X155770452Y-183841452D01*
X155818071Y-183793833D01*
X155865690Y-183698595D01*
X155865690Y-183603357D01*
X155818071Y-183508119D01*
X155770452Y-183460500D01*
X155675214Y-183412880D01*
X155437119Y-183412880D01*
X155294261Y-183460500D01*
X154960928Y-183412880D02*
X154722833Y-184412880D01*
X154532357Y-183698595D01*
X154341880Y-184412880D01*
X154103785Y-183412880D01*
X157603785Y-179332880D02*
X157603785Y-178332880D01*
X157032357Y-179332880D02*
X157460928Y-178761452D01*
X157032357Y-178332880D02*
X157603785Y-178904309D01*
X156079976Y-179332880D02*
X156651404Y-179332880D01*
X156365690Y-179332880D02*
X156365690Y-178332880D01*
X156460928Y-178475738D01*
X156556166Y-178570976D01*
X156651404Y-178618595D01*
X155699023Y-178428119D02*
X155651404Y-178380500D01*
X155556166Y-178332880D01*
X155318071Y-178332880D01*
X155222833Y-178380500D01*
X155175214Y-178428119D01*
X155127595Y-178523357D01*
X155127595Y-178618595D01*
X155175214Y-178761452D01*
X155746642Y-179332880D01*
X155127595Y-179332880D01*
%TO.C,K1*%
X120479976Y-165362880D02*
X120479976Y-164362880D01*
X119908547Y-165362880D02*
X120337119Y-164791452D01*
X119908547Y-164362880D02*
X120479976Y-164934309D01*
X119479976Y-164839071D02*
X119146642Y-164839071D01*
X119003785Y-165362880D02*
X119479976Y-165362880D01*
X119479976Y-164362880D01*
X119003785Y-164362880D01*
X118384738Y-164886690D02*
X118384738Y-165362880D01*
X118718071Y-164362880D02*
X118384738Y-164886690D01*
X118051404Y-164362880D01*
X117765690Y-165315261D02*
X117622833Y-165362880D01*
X117384738Y-165362880D01*
X117289500Y-165315261D01*
X117241880Y-165267642D01*
X117194261Y-165172404D01*
X117194261Y-165077166D01*
X117241880Y-164981928D01*
X117289500Y-164934309D01*
X117384738Y-164886690D01*
X117575214Y-164839071D01*
X117670452Y-164791452D01*
X117718071Y-164743833D01*
X117765690Y-164648595D01*
X117765690Y-164553357D01*
X117718071Y-164458119D01*
X117670452Y-164410500D01*
X117575214Y-164362880D01*
X117337119Y-164362880D01*
X117194261Y-164410500D01*
X116860928Y-164362880D02*
X116622833Y-165362880D01*
X116432357Y-164648595D01*
X116241880Y-165362880D01*
X116003785Y-164362880D01*
X119027595Y-160282880D02*
X119027595Y-159282880D01*
X118456166Y-160282880D02*
X118884738Y-159711452D01*
X118456166Y-159282880D02*
X119027595Y-159854309D01*
X117503785Y-160282880D02*
X118075214Y-160282880D01*
X117789500Y-160282880D02*
X117789500Y-159282880D01*
X117884738Y-159425738D01*
X117979976Y-159520976D01*
X118075214Y-159568595D01*
%TO.C,K14*%
X158579976Y-222512880D02*
X158579976Y-221512880D01*
X158008547Y-222512880D02*
X158437119Y-221941452D01*
X158008547Y-221512880D02*
X158579976Y-222084309D01*
X157579976Y-221989071D02*
X157246642Y-221989071D01*
X157103785Y-222512880D02*
X157579976Y-222512880D01*
X157579976Y-221512880D01*
X157103785Y-221512880D01*
X156484738Y-222036690D02*
X156484738Y-222512880D01*
X156818071Y-221512880D02*
X156484738Y-222036690D01*
X156151404Y-221512880D01*
X155865690Y-222465261D02*
X155722833Y-222512880D01*
X155484738Y-222512880D01*
X155389500Y-222465261D01*
X155341880Y-222417642D01*
X155294261Y-222322404D01*
X155294261Y-222227166D01*
X155341880Y-222131928D01*
X155389500Y-222084309D01*
X155484738Y-222036690D01*
X155675214Y-221989071D01*
X155770452Y-221941452D01*
X155818071Y-221893833D01*
X155865690Y-221798595D01*
X155865690Y-221703357D01*
X155818071Y-221608119D01*
X155770452Y-221560500D01*
X155675214Y-221512880D01*
X155437119Y-221512880D01*
X155294261Y-221560500D01*
X154960928Y-221512880D02*
X154722833Y-222512880D01*
X154532357Y-221798595D01*
X154341880Y-222512880D01*
X154103785Y-221512880D01*
X157603785Y-217432880D02*
X157603785Y-216432880D01*
X157032357Y-217432880D02*
X157460928Y-216861452D01*
X157032357Y-216432880D02*
X157603785Y-217004309D01*
X156079976Y-217432880D02*
X156651404Y-217432880D01*
X156365690Y-217432880D02*
X156365690Y-216432880D01*
X156460928Y-216575738D01*
X156556166Y-216670976D01*
X156651404Y-216718595D01*
X155222833Y-216766214D02*
X155222833Y-217432880D01*
X155460928Y-216385261D02*
X155699023Y-217099547D01*
X155079976Y-217099547D01*
%TO.C,K47*%
X291929976Y-184412880D02*
X291929976Y-183412880D01*
X291358547Y-184412880D02*
X291787119Y-183841452D01*
X291358547Y-183412880D02*
X291929976Y-183984309D01*
X290929976Y-183889071D02*
X290596642Y-183889071D01*
X290453785Y-184412880D02*
X290929976Y-184412880D01*
X290929976Y-183412880D01*
X290453785Y-183412880D01*
X289834738Y-183936690D02*
X289834738Y-184412880D01*
X290168071Y-183412880D02*
X289834738Y-183936690D01*
X289501404Y-183412880D01*
X289215690Y-184365261D02*
X289072833Y-184412880D01*
X288834738Y-184412880D01*
X288739500Y-184365261D01*
X288691880Y-184317642D01*
X288644261Y-184222404D01*
X288644261Y-184127166D01*
X288691880Y-184031928D01*
X288739500Y-183984309D01*
X288834738Y-183936690D01*
X289025214Y-183889071D01*
X289120452Y-183841452D01*
X289168071Y-183793833D01*
X289215690Y-183698595D01*
X289215690Y-183603357D01*
X289168071Y-183508119D01*
X289120452Y-183460500D01*
X289025214Y-183412880D01*
X288787119Y-183412880D01*
X288644261Y-183460500D01*
X288310928Y-183412880D02*
X288072833Y-184412880D01*
X287882357Y-183698595D01*
X287691880Y-184412880D01*
X287453785Y-183412880D01*
X290953785Y-179332880D02*
X290953785Y-178332880D01*
X290382357Y-179332880D02*
X290810928Y-178761452D01*
X290382357Y-178332880D02*
X290953785Y-178904309D01*
X289525214Y-178666214D02*
X289525214Y-179332880D01*
X289763309Y-178285261D02*
X290001404Y-178999547D01*
X289382357Y-178999547D01*
X289096642Y-178332880D02*
X288429976Y-178332880D01*
X288858547Y-179332880D01*
%TO.C,K46*%
X291929976Y-165362880D02*
X291929976Y-164362880D01*
X291358547Y-165362880D02*
X291787119Y-164791452D01*
X291358547Y-164362880D02*
X291929976Y-164934309D01*
X290929976Y-164839071D02*
X290596642Y-164839071D01*
X290453785Y-165362880D02*
X290929976Y-165362880D01*
X290929976Y-164362880D01*
X290453785Y-164362880D01*
X289834738Y-164886690D02*
X289834738Y-165362880D01*
X290168071Y-164362880D02*
X289834738Y-164886690D01*
X289501404Y-164362880D01*
X289215690Y-165315261D02*
X289072833Y-165362880D01*
X288834738Y-165362880D01*
X288739500Y-165315261D01*
X288691880Y-165267642D01*
X288644261Y-165172404D01*
X288644261Y-165077166D01*
X288691880Y-164981928D01*
X288739500Y-164934309D01*
X288834738Y-164886690D01*
X289025214Y-164839071D01*
X289120452Y-164791452D01*
X289168071Y-164743833D01*
X289215690Y-164648595D01*
X289215690Y-164553357D01*
X289168071Y-164458119D01*
X289120452Y-164410500D01*
X289025214Y-164362880D01*
X288787119Y-164362880D01*
X288644261Y-164410500D01*
X288310928Y-164362880D02*
X288072833Y-165362880D01*
X287882357Y-164648595D01*
X287691880Y-165362880D01*
X287453785Y-164362880D01*
X290953785Y-160282880D02*
X290953785Y-159282880D01*
X290382357Y-160282880D02*
X290810928Y-159711452D01*
X290382357Y-159282880D02*
X290953785Y-159854309D01*
X289525214Y-159616214D02*
X289525214Y-160282880D01*
X289763309Y-159235261D02*
X290001404Y-159949547D01*
X289382357Y-159949547D01*
X288572833Y-159282880D02*
X288763309Y-159282880D01*
X288858547Y-159330500D01*
X288906166Y-159378119D01*
X289001404Y-159520976D01*
X289049023Y-159711452D01*
X289049023Y-160092404D01*
X289001404Y-160187642D01*
X288953785Y-160235261D01*
X288858547Y-160282880D01*
X288668071Y-160282880D01*
X288572833Y-160235261D01*
X288525214Y-160187642D01*
X288477595Y-160092404D01*
X288477595Y-159854309D01*
X288525214Y-159759071D01*
X288572833Y-159711452D01*
X288668071Y-159663833D01*
X288858547Y-159663833D01*
X288953785Y-159711452D01*
X289001404Y-159759071D01*
X289049023Y-159854309D01*
%TO.C,K9*%
X139529976Y-222512880D02*
X139529976Y-221512880D01*
X138958547Y-222512880D02*
X139387119Y-221941452D01*
X138958547Y-221512880D02*
X139529976Y-222084309D01*
X138529976Y-221989071D02*
X138196642Y-221989071D01*
X138053785Y-222512880D02*
X138529976Y-222512880D01*
X138529976Y-221512880D01*
X138053785Y-221512880D01*
X137434738Y-222036690D02*
X137434738Y-222512880D01*
X137768071Y-221512880D02*
X137434738Y-222036690D01*
X137101404Y-221512880D01*
X136815690Y-222465261D02*
X136672833Y-222512880D01*
X136434738Y-222512880D01*
X136339500Y-222465261D01*
X136291880Y-222417642D01*
X136244261Y-222322404D01*
X136244261Y-222227166D01*
X136291880Y-222131928D01*
X136339500Y-222084309D01*
X136434738Y-222036690D01*
X136625214Y-221989071D01*
X136720452Y-221941452D01*
X136768071Y-221893833D01*
X136815690Y-221798595D01*
X136815690Y-221703357D01*
X136768071Y-221608119D01*
X136720452Y-221560500D01*
X136625214Y-221512880D01*
X136387119Y-221512880D01*
X136244261Y-221560500D01*
X135910928Y-221512880D02*
X135672833Y-222512880D01*
X135482357Y-221798595D01*
X135291880Y-222512880D01*
X135053785Y-221512880D01*
X138077595Y-217432880D02*
X138077595Y-216432880D01*
X137506166Y-217432880D02*
X137934738Y-216861452D01*
X137506166Y-216432880D02*
X138077595Y-217004309D01*
X137029976Y-217432880D02*
X136839500Y-217432880D01*
X136744261Y-217385261D01*
X136696642Y-217337642D01*
X136601404Y-217194785D01*
X136553785Y-217004309D01*
X136553785Y-216623357D01*
X136601404Y-216528119D01*
X136649023Y-216480500D01*
X136744261Y-216432880D01*
X136934738Y-216432880D01*
X137029976Y-216480500D01*
X137077595Y-216528119D01*
X137125214Y-216623357D01*
X137125214Y-216861452D01*
X137077595Y-216956690D01*
X137029976Y-217004309D01*
X136934738Y-217051928D01*
X136744261Y-217051928D01*
X136649023Y-217004309D01*
X136601404Y-216956690D01*
X136553785Y-216861452D01*
%TO.C,K15*%
X158579976Y-241562880D02*
X158579976Y-240562880D01*
X158008547Y-241562880D02*
X158437119Y-240991452D01*
X158008547Y-240562880D02*
X158579976Y-241134309D01*
X157579976Y-241039071D02*
X157246642Y-241039071D01*
X157103785Y-241562880D02*
X157579976Y-241562880D01*
X157579976Y-240562880D01*
X157103785Y-240562880D01*
X156484738Y-241086690D02*
X156484738Y-241562880D01*
X156818071Y-240562880D02*
X156484738Y-241086690D01*
X156151404Y-240562880D01*
X155865690Y-241515261D02*
X155722833Y-241562880D01*
X155484738Y-241562880D01*
X155389500Y-241515261D01*
X155341880Y-241467642D01*
X155294261Y-241372404D01*
X155294261Y-241277166D01*
X155341880Y-241181928D01*
X155389500Y-241134309D01*
X155484738Y-241086690D01*
X155675214Y-241039071D01*
X155770452Y-240991452D01*
X155818071Y-240943833D01*
X155865690Y-240848595D01*
X155865690Y-240753357D01*
X155818071Y-240658119D01*
X155770452Y-240610500D01*
X155675214Y-240562880D01*
X155437119Y-240562880D01*
X155294261Y-240610500D01*
X154960928Y-240562880D02*
X154722833Y-241562880D01*
X154532357Y-240848595D01*
X154341880Y-241562880D01*
X154103785Y-240562880D01*
X157603785Y-236482880D02*
X157603785Y-235482880D01*
X157032357Y-236482880D02*
X157460928Y-235911452D01*
X157032357Y-235482880D02*
X157603785Y-236054309D01*
X156079976Y-236482880D02*
X156651404Y-236482880D01*
X156365690Y-236482880D02*
X156365690Y-235482880D01*
X156460928Y-235625738D01*
X156556166Y-235720976D01*
X156651404Y-235768595D01*
X155175214Y-235482880D02*
X155651404Y-235482880D01*
X155699023Y-235959071D01*
X155651404Y-235911452D01*
X155556166Y-235863833D01*
X155318071Y-235863833D01*
X155222833Y-235911452D01*
X155175214Y-235959071D01*
X155127595Y-236054309D01*
X155127595Y-236292404D01*
X155175214Y-236387642D01*
X155222833Y-236435261D01*
X155318071Y-236482880D01*
X155556166Y-236482880D01*
X155651404Y-236435261D01*
X155699023Y-236387642D01*
%TO.C,K2*%
X120479976Y-184412880D02*
X120479976Y-183412880D01*
X119908547Y-184412880D02*
X120337119Y-183841452D01*
X119908547Y-183412880D02*
X120479976Y-183984309D01*
X119479976Y-183889071D02*
X119146642Y-183889071D01*
X119003785Y-184412880D02*
X119479976Y-184412880D01*
X119479976Y-183412880D01*
X119003785Y-183412880D01*
X118384738Y-183936690D02*
X118384738Y-184412880D01*
X118718071Y-183412880D02*
X118384738Y-183936690D01*
X118051404Y-183412880D01*
X117765690Y-184365261D02*
X117622833Y-184412880D01*
X117384738Y-184412880D01*
X117289500Y-184365261D01*
X117241880Y-184317642D01*
X117194261Y-184222404D01*
X117194261Y-184127166D01*
X117241880Y-184031928D01*
X117289500Y-183984309D01*
X117384738Y-183936690D01*
X117575214Y-183889071D01*
X117670452Y-183841452D01*
X117718071Y-183793833D01*
X117765690Y-183698595D01*
X117765690Y-183603357D01*
X117718071Y-183508119D01*
X117670452Y-183460500D01*
X117575214Y-183412880D01*
X117337119Y-183412880D01*
X117194261Y-183460500D01*
X116860928Y-183412880D02*
X116622833Y-184412880D01*
X116432357Y-183698595D01*
X116241880Y-184412880D01*
X116003785Y-183412880D01*
X119027595Y-179332880D02*
X119027595Y-178332880D01*
X118456166Y-179332880D02*
X118884738Y-178761452D01*
X118456166Y-178332880D02*
X119027595Y-178904309D01*
X118075214Y-178428119D02*
X118027595Y-178380500D01*
X117932357Y-178332880D01*
X117694261Y-178332880D01*
X117599023Y-178380500D01*
X117551404Y-178428119D01*
X117503785Y-178523357D01*
X117503785Y-178618595D01*
X117551404Y-178761452D01*
X118122833Y-179332880D01*
X117503785Y-179332880D01*
%TD*%
M02*
