%TF.GenerationSoftware,KiCad,Pcbnew,5.1.10*%
%TF.CreationDate,2021-06-16T10:43:04-05:00*%
%TF.ProjectId,olkbd_ble,6f6c6b62-645f-4626-9c65-2e6b69636164,rev?*%
%TF.SameCoordinates,Original*%
%TF.FileFunction,Profile,NP*%
%FSLAX46Y46*%
G04 Gerber Fmt 4.6, Leading zero omitted, Abs format (unit mm)*
G04 Created by KiCad (PCBNEW 5.1.10) date 2021-06-16 10:43:04*
%MOMM*%
%LPD*%
G01*
G04 APERTURE LIST*
%TA.AperFunction,Profile*%
%ADD10C,0.050000*%
%TD*%
G04 APERTURE END LIST*
D10*
X273304000Y-243332000D02*
X269621000Y-243332000D01*
X307721000Y-247904000D02*
X311404000Y-247904000D01*
X273304000Y-228854000D02*
X273304000Y-224282000D01*
X326771000Y-205232000D02*
X326771000Y-209804000D01*
X326771000Y-243332000D02*
X326771000Y-247904000D01*
X326771000Y-228854000D02*
X330454000Y-228854000D01*
X288671000Y-186182000D02*
X288671000Y-190754000D01*
X292354000Y-224282000D02*
X288671000Y-224282000D01*
X292354000Y-209804000D02*
X292354000Y-205232000D01*
X311404000Y-186182000D02*
X307721000Y-186182000D01*
X307721000Y-243332000D02*
X307721000Y-247904000D01*
X307721000Y-171704000D02*
X311404000Y-171704000D01*
X330454000Y-224282000D02*
X326771000Y-224282000D01*
X330454000Y-209804000D02*
X330454000Y-205232000D01*
X326771000Y-171704000D02*
X330454000Y-171704000D01*
X288671000Y-171704000D02*
X292354000Y-171704000D01*
X311404000Y-190754000D02*
X311404000Y-186182000D01*
X269621000Y-224282000D02*
X269621000Y-228854000D01*
X292354000Y-205232000D02*
X288671000Y-205232000D01*
X288671000Y-209804000D02*
X292354000Y-209804000D01*
X292354000Y-247904000D02*
X292354000Y-243332000D01*
X307721000Y-228854000D02*
X311404000Y-228854000D01*
X288671000Y-190754000D02*
X292354000Y-190754000D01*
X292354000Y-167132000D02*
X288671000Y-167132000D01*
X288671000Y-205232000D02*
X288671000Y-209804000D01*
X288671000Y-243332000D02*
X288671000Y-247904000D01*
X311404000Y-247904000D02*
X311404000Y-243332000D01*
X330454000Y-243332000D02*
X326771000Y-243332000D01*
X311404000Y-167132000D02*
X307721000Y-167132000D01*
X307721000Y-205232000D02*
X307721000Y-209804000D01*
X330454000Y-228854000D02*
X330454000Y-224282000D01*
X326771000Y-224282000D02*
X326771000Y-228854000D01*
X288671000Y-228854000D02*
X292354000Y-228854000D01*
X273304000Y-205232000D02*
X269621000Y-205232000D01*
X307721000Y-186182000D02*
X307721000Y-190754000D01*
X330454000Y-171704000D02*
X330454000Y-167132000D01*
X307721000Y-224282000D02*
X307721000Y-228854000D01*
X330454000Y-205232000D02*
X326771000Y-205232000D01*
X326771000Y-209804000D02*
X330454000Y-209804000D01*
X269621000Y-209804000D02*
X273304000Y-209804000D01*
X273304000Y-247904000D02*
X273304000Y-243332000D01*
X292354000Y-243332000D02*
X288671000Y-243332000D01*
X292354000Y-228854000D02*
X292354000Y-224282000D01*
X288671000Y-224282000D02*
X288671000Y-228854000D01*
X326771000Y-247904000D02*
X330454000Y-247904000D01*
X311404000Y-224282000D02*
X307721000Y-224282000D01*
X269621000Y-186182000D02*
X269621000Y-190754000D01*
X311404000Y-205232000D02*
X307721000Y-205232000D01*
X307721000Y-209804000D02*
X311404000Y-209804000D01*
X311404000Y-243332000D02*
X307721000Y-243332000D01*
X311404000Y-228854000D02*
X311404000Y-224282000D01*
X326771000Y-186182000D02*
X326771000Y-190754000D01*
X292354000Y-171704000D02*
X292354000Y-167132000D01*
X288671000Y-247904000D02*
X292354000Y-247904000D01*
X273304000Y-224282000D02*
X269621000Y-224282000D01*
X292354000Y-190754000D02*
X292354000Y-186182000D01*
X292354000Y-186182000D02*
X288671000Y-186182000D01*
X273304000Y-209804000D02*
X273304000Y-205232000D01*
X269621000Y-190754000D02*
X273304000Y-190754000D01*
X273304000Y-167132000D02*
X269621000Y-167132000D01*
X269621000Y-205232000D02*
X269621000Y-209804000D01*
X269621000Y-243332000D02*
X269621000Y-247904000D01*
X269621000Y-171704000D02*
X273304000Y-171704000D01*
X330454000Y-247904000D02*
X330454000Y-243332000D01*
X326771000Y-190754000D02*
X330454000Y-190754000D01*
X330454000Y-167132000D02*
X326771000Y-167132000D01*
X269621000Y-167132000D02*
X269621000Y-171704000D01*
X273304000Y-171704000D02*
X273304000Y-167132000D01*
X273304000Y-190754000D02*
X273304000Y-186182000D01*
X326771000Y-167132000D02*
X326771000Y-171704000D01*
X311404000Y-171704000D02*
X311404000Y-167132000D01*
X288671000Y-167132000D02*
X288671000Y-171704000D01*
X269621000Y-228854000D02*
X273304000Y-228854000D01*
X311404000Y-209804000D02*
X311404000Y-205232000D01*
X307721000Y-190754000D02*
X311404000Y-190754000D01*
X273304000Y-186182000D02*
X269621000Y-186182000D01*
X330454000Y-190754000D02*
X330454000Y-186182000D01*
X330454000Y-186182000D02*
X326771000Y-186182000D01*
X307721000Y-167132000D02*
X307721000Y-171704000D01*
X269621000Y-247904000D02*
X273304000Y-247904000D01*
X197104000Y-243332000D02*
X193421000Y-243332000D01*
X231521000Y-247904000D02*
X235204000Y-247904000D01*
X197104000Y-228854000D02*
X197104000Y-224282000D01*
X250571000Y-205232000D02*
X250571000Y-209804000D01*
X250571000Y-243332000D02*
X250571000Y-247904000D01*
X250571000Y-228854000D02*
X254254000Y-228854000D01*
X212471000Y-186182000D02*
X212471000Y-190754000D01*
X216154000Y-224282000D02*
X212471000Y-224282000D01*
X216154000Y-209804000D02*
X216154000Y-205232000D01*
X235204000Y-186182000D02*
X231521000Y-186182000D01*
X231521000Y-243332000D02*
X231521000Y-247904000D01*
X231521000Y-171704000D02*
X235204000Y-171704000D01*
X254254000Y-224282000D02*
X250571000Y-224282000D01*
X254254000Y-209804000D02*
X254254000Y-205232000D01*
X250571000Y-171704000D02*
X254254000Y-171704000D01*
X212471000Y-171704000D02*
X216154000Y-171704000D01*
X235204000Y-190754000D02*
X235204000Y-186182000D01*
X193421000Y-224282000D02*
X193421000Y-228854000D01*
X216154000Y-205232000D02*
X212471000Y-205232000D01*
X212471000Y-209804000D02*
X216154000Y-209804000D01*
X216154000Y-247904000D02*
X216154000Y-243332000D01*
X231521000Y-228854000D02*
X235204000Y-228854000D01*
X212471000Y-190754000D02*
X216154000Y-190754000D01*
X216154000Y-167132000D02*
X212471000Y-167132000D01*
X212471000Y-205232000D02*
X212471000Y-209804000D01*
X212471000Y-243332000D02*
X212471000Y-247904000D01*
X235204000Y-247904000D02*
X235204000Y-243332000D01*
X254254000Y-243332000D02*
X250571000Y-243332000D01*
X235204000Y-167132000D02*
X231521000Y-167132000D01*
X231521000Y-205232000D02*
X231521000Y-209804000D01*
X254254000Y-228854000D02*
X254254000Y-224282000D01*
X250571000Y-224282000D02*
X250571000Y-228854000D01*
X212471000Y-228854000D02*
X216154000Y-228854000D01*
X197104000Y-205232000D02*
X193421000Y-205232000D01*
X231521000Y-186182000D02*
X231521000Y-190754000D01*
X254254000Y-171704000D02*
X254254000Y-167132000D01*
X231521000Y-224282000D02*
X231521000Y-228854000D01*
X254254000Y-205232000D02*
X250571000Y-205232000D01*
X250571000Y-209804000D02*
X254254000Y-209804000D01*
X193421000Y-209804000D02*
X197104000Y-209804000D01*
X197104000Y-247904000D02*
X197104000Y-243332000D01*
X216154000Y-243332000D02*
X212471000Y-243332000D01*
X216154000Y-228854000D02*
X216154000Y-224282000D01*
X212471000Y-224282000D02*
X212471000Y-228854000D01*
X250571000Y-247904000D02*
X254254000Y-247904000D01*
X235204000Y-224282000D02*
X231521000Y-224282000D01*
X193421000Y-186182000D02*
X193421000Y-190754000D01*
X235204000Y-205232000D02*
X231521000Y-205232000D01*
X231521000Y-209804000D02*
X235204000Y-209804000D01*
X235204000Y-243332000D02*
X231521000Y-243332000D01*
X235204000Y-228854000D02*
X235204000Y-224282000D01*
X250571000Y-186182000D02*
X250571000Y-190754000D01*
X216154000Y-171704000D02*
X216154000Y-167132000D01*
X212471000Y-247904000D02*
X216154000Y-247904000D01*
X197104000Y-224282000D02*
X193421000Y-224282000D01*
X216154000Y-190754000D02*
X216154000Y-186182000D01*
X216154000Y-186182000D02*
X212471000Y-186182000D01*
X197104000Y-209804000D02*
X197104000Y-205232000D01*
X193421000Y-190754000D02*
X197104000Y-190754000D01*
X197104000Y-167132000D02*
X193421000Y-167132000D01*
X193421000Y-205232000D02*
X193421000Y-209804000D01*
X193421000Y-243332000D02*
X193421000Y-247904000D01*
X193421000Y-171704000D02*
X197104000Y-171704000D01*
X254254000Y-247904000D02*
X254254000Y-243332000D01*
X250571000Y-190754000D02*
X254254000Y-190754000D01*
X254254000Y-167132000D02*
X250571000Y-167132000D01*
X193421000Y-167132000D02*
X193421000Y-171704000D01*
X197104000Y-171704000D02*
X197104000Y-167132000D01*
X197104000Y-190754000D02*
X197104000Y-186182000D01*
X250571000Y-167132000D02*
X250571000Y-171704000D01*
X235204000Y-171704000D02*
X235204000Y-167132000D01*
X212471000Y-167132000D02*
X212471000Y-171704000D01*
X193421000Y-228854000D02*
X197104000Y-228854000D01*
X235204000Y-209804000D02*
X235204000Y-205232000D01*
X231521000Y-190754000D02*
X235204000Y-190754000D01*
X197104000Y-186182000D02*
X193421000Y-186182000D01*
X254254000Y-190754000D02*
X254254000Y-186182000D01*
X254254000Y-186182000D02*
X250571000Y-186182000D01*
X231521000Y-167132000D02*
X231521000Y-171704000D01*
X193421000Y-247904000D02*
X197104000Y-247904000D01*
X159004000Y-243332000D02*
X155321000Y-243332000D01*
X159004000Y-228854000D02*
X159004000Y-224282000D01*
X174371000Y-186182000D02*
X174371000Y-190754000D01*
X178054000Y-224282000D02*
X174371000Y-224282000D01*
X178054000Y-209804000D02*
X178054000Y-205232000D01*
X174371000Y-171704000D02*
X178054000Y-171704000D01*
X155321000Y-224282000D02*
X155321000Y-228854000D01*
X178054000Y-205232000D02*
X174371000Y-205232000D01*
X174371000Y-209804000D02*
X178054000Y-209804000D01*
X178054000Y-247904000D02*
X178054000Y-243332000D01*
X174371000Y-190754000D02*
X178054000Y-190754000D01*
X178054000Y-167132000D02*
X174371000Y-167132000D01*
X174371000Y-205232000D02*
X174371000Y-209804000D01*
X174371000Y-243332000D02*
X174371000Y-247904000D01*
X174371000Y-228854000D02*
X178054000Y-228854000D01*
X159004000Y-205232000D02*
X155321000Y-205232000D01*
X155321000Y-209804000D02*
X159004000Y-209804000D01*
X159004000Y-247904000D02*
X159004000Y-243332000D01*
X178054000Y-243332000D02*
X174371000Y-243332000D01*
X178054000Y-228854000D02*
X178054000Y-224282000D01*
X174371000Y-224282000D02*
X174371000Y-228854000D01*
X155321000Y-186182000D02*
X155321000Y-190754000D01*
X178054000Y-171704000D02*
X178054000Y-167132000D01*
X174371000Y-247904000D02*
X178054000Y-247904000D01*
X159004000Y-224282000D02*
X155321000Y-224282000D01*
X178054000Y-190754000D02*
X178054000Y-186182000D01*
X178054000Y-186182000D02*
X174371000Y-186182000D01*
X159004000Y-209804000D02*
X159004000Y-205232000D01*
X155321000Y-190754000D02*
X159004000Y-190754000D01*
X159004000Y-167132000D02*
X155321000Y-167132000D01*
X155321000Y-205232000D02*
X155321000Y-209804000D01*
X155321000Y-243332000D02*
X155321000Y-247904000D01*
X155321000Y-171704000D02*
X159004000Y-171704000D01*
X155321000Y-167132000D02*
X155321000Y-171704000D01*
X159004000Y-171704000D02*
X159004000Y-167132000D01*
X159004000Y-190754000D02*
X159004000Y-186182000D01*
X174371000Y-167132000D02*
X174371000Y-171704000D01*
X155321000Y-228854000D02*
X159004000Y-228854000D01*
X159004000Y-186182000D02*
X155321000Y-186182000D01*
X155321000Y-247904000D02*
X159004000Y-247904000D01*
X139954000Y-243332000D02*
X136271000Y-243332000D01*
X139954000Y-228854000D02*
X139954000Y-224282000D01*
X136271000Y-224282000D02*
X136271000Y-228854000D01*
X139954000Y-205232000D02*
X136271000Y-205232000D01*
X136271000Y-209804000D02*
X139954000Y-209804000D01*
X139954000Y-247904000D02*
X139954000Y-243332000D01*
X136271000Y-186182000D02*
X136271000Y-190754000D01*
X139954000Y-224282000D02*
X136271000Y-224282000D01*
X139954000Y-209804000D02*
X139954000Y-205232000D01*
X136271000Y-190754000D02*
X139954000Y-190754000D01*
X139954000Y-167132000D02*
X136271000Y-167132000D01*
X136271000Y-205232000D02*
X136271000Y-209804000D01*
X136271000Y-243332000D02*
X136271000Y-247904000D01*
X136271000Y-171704000D02*
X139954000Y-171704000D01*
X136271000Y-167132000D02*
X136271000Y-171704000D01*
X139954000Y-171704000D02*
X139954000Y-167132000D01*
X139954000Y-190754000D02*
X139954000Y-186182000D01*
X136271000Y-228854000D02*
X139954000Y-228854000D01*
X139954000Y-186182000D02*
X136271000Y-186182000D01*
X136271000Y-247904000D02*
X139954000Y-247904000D01*
X120904000Y-247904000D02*
X120904000Y-243332000D01*
X117221000Y-243332000D02*
X117221000Y-247904000D01*
X120904000Y-243332000D02*
X117221000Y-243332000D01*
X117221000Y-247904000D02*
X120904000Y-247904000D01*
X117221000Y-224282000D02*
X117221000Y-228854000D01*
X117221000Y-228854000D02*
X120904000Y-228854000D01*
X120904000Y-205232000D02*
X117221000Y-205232000D01*
X117221000Y-209804000D02*
X120904000Y-209804000D01*
X117221000Y-205232000D02*
X117221000Y-209804000D01*
X120904000Y-209804000D02*
X120904000Y-205232000D01*
X120904000Y-228854000D02*
X120904000Y-224282000D01*
X120904000Y-224282000D02*
X117221000Y-224282000D01*
X120904000Y-186182000D02*
X117221000Y-186182000D01*
X117221000Y-190754000D02*
X120904000Y-190754000D01*
X117221000Y-186182000D02*
X117221000Y-190754000D01*
X120904000Y-190754000D02*
X120904000Y-186182000D01*
X120904000Y-171704000D02*
X120904000Y-167132000D01*
X117221000Y-171704000D02*
X120904000Y-171704000D01*
X117221000Y-167132000D02*
X117221000Y-171704000D01*
X120904000Y-167132000D02*
X117221000Y-167132000D01*
X335610200Y-73666350D02*
X335610200Y-59670950D01*
X283514800Y-116820950D02*
X283514800Y-130816350D01*
X297510200Y-111766350D02*
X297510200Y-97770950D01*
X335610200Y-149866350D02*
X335610200Y-135870950D01*
X145137500Y-249650000D02*
G75*
G02*
X145137500Y-251650000I0J-1000000D01*
G01*
X226137500Y-251650000D02*
G75*
G02*
X226137500Y-249650000I0J1000000D01*
G01*
X245414800Y-73666350D02*
X259410200Y-73666350D01*
X126060200Y-59670950D02*
X112064800Y-59670950D01*
X126060200Y-97770950D02*
X112064800Y-97770950D01*
X302564800Y-130816350D02*
X316560200Y-130816350D01*
X335610200Y-135870950D02*
X321614800Y-135870950D01*
X188264800Y-116820950D02*
X188264800Y-130816350D01*
X226364800Y-78720950D02*
X226364800Y-92716350D01*
X150164800Y-135870950D02*
X150164800Y-149866350D01*
X335610200Y-78720950D02*
X321614800Y-78720950D01*
X259410200Y-73666350D02*
X259410200Y-59670950D01*
X202260200Y-111766350D02*
X202260200Y-97770950D01*
X145137500Y-251650000D02*
X78581250Y-251650000D01*
X145110200Y-73666350D02*
X145110200Y-59670950D01*
X302564800Y-116820950D02*
X302564800Y-130816350D01*
X112064800Y-111766350D02*
X126060200Y-111766350D01*
X240360200Y-78720950D02*
X226364800Y-78720950D01*
X338137500Y-346900000D02*
X78581250Y-346900000D01*
X221310200Y-92716350D02*
X221310200Y-78720950D01*
X164160200Y-149866350D02*
X164160200Y-135870950D01*
X145110200Y-78720950D02*
X131114800Y-78720950D01*
X112064800Y-97770950D02*
X112064800Y-111766350D01*
X145137500Y-152400000D02*
G75*
G02*
X145137500Y-154400000I0J-1000000D01*
G01*
X112064800Y-130816350D02*
X126060200Y-130816350D01*
X240360200Y-59670950D02*
X226364800Y-59670950D01*
X207314800Y-78720950D02*
X207314800Y-92716350D01*
X202260200Y-149866350D02*
X202260200Y-135870950D01*
X278460200Y-59670950D02*
X264464800Y-59670950D01*
X221310200Y-135870950D02*
X207314800Y-135870950D01*
X221310200Y-130816350D02*
X221310200Y-116820950D01*
X109537500Y-128587500D02*
X109537500Y-121443750D01*
X126060200Y-149866350D02*
X126060200Y-135870950D01*
X264464800Y-130816350D02*
X278460200Y-130816350D01*
X126060200Y-78720950D02*
X112064800Y-78720950D01*
X149137500Y-251650000D02*
G75*
G02*
X149137500Y-249650000I0J1000000D01*
G01*
X278460200Y-116820950D02*
X264464800Y-116820950D01*
X112064800Y-59670950D02*
X112064800Y-73666350D01*
X109537500Y-121443750D02*
X109537500Y-57150000D01*
X149137500Y-152400000D02*
X222137500Y-152400000D01*
X145110200Y-149866350D02*
X145110200Y-135870950D01*
X240360200Y-92716350D02*
X240360200Y-78720950D01*
X321614800Y-59670950D02*
X321614800Y-73666350D01*
X169214800Y-92716350D02*
X183210200Y-92716350D01*
X164160200Y-59670950D02*
X150164800Y-59670950D01*
X283514800Y-78720950D02*
X283514800Y-92716350D01*
X297510200Y-130816350D02*
X297510200Y-116820950D01*
X335610200Y-116820950D02*
X321614800Y-116820950D01*
X150164800Y-73666350D02*
X164160200Y-73666350D01*
X221310200Y-97770950D02*
X207314800Y-97770950D01*
X207314800Y-92716350D02*
X221310200Y-92716350D01*
X145110200Y-97770950D02*
X131114800Y-97770950D01*
X240360200Y-130816350D02*
X240360200Y-116820950D01*
X302137500Y-152400000D02*
X338137500Y-152400000D01*
X150164800Y-97770950D02*
X150164800Y-111766350D01*
X240360200Y-97770950D02*
X226364800Y-97770950D01*
X80962500Y-159162500D02*
X78581250Y-159162500D01*
X283514800Y-73666350D02*
X297510200Y-73666350D01*
X188264800Y-78720950D02*
X188264800Y-92716350D01*
X188264800Y-73666350D02*
X202260200Y-73666350D01*
X183210200Y-97770950D02*
X169214800Y-97770950D01*
X226137500Y-154400000D02*
G75*
G02*
X226137500Y-152400000I0J1000000D01*
G01*
X259410200Y-111766350D02*
X259410200Y-97770950D01*
X131114800Y-149866350D02*
X145110200Y-149866350D01*
X316560200Y-73666350D02*
X316560200Y-59670950D01*
X221310200Y-149866350D02*
X221310200Y-135870950D01*
X126060200Y-130816350D02*
X126060200Y-116820950D01*
X131114800Y-78720950D02*
X131114800Y-92716350D01*
X131114800Y-92716350D02*
X145110200Y-92716350D01*
X264464800Y-78720950D02*
X264464800Y-92716350D01*
X145110200Y-116820950D02*
X131114800Y-116820950D01*
X335610200Y-97770950D02*
X321614800Y-97770950D01*
X321614800Y-92716350D02*
X335610200Y-92716350D01*
X109537500Y-57150000D02*
X338137500Y-57150000D01*
X207314800Y-97770950D02*
X207314800Y-111766350D01*
X207314800Y-59670950D02*
X207314800Y-73666350D01*
X78581250Y-128587500D02*
X78581250Y-152400000D01*
X202260200Y-78720950D02*
X188264800Y-78720950D01*
X202260200Y-97770950D02*
X188264800Y-97770950D01*
X80962500Y-159162500D02*
X80962500Y-166306250D01*
X202260200Y-116820950D02*
X188264800Y-116820950D01*
X245414800Y-135870950D02*
X245414800Y-149866350D01*
X80962500Y-166306250D02*
X78581250Y-166306250D01*
X145110200Y-135870950D02*
X131114800Y-135870950D01*
X283514800Y-135870950D02*
X283514800Y-149866350D01*
X149137500Y-154400000D02*
G75*
G02*
X149137500Y-152400000I0J1000000D01*
G01*
X150164800Y-130816350D02*
X164160200Y-130816350D01*
X150164800Y-78720950D02*
X150164800Y-92716350D01*
X188264800Y-111766350D02*
X202260200Y-111766350D01*
X264464800Y-149866350D02*
X278460200Y-149866350D01*
X278460200Y-130816350D02*
X278460200Y-116820950D01*
X207314800Y-135870950D02*
X207314800Y-149866350D01*
X316560200Y-59670950D02*
X302564800Y-59670950D01*
X335610200Y-111766350D02*
X335610200Y-97770950D01*
X283514800Y-97770950D02*
X283514800Y-111766350D01*
X145110200Y-111766350D02*
X145110200Y-97770950D01*
X259410200Y-59670950D02*
X245414800Y-59670950D01*
X278460200Y-92716350D02*
X278460200Y-78720950D01*
X150164800Y-116820950D02*
X150164800Y-130816350D01*
X302137500Y-249650000D02*
X338137500Y-249650000D01*
X316560200Y-130816350D02*
X316560200Y-116820950D01*
X150164800Y-149866350D02*
X164160200Y-149866350D01*
X221310200Y-111766350D02*
X221310200Y-97770950D01*
X131114800Y-73666350D02*
X145110200Y-73666350D01*
X188264800Y-97770950D02*
X188264800Y-111766350D01*
X202260200Y-92716350D02*
X202260200Y-78720950D01*
X316560200Y-149866350D02*
X316560200Y-135870950D01*
X283514800Y-130816350D02*
X297510200Y-130816350D01*
X302564800Y-59670950D02*
X302564800Y-73666350D01*
X183210200Y-135870950D02*
X169214800Y-135870950D01*
X297510200Y-92716350D02*
X297510200Y-78720950D01*
X202260200Y-130816350D02*
X202260200Y-116820950D01*
X226364800Y-135870950D02*
X226364800Y-149866350D01*
X264464800Y-59670950D02*
X264464800Y-73666350D01*
X222137500Y-249650000D02*
X149137500Y-249650000D01*
X169214800Y-135870950D02*
X169214800Y-149866350D01*
X321614800Y-149866350D02*
X335610200Y-149866350D01*
X183210200Y-73666350D02*
X183210200Y-59670950D01*
X297510200Y-78720950D02*
X283514800Y-78720950D01*
X297510200Y-135870950D02*
X283514800Y-135870950D01*
X335610200Y-130816350D02*
X335610200Y-116820950D01*
X338137500Y-154400000D02*
X302137500Y-154400000D01*
X131114800Y-135870950D02*
X131114800Y-149866350D01*
X245414800Y-92716350D02*
X259410200Y-92716350D01*
X222137500Y-249650000D02*
G75*
G02*
X222137500Y-251650000I0J-1000000D01*
G01*
X150164800Y-92716350D02*
X164160200Y-92716350D01*
X226364800Y-130816350D02*
X240360200Y-130816350D01*
X131114800Y-59670950D02*
X131114800Y-73666350D01*
X259410200Y-116820950D02*
X245414800Y-116820950D01*
X126060200Y-73666350D02*
X126060200Y-59670950D01*
X226364800Y-149866350D02*
X240360200Y-149866350D01*
X207314800Y-111766350D02*
X221310200Y-111766350D01*
X316560200Y-135870950D02*
X302564800Y-135870950D01*
X131114800Y-116820950D02*
X131114800Y-130816350D01*
X222137500Y-152400000D02*
G75*
G02*
X222137500Y-154400000I0J-1000000D01*
G01*
X302564800Y-97770950D02*
X302564800Y-111766350D01*
X240360200Y-73666350D02*
X240360200Y-59670950D01*
X226364800Y-73666350D02*
X240360200Y-73666350D01*
X78581250Y-166306250D02*
X78581250Y-249650000D01*
X183210200Y-116820950D02*
X169214800Y-116820950D01*
X298137500Y-154400000D02*
X226137500Y-154400000D01*
X316560200Y-97770950D02*
X302564800Y-97770950D01*
X78581250Y-128587500D02*
X109537500Y-128587500D01*
X297510200Y-59670950D02*
X283514800Y-59670950D01*
X183210200Y-78720950D02*
X169214800Y-78720950D01*
X264464800Y-135870950D02*
X264464800Y-149866350D01*
X297510200Y-97770950D02*
X283514800Y-97770950D01*
X259410200Y-130816350D02*
X259410200Y-116820950D01*
X126060200Y-92716350D02*
X126060200Y-78720950D01*
X316560200Y-116820950D02*
X302564800Y-116820950D01*
X112064800Y-73666350D02*
X126060200Y-73666350D01*
X278460200Y-73666350D02*
X278460200Y-59670950D01*
X183210200Y-59670950D02*
X169214800Y-59670950D01*
X240360200Y-116820950D02*
X226364800Y-116820950D01*
X226364800Y-59670950D02*
X226364800Y-73666350D01*
X164160200Y-73666350D02*
X164160200Y-59670950D01*
X164160200Y-135870950D02*
X150164800Y-135870950D01*
X297510200Y-73666350D02*
X297510200Y-59670950D01*
X302564800Y-78720950D02*
X302564800Y-92716350D01*
X164160200Y-97770950D02*
X150164800Y-97770950D01*
X321614800Y-116820950D02*
X321614800Y-130816350D01*
X149137500Y-251650000D02*
X222137500Y-251650000D01*
X302564800Y-149866350D02*
X316560200Y-149866350D01*
X297510200Y-149866350D02*
X297510200Y-135870950D01*
X221310200Y-73666350D02*
X221310200Y-59670950D01*
X169214800Y-149866350D02*
X183210200Y-149866350D01*
X338137500Y-57150000D02*
X338137500Y-152400000D01*
X78581250Y-154400000D02*
X78581250Y-159162500D01*
X245414800Y-116820950D02*
X245414800Y-130816350D01*
X259410200Y-97770950D02*
X245414800Y-97770950D01*
X222137500Y-154400000D02*
X149137500Y-154400000D01*
X169214800Y-73666350D02*
X183210200Y-73666350D01*
X150164800Y-111766350D02*
X164160200Y-111766350D01*
X126060200Y-135870950D02*
X112064800Y-135870950D01*
X259410200Y-135870950D02*
X245414800Y-135870950D01*
X169214800Y-97770950D02*
X169214800Y-111766350D01*
X164160200Y-111766350D02*
X164160200Y-97770950D01*
X226364800Y-116820950D02*
X226364800Y-130816350D01*
X302137500Y-251650000D02*
X338137500Y-251650000D01*
X298137500Y-152400000D02*
G75*
G02*
X298137500Y-154400000I0J-1000000D01*
G01*
X145137500Y-154400000D02*
X78581250Y-154400000D01*
X207314800Y-116820950D02*
X207314800Y-130816350D01*
X183210200Y-92716350D02*
X183210200Y-78720950D01*
X78581250Y-249650000D02*
X145137500Y-249650000D01*
X112064800Y-135870950D02*
X112064800Y-149866350D01*
X338137500Y-251650000D02*
X338137500Y-346900000D01*
X78581250Y-152400000D02*
X145137500Y-152400000D01*
X207314800Y-130816350D02*
X221310200Y-130816350D01*
X145110200Y-59670950D02*
X131114800Y-59670950D01*
X278460200Y-149866350D02*
X278460200Y-135870950D01*
X321614800Y-135870950D02*
X321614800Y-149866350D01*
X131114800Y-111766350D02*
X145110200Y-111766350D01*
X302137500Y-251650000D02*
G75*
G02*
X302137500Y-249650000I0J1000000D01*
G01*
X112064800Y-116820950D02*
X112064800Y-130816350D01*
X112064800Y-149866350D02*
X126060200Y-149866350D01*
X164160200Y-116820950D02*
X150164800Y-116820950D01*
X188264800Y-130816350D02*
X202260200Y-130816350D01*
X321614800Y-111766350D02*
X335610200Y-111766350D01*
X283514800Y-59670950D02*
X283514800Y-73666350D01*
X302564800Y-73666350D02*
X316560200Y-73666350D01*
X245414800Y-97770950D02*
X245414800Y-111766350D01*
X321614800Y-78720950D02*
X321614800Y-92716350D01*
X131114800Y-97770950D02*
X131114800Y-111766350D01*
X278460200Y-111766350D02*
X278460200Y-97770950D01*
X302137500Y-154400000D02*
G75*
G02*
X302137500Y-152400000I0J1000000D01*
G01*
X126060200Y-111766350D02*
X126060200Y-97770950D01*
X321614800Y-130816350D02*
X335610200Y-130816350D01*
X164160200Y-78720950D02*
X150164800Y-78720950D01*
X169214800Y-130816350D02*
X183210200Y-130816350D01*
X335610200Y-59670950D02*
X321614800Y-59670950D01*
X169214800Y-111766350D02*
X183210200Y-111766350D01*
X264464800Y-116820950D02*
X264464800Y-130816350D01*
X145110200Y-130816350D02*
X145110200Y-116820950D01*
X240360200Y-149866350D02*
X240360200Y-135870950D01*
X245414800Y-111766350D02*
X259410200Y-111766350D01*
X183210200Y-111766350D02*
X183210200Y-97770950D01*
X226137500Y-152400000D02*
X298137500Y-152400000D01*
X221310200Y-116820950D02*
X207314800Y-116820950D01*
X188264800Y-92716350D02*
X202260200Y-92716350D01*
X126060200Y-116820950D02*
X112064800Y-116820950D01*
X131114800Y-130816350D02*
X145110200Y-130816350D01*
X321614800Y-73666350D02*
X335610200Y-73666350D01*
X278460200Y-97770950D02*
X264464800Y-97770950D01*
X202260200Y-73666350D02*
X202260200Y-59670950D01*
X283514800Y-149866350D02*
X297510200Y-149866350D01*
X188264800Y-149866350D02*
X202260200Y-149866350D01*
X245414800Y-149866350D02*
X259410200Y-149866350D01*
X264464800Y-111766350D02*
X278460200Y-111766350D01*
X245414800Y-130816350D02*
X259410200Y-130816350D01*
X240360200Y-135870950D02*
X226364800Y-135870950D01*
X302564800Y-92716350D02*
X316560200Y-92716350D01*
X202260200Y-135870950D02*
X188264800Y-135870950D01*
X297510200Y-116820950D02*
X283514800Y-116820950D01*
X259410200Y-92716350D02*
X259410200Y-78720950D01*
X245414800Y-78720950D02*
X245414800Y-92716350D01*
X169214800Y-78720950D02*
X169214800Y-92716350D01*
X226364800Y-97770950D02*
X226364800Y-111766350D01*
X264464800Y-73666350D02*
X278460200Y-73666350D01*
X278460200Y-135870950D02*
X264464800Y-135870950D01*
X164160200Y-130816350D02*
X164160200Y-116820950D01*
X221310200Y-78720950D02*
X207314800Y-78720950D01*
X316560200Y-111766350D02*
X316560200Y-97770950D01*
X245414800Y-59670950D02*
X245414800Y-73666350D01*
X112064800Y-92716350D02*
X126060200Y-92716350D01*
X183210200Y-149866350D02*
X183210200Y-135870950D01*
X188264800Y-59670950D02*
X188264800Y-73666350D01*
X221310200Y-59670950D02*
X207314800Y-59670950D01*
X145110200Y-92716350D02*
X145110200Y-78720950D01*
X226364800Y-92716350D02*
X240360200Y-92716350D01*
X321614800Y-97770950D02*
X321614800Y-111766350D01*
X169214800Y-116820950D02*
X169214800Y-130816350D01*
X240360200Y-111766350D02*
X240360200Y-97770950D01*
X164160200Y-92716350D02*
X164160200Y-78720950D01*
X112064800Y-78720950D02*
X112064800Y-92716350D01*
X226137500Y-249650000D02*
X298137500Y-249650000D01*
X316560200Y-78720950D02*
X302564800Y-78720950D01*
X226364800Y-111766350D02*
X240360200Y-111766350D01*
X259410200Y-78720950D02*
X245414800Y-78720950D01*
X207314800Y-73666350D02*
X221310200Y-73666350D01*
X78581250Y-346900000D02*
X78581250Y-251650000D01*
X302564800Y-135870950D02*
X302564800Y-149866350D01*
X259410200Y-149866350D02*
X259410200Y-135870950D01*
X188264800Y-135870950D02*
X188264800Y-149866350D01*
X316560200Y-92716350D02*
X316560200Y-78720950D01*
X264464800Y-97770950D02*
X264464800Y-111766350D01*
X278460200Y-78720950D02*
X264464800Y-78720950D01*
X264464800Y-92716350D02*
X278460200Y-92716350D01*
X298137500Y-249650000D02*
G75*
G02*
X298137500Y-251650000I0J-1000000D01*
G01*
X335610200Y-92716350D02*
X335610200Y-78720950D01*
X169214800Y-59670950D02*
X169214800Y-73666350D01*
X298137500Y-251650000D02*
X226137500Y-251650000D01*
X283514800Y-92716350D02*
X297510200Y-92716350D01*
X202260200Y-59670950D02*
X188264800Y-59670950D01*
X183210200Y-130816350D02*
X183210200Y-116820950D01*
X150164800Y-59670950D02*
X150164800Y-73666350D01*
X283514800Y-111766350D02*
X297510200Y-111766350D01*
X338137500Y-154400000D02*
X338137500Y-249650000D01*
X302564800Y-111766350D02*
X316560200Y-111766350D01*
X207314800Y-149866350D02*
X221310200Y-149866350D01*
M02*
