%TF.GenerationSoftware,KiCad,Pcbnew,5.1.10*%
%TF.CreationDate,2021-06-16T10:43:04-05:00*%
%TF.ProjectId,olkbd_ble,6f6c6b62-645f-4626-9c65-2e6b69636164,rev?*%
%TF.SameCoordinates,Original*%
%TF.FileFunction,Legend,Top*%
%TF.FilePolarity,Positive*%
%FSLAX46Y46*%
G04 Gerber Fmt 4.6, Leading zero omitted, Abs format (unit mm)*
G04 Created by KiCad (PCBNEW 5.1.10) date 2021-06-16 10:43:04*
%MOMM*%
%LPD*%
G01*
G04 APERTURE LIST*
%ADD10C,0.150000*%
%ADD11C,0.010000*%
%ADD12C,0.100000*%
G04 APERTURE END LIST*
D10*
X87551428Y-134977142D02*
X87503809Y-135024761D01*
X87360952Y-135072380D01*
X87265714Y-135072380D01*
X87122857Y-135024761D01*
X87027619Y-134929523D01*
X86980000Y-134834285D01*
X86932380Y-134643809D01*
X86932380Y-134500952D01*
X86980000Y-134310476D01*
X87027619Y-134215238D01*
X87122857Y-134120000D01*
X87265714Y-134072380D01*
X87360952Y-134072380D01*
X87503809Y-134120000D01*
X87551428Y-134167619D01*
X88408571Y-135072380D02*
X88408571Y-134548571D01*
X88360952Y-134453333D01*
X88265714Y-134405714D01*
X88075238Y-134405714D01*
X87980000Y-134453333D01*
X88408571Y-135024761D02*
X88313333Y-135072380D01*
X88075238Y-135072380D01*
X87980000Y-135024761D01*
X87932380Y-134929523D01*
X87932380Y-134834285D01*
X87980000Y-134739047D01*
X88075238Y-134691428D01*
X88313333Y-134691428D01*
X88408571Y-134643809D01*
X88741904Y-134405714D02*
X89122857Y-134405714D01*
X88884761Y-134072380D02*
X88884761Y-134929523D01*
X88932380Y-135024761D01*
X89027619Y-135072380D01*
X89122857Y-135072380D01*
X89456190Y-135072380D02*
X89456190Y-134405714D01*
X89456190Y-134072380D02*
X89408571Y-134120000D01*
X89456190Y-134167619D01*
X89503809Y-134120000D01*
X89456190Y-134072380D01*
X89456190Y-134167619D01*
X90122857Y-134072380D02*
X90313333Y-134072380D01*
X90408571Y-134120000D01*
X90503809Y-134215238D01*
X90551428Y-134405714D01*
X90551428Y-134739047D01*
X90503809Y-134929523D01*
X90408571Y-135024761D01*
X90313333Y-135072380D01*
X90122857Y-135072380D01*
X90027619Y-135024761D01*
X89932380Y-134929523D01*
X89884761Y-134739047D01*
X89884761Y-134405714D01*
X89932380Y-134215238D01*
X90027619Y-134120000D01*
X90122857Y-134072380D01*
X90980000Y-135072380D02*
X90980000Y-134072380D01*
X91551428Y-135072380D01*
X91551428Y-134072380D01*
X92027619Y-134548571D02*
X92360952Y-134548571D01*
X92503809Y-135072380D02*
X92027619Y-135072380D01*
X92027619Y-134072380D01*
X92503809Y-134072380D01*
X93884761Y-134072380D02*
X94075238Y-134072380D01*
X94170476Y-134120000D01*
X94265714Y-134215238D01*
X94313333Y-134405714D01*
X94313333Y-134739047D01*
X94265714Y-134929523D01*
X94170476Y-135024761D01*
X94075238Y-135072380D01*
X93884761Y-135072380D01*
X93789523Y-135024761D01*
X93694285Y-134929523D01*
X93646666Y-134739047D01*
X93646666Y-134405714D01*
X93694285Y-134215238D01*
X93789523Y-134120000D01*
X93884761Y-134072380D01*
X95218095Y-135072380D02*
X94741904Y-135072380D01*
X94741904Y-134072380D01*
X95551428Y-135072380D02*
X95551428Y-134072380D01*
X96122857Y-135072380D02*
X95694285Y-134500952D01*
X96122857Y-134072380D02*
X95551428Y-134643809D01*
X96884761Y-134548571D02*
X97027619Y-134596190D01*
X97075238Y-134643809D01*
X97122857Y-134739047D01*
X97122857Y-134881904D01*
X97075238Y-134977142D01*
X97027619Y-135024761D01*
X96932380Y-135072380D01*
X96551428Y-135072380D01*
X96551428Y-134072380D01*
X96884761Y-134072380D01*
X96980000Y-134120000D01*
X97027619Y-134167619D01*
X97075238Y-134262857D01*
X97075238Y-134358095D01*
X97027619Y-134453333D01*
X96980000Y-134500952D01*
X96884761Y-134548571D01*
X96551428Y-134548571D01*
X98218095Y-134405714D02*
X98456190Y-135072380D01*
X98694285Y-134405714D01*
X99599047Y-135072380D02*
X99027619Y-135072380D01*
X99313333Y-135072380D02*
X99313333Y-134072380D01*
X99218095Y-134215238D01*
X99122857Y-134310476D01*
X99027619Y-134358095D01*
X100027619Y-134977142D02*
X100075238Y-135024761D01*
X100027619Y-135072380D01*
X99980000Y-135024761D01*
X100027619Y-134977142D01*
X100027619Y-135072380D01*
X100694285Y-134072380D02*
X100789523Y-134072380D01*
X100884761Y-134120000D01*
X100932380Y-134167619D01*
X100980000Y-134262857D01*
X101027619Y-134453333D01*
X101027619Y-134691428D01*
X100980000Y-134881904D01*
X100932380Y-134977142D01*
X100884761Y-135024761D01*
X100789523Y-135072380D01*
X100694285Y-135072380D01*
X100599047Y-135024761D01*
X100551428Y-134977142D01*
X100503809Y-134881904D01*
X100456190Y-134691428D01*
X100456190Y-134453333D01*
X100503809Y-134262857D01*
X100551428Y-134167619D01*
X100599047Y-134120000D01*
X100694285Y-134072380D01*
X80589880Y-339231845D02*
X79589880Y-339231845D01*
X79589880Y-338993750D01*
X79637500Y-338850892D01*
X79732738Y-338755654D01*
X79827976Y-338708035D01*
X80018452Y-338660416D01*
X80161309Y-338660416D01*
X80351785Y-338708035D01*
X80447023Y-338755654D01*
X80542261Y-338850892D01*
X80589880Y-338993750D01*
X80589880Y-339231845D01*
X79923214Y-337803273D02*
X80589880Y-337803273D01*
X79923214Y-338231845D02*
X80447023Y-338231845D01*
X80542261Y-338184226D01*
X80589880Y-338088988D01*
X80589880Y-337946130D01*
X80542261Y-337850892D01*
X80494642Y-337803273D01*
X79923214Y-337327083D02*
X80589880Y-337327083D01*
X80018452Y-337327083D02*
X79970833Y-337279464D01*
X79923214Y-337184226D01*
X79923214Y-337041369D01*
X79970833Y-336946130D01*
X80066071Y-336898511D01*
X80589880Y-336898511D01*
X79923214Y-335993750D02*
X80732738Y-335993750D01*
X80827976Y-336041369D01*
X80875595Y-336088988D01*
X80923214Y-336184226D01*
X80923214Y-336327083D01*
X80875595Y-336422321D01*
X80542261Y-335993750D02*
X80589880Y-336088988D01*
X80589880Y-336279464D01*
X80542261Y-336374702D01*
X80494642Y-336422321D01*
X80399404Y-336469940D01*
X80113690Y-336469940D01*
X80018452Y-336422321D01*
X79970833Y-336374702D01*
X79923214Y-336279464D01*
X79923214Y-336088988D01*
X79970833Y-335993750D01*
X80589880Y-334755654D02*
X79589880Y-334755654D01*
X79589880Y-334374702D01*
X79637500Y-334279464D01*
X79685119Y-334231845D01*
X79780357Y-334184226D01*
X79923214Y-334184226D01*
X80018452Y-334231845D01*
X80066071Y-334279464D01*
X80113690Y-334374702D01*
X80113690Y-334755654D01*
X80589880Y-333755654D02*
X79589880Y-333755654D01*
X80589880Y-333327083D02*
X80066071Y-333327083D01*
X79970833Y-333374702D01*
X79923214Y-333469940D01*
X79923214Y-333612797D01*
X79970833Y-333708035D01*
X80018452Y-333755654D01*
X80589880Y-332422321D02*
X80066071Y-332422321D01*
X79970833Y-332469940D01*
X79923214Y-332565178D01*
X79923214Y-332755654D01*
X79970833Y-332850892D01*
X80542261Y-332422321D02*
X80589880Y-332517559D01*
X80589880Y-332755654D01*
X80542261Y-332850892D01*
X80447023Y-332898511D01*
X80351785Y-332898511D01*
X80256547Y-332850892D01*
X80208928Y-332755654D01*
X80208928Y-332517559D01*
X80161309Y-332422321D01*
X79923214Y-331946130D02*
X80589880Y-331946130D01*
X80018452Y-331946130D02*
X79970833Y-331898511D01*
X79923214Y-331803273D01*
X79923214Y-331660416D01*
X79970833Y-331565178D01*
X80066071Y-331517559D01*
X80589880Y-331517559D01*
X81335119Y-336708035D02*
X81287500Y-336660416D01*
X81239880Y-336565178D01*
X81239880Y-336327083D01*
X81287500Y-336231845D01*
X81335119Y-336184226D01*
X81430357Y-336136607D01*
X81525595Y-336136607D01*
X81668452Y-336184226D01*
X82239880Y-336755654D01*
X82239880Y-336136607D01*
X81239880Y-335517559D02*
X81239880Y-335422321D01*
X81287500Y-335327083D01*
X81335119Y-335279464D01*
X81430357Y-335231845D01*
X81620833Y-335184226D01*
X81858928Y-335184226D01*
X82049404Y-335231845D01*
X82144642Y-335279464D01*
X82192261Y-335327083D01*
X82239880Y-335422321D01*
X82239880Y-335517559D01*
X82192261Y-335612797D01*
X82144642Y-335660416D01*
X82049404Y-335708035D01*
X81858928Y-335755654D01*
X81620833Y-335755654D01*
X81430357Y-335708035D01*
X81335119Y-335660416D01*
X81287500Y-335612797D01*
X81239880Y-335517559D01*
X81335119Y-334803273D02*
X81287500Y-334755654D01*
X81239880Y-334660416D01*
X81239880Y-334422321D01*
X81287500Y-334327083D01*
X81335119Y-334279464D01*
X81430357Y-334231845D01*
X81525595Y-334231845D01*
X81668452Y-334279464D01*
X82239880Y-334850892D01*
X82239880Y-334231845D01*
X82239880Y-333279464D02*
X82239880Y-333850892D01*
X82239880Y-333565178D02*
X81239880Y-333565178D01*
X81382738Y-333660416D01*
X81477976Y-333755654D01*
X81525595Y-333850892D01*
X83700892Y-341422321D02*
X83748511Y-341469940D01*
X83796130Y-341612797D01*
X83796130Y-341708035D01*
X83748511Y-341850892D01*
X83653273Y-341946130D01*
X83558035Y-341993750D01*
X83367559Y-342041369D01*
X83224702Y-342041369D01*
X83034226Y-341993750D01*
X82938988Y-341946130D01*
X82843750Y-341850892D01*
X82796130Y-341708035D01*
X82796130Y-341612797D01*
X82843750Y-341469940D01*
X82891369Y-341422321D01*
X83796130Y-340565178D02*
X83272321Y-340565178D01*
X83177083Y-340612797D01*
X83129464Y-340708035D01*
X83129464Y-340898511D01*
X83177083Y-340993750D01*
X83748511Y-340565178D02*
X83796130Y-340660416D01*
X83796130Y-340898511D01*
X83748511Y-340993750D01*
X83653273Y-341041369D01*
X83558035Y-341041369D01*
X83462797Y-340993750D01*
X83415178Y-340898511D01*
X83415178Y-340660416D01*
X83367559Y-340565178D01*
X83129464Y-340231845D02*
X83129464Y-339850892D01*
X82796130Y-340088988D02*
X83653273Y-340088988D01*
X83748511Y-340041369D01*
X83796130Y-339946130D01*
X83796130Y-339850892D01*
X83796130Y-339517559D02*
X83129464Y-339517559D01*
X82796130Y-339517559D02*
X82843750Y-339565178D01*
X82891369Y-339517559D01*
X82843750Y-339469940D01*
X82796130Y-339517559D01*
X82891369Y-339517559D01*
X82796130Y-338850892D02*
X82796130Y-338660416D01*
X82843750Y-338565178D01*
X82938988Y-338469940D01*
X83129464Y-338422321D01*
X83462797Y-338422321D01*
X83653273Y-338469940D01*
X83748511Y-338565178D01*
X83796130Y-338660416D01*
X83796130Y-338850892D01*
X83748511Y-338946130D01*
X83653273Y-339041369D01*
X83462797Y-339088988D01*
X83129464Y-339088988D01*
X82938988Y-339041369D01*
X82843750Y-338946130D01*
X82796130Y-338850892D01*
X83796130Y-337993750D02*
X82796130Y-337993750D01*
X83796130Y-337422321D01*
X82796130Y-337422321D01*
X83272321Y-336946130D02*
X83272321Y-336612797D01*
X83796130Y-336469940D02*
X83796130Y-336946130D01*
X82796130Y-336946130D01*
X82796130Y-336469940D01*
X82796130Y-335088988D02*
X82796130Y-334898511D01*
X82843750Y-334803273D01*
X82938988Y-334708035D01*
X83129464Y-334660416D01*
X83462797Y-334660416D01*
X83653273Y-334708035D01*
X83748511Y-334803273D01*
X83796130Y-334898511D01*
X83796130Y-335088988D01*
X83748511Y-335184226D01*
X83653273Y-335279464D01*
X83462797Y-335327083D01*
X83129464Y-335327083D01*
X82938988Y-335279464D01*
X82843750Y-335184226D01*
X82796130Y-335088988D01*
X83796130Y-333755654D02*
X83796130Y-334231845D01*
X82796130Y-334231845D01*
X83796130Y-333422321D02*
X82796130Y-333422321D01*
X83796130Y-332850892D02*
X83224702Y-333279464D01*
X82796130Y-332850892D02*
X83367559Y-333422321D01*
X83272321Y-332088988D02*
X83319940Y-331946130D01*
X83367559Y-331898511D01*
X83462797Y-331850892D01*
X83605654Y-331850892D01*
X83700892Y-331898511D01*
X83748511Y-331946130D01*
X83796130Y-332041369D01*
X83796130Y-332422321D01*
X82796130Y-332422321D01*
X82796130Y-332088988D01*
X82843750Y-331993750D01*
X82891369Y-331946130D01*
X82986607Y-331898511D01*
X83081845Y-331898511D01*
X83177083Y-331946130D01*
X83224702Y-331993750D01*
X83272321Y-332088988D01*
X83272321Y-332422321D01*
X83129464Y-330755654D02*
X83796130Y-330517559D01*
X83129464Y-330279464D01*
X83796130Y-329374702D02*
X83796130Y-329946130D01*
X83796130Y-329660416D02*
X82796130Y-329660416D01*
X82938988Y-329755654D01*
X83034226Y-329850892D01*
X83081845Y-329946130D01*
X83700892Y-328946130D02*
X83748511Y-328898511D01*
X83796130Y-328946130D01*
X83748511Y-328993750D01*
X83700892Y-328946130D01*
X83796130Y-328946130D01*
X82796130Y-328279464D02*
X82796130Y-328184226D01*
X82843750Y-328088988D01*
X82891369Y-328041369D01*
X82986607Y-327993750D01*
X83177083Y-327946130D01*
X83415178Y-327946130D01*
X83605654Y-327993750D01*
X83700892Y-328041369D01*
X83748511Y-328088988D01*
X83796130Y-328184226D01*
X83796130Y-328279464D01*
X83748511Y-328374702D01*
X83700892Y-328422321D01*
X83605654Y-328469940D01*
X83415178Y-328517559D01*
X83177083Y-328517559D01*
X82986607Y-328469940D01*
X82891369Y-328422321D01*
X82843750Y-328374702D01*
X82796130Y-328279464D01*
X80589880Y-241981845D02*
X79589880Y-241981845D01*
X79589880Y-241743750D01*
X79637500Y-241600892D01*
X79732738Y-241505654D01*
X79827976Y-241458035D01*
X80018452Y-241410416D01*
X80161309Y-241410416D01*
X80351785Y-241458035D01*
X80447023Y-241505654D01*
X80542261Y-241600892D01*
X80589880Y-241743750D01*
X80589880Y-241981845D01*
X79923214Y-240553273D02*
X80589880Y-240553273D01*
X79923214Y-240981845D02*
X80447023Y-240981845D01*
X80542261Y-240934226D01*
X80589880Y-240838988D01*
X80589880Y-240696130D01*
X80542261Y-240600892D01*
X80494642Y-240553273D01*
X79923214Y-240077083D02*
X80589880Y-240077083D01*
X80018452Y-240077083D02*
X79970833Y-240029464D01*
X79923214Y-239934226D01*
X79923214Y-239791369D01*
X79970833Y-239696130D01*
X80066071Y-239648511D01*
X80589880Y-239648511D01*
X79923214Y-238743750D02*
X80732738Y-238743750D01*
X80827976Y-238791369D01*
X80875595Y-238838988D01*
X80923214Y-238934226D01*
X80923214Y-239077083D01*
X80875595Y-239172321D01*
X80542261Y-238743750D02*
X80589880Y-238838988D01*
X80589880Y-239029464D01*
X80542261Y-239124702D01*
X80494642Y-239172321D01*
X80399404Y-239219940D01*
X80113690Y-239219940D01*
X80018452Y-239172321D01*
X79970833Y-239124702D01*
X79923214Y-239029464D01*
X79923214Y-238838988D01*
X79970833Y-238743750D01*
X80589880Y-237505654D02*
X79589880Y-237505654D01*
X79589880Y-237124702D01*
X79637500Y-237029464D01*
X79685119Y-236981845D01*
X79780357Y-236934226D01*
X79923214Y-236934226D01*
X80018452Y-236981845D01*
X80066071Y-237029464D01*
X80113690Y-237124702D01*
X80113690Y-237505654D01*
X80589880Y-236505654D02*
X79589880Y-236505654D01*
X80589880Y-236077083D02*
X80066071Y-236077083D01*
X79970833Y-236124702D01*
X79923214Y-236219940D01*
X79923214Y-236362797D01*
X79970833Y-236458035D01*
X80018452Y-236505654D01*
X80589880Y-235172321D02*
X80066071Y-235172321D01*
X79970833Y-235219940D01*
X79923214Y-235315178D01*
X79923214Y-235505654D01*
X79970833Y-235600892D01*
X80542261Y-235172321D02*
X80589880Y-235267559D01*
X80589880Y-235505654D01*
X80542261Y-235600892D01*
X80447023Y-235648511D01*
X80351785Y-235648511D01*
X80256547Y-235600892D01*
X80208928Y-235505654D01*
X80208928Y-235267559D01*
X80161309Y-235172321D01*
X79923214Y-234696130D02*
X80589880Y-234696130D01*
X80018452Y-234696130D02*
X79970833Y-234648511D01*
X79923214Y-234553273D01*
X79923214Y-234410416D01*
X79970833Y-234315178D01*
X80066071Y-234267559D01*
X80589880Y-234267559D01*
X81335119Y-239458035D02*
X81287500Y-239410416D01*
X81239880Y-239315178D01*
X81239880Y-239077083D01*
X81287500Y-238981845D01*
X81335119Y-238934226D01*
X81430357Y-238886607D01*
X81525595Y-238886607D01*
X81668452Y-238934226D01*
X82239880Y-239505654D01*
X82239880Y-238886607D01*
X81239880Y-238267559D02*
X81239880Y-238172321D01*
X81287500Y-238077083D01*
X81335119Y-238029464D01*
X81430357Y-237981845D01*
X81620833Y-237934226D01*
X81858928Y-237934226D01*
X82049404Y-237981845D01*
X82144642Y-238029464D01*
X82192261Y-238077083D01*
X82239880Y-238172321D01*
X82239880Y-238267559D01*
X82192261Y-238362797D01*
X82144642Y-238410416D01*
X82049404Y-238458035D01*
X81858928Y-238505654D01*
X81620833Y-238505654D01*
X81430357Y-238458035D01*
X81335119Y-238410416D01*
X81287500Y-238362797D01*
X81239880Y-238267559D01*
X81335119Y-237553273D02*
X81287500Y-237505654D01*
X81239880Y-237410416D01*
X81239880Y-237172321D01*
X81287500Y-237077083D01*
X81335119Y-237029464D01*
X81430357Y-236981845D01*
X81525595Y-236981845D01*
X81668452Y-237029464D01*
X82239880Y-237600892D01*
X82239880Y-236981845D01*
X82239880Y-236029464D02*
X82239880Y-236600892D01*
X82239880Y-236315178D02*
X81239880Y-236315178D01*
X81382738Y-236410416D01*
X81477976Y-236505654D01*
X81525595Y-236600892D01*
X83700892Y-244172321D02*
X83748511Y-244219940D01*
X83796130Y-244362797D01*
X83796130Y-244458035D01*
X83748511Y-244600892D01*
X83653273Y-244696130D01*
X83558035Y-244743750D01*
X83367559Y-244791369D01*
X83224702Y-244791369D01*
X83034226Y-244743750D01*
X82938988Y-244696130D01*
X82843750Y-244600892D01*
X82796130Y-244458035D01*
X82796130Y-244362797D01*
X82843750Y-244219940D01*
X82891369Y-244172321D01*
X83796130Y-243315178D02*
X83272321Y-243315178D01*
X83177083Y-243362797D01*
X83129464Y-243458035D01*
X83129464Y-243648511D01*
X83177083Y-243743750D01*
X83748511Y-243315178D02*
X83796130Y-243410416D01*
X83796130Y-243648511D01*
X83748511Y-243743750D01*
X83653273Y-243791369D01*
X83558035Y-243791369D01*
X83462797Y-243743750D01*
X83415178Y-243648511D01*
X83415178Y-243410416D01*
X83367559Y-243315178D01*
X83129464Y-242981845D02*
X83129464Y-242600892D01*
X82796130Y-242838988D02*
X83653273Y-242838988D01*
X83748511Y-242791369D01*
X83796130Y-242696130D01*
X83796130Y-242600892D01*
X83796130Y-242267559D02*
X83129464Y-242267559D01*
X82796130Y-242267559D02*
X82843750Y-242315178D01*
X82891369Y-242267559D01*
X82843750Y-242219940D01*
X82796130Y-242267559D01*
X82891369Y-242267559D01*
X82796130Y-241600892D02*
X82796130Y-241410416D01*
X82843750Y-241315178D01*
X82938988Y-241219940D01*
X83129464Y-241172321D01*
X83462797Y-241172321D01*
X83653273Y-241219940D01*
X83748511Y-241315178D01*
X83796130Y-241410416D01*
X83796130Y-241600892D01*
X83748511Y-241696130D01*
X83653273Y-241791369D01*
X83462797Y-241838988D01*
X83129464Y-241838988D01*
X82938988Y-241791369D01*
X82843750Y-241696130D01*
X82796130Y-241600892D01*
X83796130Y-240743750D02*
X82796130Y-240743750D01*
X83796130Y-240172321D01*
X82796130Y-240172321D01*
X83272321Y-239696130D02*
X83272321Y-239362797D01*
X83796130Y-239219940D02*
X83796130Y-239696130D01*
X82796130Y-239696130D01*
X82796130Y-239219940D01*
X82796130Y-237838988D02*
X82796130Y-237648511D01*
X82843750Y-237553273D01*
X82938988Y-237458035D01*
X83129464Y-237410416D01*
X83462797Y-237410416D01*
X83653273Y-237458035D01*
X83748511Y-237553273D01*
X83796130Y-237648511D01*
X83796130Y-237838988D01*
X83748511Y-237934226D01*
X83653273Y-238029464D01*
X83462797Y-238077083D01*
X83129464Y-238077083D01*
X82938988Y-238029464D01*
X82843750Y-237934226D01*
X82796130Y-237838988D01*
X83796130Y-236505654D02*
X83796130Y-236981845D01*
X82796130Y-236981845D01*
X83796130Y-236172321D02*
X82796130Y-236172321D01*
X83796130Y-235600892D02*
X83224702Y-236029464D01*
X82796130Y-235600892D02*
X83367559Y-236172321D01*
X83272321Y-234838988D02*
X83319940Y-234696130D01*
X83367559Y-234648511D01*
X83462797Y-234600892D01*
X83605654Y-234600892D01*
X83700892Y-234648511D01*
X83748511Y-234696130D01*
X83796130Y-234791369D01*
X83796130Y-235172321D01*
X82796130Y-235172321D01*
X82796130Y-234838988D01*
X82843750Y-234743750D01*
X82891369Y-234696130D01*
X82986607Y-234648511D01*
X83081845Y-234648511D01*
X83177083Y-234696130D01*
X83224702Y-234743750D01*
X83272321Y-234838988D01*
X83272321Y-235172321D01*
X83129464Y-233505654D02*
X83796130Y-233267559D01*
X83129464Y-233029464D01*
X83796130Y-232124702D02*
X83796130Y-232696130D01*
X83796130Y-232410416D02*
X82796130Y-232410416D01*
X82938988Y-232505654D01*
X83034226Y-232600892D01*
X83081845Y-232696130D01*
X83700892Y-231696130D02*
X83748511Y-231648511D01*
X83796130Y-231696130D01*
X83748511Y-231743750D01*
X83700892Y-231696130D01*
X83796130Y-231696130D01*
X82796130Y-231029464D02*
X82796130Y-230934226D01*
X82843750Y-230838988D01*
X82891369Y-230791369D01*
X82986607Y-230743750D01*
X83177083Y-230696130D01*
X83415178Y-230696130D01*
X83605654Y-230743750D01*
X83700892Y-230791369D01*
X83748511Y-230838988D01*
X83796130Y-230934226D01*
X83796130Y-231029464D01*
X83748511Y-231124702D01*
X83700892Y-231172321D01*
X83605654Y-231219940D01*
X83415178Y-231267559D01*
X83177083Y-231267559D01*
X82986607Y-231219940D01*
X82891369Y-231172321D01*
X82843750Y-231124702D01*
X82796130Y-231029464D01*
X89741904Y-131707380D02*
X89741904Y-130707380D01*
X89980000Y-130707380D01*
X90122857Y-130755000D01*
X90218095Y-130850238D01*
X90265714Y-130945476D01*
X90313333Y-131135952D01*
X90313333Y-131278809D01*
X90265714Y-131469285D01*
X90218095Y-131564523D01*
X90122857Y-131659761D01*
X89980000Y-131707380D01*
X89741904Y-131707380D01*
X91170476Y-131040714D02*
X91170476Y-131707380D01*
X90741904Y-131040714D02*
X90741904Y-131564523D01*
X90789523Y-131659761D01*
X90884761Y-131707380D01*
X91027619Y-131707380D01*
X91122857Y-131659761D01*
X91170476Y-131612142D01*
X91646666Y-131040714D02*
X91646666Y-131707380D01*
X91646666Y-131135952D02*
X91694285Y-131088333D01*
X91789523Y-131040714D01*
X91932380Y-131040714D01*
X92027619Y-131088333D01*
X92075238Y-131183571D01*
X92075238Y-131707380D01*
X92980000Y-131040714D02*
X92980000Y-131850238D01*
X92932380Y-131945476D01*
X92884761Y-131993095D01*
X92789523Y-132040714D01*
X92646666Y-132040714D01*
X92551428Y-131993095D01*
X92980000Y-131659761D02*
X92884761Y-131707380D01*
X92694285Y-131707380D01*
X92599047Y-131659761D01*
X92551428Y-131612142D01*
X92503809Y-131516904D01*
X92503809Y-131231190D01*
X92551428Y-131135952D01*
X92599047Y-131088333D01*
X92694285Y-131040714D01*
X92884761Y-131040714D01*
X92980000Y-131088333D01*
X94218095Y-131707380D02*
X94218095Y-130707380D01*
X94599047Y-130707380D01*
X94694285Y-130755000D01*
X94741904Y-130802619D01*
X94789523Y-130897857D01*
X94789523Y-131040714D01*
X94741904Y-131135952D01*
X94694285Y-131183571D01*
X94599047Y-131231190D01*
X94218095Y-131231190D01*
X95218095Y-131707380D02*
X95218095Y-130707380D01*
X95646666Y-131707380D02*
X95646666Y-131183571D01*
X95599047Y-131088333D01*
X95503809Y-131040714D01*
X95360952Y-131040714D01*
X95265714Y-131088333D01*
X95218095Y-131135952D01*
X96551428Y-131707380D02*
X96551428Y-131183571D01*
X96503809Y-131088333D01*
X96408571Y-131040714D01*
X96218095Y-131040714D01*
X96122857Y-131088333D01*
X96551428Y-131659761D02*
X96456190Y-131707380D01*
X96218095Y-131707380D01*
X96122857Y-131659761D01*
X96075238Y-131564523D01*
X96075238Y-131469285D01*
X96122857Y-131374047D01*
X96218095Y-131326428D01*
X96456190Y-131326428D01*
X96551428Y-131278809D01*
X97027619Y-131040714D02*
X97027619Y-131707380D01*
X97027619Y-131135952D02*
X97075238Y-131088333D01*
X97170476Y-131040714D01*
X97313333Y-131040714D01*
X97408571Y-131088333D01*
X97456190Y-131183571D01*
X97456190Y-131707380D01*
X92265714Y-132452619D02*
X92313333Y-132405000D01*
X92408571Y-132357380D01*
X92646666Y-132357380D01*
X92741904Y-132405000D01*
X92789523Y-132452619D01*
X92837142Y-132547857D01*
X92837142Y-132643095D01*
X92789523Y-132785952D01*
X92218095Y-133357380D01*
X92837142Y-133357380D01*
X93456190Y-132357380D02*
X93551428Y-132357380D01*
X93646666Y-132405000D01*
X93694285Y-132452619D01*
X93741904Y-132547857D01*
X93789523Y-132738333D01*
X93789523Y-132976428D01*
X93741904Y-133166904D01*
X93694285Y-133262142D01*
X93646666Y-133309761D01*
X93551428Y-133357380D01*
X93456190Y-133357380D01*
X93360952Y-133309761D01*
X93313333Y-133262142D01*
X93265714Y-133166904D01*
X93218095Y-132976428D01*
X93218095Y-132738333D01*
X93265714Y-132547857D01*
X93313333Y-132452619D01*
X93360952Y-132405000D01*
X93456190Y-132357380D01*
X94170476Y-132452619D02*
X94218095Y-132405000D01*
X94313333Y-132357380D01*
X94551428Y-132357380D01*
X94646666Y-132405000D01*
X94694285Y-132452619D01*
X94741904Y-132547857D01*
X94741904Y-132643095D01*
X94694285Y-132785952D01*
X94122857Y-133357380D01*
X94741904Y-133357380D01*
X95694285Y-133357380D02*
X95122857Y-133357380D01*
X95408571Y-133357380D02*
X95408571Y-132357380D01*
X95313333Y-132500238D01*
X95218095Y-132595476D01*
X95122857Y-132643095D01*
D11*
%TO.C,G\u002A\u002A\u002A*%
G36*
X241547236Y-271977060D02*
G01*
X241518854Y-271975058D01*
X240405228Y-271873896D01*
X239378586Y-271730456D01*
X238405901Y-271535085D01*
X237454145Y-271278130D01*
X236490293Y-270949941D01*
X235481316Y-270540864D01*
X234394189Y-270041247D01*
X233658833Y-269677943D01*
X232560767Y-269113779D01*
X231556091Y-268575191D01*
X230613850Y-268043036D01*
X229703088Y-267498169D01*
X228792850Y-266921444D01*
X227852179Y-266293719D01*
X226850120Y-265595848D01*
X225755718Y-264808686D01*
X225589819Y-264687674D01*
X225264640Y-264446808D01*
X225059645Y-264282402D01*
X224956285Y-264173821D01*
X224936012Y-264100428D01*
X224980278Y-264041588D01*
X224997152Y-264028309D01*
X225147504Y-263935717D01*
X225400908Y-263799794D01*
X225719793Y-263638555D01*
X226066585Y-263470016D01*
X226403714Y-263312191D01*
X226693608Y-263183097D01*
X226898695Y-263100749D01*
X226973839Y-263080500D01*
X227077094Y-263125474D01*
X227294888Y-263250005D01*
X227601684Y-263438502D01*
X227971945Y-263675379D01*
X228274742Y-263874619D01*
X230030325Y-264985270D01*
X231736119Y-265944807D01*
X233405944Y-266759044D01*
X235053621Y-267433798D01*
X236692969Y-267974885D01*
X238337809Y-268388122D01*
X239522000Y-268607964D01*
X239696111Y-268606591D01*
X239753592Y-268550926D01*
X239716881Y-268439072D01*
X239619087Y-268214291D01*
X239477025Y-267914008D01*
X239374483Y-267707107D01*
X238674484Y-266485625D01*
X237857402Y-265357513D01*
X236937234Y-264336924D01*
X235927975Y-263438008D01*
X234843622Y-262674917D01*
X233870500Y-262142293D01*
X233088393Y-261804019D01*
X232345443Y-261566638D01*
X231580384Y-261415351D01*
X230731951Y-261335358D01*
X230483833Y-261324180D01*
X229536084Y-261326585D01*
X228655051Y-261413586D01*
X227774606Y-261594957D01*
X226913314Y-261851877D01*
X226464815Y-262008577D01*
X226049923Y-262170626D01*
X225648951Y-262349586D01*
X225242206Y-262557021D01*
X224810001Y-262804493D01*
X224332646Y-263103565D01*
X223790451Y-263465801D01*
X223163727Y-263902762D01*
X222432783Y-264426011D01*
X222017166Y-264727176D01*
X220806987Y-265594572D01*
X219692033Y-266366417D01*
X218642359Y-267061203D01*
X217628024Y-267697426D01*
X216619083Y-268293579D01*
X215585592Y-268868158D01*
X214497609Y-269439656D01*
X213889166Y-269747365D01*
X212726548Y-270305843D01*
X211659862Y-270766205D01*
X210654654Y-271138377D01*
X209676471Y-271432284D01*
X208690858Y-271657851D01*
X207663359Y-271825004D01*
X206559522Y-271943669D01*
X206156146Y-271975058D01*
X205643013Y-271999588D01*
X205061198Y-272007676D01*
X204448446Y-272000732D01*
X203842498Y-271980168D01*
X203281099Y-271947395D01*
X202801991Y-271903824D01*
X202442917Y-271850867D01*
X202363838Y-271833258D01*
X202168894Y-271784331D01*
X202430540Y-271263582D01*
X202987513Y-270204232D01*
X203626877Y-269072851D01*
X204325336Y-267906193D01*
X205059591Y-266741009D01*
X205806344Y-265614054D01*
X206542298Y-264562081D01*
X207244154Y-263621841D01*
X207403135Y-263419166D01*
X208202897Y-262461659D01*
X208976049Y-261645935D01*
X209745653Y-260951894D01*
X210534774Y-260359438D01*
X211366474Y-259848465D01*
X211710080Y-259665538D01*
X212922540Y-259112914D01*
X214105949Y-258714941D01*
X215285339Y-258465807D01*
X216485745Y-258359699D01*
X217309289Y-258365517D01*
X218113604Y-258417881D01*
X218808861Y-258507833D01*
X219453345Y-258647086D01*
X220105343Y-258847357D01*
X220577833Y-259022455D01*
X220965395Y-259185049D01*
X221375108Y-259375708D01*
X221780795Y-259579870D01*
X222156281Y-259782973D01*
X222475391Y-259970455D01*
X222711950Y-260127752D01*
X222839781Y-260240302D01*
X222849144Y-260286076D01*
X222757704Y-260353869D01*
X222552441Y-260498424D01*
X222259665Y-260701441D01*
X221905687Y-260944620D01*
X221720833Y-261070872D01*
X220662500Y-261792337D01*
X220043116Y-261634500D01*
X219026120Y-261431001D01*
X217985689Y-261326189D01*
X216962294Y-261320378D01*
X215996409Y-261413883D01*
X215163494Y-261596591D01*
X214068984Y-262002415D01*
X212995177Y-262564102D01*
X211959037Y-263268224D01*
X210977524Y-264101351D01*
X210067601Y-265050056D01*
X209246231Y-266100909D01*
X208983528Y-266489251D01*
X208769156Y-266835807D01*
X208547385Y-267223033D01*
X208335459Y-267617246D01*
X208150618Y-267984762D01*
X208010106Y-268291899D01*
X207931164Y-268504973D01*
X207920166Y-268566543D01*
X207991667Y-268611650D01*
X208153000Y-268608078D01*
X209830787Y-268272842D01*
X211517912Y-267796387D01*
X213226004Y-267174401D01*
X214966696Y-266402573D01*
X216751618Y-265476589D01*
X217049346Y-265309729D01*
X217351457Y-265131256D01*
X217774911Y-264870200D01*
X218300739Y-264538772D01*
X218909970Y-264149182D01*
X219583633Y-263713640D01*
X220302756Y-263244355D01*
X221048371Y-262753538D01*
X221801504Y-262253399D01*
X221895534Y-262190631D01*
X222830876Y-261567798D01*
X223641175Y-261033088D01*
X224340594Y-260578206D01*
X224943293Y-260194857D01*
X225463434Y-259874747D01*
X225915177Y-259609581D01*
X226312684Y-259391064D01*
X226670117Y-259210902D01*
X227001635Y-259060800D01*
X227321401Y-258932464D01*
X227643575Y-258817598D01*
X227668536Y-258809192D01*
X228432481Y-258604141D01*
X229304485Y-258456007D01*
X230231897Y-258368367D01*
X231162063Y-258344801D01*
X232042329Y-258388889D01*
X232649730Y-258470597D01*
X233498946Y-258673095D01*
X234416066Y-258977641D01*
X235352049Y-259363821D01*
X236257852Y-259811220D01*
X237084432Y-260299425D01*
X237155508Y-260346159D01*
X237844267Y-260865460D01*
X238578077Y-261535143D01*
X239349088Y-262344732D01*
X240149449Y-263283750D01*
X240971306Y-264341723D01*
X241806810Y-265508173D01*
X242648107Y-266772626D01*
X243487348Y-268124607D01*
X244316679Y-269553638D01*
X245011514Y-270827787D01*
X245204511Y-271185030D01*
X245339692Y-271448725D01*
X245401897Y-271634827D01*
X245375964Y-271759291D01*
X245246734Y-271838072D01*
X244999047Y-271887124D01*
X244617740Y-271922401D01*
X244087654Y-271959860D01*
X243924380Y-271971865D01*
X242740599Y-272019139D01*
X241547236Y-271977060D01*
G37*
X241547236Y-271977060D02*
X241518854Y-271975058D01*
X240405228Y-271873896D01*
X239378586Y-271730456D01*
X238405901Y-271535085D01*
X237454145Y-271278130D01*
X236490293Y-270949941D01*
X235481316Y-270540864D01*
X234394189Y-270041247D01*
X233658833Y-269677943D01*
X232560767Y-269113779D01*
X231556091Y-268575191D01*
X230613850Y-268043036D01*
X229703088Y-267498169D01*
X228792850Y-266921444D01*
X227852179Y-266293719D01*
X226850120Y-265595848D01*
X225755718Y-264808686D01*
X225589819Y-264687674D01*
X225264640Y-264446808D01*
X225059645Y-264282402D01*
X224956285Y-264173821D01*
X224936012Y-264100428D01*
X224980278Y-264041588D01*
X224997152Y-264028309D01*
X225147504Y-263935717D01*
X225400908Y-263799794D01*
X225719793Y-263638555D01*
X226066585Y-263470016D01*
X226403714Y-263312191D01*
X226693608Y-263183097D01*
X226898695Y-263100749D01*
X226973839Y-263080500D01*
X227077094Y-263125474D01*
X227294888Y-263250005D01*
X227601684Y-263438502D01*
X227971945Y-263675379D01*
X228274742Y-263874619D01*
X230030325Y-264985270D01*
X231736119Y-265944807D01*
X233405944Y-266759044D01*
X235053621Y-267433798D01*
X236692969Y-267974885D01*
X238337809Y-268388122D01*
X239522000Y-268607964D01*
X239696111Y-268606591D01*
X239753592Y-268550926D01*
X239716881Y-268439072D01*
X239619087Y-268214291D01*
X239477025Y-267914008D01*
X239374483Y-267707107D01*
X238674484Y-266485625D01*
X237857402Y-265357513D01*
X236937234Y-264336924D01*
X235927975Y-263438008D01*
X234843622Y-262674917D01*
X233870500Y-262142293D01*
X233088393Y-261804019D01*
X232345443Y-261566638D01*
X231580384Y-261415351D01*
X230731951Y-261335358D01*
X230483833Y-261324180D01*
X229536084Y-261326585D01*
X228655051Y-261413586D01*
X227774606Y-261594957D01*
X226913314Y-261851877D01*
X226464815Y-262008577D01*
X226049923Y-262170626D01*
X225648951Y-262349586D01*
X225242206Y-262557021D01*
X224810001Y-262804493D01*
X224332646Y-263103565D01*
X223790451Y-263465801D01*
X223163727Y-263902762D01*
X222432783Y-264426011D01*
X222017166Y-264727176D01*
X220806987Y-265594572D01*
X219692033Y-266366417D01*
X218642359Y-267061203D01*
X217628024Y-267697426D01*
X216619083Y-268293579D01*
X215585592Y-268868158D01*
X214497609Y-269439656D01*
X213889166Y-269747365D01*
X212726548Y-270305843D01*
X211659862Y-270766205D01*
X210654654Y-271138377D01*
X209676471Y-271432284D01*
X208690858Y-271657851D01*
X207663359Y-271825004D01*
X206559522Y-271943669D01*
X206156146Y-271975058D01*
X205643013Y-271999588D01*
X205061198Y-272007676D01*
X204448446Y-272000732D01*
X203842498Y-271980168D01*
X203281099Y-271947395D01*
X202801991Y-271903824D01*
X202442917Y-271850867D01*
X202363838Y-271833258D01*
X202168894Y-271784331D01*
X202430540Y-271263582D01*
X202987513Y-270204232D01*
X203626877Y-269072851D01*
X204325336Y-267906193D01*
X205059591Y-266741009D01*
X205806344Y-265614054D01*
X206542298Y-264562081D01*
X207244154Y-263621841D01*
X207403135Y-263419166D01*
X208202897Y-262461659D01*
X208976049Y-261645935D01*
X209745653Y-260951894D01*
X210534774Y-260359438D01*
X211366474Y-259848465D01*
X211710080Y-259665538D01*
X212922540Y-259112914D01*
X214105949Y-258714941D01*
X215285339Y-258465807D01*
X216485745Y-258359699D01*
X217309289Y-258365517D01*
X218113604Y-258417881D01*
X218808861Y-258507833D01*
X219453345Y-258647086D01*
X220105343Y-258847357D01*
X220577833Y-259022455D01*
X220965395Y-259185049D01*
X221375108Y-259375708D01*
X221780795Y-259579870D01*
X222156281Y-259782973D01*
X222475391Y-259970455D01*
X222711950Y-260127752D01*
X222839781Y-260240302D01*
X222849144Y-260286076D01*
X222757704Y-260353869D01*
X222552441Y-260498424D01*
X222259665Y-260701441D01*
X221905687Y-260944620D01*
X221720833Y-261070872D01*
X220662500Y-261792337D01*
X220043116Y-261634500D01*
X219026120Y-261431001D01*
X217985689Y-261326189D01*
X216962294Y-261320378D01*
X215996409Y-261413883D01*
X215163494Y-261596591D01*
X214068984Y-262002415D01*
X212995177Y-262564102D01*
X211959037Y-263268224D01*
X210977524Y-264101351D01*
X210067601Y-265050056D01*
X209246231Y-266100909D01*
X208983528Y-266489251D01*
X208769156Y-266835807D01*
X208547385Y-267223033D01*
X208335459Y-267617246D01*
X208150618Y-267984762D01*
X208010106Y-268291899D01*
X207931164Y-268504973D01*
X207920166Y-268566543D01*
X207991667Y-268611650D01*
X208153000Y-268608078D01*
X209830787Y-268272842D01*
X211517912Y-267796387D01*
X213226004Y-267174401D01*
X214966696Y-266402573D01*
X216751618Y-265476589D01*
X217049346Y-265309729D01*
X217351457Y-265131256D01*
X217774911Y-264870200D01*
X218300739Y-264538772D01*
X218909970Y-264149182D01*
X219583633Y-263713640D01*
X220302756Y-263244355D01*
X221048371Y-262753538D01*
X221801504Y-262253399D01*
X221895534Y-262190631D01*
X222830876Y-261567798D01*
X223641175Y-261033088D01*
X224340594Y-260578206D01*
X224943293Y-260194857D01*
X225463434Y-259874747D01*
X225915177Y-259609581D01*
X226312684Y-259391064D01*
X226670117Y-259210902D01*
X227001635Y-259060800D01*
X227321401Y-258932464D01*
X227643575Y-258817598D01*
X227668536Y-258809192D01*
X228432481Y-258604141D01*
X229304485Y-258456007D01*
X230231897Y-258368367D01*
X231162063Y-258344801D01*
X232042329Y-258388889D01*
X232649730Y-258470597D01*
X233498946Y-258673095D01*
X234416066Y-258977641D01*
X235352049Y-259363821D01*
X236257852Y-259811220D01*
X237084432Y-260299425D01*
X237155508Y-260346159D01*
X237844267Y-260865460D01*
X238578077Y-261535143D01*
X239349088Y-262344732D01*
X240149449Y-263283750D01*
X240971306Y-264341723D01*
X241806810Y-265508173D01*
X242648107Y-266772626D01*
X243487348Y-268124607D01*
X244316679Y-269553638D01*
X245011514Y-270827787D01*
X245204511Y-271185030D01*
X245339692Y-271448725D01*
X245401897Y-271634827D01*
X245375964Y-271759291D01*
X245246734Y-271838072D01*
X244999047Y-271887124D01*
X244617740Y-271922401D01*
X244087654Y-271959860D01*
X243924380Y-271971865D01*
X242740599Y-272019139D01*
X241547236Y-271977060D01*
G36*
X213278525Y-279149879D02*
G01*
X213385853Y-278094933D01*
X213589241Y-276928307D01*
X213882439Y-275673252D01*
X214259197Y-274353022D01*
X214713268Y-272990867D01*
X215238401Y-271610042D01*
X215429330Y-271146846D01*
X215900169Y-270026860D01*
X216699699Y-269599660D01*
X217142069Y-269353651D01*
X217693666Y-269031465D01*
X218323505Y-268651865D01*
X219000600Y-268233616D01*
X219693964Y-267795481D01*
X219942833Y-267635698D01*
X220239166Y-267444590D01*
X220019640Y-267739045D01*
X219182149Y-268927266D01*
X218399902Y-270165134D01*
X217694905Y-271414114D01*
X217089166Y-272635671D01*
X216690135Y-273569042D01*
X216529276Y-274003943D01*
X216370133Y-274479852D01*
X216223502Y-274959197D01*
X216100179Y-275404412D01*
X216010963Y-275777925D01*
X215966647Y-276042168D01*
X215963713Y-276096812D01*
X215963500Y-276286123D01*
X216450333Y-276105659D01*
X218004410Y-275440231D01*
X219487580Y-274626186D01*
X220888678Y-273673356D01*
X222196536Y-272591569D01*
X223399990Y-271390653D01*
X224487872Y-270080440D01*
X225449016Y-268670758D01*
X226007393Y-267692785D01*
X226194597Y-267347535D01*
X226356237Y-267065142D01*
X226474920Y-266874940D01*
X226532998Y-266806254D01*
X226629795Y-266855564D01*
X226793227Y-266975825D01*
X226818855Y-266996754D01*
X227048544Y-267186833D01*
X226705699Y-268202833D01*
X226189208Y-269549094D01*
X225578743Y-270815832D01*
X224887794Y-271979028D01*
X224129854Y-273014666D01*
X223763634Y-273440276D01*
X222789966Y-274441704D01*
X221747399Y-275373293D01*
X220621050Y-276244499D01*
X219396038Y-277064773D01*
X218057478Y-277843572D01*
X216590490Y-278590348D01*
X214980189Y-279314556D01*
X213685690Y-279842229D01*
X213228214Y-280021592D01*
X213278525Y-279149879D01*
G37*
X213278525Y-279149879D02*
X213385853Y-278094933D01*
X213589241Y-276928307D01*
X213882439Y-275673252D01*
X214259197Y-274353022D01*
X214713268Y-272990867D01*
X215238401Y-271610042D01*
X215429330Y-271146846D01*
X215900169Y-270026860D01*
X216699699Y-269599660D01*
X217142069Y-269353651D01*
X217693666Y-269031465D01*
X218323505Y-268651865D01*
X219000600Y-268233616D01*
X219693964Y-267795481D01*
X219942833Y-267635698D01*
X220239166Y-267444590D01*
X220019640Y-267739045D01*
X219182149Y-268927266D01*
X218399902Y-270165134D01*
X217694905Y-271414114D01*
X217089166Y-272635671D01*
X216690135Y-273569042D01*
X216529276Y-274003943D01*
X216370133Y-274479852D01*
X216223502Y-274959197D01*
X216100179Y-275404412D01*
X216010963Y-275777925D01*
X215966647Y-276042168D01*
X215963713Y-276096812D01*
X215963500Y-276286123D01*
X216450333Y-276105659D01*
X218004410Y-275440231D01*
X219487580Y-274626186D01*
X220888678Y-273673356D01*
X222196536Y-272591569D01*
X223399990Y-271390653D01*
X224487872Y-270080440D01*
X225449016Y-268670758D01*
X226007393Y-267692785D01*
X226194597Y-267347535D01*
X226356237Y-267065142D01*
X226474920Y-266874940D01*
X226532998Y-266806254D01*
X226629795Y-266855564D01*
X226793227Y-266975825D01*
X226818855Y-266996754D01*
X227048544Y-267186833D01*
X226705699Y-268202833D01*
X226189208Y-269549094D01*
X225578743Y-270815832D01*
X224887794Y-271979028D01*
X224129854Y-273014666D01*
X223763634Y-273440276D01*
X222789966Y-274441704D01*
X221747399Y-275373293D01*
X220621050Y-276244499D01*
X219396038Y-277064773D01*
X218057478Y-277843572D01*
X216590490Y-278590348D01*
X214980189Y-279314556D01*
X213685690Y-279842229D01*
X213228214Y-280021592D01*
X213278525Y-279149879D01*
G36*
X233989310Y-279842915D02*
G01*
X232334003Y-279164088D01*
X230833712Y-278479358D01*
X229474138Y-277780409D01*
X228240979Y-277058925D01*
X227119936Y-276306588D01*
X226096709Y-275515085D01*
X225238984Y-274754203D01*
X224525773Y-274079089D01*
X225041160Y-273406098D01*
X225281844Y-273098885D01*
X225447398Y-272910423D01*
X225560308Y-272821099D01*
X225643061Y-272811300D01*
X225691781Y-272838636D01*
X225820892Y-272941977D01*
X226037176Y-273117589D01*
X226297090Y-273330099D01*
X226335091Y-273361281D01*
X226992175Y-273856385D01*
X227769166Y-274368864D01*
X228621969Y-274873944D01*
X229506488Y-275346853D01*
X230378626Y-275762817D01*
X231194287Y-276097065D01*
X231224666Y-276108220D01*
X231711500Y-276286123D01*
X231711286Y-276096812D01*
X231683367Y-275874809D01*
X231607141Y-275531691D01*
X231493406Y-275105028D01*
X231352959Y-274632388D01*
X231196595Y-274151341D01*
X231035111Y-273699456D01*
X230984864Y-273569042D01*
X230517936Y-272491940D01*
X229945276Y-271352040D01*
X229292237Y-270193738D01*
X228584172Y-269061429D01*
X227846437Y-267999510D01*
X227666477Y-267758333D01*
X227544504Y-267588146D01*
X227488665Y-267491499D01*
X227490188Y-267483166D01*
X227570609Y-267526905D01*
X227754985Y-267642867D01*
X228007169Y-267808170D01*
X228071737Y-267851283D01*
X228458817Y-268103283D01*
X228929467Y-268398390D01*
X229446490Y-268714377D01*
X229972689Y-269029021D01*
X230470869Y-269320097D01*
X230903833Y-269565380D01*
X231234384Y-269742646D01*
X231253120Y-269752132D01*
X231768408Y-270011591D01*
X232242458Y-271139212D01*
X232792309Y-272526691D01*
X233272478Y-273901991D01*
X233676775Y-275242100D01*
X233999013Y-276524005D01*
X234233005Y-277724693D01*
X234372562Y-278821150D01*
X234396475Y-279149879D01*
X234446786Y-280021592D01*
X233989310Y-279842915D01*
G37*
X233989310Y-279842915D02*
X232334003Y-279164088D01*
X230833712Y-278479358D01*
X229474138Y-277780409D01*
X228240979Y-277058925D01*
X227119936Y-276306588D01*
X226096709Y-275515085D01*
X225238984Y-274754203D01*
X224525773Y-274079089D01*
X225041160Y-273406098D01*
X225281844Y-273098885D01*
X225447398Y-272910423D01*
X225560308Y-272821099D01*
X225643061Y-272811300D01*
X225691781Y-272838636D01*
X225820892Y-272941977D01*
X226037176Y-273117589D01*
X226297090Y-273330099D01*
X226335091Y-273361281D01*
X226992175Y-273856385D01*
X227769166Y-274368864D01*
X228621969Y-274873944D01*
X229506488Y-275346853D01*
X230378626Y-275762817D01*
X231194287Y-276097065D01*
X231224666Y-276108220D01*
X231711500Y-276286123D01*
X231711286Y-276096812D01*
X231683367Y-275874809D01*
X231607141Y-275531691D01*
X231493406Y-275105028D01*
X231352959Y-274632388D01*
X231196595Y-274151341D01*
X231035111Y-273699456D01*
X230984864Y-273569042D01*
X230517936Y-272491940D01*
X229945276Y-271352040D01*
X229292237Y-270193738D01*
X228584172Y-269061429D01*
X227846437Y-267999510D01*
X227666477Y-267758333D01*
X227544504Y-267588146D01*
X227488665Y-267491499D01*
X227490188Y-267483166D01*
X227570609Y-267526905D01*
X227754985Y-267642867D01*
X228007169Y-267808170D01*
X228071737Y-267851283D01*
X228458817Y-268103283D01*
X228929467Y-268398390D01*
X229446490Y-268714377D01*
X229972689Y-269029021D01*
X230470869Y-269320097D01*
X230903833Y-269565380D01*
X231234384Y-269742646D01*
X231253120Y-269752132D01*
X231768408Y-270011591D01*
X232242458Y-271139212D01*
X232792309Y-272526691D01*
X233272478Y-273901991D01*
X233676775Y-275242100D01*
X233999013Y-276524005D01*
X234233005Y-277724693D01*
X234372562Y-278821150D01*
X234396475Y-279149879D01*
X234446786Y-280021592D01*
X233989310Y-279842915D01*
G36*
X223735304Y-284528670D02*
G01*
X223548395Y-284375107D01*
X223308130Y-284152037D01*
X223160419Y-284005207D01*
X222681373Y-283435007D01*
X222272662Y-282786572D01*
X221963551Y-282112514D01*
X221801811Y-281562740D01*
X221720539Y-280781584D01*
X221782875Y-279952559D01*
X221982549Y-279106599D01*
X222313287Y-278274638D01*
X222562391Y-277811222D01*
X222742062Y-277527087D01*
X222962572Y-277205090D01*
X223199865Y-276877151D01*
X223429886Y-276575187D01*
X223628582Y-276331118D01*
X223771897Y-276176861D01*
X223821358Y-276140674D01*
X223898321Y-276191761D01*
X224049435Y-276345892D01*
X224245077Y-276572303D01*
X224290067Y-276627415D01*
X224948070Y-277539509D01*
X225438555Y-278441163D01*
X225762810Y-279335298D01*
X225922121Y-280224835D01*
X225931538Y-280352500D01*
X225935109Y-281028052D01*
X225848086Y-281633979D01*
X225656798Y-282235095D01*
X225428105Y-282738947D01*
X225246308Y-283054462D01*
X225008382Y-283400469D01*
X224738984Y-283748336D01*
X224462774Y-284069434D01*
X224204407Y-284335131D01*
X223988543Y-284516796D01*
X223839839Y-284585799D01*
X223837500Y-284585833D01*
X223735304Y-284528670D01*
G37*
X223735304Y-284528670D02*
X223548395Y-284375107D01*
X223308130Y-284152037D01*
X223160419Y-284005207D01*
X222681373Y-283435007D01*
X222272662Y-282786572D01*
X221963551Y-282112514D01*
X221801811Y-281562740D01*
X221720539Y-280781584D01*
X221782875Y-279952559D01*
X221982549Y-279106599D01*
X222313287Y-278274638D01*
X222562391Y-277811222D01*
X222742062Y-277527087D01*
X222962572Y-277205090D01*
X223199865Y-276877151D01*
X223429886Y-276575187D01*
X223628582Y-276331118D01*
X223771897Y-276176861D01*
X223821358Y-276140674D01*
X223898321Y-276191761D01*
X224049435Y-276345892D01*
X224245077Y-276572303D01*
X224290067Y-276627415D01*
X224948070Y-277539509D01*
X225438555Y-278441163D01*
X225762810Y-279335298D01*
X225922121Y-280224835D01*
X225931538Y-280352500D01*
X225935109Y-281028052D01*
X225848086Y-281633979D01*
X225656798Y-282235095D01*
X225428105Y-282738947D01*
X225246308Y-283054462D01*
X225008382Y-283400469D01*
X224738984Y-283748336D01*
X224462774Y-284069434D01*
X224204407Y-284335131D01*
X223988543Y-284516796D01*
X223839839Y-284585799D01*
X223837500Y-284585833D01*
X223735304Y-284528670D01*
G36*
X206127764Y-328097940D02*
G01*
X206156146Y-328099942D01*
X207269772Y-328201104D01*
X208296414Y-328344544D01*
X209269099Y-328539915D01*
X210220855Y-328796870D01*
X211184707Y-329125059D01*
X212193684Y-329534136D01*
X213280811Y-330033753D01*
X214016167Y-330397057D01*
X215114233Y-330961221D01*
X216118909Y-331499809D01*
X217061150Y-332031964D01*
X217971912Y-332576831D01*
X218882150Y-333153556D01*
X219822821Y-333781281D01*
X220824880Y-334479152D01*
X221919282Y-335266314D01*
X222085181Y-335387326D01*
X222410360Y-335628192D01*
X222615355Y-335792598D01*
X222718715Y-335901179D01*
X222738988Y-335974572D01*
X222694722Y-336033412D01*
X222677848Y-336046691D01*
X222527496Y-336139283D01*
X222274092Y-336275206D01*
X221955207Y-336436445D01*
X221608415Y-336604984D01*
X221271286Y-336762809D01*
X220981392Y-336891903D01*
X220776305Y-336974251D01*
X220701161Y-336994500D01*
X220597906Y-336949526D01*
X220380112Y-336824995D01*
X220073316Y-336636498D01*
X219703055Y-336399621D01*
X219400258Y-336200381D01*
X217644675Y-335089730D01*
X215938881Y-334130193D01*
X214269056Y-333315956D01*
X212621379Y-332641202D01*
X210982031Y-332100115D01*
X209337191Y-331686878D01*
X208153000Y-331467036D01*
X207978889Y-331468409D01*
X207921408Y-331524074D01*
X207958119Y-331635928D01*
X208055913Y-331860709D01*
X208197975Y-332160992D01*
X208300517Y-332367893D01*
X209000516Y-333589375D01*
X209817598Y-334717487D01*
X210737766Y-335738076D01*
X211747025Y-336636992D01*
X212831378Y-337400083D01*
X213804500Y-337932707D01*
X214586607Y-338270981D01*
X215329557Y-338508362D01*
X216094616Y-338659649D01*
X216943049Y-338739642D01*
X217191167Y-338750820D01*
X218138916Y-338748415D01*
X219019949Y-338661414D01*
X219900394Y-338480043D01*
X220761686Y-338223123D01*
X221210185Y-338066423D01*
X221625077Y-337904374D01*
X222026049Y-337725414D01*
X222432794Y-337517979D01*
X222864999Y-337270507D01*
X223342354Y-336971435D01*
X223884549Y-336609199D01*
X224511273Y-336172238D01*
X225242217Y-335648989D01*
X225657834Y-335347824D01*
X226868013Y-334480428D01*
X227982967Y-333708583D01*
X229032641Y-333013797D01*
X230046976Y-332377574D01*
X231055917Y-331781421D01*
X232089408Y-331206842D01*
X233177391Y-330635344D01*
X233785834Y-330327635D01*
X234948452Y-329769157D01*
X236015138Y-329308795D01*
X237020346Y-328936623D01*
X237998529Y-328642716D01*
X238984142Y-328417149D01*
X240011641Y-328249996D01*
X241115478Y-328131331D01*
X241518854Y-328099942D01*
X242031987Y-328075412D01*
X242613802Y-328067324D01*
X243226554Y-328074268D01*
X243832502Y-328094832D01*
X244393901Y-328127605D01*
X244873009Y-328171176D01*
X245232083Y-328224133D01*
X245311162Y-328241742D01*
X245506106Y-328290669D01*
X245244460Y-328811418D01*
X244687487Y-329870768D01*
X244048123Y-331002149D01*
X243349664Y-332168807D01*
X242615409Y-333333991D01*
X241868656Y-334460946D01*
X241132702Y-335512919D01*
X240430846Y-336453159D01*
X240271865Y-336655834D01*
X239472103Y-337613341D01*
X238698951Y-338429065D01*
X237929347Y-339123106D01*
X237140226Y-339715562D01*
X236308526Y-340226535D01*
X235964920Y-340409462D01*
X234752460Y-340962086D01*
X233569051Y-341360059D01*
X232389661Y-341609193D01*
X231189255Y-341715301D01*
X230365711Y-341709483D01*
X229561396Y-341657119D01*
X228866139Y-341567167D01*
X228221655Y-341427914D01*
X227569657Y-341227643D01*
X227097167Y-341052545D01*
X226709605Y-340889951D01*
X226299892Y-340699292D01*
X225894205Y-340495130D01*
X225518719Y-340292027D01*
X225199609Y-340104545D01*
X224963050Y-339947248D01*
X224835219Y-339834698D01*
X224825856Y-339788924D01*
X224917296Y-339721131D01*
X225122559Y-339576576D01*
X225415335Y-339373559D01*
X225769313Y-339130380D01*
X225954167Y-339004128D01*
X227012500Y-338282663D01*
X227631884Y-338440500D01*
X228648880Y-338643999D01*
X229689311Y-338748811D01*
X230712706Y-338754622D01*
X231678591Y-338661117D01*
X232511506Y-338478409D01*
X233606016Y-338072585D01*
X234679823Y-337510898D01*
X235715963Y-336806776D01*
X236697476Y-335973649D01*
X237607399Y-335024944D01*
X238428769Y-333974091D01*
X238691472Y-333585749D01*
X238905844Y-333239193D01*
X239127615Y-332851967D01*
X239339541Y-332457754D01*
X239524382Y-332090238D01*
X239664894Y-331783101D01*
X239743836Y-331570027D01*
X239754834Y-331508457D01*
X239683333Y-331463350D01*
X239522000Y-331466922D01*
X237844213Y-331802158D01*
X236157088Y-332278613D01*
X234448996Y-332900599D01*
X232708304Y-333672427D01*
X230923382Y-334598411D01*
X230625654Y-334765271D01*
X230323543Y-334943744D01*
X229900089Y-335204800D01*
X229374261Y-335536228D01*
X228765030Y-335925818D01*
X228091367Y-336361360D01*
X227372244Y-336830645D01*
X226626629Y-337321462D01*
X225873496Y-337821601D01*
X225779466Y-337884369D01*
X224844124Y-338507202D01*
X224033825Y-339041912D01*
X223334406Y-339496794D01*
X222731707Y-339880143D01*
X222211566Y-340200253D01*
X221759823Y-340465419D01*
X221362316Y-340683936D01*
X221004883Y-340864098D01*
X220673365Y-341014200D01*
X220353599Y-341142536D01*
X220031425Y-341257402D01*
X220006464Y-341265808D01*
X219242519Y-341470859D01*
X218370515Y-341618993D01*
X217443103Y-341706633D01*
X216512937Y-341730199D01*
X215632671Y-341686111D01*
X215025270Y-341604403D01*
X214176054Y-341401905D01*
X213258934Y-341097359D01*
X212322951Y-340711179D01*
X211417148Y-340263780D01*
X210590568Y-339775575D01*
X210519492Y-339728841D01*
X209830733Y-339209540D01*
X209096923Y-338539857D01*
X208325912Y-337730268D01*
X207525551Y-336791250D01*
X206703694Y-335733277D01*
X205868190Y-334566827D01*
X205026893Y-333302374D01*
X204187652Y-331950393D01*
X203358321Y-330521362D01*
X202663486Y-329247213D01*
X202470489Y-328889970D01*
X202335308Y-328626275D01*
X202273103Y-328440173D01*
X202299036Y-328315709D01*
X202428266Y-328236928D01*
X202675953Y-328187876D01*
X203057260Y-328152599D01*
X203587346Y-328115140D01*
X203750620Y-328103135D01*
X204934401Y-328055861D01*
X206127764Y-328097940D01*
G37*
X206127764Y-328097940D02*
X206156146Y-328099942D01*
X207269772Y-328201104D01*
X208296414Y-328344544D01*
X209269099Y-328539915D01*
X210220855Y-328796870D01*
X211184707Y-329125059D01*
X212193684Y-329534136D01*
X213280811Y-330033753D01*
X214016167Y-330397057D01*
X215114233Y-330961221D01*
X216118909Y-331499809D01*
X217061150Y-332031964D01*
X217971912Y-332576831D01*
X218882150Y-333153556D01*
X219822821Y-333781281D01*
X220824880Y-334479152D01*
X221919282Y-335266314D01*
X222085181Y-335387326D01*
X222410360Y-335628192D01*
X222615355Y-335792598D01*
X222718715Y-335901179D01*
X222738988Y-335974572D01*
X222694722Y-336033412D01*
X222677848Y-336046691D01*
X222527496Y-336139283D01*
X222274092Y-336275206D01*
X221955207Y-336436445D01*
X221608415Y-336604984D01*
X221271286Y-336762809D01*
X220981392Y-336891903D01*
X220776305Y-336974251D01*
X220701161Y-336994500D01*
X220597906Y-336949526D01*
X220380112Y-336824995D01*
X220073316Y-336636498D01*
X219703055Y-336399621D01*
X219400258Y-336200381D01*
X217644675Y-335089730D01*
X215938881Y-334130193D01*
X214269056Y-333315956D01*
X212621379Y-332641202D01*
X210982031Y-332100115D01*
X209337191Y-331686878D01*
X208153000Y-331467036D01*
X207978889Y-331468409D01*
X207921408Y-331524074D01*
X207958119Y-331635928D01*
X208055913Y-331860709D01*
X208197975Y-332160992D01*
X208300517Y-332367893D01*
X209000516Y-333589375D01*
X209817598Y-334717487D01*
X210737766Y-335738076D01*
X211747025Y-336636992D01*
X212831378Y-337400083D01*
X213804500Y-337932707D01*
X214586607Y-338270981D01*
X215329557Y-338508362D01*
X216094616Y-338659649D01*
X216943049Y-338739642D01*
X217191167Y-338750820D01*
X218138916Y-338748415D01*
X219019949Y-338661414D01*
X219900394Y-338480043D01*
X220761686Y-338223123D01*
X221210185Y-338066423D01*
X221625077Y-337904374D01*
X222026049Y-337725414D01*
X222432794Y-337517979D01*
X222864999Y-337270507D01*
X223342354Y-336971435D01*
X223884549Y-336609199D01*
X224511273Y-336172238D01*
X225242217Y-335648989D01*
X225657834Y-335347824D01*
X226868013Y-334480428D01*
X227982967Y-333708583D01*
X229032641Y-333013797D01*
X230046976Y-332377574D01*
X231055917Y-331781421D01*
X232089408Y-331206842D01*
X233177391Y-330635344D01*
X233785834Y-330327635D01*
X234948452Y-329769157D01*
X236015138Y-329308795D01*
X237020346Y-328936623D01*
X237998529Y-328642716D01*
X238984142Y-328417149D01*
X240011641Y-328249996D01*
X241115478Y-328131331D01*
X241518854Y-328099942D01*
X242031987Y-328075412D01*
X242613802Y-328067324D01*
X243226554Y-328074268D01*
X243832502Y-328094832D01*
X244393901Y-328127605D01*
X244873009Y-328171176D01*
X245232083Y-328224133D01*
X245311162Y-328241742D01*
X245506106Y-328290669D01*
X245244460Y-328811418D01*
X244687487Y-329870768D01*
X244048123Y-331002149D01*
X243349664Y-332168807D01*
X242615409Y-333333991D01*
X241868656Y-334460946D01*
X241132702Y-335512919D01*
X240430846Y-336453159D01*
X240271865Y-336655834D01*
X239472103Y-337613341D01*
X238698951Y-338429065D01*
X237929347Y-339123106D01*
X237140226Y-339715562D01*
X236308526Y-340226535D01*
X235964920Y-340409462D01*
X234752460Y-340962086D01*
X233569051Y-341360059D01*
X232389661Y-341609193D01*
X231189255Y-341715301D01*
X230365711Y-341709483D01*
X229561396Y-341657119D01*
X228866139Y-341567167D01*
X228221655Y-341427914D01*
X227569657Y-341227643D01*
X227097167Y-341052545D01*
X226709605Y-340889951D01*
X226299892Y-340699292D01*
X225894205Y-340495130D01*
X225518719Y-340292027D01*
X225199609Y-340104545D01*
X224963050Y-339947248D01*
X224835219Y-339834698D01*
X224825856Y-339788924D01*
X224917296Y-339721131D01*
X225122559Y-339576576D01*
X225415335Y-339373559D01*
X225769313Y-339130380D01*
X225954167Y-339004128D01*
X227012500Y-338282663D01*
X227631884Y-338440500D01*
X228648880Y-338643999D01*
X229689311Y-338748811D01*
X230712706Y-338754622D01*
X231678591Y-338661117D01*
X232511506Y-338478409D01*
X233606016Y-338072585D01*
X234679823Y-337510898D01*
X235715963Y-336806776D01*
X236697476Y-335973649D01*
X237607399Y-335024944D01*
X238428769Y-333974091D01*
X238691472Y-333585749D01*
X238905844Y-333239193D01*
X239127615Y-332851967D01*
X239339541Y-332457754D01*
X239524382Y-332090238D01*
X239664894Y-331783101D01*
X239743836Y-331570027D01*
X239754834Y-331508457D01*
X239683333Y-331463350D01*
X239522000Y-331466922D01*
X237844213Y-331802158D01*
X236157088Y-332278613D01*
X234448996Y-332900599D01*
X232708304Y-333672427D01*
X230923382Y-334598411D01*
X230625654Y-334765271D01*
X230323543Y-334943744D01*
X229900089Y-335204800D01*
X229374261Y-335536228D01*
X228765030Y-335925818D01*
X228091367Y-336361360D01*
X227372244Y-336830645D01*
X226626629Y-337321462D01*
X225873496Y-337821601D01*
X225779466Y-337884369D01*
X224844124Y-338507202D01*
X224033825Y-339041912D01*
X223334406Y-339496794D01*
X222731707Y-339880143D01*
X222211566Y-340200253D01*
X221759823Y-340465419D01*
X221362316Y-340683936D01*
X221004883Y-340864098D01*
X220673365Y-341014200D01*
X220353599Y-341142536D01*
X220031425Y-341257402D01*
X220006464Y-341265808D01*
X219242519Y-341470859D01*
X218370515Y-341618993D01*
X217443103Y-341706633D01*
X216512937Y-341730199D01*
X215632671Y-341686111D01*
X215025270Y-341604403D01*
X214176054Y-341401905D01*
X213258934Y-341097359D01*
X212322951Y-340711179D01*
X211417148Y-340263780D01*
X210590568Y-339775575D01*
X210519492Y-339728841D01*
X209830733Y-339209540D01*
X209096923Y-338539857D01*
X208325912Y-337730268D01*
X207525551Y-336791250D01*
X206703694Y-335733277D01*
X205868190Y-334566827D01*
X205026893Y-333302374D01*
X204187652Y-331950393D01*
X203358321Y-330521362D01*
X202663486Y-329247213D01*
X202470489Y-328889970D01*
X202335308Y-328626275D01*
X202273103Y-328440173D01*
X202299036Y-328315709D01*
X202428266Y-328236928D01*
X202675953Y-328187876D01*
X203057260Y-328152599D01*
X203587346Y-328115140D01*
X203750620Y-328103135D01*
X204934401Y-328055861D01*
X206127764Y-328097940D01*
G36*
X234396475Y-320925121D02*
G01*
X234289147Y-321980067D01*
X234085759Y-323146693D01*
X233792561Y-324401748D01*
X233415803Y-325721978D01*
X232961732Y-327084133D01*
X232436599Y-328464958D01*
X232245670Y-328928154D01*
X231774831Y-330048140D01*
X230975301Y-330475340D01*
X230532931Y-330721349D01*
X229981334Y-331043535D01*
X229351495Y-331423135D01*
X228674400Y-331841384D01*
X227981036Y-332279519D01*
X227732167Y-332439302D01*
X227435834Y-332630410D01*
X227655360Y-332335955D01*
X228492851Y-331147734D01*
X229275098Y-329909866D01*
X229980095Y-328660886D01*
X230585834Y-327439329D01*
X230984865Y-326505958D01*
X231145724Y-326071057D01*
X231304867Y-325595148D01*
X231451498Y-325115803D01*
X231574821Y-324670588D01*
X231664037Y-324297075D01*
X231708353Y-324032832D01*
X231711287Y-323978188D01*
X231711500Y-323788877D01*
X231224667Y-323969341D01*
X229670590Y-324634769D01*
X228187420Y-325448814D01*
X226786322Y-326401644D01*
X225478464Y-327483431D01*
X224275010Y-328684347D01*
X223187128Y-329994560D01*
X222225984Y-331404242D01*
X221667607Y-332382215D01*
X221480403Y-332727465D01*
X221318763Y-333009858D01*
X221200080Y-333200060D01*
X221142002Y-333268746D01*
X221045205Y-333219436D01*
X220881773Y-333099175D01*
X220856145Y-333078246D01*
X220626456Y-332888167D01*
X220969301Y-331872167D01*
X221485792Y-330525906D01*
X222096257Y-329259168D01*
X222787206Y-328095972D01*
X223545146Y-327060334D01*
X223911366Y-326634724D01*
X224885034Y-325633296D01*
X225927601Y-324701707D01*
X227053950Y-323830501D01*
X228278962Y-323010227D01*
X229617522Y-322231428D01*
X231084510Y-321484652D01*
X232694811Y-320760444D01*
X233989310Y-320232771D01*
X234446786Y-320053408D01*
X234396475Y-320925121D01*
G37*
X234396475Y-320925121D02*
X234289147Y-321980067D01*
X234085759Y-323146693D01*
X233792561Y-324401748D01*
X233415803Y-325721978D01*
X232961732Y-327084133D01*
X232436599Y-328464958D01*
X232245670Y-328928154D01*
X231774831Y-330048140D01*
X230975301Y-330475340D01*
X230532931Y-330721349D01*
X229981334Y-331043535D01*
X229351495Y-331423135D01*
X228674400Y-331841384D01*
X227981036Y-332279519D01*
X227732167Y-332439302D01*
X227435834Y-332630410D01*
X227655360Y-332335955D01*
X228492851Y-331147734D01*
X229275098Y-329909866D01*
X229980095Y-328660886D01*
X230585834Y-327439329D01*
X230984865Y-326505958D01*
X231145724Y-326071057D01*
X231304867Y-325595148D01*
X231451498Y-325115803D01*
X231574821Y-324670588D01*
X231664037Y-324297075D01*
X231708353Y-324032832D01*
X231711287Y-323978188D01*
X231711500Y-323788877D01*
X231224667Y-323969341D01*
X229670590Y-324634769D01*
X228187420Y-325448814D01*
X226786322Y-326401644D01*
X225478464Y-327483431D01*
X224275010Y-328684347D01*
X223187128Y-329994560D01*
X222225984Y-331404242D01*
X221667607Y-332382215D01*
X221480403Y-332727465D01*
X221318763Y-333009858D01*
X221200080Y-333200060D01*
X221142002Y-333268746D01*
X221045205Y-333219436D01*
X220881773Y-333099175D01*
X220856145Y-333078246D01*
X220626456Y-332888167D01*
X220969301Y-331872167D01*
X221485792Y-330525906D01*
X222096257Y-329259168D01*
X222787206Y-328095972D01*
X223545146Y-327060334D01*
X223911366Y-326634724D01*
X224885034Y-325633296D01*
X225927601Y-324701707D01*
X227053950Y-323830501D01*
X228278962Y-323010227D01*
X229617522Y-322231428D01*
X231084510Y-321484652D01*
X232694811Y-320760444D01*
X233989310Y-320232771D01*
X234446786Y-320053408D01*
X234396475Y-320925121D01*
G36*
X213685690Y-320232085D02*
G01*
X215340997Y-320910912D01*
X216841288Y-321595642D01*
X218200862Y-322294591D01*
X219434021Y-323016075D01*
X220555064Y-323768412D01*
X221578291Y-324559915D01*
X222436016Y-325320797D01*
X223149227Y-325995911D01*
X222633840Y-326668902D01*
X222393156Y-326976115D01*
X222227602Y-327164577D01*
X222114692Y-327253901D01*
X222031939Y-327263700D01*
X221983219Y-327236364D01*
X221854108Y-327133023D01*
X221637824Y-326957411D01*
X221377910Y-326744901D01*
X221339909Y-326713719D01*
X220682825Y-326218615D01*
X219905834Y-325706136D01*
X219053031Y-325201056D01*
X218168512Y-324728147D01*
X217296374Y-324312183D01*
X216480713Y-323977935D01*
X216450334Y-323966780D01*
X215963500Y-323788877D01*
X215963714Y-323978188D01*
X215991633Y-324200191D01*
X216067859Y-324543309D01*
X216181594Y-324969972D01*
X216322041Y-325442612D01*
X216478405Y-325923659D01*
X216639889Y-326375544D01*
X216690136Y-326505958D01*
X217157064Y-327583060D01*
X217729724Y-328722960D01*
X218382763Y-329881262D01*
X219090828Y-331013571D01*
X219828563Y-332075490D01*
X220008523Y-332316667D01*
X220130496Y-332486854D01*
X220186335Y-332583501D01*
X220184812Y-332591834D01*
X220104391Y-332548095D01*
X219920015Y-332432133D01*
X219667831Y-332266830D01*
X219603263Y-332223717D01*
X219216183Y-331971717D01*
X218745533Y-331676610D01*
X218228510Y-331360623D01*
X217702311Y-331045979D01*
X217204131Y-330754903D01*
X216771167Y-330509620D01*
X216440616Y-330332354D01*
X216421880Y-330322868D01*
X215906592Y-330063409D01*
X215432542Y-328935788D01*
X214882691Y-327548309D01*
X214402522Y-326173009D01*
X213998225Y-324832900D01*
X213675987Y-323550995D01*
X213441995Y-322350307D01*
X213302438Y-321253850D01*
X213278525Y-320925121D01*
X213228214Y-320053408D01*
X213685690Y-320232085D01*
G37*
X213685690Y-320232085D02*
X215340997Y-320910912D01*
X216841288Y-321595642D01*
X218200862Y-322294591D01*
X219434021Y-323016075D01*
X220555064Y-323768412D01*
X221578291Y-324559915D01*
X222436016Y-325320797D01*
X223149227Y-325995911D01*
X222633840Y-326668902D01*
X222393156Y-326976115D01*
X222227602Y-327164577D01*
X222114692Y-327253901D01*
X222031939Y-327263700D01*
X221983219Y-327236364D01*
X221854108Y-327133023D01*
X221637824Y-326957411D01*
X221377910Y-326744901D01*
X221339909Y-326713719D01*
X220682825Y-326218615D01*
X219905834Y-325706136D01*
X219053031Y-325201056D01*
X218168512Y-324728147D01*
X217296374Y-324312183D01*
X216480713Y-323977935D01*
X216450334Y-323966780D01*
X215963500Y-323788877D01*
X215963714Y-323978188D01*
X215991633Y-324200191D01*
X216067859Y-324543309D01*
X216181594Y-324969972D01*
X216322041Y-325442612D01*
X216478405Y-325923659D01*
X216639889Y-326375544D01*
X216690136Y-326505958D01*
X217157064Y-327583060D01*
X217729724Y-328722960D01*
X218382763Y-329881262D01*
X219090828Y-331013571D01*
X219828563Y-332075490D01*
X220008523Y-332316667D01*
X220130496Y-332486854D01*
X220186335Y-332583501D01*
X220184812Y-332591834D01*
X220104391Y-332548095D01*
X219920015Y-332432133D01*
X219667831Y-332266830D01*
X219603263Y-332223717D01*
X219216183Y-331971717D01*
X218745533Y-331676610D01*
X218228510Y-331360623D01*
X217702311Y-331045979D01*
X217204131Y-330754903D01*
X216771167Y-330509620D01*
X216440616Y-330332354D01*
X216421880Y-330322868D01*
X215906592Y-330063409D01*
X215432542Y-328935788D01*
X214882691Y-327548309D01*
X214402522Y-326173009D01*
X213998225Y-324832900D01*
X213675987Y-323550995D01*
X213441995Y-322350307D01*
X213302438Y-321253850D01*
X213278525Y-320925121D01*
X213228214Y-320053408D01*
X213685690Y-320232085D01*
G36*
X223939696Y-315546330D02*
G01*
X224126605Y-315699893D01*
X224366870Y-315922963D01*
X224514581Y-316069793D01*
X224993627Y-316639993D01*
X225402338Y-317288428D01*
X225711449Y-317962486D01*
X225873189Y-318512260D01*
X225954461Y-319293416D01*
X225892125Y-320122441D01*
X225692451Y-320968401D01*
X225361713Y-321800362D01*
X225112609Y-322263778D01*
X224932938Y-322547913D01*
X224712428Y-322869910D01*
X224475135Y-323197849D01*
X224245114Y-323499813D01*
X224046418Y-323743882D01*
X223903103Y-323898139D01*
X223853642Y-323934326D01*
X223776679Y-323883239D01*
X223625565Y-323729108D01*
X223429923Y-323502697D01*
X223384933Y-323447585D01*
X222726930Y-322535491D01*
X222236445Y-321633837D01*
X221912190Y-320739702D01*
X221752879Y-319850165D01*
X221743462Y-319722500D01*
X221739891Y-319046948D01*
X221826914Y-318441021D01*
X222018202Y-317839905D01*
X222246895Y-317336053D01*
X222428692Y-317020538D01*
X222666618Y-316674531D01*
X222936016Y-316326664D01*
X223212226Y-316005566D01*
X223470593Y-315739869D01*
X223686457Y-315558204D01*
X223835161Y-315489201D01*
X223837500Y-315489167D01*
X223939696Y-315546330D01*
G37*
X223939696Y-315546330D02*
X224126605Y-315699893D01*
X224366870Y-315922963D01*
X224514581Y-316069793D01*
X224993627Y-316639993D01*
X225402338Y-317288428D01*
X225711449Y-317962486D01*
X225873189Y-318512260D01*
X225954461Y-319293416D01*
X225892125Y-320122441D01*
X225692451Y-320968401D01*
X225361713Y-321800362D01*
X225112609Y-322263778D01*
X224932938Y-322547913D01*
X224712428Y-322869910D01*
X224475135Y-323197849D01*
X224245114Y-323499813D01*
X224046418Y-323743882D01*
X223903103Y-323898139D01*
X223853642Y-323934326D01*
X223776679Y-323883239D01*
X223625565Y-323729108D01*
X223429923Y-323502697D01*
X223384933Y-323447585D01*
X222726930Y-322535491D01*
X222236445Y-321633837D01*
X221912190Y-320739702D01*
X221752879Y-319850165D01*
X221743462Y-319722500D01*
X221739891Y-319046948D01*
X221826914Y-318441021D01*
X222018202Y-317839905D01*
X222246895Y-317336053D01*
X222428692Y-317020538D01*
X222666618Y-316674531D01*
X222936016Y-316326664D01*
X223212226Y-316005566D01*
X223470593Y-315739869D01*
X223686457Y-315558204D01*
X223835161Y-315489201D01*
X223837500Y-315489167D01*
X223939696Y-315546330D01*
D10*
%TO.C,K33*%
X240362000Y-195026000D02*
X240362000Y-196026000D01*
X239362000Y-209026000D02*
X240362000Y-209026000D01*
X240362000Y-195026000D02*
X239362000Y-195026000D01*
X240362000Y-208026000D02*
X240362000Y-209026000D01*
X226362000Y-209026000D02*
X226362000Y-208026000D01*
X227362000Y-195026000D02*
X226362000Y-195026000D01*
X226362000Y-209026000D02*
X227362000Y-209026000D01*
X226362000Y-196026000D02*
X226362000Y-195026000D01*
%TO.C,K4*%
X126062000Y-214076000D02*
X126062000Y-215076000D01*
X125062000Y-228076000D02*
X126062000Y-228076000D01*
X126062000Y-214076000D02*
X125062000Y-214076000D01*
X126062000Y-227076000D02*
X126062000Y-228076000D01*
X112062000Y-228076000D02*
X112062000Y-227076000D01*
X113062000Y-214076000D02*
X112062000Y-214076000D01*
X112062000Y-228076000D02*
X113062000Y-228076000D01*
X112062000Y-215076000D02*
X112062000Y-214076000D01*
%TO.C,K28*%
X221312000Y-195026000D02*
X221312000Y-196026000D01*
X220312000Y-209026000D02*
X221312000Y-209026000D01*
X221312000Y-195026000D02*
X220312000Y-195026000D01*
X221312000Y-208026000D02*
X221312000Y-209026000D01*
X207312000Y-209026000D02*
X207312000Y-208026000D01*
X208312000Y-195026000D02*
X207312000Y-195026000D01*
X207312000Y-209026000D02*
X208312000Y-209026000D01*
X207312000Y-196026000D02*
X207312000Y-195026000D01*
%TO.C,K23*%
X202262000Y-195026000D02*
X202262000Y-196026000D01*
X201262000Y-209026000D02*
X202262000Y-209026000D01*
X202262000Y-195026000D02*
X201262000Y-195026000D01*
X202262000Y-208026000D02*
X202262000Y-209026000D01*
X188262000Y-209026000D02*
X188262000Y-208026000D01*
X189262000Y-195026000D02*
X188262000Y-195026000D01*
X188262000Y-209026000D02*
X189262000Y-209026000D01*
X188262000Y-196026000D02*
X188262000Y-195026000D01*
%TO.C,K31*%
X240362000Y-156926000D02*
X240362000Y-157926000D01*
X239362000Y-170926000D02*
X240362000Y-170926000D01*
X240362000Y-156926000D02*
X239362000Y-156926000D01*
X240362000Y-169926000D02*
X240362000Y-170926000D01*
X226362000Y-170926000D02*
X226362000Y-169926000D01*
X227362000Y-156926000D02*
X226362000Y-156926000D01*
X226362000Y-170926000D02*
X227362000Y-170926000D01*
X226362000Y-157926000D02*
X226362000Y-156926000D01*
%TO.C,K45*%
X278462000Y-233126000D02*
X278462000Y-234126000D01*
X277462000Y-247126000D02*
X278462000Y-247126000D01*
X278462000Y-233126000D02*
X277462000Y-233126000D01*
X278462000Y-246126000D02*
X278462000Y-247126000D01*
X264462000Y-247126000D02*
X264462000Y-246126000D01*
X265462000Y-233126000D02*
X264462000Y-233126000D01*
X264462000Y-247126000D02*
X265462000Y-247126000D01*
X264462000Y-234126000D02*
X264462000Y-233126000D01*
%TO.C,K36*%
X259412000Y-156926000D02*
X259412000Y-157926000D01*
X258412000Y-170926000D02*
X259412000Y-170926000D01*
X259412000Y-156926000D02*
X258412000Y-156926000D01*
X259412000Y-169926000D02*
X259412000Y-170926000D01*
X245412000Y-170926000D02*
X245412000Y-169926000D01*
X246412000Y-156926000D02*
X245412000Y-156926000D01*
X245412000Y-170926000D02*
X246412000Y-170926000D01*
X245412000Y-157926000D02*
X245412000Y-156926000D01*
D12*
%TO.C,mouse-bite-2mm-slot-3*%
X298138000Y-251650000D02*
G75*
G03*
X298138000Y-249650000I0J1000000D01*
G01*
X302138000Y-249650000D02*
G75*
G03*
X302138000Y-251650000I0J-1000000D01*
G01*
D10*
%TO.C,K27*%
X221312000Y-175976000D02*
X221312000Y-176976000D01*
X220312000Y-189976000D02*
X221312000Y-189976000D01*
X221312000Y-175976000D02*
X220312000Y-175976000D01*
X221312000Y-188976000D02*
X221312000Y-189976000D01*
X207312000Y-189976000D02*
X207312000Y-188976000D01*
X208312000Y-175976000D02*
X207312000Y-175976000D01*
X207312000Y-189976000D02*
X208312000Y-189976000D01*
X207312000Y-176976000D02*
X207312000Y-175976000D01*
%TO.C,K25*%
X202262000Y-233126000D02*
X202262000Y-234126000D01*
X201262000Y-247126000D02*
X202262000Y-247126000D01*
X202262000Y-233126000D02*
X201262000Y-233126000D01*
X202262000Y-246126000D02*
X202262000Y-247126000D01*
X188262000Y-247126000D02*
X188262000Y-246126000D01*
X189262000Y-233126000D02*
X188262000Y-233126000D01*
X188262000Y-247126000D02*
X189262000Y-247126000D01*
X188262000Y-234126000D02*
X188262000Y-233126000D01*
%TO.C,K17*%
X183212000Y-175976000D02*
X183212000Y-176976000D01*
X182212000Y-189976000D02*
X183212000Y-189976000D01*
X183212000Y-175976000D02*
X182212000Y-175976000D01*
X183212000Y-188976000D02*
X183212000Y-189976000D01*
X169212000Y-189976000D02*
X169212000Y-188976000D01*
X170212000Y-175976000D02*
X169212000Y-175976000D01*
X169212000Y-189976000D02*
X170212000Y-189976000D01*
X169212000Y-176976000D02*
X169212000Y-175976000D01*
%TO.C,K35*%
X240362000Y-233126000D02*
X240362000Y-234126000D01*
X239362000Y-247126000D02*
X240362000Y-247126000D01*
X240362000Y-233126000D02*
X239362000Y-233126000D01*
X240362000Y-246126000D02*
X240362000Y-247126000D01*
X226362000Y-247126000D02*
X226362000Y-246126000D01*
X227362000Y-233126000D02*
X226362000Y-233126000D01*
X226362000Y-247126000D02*
X227362000Y-247126000D01*
X226362000Y-234126000D02*
X226362000Y-233126000D01*
%TO.C,K6*%
X145112000Y-156926000D02*
X145112000Y-157926000D01*
X144112000Y-170926000D02*
X145112000Y-170926000D01*
X145112000Y-156926000D02*
X144112000Y-156926000D01*
X145112000Y-169926000D02*
X145112000Y-170926000D01*
X131112000Y-170926000D02*
X131112000Y-169926000D01*
X132112000Y-156926000D02*
X131112000Y-156926000D01*
X131112000Y-170926000D02*
X132112000Y-170926000D01*
X131112000Y-157926000D02*
X131112000Y-156926000D01*
%TO.C,K18*%
X183212000Y-195026000D02*
X183212000Y-196026000D01*
X182212000Y-209026000D02*
X183212000Y-209026000D01*
X183212000Y-195026000D02*
X182212000Y-195026000D01*
X183212000Y-208026000D02*
X183212000Y-209026000D01*
X169212000Y-209026000D02*
X169212000Y-208026000D01*
X170212000Y-195026000D02*
X169212000Y-195026000D01*
X169212000Y-209026000D02*
X170212000Y-209026000D01*
X169212000Y-196026000D02*
X169212000Y-195026000D01*
%TO.C,K40*%
X259412000Y-233126000D02*
X259412000Y-234126000D01*
X258412000Y-247126000D02*
X259412000Y-247126000D01*
X259412000Y-233126000D02*
X258412000Y-233126000D01*
X259412000Y-246126000D02*
X259412000Y-247126000D01*
X245412000Y-247126000D02*
X245412000Y-246126000D01*
X246412000Y-233126000D02*
X245412000Y-233126000D01*
X245412000Y-247126000D02*
X246412000Y-247126000D01*
X245412000Y-234126000D02*
X245412000Y-233126000D01*
%TO.C,K38*%
X259412000Y-195026000D02*
X259412000Y-196026000D01*
X258412000Y-209026000D02*
X259412000Y-209026000D01*
X259412000Y-195026000D02*
X258412000Y-195026000D01*
X259412000Y-208026000D02*
X259412000Y-209026000D01*
X245412000Y-209026000D02*
X245412000Y-208026000D01*
X246412000Y-195026000D02*
X245412000Y-195026000D01*
X245412000Y-209026000D02*
X246412000Y-209026000D01*
X245412000Y-196026000D02*
X245412000Y-195026000D01*
%TO.C,K56*%
X335612000Y-156926000D02*
X335612000Y-157926000D01*
X334612000Y-170926000D02*
X335612000Y-170926000D01*
X335612000Y-156926000D02*
X334612000Y-156926000D01*
X335612000Y-169926000D02*
X335612000Y-170926000D01*
X321612000Y-170926000D02*
X321612000Y-169926000D01*
X322612000Y-156926000D02*
X321612000Y-156926000D01*
X321612000Y-170926000D02*
X322612000Y-170926000D01*
X321612000Y-157926000D02*
X321612000Y-156926000D01*
%TO.C,K8*%
X145112000Y-195026000D02*
X145112000Y-196026000D01*
X144112000Y-209026000D02*
X145112000Y-209026000D01*
X145112000Y-195026000D02*
X144112000Y-195026000D01*
X145112000Y-208026000D02*
X145112000Y-209026000D01*
X131112000Y-209026000D02*
X131112000Y-208026000D01*
X132112000Y-195026000D02*
X131112000Y-195026000D01*
X131112000Y-209026000D02*
X132112000Y-209026000D01*
X131112000Y-196026000D02*
X131112000Y-195026000D01*
%TO.C,K55*%
X316562000Y-233126000D02*
X316562000Y-234126000D01*
X315562000Y-247126000D02*
X316562000Y-247126000D01*
X316562000Y-233126000D02*
X315562000Y-233126000D01*
X316562000Y-246126000D02*
X316562000Y-247126000D01*
X302562000Y-247126000D02*
X302562000Y-246126000D01*
X303562000Y-233126000D02*
X302562000Y-233126000D01*
X302562000Y-247126000D02*
X303562000Y-247126000D01*
X302562000Y-234126000D02*
X302562000Y-233126000D01*
%TO.C,K47*%
X297512000Y-175976000D02*
X297512000Y-176976000D01*
X296512000Y-189976000D02*
X297512000Y-189976000D01*
X297512000Y-175976000D02*
X296512000Y-175976000D01*
X297512000Y-188976000D02*
X297512000Y-189976000D01*
X283512000Y-189976000D02*
X283512000Y-188976000D01*
X284512000Y-175976000D02*
X283512000Y-175976000D01*
X283512000Y-189976000D02*
X284512000Y-189976000D01*
X283512000Y-176976000D02*
X283512000Y-175976000D01*
%TO.C,K29*%
X221312000Y-214076000D02*
X221312000Y-215076000D01*
X220312000Y-228076000D02*
X221312000Y-228076000D01*
X221312000Y-214076000D02*
X220312000Y-214076000D01*
X221312000Y-227076000D02*
X221312000Y-228076000D01*
X207312000Y-228076000D02*
X207312000Y-227076000D01*
X208312000Y-214076000D02*
X207312000Y-214076000D01*
X207312000Y-228076000D02*
X208312000Y-228076000D01*
X207312000Y-215076000D02*
X207312000Y-214076000D01*
%TO.C,K53*%
X316562000Y-195026000D02*
X316562000Y-196026000D01*
X315562000Y-209026000D02*
X316562000Y-209026000D01*
X316562000Y-195026000D02*
X315562000Y-195026000D01*
X316562000Y-208026000D02*
X316562000Y-209026000D01*
X302562000Y-209026000D02*
X302562000Y-208026000D01*
X303562000Y-195026000D02*
X302562000Y-195026000D01*
X302562000Y-209026000D02*
X303562000Y-209026000D01*
X302562000Y-196026000D02*
X302562000Y-195026000D01*
%TO.C,K57*%
X335612000Y-175976000D02*
X335612000Y-176976000D01*
X334612000Y-189976000D02*
X335612000Y-189976000D01*
X335612000Y-175976000D02*
X334612000Y-175976000D01*
X335612000Y-188976000D02*
X335612000Y-189976000D01*
X321612000Y-189976000D02*
X321612000Y-188976000D01*
X322612000Y-175976000D02*
X321612000Y-175976000D01*
X321612000Y-189976000D02*
X322612000Y-189976000D01*
X321612000Y-176976000D02*
X321612000Y-175976000D01*
%TO.C,K30*%
X221312000Y-233126000D02*
X221312000Y-234126000D01*
X220312000Y-247126000D02*
X221312000Y-247126000D01*
X221312000Y-233126000D02*
X220312000Y-233126000D01*
X221312000Y-246126000D02*
X221312000Y-247126000D01*
X207312000Y-247126000D02*
X207312000Y-246126000D01*
X208312000Y-233126000D02*
X207312000Y-233126000D01*
X207312000Y-247126000D02*
X208312000Y-247126000D01*
X207312000Y-234126000D02*
X207312000Y-233126000D01*
%TO.C,K1*%
X126062000Y-156926000D02*
X126062000Y-157926000D01*
X125062000Y-170926000D02*
X126062000Y-170926000D01*
X126062000Y-156926000D02*
X125062000Y-156926000D01*
X126062000Y-169926000D02*
X126062000Y-170926000D01*
X112062000Y-170926000D02*
X112062000Y-169926000D01*
X113062000Y-156926000D02*
X112062000Y-156926000D01*
X112062000Y-170926000D02*
X113062000Y-170926000D01*
X112062000Y-157926000D02*
X112062000Y-156926000D01*
%TO.C,U2*%
X87291200Y-221106000D02*
X87291200Y-202056000D01*
X98721200Y-221106000D02*
X87291200Y-221106000D01*
X98721200Y-202056000D02*
X98721200Y-221106000D01*
X98721200Y-183006000D02*
X98721200Y-202056000D01*
X87291200Y-183006000D02*
X98721200Y-183006000D01*
X87291200Y-202056000D02*
X87291200Y-183006000D01*
X96816200Y-189991000D02*
X96816200Y-202056000D01*
X88561200Y-215391000D02*
X88561200Y-189991000D01*
X96816200Y-202056000D02*
X96816200Y-215391000D01*
X88561200Y-189991000D02*
X96816200Y-189991000D01*
X88561200Y-215391000D02*
X96816200Y-215391000D01*
D12*
%TO.C,mouse-bite-2mm-slot-1*%
X145138000Y-251650000D02*
G75*
G03*
X145138000Y-249650000I0J1000000D01*
G01*
X149138000Y-249650000D02*
G75*
G03*
X149138000Y-251650000I0J-1000000D01*
G01*
D10*
%TO.C,K9*%
X145112000Y-214076000D02*
X145112000Y-215076000D01*
X144112000Y-228076000D02*
X145112000Y-228076000D01*
X145112000Y-214076000D02*
X144112000Y-214076000D01*
X145112000Y-227076000D02*
X145112000Y-228076000D01*
X131112000Y-228076000D02*
X131112000Y-227076000D01*
X132112000Y-214076000D02*
X131112000Y-214076000D01*
X131112000Y-228076000D02*
X132112000Y-228076000D01*
X131112000Y-215076000D02*
X131112000Y-214076000D01*
%TO.C,K48*%
X297512000Y-195026000D02*
X297512000Y-196026000D01*
X296512000Y-209026000D02*
X297512000Y-209026000D01*
X297512000Y-195026000D02*
X296512000Y-195026000D01*
X297512000Y-208026000D02*
X297512000Y-209026000D01*
X283512000Y-209026000D02*
X283512000Y-208026000D01*
X284512000Y-195026000D02*
X283512000Y-195026000D01*
X283512000Y-209026000D02*
X284512000Y-209026000D01*
X283512000Y-196026000D02*
X283512000Y-195026000D01*
%TO.C,K10*%
X145112000Y-233126000D02*
X145112000Y-234126000D01*
X144112000Y-247126000D02*
X145112000Y-247126000D01*
X145112000Y-233126000D02*
X144112000Y-233126000D01*
X145112000Y-246126000D02*
X145112000Y-247126000D01*
X131112000Y-247126000D02*
X131112000Y-246126000D01*
X132112000Y-233126000D02*
X131112000Y-233126000D01*
X131112000Y-247126000D02*
X132112000Y-247126000D01*
X131112000Y-234126000D02*
X131112000Y-233126000D01*
%TO.C,K5*%
X126062000Y-233126000D02*
X126062000Y-234126000D01*
X125062000Y-247126000D02*
X126062000Y-247126000D01*
X126062000Y-233126000D02*
X125062000Y-233126000D01*
X126062000Y-246126000D02*
X126062000Y-247126000D01*
X112062000Y-247126000D02*
X112062000Y-246126000D01*
X113062000Y-233126000D02*
X112062000Y-233126000D01*
X112062000Y-247126000D02*
X113062000Y-247126000D01*
X112062000Y-234126000D02*
X112062000Y-233126000D01*
%TO.C,K14*%
X164162000Y-214076000D02*
X164162000Y-215076000D01*
X163162000Y-228076000D02*
X164162000Y-228076000D01*
X164162000Y-214076000D02*
X163162000Y-214076000D01*
X164162000Y-227076000D02*
X164162000Y-228076000D01*
X150162000Y-228076000D02*
X150162000Y-227076000D01*
X151162000Y-214076000D02*
X150162000Y-214076000D01*
X150162000Y-228076000D02*
X151162000Y-228076000D01*
X150162000Y-215076000D02*
X150162000Y-214076000D01*
%TO.C,K2*%
X126062000Y-175976000D02*
X126062000Y-176976000D01*
X125062000Y-189976000D02*
X126062000Y-189976000D01*
X126062000Y-175976000D02*
X125062000Y-175976000D01*
X126062000Y-188976000D02*
X126062000Y-189976000D01*
X112062000Y-189976000D02*
X112062000Y-188976000D01*
X113062000Y-175976000D02*
X112062000Y-175976000D01*
X112062000Y-189976000D02*
X113062000Y-189976000D01*
X112062000Y-176976000D02*
X112062000Y-175976000D01*
%TO.C,K16*%
X183212000Y-156926000D02*
X183212000Y-157926000D01*
X182212000Y-170926000D02*
X183212000Y-170926000D01*
X183212000Y-156926000D02*
X182212000Y-156926000D01*
X183212000Y-169926000D02*
X183212000Y-170926000D01*
X169212000Y-170926000D02*
X169212000Y-169926000D01*
X170212000Y-156926000D02*
X169212000Y-156926000D01*
X169212000Y-170926000D02*
X170212000Y-170926000D01*
X169212000Y-157926000D02*
X169212000Y-156926000D01*
%TO.C,K52*%
X316562000Y-175976000D02*
X316562000Y-176976000D01*
X315562000Y-189976000D02*
X316562000Y-189976000D01*
X316562000Y-175976000D02*
X315562000Y-175976000D01*
X316562000Y-188976000D02*
X316562000Y-189976000D01*
X302562000Y-189976000D02*
X302562000Y-188976000D01*
X303562000Y-175976000D02*
X302562000Y-175976000D01*
X302562000Y-189976000D02*
X303562000Y-189976000D01*
X302562000Y-176976000D02*
X302562000Y-175976000D01*
%TO.C,K13*%
X164162000Y-195026000D02*
X164162000Y-196026000D01*
X163162000Y-209026000D02*
X164162000Y-209026000D01*
X164162000Y-195026000D02*
X163162000Y-195026000D01*
X164162000Y-208026000D02*
X164162000Y-209026000D01*
X150162000Y-209026000D02*
X150162000Y-208026000D01*
X151162000Y-195026000D02*
X150162000Y-195026000D01*
X150162000Y-209026000D02*
X151162000Y-209026000D01*
X150162000Y-196026000D02*
X150162000Y-195026000D01*
%TO.C,K19*%
X183212000Y-214076000D02*
X183212000Y-215076000D01*
X182212000Y-228076000D02*
X183212000Y-228076000D01*
X183212000Y-214076000D02*
X182212000Y-214076000D01*
X183212000Y-227076000D02*
X183212000Y-228076000D01*
X169212000Y-228076000D02*
X169212000Y-227076000D01*
X170212000Y-214076000D02*
X169212000Y-214076000D01*
X169212000Y-228076000D02*
X170212000Y-228076000D01*
X169212000Y-215076000D02*
X169212000Y-214076000D01*
%TO.C,K32*%
X240362000Y-175976000D02*
X240362000Y-176976000D01*
X239362000Y-189976000D02*
X240362000Y-189976000D01*
X240362000Y-175976000D02*
X239362000Y-175976000D01*
X240362000Y-188976000D02*
X240362000Y-189976000D01*
X226362000Y-189976000D02*
X226362000Y-188976000D01*
X227362000Y-175976000D02*
X226362000Y-175976000D01*
X226362000Y-189976000D02*
X227362000Y-189976000D01*
X226362000Y-176976000D02*
X226362000Y-175976000D01*
%TO.C,K3*%
X126062000Y-195026000D02*
X126062000Y-196026000D01*
X125062000Y-209026000D02*
X126062000Y-209026000D01*
X126062000Y-195026000D02*
X125062000Y-195026000D01*
X126062000Y-208026000D02*
X126062000Y-209026000D01*
X112062000Y-209026000D02*
X112062000Y-208026000D01*
X113062000Y-195026000D02*
X112062000Y-195026000D01*
X112062000Y-209026000D02*
X113062000Y-209026000D01*
X112062000Y-196026000D02*
X112062000Y-195026000D01*
%TO.C,K42*%
X278462000Y-175976000D02*
X278462000Y-176976000D01*
X277462000Y-189976000D02*
X278462000Y-189976000D01*
X278462000Y-175976000D02*
X277462000Y-175976000D01*
X278462000Y-188976000D02*
X278462000Y-189976000D01*
X264462000Y-189976000D02*
X264462000Y-188976000D01*
X265462000Y-175976000D02*
X264462000Y-175976000D01*
X264462000Y-189976000D02*
X265462000Y-189976000D01*
X264462000Y-176976000D02*
X264462000Y-175976000D01*
%TO.C,K54*%
X316562000Y-214076000D02*
X316562000Y-215076000D01*
X315562000Y-228076000D02*
X316562000Y-228076000D01*
X316562000Y-214076000D02*
X315562000Y-214076000D01*
X316562000Y-227076000D02*
X316562000Y-228076000D01*
X302562000Y-228076000D02*
X302562000Y-227076000D01*
X303562000Y-214076000D02*
X302562000Y-214076000D01*
X302562000Y-228076000D02*
X303562000Y-228076000D01*
X302562000Y-215076000D02*
X302562000Y-214076000D01*
%TO.C,K11*%
X164162000Y-156926000D02*
X164162000Y-157926000D01*
X163162000Y-170926000D02*
X164162000Y-170926000D01*
X164162000Y-156926000D02*
X163162000Y-156926000D01*
X164162000Y-169926000D02*
X164162000Y-170926000D01*
X150162000Y-170926000D02*
X150162000Y-169926000D01*
X151162000Y-156926000D02*
X150162000Y-156926000D01*
X150162000Y-170926000D02*
X151162000Y-170926000D01*
X150162000Y-157926000D02*
X150162000Y-156926000D01*
D12*
%TO.C,mouse-bite-2mm-slot-6*%
X302138000Y-152400000D02*
G75*
G03*
X302138000Y-154400000I0J-1000000D01*
G01*
X298138000Y-154400000D02*
G75*
G03*
X298138000Y-152400000I0J1000000D01*
G01*
D10*
%TO.C,K20*%
X183212000Y-233126000D02*
X183212000Y-234126000D01*
X182212000Y-247126000D02*
X183212000Y-247126000D01*
X183212000Y-233126000D02*
X182212000Y-233126000D01*
X183212000Y-246126000D02*
X183212000Y-247126000D01*
X169212000Y-247126000D02*
X169212000Y-246126000D01*
X170212000Y-233126000D02*
X169212000Y-233126000D01*
X169212000Y-247126000D02*
X170212000Y-247126000D01*
X169212000Y-234126000D02*
X169212000Y-233126000D01*
%TO.C,K60*%
X335612000Y-233126000D02*
X335612000Y-234126000D01*
X334612000Y-247126000D02*
X335612000Y-247126000D01*
X335612000Y-233126000D02*
X334612000Y-233126000D01*
X335612000Y-246126000D02*
X335612000Y-247126000D01*
X321612000Y-247126000D02*
X321612000Y-246126000D01*
X322612000Y-233126000D02*
X321612000Y-233126000D01*
X321612000Y-247126000D02*
X322612000Y-247126000D01*
X321612000Y-234126000D02*
X321612000Y-233126000D01*
%TO.C,K39*%
X259412000Y-214076000D02*
X259412000Y-215076000D01*
X258412000Y-228076000D02*
X259412000Y-228076000D01*
X259412000Y-214076000D02*
X258412000Y-214076000D01*
X259412000Y-227076000D02*
X259412000Y-228076000D01*
X245412000Y-228076000D02*
X245412000Y-227076000D01*
X246412000Y-214076000D02*
X245412000Y-214076000D01*
X245412000Y-228076000D02*
X246412000Y-228076000D01*
X245412000Y-215076000D02*
X245412000Y-214076000D01*
%TO.C,K49*%
X297512000Y-214076000D02*
X297512000Y-215076000D01*
X296512000Y-228076000D02*
X297512000Y-228076000D01*
X297512000Y-214076000D02*
X296512000Y-214076000D01*
X297512000Y-227076000D02*
X297512000Y-228076000D01*
X283512000Y-228076000D02*
X283512000Y-227076000D01*
X284512000Y-214076000D02*
X283512000Y-214076000D01*
X283512000Y-228076000D02*
X284512000Y-228076000D01*
X283512000Y-215076000D02*
X283512000Y-214076000D01*
%TO.C,K51*%
X316562000Y-156926000D02*
X316562000Y-157926000D01*
X315562000Y-170926000D02*
X316562000Y-170926000D01*
X316562000Y-156926000D02*
X315562000Y-156926000D01*
X316562000Y-169926000D02*
X316562000Y-170926000D01*
X302562000Y-170926000D02*
X302562000Y-169926000D01*
X303562000Y-156926000D02*
X302562000Y-156926000D01*
X302562000Y-170926000D02*
X303562000Y-170926000D01*
X302562000Y-157926000D02*
X302562000Y-156926000D01*
%TO.C,K58*%
X335612000Y-195026000D02*
X335612000Y-196026000D01*
X334612000Y-209026000D02*
X335612000Y-209026000D01*
X335612000Y-195026000D02*
X334612000Y-195026000D01*
X335612000Y-208026000D02*
X335612000Y-209026000D01*
X321612000Y-209026000D02*
X321612000Y-208026000D01*
X322612000Y-195026000D02*
X321612000Y-195026000D01*
X321612000Y-209026000D02*
X322612000Y-209026000D01*
X321612000Y-196026000D02*
X321612000Y-195026000D01*
%TO.C,K21*%
X202262000Y-156926000D02*
X202262000Y-157926000D01*
X201262000Y-170926000D02*
X202262000Y-170926000D01*
X202262000Y-156926000D02*
X201262000Y-156926000D01*
X202262000Y-169926000D02*
X202262000Y-170926000D01*
X188262000Y-170926000D02*
X188262000Y-169926000D01*
X189262000Y-156926000D02*
X188262000Y-156926000D01*
X188262000Y-170926000D02*
X189262000Y-170926000D01*
X188262000Y-157926000D02*
X188262000Y-156926000D01*
D12*
%TO.C,mouse-bite-2mm-slot-2*%
X222138000Y-251650000D02*
G75*
G03*
X222138000Y-249650000I0J1000000D01*
G01*
X226138000Y-249650000D02*
G75*
G03*
X226138000Y-251650000I0J-1000000D01*
G01*
%TO.C,mouse-bite-2mm-slot-5*%
X226138000Y-152400000D02*
G75*
G03*
X226138000Y-154400000I0J-1000000D01*
G01*
X222138000Y-154400000D02*
G75*
G03*
X222138000Y-152400000I0J1000000D01*
G01*
D10*
%TO.C,K15*%
X164162000Y-233126000D02*
X164162000Y-234126000D01*
X163162000Y-247126000D02*
X164162000Y-247126000D01*
X164162000Y-233126000D02*
X163162000Y-233126000D01*
X164162000Y-246126000D02*
X164162000Y-247126000D01*
X150162000Y-247126000D02*
X150162000Y-246126000D01*
X151162000Y-233126000D02*
X150162000Y-233126000D01*
X150162000Y-247126000D02*
X151162000Y-247126000D01*
X150162000Y-234126000D02*
X150162000Y-233126000D01*
%TO.C,K26*%
X221312000Y-156926000D02*
X221312000Y-157926000D01*
X220312000Y-170926000D02*
X221312000Y-170926000D01*
X221312000Y-156926000D02*
X220312000Y-156926000D01*
X221312000Y-169926000D02*
X221312000Y-170926000D01*
X207312000Y-170926000D02*
X207312000Y-169926000D01*
X208312000Y-156926000D02*
X207312000Y-156926000D01*
X207312000Y-170926000D02*
X208312000Y-170926000D01*
X207312000Y-157926000D02*
X207312000Y-156926000D01*
%TO.C,K50*%
X297512000Y-233126000D02*
X297512000Y-234126000D01*
X296512000Y-247126000D02*
X297512000Y-247126000D01*
X297512000Y-233126000D02*
X296512000Y-233126000D01*
X297512000Y-246126000D02*
X297512000Y-247126000D01*
X283512000Y-247126000D02*
X283512000Y-246126000D01*
X284512000Y-233126000D02*
X283512000Y-233126000D01*
X283512000Y-247126000D02*
X284512000Y-247126000D01*
X283512000Y-234126000D02*
X283512000Y-233126000D01*
%TO.C,K24*%
X202262000Y-214076000D02*
X202262000Y-215076000D01*
X201262000Y-228076000D02*
X202262000Y-228076000D01*
X202262000Y-214076000D02*
X201262000Y-214076000D01*
X202262000Y-227076000D02*
X202262000Y-228076000D01*
X188262000Y-228076000D02*
X188262000Y-227076000D01*
X189262000Y-214076000D02*
X188262000Y-214076000D01*
X188262000Y-228076000D02*
X189262000Y-228076000D01*
X188262000Y-215076000D02*
X188262000Y-214076000D01*
%TO.C,K41*%
X278462000Y-156926000D02*
X278462000Y-157926000D01*
X277462000Y-170926000D02*
X278462000Y-170926000D01*
X278462000Y-156926000D02*
X277462000Y-156926000D01*
X278462000Y-169926000D02*
X278462000Y-170926000D01*
X264462000Y-170926000D02*
X264462000Y-169926000D01*
X265462000Y-156926000D02*
X264462000Y-156926000D01*
X264462000Y-170926000D02*
X265462000Y-170926000D01*
X264462000Y-157926000D02*
X264462000Y-156926000D01*
%TO.C,K34*%
X240362000Y-214076000D02*
X240362000Y-215076000D01*
X239362000Y-228076000D02*
X240362000Y-228076000D01*
X240362000Y-214076000D02*
X239362000Y-214076000D01*
X240362000Y-227076000D02*
X240362000Y-228076000D01*
X226362000Y-228076000D02*
X226362000Y-227076000D01*
X227362000Y-214076000D02*
X226362000Y-214076000D01*
X226362000Y-228076000D02*
X227362000Y-228076000D01*
X226362000Y-215076000D02*
X226362000Y-214076000D01*
%TO.C,K37*%
X259412000Y-175976000D02*
X259412000Y-176976000D01*
X258412000Y-189976000D02*
X259412000Y-189976000D01*
X259412000Y-175976000D02*
X258412000Y-175976000D01*
X259412000Y-188976000D02*
X259412000Y-189976000D01*
X245412000Y-189976000D02*
X245412000Y-188976000D01*
X246412000Y-175976000D02*
X245412000Y-175976000D01*
X245412000Y-189976000D02*
X246412000Y-189976000D01*
X245412000Y-176976000D02*
X245412000Y-175976000D01*
%TO.C,K44*%
X278462000Y-214076000D02*
X278462000Y-215076000D01*
X277462000Y-228076000D02*
X278462000Y-228076000D01*
X278462000Y-214076000D02*
X277462000Y-214076000D01*
X278462000Y-227076000D02*
X278462000Y-228076000D01*
X264462000Y-228076000D02*
X264462000Y-227076000D01*
X265462000Y-214076000D02*
X264462000Y-214076000D01*
X264462000Y-228076000D02*
X265462000Y-228076000D01*
X264462000Y-215076000D02*
X264462000Y-214076000D01*
%TO.C,K12*%
X164162000Y-175976000D02*
X164162000Y-176976000D01*
X163162000Y-189976000D02*
X164162000Y-189976000D01*
X164162000Y-175976000D02*
X163162000Y-175976000D01*
X164162000Y-188976000D02*
X164162000Y-189976000D01*
X150162000Y-189976000D02*
X150162000Y-188976000D01*
X151162000Y-175976000D02*
X150162000Y-175976000D01*
X150162000Y-189976000D02*
X151162000Y-189976000D01*
X150162000Y-176976000D02*
X150162000Y-175976000D01*
%TO.C,K43*%
X278462000Y-195026000D02*
X278462000Y-196026000D01*
X277462000Y-209026000D02*
X278462000Y-209026000D01*
X278462000Y-195026000D02*
X277462000Y-195026000D01*
X278462000Y-208026000D02*
X278462000Y-209026000D01*
X264462000Y-209026000D02*
X264462000Y-208026000D01*
X265462000Y-195026000D02*
X264462000Y-195026000D01*
X264462000Y-209026000D02*
X265462000Y-209026000D01*
X264462000Y-196026000D02*
X264462000Y-195026000D01*
%TO.C,K7*%
X145112000Y-175976000D02*
X145112000Y-176976000D01*
X144112000Y-189976000D02*
X145112000Y-189976000D01*
X145112000Y-175976000D02*
X144112000Y-175976000D01*
X145112000Y-188976000D02*
X145112000Y-189976000D01*
X131112000Y-189976000D02*
X131112000Y-188976000D01*
X132112000Y-175976000D02*
X131112000Y-175976000D01*
X131112000Y-189976000D02*
X132112000Y-189976000D01*
X131112000Y-176976000D02*
X131112000Y-175976000D01*
%TO.C,K59*%
X335612000Y-214076000D02*
X335612000Y-215076000D01*
X334612000Y-228076000D02*
X335612000Y-228076000D01*
X335612000Y-214076000D02*
X334612000Y-214076000D01*
X335612000Y-227076000D02*
X335612000Y-228076000D01*
X321612000Y-228076000D02*
X321612000Y-227076000D01*
X322612000Y-214076000D02*
X321612000Y-214076000D01*
X321612000Y-228076000D02*
X322612000Y-228076000D01*
X321612000Y-215076000D02*
X321612000Y-214076000D01*
D12*
%TO.C,mouse-bite-2mm-slot-4*%
X149138000Y-152400000D02*
G75*
G03*
X149138000Y-154400000I0J-1000000D01*
G01*
X145138000Y-154400000D02*
G75*
G03*
X145138000Y-152400000I0J1000000D01*
G01*
D10*
%TO.C,K46*%
X297512000Y-156926000D02*
X297512000Y-157926000D01*
X296512000Y-170926000D02*
X297512000Y-170926000D01*
X297512000Y-156926000D02*
X296512000Y-156926000D01*
X297512000Y-169926000D02*
X297512000Y-170926000D01*
X283512000Y-170926000D02*
X283512000Y-169926000D01*
X284512000Y-156926000D02*
X283512000Y-156926000D01*
X283512000Y-170926000D02*
X284512000Y-170926000D01*
X283512000Y-157926000D02*
X283512000Y-156926000D01*
%TO.C,K22*%
X202262000Y-175976000D02*
X202262000Y-176976000D01*
X201262000Y-189976000D02*
X202262000Y-189976000D01*
X202262000Y-175976000D02*
X201262000Y-175976000D01*
X202262000Y-188976000D02*
X202262000Y-189976000D01*
X188262000Y-189976000D02*
X188262000Y-188976000D01*
X189262000Y-175976000D02*
X188262000Y-175976000D01*
X188262000Y-189976000D02*
X189262000Y-189976000D01*
X188262000Y-176976000D02*
X188262000Y-175976000D01*
%TO.C,U2*%
X92958580Y-202817904D02*
X93768104Y-202817904D01*
X93863342Y-202770285D01*
X93910961Y-202722666D01*
X93958580Y-202627428D01*
X93958580Y-202436952D01*
X93910961Y-202341714D01*
X93863342Y-202294095D01*
X93768104Y-202246476D01*
X92958580Y-202246476D01*
X93053819Y-201817904D02*
X93006200Y-201770285D01*
X92958580Y-201675047D01*
X92958580Y-201436952D01*
X93006200Y-201341714D01*
X93053819Y-201294095D01*
X93149057Y-201246476D01*
X93244295Y-201246476D01*
X93387152Y-201294095D01*
X93958580Y-201865523D01*
X93958580Y-201246476D01*
X96206676Y-216896000D02*
X96130485Y-216857904D01*
X96016200Y-216857904D01*
X95901914Y-216896000D01*
X95825723Y-216972190D01*
X95787628Y-217048380D01*
X95749533Y-217200761D01*
X95749533Y-217315047D01*
X95787628Y-217467428D01*
X95825723Y-217543619D01*
X95901914Y-217619809D01*
X96016200Y-217657904D01*
X96092390Y-217657904D01*
X96206676Y-217619809D01*
X96244771Y-217581714D01*
X96244771Y-217315047D01*
X96092390Y-217315047D01*
X96587628Y-217657904D02*
X96587628Y-216857904D01*
X97044771Y-217657904D01*
X97044771Y-216857904D01*
X97425723Y-217657904D02*
X97425723Y-216857904D01*
X97616200Y-216857904D01*
X97730485Y-216896000D01*
X97806676Y-216972190D01*
X97844771Y-217048380D01*
X97882866Y-217200761D01*
X97882866Y-217315047D01*
X97844771Y-217467428D01*
X97806676Y-217543619D01*
X97730485Y-217619809D01*
X97616200Y-217657904D01*
X97425723Y-217657904D01*
X93209533Y-216857904D02*
X93476200Y-217657904D01*
X93742866Y-216857904D01*
X94466676Y-217581714D02*
X94428580Y-217619809D01*
X94314295Y-217657904D01*
X94238104Y-217657904D01*
X94123819Y-217619809D01*
X94047628Y-217543619D01*
X94009533Y-217467428D01*
X93971438Y-217315047D01*
X93971438Y-217200761D01*
X94009533Y-217048380D01*
X94047628Y-216972190D01*
X94123819Y-216896000D01*
X94238104Y-216857904D01*
X94314295Y-216857904D01*
X94428580Y-216896000D01*
X94466676Y-216934095D01*
X95266676Y-217581714D02*
X95228580Y-217619809D01*
X95114295Y-217657904D01*
X95038104Y-217657904D01*
X94923819Y-217619809D01*
X94847628Y-217543619D01*
X94809533Y-217467428D01*
X94771438Y-217315047D01*
X94771438Y-217200761D01*
X94809533Y-217048380D01*
X94847628Y-216972190D01*
X94923819Y-216896000D01*
X95038104Y-216857904D01*
X95114295Y-216857904D01*
X95228580Y-216896000D01*
X95266676Y-216934095D01*
X90783819Y-217619809D02*
X90898104Y-217657904D01*
X91088580Y-217657904D01*
X91164771Y-217619809D01*
X91202866Y-217581714D01*
X91240961Y-217505523D01*
X91240961Y-217429333D01*
X91202866Y-217353142D01*
X91164771Y-217315047D01*
X91088580Y-217276952D01*
X90936200Y-217238857D01*
X90860009Y-217200761D01*
X90821914Y-217162666D01*
X90783819Y-217086476D01*
X90783819Y-217010285D01*
X90821914Y-216934095D01*
X90860009Y-216896000D01*
X90936200Y-216857904D01*
X91126676Y-216857904D01*
X91240961Y-216896000D01*
X92040961Y-217581714D02*
X92002866Y-217619809D01*
X91888580Y-217657904D01*
X91812390Y-217657904D01*
X91698104Y-217619809D01*
X91621914Y-217543619D01*
X91583819Y-217467428D01*
X91545723Y-217315047D01*
X91545723Y-217200761D01*
X91583819Y-217048380D01*
X91621914Y-216972190D01*
X91698104Y-216896000D01*
X91812390Y-216857904D01*
X91888580Y-216857904D01*
X92002866Y-216896000D01*
X92040961Y-216934095D01*
X92764771Y-217657904D02*
X92383819Y-217657904D01*
X92383819Y-216857904D01*
X88224771Y-217619809D02*
X88339057Y-217657904D01*
X88529533Y-217657904D01*
X88605723Y-217619809D01*
X88643819Y-217581714D01*
X88681914Y-217505523D01*
X88681914Y-217429333D01*
X88643819Y-217353142D01*
X88605723Y-217315047D01*
X88529533Y-217276952D01*
X88377152Y-217238857D01*
X88300961Y-217200761D01*
X88262866Y-217162666D01*
X88224771Y-217086476D01*
X88224771Y-217010285D01*
X88262866Y-216934095D01*
X88300961Y-216896000D01*
X88377152Y-216857904D01*
X88567628Y-216857904D01*
X88681914Y-216896000D01*
X89024771Y-217657904D02*
X89024771Y-216857904D01*
X89215247Y-216857904D01*
X89329533Y-216896000D01*
X89405723Y-216972190D01*
X89443819Y-217048380D01*
X89481914Y-217200761D01*
X89481914Y-217315047D01*
X89443819Y-217467428D01*
X89405723Y-217543619D01*
X89329533Y-217619809D01*
X89215247Y-217657904D01*
X89024771Y-217657904D01*
X89786676Y-217429333D02*
X90167628Y-217429333D01*
X89710485Y-217657904D02*
X89977152Y-216857904D01*
X90243819Y-217657904D01*
%TD*%
M02*
