%TF.GenerationSoftware,KiCad,Pcbnew,5.1.10*%
%TF.CreationDate,2021-06-15T15:09:17-05:00*%
%TF.ProjectId,olkbd_ble,6f6c6b62-645f-4626-9c65-2e6b69636164,rev?*%
%TF.SameCoordinates,Original*%
%TF.FileFunction,Paste,Bot*%
%TF.FilePolarity,Positive*%
%FSLAX46Y46*%
G04 Gerber Fmt 4.6, Leading zero omitted, Abs format (unit mm)*
G04 Created by KiCad (PCBNEW 5.1.10) date 2021-06-15 15:09:17*
%MOMM*%
%LPD*%
G01*
G04 APERTURE LIST*
%ADD10R,1.400000X1.200000*%
%ADD11R,2.550000X2.500000*%
G04 APERTURE END LIST*
D10*
%TO.C,D60*%
X319500000Y-247700000D03*
X319500000Y-244300000D03*
%TD*%
%TO.C,D59*%
X319500000Y-228700000D03*
X319500000Y-225300000D03*
%TD*%
%TO.C,D58*%
X319500000Y-209700000D03*
X319500000Y-206300000D03*
%TD*%
%TO.C,D57*%
X319500000Y-190700000D03*
X319500000Y-187300000D03*
%TD*%
%TO.C,D56*%
X319500000Y-171700000D03*
X319500000Y-168300000D03*
%TD*%
%TO.C,D55*%
X300500000Y-247700000D03*
X300500000Y-244300000D03*
%TD*%
%TO.C,D54*%
X300500000Y-228700000D03*
X300500000Y-225300000D03*
%TD*%
%TO.C,D53*%
X300500000Y-209700000D03*
X300500000Y-206300000D03*
%TD*%
%TO.C,D52*%
X300500000Y-190700000D03*
X300500000Y-187300000D03*
%TD*%
%TO.C,D51*%
X300500000Y-171700000D03*
X300500000Y-168300000D03*
%TD*%
%TO.C,D50*%
X281500000Y-247700000D03*
X281500000Y-244300000D03*
%TD*%
%TO.C,D49*%
X281500000Y-228700000D03*
X281500000Y-225300000D03*
%TD*%
%TO.C,D48*%
X281500000Y-209700000D03*
X281500000Y-206300000D03*
%TD*%
%TO.C,D47*%
X281500000Y-190700000D03*
X281500000Y-187300000D03*
%TD*%
%TO.C,D46*%
X281500000Y-171700000D03*
X281500000Y-168300000D03*
%TD*%
%TO.C,D45*%
X262500000Y-247700000D03*
X262500000Y-244300000D03*
%TD*%
%TO.C,D44*%
X262500000Y-228700000D03*
X262500000Y-225300000D03*
%TD*%
%TO.C,D43*%
X262500000Y-209700000D03*
X262500000Y-206300000D03*
%TD*%
%TO.C,D42*%
X262500000Y-190700000D03*
X262500000Y-187300000D03*
%TD*%
%TO.C,D41*%
X262500000Y-171700000D03*
X262500000Y-168300000D03*
%TD*%
%TO.C,D40*%
X243500000Y-247700000D03*
X243500000Y-244300000D03*
%TD*%
%TO.C,D39*%
X243500000Y-228700000D03*
X243500000Y-225300000D03*
%TD*%
%TO.C,D38*%
X243500000Y-209700000D03*
X243500000Y-206300000D03*
%TD*%
%TO.C,D37*%
X243500000Y-190700000D03*
X243500000Y-187300000D03*
%TD*%
%TO.C,D36*%
X243500000Y-171700000D03*
X243500000Y-168300000D03*
%TD*%
%TO.C,D35*%
X224500000Y-247700000D03*
X224500000Y-244300000D03*
%TD*%
%TO.C,D34*%
X224500000Y-228700000D03*
X224500000Y-225300000D03*
%TD*%
%TO.C,D33*%
X224500000Y-209700000D03*
X224500000Y-206300000D03*
%TD*%
%TO.C,D32*%
X224500000Y-190700000D03*
X224500000Y-187300000D03*
%TD*%
%TO.C,D31*%
X224500000Y-171700000D03*
X224500000Y-168300000D03*
%TD*%
%TO.C,D30*%
X205500000Y-247700000D03*
X205500000Y-244300000D03*
%TD*%
%TO.C,D29*%
X205500000Y-228700000D03*
X205500000Y-225300000D03*
%TD*%
%TO.C,D28*%
X205500000Y-209700000D03*
X205500000Y-206300000D03*
%TD*%
%TO.C,D27*%
X205500000Y-190700000D03*
X205500000Y-187300000D03*
%TD*%
%TO.C,D26*%
X205500000Y-171700000D03*
X205500000Y-168300000D03*
%TD*%
%TO.C,D25*%
X186500000Y-247700000D03*
X186500000Y-244300000D03*
%TD*%
%TO.C,D24*%
X186500000Y-228700000D03*
X186500000Y-225300000D03*
%TD*%
%TO.C,D23*%
X186500000Y-209700000D03*
X186500000Y-206300000D03*
%TD*%
%TO.C,D22*%
X186500000Y-190700000D03*
X186500000Y-187300000D03*
%TD*%
%TO.C,D21*%
X186500000Y-171700000D03*
X186500000Y-168300000D03*
%TD*%
%TO.C,D20*%
X167000000Y-247700000D03*
X167000000Y-244300000D03*
%TD*%
%TO.C,D19*%
X167000000Y-228700000D03*
X167000000Y-225300000D03*
%TD*%
%TO.C,D18*%
X167000000Y-209700000D03*
X167000000Y-206300000D03*
%TD*%
%TO.C,D17*%
X167000000Y-190700000D03*
X167000000Y-187300000D03*
%TD*%
%TO.C,D16*%
X167000000Y-171700000D03*
X167000000Y-168300000D03*
%TD*%
%TO.C,D15*%
X148000000Y-247700000D03*
X148000000Y-244300000D03*
%TD*%
%TO.C,D14*%
X148000000Y-228700000D03*
X148000000Y-225300000D03*
%TD*%
%TO.C,D13*%
X148000000Y-209700000D03*
X148000000Y-206300000D03*
%TD*%
%TO.C,D12*%
X148000000Y-190700000D03*
X148000000Y-187300000D03*
%TD*%
%TO.C,D11*%
X148000000Y-171700000D03*
X148000000Y-168300000D03*
%TD*%
%TO.C,D10*%
X129000000Y-247700000D03*
X129000000Y-244300000D03*
%TD*%
%TO.C,D9*%
X129000000Y-228700000D03*
X129000000Y-225300000D03*
%TD*%
%TO.C,D8*%
X129000000Y-209700000D03*
X129000000Y-206300000D03*
%TD*%
%TO.C,D7*%
X129000000Y-190700000D03*
X129000000Y-187300000D03*
%TD*%
%TO.C,D6*%
X129000000Y-171700000D03*
X129000000Y-168300000D03*
%TD*%
%TO.C,D5*%
X110000000Y-247700000D03*
X110000000Y-244300000D03*
%TD*%
%TO.C,D4*%
X110000000Y-228700000D03*
X110000000Y-225300000D03*
%TD*%
%TO.C,D3*%
X110000000Y-209700000D03*
X110000000Y-206300000D03*
%TD*%
%TO.C,D2*%
X110000000Y-190700000D03*
X110000000Y-187300000D03*
%TD*%
%TO.C,D1*%
X110000000Y-171700000D03*
X110000000Y-168300000D03*
%TD*%
D11*
%TO.C,K60*%
X321052000Y-240348000D03*
X334902000Y-237808000D03*
%TD*%
%TO.C,K59*%
X321052000Y-221298000D03*
X334902000Y-218758000D03*
%TD*%
%TO.C,K58*%
X321052000Y-202248000D03*
X334902000Y-199708000D03*
%TD*%
%TO.C,K57*%
X321052000Y-183198000D03*
X334902000Y-180658000D03*
%TD*%
%TO.C,K56*%
X321052000Y-164148000D03*
X334902000Y-161608000D03*
%TD*%
%TO.C,K55*%
X302002000Y-240348000D03*
X315852000Y-237808000D03*
%TD*%
%TO.C,K54*%
X302002000Y-221298000D03*
X315852000Y-218758000D03*
%TD*%
%TO.C,K53*%
X302002000Y-202248000D03*
X315852000Y-199708000D03*
%TD*%
%TO.C,K52*%
X302002000Y-183198000D03*
X315852000Y-180658000D03*
%TD*%
%TO.C,K51*%
X302002000Y-164148000D03*
X315852000Y-161608000D03*
%TD*%
%TO.C,K50*%
X282952000Y-240348000D03*
X296802000Y-237808000D03*
%TD*%
%TO.C,K49*%
X282952000Y-221298000D03*
X296802000Y-218758000D03*
%TD*%
%TO.C,K48*%
X282952000Y-202248000D03*
X296802000Y-199708000D03*
%TD*%
%TO.C,K47*%
X282952000Y-183198000D03*
X296802000Y-180658000D03*
%TD*%
%TO.C,K46*%
X282952000Y-164148000D03*
X296802000Y-161608000D03*
%TD*%
%TO.C,K45*%
X263902000Y-240348000D03*
X277752000Y-237808000D03*
%TD*%
%TO.C,K44*%
X263902000Y-221298000D03*
X277752000Y-218758000D03*
%TD*%
%TO.C,K43*%
X263902000Y-202248000D03*
X277752000Y-199708000D03*
%TD*%
%TO.C,K42*%
X263902000Y-183198000D03*
X277752000Y-180658000D03*
%TD*%
%TO.C,K41*%
X263902000Y-164148000D03*
X277752000Y-161608000D03*
%TD*%
%TO.C,K40*%
X244852000Y-240348000D03*
X258702000Y-237808000D03*
%TD*%
%TO.C,K39*%
X244852000Y-221298000D03*
X258702000Y-218758000D03*
%TD*%
%TO.C,K38*%
X244852000Y-202248000D03*
X258702000Y-199708000D03*
%TD*%
%TO.C,K37*%
X244852000Y-183198000D03*
X258702000Y-180658000D03*
%TD*%
%TO.C,K36*%
X244852000Y-164148000D03*
X258702000Y-161608000D03*
%TD*%
%TO.C,K35*%
X225802000Y-240348000D03*
X239652000Y-237808000D03*
%TD*%
%TO.C,K34*%
X225802000Y-221298000D03*
X239652000Y-218758000D03*
%TD*%
%TO.C,K33*%
X225802000Y-202248000D03*
X239652000Y-199708000D03*
%TD*%
%TO.C,K32*%
X225802000Y-183198000D03*
X239652000Y-180658000D03*
%TD*%
%TO.C,K31*%
X225802000Y-164148000D03*
X239652000Y-161608000D03*
%TD*%
%TO.C,K30*%
X206752000Y-240348000D03*
X220602000Y-237808000D03*
%TD*%
%TO.C,K29*%
X206752000Y-221298000D03*
X220602000Y-218758000D03*
%TD*%
%TO.C,K28*%
X206752000Y-202248000D03*
X220602000Y-199708000D03*
%TD*%
%TO.C,K27*%
X206752000Y-183198000D03*
X220602000Y-180658000D03*
%TD*%
%TO.C,K26*%
X206752000Y-164148000D03*
X220602000Y-161608000D03*
%TD*%
%TO.C,K25*%
X187702000Y-240348000D03*
X201552000Y-237808000D03*
%TD*%
%TO.C,K24*%
X187702000Y-221298000D03*
X201552000Y-218758000D03*
%TD*%
%TO.C,K23*%
X187702000Y-202248000D03*
X201552000Y-199708000D03*
%TD*%
%TO.C,K22*%
X187702000Y-183198000D03*
X201552000Y-180658000D03*
%TD*%
%TO.C,K21*%
X187702000Y-164148000D03*
X201552000Y-161608000D03*
%TD*%
%TO.C,K20*%
X168652000Y-240348000D03*
X182502000Y-237808000D03*
%TD*%
%TO.C,K19*%
X168652000Y-221298000D03*
X182502000Y-218758000D03*
%TD*%
%TO.C,K18*%
X168652000Y-202248000D03*
X182502000Y-199708000D03*
%TD*%
%TO.C,K17*%
X168652000Y-183198000D03*
X182502000Y-180658000D03*
%TD*%
%TO.C,K16*%
X168652000Y-164148000D03*
X182502000Y-161608000D03*
%TD*%
%TO.C,K15*%
X149602000Y-240348000D03*
X163452000Y-237808000D03*
%TD*%
%TO.C,K14*%
X149602000Y-221298000D03*
X163452000Y-218758000D03*
%TD*%
%TO.C,K13*%
X149602000Y-202248000D03*
X163452000Y-199708000D03*
%TD*%
%TO.C,K12*%
X149602000Y-183198000D03*
X163452000Y-180658000D03*
%TD*%
%TO.C,K11*%
X149602000Y-164148000D03*
X163452000Y-161608000D03*
%TD*%
%TO.C,K10*%
X130552000Y-240348000D03*
X144402000Y-237808000D03*
%TD*%
%TO.C,K9*%
X130552000Y-221298000D03*
X144402000Y-218758000D03*
%TD*%
%TO.C,K8*%
X130552000Y-202248000D03*
X144402000Y-199708000D03*
%TD*%
%TO.C,K7*%
X130552000Y-183198000D03*
X144402000Y-180658000D03*
%TD*%
%TO.C,K6*%
X130552000Y-164148000D03*
X144402000Y-161608000D03*
%TD*%
%TO.C,K5*%
X111502000Y-240348000D03*
X125352000Y-237808000D03*
%TD*%
%TO.C,K4*%
X111502000Y-221298000D03*
X125352000Y-218758000D03*
%TD*%
%TO.C,K3*%
X111502000Y-202248000D03*
X125352000Y-199708000D03*
%TD*%
%TO.C,K2*%
X111502000Y-183198000D03*
X125352000Y-180658000D03*
%TD*%
%TO.C,K1*%
X111502000Y-164148000D03*
X125352000Y-161608000D03*
%TD*%
M02*
