%TF.GenerationSoftware,KiCad,Pcbnew,5.1.10*%
%TF.CreationDate,2021-06-15T19:04:48-05:00*%
%TF.ProjectId,olkbd_ble,6f6c6b62-645f-4626-9c65-2e6b69636164,rev?*%
%TF.SameCoordinates,Original*%
%TF.FileFunction,Legend,Top*%
%TF.FilePolarity,Positive*%
%FSLAX46Y46*%
G04 Gerber Fmt 4.6, Leading zero omitted, Abs format (unit mm)*
G04 Created by KiCad (PCBNEW 5.1.10) date 2021-06-15 19:04:48*
%MOMM*%
%LPD*%
G01*
G04 APERTURE LIST*
%ADD10C,0.150000*%
%ADD11C,0.100000*%
%ADD12C,0.010000*%
G04 APERTURE END LIST*
D10*
X82833630Y-237569345D02*
X81833630Y-237569345D01*
X81833630Y-237331250D01*
X81881250Y-237188392D01*
X81976488Y-237093154D01*
X82071726Y-237045535D01*
X82262202Y-236997916D01*
X82405059Y-236997916D01*
X82595535Y-237045535D01*
X82690773Y-237093154D01*
X82786011Y-237188392D01*
X82833630Y-237331250D01*
X82833630Y-237569345D01*
X82166964Y-236140773D02*
X82833630Y-236140773D01*
X82166964Y-236569345D02*
X82690773Y-236569345D01*
X82786011Y-236521726D01*
X82833630Y-236426488D01*
X82833630Y-236283630D01*
X82786011Y-236188392D01*
X82738392Y-236140773D01*
X82166964Y-235664583D02*
X82833630Y-235664583D01*
X82262202Y-235664583D02*
X82214583Y-235616964D01*
X82166964Y-235521726D01*
X82166964Y-235378869D01*
X82214583Y-235283630D01*
X82309821Y-235236011D01*
X82833630Y-235236011D01*
X82166964Y-234331250D02*
X82976488Y-234331250D01*
X83071726Y-234378869D01*
X83119345Y-234426488D01*
X83166964Y-234521726D01*
X83166964Y-234664583D01*
X83119345Y-234759821D01*
X82786011Y-234331250D02*
X82833630Y-234426488D01*
X82833630Y-234616964D01*
X82786011Y-234712202D01*
X82738392Y-234759821D01*
X82643154Y-234807440D01*
X82357440Y-234807440D01*
X82262202Y-234759821D01*
X82214583Y-234712202D01*
X82166964Y-234616964D01*
X82166964Y-234426488D01*
X82214583Y-234331250D01*
X82833630Y-233093154D02*
X81833630Y-233093154D01*
X81833630Y-232712202D01*
X81881250Y-232616964D01*
X81928869Y-232569345D01*
X82024107Y-232521726D01*
X82166964Y-232521726D01*
X82262202Y-232569345D01*
X82309821Y-232616964D01*
X82357440Y-232712202D01*
X82357440Y-233093154D01*
X82833630Y-232093154D02*
X81833630Y-232093154D01*
X82833630Y-231664583D02*
X82309821Y-231664583D01*
X82214583Y-231712202D01*
X82166964Y-231807440D01*
X82166964Y-231950297D01*
X82214583Y-232045535D01*
X82262202Y-232093154D01*
X82833630Y-230759821D02*
X82309821Y-230759821D01*
X82214583Y-230807440D01*
X82166964Y-230902678D01*
X82166964Y-231093154D01*
X82214583Y-231188392D01*
X82786011Y-230759821D02*
X82833630Y-230855059D01*
X82833630Y-231093154D01*
X82786011Y-231188392D01*
X82690773Y-231236011D01*
X82595535Y-231236011D01*
X82500297Y-231188392D01*
X82452678Y-231093154D01*
X82452678Y-230855059D01*
X82405059Y-230759821D01*
X82166964Y-230283630D02*
X82833630Y-230283630D01*
X82262202Y-230283630D02*
X82214583Y-230236011D01*
X82166964Y-230140773D01*
X82166964Y-229997916D01*
X82214583Y-229902678D01*
X82309821Y-229855059D01*
X82833630Y-229855059D01*
X83578869Y-235045535D02*
X83531250Y-234997916D01*
X83483630Y-234902678D01*
X83483630Y-234664583D01*
X83531250Y-234569345D01*
X83578869Y-234521726D01*
X83674107Y-234474107D01*
X83769345Y-234474107D01*
X83912202Y-234521726D01*
X84483630Y-235093154D01*
X84483630Y-234474107D01*
X83483630Y-233855059D02*
X83483630Y-233759821D01*
X83531250Y-233664583D01*
X83578869Y-233616964D01*
X83674107Y-233569345D01*
X83864583Y-233521726D01*
X84102678Y-233521726D01*
X84293154Y-233569345D01*
X84388392Y-233616964D01*
X84436011Y-233664583D01*
X84483630Y-233759821D01*
X84483630Y-233855059D01*
X84436011Y-233950297D01*
X84388392Y-233997916D01*
X84293154Y-234045535D01*
X84102678Y-234093154D01*
X83864583Y-234093154D01*
X83674107Y-234045535D01*
X83578869Y-233997916D01*
X83531250Y-233950297D01*
X83483630Y-233855059D01*
X83578869Y-233140773D02*
X83531250Y-233093154D01*
X83483630Y-232997916D01*
X83483630Y-232759821D01*
X83531250Y-232664583D01*
X83578869Y-232616964D01*
X83674107Y-232569345D01*
X83769345Y-232569345D01*
X83912202Y-232616964D01*
X84483630Y-233188392D01*
X84483630Y-232569345D01*
X84483630Y-231616964D02*
X84483630Y-232188392D01*
X84483630Y-231902678D02*
X83483630Y-231902678D01*
X83626488Y-231997916D01*
X83721726Y-232093154D01*
X83769345Y-232188392D01*
X88325892Y-239759821D02*
X88373511Y-239807440D01*
X88421130Y-239950297D01*
X88421130Y-240045535D01*
X88373511Y-240188392D01*
X88278273Y-240283630D01*
X88183035Y-240331250D01*
X87992559Y-240378869D01*
X87849702Y-240378869D01*
X87659226Y-240331250D01*
X87563988Y-240283630D01*
X87468750Y-240188392D01*
X87421130Y-240045535D01*
X87421130Y-239950297D01*
X87468750Y-239807440D01*
X87516369Y-239759821D01*
X88421130Y-238902678D02*
X87897321Y-238902678D01*
X87802083Y-238950297D01*
X87754464Y-239045535D01*
X87754464Y-239236011D01*
X87802083Y-239331250D01*
X88373511Y-238902678D02*
X88421130Y-238997916D01*
X88421130Y-239236011D01*
X88373511Y-239331250D01*
X88278273Y-239378869D01*
X88183035Y-239378869D01*
X88087797Y-239331250D01*
X88040178Y-239236011D01*
X88040178Y-238997916D01*
X87992559Y-238902678D01*
X87754464Y-238569345D02*
X87754464Y-238188392D01*
X87421130Y-238426488D02*
X88278273Y-238426488D01*
X88373511Y-238378869D01*
X88421130Y-238283630D01*
X88421130Y-238188392D01*
X88421130Y-237855059D02*
X87754464Y-237855059D01*
X87421130Y-237855059D02*
X87468750Y-237902678D01*
X87516369Y-237855059D01*
X87468750Y-237807440D01*
X87421130Y-237855059D01*
X87516369Y-237855059D01*
X87421130Y-237188392D02*
X87421130Y-236997916D01*
X87468750Y-236902678D01*
X87563988Y-236807440D01*
X87754464Y-236759821D01*
X88087797Y-236759821D01*
X88278273Y-236807440D01*
X88373511Y-236902678D01*
X88421130Y-236997916D01*
X88421130Y-237188392D01*
X88373511Y-237283630D01*
X88278273Y-237378869D01*
X88087797Y-237426488D01*
X87754464Y-237426488D01*
X87563988Y-237378869D01*
X87468750Y-237283630D01*
X87421130Y-237188392D01*
X88421130Y-236331250D02*
X87421130Y-236331250D01*
X88421130Y-235759821D01*
X87421130Y-235759821D01*
X87897321Y-235283630D02*
X87897321Y-234950297D01*
X88421130Y-234807440D02*
X88421130Y-235283630D01*
X87421130Y-235283630D01*
X87421130Y-234807440D01*
X87421130Y-233426488D02*
X87421130Y-233236011D01*
X87468750Y-233140773D01*
X87563988Y-233045535D01*
X87754464Y-232997916D01*
X88087797Y-232997916D01*
X88278273Y-233045535D01*
X88373511Y-233140773D01*
X88421130Y-233236011D01*
X88421130Y-233426488D01*
X88373511Y-233521726D01*
X88278273Y-233616964D01*
X88087797Y-233664583D01*
X87754464Y-233664583D01*
X87563988Y-233616964D01*
X87468750Y-233521726D01*
X87421130Y-233426488D01*
X88421130Y-232093154D02*
X88421130Y-232569345D01*
X87421130Y-232569345D01*
X88421130Y-231759821D02*
X87421130Y-231759821D01*
X88421130Y-231188392D02*
X87849702Y-231616964D01*
X87421130Y-231188392D02*
X87992559Y-231759821D01*
X87897321Y-230426488D02*
X87944940Y-230283630D01*
X87992559Y-230236011D01*
X88087797Y-230188392D01*
X88230654Y-230188392D01*
X88325892Y-230236011D01*
X88373511Y-230283630D01*
X88421130Y-230378869D01*
X88421130Y-230759821D01*
X87421130Y-230759821D01*
X87421130Y-230426488D01*
X87468750Y-230331250D01*
X87516369Y-230283630D01*
X87611607Y-230236011D01*
X87706845Y-230236011D01*
X87802083Y-230283630D01*
X87849702Y-230331250D01*
X87897321Y-230426488D01*
X87897321Y-230759821D01*
X87754464Y-229093154D02*
X88421130Y-228855059D01*
X87754464Y-228616964D01*
X88421130Y-227712202D02*
X88421130Y-228283630D01*
X88421130Y-227997916D02*
X87421130Y-227997916D01*
X87563988Y-228093154D01*
X87659226Y-228188392D01*
X87706845Y-228283630D01*
X88325892Y-227283630D02*
X88373511Y-227236011D01*
X88421130Y-227283630D01*
X88373511Y-227331250D01*
X88325892Y-227283630D01*
X88421130Y-227283630D01*
X87421130Y-226616964D02*
X87421130Y-226521726D01*
X87468750Y-226426488D01*
X87516369Y-226378869D01*
X87611607Y-226331250D01*
X87802083Y-226283630D01*
X88040178Y-226283630D01*
X88230654Y-226331250D01*
X88325892Y-226378869D01*
X88373511Y-226426488D01*
X88421130Y-226521726D01*
X88421130Y-226616964D01*
X88373511Y-226712202D01*
X88325892Y-226759821D01*
X88230654Y-226807440D01*
X88040178Y-226855059D01*
X87802083Y-226855059D01*
X87611607Y-226807440D01*
X87516369Y-226759821D01*
X87468750Y-226712202D01*
X87421130Y-226616964D01*
X88325892Y-142509821D02*
X88373511Y-142557440D01*
X88421130Y-142700297D01*
X88421130Y-142795535D01*
X88373511Y-142938392D01*
X88278273Y-143033630D01*
X88183035Y-143081250D01*
X87992559Y-143128869D01*
X87849702Y-143128869D01*
X87659226Y-143081250D01*
X87563988Y-143033630D01*
X87468750Y-142938392D01*
X87421130Y-142795535D01*
X87421130Y-142700297D01*
X87468750Y-142557440D01*
X87516369Y-142509821D01*
X88421130Y-141652678D02*
X87897321Y-141652678D01*
X87802083Y-141700297D01*
X87754464Y-141795535D01*
X87754464Y-141986011D01*
X87802083Y-142081250D01*
X88373511Y-141652678D02*
X88421130Y-141747916D01*
X88421130Y-141986011D01*
X88373511Y-142081250D01*
X88278273Y-142128869D01*
X88183035Y-142128869D01*
X88087797Y-142081250D01*
X88040178Y-141986011D01*
X88040178Y-141747916D01*
X87992559Y-141652678D01*
X87754464Y-141319345D02*
X87754464Y-140938392D01*
X87421130Y-141176488D02*
X88278273Y-141176488D01*
X88373511Y-141128869D01*
X88421130Y-141033630D01*
X88421130Y-140938392D01*
X88421130Y-140605059D02*
X87754464Y-140605059D01*
X87421130Y-140605059D02*
X87468750Y-140652678D01*
X87516369Y-140605059D01*
X87468750Y-140557440D01*
X87421130Y-140605059D01*
X87516369Y-140605059D01*
X87421130Y-139938392D02*
X87421130Y-139747916D01*
X87468750Y-139652678D01*
X87563988Y-139557440D01*
X87754464Y-139509821D01*
X88087797Y-139509821D01*
X88278273Y-139557440D01*
X88373511Y-139652678D01*
X88421130Y-139747916D01*
X88421130Y-139938392D01*
X88373511Y-140033630D01*
X88278273Y-140128869D01*
X88087797Y-140176488D01*
X87754464Y-140176488D01*
X87563988Y-140128869D01*
X87468750Y-140033630D01*
X87421130Y-139938392D01*
X88421130Y-139081250D02*
X87421130Y-139081250D01*
X88421130Y-138509821D01*
X87421130Y-138509821D01*
X87897321Y-138033630D02*
X87897321Y-137700297D01*
X88421130Y-137557440D02*
X88421130Y-138033630D01*
X87421130Y-138033630D01*
X87421130Y-137557440D01*
X87421130Y-136176488D02*
X87421130Y-135986011D01*
X87468750Y-135890773D01*
X87563988Y-135795535D01*
X87754464Y-135747916D01*
X88087797Y-135747916D01*
X88278273Y-135795535D01*
X88373511Y-135890773D01*
X88421130Y-135986011D01*
X88421130Y-136176488D01*
X88373511Y-136271726D01*
X88278273Y-136366964D01*
X88087797Y-136414583D01*
X87754464Y-136414583D01*
X87563988Y-136366964D01*
X87468750Y-136271726D01*
X87421130Y-136176488D01*
X88421130Y-134843154D02*
X88421130Y-135319345D01*
X87421130Y-135319345D01*
X88421130Y-134509821D02*
X87421130Y-134509821D01*
X88421130Y-133938392D02*
X87849702Y-134366964D01*
X87421130Y-133938392D02*
X87992559Y-134509821D01*
X87897321Y-133176488D02*
X87944940Y-133033630D01*
X87992559Y-132986011D01*
X88087797Y-132938392D01*
X88230654Y-132938392D01*
X88325892Y-132986011D01*
X88373511Y-133033630D01*
X88421130Y-133128869D01*
X88421130Y-133509821D01*
X87421130Y-133509821D01*
X87421130Y-133176488D01*
X87468750Y-133081250D01*
X87516369Y-133033630D01*
X87611607Y-132986011D01*
X87706845Y-132986011D01*
X87802083Y-133033630D01*
X87849702Y-133081250D01*
X87897321Y-133176488D01*
X87897321Y-133509821D01*
X87754464Y-131843154D02*
X88421130Y-131605059D01*
X87754464Y-131366964D01*
X88421130Y-130462202D02*
X88421130Y-131033630D01*
X88421130Y-130747916D02*
X87421130Y-130747916D01*
X87563988Y-130843154D01*
X87659226Y-130938392D01*
X87706845Y-131033630D01*
X88325892Y-130033630D02*
X88373511Y-129986011D01*
X88421130Y-130033630D01*
X88373511Y-130081250D01*
X88325892Y-130033630D01*
X88421130Y-130033630D01*
X87421130Y-129366964D02*
X87421130Y-129271726D01*
X87468750Y-129176488D01*
X87516369Y-129128869D01*
X87611607Y-129081250D01*
X87802083Y-129033630D01*
X88040178Y-129033630D01*
X88230654Y-129081250D01*
X88325892Y-129128869D01*
X88373511Y-129176488D01*
X88421130Y-129271726D01*
X88421130Y-129366964D01*
X88373511Y-129462202D01*
X88325892Y-129509821D01*
X88230654Y-129557440D01*
X88040178Y-129605059D01*
X87802083Y-129605059D01*
X87611607Y-129557440D01*
X87516369Y-129509821D01*
X87468750Y-129462202D01*
X87421130Y-129366964D01*
X82833630Y-140319345D02*
X81833630Y-140319345D01*
X81833630Y-140081250D01*
X81881250Y-139938392D01*
X81976488Y-139843154D01*
X82071726Y-139795535D01*
X82262202Y-139747916D01*
X82405059Y-139747916D01*
X82595535Y-139795535D01*
X82690773Y-139843154D01*
X82786011Y-139938392D01*
X82833630Y-140081250D01*
X82833630Y-140319345D01*
X82166964Y-138890773D02*
X82833630Y-138890773D01*
X82166964Y-139319345D02*
X82690773Y-139319345D01*
X82786011Y-139271726D01*
X82833630Y-139176488D01*
X82833630Y-139033630D01*
X82786011Y-138938392D01*
X82738392Y-138890773D01*
X82166964Y-138414583D02*
X82833630Y-138414583D01*
X82262202Y-138414583D02*
X82214583Y-138366964D01*
X82166964Y-138271726D01*
X82166964Y-138128869D01*
X82214583Y-138033630D01*
X82309821Y-137986011D01*
X82833630Y-137986011D01*
X82166964Y-137081250D02*
X82976488Y-137081250D01*
X83071726Y-137128869D01*
X83119345Y-137176488D01*
X83166964Y-137271726D01*
X83166964Y-137414583D01*
X83119345Y-137509821D01*
X82786011Y-137081250D02*
X82833630Y-137176488D01*
X82833630Y-137366964D01*
X82786011Y-137462202D01*
X82738392Y-137509821D01*
X82643154Y-137557440D01*
X82357440Y-137557440D01*
X82262202Y-137509821D01*
X82214583Y-137462202D01*
X82166964Y-137366964D01*
X82166964Y-137176488D01*
X82214583Y-137081250D01*
X82833630Y-135843154D02*
X81833630Y-135843154D01*
X81833630Y-135462202D01*
X81881250Y-135366964D01*
X81928869Y-135319345D01*
X82024107Y-135271726D01*
X82166964Y-135271726D01*
X82262202Y-135319345D01*
X82309821Y-135366964D01*
X82357440Y-135462202D01*
X82357440Y-135843154D01*
X82833630Y-134843154D02*
X81833630Y-134843154D01*
X82833630Y-134414583D02*
X82309821Y-134414583D01*
X82214583Y-134462202D01*
X82166964Y-134557440D01*
X82166964Y-134700297D01*
X82214583Y-134795535D01*
X82262202Y-134843154D01*
X82833630Y-133509821D02*
X82309821Y-133509821D01*
X82214583Y-133557440D01*
X82166964Y-133652678D01*
X82166964Y-133843154D01*
X82214583Y-133938392D01*
X82786011Y-133509821D02*
X82833630Y-133605059D01*
X82833630Y-133843154D01*
X82786011Y-133938392D01*
X82690773Y-133986011D01*
X82595535Y-133986011D01*
X82500297Y-133938392D01*
X82452678Y-133843154D01*
X82452678Y-133605059D01*
X82405059Y-133509821D01*
X82166964Y-133033630D02*
X82833630Y-133033630D01*
X82262202Y-133033630D02*
X82214583Y-132986011D01*
X82166964Y-132890773D01*
X82166964Y-132747916D01*
X82214583Y-132652678D01*
X82309821Y-132605059D01*
X82833630Y-132605059D01*
X83578869Y-137795535D02*
X83531250Y-137747916D01*
X83483630Y-137652678D01*
X83483630Y-137414583D01*
X83531250Y-137319345D01*
X83578869Y-137271726D01*
X83674107Y-137224107D01*
X83769345Y-137224107D01*
X83912202Y-137271726D01*
X84483630Y-137843154D01*
X84483630Y-137224107D01*
X83483630Y-136605059D02*
X83483630Y-136509821D01*
X83531250Y-136414583D01*
X83578869Y-136366964D01*
X83674107Y-136319345D01*
X83864583Y-136271726D01*
X84102678Y-136271726D01*
X84293154Y-136319345D01*
X84388392Y-136366964D01*
X84436011Y-136414583D01*
X84483630Y-136509821D01*
X84483630Y-136605059D01*
X84436011Y-136700297D01*
X84388392Y-136747916D01*
X84293154Y-136795535D01*
X84102678Y-136843154D01*
X83864583Y-136843154D01*
X83674107Y-136795535D01*
X83578869Y-136747916D01*
X83531250Y-136700297D01*
X83483630Y-136605059D01*
X83578869Y-135890773D02*
X83531250Y-135843154D01*
X83483630Y-135747916D01*
X83483630Y-135509821D01*
X83531250Y-135414583D01*
X83578869Y-135366964D01*
X83674107Y-135319345D01*
X83769345Y-135319345D01*
X83912202Y-135366964D01*
X84483630Y-135938392D01*
X84483630Y-135319345D01*
X84483630Y-134366964D02*
X84483630Y-134938392D01*
X84483630Y-134652678D02*
X83483630Y-134652678D01*
X83626488Y-134747916D01*
X83721726Y-134843154D01*
X83769345Y-134938392D01*
X88325892Y-337009821D02*
X88373511Y-337057440D01*
X88421130Y-337200297D01*
X88421130Y-337295535D01*
X88373511Y-337438392D01*
X88278273Y-337533630D01*
X88183035Y-337581250D01*
X87992559Y-337628869D01*
X87849702Y-337628869D01*
X87659226Y-337581250D01*
X87563988Y-337533630D01*
X87468750Y-337438392D01*
X87421130Y-337295535D01*
X87421130Y-337200297D01*
X87468750Y-337057440D01*
X87516369Y-337009821D01*
X88421130Y-336152678D02*
X87897321Y-336152678D01*
X87802083Y-336200297D01*
X87754464Y-336295535D01*
X87754464Y-336486011D01*
X87802083Y-336581250D01*
X88373511Y-336152678D02*
X88421130Y-336247916D01*
X88421130Y-336486011D01*
X88373511Y-336581250D01*
X88278273Y-336628869D01*
X88183035Y-336628869D01*
X88087797Y-336581250D01*
X88040178Y-336486011D01*
X88040178Y-336247916D01*
X87992559Y-336152678D01*
X87754464Y-335819345D02*
X87754464Y-335438392D01*
X87421130Y-335676488D02*
X88278273Y-335676488D01*
X88373511Y-335628869D01*
X88421130Y-335533630D01*
X88421130Y-335438392D01*
X88421130Y-335105059D02*
X87754464Y-335105059D01*
X87421130Y-335105059D02*
X87468750Y-335152678D01*
X87516369Y-335105059D01*
X87468750Y-335057440D01*
X87421130Y-335105059D01*
X87516369Y-335105059D01*
X87421130Y-334438392D02*
X87421130Y-334247916D01*
X87468750Y-334152678D01*
X87563988Y-334057440D01*
X87754464Y-334009821D01*
X88087797Y-334009821D01*
X88278273Y-334057440D01*
X88373511Y-334152678D01*
X88421130Y-334247916D01*
X88421130Y-334438392D01*
X88373511Y-334533630D01*
X88278273Y-334628869D01*
X88087797Y-334676488D01*
X87754464Y-334676488D01*
X87563988Y-334628869D01*
X87468750Y-334533630D01*
X87421130Y-334438392D01*
X88421130Y-333581250D02*
X87421130Y-333581250D01*
X88421130Y-333009821D01*
X87421130Y-333009821D01*
X87897321Y-332533630D02*
X87897321Y-332200297D01*
X88421130Y-332057440D02*
X88421130Y-332533630D01*
X87421130Y-332533630D01*
X87421130Y-332057440D01*
X87421130Y-330676488D02*
X87421130Y-330486011D01*
X87468750Y-330390773D01*
X87563988Y-330295535D01*
X87754464Y-330247916D01*
X88087797Y-330247916D01*
X88278273Y-330295535D01*
X88373511Y-330390773D01*
X88421130Y-330486011D01*
X88421130Y-330676488D01*
X88373511Y-330771726D01*
X88278273Y-330866964D01*
X88087797Y-330914583D01*
X87754464Y-330914583D01*
X87563988Y-330866964D01*
X87468750Y-330771726D01*
X87421130Y-330676488D01*
X88421130Y-329343154D02*
X88421130Y-329819345D01*
X87421130Y-329819345D01*
X88421130Y-329009821D02*
X87421130Y-329009821D01*
X88421130Y-328438392D02*
X87849702Y-328866964D01*
X87421130Y-328438392D02*
X87992559Y-329009821D01*
X87897321Y-327676488D02*
X87944940Y-327533630D01*
X87992559Y-327486011D01*
X88087797Y-327438392D01*
X88230654Y-327438392D01*
X88325892Y-327486011D01*
X88373511Y-327533630D01*
X88421130Y-327628869D01*
X88421130Y-328009821D01*
X87421130Y-328009821D01*
X87421130Y-327676488D01*
X87468750Y-327581250D01*
X87516369Y-327533630D01*
X87611607Y-327486011D01*
X87706845Y-327486011D01*
X87802083Y-327533630D01*
X87849702Y-327581250D01*
X87897321Y-327676488D01*
X87897321Y-328009821D01*
X87754464Y-326343154D02*
X88421130Y-326105059D01*
X87754464Y-325866964D01*
X88421130Y-324962202D02*
X88421130Y-325533630D01*
X88421130Y-325247916D02*
X87421130Y-325247916D01*
X87563988Y-325343154D01*
X87659226Y-325438392D01*
X87706845Y-325533630D01*
X88325892Y-324533630D02*
X88373511Y-324486011D01*
X88421130Y-324533630D01*
X88373511Y-324581250D01*
X88325892Y-324533630D01*
X88421130Y-324533630D01*
X87421130Y-323866964D02*
X87421130Y-323771726D01*
X87468750Y-323676488D01*
X87516369Y-323628869D01*
X87611607Y-323581250D01*
X87802083Y-323533630D01*
X88040178Y-323533630D01*
X88230654Y-323581250D01*
X88325892Y-323628869D01*
X88373511Y-323676488D01*
X88421130Y-323771726D01*
X88421130Y-323866964D01*
X88373511Y-323962202D01*
X88325892Y-324009821D01*
X88230654Y-324057440D01*
X88040178Y-324105059D01*
X87802083Y-324105059D01*
X87611607Y-324057440D01*
X87516369Y-324009821D01*
X87468750Y-323962202D01*
X87421130Y-323866964D01*
X82833630Y-334819345D02*
X81833630Y-334819345D01*
X81833630Y-334581250D01*
X81881250Y-334438392D01*
X81976488Y-334343154D01*
X82071726Y-334295535D01*
X82262202Y-334247916D01*
X82405059Y-334247916D01*
X82595535Y-334295535D01*
X82690773Y-334343154D01*
X82786011Y-334438392D01*
X82833630Y-334581250D01*
X82833630Y-334819345D01*
X82166964Y-333390773D02*
X82833630Y-333390773D01*
X82166964Y-333819345D02*
X82690773Y-333819345D01*
X82786011Y-333771726D01*
X82833630Y-333676488D01*
X82833630Y-333533630D01*
X82786011Y-333438392D01*
X82738392Y-333390773D01*
X82166964Y-332914583D02*
X82833630Y-332914583D01*
X82262202Y-332914583D02*
X82214583Y-332866964D01*
X82166964Y-332771726D01*
X82166964Y-332628869D01*
X82214583Y-332533630D01*
X82309821Y-332486011D01*
X82833630Y-332486011D01*
X82166964Y-331581250D02*
X82976488Y-331581250D01*
X83071726Y-331628869D01*
X83119345Y-331676488D01*
X83166964Y-331771726D01*
X83166964Y-331914583D01*
X83119345Y-332009821D01*
X82786011Y-331581250D02*
X82833630Y-331676488D01*
X82833630Y-331866964D01*
X82786011Y-331962202D01*
X82738392Y-332009821D01*
X82643154Y-332057440D01*
X82357440Y-332057440D01*
X82262202Y-332009821D01*
X82214583Y-331962202D01*
X82166964Y-331866964D01*
X82166964Y-331676488D01*
X82214583Y-331581250D01*
X82833630Y-330343154D02*
X81833630Y-330343154D01*
X81833630Y-329962202D01*
X81881250Y-329866964D01*
X81928869Y-329819345D01*
X82024107Y-329771726D01*
X82166964Y-329771726D01*
X82262202Y-329819345D01*
X82309821Y-329866964D01*
X82357440Y-329962202D01*
X82357440Y-330343154D01*
X82833630Y-329343154D02*
X81833630Y-329343154D01*
X82833630Y-328914583D02*
X82309821Y-328914583D01*
X82214583Y-328962202D01*
X82166964Y-329057440D01*
X82166964Y-329200297D01*
X82214583Y-329295535D01*
X82262202Y-329343154D01*
X82833630Y-328009821D02*
X82309821Y-328009821D01*
X82214583Y-328057440D01*
X82166964Y-328152678D01*
X82166964Y-328343154D01*
X82214583Y-328438392D01*
X82786011Y-328009821D02*
X82833630Y-328105059D01*
X82833630Y-328343154D01*
X82786011Y-328438392D01*
X82690773Y-328486011D01*
X82595535Y-328486011D01*
X82500297Y-328438392D01*
X82452678Y-328343154D01*
X82452678Y-328105059D01*
X82405059Y-328009821D01*
X82166964Y-327533630D02*
X82833630Y-327533630D01*
X82262202Y-327533630D02*
X82214583Y-327486011D01*
X82166964Y-327390773D01*
X82166964Y-327247916D01*
X82214583Y-327152678D01*
X82309821Y-327105059D01*
X82833630Y-327105059D01*
X83578869Y-332295535D02*
X83531250Y-332247916D01*
X83483630Y-332152678D01*
X83483630Y-331914583D01*
X83531250Y-331819345D01*
X83578869Y-331771726D01*
X83674107Y-331724107D01*
X83769345Y-331724107D01*
X83912202Y-331771726D01*
X84483630Y-332343154D01*
X84483630Y-331724107D01*
X83483630Y-331105059D02*
X83483630Y-331009821D01*
X83531250Y-330914583D01*
X83578869Y-330866964D01*
X83674107Y-330819345D01*
X83864583Y-330771726D01*
X84102678Y-330771726D01*
X84293154Y-330819345D01*
X84388392Y-330866964D01*
X84436011Y-330914583D01*
X84483630Y-331009821D01*
X84483630Y-331105059D01*
X84436011Y-331200297D01*
X84388392Y-331247916D01*
X84293154Y-331295535D01*
X84102678Y-331343154D01*
X83864583Y-331343154D01*
X83674107Y-331295535D01*
X83578869Y-331247916D01*
X83531250Y-331200297D01*
X83483630Y-331105059D01*
X83578869Y-330390773D02*
X83531250Y-330343154D01*
X83483630Y-330247916D01*
X83483630Y-330009821D01*
X83531250Y-329914583D01*
X83578869Y-329866964D01*
X83674107Y-329819345D01*
X83769345Y-329819345D01*
X83912202Y-329866964D01*
X84483630Y-330438392D01*
X84483630Y-329819345D01*
X84483630Y-328866964D02*
X84483630Y-329438392D01*
X84483630Y-329152678D02*
X83483630Y-329152678D01*
X83626488Y-329247916D01*
X83721726Y-329343154D01*
X83769345Y-329438392D01*
D11*
%TO.C,mouse-bite-2mm-slot*%
X302000000Y-250000000D02*
G75*
G03*
X302000000Y-252000000I0J-1000000D01*
G01*
X298000000Y-252000000D02*
G75*
G03*
X298000000Y-250000000I0J1000000D01*
G01*
X226000000Y-250000000D02*
G75*
G03*
X226000000Y-252000000I0J-1000000D01*
G01*
X222000000Y-252000000D02*
G75*
G03*
X222000000Y-250000000I0J1000000D01*
G01*
X149000000Y-250000000D02*
G75*
G03*
X149000000Y-252000000I0J-1000000D01*
G01*
X145000000Y-252000000D02*
G75*
G03*
X145000000Y-250000000I0J1000000D01*
G01*
X145000000Y-154750000D02*
G75*
G03*
X145000000Y-152750000I0J1000000D01*
G01*
X149000000Y-152750000D02*
G75*
G03*
X149000000Y-154750000I0J-1000000D01*
G01*
D10*
%TO.C,K32*%
X226224500Y-177325500D02*
X226224500Y-176325500D01*
X226224500Y-190325500D02*
X227224500Y-190325500D01*
X227224500Y-176325500D02*
X226224500Y-176325500D01*
X226224500Y-190325500D02*
X226224500Y-189325500D01*
X240224500Y-189325500D02*
X240224500Y-190325500D01*
X240224500Y-176325500D02*
X239224500Y-176325500D01*
X239224500Y-190325500D02*
X240224500Y-190325500D01*
X240224500Y-176325500D02*
X240224500Y-177325500D01*
%TO.C,K33*%
X226224500Y-196375500D02*
X226224500Y-195375500D01*
X226224500Y-209375500D02*
X227224500Y-209375500D01*
X227224500Y-195375500D02*
X226224500Y-195375500D01*
X226224500Y-209375500D02*
X226224500Y-208375500D01*
X240224500Y-208375500D02*
X240224500Y-209375500D01*
X240224500Y-195375500D02*
X239224500Y-195375500D01*
X239224500Y-209375500D02*
X240224500Y-209375500D01*
X240224500Y-195375500D02*
X240224500Y-196375500D01*
%TO.C,K42*%
X264324500Y-177325500D02*
X264324500Y-176325500D01*
X264324500Y-190325500D02*
X265324500Y-190325500D01*
X265324500Y-176325500D02*
X264324500Y-176325500D01*
X264324500Y-190325500D02*
X264324500Y-189325500D01*
X278324500Y-189325500D02*
X278324500Y-190325500D01*
X278324500Y-176325500D02*
X277324500Y-176325500D01*
X277324500Y-190325500D02*
X278324500Y-190325500D01*
X278324500Y-176325500D02*
X278324500Y-177325500D01*
%TO.C,K31*%
X226224500Y-158275500D02*
X226224500Y-157275500D01*
X226224500Y-171275500D02*
X227224500Y-171275500D01*
X227224500Y-157275500D02*
X226224500Y-157275500D01*
X226224500Y-171275500D02*
X226224500Y-170275500D01*
X240224500Y-170275500D02*
X240224500Y-171275500D01*
X240224500Y-157275500D02*
X239224500Y-157275500D01*
X239224500Y-171275500D02*
X240224500Y-171275500D01*
X240224500Y-157275500D02*
X240224500Y-158275500D01*
%TO.C,K24*%
X188124500Y-215425500D02*
X188124500Y-214425500D01*
X188124500Y-228425500D02*
X189124500Y-228425500D01*
X189124500Y-214425500D02*
X188124500Y-214425500D01*
X188124500Y-228425500D02*
X188124500Y-227425500D01*
X202124500Y-227425500D02*
X202124500Y-228425500D01*
X202124500Y-214425500D02*
X201124500Y-214425500D01*
X201124500Y-228425500D02*
X202124500Y-228425500D01*
X202124500Y-214425500D02*
X202124500Y-215425500D01*
%TO.C,K41*%
X264324500Y-158275500D02*
X264324500Y-157275500D01*
X264324500Y-171275500D02*
X265324500Y-171275500D01*
X265324500Y-157275500D02*
X264324500Y-157275500D01*
X264324500Y-171275500D02*
X264324500Y-170275500D01*
X278324500Y-170275500D02*
X278324500Y-171275500D01*
X278324500Y-157275500D02*
X277324500Y-157275500D01*
X277324500Y-171275500D02*
X278324500Y-171275500D01*
X278324500Y-157275500D02*
X278324500Y-158275500D01*
%TO.C,K34*%
X226224500Y-215425500D02*
X226224500Y-214425500D01*
X226224500Y-228425500D02*
X227224500Y-228425500D01*
X227224500Y-214425500D02*
X226224500Y-214425500D01*
X226224500Y-228425500D02*
X226224500Y-227425500D01*
X240224500Y-227425500D02*
X240224500Y-228425500D01*
X240224500Y-214425500D02*
X239224500Y-214425500D01*
X239224500Y-228425500D02*
X240224500Y-228425500D01*
X240224500Y-214425500D02*
X240224500Y-215425500D01*
%TO.C,K23*%
X188124500Y-196375500D02*
X188124500Y-195375500D01*
X188124500Y-209375500D02*
X189124500Y-209375500D01*
X189124500Y-195375500D02*
X188124500Y-195375500D01*
X188124500Y-209375500D02*
X188124500Y-208375500D01*
X202124500Y-208375500D02*
X202124500Y-209375500D01*
X202124500Y-195375500D02*
X201124500Y-195375500D01*
X201124500Y-209375500D02*
X202124500Y-209375500D01*
X202124500Y-195375500D02*
X202124500Y-196375500D01*
%TO.C,K19*%
X169074500Y-215425500D02*
X169074500Y-214425500D01*
X169074500Y-228425500D02*
X170074500Y-228425500D01*
X170074500Y-214425500D02*
X169074500Y-214425500D01*
X169074500Y-228425500D02*
X169074500Y-227425500D01*
X183074500Y-227425500D02*
X183074500Y-228425500D01*
X183074500Y-214425500D02*
X182074500Y-214425500D01*
X182074500Y-228425500D02*
X183074500Y-228425500D01*
X183074500Y-214425500D02*
X183074500Y-215425500D01*
%TO.C,K22*%
X188124500Y-177325500D02*
X188124500Y-176325500D01*
X188124500Y-190325500D02*
X189124500Y-190325500D01*
X189124500Y-176325500D02*
X188124500Y-176325500D01*
X188124500Y-190325500D02*
X188124500Y-189325500D01*
X202124500Y-189325500D02*
X202124500Y-190325500D01*
X202124500Y-176325500D02*
X201124500Y-176325500D01*
X201124500Y-190325500D02*
X202124500Y-190325500D01*
X202124500Y-176325500D02*
X202124500Y-177325500D01*
%TO.C,K45*%
X264324500Y-234475500D02*
X264324500Y-233475500D01*
X264324500Y-247475500D02*
X265324500Y-247475500D01*
X265324500Y-233475500D02*
X264324500Y-233475500D01*
X264324500Y-247475500D02*
X264324500Y-246475500D01*
X278324500Y-246475500D02*
X278324500Y-247475500D01*
X278324500Y-233475500D02*
X277324500Y-233475500D01*
X277324500Y-247475500D02*
X278324500Y-247475500D01*
X278324500Y-233475500D02*
X278324500Y-234475500D01*
%TO.C,K20*%
X169074500Y-234475500D02*
X169074500Y-233475500D01*
X169074500Y-247475500D02*
X170074500Y-247475500D01*
X170074500Y-233475500D02*
X169074500Y-233475500D01*
X169074500Y-247475500D02*
X169074500Y-246475500D01*
X183074500Y-246475500D02*
X183074500Y-247475500D01*
X183074500Y-233475500D02*
X182074500Y-233475500D01*
X182074500Y-247475500D02*
X183074500Y-247475500D01*
X183074500Y-233475500D02*
X183074500Y-234475500D01*
%TO.C,K30*%
X207174500Y-234475500D02*
X207174500Y-233475500D01*
X207174500Y-247475500D02*
X208174500Y-247475500D01*
X208174500Y-233475500D02*
X207174500Y-233475500D01*
X207174500Y-247475500D02*
X207174500Y-246475500D01*
X221174500Y-246475500D02*
X221174500Y-247475500D01*
X221174500Y-233475500D02*
X220174500Y-233475500D01*
X220174500Y-247475500D02*
X221174500Y-247475500D01*
X221174500Y-233475500D02*
X221174500Y-234475500D01*
%TO.C,K28*%
X207174500Y-196375500D02*
X207174500Y-195375500D01*
X207174500Y-209375500D02*
X208174500Y-209375500D01*
X208174500Y-195375500D02*
X207174500Y-195375500D01*
X207174500Y-209375500D02*
X207174500Y-208375500D01*
X221174500Y-208375500D02*
X221174500Y-209375500D01*
X221174500Y-195375500D02*
X220174500Y-195375500D01*
X220174500Y-209375500D02*
X221174500Y-209375500D01*
X221174500Y-195375500D02*
X221174500Y-196375500D01*
%TO.C,K25*%
X188124500Y-234475500D02*
X188124500Y-233475500D01*
X188124500Y-247475500D02*
X189124500Y-247475500D01*
X189124500Y-233475500D02*
X188124500Y-233475500D01*
X188124500Y-247475500D02*
X188124500Y-246475500D01*
X202124500Y-246475500D02*
X202124500Y-247475500D01*
X202124500Y-233475500D02*
X201124500Y-233475500D01*
X201124500Y-247475500D02*
X202124500Y-247475500D01*
X202124500Y-233475500D02*
X202124500Y-234475500D01*
%TO.C,K51*%
X302424500Y-158275500D02*
X302424500Y-157275500D01*
X302424500Y-171275500D02*
X303424500Y-171275500D01*
X303424500Y-157275500D02*
X302424500Y-157275500D01*
X302424500Y-171275500D02*
X302424500Y-170275500D01*
X316424500Y-170275500D02*
X316424500Y-171275500D01*
X316424500Y-157275500D02*
X315424500Y-157275500D01*
X315424500Y-171275500D02*
X316424500Y-171275500D01*
X316424500Y-157275500D02*
X316424500Y-158275500D01*
%TO.C,K10*%
X130974500Y-234475500D02*
X130974500Y-233475500D01*
X130974500Y-247475500D02*
X131974500Y-247475500D01*
X131974500Y-233475500D02*
X130974500Y-233475500D01*
X130974500Y-247475500D02*
X130974500Y-246475500D01*
X144974500Y-246475500D02*
X144974500Y-247475500D01*
X144974500Y-233475500D02*
X143974500Y-233475500D01*
X143974500Y-247475500D02*
X144974500Y-247475500D01*
X144974500Y-233475500D02*
X144974500Y-234475500D01*
%TO.C,K57*%
X321474500Y-177325500D02*
X321474500Y-176325500D01*
X321474500Y-190325500D02*
X322474500Y-190325500D01*
X322474500Y-176325500D02*
X321474500Y-176325500D01*
X321474500Y-190325500D02*
X321474500Y-189325500D01*
X335474500Y-189325500D02*
X335474500Y-190325500D01*
X335474500Y-176325500D02*
X334474500Y-176325500D01*
X334474500Y-190325500D02*
X335474500Y-190325500D01*
X335474500Y-176325500D02*
X335474500Y-177325500D01*
%TO.C,K58*%
X321474500Y-196375500D02*
X321474500Y-195375500D01*
X321474500Y-209375500D02*
X322474500Y-209375500D01*
X322474500Y-195375500D02*
X321474500Y-195375500D01*
X321474500Y-209375500D02*
X321474500Y-208375500D01*
X335474500Y-208375500D02*
X335474500Y-209375500D01*
X335474500Y-195375500D02*
X334474500Y-195375500D01*
X334474500Y-209375500D02*
X335474500Y-209375500D01*
X335474500Y-195375500D02*
X335474500Y-196375500D01*
%TO.C,K56*%
X321474500Y-158275500D02*
X321474500Y-157275500D01*
X321474500Y-171275500D02*
X322474500Y-171275500D01*
X322474500Y-157275500D02*
X321474500Y-157275500D01*
X321474500Y-171275500D02*
X321474500Y-170275500D01*
X335474500Y-170275500D02*
X335474500Y-171275500D01*
X335474500Y-157275500D02*
X334474500Y-157275500D01*
X334474500Y-171275500D02*
X335474500Y-171275500D01*
X335474500Y-157275500D02*
X335474500Y-158275500D01*
%TO.C,K17*%
X169074500Y-177325500D02*
X169074500Y-176325500D01*
X169074500Y-190325500D02*
X170074500Y-190325500D01*
X170074500Y-176325500D02*
X169074500Y-176325500D01*
X169074500Y-190325500D02*
X169074500Y-189325500D01*
X183074500Y-189325500D02*
X183074500Y-190325500D01*
X183074500Y-176325500D02*
X182074500Y-176325500D01*
X182074500Y-190325500D02*
X183074500Y-190325500D01*
X183074500Y-176325500D02*
X183074500Y-177325500D01*
%TO.C,K43*%
X264324500Y-196375500D02*
X264324500Y-195375500D01*
X264324500Y-209375500D02*
X265324500Y-209375500D01*
X265324500Y-195375500D02*
X264324500Y-195375500D01*
X264324500Y-209375500D02*
X264324500Y-208375500D01*
X278324500Y-208375500D02*
X278324500Y-209375500D01*
X278324500Y-195375500D02*
X277324500Y-195375500D01*
X277324500Y-209375500D02*
X278324500Y-209375500D01*
X278324500Y-195375500D02*
X278324500Y-196375500D01*
%TO.C,K39*%
X245274500Y-215425500D02*
X245274500Y-214425500D01*
X245274500Y-228425500D02*
X246274500Y-228425500D01*
X246274500Y-214425500D02*
X245274500Y-214425500D01*
X245274500Y-228425500D02*
X245274500Y-227425500D01*
X259274500Y-227425500D02*
X259274500Y-228425500D01*
X259274500Y-214425500D02*
X258274500Y-214425500D01*
X258274500Y-228425500D02*
X259274500Y-228425500D01*
X259274500Y-214425500D02*
X259274500Y-215425500D01*
%TO.C,K18*%
X169074500Y-196375500D02*
X169074500Y-195375500D01*
X169074500Y-209375500D02*
X170074500Y-209375500D01*
X170074500Y-195375500D02*
X169074500Y-195375500D01*
X169074500Y-209375500D02*
X169074500Y-208375500D01*
X183074500Y-208375500D02*
X183074500Y-209375500D01*
X183074500Y-195375500D02*
X182074500Y-195375500D01*
X182074500Y-209375500D02*
X183074500Y-209375500D01*
X183074500Y-195375500D02*
X183074500Y-196375500D01*
%TO.C,K3*%
X111924500Y-196375500D02*
X111924500Y-195375500D01*
X111924500Y-209375500D02*
X112924500Y-209375500D01*
X112924500Y-195375500D02*
X111924500Y-195375500D01*
X111924500Y-209375500D02*
X111924500Y-208375500D01*
X125924500Y-208375500D02*
X125924500Y-209375500D01*
X125924500Y-195375500D02*
X124924500Y-195375500D01*
X124924500Y-209375500D02*
X125924500Y-209375500D01*
X125924500Y-195375500D02*
X125924500Y-196375500D01*
%TO.C,K48*%
X283374500Y-196375500D02*
X283374500Y-195375500D01*
X283374500Y-209375500D02*
X284374500Y-209375500D01*
X284374500Y-195375500D02*
X283374500Y-195375500D01*
X283374500Y-209375500D02*
X283374500Y-208375500D01*
X297374500Y-208375500D02*
X297374500Y-209375500D01*
X297374500Y-195375500D02*
X296374500Y-195375500D01*
X296374500Y-209375500D02*
X297374500Y-209375500D01*
X297374500Y-195375500D02*
X297374500Y-196375500D01*
%TO.C,K6*%
X130974500Y-158275500D02*
X130974500Y-157275500D01*
X130974500Y-171275500D02*
X131974500Y-171275500D01*
X131974500Y-157275500D02*
X130974500Y-157275500D01*
X130974500Y-171275500D02*
X130974500Y-170275500D01*
X144974500Y-170275500D02*
X144974500Y-171275500D01*
X144974500Y-157275500D02*
X143974500Y-157275500D01*
X143974500Y-171275500D02*
X144974500Y-171275500D01*
X144974500Y-157275500D02*
X144974500Y-158275500D01*
%TO.C,K7*%
X130974500Y-177325500D02*
X130974500Y-176325500D01*
X130974500Y-190325500D02*
X131974500Y-190325500D01*
X131974500Y-176325500D02*
X130974500Y-176325500D01*
X130974500Y-190325500D02*
X130974500Y-189325500D01*
X144974500Y-189325500D02*
X144974500Y-190325500D01*
X144974500Y-176325500D02*
X143974500Y-176325500D01*
X143974500Y-190325500D02*
X144974500Y-190325500D01*
X144974500Y-176325500D02*
X144974500Y-177325500D01*
%TO.C,K53*%
X302424500Y-196375500D02*
X302424500Y-195375500D01*
X302424500Y-209375500D02*
X303424500Y-209375500D01*
X303424500Y-195375500D02*
X302424500Y-195375500D01*
X302424500Y-209375500D02*
X302424500Y-208375500D01*
X316424500Y-208375500D02*
X316424500Y-209375500D01*
X316424500Y-195375500D02*
X315424500Y-195375500D01*
X315424500Y-209375500D02*
X316424500Y-209375500D01*
X316424500Y-195375500D02*
X316424500Y-196375500D01*
%TO.C,K16*%
X169074500Y-158275500D02*
X169074500Y-157275500D01*
X169074500Y-171275500D02*
X170074500Y-171275500D01*
X170074500Y-157275500D02*
X169074500Y-157275500D01*
X169074500Y-171275500D02*
X169074500Y-170275500D01*
X183074500Y-170275500D02*
X183074500Y-171275500D01*
X183074500Y-157275500D02*
X182074500Y-157275500D01*
X182074500Y-171275500D02*
X183074500Y-171275500D01*
X183074500Y-157275500D02*
X183074500Y-158275500D01*
%TO.C,K54*%
X302424500Y-215425500D02*
X302424500Y-214425500D01*
X302424500Y-228425500D02*
X303424500Y-228425500D01*
X303424500Y-214425500D02*
X302424500Y-214425500D01*
X302424500Y-228425500D02*
X302424500Y-227425500D01*
X316424500Y-227425500D02*
X316424500Y-228425500D01*
X316424500Y-214425500D02*
X315424500Y-214425500D01*
X315424500Y-228425500D02*
X316424500Y-228425500D01*
X316424500Y-214425500D02*
X316424500Y-215425500D01*
%TO.C,K36*%
X245274500Y-158275500D02*
X245274500Y-157275500D01*
X245274500Y-171275500D02*
X246274500Y-171275500D01*
X246274500Y-157275500D02*
X245274500Y-157275500D01*
X245274500Y-171275500D02*
X245274500Y-170275500D01*
X259274500Y-170275500D02*
X259274500Y-171275500D01*
X259274500Y-157275500D02*
X258274500Y-157275500D01*
X258274500Y-171275500D02*
X259274500Y-171275500D01*
X259274500Y-157275500D02*
X259274500Y-158275500D01*
%TO.C,K27*%
X207174500Y-177325500D02*
X207174500Y-176325500D01*
X207174500Y-190325500D02*
X208174500Y-190325500D01*
X208174500Y-176325500D02*
X207174500Y-176325500D01*
X207174500Y-190325500D02*
X207174500Y-189325500D01*
X221174500Y-189325500D02*
X221174500Y-190325500D01*
X221174500Y-176325500D02*
X220174500Y-176325500D01*
X220174500Y-190325500D02*
X221174500Y-190325500D01*
X221174500Y-176325500D02*
X221174500Y-177325500D01*
%TO.C,K26*%
X207174500Y-158275500D02*
X207174500Y-157275500D01*
X207174500Y-171275500D02*
X208174500Y-171275500D01*
X208174500Y-157275500D02*
X207174500Y-157275500D01*
X207174500Y-171275500D02*
X207174500Y-170275500D01*
X221174500Y-170275500D02*
X221174500Y-171275500D01*
X221174500Y-157275500D02*
X220174500Y-157275500D01*
X220174500Y-171275500D02*
X221174500Y-171275500D01*
X221174500Y-157275500D02*
X221174500Y-158275500D01*
%TO.C,K37*%
X245274500Y-177325500D02*
X245274500Y-176325500D01*
X245274500Y-190325500D02*
X246274500Y-190325500D01*
X246274500Y-176325500D02*
X245274500Y-176325500D01*
X245274500Y-190325500D02*
X245274500Y-189325500D01*
X259274500Y-189325500D02*
X259274500Y-190325500D01*
X259274500Y-176325500D02*
X258274500Y-176325500D01*
X258274500Y-190325500D02*
X259274500Y-190325500D01*
X259274500Y-176325500D02*
X259274500Y-177325500D01*
%TO.C,K44*%
X264324500Y-215425500D02*
X264324500Y-214425500D01*
X264324500Y-228425500D02*
X265324500Y-228425500D01*
X265324500Y-214425500D02*
X264324500Y-214425500D01*
X264324500Y-228425500D02*
X264324500Y-227425500D01*
X278324500Y-227425500D02*
X278324500Y-228425500D01*
X278324500Y-214425500D02*
X277324500Y-214425500D01*
X277324500Y-228425500D02*
X278324500Y-228425500D01*
X278324500Y-214425500D02*
X278324500Y-215425500D01*
%TO.C,K59*%
X321474500Y-215425500D02*
X321474500Y-214425500D01*
X321474500Y-228425500D02*
X322474500Y-228425500D01*
X322474500Y-214425500D02*
X321474500Y-214425500D01*
X321474500Y-228425500D02*
X321474500Y-227425500D01*
X335474500Y-227425500D02*
X335474500Y-228425500D01*
X335474500Y-214425500D02*
X334474500Y-214425500D01*
X334474500Y-228425500D02*
X335474500Y-228425500D01*
X335474500Y-214425500D02*
X335474500Y-215425500D01*
%TO.C,K11*%
X150024500Y-158275500D02*
X150024500Y-157275500D01*
X150024500Y-171275500D02*
X151024500Y-171275500D01*
X151024500Y-157275500D02*
X150024500Y-157275500D01*
X150024500Y-171275500D02*
X150024500Y-170275500D01*
X164024500Y-170275500D02*
X164024500Y-171275500D01*
X164024500Y-157275500D02*
X163024500Y-157275500D01*
X163024500Y-171275500D02*
X164024500Y-171275500D01*
X164024500Y-157275500D02*
X164024500Y-158275500D01*
%TO.C,K13*%
X150024500Y-196375500D02*
X150024500Y-195375500D01*
X150024500Y-209375500D02*
X151024500Y-209375500D01*
X151024500Y-195375500D02*
X150024500Y-195375500D01*
X150024500Y-209375500D02*
X150024500Y-208375500D01*
X164024500Y-208375500D02*
X164024500Y-209375500D01*
X164024500Y-195375500D02*
X163024500Y-195375500D01*
X163024500Y-209375500D02*
X164024500Y-209375500D01*
X164024500Y-195375500D02*
X164024500Y-196375500D01*
%TO.C,K38*%
X245274500Y-196375500D02*
X245274500Y-195375500D01*
X245274500Y-209375500D02*
X246274500Y-209375500D01*
X246274500Y-195375500D02*
X245274500Y-195375500D01*
X245274500Y-209375500D02*
X245274500Y-208375500D01*
X259274500Y-208375500D02*
X259274500Y-209375500D01*
X259274500Y-195375500D02*
X258274500Y-195375500D01*
X258274500Y-209375500D02*
X259274500Y-209375500D01*
X259274500Y-195375500D02*
X259274500Y-196375500D01*
%TO.C,K49*%
X283374500Y-215425500D02*
X283374500Y-214425500D01*
X283374500Y-228425500D02*
X284374500Y-228425500D01*
X284374500Y-214425500D02*
X283374500Y-214425500D01*
X283374500Y-228425500D02*
X283374500Y-227425500D01*
X297374500Y-227425500D02*
X297374500Y-228425500D01*
X297374500Y-214425500D02*
X296374500Y-214425500D01*
X296374500Y-228425500D02*
X297374500Y-228425500D01*
X297374500Y-214425500D02*
X297374500Y-215425500D01*
%TO.C,K50*%
X283374500Y-234475500D02*
X283374500Y-233475500D01*
X283374500Y-247475500D02*
X284374500Y-247475500D01*
X284374500Y-233475500D02*
X283374500Y-233475500D01*
X283374500Y-247475500D02*
X283374500Y-246475500D01*
X297374500Y-246475500D02*
X297374500Y-247475500D01*
X297374500Y-233475500D02*
X296374500Y-233475500D01*
X296374500Y-247475500D02*
X297374500Y-247475500D01*
X297374500Y-233475500D02*
X297374500Y-234475500D01*
%TO.C,K40*%
X245274500Y-234475500D02*
X245274500Y-233475500D01*
X245274500Y-247475500D02*
X246274500Y-247475500D01*
X246274500Y-233475500D02*
X245274500Y-233475500D01*
X245274500Y-247475500D02*
X245274500Y-246475500D01*
X259274500Y-246475500D02*
X259274500Y-247475500D01*
X259274500Y-233475500D02*
X258274500Y-233475500D01*
X258274500Y-247475500D02*
X259274500Y-247475500D01*
X259274500Y-233475500D02*
X259274500Y-234475500D01*
%TO.C,U1*%
X93842500Y-156972500D02*
X93842500Y-162052500D01*
X93842500Y-162052500D02*
X86222500Y-162052500D01*
X86222500Y-162052500D02*
X86222500Y-156972500D01*
X104002500Y-165862500D02*
X98922500Y-165862500D01*
X98922500Y-165862500D02*
X98922500Y-159512500D01*
X98922500Y-159512500D02*
X104002500Y-159512500D01*
X104002500Y-159512500D02*
X104002500Y-165862500D01*
X101462500Y-209042500D02*
X101462500Y-191262500D01*
X101462500Y-191262500D02*
X83682500Y-191262500D01*
X83682500Y-191262500D02*
X83682500Y-209042500D01*
X83682500Y-209042500D02*
X101462500Y-209042500D01*
X79872500Y-214122500D02*
X79872500Y-158242500D01*
X102732500Y-216662500D02*
X82412500Y-216662500D01*
X81142500Y-156972500D02*
X104002500Y-156972500D01*
X104002500Y-156972500D02*
X105272500Y-158242500D01*
X105272500Y-158242500D02*
X105272500Y-214122500D01*
X79872500Y-158242500D02*
X81142500Y-156972500D01*
X82412500Y-216662500D02*
X79872500Y-214122500D01*
X105272500Y-214122500D02*
X102732500Y-216662500D01*
%TO.C,K29*%
X207174500Y-215425500D02*
X207174500Y-214425500D01*
X207174500Y-228425500D02*
X208174500Y-228425500D01*
X208174500Y-214425500D02*
X207174500Y-214425500D01*
X207174500Y-228425500D02*
X207174500Y-227425500D01*
X221174500Y-227425500D02*
X221174500Y-228425500D01*
X221174500Y-214425500D02*
X220174500Y-214425500D01*
X220174500Y-228425500D02*
X221174500Y-228425500D01*
X221174500Y-214425500D02*
X221174500Y-215425500D01*
%TO.C,K21*%
X188124500Y-158275500D02*
X188124500Y-157275500D01*
X188124500Y-171275500D02*
X189124500Y-171275500D01*
X189124500Y-157275500D02*
X188124500Y-157275500D01*
X188124500Y-171275500D02*
X188124500Y-170275500D01*
X202124500Y-170275500D02*
X202124500Y-171275500D01*
X202124500Y-157275500D02*
X201124500Y-157275500D01*
X201124500Y-171275500D02*
X202124500Y-171275500D01*
X202124500Y-157275500D02*
X202124500Y-158275500D01*
%TO.C,K5*%
X111924500Y-234475500D02*
X111924500Y-233475500D01*
X111924500Y-247475500D02*
X112924500Y-247475500D01*
X112924500Y-233475500D02*
X111924500Y-233475500D01*
X111924500Y-247475500D02*
X111924500Y-246475500D01*
X125924500Y-246475500D02*
X125924500Y-247475500D01*
X125924500Y-233475500D02*
X124924500Y-233475500D01*
X124924500Y-247475500D02*
X125924500Y-247475500D01*
X125924500Y-233475500D02*
X125924500Y-234475500D01*
%TO.C,K4*%
X111924500Y-215425500D02*
X111924500Y-214425500D01*
X111924500Y-228425500D02*
X112924500Y-228425500D01*
X112924500Y-214425500D02*
X111924500Y-214425500D01*
X111924500Y-228425500D02*
X111924500Y-227425500D01*
X125924500Y-227425500D02*
X125924500Y-228425500D01*
X125924500Y-214425500D02*
X124924500Y-214425500D01*
X124924500Y-228425500D02*
X125924500Y-228425500D01*
X125924500Y-214425500D02*
X125924500Y-215425500D01*
%TO.C,K8*%
X130974500Y-196375500D02*
X130974500Y-195375500D01*
X130974500Y-209375500D02*
X131974500Y-209375500D01*
X131974500Y-195375500D02*
X130974500Y-195375500D01*
X130974500Y-209375500D02*
X130974500Y-208375500D01*
X144974500Y-208375500D02*
X144974500Y-209375500D01*
X144974500Y-195375500D02*
X143974500Y-195375500D01*
X143974500Y-209375500D02*
X144974500Y-209375500D01*
X144974500Y-195375500D02*
X144974500Y-196375500D01*
%TO.C,K35*%
X226224500Y-234475500D02*
X226224500Y-233475500D01*
X226224500Y-247475500D02*
X227224500Y-247475500D01*
X227224500Y-233475500D02*
X226224500Y-233475500D01*
X226224500Y-247475500D02*
X226224500Y-246475500D01*
X240224500Y-246475500D02*
X240224500Y-247475500D01*
X240224500Y-233475500D02*
X239224500Y-233475500D01*
X239224500Y-247475500D02*
X240224500Y-247475500D01*
X240224500Y-233475500D02*
X240224500Y-234475500D01*
%TO.C,K52*%
X302424500Y-177325500D02*
X302424500Y-176325500D01*
X302424500Y-190325500D02*
X303424500Y-190325500D01*
X303424500Y-176325500D02*
X302424500Y-176325500D01*
X302424500Y-190325500D02*
X302424500Y-189325500D01*
X316424500Y-189325500D02*
X316424500Y-190325500D01*
X316424500Y-176325500D02*
X315424500Y-176325500D01*
X315424500Y-190325500D02*
X316424500Y-190325500D01*
X316424500Y-176325500D02*
X316424500Y-177325500D01*
%TO.C,K60*%
X321474500Y-234475500D02*
X321474500Y-233475500D01*
X321474500Y-247475500D02*
X322474500Y-247475500D01*
X322474500Y-233475500D02*
X321474500Y-233475500D01*
X321474500Y-247475500D02*
X321474500Y-246475500D01*
X335474500Y-246475500D02*
X335474500Y-247475500D01*
X335474500Y-233475500D02*
X334474500Y-233475500D01*
X334474500Y-247475500D02*
X335474500Y-247475500D01*
X335474500Y-233475500D02*
X335474500Y-234475500D01*
%TO.C,K55*%
X302424500Y-234475500D02*
X302424500Y-233475500D01*
X302424500Y-247475500D02*
X303424500Y-247475500D01*
X303424500Y-233475500D02*
X302424500Y-233475500D01*
X302424500Y-247475500D02*
X302424500Y-246475500D01*
X316424500Y-246475500D02*
X316424500Y-247475500D01*
X316424500Y-233475500D02*
X315424500Y-233475500D01*
X315424500Y-247475500D02*
X316424500Y-247475500D01*
X316424500Y-233475500D02*
X316424500Y-234475500D01*
D11*
%TO.C,mouse-bite-2mm-slot*%
X222000000Y-154750000D02*
G75*
G03*
X222000000Y-152750000I0J1000000D01*
G01*
X226000000Y-152750000D02*
G75*
G03*
X226000000Y-154750000I0J-1000000D01*
G01*
X298000000Y-154750000D02*
G75*
G03*
X298000000Y-152750000I0J1000000D01*
G01*
X302000000Y-152750000D02*
G75*
G03*
X302000000Y-154750000I0J-1000000D01*
G01*
D10*
%TO.C,K12*%
X150024500Y-177325500D02*
X150024500Y-176325500D01*
X150024500Y-190325500D02*
X151024500Y-190325500D01*
X151024500Y-176325500D02*
X150024500Y-176325500D01*
X150024500Y-190325500D02*
X150024500Y-189325500D01*
X164024500Y-189325500D02*
X164024500Y-190325500D01*
X164024500Y-176325500D02*
X163024500Y-176325500D01*
X163024500Y-190325500D02*
X164024500Y-190325500D01*
X164024500Y-176325500D02*
X164024500Y-177325500D01*
%TO.C,K1*%
X111924500Y-158275500D02*
X111924500Y-157275500D01*
X111924500Y-171275500D02*
X112924500Y-171275500D01*
X112924500Y-157275500D02*
X111924500Y-157275500D01*
X111924500Y-171275500D02*
X111924500Y-170275500D01*
X125924500Y-170275500D02*
X125924500Y-171275500D01*
X125924500Y-157275500D02*
X124924500Y-157275500D01*
X124924500Y-171275500D02*
X125924500Y-171275500D01*
X125924500Y-157275500D02*
X125924500Y-158275500D01*
%TO.C,K14*%
X150024500Y-215425500D02*
X150024500Y-214425500D01*
X150024500Y-228425500D02*
X151024500Y-228425500D01*
X151024500Y-214425500D02*
X150024500Y-214425500D01*
X150024500Y-228425500D02*
X150024500Y-227425500D01*
X164024500Y-227425500D02*
X164024500Y-228425500D01*
X164024500Y-214425500D02*
X163024500Y-214425500D01*
X163024500Y-228425500D02*
X164024500Y-228425500D01*
X164024500Y-214425500D02*
X164024500Y-215425500D01*
%TO.C,K47*%
X283374500Y-177325500D02*
X283374500Y-176325500D01*
X283374500Y-190325500D02*
X284374500Y-190325500D01*
X284374500Y-176325500D02*
X283374500Y-176325500D01*
X283374500Y-190325500D02*
X283374500Y-189325500D01*
X297374500Y-189325500D02*
X297374500Y-190325500D01*
X297374500Y-176325500D02*
X296374500Y-176325500D01*
X296374500Y-190325500D02*
X297374500Y-190325500D01*
X297374500Y-176325500D02*
X297374500Y-177325500D01*
%TO.C,K46*%
X283374500Y-158275500D02*
X283374500Y-157275500D01*
X283374500Y-171275500D02*
X284374500Y-171275500D01*
X284374500Y-157275500D02*
X283374500Y-157275500D01*
X283374500Y-171275500D02*
X283374500Y-170275500D01*
X297374500Y-170275500D02*
X297374500Y-171275500D01*
X297374500Y-157275500D02*
X296374500Y-157275500D01*
X296374500Y-171275500D02*
X297374500Y-171275500D01*
X297374500Y-157275500D02*
X297374500Y-158275500D01*
%TO.C,K9*%
X130974500Y-215425500D02*
X130974500Y-214425500D01*
X130974500Y-228425500D02*
X131974500Y-228425500D01*
X131974500Y-214425500D02*
X130974500Y-214425500D01*
X130974500Y-228425500D02*
X130974500Y-227425500D01*
X144974500Y-227425500D02*
X144974500Y-228425500D01*
X144974500Y-214425500D02*
X143974500Y-214425500D01*
X143974500Y-228425500D02*
X144974500Y-228425500D01*
X144974500Y-214425500D02*
X144974500Y-215425500D01*
%TO.C,K15*%
X150024500Y-234475500D02*
X150024500Y-233475500D01*
X150024500Y-247475500D02*
X151024500Y-247475500D01*
X151024500Y-233475500D02*
X150024500Y-233475500D01*
X150024500Y-247475500D02*
X150024500Y-246475500D01*
X164024500Y-246475500D02*
X164024500Y-247475500D01*
X164024500Y-233475500D02*
X163024500Y-233475500D01*
X163024500Y-247475500D02*
X164024500Y-247475500D01*
X164024500Y-233475500D02*
X164024500Y-234475500D01*
%TO.C,K2*%
X111924500Y-177325500D02*
X111924500Y-176325500D01*
X111924500Y-190325500D02*
X112924500Y-190325500D01*
X112924500Y-176325500D02*
X111924500Y-176325500D01*
X111924500Y-190325500D02*
X111924500Y-189325500D01*
X125924500Y-189325500D02*
X125924500Y-190325500D01*
X125924500Y-176325500D02*
X124924500Y-176325500D01*
X124924500Y-190325500D02*
X125924500Y-190325500D01*
X125924500Y-176325500D02*
X125924500Y-177325500D01*
D12*
%TO.C,G\u002A\u002A\u002A*%
G36*
X166789696Y-289352580D02*
G01*
X166976605Y-289506143D01*
X167216870Y-289729213D01*
X167364581Y-289876043D01*
X167843627Y-290446243D01*
X168252338Y-291094678D01*
X168561449Y-291768736D01*
X168723189Y-292318510D01*
X168804461Y-293099666D01*
X168742125Y-293928691D01*
X168542451Y-294774651D01*
X168211713Y-295606612D01*
X167962609Y-296070028D01*
X167782938Y-296354163D01*
X167562428Y-296676160D01*
X167325135Y-297004099D01*
X167095114Y-297306063D01*
X166896418Y-297550132D01*
X166753103Y-297704389D01*
X166703642Y-297740576D01*
X166626679Y-297689489D01*
X166475565Y-297535358D01*
X166279923Y-297308947D01*
X166234933Y-297253835D01*
X165576930Y-296341741D01*
X165086445Y-295440087D01*
X164762190Y-294545952D01*
X164602879Y-293656415D01*
X164593462Y-293528750D01*
X164589891Y-292853198D01*
X164676914Y-292247271D01*
X164868202Y-291646155D01*
X165096895Y-291142303D01*
X165278692Y-290826788D01*
X165516618Y-290480781D01*
X165786016Y-290132914D01*
X166062226Y-289811816D01*
X166320593Y-289546119D01*
X166536457Y-289364454D01*
X166685161Y-289295451D01*
X166687500Y-289295417D01*
X166789696Y-289352580D01*
G37*
X166789696Y-289352580D02*
X166976605Y-289506143D01*
X167216870Y-289729213D01*
X167364581Y-289876043D01*
X167843627Y-290446243D01*
X168252338Y-291094678D01*
X168561449Y-291768736D01*
X168723189Y-292318510D01*
X168804461Y-293099666D01*
X168742125Y-293928691D01*
X168542451Y-294774651D01*
X168211713Y-295606612D01*
X167962609Y-296070028D01*
X167782938Y-296354163D01*
X167562428Y-296676160D01*
X167325135Y-297004099D01*
X167095114Y-297306063D01*
X166896418Y-297550132D01*
X166753103Y-297704389D01*
X166703642Y-297740576D01*
X166626679Y-297689489D01*
X166475565Y-297535358D01*
X166279923Y-297308947D01*
X166234933Y-297253835D01*
X165576930Y-296341741D01*
X165086445Y-295440087D01*
X164762190Y-294545952D01*
X164602879Y-293656415D01*
X164593462Y-293528750D01*
X164589891Y-292853198D01*
X164676914Y-292247271D01*
X164868202Y-291646155D01*
X165096895Y-291142303D01*
X165278692Y-290826788D01*
X165516618Y-290480781D01*
X165786016Y-290132914D01*
X166062226Y-289811816D01*
X166320593Y-289546119D01*
X166536457Y-289364454D01*
X166685161Y-289295451D01*
X166687500Y-289295417D01*
X166789696Y-289352580D01*
G36*
X156535690Y-294038335D02*
G01*
X158190997Y-294717162D01*
X159691288Y-295401892D01*
X161050862Y-296100841D01*
X162284021Y-296822325D01*
X163405064Y-297574662D01*
X164428291Y-298366165D01*
X165286016Y-299127047D01*
X165999227Y-299802161D01*
X165483840Y-300475152D01*
X165243156Y-300782365D01*
X165077602Y-300970827D01*
X164964692Y-301060151D01*
X164881939Y-301069950D01*
X164833219Y-301042614D01*
X164704108Y-300939273D01*
X164487824Y-300763661D01*
X164227910Y-300551151D01*
X164189909Y-300519969D01*
X163532825Y-300024865D01*
X162755834Y-299512386D01*
X161903031Y-299007306D01*
X161018512Y-298534397D01*
X160146374Y-298118433D01*
X159330713Y-297784185D01*
X159300334Y-297773030D01*
X158813500Y-297595127D01*
X158813714Y-297784438D01*
X158841633Y-298006441D01*
X158917859Y-298349559D01*
X159031594Y-298776222D01*
X159172041Y-299248862D01*
X159328405Y-299729909D01*
X159489889Y-300181794D01*
X159540136Y-300312208D01*
X160007064Y-301389310D01*
X160579724Y-302529210D01*
X161232763Y-303687512D01*
X161940828Y-304819821D01*
X162678563Y-305881740D01*
X162858523Y-306122917D01*
X162980496Y-306293104D01*
X163036335Y-306389751D01*
X163034812Y-306398084D01*
X162954391Y-306354345D01*
X162770015Y-306238383D01*
X162517831Y-306073080D01*
X162453263Y-306029967D01*
X162066183Y-305777967D01*
X161595533Y-305482860D01*
X161078510Y-305166873D01*
X160552311Y-304852229D01*
X160054131Y-304561153D01*
X159621167Y-304315870D01*
X159290616Y-304138604D01*
X159271880Y-304129118D01*
X158756592Y-303869659D01*
X158282542Y-302742038D01*
X157732691Y-301354559D01*
X157252522Y-299979259D01*
X156848225Y-298639150D01*
X156525987Y-297357245D01*
X156291995Y-296156557D01*
X156152438Y-295060100D01*
X156128525Y-294731371D01*
X156078214Y-293859658D01*
X156535690Y-294038335D01*
G37*
X156535690Y-294038335D02*
X158190997Y-294717162D01*
X159691288Y-295401892D01*
X161050862Y-296100841D01*
X162284021Y-296822325D01*
X163405064Y-297574662D01*
X164428291Y-298366165D01*
X165286016Y-299127047D01*
X165999227Y-299802161D01*
X165483840Y-300475152D01*
X165243156Y-300782365D01*
X165077602Y-300970827D01*
X164964692Y-301060151D01*
X164881939Y-301069950D01*
X164833219Y-301042614D01*
X164704108Y-300939273D01*
X164487824Y-300763661D01*
X164227910Y-300551151D01*
X164189909Y-300519969D01*
X163532825Y-300024865D01*
X162755834Y-299512386D01*
X161903031Y-299007306D01*
X161018512Y-298534397D01*
X160146374Y-298118433D01*
X159330713Y-297784185D01*
X159300334Y-297773030D01*
X158813500Y-297595127D01*
X158813714Y-297784438D01*
X158841633Y-298006441D01*
X158917859Y-298349559D01*
X159031594Y-298776222D01*
X159172041Y-299248862D01*
X159328405Y-299729909D01*
X159489889Y-300181794D01*
X159540136Y-300312208D01*
X160007064Y-301389310D01*
X160579724Y-302529210D01*
X161232763Y-303687512D01*
X161940828Y-304819821D01*
X162678563Y-305881740D01*
X162858523Y-306122917D01*
X162980496Y-306293104D01*
X163036335Y-306389751D01*
X163034812Y-306398084D01*
X162954391Y-306354345D01*
X162770015Y-306238383D01*
X162517831Y-306073080D01*
X162453263Y-306029967D01*
X162066183Y-305777967D01*
X161595533Y-305482860D01*
X161078510Y-305166873D01*
X160552311Y-304852229D01*
X160054131Y-304561153D01*
X159621167Y-304315870D01*
X159290616Y-304138604D01*
X159271880Y-304129118D01*
X158756592Y-303869659D01*
X158282542Y-302742038D01*
X157732691Y-301354559D01*
X157252522Y-299979259D01*
X156848225Y-298639150D01*
X156525987Y-297357245D01*
X156291995Y-296156557D01*
X156152438Y-295060100D01*
X156128525Y-294731371D01*
X156078214Y-293859658D01*
X156535690Y-294038335D01*
G36*
X177246475Y-294731371D02*
G01*
X177139147Y-295786317D01*
X176935759Y-296952943D01*
X176642561Y-298207998D01*
X176265803Y-299528228D01*
X175811732Y-300890383D01*
X175286599Y-302271208D01*
X175095670Y-302734404D01*
X174624831Y-303854390D01*
X173825301Y-304281590D01*
X173382931Y-304527599D01*
X172831334Y-304849785D01*
X172201495Y-305229385D01*
X171524400Y-305647634D01*
X170831036Y-306085769D01*
X170582167Y-306245552D01*
X170285834Y-306436660D01*
X170505360Y-306142205D01*
X171342851Y-304953984D01*
X172125098Y-303716116D01*
X172830095Y-302467136D01*
X173435834Y-301245579D01*
X173834865Y-300312208D01*
X173995724Y-299877307D01*
X174154867Y-299401398D01*
X174301498Y-298922053D01*
X174424821Y-298476838D01*
X174514037Y-298103325D01*
X174558353Y-297839082D01*
X174561287Y-297784438D01*
X174561500Y-297595127D01*
X174074667Y-297775591D01*
X172520590Y-298441019D01*
X171037420Y-299255064D01*
X169636322Y-300207894D01*
X168328464Y-301289681D01*
X167125010Y-302490597D01*
X166037128Y-303800810D01*
X165075984Y-305210492D01*
X164517607Y-306188465D01*
X164330403Y-306533715D01*
X164168763Y-306816108D01*
X164050080Y-307006310D01*
X163992002Y-307074996D01*
X163895205Y-307025686D01*
X163731773Y-306905425D01*
X163706145Y-306884496D01*
X163476456Y-306694417D01*
X163819301Y-305678417D01*
X164335792Y-304332156D01*
X164946257Y-303065418D01*
X165637206Y-301902222D01*
X166395146Y-300866584D01*
X166761366Y-300440974D01*
X167735034Y-299439546D01*
X168777601Y-298507957D01*
X169903950Y-297636751D01*
X171128962Y-296816477D01*
X172467522Y-296037678D01*
X173934510Y-295290902D01*
X175544811Y-294566694D01*
X176839310Y-294039021D01*
X177296786Y-293859658D01*
X177246475Y-294731371D01*
G37*
X177246475Y-294731371D02*
X177139147Y-295786317D01*
X176935759Y-296952943D01*
X176642561Y-298207998D01*
X176265803Y-299528228D01*
X175811732Y-300890383D01*
X175286599Y-302271208D01*
X175095670Y-302734404D01*
X174624831Y-303854390D01*
X173825301Y-304281590D01*
X173382931Y-304527599D01*
X172831334Y-304849785D01*
X172201495Y-305229385D01*
X171524400Y-305647634D01*
X170831036Y-306085769D01*
X170582167Y-306245552D01*
X170285834Y-306436660D01*
X170505360Y-306142205D01*
X171342851Y-304953984D01*
X172125098Y-303716116D01*
X172830095Y-302467136D01*
X173435834Y-301245579D01*
X173834865Y-300312208D01*
X173995724Y-299877307D01*
X174154867Y-299401398D01*
X174301498Y-298922053D01*
X174424821Y-298476838D01*
X174514037Y-298103325D01*
X174558353Y-297839082D01*
X174561287Y-297784438D01*
X174561500Y-297595127D01*
X174074667Y-297775591D01*
X172520590Y-298441019D01*
X171037420Y-299255064D01*
X169636322Y-300207894D01*
X168328464Y-301289681D01*
X167125010Y-302490597D01*
X166037128Y-303800810D01*
X165075984Y-305210492D01*
X164517607Y-306188465D01*
X164330403Y-306533715D01*
X164168763Y-306816108D01*
X164050080Y-307006310D01*
X163992002Y-307074996D01*
X163895205Y-307025686D01*
X163731773Y-306905425D01*
X163706145Y-306884496D01*
X163476456Y-306694417D01*
X163819301Y-305678417D01*
X164335792Y-304332156D01*
X164946257Y-303065418D01*
X165637206Y-301902222D01*
X166395146Y-300866584D01*
X166761366Y-300440974D01*
X167735034Y-299439546D01*
X168777601Y-298507957D01*
X169903950Y-297636751D01*
X171128962Y-296816477D01*
X172467522Y-296037678D01*
X173934510Y-295290902D01*
X175544811Y-294566694D01*
X176839310Y-294039021D01*
X177296786Y-293859658D01*
X177246475Y-294731371D01*
G36*
X148977764Y-301904190D02*
G01*
X149006146Y-301906192D01*
X150119772Y-302007354D01*
X151146414Y-302150794D01*
X152119099Y-302346165D01*
X153070855Y-302603120D01*
X154034707Y-302931309D01*
X155043684Y-303340386D01*
X156130811Y-303840003D01*
X156866167Y-304203307D01*
X157964233Y-304767471D01*
X158968909Y-305306059D01*
X159911150Y-305838214D01*
X160821912Y-306383081D01*
X161732150Y-306959806D01*
X162672821Y-307587531D01*
X163674880Y-308285402D01*
X164769282Y-309072564D01*
X164935181Y-309193576D01*
X165260360Y-309434442D01*
X165465355Y-309598848D01*
X165568715Y-309707429D01*
X165588988Y-309780822D01*
X165544722Y-309839662D01*
X165527848Y-309852941D01*
X165377496Y-309945533D01*
X165124092Y-310081456D01*
X164805207Y-310242695D01*
X164458415Y-310411234D01*
X164121286Y-310569059D01*
X163831392Y-310698153D01*
X163626305Y-310780501D01*
X163551161Y-310800750D01*
X163447906Y-310755776D01*
X163230112Y-310631245D01*
X162923316Y-310442748D01*
X162553055Y-310205871D01*
X162250258Y-310006631D01*
X160494675Y-308895980D01*
X158788881Y-307936443D01*
X157119056Y-307122206D01*
X155471379Y-306447452D01*
X153832031Y-305906365D01*
X152187191Y-305493128D01*
X151003000Y-305273286D01*
X150828889Y-305274659D01*
X150771408Y-305330324D01*
X150808119Y-305442178D01*
X150905913Y-305666959D01*
X151047975Y-305967242D01*
X151150517Y-306174143D01*
X151850516Y-307395625D01*
X152667598Y-308523737D01*
X153587766Y-309544326D01*
X154597025Y-310443242D01*
X155681378Y-311206333D01*
X156654500Y-311738957D01*
X157436607Y-312077231D01*
X158179557Y-312314612D01*
X158944616Y-312465899D01*
X159793049Y-312545892D01*
X160041167Y-312557070D01*
X160988916Y-312554665D01*
X161869949Y-312467664D01*
X162750394Y-312286293D01*
X163611686Y-312029373D01*
X164060185Y-311872673D01*
X164475077Y-311710624D01*
X164876049Y-311531664D01*
X165282794Y-311324229D01*
X165714999Y-311076757D01*
X166192354Y-310777685D01*
X166734549Y-310415449D01*
X167361273Y-309978488D01*
X168092217Y-309455239D01*
X168507834Y-309154074D01*
X169718013Y-308286678D01*
X170832967Y-307514833D01*
X171882641Y-306820047D01*
X172896976Y-306183824D01*
X173905917Y-305587671D01*
X174939408Y-305013092D01*
X176027391Y-304441594D01*
X176635834Y-304133885D01*
X177798452Y-303575407D01*
X178865138Y-303115045D01*
X179870346Y-302742873D01*
X180848529Y-302448966D01*
X181834142Y-302223399D01*
X182861641Y-302056246D01*
X183965478Y-301937581D01*
X184368854Y-301906192D01*
X184881987Y-301881662D01*
X185463802Y-301873574D01*
X186076554Y-301880518D01*
X186682502Y-301901082D01*
X187243901Y-301933855D01*
X187723009Y-301977426D01*
X188082083Y-302030383D01*
X188161162Y-302047992D01*
X188356106Y-302096919D01*
X188094460Y-302617668D01*
X187537487Y-303677018D01*
X186898123Y-304808399D01*
X186199664Y-305975057D01*
X185465409Y-307140241D01*
X184718656Y-308267196D01*
X183982702Y-309319169D01*
X183280846Y-310259409D01*
X183121865Y-310462084D01*
X182322103Y-311419591D01*
X181548951Y-312235315D01*
X180779347Y-312929356D01*
X179990226Y-313521812D01*
X179158526Y-314032785D01*
X178814920Y-314215712D01*
X177602460Y-314768336D01*
X176419051Y-315166309D01*
X175239661Y-315415443D01*
X174039255Y-315521551D01*
X173215711Y-315515733D01*
X172411396Y-315463369D01*
X171716139Y-315373417D01*
X171071655Y-315234164D01*
X170419657Y-315033893D01*
X169947167Y-314858795D01*
X169559605Y-314696201D01*
X169149892Y-314505542D01*
X168744205Y-314301380D01*
X168368719Y-314098277D01*
X168049609Y-313910795D01*
X167813050Y-313753498D01*
X167685219Y-313640948D01*
X167675856Y-313595174D01*
X167767296Y-313527381D01*
X167972559Y-313382826D01*
X168265335Y-313179809D01*
X168619313Y-312936630D01*
X168804167Y-312810378D01*
X169862500Y-312088913D01*
X170481884Y-312246750D01*
X171498880Y-312450249D01*
X172539311Y-312555061D01*
X173562706Y-312560872D01*
X174528591Y-312467367D01*
X175361506Y-312284659D01*
X176456016Y-311878835D01*
X177529823Y-311317148D01*
X178565963Y-310613026D01*
X179547476Y-309779899D01*
X180457399Y-308831194D01*
X181278769Y-307780341D01*
X181541472Y-307391999D01*
X181755844Y-307045443D01*
X181977615Y-306658217D01*
X182189541Y-306264004D01*
X182374382Y-305896488D01*
X182514894Y-305589351D01*
X182593836Y-305376277D01*
X182604834Y-305314707D01*
X182533333Y-305269600D01*
X182372000Y-305273172D01*
X180694213Y-305608408D01*
X179007088Y-306084863D01*
X177298996Y-306706849D01*
X175558304Y-307478677D01*
X173773382Y-308404661D01*
X173475654Y-308571521D01*
X173173543Y-308749994D01*
X172750089Y-309011050D01*
X172224261Y-309342478D01*
X171615030Y-309732068D01*
X170941367Y-310167610D01*
X170222244Y-310636895D01*
X169476629Y-311127712D01*
X168723496Y-311627851D01*
X168629466Y-311690619D01*
X167694124Y-312313452D01*
X166883825Y-312848162D01*
X166184406Y-313303044D01*
X165581707Y-313686393D01*
X165061566Y-314006503D01*
X164609823Y-314271669D01*
X164212316Y-314490186D01*
X163854883Y-314670348D01*
X163523365Y-314820450D01*
X163203599Y-314948786D01*
X162881425Y-315063652D01*
X162856464Y-315072058D01*
X162092519Y-315277109D01*
X161220515Y-315425243D01*
X160293103Y-315512883D01*
X159362937Y-315536449D01*
X158482671Y-315492361D01*
X157875270Y-315410653D01*
X157026054Y-315208155D01*
X156108934Y-314903609D01*
X155172951Y-314517429D01*
X154267148Y-314070030D01*
X153440568Y-313581825D01*
X153369492Y-313535091D01*
X152680733Y-313015790D01*
X151946923Y-312346107D01*
X151175912Y-311536518D01*
X150375551Y-310597500D01*
X149553694Y-309539527D01*
X148718190Y-308373077D01*
X147876893Y-307108624D01*
X147037652Y-305756643D01*
X146208321Y-304327612D01*
X145513486Y-303053463D01*
X145320489Y-302696220D01*
X145185308Y-302432525D01*
X145123103Y-302246423D01*
X145149036Y-302121959D01*
X145278266Y-302043178D01*
X145525953Y-301994126D01*
X145907260Y-301958849D01*
X146437346Y-301921390D01*
X146600620Y-301909385D01*
X147784401Y-301862111D01*
X148977764Y-301904190D01*
G37*
X148977764Y-301904190D02*
X149006146Y-301906192D01*
X150119772Y-302007354D01*
X151146414Y-302150794D01*
X152119099Y-302346165D01*
X153070855Y-302603120D01*
X154034707Y-302931309D01*
X155043684Y-303340386D01*
X156130811Y-303840003D01*
X156866167Y-304203307D01*
X157964233Y-304767471D01*
X158968909Y-305306059D01*
X159911150Y-305838214D01*
X160821912Y-306383081D01*
X161732150Y-306959806D01*
X162672821Y-307587531D01*
X163674880Y-308285402D01*
X164769282Y-309072564D01*
X164935181Y-309193576D01*
X165260360Y-309434442D01*
X165465355Y-309598848D01*
X165568715Y-309707429D01*
X165588988Y-309780822D01*
X165544722Y-309839662D01*
X165527848Y-309852941D01*
X165377496Y-309945533D01*
X165124092Y-310081456D01*
X164805207Y-310242695D01*
X164458415Y-310411234D01*
X164121286Y-310569059D01*
X163831392Y-310698153D01*
X163626305Y-310780501D01*
X163551161Y-310800750D01*
X163447906Y-310755776D01*
X163230112Y-310631245D01*
X162923316Y-310442748D01*
X162553055Y-310205871D01*
X162250258Y-310006631D01*
X160494675Y-308895980D01*
X158788881Y-307936443D01*
X157119056Y-307122206D01*
X155471379Y-306447452D01*
X153832031Y-305906365D01*
X152187191Y-305493128D01*
X151003000Y-305273286D01*
X150828889Y-305274659D01*
X150771408Y-305330324D01*
X150808119Y-305442178D01*
X150905913Y-305666959D01*
X151047975Y-305967242D01*
X151150517Y-306174143D01*
X151850516Y-307395625D01*
X152667598Y-308523737D01*
X153587766Y-309544326D01*
X154597025Y-310443242D01*
X155681378Y-311206333D01*
X156654500Y-311738957D01*
X157436607Y-312077231D01*
X158179557Y-312314612D01*
X158944616Y-312465899D01*
X159793049Y-312545892D01*
X160041167Y-312557070D01*
X160988916Y-312554665D01*
X161869949Y-312467664D01*
X162750394Y-312286293D01*
X163611686Y-312029373D01*
X164060185Y-311872673D01*
X164475077Y-311710624D01*
X164876049Y-311531664D01*
X165282794Y-311324229D01*
X165714999Y-311076757D01*
X166192354Y-310777685D01*
X166734549Y-310415449D01*
X167361273Y-309978488D01*
X168092217Y-309455239D01*
X168507834Y-309154074D01*
X169718013Y-308286678D01*
X170832967Y-307514833D01*
X171882641Y-306820047D01*
X172896976Y-306183824D01*
X173905917Y-305587671D01*
X174939408Y-305013092D01*
X176027391Y-304441594D01*
X176635834Y-304133885D01*
X177798452Y-303575407D01*
X178865138Y-303115045D01*
X179870346Y-302742873D01*
X180848529Y-302448966D01*
X181834142Y-302223399D01*
X182861641Y-302056246D01*
X183965478Y-301937581D01*
X184368854Y-301906192D01*
X184881987Y-301881662D01*
X185463802Y-301873574D01*
X186076554Y-301880518D01*
X186682502Y-301901082D01*
X187243901Y-301933855D01*
X187723009Y-301977426D01*
X188082083Y-302030383D01*
X188161162Y-302047992D01*
X188356106Y-302096919D01*
X188094460Y-302617668D01*
X187537487Y-303677018D01*
X186898123Y-304808399D01*
X186199664Y-305975057D01*
X185465409Y-307140241D01*
X184718656Y-308267196D01*
X183982702Y-309319169D01*
X183280846Y-310259409D01*
X183121865Y-310462084D01*
X182322103Y-311419591D01*
X181548951Y-312235315D01*
X180779347Y-312929356D01*
X179990226Y-313521812D01*
X179158526Y-314032785D01*
X178814920Y-314215712D01*
X177602460Y-314768336D01*
X176419051Y-315166309D01*
X175239661Y-315415443D01*
X174039255Y-315521551D01*
X173215711Y-315515733D01*
X172411396Y-315463369D01*
X171716139Y-315373417D01*
X171071655Y-315234164D01*
X170419657Y-315033893D01*
X169947167Y-314858795D01*
X169559605Y-314696201D01*
X169149892Y-314505542D01*
X168744205Y-314301380D01*
X168368719Y-314098277D01*
X168049609Y-313910795D01*
X167813050Y-313753498D01*
X167685219Y-313640948D01*
X167675856Y-313595174D01*
X167767296Y-313527381D01*
X167972559Y-313382826D01*
X168265335Y-313179809D01*
X168619313Y-312936630D01*
X168804167Y-312810378D01*
X169862500Y-312088913D01*
X170481884Y-312246750D01*
X171498880Y-312450249D01*
X172539311Y-312555061D01*
X173562706Y-312560872D01*
X174528591Y-312467367D01*
X175361506Y-312284659D01*
X176456016Y-311878835D01*
X177529823Y-311317148D01*
X178565963Y-310613026D01*
X179547476Y-309779899D01*
X180457399Y-308831194D01*
X181278769Y-307780341D01*
X181541472Y-307391999D01*
X181755844Y-307045443D01*
X181977615Y-306658217D01*
X182189541Y-306264004D01*
X182374382Y-305896488D01*
X182514894Y-305589351D01*
X182593836Y-305376277D01*
X182604834Y-305314707D01*
X182533333Y-305269600D01*
X182372000Y-305273172D01*
X180694213Y-305608408D01*
X179007088Y-306084863D01*
X177298996Y-306706849D01*
X175558304Y-307478677D01*
X173773382Y-308404661D01*
X173475654Y-308571521D01*
X173173543Y-308749994D01*
X172750089Y-309011050D01*
X172224261Y-309342478D01*
X171615030Y-309732068D01*
X170941367Y-310167610D01*
X170222244Y-310636895D01*
X169476629Y-311127712D01*
X168723496Y-311627851D01*
X168629466Y-311690619D01*
X167694124Y-312313452D01*
X166883825Y-312848162D01*
X166184406Y-313303044D01*
X165581707Y-313686393D01*
X165061566Y-314006503D01*
X164609823Y-314271669D01*
X164212316Y-314490186D01*
X163854883Y-314670348D01*
X163523365Y-314820450D01*
X163203599Y-314948786D01*
X162881425Y-315063652D01*
X162856464Y-315072058D01*
X162092519Y-315277109D01*
X161220515Y-315425243D01*
X160293103Y-315512883D01*
X159362937Y-315536449D01*
X158482671Y-315492361D01*
X157875270Y-315410653D01*
X157026054Y-315208155D01*
X156108934Y-314903609D01*
X155172951Y-314517429D01*
X154267148Y-314070030D01*
X153440568Y-313581825D01*
X153369492Y-313535091D01*
X152680733Y-313015790D01*
X151946923Y-312346107D01*
X151175912Y-311536518D01*
X150375551Y-310597500D01*
X149553694Y-309539527D01*
X148718190Y-308373077D01*
X147876893Y-307108624D01*
X147037652Y-305756643D01*
X146208321Y-304327612D01*
X145513486Y-303053463D01*
X145320489Y-302696220D01*
X145185308Y-302432525D01*
X145123103Y-302246423D01*
X145149036Y-302121959D01*
X145278266Y-302043178D01*
X145525953Y-301994126D01*
X145907260Y-301958849D01*
X146437346Y-301921390D01*
X146600620Y-301909385D01*
X147784401Y-301862111D01*
X148977764Y-301904190D01*
G36*
X281089696Y-289352580D02*
G01*
X281276605Y-289506143D01*
X281516870Y-289729213D01*
X281664581Y-289876043D01*
X282143627Y-290446243D01*
X282552338Y-291094678D01*
X282861449Y-291768736D01*
X283023189Y-292318510D01*
X283104461Y-293099666D01*
X283042125Y-293928691D01*
X282842451Y-294774651D01*
X282511713Y-295606612D01*
X282262609Y-296070028D01*
X282082938Y-296354163D01*
X281862428Y-296676160D01*
X281625135Y-297004099D01*
X281395114Y-297306063D01*
X281196418Y-297550132D01*
X281053103Y-297704389D01*
X281003642Y-297740576D01*
X280926679Y-297689489D01*
X280775565Y-297535358D01*
X280579923Y-297308947D01*
X280534933Y-297253835D01*
X279876930Y-296341741D01*
X279386445Y-295440087D01*
X279062190Y-294545952D01*
X278902879Y-293656415D01*
X278893462Y-293528750D01*
X278889891Y-292853198D01*
X278976914Y-292247271D01*
X279168202Y-291646155D01*
X279396895Y-291142303D01*
X279578692Y-290826788D01*
X279816618Y-290480781D01*
X280086016Y-290132914D01*
X280362226Y-289811816D01*
X280620593Y-289546119D01*
X280836457Y-289364454D01*
X280985161Y-289295451D01*
X280987500Y-289295417D01*
X281089696Y-289352580D01*
G37*
X281089696Y-289352580D02*
X281276605Y-289506143D01*
X281516870Y-289729213D01*
X281664581Y-289876043D01*
X282143627Y-290446243D01*
X282552338Y-291094678D01*
X282861449Y-291768736D01*
X283023189Y-292318510D01*
X283104461Y-293099666D01*
X283042125Y-293928691D01*
X282842451Y-294774651D01*
X282511713Y-295606612D01*
X282262609Y-296070028D01*
X282082938Y-296354163D01*
X281862428Y-296676160D01*
X281625135Y-297004099D01*
X281395114Y-297306063D01*
X281196418Y-297550132D01*
X281053103Y-297704389D01*
X281003642Y-297740576D01*
X280926679Y-297689489D01*
X280775565Y-297535358D01*
X280579923Y-297308947D01*
X280534933Y-297253835D01*
X279876930Y-296341741D01*
X279386445Y-295440087D01*
X279062190Y-294545952D01*
X278902879Y-293656415D01*
X278893462Y-293528750D01*
X278889891Y-292853198D01*
X278976914Y-292247271D01*
X279168202Y-291646155D01*
X279396895Y-291142303D01*
X279578692Y-290826788D01*
X279816618Y-290480781D01*
X280086016Y-290132914D01*
X280362226Y-289811816D01*
X280620593Y-289546119D01*
X280836457Y-289364454D01*
X280985161Y-289295451D01*
X280987500Y-289295417D01*
X281089696Y-289352580D01*
G36*
X270835690Y-294038335D02*
G01*
X272490997Y-294717162D01*
X273991288Y-295401892D01*
X275350862Y-296100841D01*
X276584021Y-296822325D01*
X277705064Y-297574662D01*
X278728291Y-298366165D01*
X279586016Y-299127047D01*
X280299227Y-299802161D01*
X279783840Y-300475152D01*
X279543156Y-300782365D01*
X279377602Y-300970827D01*
X279264692Y-301060151D01*
X279181939Y-301069950D01*
X279133219Y-301042614D01*
X279004108Y-300939273D01*
X278787824Y-300763661D01*
X278527910Y-300551151D01*
X278489909Y-300519969D01*
X277832825Y-300024865D01*
X277055834Y-299512386D01*
X276203031Y-299007306D01*
X275318512Y-298534397D01*
X274446374Y-298118433D01*
X273630713Y-297784185D01*
X273600334Y-297773030D01*
X273113500Y-297595127D01*
X273113714Y-297784438D01*
X273141633Y-298006441D01*
X273217859Y-298349559D01*
X273331594Y-298776222D01*
X273472041Y-299248862D01*
X273628405Y-299729909D01*
X273789889Y-300181794D01*
X273840136Y-300312208D01*
X274307064Y-301389310D01*
X274879724Y-302529210D01*
X275532763Y-303687512D01*
X276240828Y-304819821D01*
X276978563Y-305881740D01*
X277158523Y-306122917D01*
X277280496Y-306293104D01*
X277336335Y-306389751D01*
X277334812Y-306398084D01*
X277254391Y-306354345D01*
X277070015Y-306238383D01*
X276817831Y-306073080D01*
X276753263Y-306029967D01*
X276366183Y-305777967D01*
X275895533Y-305482860D01*
X275378510Y-305166873D01*
X274852311Y-304852229D01*
X274354131Y-304561153D01*
X273921167Y-304315870D01*
X273590616Y-304138604D01*
X273571880Y-304129118D01*
X273056592Y-303869659D01*
X272582542Y-302742038D01*
X272032691Y-301354559D01*
X271552522Y-299979259D01*
X271148225Y-298639150D01*
X270825987Y-297357245D01*
X270591995Y-296156557D01*
X270452438Y-295060100D01*
X270428525Y-294731371D01*
X270378214Y-293859658D01*
X270835690Y-294038335D01*
G37*
X270835690Y-294038335D02*
X272490997Y-294717162D01*
X273991288Y-295401892D01*
X275350862Y-296100841D01*
X276584021Y-296822325D01*
X277705064Y-297574662D01*
X278728291Y-298366165D01*
X279586016Y-299127047D01*
X280299227Y-299802161D01*
X279783840Y-300475152D01*
X279543156Y-300782365D01*
X279377602Y-300970827D01*
X279264692Y-301060151D01*
X279181939Y-301069950D01*
X279133219Y-301042614D01*
X279004108Y-300939273D01*
X278787824Y-300763661D01*
X278527910Y-300551151D01*
X278489909Y-300519969D01*
X277832825Y-300024865D01*
X277055834Y-299512386D01*
X276203031Y-299007306D01*
X275318512Y-298534397D01*
X274446374Y-298118433D01*
X273630713Y-297784185D01*
X273600334Y-297773030D01*
X273113500Y-297595127D01*
X273113714Y-297784438D01*
X273141633Y-298006441D01*
X273217859Y-298349559D01*
X273331594Y-298776222D01*
X273472041Y-299248862D01*
X273628405Y-299729909D01*
X273789889Y-300181794D01*
X273840136Y-300312208D01*
X274307064Y-301389310D01*
X274879724Y-302529210D01*
X275532763Y-303687512D01*
X276240828Y-304819821D01*
X276978563Y-305881740D01*
X277158523Y-306122917D01*
X277280496Y-306293104D01*
X277336335Y-306389751D01*
X277334812Y-306398084D01*
X277254391Y-306354345D01*
X277070015Y-306238383D01*
X276817831Y-306073080D01*
X276753263Y-306029967D01*
X276366183Y-305777967D01*
X275895533Y-305482860D01*
X275378510Y-305166873D01*
X274852311Y-304852229D01*
X274354131Y-304561153D01*
X273921167Y-304315870D01*
X273590616Y-304138604D01*
X273571880Y-304129118D01*
X273056592Y-303869659D01*
X272582542Y-302742038D01*
X272032691Y-301354559D01*
X271552522Y-299979259D01*
X271148225Y-298639150D01*
X270825987Y-297357245D01*
X270591995Y-296156557D01*
X270452438Y-295060100D01*
X270428525Y-294731371D01*
X270378214Y-293859658D01*
X270835690Y-294038335D01*
G36*
X291546475Y-294731371D02*
G01*
X291439147Y-295786317D01*
X291235759Y-296952943D01*
X290942561Y-298207998D01*
X290565803Y-299528228D01*
X290111732Y-300890383D01*
X289586599Y-302271208D01*
X289395670Y-302734404D01*
X288924831Y-303854390D01*
X288125301Y-304281590D01*
X287682931Y-304527599D01*
X287131334Y-304849785D01*
X286501495Y-305229385D01*
X285824400Y-305647634D01*
X285131036Y-306085769D01*
X284882167Y-306245552D01*
X284585834Y-306436660D01*
X284805360Y-306142205D01*
X285642851Y-304953984D01*
X286425098Y-303716116D01*
X287130095Y-302467136D01*
X287735834Y-301245579D01*
X288134865Y-300312208D01*
X288295724Y-299877307D01*
X288454867Y-299401398D01*
X288601498Y-298922053D01*
X288724821Y-298476838D01*
X288814037Y-298103325D01*
X288858353Y-297839082D01*
X288861287Y-297784438D01*
X288861500Y-297595127D01*
X288374667Y-297775591D01*
X286820590Y-298441019D01*
X285337420Y-299255064D01*
X283936322Y-300207894D01*
X282628464Y-301289681D01*
X281425010Y-302490597D01*
X280337128Y-303800810D01*
X279375984Y-305210492D01*
X278817607Y-306188465D01*
X278630403Y-306533715D01*
X278468763Y-306816108D01*
X278350080Y-307006310D01*
X278292002Y-307074996D01*
X278195205Y-307025686D01*
X278031773Y-306905425D01*
X278006145Y-306884496D01*
X277776456Y-306694417D01*
X278119301Y-305678417D01*
X278635792Y-304332156D01*
X279246257Y-303065418D01*
X279937206Y-301902222D01*
X280695146Y-300866584D01*
X281061366Y-300440974D01*
X282035034Y-299439546D01*
X283077601Y-298507957D01*
X284203950Y-297636751D01*
X285428962Y-296816477D01*
X286767522Y-296037678D01*
X288234510Y-295290902D01*
X289844811Y-294566694D01*
X291139310Y-294039021D01*
X291596786Y-293859658D01*
X291546475Y-294731371D01*
G37*
X291546475Y-294731371D02*
X291439147Y-295786317D01*
X291235759Y-296952943D01*
X290942561Y-298207998D01*
X290565803Y-299528228D01*
X290111732Y-300890383D01*
X289586599Y-302271208D01*
X289395670Y-302734404D01*
X288924831Y-303854390D01*
X288125301Y-304281590D01*
X287682931Y-304527599D01*
X287131334Y-304849785D01*
X286501495Y-305229385D01*
X285824400Y-305647634D01*
X285131036Y-306085769D01*
X284882167Y-306245552D01*
X284585834Y-306436660D01*
X284805360Y-306142205D01*
X285642851Y-304953984D01*
X286425098Y-303716116D01*
X287130095Y-302467136D01*
X287735834Y-301245579D01*
X288134865Y-300312208D01*
X288295724Y-299877307D01*
X288454867Y-299401398D01*
X288601498Y-298922053D01*
X288724821Y-298476838D01*
X288814037Y-298103325D01*
X288858353Y-297839082D01*
X288861287Y-297784438D01*
X288861500Y-297595127D01*
X288374667Y-297775591D01*
X286820590Y-298441019D01*
X285337420Y-299255064D01*
X283936322Y-300207894D01*
X282628464Y-301289681D01*
X281425010Y-302490597D01*
X280337128Y-303800810D01*
X279375984Y-305210492D01*
X278817607Y-306188465D01*
X278630403Y-306533715D01*
X278468763Y-306816108D01*
X278350080Y-307006310D01*
X278292002Y-307074996D01*
X278195205Y-307025686D01*
X278031773Y-306905425D01*
X278006145Y-306884496D01*
X277776456Y-306694417D01*
X278119301Y-305678417D01*
X278635792Y-304332156D01*
X279246257Y-303065418D01*
X279937206Y-301902222D01*
X280695146Y-300866584D01*
X281061366Y-300440974D01*
X282035034Y-299439546D01*
X283077601Y-298507957D01*
X284203950Y-297636751D01*
X285428962Y-296816477D01*
X286767522Y-296037678D01*
X288234510Y-295290902D01*
X289844811Y-294566694D01*
X291139310Y-294039021D01*
X291596786Y-293859658D01*
X291546475Y-294731371D01*
G36*
X263277764Y-301904190D02*
G01*
X263306146Y-301906192D01*
X264419772Y-302007354D01*
X265446414Y-302150794D01*
X266419099Y-302346165D01*
X267370855Y-302603120D01*
X268334707Y-302931309D01*
X269343684Y-303340386D01*
X270430811Y-303840003D01*
X271166167Y-304203307D01*
X272264233Y-304767471D01*
X273268909Y-305306059D01*
X274211150Y-305838214D01*
X275121912Y-306383081D01*
X276032150Y-306959806D01*
X276972821Y-307587531D01*
X277974880Y-308285402D01*
X279069282Y-309072564D01*
X279235181Y-309193576D01*
X279560360Y-309434442D01*
X279765355Y-309598848D01*
X279868715Y-309707429D01*
X279888988Y-309780822D01*
X279844722Y-309839662D01*
X279827848Y-309852941D01*
X279677496Y-309945533D01*
X279424092Y-310081456D01*
X279105207Y-310242695D01*
X278758415Y-310411234D01*
X278421286Y-310569059D01*
X278131392Y-310698153D01*
X277926305Y-310780501D01*
X277851161Y-310800750D01*
X277747906Y-310755776D01*
X277530112Y-310631245D01*
X277223316Y-310442748D01*
X276853055Y-310205871D01*
X276550258Y-310006631D01*
X274794675Y-308895980D01*
X273088881Y-307936443D01*
X271419056Y-307122206D01*
X269771379Y-306447452D01*
X268132031Y-305906365D01*
X266487191Y-305493128D01*
X265303000Y-305273286D01*
X265128889Y-305274659D01*
X265071408Y-305330324D01*
X265108119Y-305442178D01*
X265205913Y-305666959D01*
X265347975Y-305967242D01*
X265450517Y-306174143D01*
X266150516Y-307395625D01*
X266967598Y-308523737D01*
X267887766Y-309544326D01*
X268897025Y-310443242D01*
X269981378Y-311206333D01*
X270954500Y-311738957D01*
X271736607Y-312077231D01*
X272479557Y-312314612D01*
X273244616Y-312465899D01*
X274093049Y-312545892D01*
X274341167Y-312557070D01*
X275288916Y-312554665D01*
X276169949Y-312467664D01*
X277050394Y-312286293D01*
X277911686Y-312029373D01*
X278360185Y-311872673D01*
X278775077Y-311710624D01*
X279176049Y-311531664D01*
X279582794Y-311324229D01*
X280014999Y-311076757D01*
X280492354Y-310777685D01*
X281034549Y-310415449D01*
X281661273Y-309978488D01*
X282392217Y-309455239D01*
X282807834Y-309154074D01*
X284018013Y-308286678D01*
X285132967Y-307514833D01*
X286182641Y-306820047D01*
X287196976Y-306183824D01*
X288205917Y-305587671D01*
X289239408Y-305013092D01*
X290327391Y-304441594D01*
X290935834Y-304133885D01*
X292098452Y-303575407D01*
X293165138Y-303115045D01*
X294170346Y-302742873D01*
X295148529Y-302448966D01*
X296134142Y-302223399D01*
X297161641Y-302056246D01*
X298265478Y-301937581D01*
X298668854Y-301906192D01*
X299181987Y-301881662D01*
X299763802Y-301873574D01*
X300376554Y-301880518D01*
X300982502Y-301901082D01*
X301543901Y-301933855D01*
X302023009Y-301977426D01*
X302382083Y-302030383D01*
X302461162Y-302047992D01*
X302656106Y-302096919D01*
X302394460Y-302617668D01*
X301837487Y-303677018D01*
X301198123Y-304808399D01*
X300499664Y-305975057D01*
X299765409Y-307140241D01*
X299018656Y-308267196D01*
X298282702Y-309319169D01*
X297580846Y-310259409D01*
X297421865Y-310462084D01*
X296622103Y-311419591D01*
X295848951Y-312235315D01*
X295079347Y-312929356D01*
X294290226Y-313521812D01*
X293458526Y-314032785D01*
X293114920Y-314215712D01*
X291902460Y-314768336D01*
X290719051Y-315166309D01*
X289539661Y-315415443D01*
X288339255Y-315521551D01*
X287515711Y-315515733D01*
X286711396Y-315463369D01*
X286016139Y-315373417D01*
X285371655Y-315234164D01*
X284719657Y-315033893D01*
X284247167Y-314858795D01*
X283859605Y-314696201D01*
X283449892Y-314505542D01*
X283044205Y-314301380D01*
X282668719Y-314098277D01*
X282349609Y-313910795D01*
X282113050Y-313753498D01*
X281985219Y-313640948D01*
X281975856Y-313595174D01*
X282067296Y-313527381D01*
X282272559Y-313382826D01*
X282565335Y-313179809D01*
X282919313Y-312936630D01*
X283104167Y-312810378D01*
X284162500Y-312088913D01*
X284781884Y-312246750D01*
X285798880Y-312450249D01*
X286839311Y-312555061D01*
X287862706Y-312560872D01*
X288828591Y-312467367D01*
X289661506Y-312284659D01*
X290756016Y-311878835D01*
X291829823Y-311317148D01*
X292865963Y-310613026D01*
X293847476Y-309779899D01*
X294757399Y-308831194D01*
X295578769Y-307780341D01*
X295841472Y-307391999D01*
X296055844Y-307045443D01*
X296277615Y-306658217D01*
X296489541Y-306264004D01*
X296674382Y-305896488D01*
X296814894Y-305589351D01*
X296893836Y-305376277D01*
X296904834Y-305314707D01*
X296833333Y-305269600D01*
X296672000Y-305273172D01*
X294994213Y-305608408D01*
X293307088Y-306084863D01*
X291598996Y-306706849D01*
X289858304Y-307478677D01*
X288073382Y-308404661D01*
X287775654Y-308571521D01*
X287473543Y-308749994D01*
X287050089Y-309011050D01*
X286524261Y-309342478D01*
X285915030Y-309732068D01*
X285241367Y-310167610D01*
X284522244Y-310636895D01*
X283776629Y-311127712D01*
X283023496Y-311627851D01*
X282929466Y-311690619D01*
X281994124Y-312313452D01*
X281183825Y-312848162D01*
X280484406Y-313303044D01*
X279881707Y-313686393D01*
X279361566Y-314006503D01*
X278909823Y-314271669D01*
X278512316Y-314490186D01*
X278154883Y-314670348D01*
X277823365Y-314820450D01*
X277503599Y-314948786D01*
X277181425Y-315063652D01*
X277156464Y-315072058D01*
X276392519Y-315277109D01*
X275520515Y-315425243D01*
X274593103Y-315512883D01*
X273662937Y-315536449D01*
X272782671Y-315492361D01*
X272175270Y-315410653D01*
X271326054Y-315208155D01*
X270408934Y-314903609D01*
X269472951Y-314517429D01*
X268567148Y-314070030D01*
X267740568Y-313581825D01*
X267669492Y-313535091D01*
X266980733Y-313015790D01*
X266246923Y-312346107D01*
X265475912Y-311536518D01*
X264675551Y-310597500D01*
X263853694Y-309539527D01*
X263018190Y-308373077D01*
X262176893Y-307108624D01*
X261337652Y-305756643D01*
X260508321Y-304327612D01*
X259813486Y-303053463D01*
X259620489Y-302696220D01*
X259485308Y-302432525D01*
X259423103Y-302246423D01*
X259449036Y-302121959D01*
X259578266Y-302043178D01*
X259825953Y-301994126D01*
X260207260Y-301958849D01*
X260737346Y-301921390D01*
X260900620Y-301909385D01*
X262084401Y-301862111D01*
X263277764Y-301904190D01*
G37*
X263277764Y-301904190D02*
X263306146Y-301906192D01*
X264419772Y-302007354D01*
X265446414Y-302150794D01*
X266419099Y-302346165D01*
X267370855Y-302603120D01*
X268334707Y-302931309D01*
X269343684Y-303340386D01*
X270430811Y-303840003D01*
X271166167Y-304203307D01*
X272264233Y-304767471D01*
X273268909Y-305306059D01*
X274211150Y-305838214D01*
X275121912Y-306383081D01*
X276032150Y-306959806D01*
X276972821Y-307587531D01*
X277974880Y-308285402D01*
X279069282Y-309072564D01*
X279235181Y-309193576D01*
X279560360Y-309434442D01*
X279765355Y-309598848D01*
X279868715Y-309707429D01*
X279888988Y-309780822D01*
X279844722Y-309839662D01*
X279827848Y-309852941D01*
X279677496Y-309945533D01*
X279424092Y-310081456D01*
X279105207Y-310242695D01*
X278758415Y-310411234D01*
X278421286Y-310569059D01*
X278131392Y-310698153D01*
X277926305Y-310780501D01*
X277851161Y-310800750D01*
X277747906Y-310755776D01*
X277530112Y-310631245D01*
X277223316Y-310442748D01*
X276853055Y-310205871D01*
X276550258Y-310006631D01*
X274794675Y-308895980D01*
X273088881Y-307936443D01*
X271419056Y-307122206D01*
X269771379Y-306447452D01*
X268132031Y-305906365D01*
X266487191Y-305493128D01*
X265303000Y-305273286D01*
X265128889Y-305274659D01*
X265071408Y-305330324D01*
X265108119Y-305442178D01*
X265205913Y-305666959D01*
X265347975Y-305967242D01*
X265450517Y-306174143D01*
X266150516Y-307395625D01*
X266967598Y-308523737D01*
X267887766Y-309544326D01*
X268897025Y-310443242D01*
X269981378Y-311206333D01*
X270954500Y-311738957D01*
X271736607Y-312077231D01*
X272479557Y-312314612D01*
X273244616Y-312465899D01*
X274093049Y-312545892D01*
X274341167Y-312557070D01*
X275288916Y-312554665D01*
X276169949Y-312467664D01*
X277050394Y-312286293D01*
X277911686Y-312029373D01*
X278360185Y-311872673D01*
X278775077Y-311710624D01*
X279176049Y-311531664D01*
X279582794Y-311324229D01*
X280014999Y-311076757D01*
X280492354Y-310777685D01*
X281034549Y-310415449D01*
X281661273Y-309978488D01*
X282392217Y-309455239D01*
X282807834Y-309154074D01*
X284018013Y-308286678D01*
X285132967Y-307514833D01*
X286182641Y-306820047D01*
X287196976Y-306183824D01*
X288205917Y-305587671D01*
X289239408Y-305013092D01*
X290327391Y-304441594D01*
X290935834Y-304133885D01*
X292098452Y-303575407D01*
X293165138Y-303115045D01*
X294170346Y-302742873D01*
X295148529Y-302448966D01*
X296134142Y-302223399D01*
X297161641Y-302056246D01*
X298265478Y-301937581D01*
X298668854Y-301906192D01*
X299181987Y-301881662D01*
X299763802Y-301873574D01*
X300376554Y-301880518D01*
X300982502Y-301901082D01*
X301543901Y-301933855D01*
X302023009Y-301977426D01*
X302382083Y-302030383D01*
X302461162Y-302047992D01*
X302656106Y-302096919D01*
X302394460Y-302617668D01*
X301837487Y-303677018D01*
X301198123Y-304808399D01*
X300499664Y-305975057D01*
X299765409Y-307140241D01*
X299018656Y-308267196D01*
X298282702Y-309319169D01*
X297580846Y-310259409D01*
X297421865Y-310462084D01*
X296622103Y-311419591D01*
X295848951Y-312235315D01*
X295079347Y-312929356D01*
X294290226Y-313521812D01*
X293458526Y-314032785D01*
X293114920Y-314215712D01*
X291902460Y-314768336D01*
X290719051Y-315166309D01*
X289539661Y-315415443D01*
X288339255Y-315521551D01*
X287515711Y-315515733D01*
X286711396Y-315463369D01*
X286016139Y-315373417D01*
X285371655Y-315234164D01*
X284719657Y-315033893D01*
X284247167Y-314858795D01*
X283859605Y-314696201D01*
X283449892Y-314505542D01*
X283044205Y-314301380D01*
X282668719Y-314098277D01*
X282349609Y-313910795D01*
X282113050Y-313753498D01*
X281985219Y-313640948D01*
X281975856Y-313595174D01*
X282067296Y-313527381D01*
X282272559Y-313382826D01*
X282565335Y-313179809D01*
X282919313Y-312936630D01*
X283104167Y-312810378D01*
X284162500Y-312088913D01*
X284781884Y-312246750D01*
X285798880Y-312450249D01*
X286839311Y-312555061D01*
X287862706Y-312560872D01*
X288828591Y-312467367D01*
X289661506Y-312284659D01*
X290756016Y-311878835D01*
X291829823Y-311317148D01*
X292865963Y-310613026D01*
X293847476Y-309779899D01*
X294757399Y-308831194D01*
X295578769Y-307780341D01*
X295841472Y-307391999D01*
X296055844Y-307045443D01*
X296277615Y-306658217D01*
X296489541Y-306264004D01*
X296674382Y-305896488D01*
X296814894Y-305589351D01*
X296893836Y-305376277D01*
X296904834Y-305314707D01*
X296833333Y-305269600D01*
X296672000Y-305273172D01*
X294994213Y-305608408D01*
X293307088Y-306084863D01*
X291598996Y-306706849D01*
X289858304Y-307478677D01*
X288073382Y-308404661D01*
X287775654Y-308571521D01*
X287473543Y-308749994D01*
X287050089Y-309011050D01*
X286524261Y-309342478D01*
X285915030Y-309732068D01*
X285241367Y-310167610D01*
X284522244Y-310636895D01*
X283776629Y-311127712D01*
X283023496Y-311627851D01*
X282929466Y-311690619D01*
X281994124Y-312313452D01*
X281183825Y-312848162D01*
X280484406Y-313303044D01*
X279881707Y-313686393D01*
X279361566Y-314006503D01*
X278909823Y-314271669D01*
X278512316Y-314490186D01*
X278154883Y-314670348D01*
X277823365Y-314820450D01*
X277503599Y-314948786D01*
X277181425Y-315063652D01*
X277156464Y-315072058D01*
X276392519Y-315277109D01*
X275520515Y-315425243D01*
X274593103Y-315512883D01*
X273662937Y-315536449D01*
X272782671Y-315492361D01*
X272175270Y-315410653D01*
X271326054Y-315208155D01*
X270408934Y-314903609D01*
X269472951Y-314517429D01*
X268567148Y-314070030D01*
X267740568Y-313581825D01*
X267669492Y-313535091D01*
X266980733Y-313015790D01*
X266246923Y-312346107D01*
X265475912Y-311536518D01*
X264675551Y-310597500D01*
X263853694Y-309539527D01*
X263018190Y-308373077D01*
X262176893Y-307108624D01*
X261337652Y-305756643D01*
X260508321Y-304327612D01*
X259813486Y-303053463D01*
X259620489Y-302696220D01*
X259485308Y-302432525D01*
X259423103Y-302246423D01*
X259449036Y-302121959D01*
X259578266Y-302043178D01*
X259825953Y-301994126D01*
X260207260Y-301958849D01*
X260737346Y-301921390D01*
X260900620Y-301909385D01*
X262084401Y-301862111D01*
X263277764Y-301904190D01*
G36*
X223939696Y-315546330D02*
G01*
X224126605Y-315699893D01*
X224366870Y-315922963D01*
X224514581Y-316069793D01*
X224993627Y-316639993D01*
X225402338Y-317288428D01*
X225711449Y-317962486D01*
X225873189Y-318512260D01*
X225954461Y-319293416D01*
X225892125Y-320122441D01*
X225692451Y-320968401D01*
X225361713Y-321800362D01*
X225112609Y-322263778D01*
X224932938Y-322547913D01*
X224712428Y-322869910D01*
X224475135Y-323197849D01*
X224245114Y-323499813D01*
X224046418Y-323743882D01*
X223903103Y-323898139D01*
X223853642Y-323934326D01*
X223776679Y-323883239D01*
X223625565Y-323729108D01*
X223429923Y-323502697D01*
X223384933Y-323447585D01*
X222726930Y-322535491D01*
X222236445Y-321633837D01*
X221912190Y-320739702D01*
X221752879Y-319850165D01*
X221743462Y-319722500D01*
X221739891Y-319046948D01*
X221826914Y-318441021D01*
X222018202Y-317839905D01*
X222246895Y-317336053D01*
X222428692Y-317020538D01*
X222666618Y-316674531D01*
X222936016Y-316326664D01*
X223212226Y-316005566D01*
X223470593Y-315739869D01*
X223686457Y-315558204D01*
X223835161Y-315489201D01*
X223837500Y-315489167D01*
X223939696Y-315546330D01*
G37*
X223939696Y-315546330D02*
X224126605Y-315699893D01*
X224366870Y-315922963D01*
X224514581Y-316069793D01*
X224993627Y-316639993D01*
X225402338Y-317288428D01*
X225711449Y-317962486D01*
X225873189Y-318512260D01*
X225954461Y-319293416D01*
X225892125Y-320122441D01*
X225692451Y-320968401D01*
X225361713Y-321800362D01*
X225112609Y-322263778D01*
X224932938Y-322547913D01*
X224712428Y-322869910D01*
X224475135Y-323197849D01*
X224245114Y-323499813D01*
X224046418Y-323743882D01*
X223903103Y-323898139D01*
X223853642Y-323934326D01*
X223776679Y-323883239D01*
X223625565Y-323729108D01*
X223429923Y-323502697D01*
X223384933Y-323447585D01*
X222726930Y-322535491D01*
X222236445Y-321633837D01*
X221912190Y-320739702D01*
X221752879Y-319850165D01*
X221743462Y-319722500D01*
X221739891Y-319046948D01*
X221826914Y-318441021D01*
X222018202Y-317839905D01*
X222246895Y-317336053D01*
X222428692Y-317020538D01*
X222666618Y-316674531D01*
X222936016Y-316326664D01*
X223212226Y-316005566D01*
X223470593Y-315739869D01*
X223686457Y-315558204D01*
X223835161Y-315489201D01*
X223837500Y-315489167D01*
X223939696Y-315546330D01*
G36*
X213685690Y-320232085D02*
G01*
X215340997Y-320910912D01*
X216841288Y-321595642D01*
X218200862Y-322294591D01*
X219434021Y-323016075D01*
X220555064Y-323768412D01*
X221578291Y-324559915D01*
X222436016Y-325320797D01*
X223149227Y-325995911D01*
X222633840Y-326668902D01*
X222393156Y-326976115D01*
X222227602Y-327164577D01*
X222114692Y-327253901D01*
X222031939Y-327263700D01*
X221983219Y-327236364D01*
X221854108Y-327133023D01*
X221637824Y-326957411D01*
X221377910Y-326744901D01*
X221339909Y-326713719D01*
X220682825Y-326218615D01*
X219905834Y-325706136D01*
X219053031Y-325201056D01*
X218168512Y-324728147D01*
X217296374Y-324312183D01*
X216480713Y-323977935D01*
X216450334Y-323966780D01*
X215963500Y-323788877D01*
X215963714Y-323978188D01*
X215991633Y-324200191D01*
X216067859Y-324543309D01*
X216181594Y-324969972D01*
X216322041Y-325442612D01*
X216478405Y-325923659D01*
X216639889Y-326375544D01*
X216690136Y-326505958D01*
X217157064Y-327583060D01*
X217729724Y-328722960D01*
X218382763Y-329881262D01*
X219090828Y-331013571D01*
X219828563Y-332075490D01*
X220008523Y-332316667D01*
X220130496Y-332486854D01*
X220186335Y-332583501D01*
X220184812Y-332591834D01*
X220104391Y-332548095D01*
X219920015Y-332432133D01*
X219667831Y-332266830D01*
X219603263Y-332223717D01*
X219216183Y-331971717D01*
X218745533Y-331676610D01*
X218228510Y-331360623D01*
X217702311Y-331045979D01*
X217204131Y-330754903D01*
X216771167Y-330509620D01*
X216440616Y-330332354D01*
X216421880Y-330322868D01*
X215906592Y-330063409D01*
X215432542Y-328935788D01*
X214882691Y-327548309D01*
X214402522Y-326173009D01*
X213998225Y-324832900D01*
X213675987Y-323550995D01*
X213441995Y-322350307D01*
X213302438Y-321253850D01*
X213278525Y-320925121D01*
X213228214Y-320053408D01*
X213685690Y-320232085D01*
G37*
X213685690Y-320232085D02*
X215340997Y-320910912D01*
X216841288Y-321595642D01*
X218200862Y-322294591D01*
X219434021Y-323016075D01*
X220555064Y-323768412D01*
X221578291Y-324559915D01*
X222436016Y-325320797D01*
X223149227Y-325995911D01*
X222633840Y-326668902D01*
X222393156Y-326976115D01*
X222227602Y-327164577D01*
X222114692Y-327253901D01*
X222031939Y-327263700D01*
X221983219Y-327236364D01*
X221854108Y-327133023D01*
X221637824Y-326957411D01*
X221377910Y-326744901D01*
X221339909Y-326713719D01*
X220682825Y-326218615D01*
X219905834Y-325706136D01*
X219053031Y-325201056D01*
X218168512Y-324728147D01*
X217296374Y-324312183D01*
X216480713Y-323977935D01*
X216450334Y-323966780D01*
X215963500Y-323788877D01*
X215963714Y-323978188D01*
X215991633Y-324200191D01*
X216067859Y-324543309D01*
X216181594Y-324969972D01*
X216322041Y-325442612D01*
X216478405Y-325923659D01*
X216639889Y-326375544D01*
X216690136Y-326505958D01*
X217157064Y-327583060D01*
X217729724Y-328722960D01*
X218382763Y-329881262D01*
X219090828Y-331013571D01*
X219828563Y-332075490D01*
X220008523Y-332316667D01*
X220130496Y-332486854D01*
X220186335Y-332583501D01*
X220184812Y-332591834D01*
X220104391Y-332548095D01*
X219920015Y-332432133D01*
X219667831Y-332266830D01*
X219603263Y-332223717D01*
X219216183Y-331971717D01*
X218745533Y-331676610D01*
X218228510Y-331360623D01*
X217702311Y-331045979D01*
X217204131Y-330754903D01*
X216771167Y-330509620D01*
X216440616Y-330332354D01*
X216421880Y-330322868D01*
X215906592Y-330063409D01*
X215432542Y-328935788D01*
X214882691Y-327548309D01*
X214402522Y-326173009D01*
X213998225Y-324832900D01*
X213675987Y-323550995D01*
X213441995Y-322350307D01*
X213302438Y-321253850D01*
X213278525Y-320925121D01*
X213228214Y-320053408D01*
X213685690Y-320232085D01*
G36*
X234396475Y-320925121D02*
G01*
X234289147Y-321980067D01*
X234085759Y-323146693D01*
X233792561Y-324401748D01*
X233415803Y-325721978D01*
X232961732Y-327084133D01*
X232436599Y-328464958D01*
X232245670Y-328928154D01*
X231774831Y-330048140D01*
X230975301Y-330475340D01*
X230532931Y-330721349D01*
X229981334Y-331043535D01*
X229351495Y-331423135D01*
X228674400Y-331841384D01*
X227981036Y-332279519D01*
X227732167Y-332439302D01*
X227435834Y-332630410D01*
X227655360Y-332335955D01*
X228492851Y-331147734D01*
X229275098Y-329909866D01*
X229980095Y-328660886D01*
X230585834Y-327439329D01*
X230984865Y-326505958D01*
X231145724Y-326071057D01*
X231304867Y-325595148D01*
X231451498Y-325115803D01*
X231574821Y-324670588D01*
X231664037Y-324297075D01*
X231708353Y-324032832D01*
X231711287Y-323978188D01*
X231711500Y-323788877D01*
X231224667Y-323969341D01*
X229670590Y-324634769D01*
X228187420Y-325448814D01*
X226786322Y-326401644D01*
X225478464Y-327483431D01*
X224275010Y-328684347D01*
X223187128Y-329994560D01*
X222225984Y-331404242D01*
X221667607Y-332382215D01*
X221480403Y-332727465D01*
X221318763Y-333009858D01*
X221200080Y-333200060D01*
X221142002Y-333268746D01*
X221045205Y-333219436D01*
X220881773Y-333099175D01*
X220856145Y-333078246D01*
X220626456Y-332888167D01*
X220969301Y-331872167D01*
X221485792Y-330525906D01*
X222096257Y-329259168D01*
X222787206Y-328095972D01*
X223545146Y-327060334D01*
X223911366Y-326634724D01*
X224885034Y-325633296D01*
X225927601Y-324701707D01*
X227053950Y-323830501D01*
X228278962Y-323010227D01*
X229617522Y-322231428D01*
X231084510Y-321484652D01*
X232694811Y-320760444D01*
X233989310Y-320232771D01*
X234446786Y-320053408D01*
X234396475Y-320925121D01*
G37*
X234396475Y-320925121D02*
X234289147Y-321980067D01*
X234085759Y-323146693D01*
X233792561Y-324401748D01*
X233415803Y-325721978D01*
X232961732Y-327084133D01*
X232436599Y-328464958D01*
X232245670Y-328928154D01*
X231774831Y-330048140D01*
X230975301Y-330475340D01*
X230532931Y-330721349D01*
X229981334Y-331043535D01*
X229351495Y-331423135D01*
X228674400Y-331841384D01*
X227981036Y-332279519D01*
X227732167Y-332439302D01*
X227435834Y-332630410D01*
X227655360Y-332335955D01*
X228492851Y-331147734D01*
X229275098Y-329909866D01*
X229980095Y-328660886D01*
X230585834Y-327439329D01*
X230984865Y-326505958D01*
X231145724Y-326071057D01*
X231304867Y-325595148D01*
X231451498Y-325115803D01*
X231574821Y-324670588D01*
X231664037Y-324297075D01*
X231708353Y-324032832D01*
X231711287Y-323978188D01*
X231711500Y-323788877D01*
X231224667Y-323969341D01*
X229670590Y-324634769D01*
X228187420Y-325448814D01*
X226786322Y-326401644D01*
X225478464Y-327483431D01*
X224275010Y-328684347D01*
X223187128Y-329994560D01*
X222225984Y-331404242D01*
X221667607Y-332382215D01*
X221480403Y-332727465D01*
X221318763Y-333009858D01*
X221200080Y-333200060D01*
X221142002Y-333268746D01*
X221045205Y-333219436D01*
X220881773Y-333099175D01*
X220856145Y-333078246D01*
X220626456Y-332888167D01*
X220969301Y-331872167D01*
X221485792Y-330525906D01*
X222096257Y-329259168D01*
X222787206Y-328095972D01*
X223545146Y-327060334D01*
X223911366Y-326634724D01*
X224885034Y-325633296D01*
X225927601Y-324701707D01*
X227053950Y-323830501D01*
X228278962Y-323010227D01*
X229617522Y-322231428D01*
X231084510Y-321484652D01*
X232694811Y-320760444D01*
X233989310Y-320232771D01*
X234446786Y-320053408D01*
X234396475Y-320925121D01*
G36*
X206127764Y-328097940D02*
G01*
X206156146Y-328099942D01*
X207269772Y-328201104D01*
X208296414Y-328344544D01*
X209269099Y-328539915D01*
X210220855Y-328796870D01*
X211184707Y-329125059D01*
X212193684Y-329534136D01*
X213280811Y-330033753D01*
X214016167Y-330397057D01*
X215114233Y-330961221D01*
X216118909Y-331499809D01*
X217061150Y-332031964D01*
X217971912Y-332576831D01*
X218882150Y-333153556D01*
X219822821Y-333781281D01*
X220824880Y-334479152D01*
X221919282Y-335266314D01*
X222085181Y-335387326D01*
X222410360Y-335628192D01*
X222615355Y-335792598D01*
X222718715Y-335901179D01*
X222738988Y-335974572D01*
X222694722Y-336033412D01*
X222677848Y-336046691D01*
X222527496Y-336139283D01*
X222274092Y-336275206D01*
X221955207Y-336436445D01*
X221608415Y-336604984D01*
X221271286Y-336762809D01*
X220981392Y-336891903D01*
X220776305Y-336974251D01*
X220701161Y-336994500D01*
X220597906Y-336949526D01*
X220380112Y-336824995D01*
X220073316Y-336636498D01*
X219703055Y-336399621D01*
X219400258Y-336200381D01*
X217644675Y-335089730D01*
X215938881Y-334130193D01*
X214269056Y-333315956D01*
X212621379Y-332641202D01*
X210982031Y-332100115D01*
X209337191Y-331686878D01*
X208153000Y-331467036D01*
X207978889Y-331468409D01*
X207921408Y-331524074D01*
X207958119Y-331635928D01*
X208055913Y-331860709D01*
X208197975Y-332160992D01*
X208300517Y-332367893D01*
X209000516Y-333589375D01*
X209817598Y-334717487D01*
X210737766Y-335738076D01*
X211747025Y-336636992D01*
X212831378Y-337400083D01*
X213804500Y-337932707D01*
X214586607Y-338270981D01*
X215329557Y-338508362D01*
X216094616Y-338659649D01*
X216943049Y-338739642D01*
X217191167Y-338750820D01*
X218138916Y-338748415D01*
X219019949Y-338661414D01*
X219900394Y-338480043D01*
X220761686Y-338223123D01*
X221210185Y-338066423D01*
X221625077Y-337904374D01*
X222026049Y-337725414D01*
X222432794Y-337517979D01*
X222864999Y-337270507D01*
X223342354Y-336971435D01*
X223884549Y-336609199D01*
X224511273Y-336172238D01*
X225242217Y-335648989D01*
X225657834Y-335347824D01*
X226868013Y-334480428D01*
X227982967Y-333708583D01*
X229032641Y-333013797D01*
X230046976Y-332377574D01*
X231055917Y-331781421D01*
X232089408Y-331206842D01*
X233177391Y-330635344D01*
X233785834Y-330327635D01*
X234948452Y-329769157D01*
X236015138Y-329308795D01*
X237020346Y-328936623D01*
X237998529Y-328642716D01*
X238984142Y-328417149D01*
X240011641Y-328249996D01*
X241115478Y-328131331D01*
X241518854Y-328099942D01*
X242031987Y-328075412D01*
X242613802Y-328067324D01*
X243226554Y-328074268D01*
X243832502Y-328094832D01*
X244393901Y-328127605D01*
X244873009Y-328171176D01*
X245232083Y-328224133D01*
X245311162Y-328241742D01*
X245506106Y-328290669D01*
X245244460Y-328811418D01*
X244687487Y-329870768D01*
X244048123Y-331002149D01*
X243349664Y-332168807D01*
X242615409Y-333333991D01*
X241868656Y-334460946D01*
X241132702Y-335512919D01*
X240430846Y-336453159D01*
X240271865Y-336655834D01*
X239472103Y-337613341D01*
X238698951Y-338429065D01*
X237929347Y-339123106D01*
X237140226Y-339715562D01*
X236308526Y-340226535D01*
X235964920Y-340409462D01*
X234752460Y-340962086D01*
X233569051Y-341360059D01*
X232389661Y-341609193D01*
X231189255Y-341715301D01*
X230365711Y-341709483D01*
X229561396Y-341657119D01*
X228866139Y-341567167D01*
X228221655Y-341427914D01*
X227569657Y-341227643D01*
X227097167Y-341052545D01*
X226709605Y-340889951D01*
X226299892Y-340699292D01*
X225894205Y-340495130D01*
X225518719Y-340292027D01*
X225199609Y-340104545D01*
X224963050Y-339947248D01*
X224835219Y-339834698D01*
X224825856Y-339788924D01*
X224917296Y-339721131D01*
X225122559Y-339576576D01*
X225415335Y-339373559D01*
X225769313Y-339130380D01*
X225954167Y-339004128D01*
X227012500Y-338282663D01*
X227631884Y-338440500D01*
X228648880Y-338643999D01*
X229689311Y-338748811D01*
X230712706Y-338754622D01*
X231678591Y-338661117D01*
X232511506Y-338478409D01*
X233606016Y-338072585D01*
X234679823Y-337510898D01*
X235715963Y-336806776D01*
X236697476Y-335973649D01*
X237607399Y-335024944D01*
X238428769Y-333974091D01*
X238691472Y-333585749D01*
X238905844Y-333239193D01*
X239127615Y-332851967D01*
X239339541Y-332457754D01*
X239524382Y-332090238D01*
X239664894Y-331783101D01*
X239743836Y-331570027D01*
X239754834Y-331508457D01*
X239683333Y-331463350D01*
X239522000Y-331466922D01*
X237844213Y-331802158D01*
X236157088Y-332278613D01*
X234448996Y-332900599D01*
X232708304Y-333672427D01*
X230923382Y-334598411D01*
X230625654Y-334765271D01*
X230323543Y-334943744D01*
X229900089Y-335204800D01*
X229374261Y-335536228D01*
X228765030Y-335925818D01*
X228091367Y-336361360D01*
X227372244Y-336830645D01*
X226626629Y-337321462D01*
X225873496Y-337821601D01*
X225779466Y-337884369D01*
X224844124Y-338507202D01*
X224033825Y-339041912D01*
X223334406Y-339496794D01*
X222731707Y-339880143D01*
X222211566Y-340200253D01*
X221759823Y-340465419D01*
X221362316Y-340683936D01*
X221004883Y-340864098D01*
X220673365Y-341014200D01*
X220353599Y-341142536D01*
X220031425Y-341257402D01*
X220006464Y-341265808D01*
X219242519Y-341470859D01*
X218370515Y-341618993D01*
X217443103Y-341706633D01*
X216512937Y-341730199D01*
X215632671Y-341686111D01*
X215025270Y-341604403D01*
X214176054Y-341401905D01*
X213258934Y-341097359D01*
X212322951Y-340711179D01*
X211417148Y-340263780D01*
X210590568Y-339775575D01*
X210519492Y-339728841D01*
X209830733Y-339209540D01*
X209096923Y-338539857D01*
X208325912Y-337730268D01*
X207525551Y-336791250D01*
X206703694Y-335733277D01*
X205868190Y-334566827D01*
X205026893Y-333302374D01*
X204187652Y-331950393D01*
X203358321Y-330521362D01*
X202663486Y-329247213D01*
X202470489Y-328889970D01*
X202335308Y-328626275D01*
X202273103Y-328440173D01*
X202299036Y-328315709D01*
X202428266Y-328236928D01*
X202675953Y-328187876D01*
X203057260Y-328152599D01*
X203587346Y-328115140D01*
X203750620Y-328103135D01*
X204934401Y-328055861D01*
X206127764Y-328097940D01*
G37*
X206127764Y-328097940D02*
X206156146Y-328099942D01*
X207269772Y-328201104D01*
X208296414Y-328344544D01*
X209269099Y-328539915D01*
X210220855Y-328796870D01*
X211184707Y-329125059D01*
X212193684Y-329534136D01*
X213280811Y-330033753D01*
X214016167Y-330397057D01*
X215114233Y-330961221D01*
X216118909Y-331499809D01*
X217061150Y-332031964D01*
X217971912Y-332576831D01*
X218882150Y-333153556D01*
X219822821Y-333781281D01*
X220824880Y-334479152D01*
X221919282Y-335266314D01*
X222085181Y-335387326D01*
X222410360Y-335628192D01*
X222615355Y-335792598D01*
X222718715Y-335901179D01*
X222738988Y-335974572D01*
X222694722Y-336033412D01*
X222677848Y-336046691D01*
X222527496Y-336139283D01*
X222274092Y-336275206D01*
X221955207Y-336436445D01*
X221608415Y-336604984D01*
X221271286Y-336762809D01*
X220981392Y-336891903D01*
X220776305Y-336974251D01*
X220701161Y-336994500D01*
X220597906Y-336949526D01*
X220380112Y-336824995D01*
X220073316Y-336636498D01*
X219703055Y-336399621D01*
X219400258Y-336200381D01*
X217644675Y-335089730D01*
X215938881Y-334130193D01*
X214269056Y-333315956D01*
X212621379Y-332641202D01*
X210982031Y-332100115D01*
X209337191Y-331686878D01*
X208153000Y-331467036D01*
X207978889Y-331468409D01*
X207921408Y-331524074D01*
X207958119Y-331635928D01*
X208055913Y-331860709D01*
X208197975Y-332160992D01*
X208300517Y-332367893D01*
X209000516Y-333589375D01*
X209817598Y-334717487D01*
X210737766Y-335738076D01*
X211747025Y-336636992D01*
X212831378Y-337400083D01*
X213804500Y-337932707D01*
X214586607Y-338270981D01*
X215329557Y-338508362D01*
X216094616Y-338659649D01*
X216943049Y-338739642D01*
X217191167Y-338750820D01*
X218138916Y-338748415D01*
X219019949Y-338661414D01*
X219900394Y-338480043D01*
X220761686Y-338223123D01*
X221210185Y-338066423D01*
X221625077Y-337904374D01*
X222026049Y-337725414D01*
X222432794Y-337517979D01*
X222864999Y-337270507D01*
X223342354Y-336971435D01*
X223884549Y-336609199D01*
X224511273Y-336172238D01*
X225242217Y-335648989D01*
X225657834Y-335347824D01*
X226868013Y-334480428D01*
X227982967Y-333708583D01*
X229032641Y-333013797D01*
X230046976Y-332377574D01*
X231055917Y-331781421D01*
X232089408Y-331206842D01*
X233177391Y-330635344D01*
X233785834Y-330327635D01*
X234948452Y-329769157D01*
X236015138Y-329308795D01*
X237020346Y-328936623D01*
X237998529Y-328642716D01*
X238984142Y-328417149D01*
X240011641Y-328249996D01*
X241115478Y-328131331D01*
X241518854Y-328099942D01*
X242031987Y-328075412D01*
X242613802Y-328067324D01*
X243226554Y-328074268D01*
X243832502Y-328094832D01*
X244393901Y-328127605D01*
X244873009Y-328171176D01*
X245232083Y-328224133D01*
X245311162Y-328241742D01*
X245506106Y-328290669D01*
X245244460Y-328811418D01*
X244687487Y-329870768D01*
X244048123Y-331002149D01*
X243349664Y-332168807D01*
X242615409Y-333333991D01*
X241868656Y-334460946D01*
X241132702Y-335512919D01*
X240430846Y-336453159D01*
X240271865Y-336655834D01*
X239472103Y-337613341D01*
X238698951Y-338429065D01*
X237929347Y-339123106D01*
X237140226Y-339715562D01*
X236308526Y-340226535D01*
X235964920Y-340409462D01*
X234752460Y-340962086D01*
X233569051Y-341360059D01*
X232389661Y-341609193D01*
X231189255Y-341715301D01*
X230365711Y-341709483D01*
X229561396Y-341657119D01*
X228866139Y-341567167D01*
X228221655Y-341427914D01*
X227569657Y-341227643D01*
X227097167Y-341052545D01*
X226709605Y-340889951D01*
X226299892Y-340699292D01*
X225894205Y-340495130D01*
X225518719Y-340292027D01*
X225199609Y-340104545D01*
X224963050Y-339947248D01*
X224835219Y-339834698D01*
X224825856Y-339788924D01*
X224917296Y-339721131D01*
X225122559Y-339576576D01*
X225415335Y-339373559D01*
X225769313Y-339130380D01*
X225954167Y-339004128D01*
X227012500Y-338282663D01*
X227631884Y-338440500D01*
X228648880Y-338643999D01*
X229689311Y-338748811D01*
X230712706Y-338754622D01*
X231678591Y-338661117D01*
X232511506Y-338478409D01*
X233606016Y-338072585D01*
X234679823Y-337510898D01*
X235715963Y-336806776D01*
X236697476Y-335973649D01*
X237607399Y-335024944D01*
X238428769Y-333974091D01*
X238691472Y-333585749D01*
X238905844Y-333239193D01*
X239127615Y-332851967D01*
X239339541Y-332457754D01*
X239524382Y-332090238D01*
X239664894Y-331783101D01*
X239743836Y-331570027D01*
X239754834Y-331508457D01*
X239683333Y-331463350D01*
X239522000Y-331466922D01*
X237844213Y-331802158D01*
X236157088Y-332278613D01*
X234448996Y-332900599D01*
X232708304Y-333672427D01*
X230923382Y-334598411D01*
X230625654Y-334765271D01*
X230323543Y-334943744D01*
X229900089Y-335204800D01*
X229374261Y-335536228D01*
X228765030Y-335925818D01*
X228091367Y-336361360D01*
X227372244Y-336830645D01*
X226626629Y-337321462D01*
X225873496Y-337821601D01*
X225779466Y-337884369D01*
X224844124Y-338507202D01*
X224033825Y-339041912D01*
X223334406Y-339496794D01*
X222731707Y-339880143D01*
X222211566Y-340200253D01*
X221759823Y-340465419D01*
X221362316Y-340683936D01*
X221004883Y-340864098D01*
X220673365Y-341014200D01*
X220353599Y-341142536D01*
X220031425Y-341257402D01*
X220006464Y-341265808D01*
X219242519Y-341470859D01*
X218370515Y-341618993D01*
X217443103Y-341706633D01*
X216512937Y-341730199D01*
X215632671Y-341686111D01*
X215025270Y-341604403D01*
X214176054Y-341401905D01*
X213258934Y-341097359D01*
X212322951Y-340711179D01*
X211417148Y-340263780D01*
X210590568Y-339775575D01*
X210519492Y-339728841D01*
X209830733Y-339209540D01*
X209096923Y-338539857D01*
X208325912Y-337730268D01*
X207525551Y-336791250D01*
X206703694Y-335733277D01*
X205868190Y-334566827D01*
X205026893Y-333302374D01*
X204187652Y-331950393D01*
X203358321Y-330521362D01*
X202663486Y-329247213D01*
X202470489Y-328889970D01*
X202335308Y-328626275D01*
X202273103Y-328440173D01*
X202299036Y-328315709D01*
X202428266Y-328236928D01*
X202675953Y-328187876D01*
X203057260Y-328152599D01*
X203587346Y-328115140D01*
X203750620Y-328103135D01*
X204934401Y-328055861D01*
X206127764Y-328097940D01*
G36*
X223939696Y-258396330D02*
G01*
X224126605Y-258549893D01*
X224366870Y-258772963D01*
X224514581Y-258919793D01*
X224993627Y-259489993D01*
X225402338Y-260138428D01*
X225711449Y-260812486D01*
X225873189Y-261362260D01*
X225954461Y-262143416D01*
X225892125Y-262972441D01*
X225692451Y-263818401D01*
X225361713Y-264650362D01*
X225112609Y-265113778D01*
X224932938Y-265397913D01*
X224712428Y-265719910D01*
X224475135Y-266047849D01*
X224245114Y-266349813D01*
X224046418Y-266593882D01*
X223903103Y-266748139D01*
X223853642Y-266784326D01*
X223776679Y-266733239D01*
X223625565Y-266579108D01*
X223429923Y-266352697D01*
X223384933Y-266297585D01*
X222726930Y-265385491D01*
X222236445Y-264483837D01*
X221912190Y-263589702D01*
X221752879Y-262700165D01*
X221743462Y-262572500D01*
X221739891Y-261896948D01*
X221826914Y-261291021D01*
X222018202Y-260689905D01*
X222246895Y-260186053D01*
X222428692Y-259870538D01*
X222666618Y-259524531D01*
X222936016Y-259176664D01*
X223212226Y-258855566D01*
X223470593Y-258589869D01*
X223686457Y-258408204D01*
X223835161Y-258339201D01*
X223837500Y-258339167D01*
X223939696Y-258396330D01*
G37*
X223939696Y-258396330D02*
X224126605Y-258549893D01*
X224366870Y-258772963D01*
X224514581Y-258919793D01*
X224993627Y-259489993D01*
X225402338Y-260138428D01*
X225711449Y-260812486D01*
X225873189Y-261362260D01*
X225954461Y-262143416D01*
X225892125Y-262972441D01*
X225692451Y-263818401D01*
X225361713Y-264650362D01*
X225112609Y-265113778D01*
X224932938Y-265397913D01*
X224712428Y-265719910D01*
X224475135Y-266047849D01*
X224245114Y-266349813D01*
X224046418Y-266593882D01*
X223903103Y-266748139D01*
X223853642Y-266784326D01*
X223776679Y-266733239D01*
X223625565Y-266579108D01*
X223429923Y-266352697D01*
X223384933Y-266297585D01*
X222726930Y-265385491D01*
X222236445Y-264483837D01*
X221912190Y-263589702D01*
X221752879Y-262700165D01*
X221743462Y-262572500D01*
X221739891Y-261896948D01*
X221826914Y-261291021D01*
X222018202Y-260689905D01*
X222246895Y-260186053D01*
X222428692Y-259870538D01*
X222666618Y-259524531D01*
X222936016Y-259176664D01*
X223212226Y-258855566D01*
X223470593Y-258589869D01*
X223686457Y-258408204D01*
X223835161Y-258339201D01*
X223837500Y-258339167D01*
X223939696Y-258396330D01*
G36*
X213685690Y-263082085D02*
G01*
X215340997Y-263760912D01*
X216841288Y-264445642D01*
X218200862Y-265144591D01*
X219434021Y-265866075D01*
X220555064Y-266618412D01*
X221578291Y-267409915D01*
X222436016Y-268170797D01*
X223149227Y-268845911D01*
X222633840Y-269518902D01*
X222393156Y-269826115D01*
X222227602Y-270014577D01*
X222114692Y-270103901D01*
X222031939Y-270113700D01*
X221983219Y-270086364D01*
X221854108Y-269983023D01*
X221637824Y-269807411D01*
X221377910Y-269594901D01*
X221339909Y-269563719D01*
X220682825Y-269068615D01*
X219905834Y-268556136D01*
X219053031Y-268051056D01*
X218168512Y-267578147D01*
X217296374Y-267162183D01*
X216480713Y-266827935D01*
X216450334Y-266816780D01*
X215963500Y-266638877D01*
X215963714Y-266828188D01*
X215991633Y-267050191D01*
X216067859Y-267393309D01*
X216181594Y-267819972D01*
X216322041Y-268292612D01*
X216478405Y-268773659D01*
X216639889Y-269225544D01*
X216690136Y-269355958D01*
X217157064Y-270433060D01*
X217729724Y-271572960D01*
X218382763Y-272731262D01*
X219090828Y-273863571D01*
X219828563Y-274925490D01*
X220008523Y-275166667D01*
X220130496Y-275336854D01*
X220186335Y-275433501D01*
X220184812Y-275441834D01*
X220104391Y-275398095D01*
X219920015Y-275282133D01*
X219667831Y-275116830D01*
X219603263Y-275073717D01*
X219216183Y-274821717D01*
X218745533Y-274526610D01*
X218228510Y-274210623D01*
X217702311Y-273895979D01*
X217204131Y-273604903D01*
X216771167Y-273359620D01*
X216440616Y-273182354D01*
X216421880Y-273172868D01*
X215906592Y-272913409D01*
X215432542Y-271785788D01*
X214882691Y-270398309D01*
X214402522Y-269023009D01*
X213998225Y-267682900D01*
X213675987Y-266400995D01*
X213441995Y-265200307D01*
X213302438Y-264103850D01*
X213278525Y-263775121D01*
X213228214Y-262903408D01*
X213685690Y-263082085D01*
G37*
X213685690Y-263082085D02*
X215340997Y-263760912D01*
X216841288Y-264445642D01*
X218200862Y-265144591D01*
X219434021Y-265866075D01*
X220555064Y-266618412D01*
X221578291Y-267409915D01*
X222436016Y-268170797D01*
X223149227Y-268845911D01*
X222633840Y-269518902D01*
X222393156Y-269826115D01*
X222227602Y-270014577D01*
X222114692Y-270103901D01*
X222031939Y-270113700D01*
X221983219Y-270086364D01*
X221854108Y-269983023D01*
X221637824Y-269807411D01*
X221377910Y-269594901D01*
X221339909Y-269563719D01*
X220682825Y-269068615D01*
X219905834Y-268556136D01*
X219053031Y-268051056D01*
X218168512Y-267578147D01*
X217296374Y-267162183D01*
X216480713Y-266827935D01*
X216450334Y-266816780D01*
X215963500Y-266638877D01*
X215963714Y-266828188D01*
X215991633Y-267050191D01*
X216067859Y-267393309D01*
X216181594Y-267819972D01*
X216322041Y-268292612D01*
X216478405Y-268773659D01*
X216639889Y-269225544D01*
X216690136Y-269355958D01*
X217157064Y-270433060D01*
X217729724Y-271572960D01*
X218382763Y-272731262D01*
X219090828Y-273863571D01*
X219828563Y-274925490D01*
X220008523Y-275166667D01*
X220130496Y-275336854D01*
X220186335Y-275433501D01*
X220184812Y-275441834D01*
X220104391Y-275398095D01*
X219920015Y-275282133D01*
X219667831Y-275116830D01*
X219603263Y-275073717D01*
X219216183Y-274821717D01*
X218745533Y-274526610D01*
X218228510Y-274210623D01*
X217702311Y-273895979D01*
X217204131Y-273604903D01*
X216771167Y-273359620D01*
X216440616Y-273182354D01*
X216421880Y-273172868D01*
X215906592Y-272913409D01*
X215432542Y-271785788D01*
X214882691Y-270398309D01*
X214402522Y-269023009D01*
X213998225Y-267682900D01*
X213675987Y-266400995D01*
X213441995Y-265200307D01*
X213302438Y-264103850D01*
X213278525Y-263775121D01*
X213228214Y-262903408D01*
X213685690Y-263082085D01*
G36*
X234396475Y-263775121D02*
G01*
X234289147Y-264830067D01*
X234085759Y-265996693D01*
X233792561Y-267251748D01*
X233415803Y-268571978D01*
X232961732Y-269934133D01*
X232436599Y-271314958D01*
X232245670Y-271778154D01*
X231774831Y-272898140D01*
X230975301Y-273325340D01*
X230532931Y-273571349D01*
X229981334Y-273893535D01*
X229351495Y-274273135D01*
X228674400Y-274691384D01*
X227981036Y-275129519D01*
X227732167Y-275289302D01*
X227435834Y-275480410D01*
X227655360Y-275185955D01*
X228492851Y-273997734D01*
X229275098Y-272759866D01*
X229980095Y-271510886D01*
X230585834Y-270289329D01*
X230984865Y-269355958D01*
X231145724Y-268921057D01*
X231304867Y-268445148D01*
X231451498Y-267965803D01*
X231574821Y-267520588D01*
X231664037Y-267147075D01*
X231708353Y-266882832D01*
X231711287Y-266828188D01*
X231711500Y-266638877D01*
X231224667Y-266819341D01*
X229670590Y-267484769D01*
X228187420Y-268298814D01*
X226786322Y-269251644D01*
X225478464Y-270333431D01*
X224275010Y-271534347D01*
X223187128Y-272844560D01*
X222225984Y-274254242D01*
X221667607Y-275232215D01*
X221480403Y-275577465D01*
X221318763Y-275859858D01*
X221200080Y-276050060D01*
X221142002Y-276118746D01*
X221045205Y-276069436D01*
X220881773Y-275949175D01*
X220856145Y-275928246D01*
X220626456Y-275738167D01*
X220969301Y-274722167D01*
X221485792Y-273375906D01*
X222096257Y-272109168D01*
X222787206Y-270945972D01*
X223545146Y-269910334D01*
X223911366Y-269484724D01*
X224885034Y-268483296D01*
X225927601Y-267551707D01*
X227053950Y-266680501D01*
X228278962Y-265860227D01*
X229617522Y-265081428D01*
X231084510Y-264334652D01*
X232694811Y-263610444D01*
X233989310Y-263082771D01*
X234446786Y-262903408D01*
X234396475Y-263775121D01*
G37*
X234396475Y-263775121D02*
X234289147Y-264830067D01*
X234085759Y-265996693D01*
X233792561Y-267251748D01*
X233415803Y-268571978D01*
X232961732Y-269934133D01*
X232436599Y-271314958D01*
X232245670Y-271778154D01*
X231774831Y-272898140D01*
X230975301Y-273325340D01*
X230532931Y-273571349D01*
X229981334Y-273893535D01*
X229351495Y-274273135D01*
X228674400Y-274691384D01*
X227981036Y-275129519D01*
X227732167Y-275289302D01*
X227435834Y-275480410D01*
X227655360Y-275185955D01*
X228492851Y-273997734D01*
X229275098Y-272759866D01*
X229980095Y-271510886D01*
X230585834Y-270289329D01*
X230984865Y-269355958D01*
X231145724Y-268921057D01*
X231304867Y-268445148D01*
X231451498Y-267965803D01*
X231574821Y-267520588D01*
X231664037Y-267147075D01*
X231708353Y-266882832D01*
X231711287Y-266828188D01*
X231711500Y-266638877D01*
X231224667Y-266819341D01*
X229670590Y-267484769D01*
X228187420Y-268298814D01*
X226786322Y-269251644D01*
X225478464Y-270333431D01*
X224275010Y-271534347D01*
X223187128Y-272844560D01*
X222225984Y-274254242D01*
X221667607Y-275232215D01*
X221480403Y-275577465D01*
X221318763Y-275859858D01*
X221200080Y-276050060D01*
X221142002Y-276118746D01*
X221045205Y-276069436D01*
X220881773Y-275949175D01*
X220856145Y-275928246D01*
X220626456Y-275738167D01*
X220969301Y-274722167D01*
X221485792Y-273375906D01*
X222096257Y-272109168D01*
X222787206Y-270945972D01*
X223545146Y-269910334D01*
X223911366Y-269484724D01*
X224885034Y-268483296D01*
X225927601Y-267551707D01*
X227053950Y-266680501D01*
X228278962Y-265860227D01*
X229617522Y-265081428D01*
X231084510Y-264334652D01*
X232694811Y-263610444D01*
X233989310Y-263082771D01*
X234446786Y-262903408D01*
X234396475Y-263775121D01*
G36*
X206127764Y-270947940D02*
G01*
X206156146Y-270949942D01*
X207269772Y-271051104D01*
X208296414Y-271194544D01*
X209269099Y-271389915D01*
X210220855Y-271646870D01*
X211184707Y-271975059D01*
X212193684Y-272384136D01*
X213280811Y-272883753D01*
X214016167Y-273247057D01*
X215114233Y-273811221D01*
X216118909Y-274349809D01*
X217061150Y-274881964D01*
X217971912Y-275426831D01*
X218882150Y-276003556D01*
X219822821Y-276631281D01*
X220824880Y-277329152D01*
X221919282Y-278116314D01*
X222085181Y-278237326D01*
X222410360Y-278478192D01*
X222615355Y-278642598D01*
X222718715Y-278751179D01*
X222738988Y-278824572D01*
X222694722Y-278883412D01*
X222677848Y-278896691D01*
X222527496Y-278989283D01*
X222274092Y-279125206D01*
X221955207Y-279286445D01*
X221608415Y-279454984D01*
X221271286Y-279612809D01*
X220981392Y-279741903D01*
X220776305Y-279824251D01*
X220701161Y-279844500D01*
X220597906Y-279799526D01*
X220380112Y-279674995D01*
X220073316Y-279486498D01*
X219703055Y-279249621D01*
X219400258Y-279050381D01*
X217644675Y-277939730D01*
X215938881Y-276980193D01*
X214269056Y-276165956D01*
X212621379Y-275491202D01*
X210982031Y-274950115D01*
X209337191Y-274536878D01*
X208153000Y-274317036D01*
X207978889Y-274318409D01*
X207921408Y-274374074D01*
X207958119Y-274485928D01*
X208055913Y-274710709D01*
X208197975Y-275010992D01*
X208300517Y-275217893D01*
X209000516Y-276439375D01*
X209817598Y-277567487D01*
X210737766Y-278588076D01*
X211747025Y-279486992D01*
X212831378Y-280250083D01*
X213804500Y-280782707D01*
X214586607Y-281120981D01*
X215329557Y-281358362D01*
X216094616Y-281509649D01*
X216943049Y-281589642D01*
X217191167Y-281600820D01*
X218138916Y-281598415D01*
X219019949Y-281511414D01*
X219900394Y-281330043D01*
X220761686Y-281073123D01*
X221210185Y-280916423D01*
X221625077Y-280754374D01*
X222026049Y-280575414D01*
X222432794Y-280367979D01*
X222864999Y-280120507D01*
X223342354Y-279821435D01*
X223884549Y-279459199D01*
X224511273Y-279022238D01*
X225242217Y-278498989D01*
X225657834Y-278197824D01*
X226868013Y-277330428D01*
X227982967Y-276558583D01*
X229032641Y-275863797D01*
X230046976Y-275227574D01*
X231055917Y-274631421D01*
X232089408Y-274056842D01*
X233177391Y-273485344D01*
X233785834Y-273177635D01*
X234948452Y-272619157D01*
X236015138Y-272158795D01*
X237020346Y-271786623D01*
X237998529Y-271492716D01*
X238984142Y-271267149D01*
X240011641Y-271099996D01*
X241115478Y-270981331D01*
X241518854Y-270949942D01*
X242031987Y-270925412D01*
X242613802Y-270917324D01*
X243226554Y-270924268D01*
X243832502Y-270944832D01*
X244393901Y-270977605D01*
X244873009Y-271021176D01*
X245232083Y-271074133D01*
X245311162Y-271091742D01*
X245506106Y-271140669D01*
X245244460Y-271661418D01*
X244687487Y-272720768D01*
X244048123Y-273852149D01*
X243349664Y-275018807D01*
X242615409Y-276183991D01*
X241868656Y-277310946D01*
X241132702Y-278362919D01*
X240430846Y-279303159D01*
X240271865Y-279505834D01*
X239472103Y-280463341D01*
X238698951Y-281279065D01*
X237929347Y-281973106D01*
X237140226Y-282565562D01*
X236308526Y-283076535D01*
X235964920Y-283259462D01*
X234752460Y-283812086D01*
X233569051Y-284210059D01*
X232389661Y-284459193D01*
X231189255Y-284565301D01*
X230365711Y-284559483D01*
X229561396Y-284507119D01*
X228866139Y-284417167D01*
X228221655Y-284277914D01*
X227569657Y-284077643D01*
X227097167Y-283902545D01*
X226709605Y-283739951D01*
X226299892Y-283549292D01*
X225894205Y-283345130D01*
X225518719Y-283142027D01*
X225199609Y-282954545D01*
X224963050Y-282797248D01*
X224835219Y-282684698D01*
X224825856Y-282638924D01*
X224917296Y-282571131D01*
X225122559Y-282426576D01*
X225415335Y-282223559D01*
X225769313Y-281980380D01*
X225954167Y-281854128D01*
X227012500Y-281132663D01*
X227631884Y-281290500D01*
X228648880Y-281493999D01*
X229689311Y-281598811D01*
X230712706Y-281604622D01*
X231678591Y-281511117D01*
X232511506Y-281328409D01*
X233606016Y-280922585D01*
X234679823Y-280360898D01*
X235715963Y-279656776D01*
X236697476Y-278823649D01*
X237607399Y-277874944D01*
X238428769Y-276824091D01*
X238691472Y-276435749D01*
X238905844Y-276089193D01*
X239127615Y-275701967D01*
X239339541Y-275307754D01*
X239524382Y-274940238D01*
X239664894Y-274633101D01*
X239743836Y-274420027D01*
X239754834Y-274358457D01*
X239683333Y-274313350D01*
X239522000Y-274316922D01*
X237844213Y-274652158D01*
X236157088Y-275128613D01*
X234448996Y-275750599D01*
X232708304Y-276522427D01*
X230923382Y-277448411D01*
X230625654Y-277615271D01*
X230323543Y-277793744D01*
X229900089Y-278054800D01*
X229374261Y-278386228D01*
X228765030Y-278775818D01*
X228091367Y-279211360D01*
X227372244Y-279680645D01*
X226626629Y-280171462D01*
X225873496Y-280671601D01*
X225779466Y-280734369D01*
X224844124Y-281357202D01*
X224033825Y-281891912D01*
X223334406Y-282346794D01*
X222731707Y-282730143D01*
X222211566Y-283050253D01*
X221759823Y-283315419D01*
X221362316Y-283533936D01*
X221004883Y-283714098D01*
X220673365Y-283864200D01*
X220353599Y-283992536D01*
X220031425Y-284107402D01*
X220006464Y-284115808D01*
X219242519Y-284320859D01*
X218370515Y-284468993D01*
X217443103Y-284556633D01*
X216512937Y-284580199D01*
X215632671Y-284536111D01*
X215025270Y-284454403D01*
X214176054Y-284251905D01*
X213258934Y-283947359D01*
X212322951Y-283561179D01*
X211417148Y-283113780D01*
X210590568Y-282625575D01*
X210519492Y-282578841D01*
X209830733Y-282059540D01*
X209096923Y-281389857D01*
X208325912Y-280580268D01*
X207525551Y-279641250D01*
X206703694Y-278583277D01*
X205868190Y-277416827D01*
X205026893Y-276152374D01*
X204187652Y-274800393D01*
X203358321Y-273371362D01*
X202663486Y-272097213D01*
X202470489Y-271739970D01*
X202335308Y-271476275D01*
X202273103Y-271290173D01*
X202299036Y-271165709D01*
X202428266Y-271086928D01*
X202675953Y-271037876D01*
X203057260Y-271002599D01*
X203587346Y-270965140D01*
X203750620Y-270953135D01*
X204934401Y-270905861D01*
X206127764Y-270947940D01*
G37*
X206127764Y-270947940D02*
X206156146Y-270949942D01*
X207269772Y-271051104D01*
X208296414Y-271194544D01*
X209269099Y-271389915D01*
X210220855Y-271646870D01*
X211184707Y-271975059D01*
X212193684Y-272384136D01*
X213280811Y-272883753D01*
X214016167Y-273247057D01*
X215114233Y-273811221D01*
X216118909Y-274349809D01*
X217061150Y-274881964D01*
X217971912Y-275426831D01*
X218882150Y-276003556D01*
X219822821Y-276631281D01*
X220824880Y-277329152D01*
X221919282Y-278116314D01*
X222085181Y-278237326D01*
X222410360Y-278478192D01*
X222615355Y-278642598D01*
X222718715Y-278751179D01*
X222738988Y-278824572D01*
X222694722Y-278883412D01*
X222677848Y-278896691D01*
X222527496Y-278989283D01*
X222274092Y-279125206D01*
X221955207Y-279286445D01*
X221608415Y-279454984D01*
X221271286Y-279612809D01*
X220981392Y-279741903D01*
X220776305Y-279824251D01*
X220701161Y-279844500D01*
X220597906Y-279799526D01*
X220380112Y-279674995D01*
X220073316Y-279486498D01*
X219703055Y-279249621D01*
X219400258Y-279050381D01*
X217644675Y-277939730D01*
X215938881Y-276980193D01*
X214269056Y-276165956D01*
X212621379Y-275491202D01*
X210982031Y-274950115D01*
X209337191Y-274536878D01*
X208153000Y-274317036D01*
X207978889Y-274318409D01*
X207921408Y-274374074D01*
X207958119Y-274485928D01*
X208055913Y-274710709D01*
X208197975Y-275010992D01*
X208300517Y-275217893D01*
X209000516Y-276439375D01*
X209817598Y-277567487D01*
X210737766Y-278588076D01*
X211747025Y-279486992D01*
X212831378Y-280250083D01*
X213804500Y-280782707D01*
X214586607Y-281120981D01*
X215329557Y-281358362D01*
X216094616Y-281509649D01*
X216943049Y-281589642D01*
X217191167Y-281600820D01*
X218138916Y-281598415D01*
X219019949Y-281511414D01*
X219900394Y-281330043D01*
X220761686Y-281073123D01*
X221210185Y-280916423D01*
X221625077Y-280754374D01*
X222026049Y-280575414D01*
X222432794Y-280367979D01*
X222864999Y-280120507D01*
X223342354Y-279821435D01*
X223884549Y-279459199D01*
X224511273Y-279022238D01*
X225242217Y-278498989D01*
X225657834Y-278197824D01*
X226868013Y-277330428D01*
X227982967Y-276558583D01*
X229032641Y-275863797D01*
X230046976Y-275227574D01*
X231055917Y-274631421D01*
X232089408Y-274056842D01*
X233177391Y-273485344D01*
X233785834Y-273177635D01*
X234948452Y-272619157D01*
X236015138Y-272158795D01*
X237020346Y-271786623D01*
X237998529Y-271492716D01*
X238984142Y-271267149D01*
X240011641Y-271099996D01*
X241115478Y-270981331D01*
X241518854Y-270949942D01*
X242031987Y-270925412D01*
X242613802Y-270917324D01*
X243226554Y-270924268D01*
X243832502Y-270944832D01*
X244393901Y-270977605D01*
X244873009Y-271021176D01*
X245232083Y-271074133D01*
X245311162Y-271091742D01*
X245506106Y-271140669D01*
X245244460Y-271661418D01*
X244687487Y-272720768D01*
X244048123Y-273852149D01*
X243349664Y-275018807D01*
X242615409Y-276183991D01*
X241868656Y-277310946D01*
X241132702Y-278362919D01*
X240430846Y-279303159D01*
X240271865Y-279505834D01*
X239472103Y-280463341D01*
X238698951Y-281279065D01*
X237929347Y-281973106D01*
X237140226Y-282565562D01*
X236308526Y-283076535D01*
X235964920Y-283259462D01*
X234752460Y-283812086D01*
X233569051Y-284210059D01*
X232389661Y-284459193D01*
X231189255Y-284565301D01*
X230365711Y-284559483D01*
X229561396Y-284507119D01*
X228866139Y-284417167D01*
X228221655Y-284277914D01*
X227569657Y-284077643D01*
X227097167Y-283902545D01*
X226709605Y-283739951D01*
X226299892Y-283549292D01*
X225894205Y-283345130D01*
X225518719Y-283142027D01*
X225199609Y-282954545D01*
X224963050Y-282797248D01*
X224835219Y-282684698D01*
X224825856Y-282638924D01*
X224917296Y-282571131D01*
X225122559Y-282426576D01*
X225415335Y-282223559D01*
X225769313Y-281980380D01*
X225954167Y-281854128D01*
X227012500Y-281132663D01*
X227631884Y-281290500D01*
X228648880Y-281493999D01*
X229689311Y-281598811D01*
X230712706Y-281604622D01*
X231678591Y-281511117D01*
X232511506Y-281328409D01*
X233606016Y-280922585D01*
X234679823Y-280360898D01*
X235715963Y-279656776D01*
X236697476Y-278823649D01*
X237607399Y-277874944D01*
X238428769Y-276824091D01*
X238691472Y-276435749D01*
X238905844Y-276089193D01*
X239127615Y-275701967D01*
X239339541Y-275307754D01*
X239524382Y-274940238D01*
X239664894Y-274633101D01*
X239743836Y-274420027D01*
X239754834Y-274358457D01*
X239683333Y-274313350D01*
X239522000Y-274316922D01*
X237844213Y-274652158D01*
X236157088Y-275128613D01*
X234448996Y-275750599D01*
X232708304Y-276522427D01*
X230923382Y-277448411D01*
X230625654Y-277615271D01*
X230323543Y-277793744D01*
X229900089Y-278054800D01*
X229374261Y-278386228D01*
X228765030Y-278775818D01*
X228091367Y-279211360D01*
X227372244Y-279680645D01*
X226626629Y-280171462D01*
X225873496Y-280671601D01*
X225779466Y-280734369D01*
X224844124Y-281357202D01*
X224033825Y-281891912D01*
X223334406Y-282346794D01*
X222731707Y-282730143D01*
X222211566Y-283050253D01*
X221759823Y-283315419D01*
X221362316Y-283533936D01*
X221004883Y-283714098D01*
X220673365Y-283864200D01*
X220353599Y-283992536D01*
X220031425Y-284107402D01*
X220006464Y-284115808D01*
X219242519Y-284320859D01*
X218370515Y-284468993D01*
X217443103Y-284556633D01*
X216512937Y-284580199D01*
X215632671Y-284536111D01*
X215025270Y-284454403D01*
X214176054Y-284251905D01*
X213258934Y-283947359D01*
X212322951Y-283561179D01*
X211417148Y-283113780D01*
X210590568Y-282625575D01*
X210519492Y-282578841D01*
X209830733Y-282059540D01*
X209096923Y-281389857D01*
X208325912Y-280580268D01*
X207525551Y-279641250D01*
X206703694Y-278583277D01*
X205868190Y-277416827D01*
X205026893Y-276152374D01*
X204187652Y-274800393D01*
X203358321Y-273371362D01*
X202663486Y-272097213D01*
X202470489Y-271739970D01*
X202335308Y-271476275D01*
X202273103Y-271290173D01*
X202299036Y-271165709D01*
X202428266Y-271086928D01*
X202675953Y-271037876D01*
X203057260Y-271002599D01*
X203587346Y-270965140D01*
X203750620Y-270953135D01*
X204934401Y-270905861D01*
X206127764Y-270947940D01*
%TO.C,U1*%
D10*
X94350595Y-184364880D02*
X94350595Y-185174404D01*
X94398214Y-185269642D01*
X94445833Y-185317261D01*
X94541071Y-185364880D01*
X94731547Y-185364880D01*
X94826785Y-185317261D01*
X94874404Y-185269642D01*
X94922023Y-185174404D01*
X94922023Y-184364880D01*
X95922023Y-185364880D02*
X95350595Y-185364880D01*
X95636309Y-185364880D02*
X95636309Y-184364880D01*
X95541071Y-184507738D01*
X95445833Y-184602976D01*
X95350595Y-184650595D01*
%TD*%
M02*
